G04 #@! TF.GenerationSoftware,KiCad,Pcbnew,(6.0.7)*
G04 #@! TF.CreationDate,2023-02-15T16:43:35+05:30*
G04 #@! TF.ProjectId,POWER CARD,504f5745-5220-4434-9152-442e6b696361,rev?*
G04 #@! TF.SameCoordinates,Original*
G04 #@! TF.FileFunction,Copper,L2,Bot*
G04 #@! TF.FilePolarity,Positive*
%FSLAX46Y46*%
G04 Gerber Fmt 4.6, Leading zero omitted, Abs format (unit mm)*
G04 Created by KiCad (PCBNEW (6.0.7)) date 2023-02-15 16:43:35*
%MOMM*%
%LPD*%
G01*
G04 APERTURE LIST*
G04 Aperture macros list*
%AMRoundRect*
0 Rectangle with rounded corners*
0 $1 Rounding radius*
0 $2 $3 $4 $5 $6 $7 $8 $9 X,Y pos of 4 corners*
0 Add a 4 corners polygon primitive as box body*
4,1,4,$2,$3,$4,$5,$6,$7,$8,$9,$2,$3,0*
0 Add four circle primitives for the rounded corners*
1,1,$1+$1,$2,$3*
1,1,$1+$1,$4,$5*
1,1,$1+$1,$6,$7*
1,1,$1+$1,$8,$9*
0 Add four rect primitives between the rounded corners*
20,1,$1+$1,$2,$3,$4,$5,0*
20,1,$1+$1,$4,$5,$6,$7,0*
20,1,$1+$1,$6,$7,$8,$9,0*
20,1,$1+$1,$8,$9,$2,$3,0*%
G04 Aperture macros list end*
G04 #@! TA.AperFunction,Profile*
%ADD10C,0.100000*%
G04 #@! TD*
G04 #@! TA.AperFunction,ComponentPad*
%ADD11O,3.300000X2.300000*%
G04 #@! TD*
G04 #@! TA.AperFunction,ComponentPad*
%ADD12R,2.300000X2.300000*%
G04 #@! TD*
G04 #@! TA.AperFunction,ComponentPad*
%ADD13C,2.300000*%
G04 #@! TD*
G04 #@! TA.AperFunction,ComponentPad*
%ADD14O,1.600000X2.300000*%
G04 #@! TD*
G04 #@! TA.AperFunction,ComponentPad*
%ADD15C,6.000000*%
G04 #@! TD*
G04 #@! TA.AperFunction,ComponentPad*
%ADD16C,0.800000*%
G04 #@! TD*
G04 #@! TA.AperFunction,ComponentPad*
%ADD17R,1.500000X1.500000*%
G04 #@! TD*
G04 #@! TA.AperFunction,ComponentPad*
%ADD18C,1.800000*%
G04 #@! TD*
G04 #@! TA.AperFunction,ComponentPad*
%ADD19C,1.400000*%
G04 #@! TD*
G04 #@! TA.AperFunction,ComponentPad*
%ADD20RoundRect,0.250000X1.000000X-0.600000X1.000000X0.600000X-1.000000X0.600000X-1.000000X-0.600000X0*%
G04 #@! TD*
G04 #@! TA.AperFunction,ComponentPad*
%ADD21O,2.500000X1.700000*%
G04 #@! TD*
G04 #@! TA.AperFunction,ComponentPad*
%ADD22C,1.600000*%
G04 #@! TD*
G04 #@! TA.AperFunction,SMDPad,CuDef*
%ADD23RoundRect,0.200000X-0.537500X-0.200000X0.537500X-0.200000X0.537500X0.200000X-0.537500X0.200000X0*%
G04 #@! TD*
G04 #@! TA.AperFunction,SMDPad,CuDef*
%ADD24RoundRect,0.250000X-0.350000X-0.450000X0.350000X-0.450000X0.350000X0.450000X-0.350000X0.450000X0*%
G04 #@! TD*
G04 #@! TA.AperFunction,SMDPad,CuDef*
%ADD25RoundRect,0.250000X0.475000X-0.337500X0.475000X0.337500X-0.475000X0.337500X-0.475000X-0.337500X0*%
G04 #@! TD*
G04 #@! TA.AperFunction,SMDPad,CuDef*
%ADD26RoundRect,0.250000X0.350000X0.450000X-0.350000X0.450000X-0.350000X-0.450000X0.350000X-0.450000X0*%
G04 #@! TD*
G04 #@! TA.AperFunction,SMDPad,CuDef*
%ADD27RoundRect,0.250000X0.450000X-0.350000X0.450000X0.350000X-0.450000X0.350000X-0.450000X-0.350000X0*%
G04 #@! TD*
G04 #@! TA.AperFunction,SMDPad,CuDef*
%ADD28RoundRect,0.250000X-0.337500X-0.475000X0.337500X-0.475000X0.337500X0.475000X-0.337500X0.475000X0*%
G04 #@! TD*
G04 #@! TA.AperFunction,SMDPad,CuDef*
%ADD29RoundRect,0.250000X-0.450000X0.350000X-0.450000X-0.350000X0.450000X-0.350000X0.450000X0.350000X0*%
G04 #@! TD*
G04 #@! TA.AperFunction,SMDPad,CuDef*
%ADD30RoundRect,0.250000X-0.250000X-0.475000X0.250000X-0.475000X0.250000X0.475000X-0.250000X0.475000X0*%
G04 #@! TD*
G04 #@! TA.AperFunction,SMDPad,CuDef*
%ADD31R,4.600000X1.300000*%
G04 #@! TD*
G04 #@! TA.AperFunction,SMDPad,CuDef*
%ADD32R,4.850000X5.900000*%
G04 #@! TD*
G04 #@! TA.AperFunction,SMDPad,CuDef*
%ADD33R,4.700000X5.850000*%
G04 #@! TD*
G04 #@! TA.AperFunction,SMDPad,CuDef*
%ADD34R,4.750000X5.475000*%
G04 #@! TD*
G04 #@! TA.AperFunction,SMDPad,CuDef*
%ADD35R,9.975000X11.650000*%
G04 #@! TD*
G04 #@! TA.AperFunction,SMDPad,CuDef*
%ADD36R,4.850000X5.575000*%
G04 #@! TD*
G04 #@! TA.AperFunction,SMDPad,CuDef*
%ADD37RoundRect,0.150000X0.512500X0.150000X-0.512500X0.150000X-0.512500X-0.150000X0.512500X-0.150000X0*%
G04 #@! TD*
G04 #@! TA.AperFunction,SMDPad,CuDef*
%ADD38R,1.000000X2.500000*%
G04 #@! TD*
G04 #@! TA.AperFunction,SMDPad,CuDef*
%ADD39R,0.800000X2.500000*%
G04 #@! TD*
G04 #@! TA.AperFunction,SMDPad,CuDef*
%ADD40O,1.000000X2.500000*%
G04 #@! TD*
G04 #@! TA.AperFunction,SMDPad,CuDef*
%ADD41R,1.500000X2.000000*%
G04 #@! TD*
G04 #@! TA.AperFunction,SMDPad,CuDef*
%ADD42R,3.800000X2.000000*%
G04 #@! TD*
G04 #@! TA.AperFunction,SMDPad,CuDef*
%ADD43R,2.500000X3.000000*%
G04 #@! TD*
G04 #@! TA.AperFunction,SMDPad,CuDef*
%ADD44RoundRect,0.150000X0.825000X0.150000X-0.825000X0.150000X-0.825000X-0.150000X0.825000X-0.150000X0*%
G04 #@! TD*
G04 #@! TA.AperFunction,ViaPad*
%ADD45C,0.600000*%
G04 #@! TD*
G04 #@! TA.AperFunction,Conductor*
%ADD46C,0.200000*%
G04 #@! TD*
G04 #@! TA.AperFunction,Conductor*
%ADD47C,0.250000*%
G04 #@! TD*
G04 #@! TA.AperFunction,Conductor*
%ADD48C,0.500000*%
G04 #@! TD*
G04 #@! TA.AperFunction,Conductor*
%ADD49C,1.000000*%
G04 #@! TD*
G04 #@! TA.AperFunction,Conductor*
%ADD50C,0.400000*%
G04 #@! TD*
G04 #@! TA.AperFunction,Conductor*
%ADD51C,2.000000*%
G04 #@! TD*
G04 #@! TA.AperFunction,Conductor*
%ADD52C,0.750000*%
G04 #@! TD*
G04 #@! TA.AperFunction,Conductor*
%ADD53C,1.500000*%
G04 #@! TD*
G04 #@! TA.AperFunction,Conductor*
%ADD54C,0.800000*%
G04 #@! TD*
G04 #@! TA.AperFunction,Conductor*
%ADD55C,0.050000*%
G04 #@! TD*
G04 #@! TA.AperFunction,Conductor*
%ADD56C,1.200000*%
G04 #@! TD*
G04 APERTURE END LIST*
D10*
X85582966Y-123837734D02*
G75*
G03*
X89583042Y-127837734I4000034J34D01*
G01*
X85583042Y-68337734D02*
X85583042Y-123837734D01*
X118166574Y-127837734D02*
X118166574Y-64337734D01*
X89583042Y-127837734D02*
X118166574Y-127837734D01*
X118166574Y-64337734D02*
X89583042Y-64337734D01*
X89583042Y-64337732D02*
G75*
G03*
X85583042Y-68337734I-2J-3999998D01*
G01*
X81906894Y-125643083D02*
G75*
G03*
X81906894Y-125643083I-1J0D01*
G01*
D11*
X114523042Y-110727734D03*
D12*
X93622074Y-114023224D03*
D13*
X98622074Y-114023224D03*
D12*
X104558634Y-113967496D03*
D13*
X109558634Y-113967496D03*
D14*
X116282297Y-66236801D03*
X113742297Y-66236801D03*
X111202297Y-66236801D03*
X98502297Y-66236801D03*
X95962297Y-66236801D03*
X95962297Y-81476801D03*
X98502297Y-81476801D03*
X111202297Y-81476801D03*
X113742297Y-81476801D03*
X116282297Y-81476801D03*
D11*
X114553042Y-113927734D03*
D15*
X89558714Y-123804359D03*
D16*
X91414869Y-121948204D03*
X86933714Y-123804359D03*
X92183714Y-123804359D03*
X91414869Y-125660514D03*
X89558714Y-121179359D03*
X89558714Y-126429359D03*
X87702559Y-125660514D03*
X87702559Y-121948204D03*
D17*
X89428715Y-108904359D03*
D18*
X86888713Y-108904359D03*
D19*
X87473042Y-104637734D03*
D16*
X89058714Y-70929359D03*
X91683714Y-68304359D03*
X87202559Y-66448204D03*
D15*
X89058714Y-68304359D03*
D16*
X90914869Y-66448204D03*
X89058714Y-65679359D03*
X90914869Y-70160514D03*
X87202559Y-70160514D03*
X86433714Y-68304359D03*
D17*
X89528715Y-119004359D03*
D18*
X86988713Y-119004359D03*
D19*
X109603042Y-84047734D03*
X116003042Y-85157734D03*
D20*
X115213042Y-108427734D03*
D21*
X115213042Y-105927734D03*
X115213042Y-103427734D03*
X115213042Y-100927734D03*
D22*
X114163042Y-93237734D03*
D23*
X100805542Y-71257734D03*
X100805542Y-69357734D03*
X102680542Y-70307734D03*
D24*
X100365347Y-111678233D03*
X102365347Y-111678233D03*
D25*
X105293042Y-87245234D03*
X105293042Y-85170234D03*
D26*
X102833042Y-75857734D03*
X100833042Y-75857734D03*
D27*
X107873042Y-87187734D03*
X107873042Y-85187734D03*
D28*
X113795211Y-118802549D03*
X115870211Y-118802549D03*
D24*
X106803042Y-75827734D03*
X108803042Y-75827734D03*
D29*
X97483042Y-85177734D03*
X97483042Y-87177734D03*
X111403042Y-84847734D03*
X111403042Y-86847734D03*
X102583042Y-85157734D03*
X102583042Y-87157734D03*
D24*
X113814135Y-126427955D03*
X115814135Y-126427955D03*
X86891018Y-115103863D03*
X88891018Y-115103863D03*
D30*
X106453042Y-111647734D03*
X108353042Y-111647734D03*
D31*
X107976519Y-118234835D03*
X107976519Y-119934835D03*
D32*
X101026519Y-124384835D03*
D31*
X107976519Y-121634835D03*
D33*
X95951519Y-124459835D03*
D34*
X95976519Y-118497335D03*
D35*
X98539019Y-121559835D03*
D36*
X101026519Y-118547335D03*
D31*
X107976519Y-123334835D03*
X107976519Y-125034835D03*
D37*
X95234470Y-85067734D03*
X95234470Y-86017734D03*
X95234470Y-86967734D03*
X92959470Y-86967734D03*
X92959470Y-86017734D03*
X92959470Y-85067734D03*
D29*
X100064485Y-85168508D03*
X100064485Y-87168508D03*
D24*
X86856343Y-112963097D03*
X88856343Y-112963097D03*
D38*
X107788042Y-106417734D03*
X106300542Y-106405234D03*
X104788042Y-106417734D03*
D39*
X103288042Y-106417734D03*
X101788042Y-106417734D03*
D38*
X100288042Y-106417734D03*
X98788042Y-106417734D03*
D39*
X97288042Y-106417734D03*
X95788042Y-106417734D03*
D38*
X94288042Y-106417734D03*
X94250542Y-93105234D03*
D39*
X95750542Y-93105234D03*
X97250542Y-93105234D03*
X98750542Y-93105234D03*
X100250542Y-93105234D03*
X101750542Y-93105234D03*
X103250542Y-93105234D03*
D38*
X104750542Y-93105234D03*
X106263042Y-93017734D03*
D40*
X107750542Y-93117734D03*
D26*
X102693042Y-73467734D03*
X100693042Y-73467734D03*
D30*
X113808407Y-116338146D03*
X115708407Y-116338146D03*
D23*
X106835542Y-71207734D03*
X106835542Y-69307734D03*
X108710542Y-70257734D03*
D41*
X112103042Y-71567734D03*
D42*
X114403042Y-77867734D03*
D41*
X114403042Y-71567734D03*
X116703042Y-71567734D03*
D26*
X115789367Y-123889249D03*
X113789367Y-123889249D03*
D43*
X88665189Y-103046012D03*
X88665189Y-97096012D03*
D29*
X114023042Y-84787734D03*
X114023042Y-86787734D03*
D24*
X106803042Y-73397734D03*
X108803042Y-73397734D03*
D28*
X113789019Y-121375311D03*
X115864019Y-121375311D03*
D30*
X106733042Y-78237734D03*
X108633042Y-78237734D03*
D44*
X91998042Y-73752734D03*
X91998042Y-75022734D03*
X91998042Y-76292734D03*
X91998042Y-77562734D03*
X91998042Y-78832734D03*
X91998042Y-80102734D03*
X91998042Y-81372734D03*
X91998042Y-82642734D03*
X87048042Y-82642734D03*
X87048042Y-81372734D03*
X87048042Y-80102734D03*
X87048042Y-78832734D03*
X87048042Y-77562734D03*
X87048042Y-76292734D03*
X87048042Y-75022734D03*
X87048042Y-73752734D03*
D45*
X102983042Y-90437734D03*
X102883042Y-89637734D03*
X105613042Y-103147734D03*
X104633042Y-103097734D03*
X106653042Y-103177734D03*
X107743042Y-103207734D03*
X108783042Y-103237734D03*
X113083042Y-102737734D03*
X112883042Y-104737734D03*
X112883042Y-107037734D03*
X112883042Y-108237734D03*
X112883042Y-109237734D03*
X109783042Y-111837734D03*
X110983042Y-112537734D03*
X110983042Y-111537734D03*
X110983042Y-110637734D03*
X112083042Y-110137734D03*
X112083042Y-111137734D03*
X112083042Y-112037734D03*
X115583042Y-88137734D03*
X105563042Y-95907734D03*
X104563042Y-95907734D03*
X105563042Y-97387734D03*
X104583042Y-97337734D03*
X106603042Y-97417734D03*
X107693042Y-97447734D03*
X106563042Y-95907734D03*
X107663042Y-95907734D03*
X108733042Y-97477734D03*
X108763042Y-95907734D03*
X115283042Y-89637734D03*
X114183042Y-89637734D03*
X112983042Y-89637734D03*
X111783042Y-89637734D03*
X110583042Y-89637734D03*
X108483042Y-81837734D03*
X100483042Y-81437734D03*
X97283042Y-83137734D03*
X106083042Y-81137734D03*
X100483042Y-80437734D03*
X101483042Y-103837734D03*
X101483042Y-98537734D03*
X101483042Y-97037734D03*
X89033042Y-98117734D03*
X88993042Y-97157734D03*
X97253042Y-123847734D03*
X97193042Y-121767734D03*
X97253042Y-119687734D03*
X97283042Y-118017734D03*
X110483042Y-97037734D03*
X88993042Y-96077734D03*
X110393042Y-77747734D03*
X92933042Y-103957734D03*
X107603042Y-91307734D03*
X97033042Y-69227734D03*
X107283042Y-94707734D03*
X90893042Y-97987734D03*
X111663042Y-73637734D03*
X117171117Y-112349237D03*
X117223042Y-117167734D03*
X117205231Y-115427063D03*
X117173042Y-125527734D03*
X94313042Y-77947734D03*
X97033042Y-70537734D03*
X117186199Y-124768790D03*
X113983042Y-94547734D03*
X89564910Y-110958617D03*
X113293042Y-92297734D03*
X115383042Y-98337734D03*
X98333042Y-75177734D03*
X94293042Y-76707734D03*
X98826519Y-121634835D03*
X108753042Y-101607734D03*
X117110397Y-110740146D03*
X110977205Y-121657327D03*
X113903042Y-68557734D03*
X117250771Y-120541073D03*
X104383042Y-84337734D03*
X91943042Y-96697734D03*
X93343042Y-108747734D03*
X112233042Y-121567734D03*
X103086364Y-121634835D03*
X89903042Y-81757734D03*
X100611853Y-119678994D03*
X112743042Y-74827734D03*
X110353042Y-76587734D03*
X103203191Y-123914299D03*
X115363042Y-93737734D03*
X108783042Y-100037734D03*
X108283042Y-94717734D03*
X90213881Y-117183089D03*
X113963042Y-91947734D03*
X101475633Y-123858571D03*
X100363042Y-66917734D03*
X117193042Y-69617734D03*
X111083042Y-75697734D03*
X115453042Y-92807734D03*
X98983042Y-117987734D03*
X98800703Y-123886435D03*
X112703042Y-73667734D03*
X111433042Y-77777734D03*
X111003042Y-69197734D03*
X114863042Y-92107734D03*
X93803042Y-103957734D03*
X117224898Y-122366307D03*
X102506595Y-119678994D03*
X114023042Y-69527734D03*
X104583042Y-100037734D03*
X104603042Y-101467734D03*
X107683042Y-100037734D03*
X90963042Y-96667734D03*
X89923042Y-82697734D03*
X114573042Y-68017734D03*
X112293042Y-92287734D03*
X110473042Y-92257734D03*
X99993477Y-121634835D03*
X107713042Y-101577734D03*
X112123042Y-75727734D03*
X111373042Y-92277734D03*
X90923042Y-95507734D03*
X111393042Y-76617734D03*
X104869650Y-121634835D03*
X110483042Y-95237734D03*
X106773042Y-92507734D03*
X102562323Y-117979299D03*
X94323042Y-69217734D03*
X101433042Y-66917734D03*
X94793042Y-103947734D03*
X105583042Y-101517734D03*
X113183042Y-94157734D03*
X112043042Y-69227734D03*
X115063042Y-69557734D03*
X110443042Y-94167734D03*
X96143042Y-85797734D03*
X91181899Y-117183089D03*
X91903042Y-95537734D03*
X111323042Y-94137734D03*
X106583042Y-100037734D03*
X100138168Y-123858571D03*
X106623042Y-101547734D03*
X109573042Y-94177734D03*
X108793042Y-92237734D03*
X117343042Y-114187734D03*
X105099041Y-84297734D03*
X117263042Y-127007734D03*
X113133042Y-69257734D03*
X94353042Y-70517734D03*
X88851445Y-111353300D03*
X110483042Y-97937734D03*
X108313042Y-91517734D03*
X100444670Y-117979299D03*
X88077259Y-111368480D03*
X101470261Y-121634835D03*
X98884295Y-119706858D03*
X106793042Y-93297734D03*
X109573042Y-92267734D03*
X91873042Y-98047734D03*
X117233042Y-117907734D03*
X88933042Y-82697734D03*
X100373042Y-66047734D03*
X108753042Y-94177734D03*
X111703042Y-74797734D03*
X106783042Y-94067734D03*
X106953042Y-91657734D03*
X105583042Y-100037734D03*
X114863042Y-94397734D03*
X117183304Y-123055911D03*
X112293042Y-94167734D03*
X110483042Y-96149691D03*
X116153042Y-69587734D03*
X117248118Y-119737817D03*
X104423042Y-85267734D03*
X90062388Y-112985053D03*
X89123042Y-80967734D03*
X96543042Y-103967734D03*
X115633042Y-86757734D03*
X105972531Y-87885067D03*
X112199168Y-124761143D03*
X112183988Y-124108398D03*
X113774685Y-122633595D03*
X112889234Y-124084579D03*
X112914002Y-124827614D03*
X112874786Y-123244535D03*
X104783042Y-71337734D03*
X104793042Y-75197734D03*
X100833042Y-82707734D03*
X98683042Y-85117734D03*
X101991724Y-82848234D03*
X107978542Y-88493134D03*
X104173042Y-82497734D03*
X98103042Y-77567734D03*
X97356965Y-76818234D03*
X96288272Y-112191812D03*
X101583042Y-114087734D03*
X89855282Y-79687734D03*
X104473042Y-116377734D03*
X102413042Y-80147734D03*
X102751151Y-78373234D03*
X90549115Y-115215888D03*
D46*
X102503042Y-91927734D02*
X102503042Y-91457734D01*
D47*
X101783042Y-91237734D02*
X102283042Y-91237734D01*
X101683042Y-91137734D02*
X101783042Y-91237734D01*
X101683042Y-89037734D02*
X101683042Y-91137734D01*
X102283042Y-91237734D02*
X102503042Y-91457734D01*
X102153042Y-88567734D02*
X101683042Y-89037734D01*
X103443042Y-88567734D02*
X102153042Y-88567734D01*
D48*
X111683042Y-88137734D02*
X115583042Y-88137734D01*
X111383042Y-86867734D02*
X111383042Y-87837734D01*
X111403042Y-86847734D02*
X111383042Y-86867734D01*
X111383042Y-87837734D02*
X111683042Y-88137734D01*
D47*
X100833042Y-84399951D02*
X100064485Y-85168508D01*
X100833042Y-82707734D02*
X100833042Y-84399951D01*
X105972531Y-87885067D02*
X106183042Y-87674556D01*
X106183042Y-87674556D02*
X106183042Y-87437734D01*
X105990542Y-87867056D02*
X105990542Y-87245234D01*
X105990542Y-87245234D02*
X106545542Y-87245234D01*
X105293042Y-87245234D02*
X105990542Y-87245234D01*
X105972531Y-87885067D02*
X105990542Y-87867056D01*
X105195542Y-85267734D02*
X105293042Y-85170234D01*
X104423042Y-85267734D02*
X105195542Y-85267734D01*
X104383042Y-85227734D02*
X104423042Y-85267734D01*
D48*
X104383042Y-84337734D02*
X104383042Y-85227734D01*
X105099041Y-84297734D02*
X104423042Y-84297734D01*
D47*
X104423042Y-84297734D02*
X104383042Y-84337734D01*
X105293042Y-84491735D02*
X105099041Y-84297734D01*
X105293042Y-85170234D02*
X105293042Y-84491735D01*
X103653042Y-85847734D02*
X103333042Y-86167734D01*
X103653042Y-82867734D02*
X103653042Y-85847734D01*
X103343042Y-82557734D02*
X103653042Y-82867734D01*
X103333042Y-86167734D02*
X101913042Y-86167734D01*
X106545542Y-87312056D02*
X105972531Y-87885067D01*
X106545542Y-87245234D02*
X106545542Y-87312056D01*
X107643042Y-82497734D02*
X104173042Y-82497734D01*
X107873042Y-82727734D02*
X107643042Y-82497734D01*
X107873042Y-85187734D02*
X107873042Y-82727734D01*
X106713042Y-80147734D02*
X102413042Y-80147734D01*
X109603042Y-81627734D02*
X108663042Y-80687734D01*
X108663042Y-80687734D02*
X107253042Y-80687734D01*
X109603042Y-84047734D02*
X109603042Y-81627734D01*
X107253042Y-80687734D02*
X106713042Y-80147734D01*
X107873042Y-85187734D02*
X109073042Y-86387734D01*
X109073042Y-87848394D02*
X108428302Y-88493134D01*
X108428302Y-88493134D02*
X107978542Y-88493134D01*
X109073042Y-86387734D02*
X109073042Y-87848394D01*
X111323042Y-94137734D02*
X112263042Y-94137734D01*
X108263042Y-94667734D02*
X108753042Y-94177734D01*
X113983042Y-94547734D02*
X114713042Y-94547734D01*
D49*
X110533042Y-78237734D02*
X111213042Y-77557734D01*
X111983042Y-74127734D02*
X112053042Y-74127734D01*
D47*
X107053042Y-94257734D02*
X107453042Y-94657734D01*
X115363042Y-92897734D02*
X115453042Y-92807734D01*
X113958042Y-94347734D02*
X114588042Y-94347734D01*
X110443042Y-94167734D02*
X111293042Y-94167734D01*
D50*
X106300542Y-94055234D02*
X106923042Y-94677734D01*
D49*
X117210966Y-116386227D02*
X117210966Y-118567536D01*
X112123042Y-74057734D02*
X112103042Y-74037734D01*
D51*
X115098396Y-108427734D02*
X109558634Y-113967496D01*
D47*
X110433042Y-94177734D02*
X110443042Y-94167734D01*
X105430542Y-85307734D02*
X105293042Y-85170234D01*
D48*
X109558634Y-112083326D02*
X109123042Y-111647734D01*
D49*
X112103042Y-74037734D02*
X112103042Y-71567734D01*
D47*
X106300542Y-93255234D02*
X106300542Y-94055234D01*
X113173042Y-94167734D02*
X113183042Y-94157734D01*
D48*
X89658626Y-96902574D02*
X88615189Y-97946012D01*
D49*
X113143042Y-69147734D02*
X115483042Y-69147734D01*
D47*
X113423042Y-94097734D02*
X113433042Y-94097734D01*
X106300542Y-93255234D02*
X106300542Y-92870234D01*
X108753042Y-94177734D02*
X109573042Y-94177734D01*
D49*
X115708407Y-116338146D02*
X115708407Y-118640745D01*
X115870211Y-118802549D02*
X116975953Y-118802549D01*
X117223350Y-121847095D02*
X116751566Y-121375311D01*
X115708407Y-116338146D02*
X117127795Y-116338146D01*
X116443042Y-68187734D02*
X116443042Y-66397546D01*
X112103042Y-71567734D02*
X112103042Y-70187734D01*
D47*
X96143042Y-85847734D02*
X95973042Y-86017734D01*
X108523042Y-93962234D02*
X113287542Y-93962234D01*
X113287542Y-93962234D02*
X113423042Y-94097734D01*
D48*
X101470261Y-121634835D02*
X99993477Y-121634835D01*
D52*
X103288042Y-106267734D02*
X103288042Y-105206978D01*
D47*
X112263042Y-94137734D02*
X112293042Y-94167734D01*
D49*
X117223350Y-125821424D02*
X117223350Y-121847095D01*
D47*
X115250542Y-92735234D02*
X114655542Y-92140234D01*
X107088042Y-91687734D02*
X107058042Y-91687734D01*
D52*
X103288042Y-105206978D02*
X104477286Y-104017734D01*
D49*
X117127795Y-116338146D02*
X117145340Y-116320601D01*
D48*
X112030659Y-121634835D02*
X112063895Y-121601599D01*
D47*
X114723042Y-91967734D02*
X113983042Y-91967734D01*
D46*
X95234470Y-86017734D02*
X94793042Y-86017734D01*
D49*
X111213042Y-77557734D02*
X111213042Y-74897734D01*
D47*
X113743042Y-92077734D02*
X113323042Y-92497734D01*
X96143042Y-85797734D02*
X96143042Y-85847734D01*
X108703042Y-92267734D02*
X109573042Y-92267734D01*
X113963042Y-91947734D02*
X113643042Y-91947734D01*
X112293042Y-94167734D02*
X113173042Y-94167734D01*
X114863042Y-92107734D02*
X114723042Y-91967734D01*
D49*
X115870211Y-121369119D02*
X115864019Y-121375311D01*
D47*
X114580542Y-94380234D02*
X115245542Y-93715234D01*
D49*
X115708407Y-118640745D02*
X115870211Y-118802549D01*
D48*
X99993477Y-121634835D02*
X98826519Y-121634835D01*
X103086364Y-121634835D02*
X101470261Y-121634835D01*
D47*
X106773042Y-92257734D02*
X106773042Y-92507734D01*
D48*
X109558634Y-113967496D02*
X109558634Y-112083326D01*
D47*
X107053042Y-91667734D02*
X106633042Y-92087734D01*
X115453042Y-92807734D02*
X115453042Y-92697734D01*
X107478042Y-94627734D02*
X108028042Y-94627734D01*
X108523042Y-94167734D02*
X108523042Y-93962234D01*
X95973042Y-86017734D02*
X95234470Y-86017734D01*
X106813042Y-94007734D02*
X106873042Y-94067734D01*
D49*
X112103042Y-70187734D02*
X113143042Y-69147734D01*
D47*
X113883042Y-94327734D02*
X113993042Y-94437734D01*
D48*
X107976519Y-121634835D02*
X104869650Y-121634835D01*
D47*
X105293042Y-85170234D02*
X104817196Y-84694388D01*
D48*
X104817196Y-84694388D02*
X104817196Y-84332234D01*
D47*
X113303542Y-92507734D02*
X108593042Y-92507734D01*
X106938042Y-91852734D02*
X106803042Y-91987734D01*
D49*
X112053042Y-74127734D02*
X112123042Y-74057734D01*
X116975953Y-118802549D02*
X117210966Y-118567536D01*
X111213042Y-74897734D02*
X111983042Y-74127734D01*
D47*
X106963042Y-92147734D02*
X106963042Y-94347734D01*
D49*
X115814135Y-126427955D02*
X116616819Y-126427955D01*
D47*
X108058042Y-94692734D02*
X108568042Y-94182734D01*
X115288042Y-93772734D02*
X115288042Y-92682734D01*
X110493042Y-92277734D02*
X110473042Y-92257734D01*
D49*
X116443042Y-66397546D02*
X116282297Y-66236801D01*
D47*
X106813042Y-93297734D02*
X106813042Y-94007734D01*
X109573042Y-94177734D02*
X110433042Y-94177734D01*
D52*
X104477286Y-104017734D02*
X107288042Y-104017734D01*
D47*
X113663042Y-94327734D02*
X113883042Y-94327734D01*
D52*
X107788042Y-104517734D02*
X107788042Y-106267734D01*
D47*
X111293042Y-94167734D02*
X111323042Y-94137734D01*
X114863042Y-94397734D02*
X114863042Y-94237734D01*
D49*
X115870211Y-118802549D02*
X115870211Y-121369119D01*
D47*
X106943042Y-91717734D02*
X106763042Y-91717734D01*
D49*
X115483042Y-69147734D02*
X116443042Y-68187734D01*
D52*
X107288042Y-104017734D02*
X107788042Y-104517734D01*
D47*
X111383042Y-92287734D02*
X111373042Y-92277734D01*
X115363042Y-93737734D02*
X115363042Y-92897734D01*
X108652542Y-92427234D02*
X108593042Y-92367734D01*
X113293042Y-92297734D02*
X112303042Y-92297734D01*
X113183042Y-94157734D02*
X113573042Y-94547734D01*
X112303042Y-92297734D02*
X112293042Y-92287734D01*
X109573042Y-92267734D02*
X110463042Y-92267734D01*
X95234470Y-86017734D02*
X95053042Y-86017734D01*
X113573042Y-94547734D02*
X113983042Y-94547734D01*
X113643042Y-91947734D02*
X113293042Y-92297734D01*
X113433042Y-94097734D02*
X113663042Y-94327734D01*
X114863042Y-94237734D02*
X115363042Y-93737734D01*
D50*
X106773042Y-92507734D02*
X106773042Y-93257734D01*
D49*
X117210966Y-118567536D02*
X117210966Y-121834711D01*
D53*
X107976519Y-121634835D02*
X112030659Y-121634835D01*
D47*
X106873042Y-94067734D02*
X106873042Y-94237734D01*
D49*
X116616819Y-126427955D02*
X117223350Y-125821424D01*
D48*
X109123042Y-111647734D02*
X108353042Y-111647734D01*
D47*
X108043042Y-91477734D02*
X107303042Y-91477734D01*
D49*
X117210966Y-121834711D02*
X117223350Y-121847095D01*
D47*
X107138042Y-91452734D02*
X106843042Y-91747734D01*
X112293042Y-92287734D02*
X111383042Y-92287734D01*
X114708042Y-92127734D02*
X113658042Y-92127734D01*
X108173042Y-94677734D02*
X108183042Y-94667734D01*
X113983042Y-91967734D02*
X113963042Y-91947734D01*
X110463042Y-92267734D02*
X110473042Y-92257734D01*
X106923042Y-94677734D02*
X107463042Y-94677734D01*
D49*
X117145340Y-116320601D02*
X117210966Y-116386227D01*
D47*
X108653042Y-92097734D02*
X108163042Y-91607734D01*
X107313042Y-94677734D02*
X108173042Y-94677734D01*
X108538042Y-91892734D02*
X108453042Y-91807734D01*
X107203042Y-91507734D02*
X107143042Y-91567734D01*
X111373042Y-92277734D02*
X110493042Y-92277734D01*
D49*
X116751566Y-121375311D02*
X115864019Y-121375311D01*
D47*
X114713042Y-94547734D02*
X114863042Y-94397734D01*
X115453042Y-92697734D02*
X114863042Y-92107734D01*
D49*
X108633042Y-78237734D02*
X110533042Y-78237734D01*
D47*
X108183042Y-94667734D02*
X108263042Y-94667734D01*
D51*
X104869650Y-121634835D02*
X103086364Y-121634835D01*
X115213042Y-108427734D02*
X115098396Y-108427734D01*
D47*
X106873042Y-94237734D02*
X107313042Y-94677734D01*
X106773042Y-93257734D02*
X106813042Y-93297734D01*
X108243042Y-91537734D02*
X107073042Y-91537734D01*
D48*
X114403042Y-78847734D02*
X114403042Y-77867734D01*
X110073042Y-79427734D02*
X113823042Y-79427734D01*
D49*
X114403042Y-76237734D02*
X114403042Y-71567734D01*
D48*
X106486797Y-78483979D02*
X106733042Y-78237734D01*
D49*
X114423042Y-77337734D02*
X114423042Y-76257734D01*
D48*
X102693042Y-73467734D02*
X104293042Y-73467734D01*
D47*
X106803042Y-78600234D02*
X106795542Y-78607734D01*
D49*
X116282297Y-79196989D02*
X114423042Y-77337734D01*
D48*
X106653042Y-75827734D02*
X106803042Y-75827734D01*
X106803042Y-75827734D02*
X106803042Y-78600234D01*
X106733042Y-78237734D02*
X106733042Y-75897734D01*
X106803042Y-78600234D02*
X106803042Y-78787734D01*
X106803042Y-78787734D02*
X107853042Y-79837734D01*
X106733042Y-75897734D02*
X106803042Y-75827734D01*
X113823042Y-79427734D02*
X114403042Y-78847734D01*
X107853042Y-79837734D02*
X109663042Y-79837734D01*
X104293042Y-73467734D02*
X106653042Y-75827734D01*
D49*
X116282297Y-81476801D02*
X116282297Y-79196989D01*
D48*
X109663042Y-79837734D02*
X110073042Y-79427734D01*
D49*
X114423042Y-76257734D02*
X114403042Y-76237734D01*
D48*
X86856343Y-112963097D02*
X86856343Y-108936729D01*
X86856343Y-108936729D02*
X86888713Y-108904359D01*
X86891018Y-115103863D02*
X86891018Y-118906664D01*
X86891018Y-118906664D02*
X86988713Y-119004359D01*
D54*
X114163042Y-93237734D02*
X107818042Y-93237734D01*
D47*
X107818042Y-93237734D02*
X107788042Y-93267734D01*
D48*
X107976519Y-125034835D02*
X109726519Y-125034835D01*
X113814135Y-126427955D02*
X114447091Y-125794999D01*
X115789367Y-124371537D02*
X115789367Y-123889249D01*
X111597411Y-126192660D02*
X111832706Y-126427955D01*
X115558892Y-124602012D02*
X115789367Y-124371537D01*
X115278191Y-124602012D02*
X115558892Y-124602012D01*
X110884344Y-126192660D02*
X111597411Y-126192660D01*
X109726519Y-125034835D02*
X110884344Y-126192660D01*
X114447091Y-125794999D02*
X114447091Y-125433112D01*
X111832706Y-126427955D02*
X113814135Y-126427955D01*
X114447091Y-125433112D02*
X115278191Y-124602012D01*
D47*
X88856343Y-112963097D02*
X90040432Y-112963097D01*
X90040432Y-112963097D02*
X90062388Y-112985053D01*
D48*
X117553042Y-72627734D02*
X117553042Y-100407734D01*
D53*
X111079902Y-119934835D02*
X111492292Y-119522445D01*
D51*
X104558634Y-111987772D02*
X105033004Y-111987772D01*
X109443042Y-109527734D02*
X110793042Y-108177734D01*
D49*
X115213042Y-100927734D02*
X117033042Y-100927734D01*
D51*
X110748955Y-116333555D02*
X106919789Y-116333555D01*
D48*
X116723042Y-71797734D02*
X117553042Y-72627734D01*
D51*
X106324388Y-114632665D02*
X105659219Y-113967496D01*
D48*
X106453042Y-111647734D02*
X104898672Y-111647734D01*
D51*
X112053042Y-100927734D02*
X115213042Y-100927734D01*
X105659219Y-113967496D02*
X104558634Y-113967496D01*
D48*
X104898672Y-111647734D02*
X104558634Y-111987772D01*
D51*
X110793042Y-108177734D02*
X110793042Y-102187734D01*
X111492292Y-119522445D02*
X111492292Y-117076892D01*
D53*
X107976519Y-119934835D02*
X111079902Y-119934835D01*
D51*
X106324388Y-115738154D02*
X106324388Y-114632665D01*
X106324388Y-114632665D02*
X105973042Y-114281319D01*
X111492292Y-117076892D02*
X110748955Y-116333555D01*
D49*
X102365347Y-111678233D02*
X104249095Y-111678233D01*
D51*
X110793042Y-102187734D02*
X112053042Y-100927734D01*
X106324388Y-115733250D02*
X104558634Y-113967496D01*
X106324388Y-115738154D02*
X106324388Y-115733250D01*
X104558634Y-111987772D02*
X104558634Y-113967496D01*
X107493042Y-109527734D02*
X109443042Y-109527734D01*
D48*
X117033042Y-100927734D02*
X117553042Y-100407734D01*
D51*
X105033004Y-111987772D02*
X107493042Y-109527734D01*
X105973042Y-114281319D02*
X105973042Y-112667734D01*
X106919789Y-116333555D02*
X106324388Y-115738154D01*
D46*
X96543042Y-107917734D02*
X96643042Y-108017734D01*
D47*
X88228042Y-75022734D02*
X89083042Y-75877734D01*
D46*
X101788042Y-107842734D02*
X101788042Y-106417734D01*
X96643042Y-108017734D02*
X101613042Y-108017734D01*
D47*
X89083042Y-80927734D02*
X89123042Y-80967734D01*
D46*
X101613042Y-108017734D02*
X101788042Y-107842734D01*
X96543042Y-103967734D02*
X96543042Y-107917734D01*
D47*
X88228042Y-75022734D02*
X88526235Y-75320927D01*
X89083042Y-75877734D02*
X89083042Y-80927734D01*
X87048042Y-75022734D02*
X88228042Y-75022734D01*
X101788042Y-106267734D02*
X101788042Y-107562734D01*
D55*
X96543042Y-107497734D02*
X96543042Y-103967734D01*
D48*
X87073042Y-75047734D02*
X87048042Y-75022734D01*
X102680542Y-70307734D02*
X99783042Y-70307734D01*
D47*
X90974040Y-90858732D02*
X90974040Y-84156736D01*
D48*
X100813042Y-75877734D02*
X100833042Y-75857734D01*
D47*
X94288042Y-93317734D02*
X94288042Y-91482734D01*
X91563042Y-83567734D02*
X93573042Y-83567734D01*
D48*
X99263042Y-76227734D02*
X99263042Y-77037734D01*
X99783042Y-70307734D02*
X99273042Y-70817734D01*
D47*
X91258042Y-91142734D02*
X90974040Y-90858732D01*
X94003042Y-80217734D02*
X95723042Y-78497734D01*
X93948042Y-91142734D02*
X91258042Y-91142734D01*
D48*
X99273042Y-70817734D02*
X99273042Y-75537734D01*
D47*
X94003042Y-83137734D02*
X94003042Y-80217734D01*
X94288042Y-91482734D02*
X93948042Y-91142734D01*
X95723042Y-78497734D02*
X98723042Y-78497734D01*
X90974040Y-84156736D02*
X91563042Y-83567734D01*
D48*
X99613042Y-75877734D02*
X99263042Y-76227734D01*
D47*
X93573042Y-83567734D02*
X94003042Y-83137734D01*
D48*
X99613042Y-75877734D02*
X100813042Y-75877734D01*
X99273042Y-75537734D02*
X99613042Y-75877734D01*
D47*
X98723042Y-78497734D02*
X99263042Y-77957734D01*
X94482864Y-92711646D02*
X94482864Y-93311646D01*
X99263042Y-77957734D02*
X99263042Y-77037734D01*
D50*
X115603042Y-86787734D02*
X115633042Y-86757734D01*
X114023042Y-86787734D02*
X115603042Y-86787734D01*
D47*
X111603042Y-87047734D02*
X111403042Y-86847734D01*
X91873042Y-86407734D02*
X92263042Y-86017734D01*
X96493042Y-90387734D02*
X95773042Y-89667734D01*
X106545542Y-87245234D02*
X107815542Y-87245234D01*
D46*
X102563042Y-95967734D02*
X102503042Y-95907734D01*
D47*
X91873042Y-89087734D02*
X91873042Y-86407734D01*
D46*
X102523042Y-107977734D02*
X102523042Y-100817734D01*
X102503042Y-95907734D02*
X102503042Y-91947734D01*
D47*
X92263042Y-86017734D02*
X92959470Y-86017734D01*
X96132543Y-108447235D02*
X95788042Y-108102734D01*
X105333042Y-88167734D02*
X105333042Y-87285234D01*
X92453042Y-89667734D02*
X91873042Y-89087734D01*
X103443042Y-88567734D02*
X104933042Y-88567734D01*
D46*
X102563042Y-100777734D02*
X102563042Y-95967734D01*
D47*
X96493042Y-95837734D02*
X96493042Y-90387734D01*
D46*
X102053541Y-108447235D02*
X102523042Y-107977734D01*
D47*
X104933042Y-88567734D02*
X105333042Y-88167734D01*
X107815542Y-87245234D02*
X107873042Y-87187734D01*
D46*
X101658541Y-108447235D02*
X102053541Y-108447235D01*
D55*
X102523042Y-107582734D02*
X102523042Y-100817734D01*
D47*
X105333042Y-87285234D02*
X105293042Y-87245234D01*
X102523042Y-100817734D02*
X102563042Y-100777734D01*
X101658541Y-108447235D02*
X96132543Y-108447235D01*
X95788042Y-108102734D02*
X95788042Y-96542734D01*
X95773042Y-89667734D02*
X92453042Y-89667734D01*
X95788042Y-96542734D02*
X96493042Y-95837734D01*
D51*
X91382864Y-110127388D02*
X92244917Y-110989441D01*
D49*
X113789367Y-123889249D02*
X113789367Y-122438311D01*
D51*
X92244917Y-110989441D02*
X93915091Y-110989441D01*
X93915091Y-110989441D02*
X93622074Y-111282458D01*
D56*
X107976519Y-123334835D02*
X113234953Y-123334835D01*
D49*
X113234953Y-123334835D02*
X112925351Y-123334835D01*
D48*
X87048042Y-83702734D02*
X87048042Y-82642734D01*
D49*
X112199168Y-124123578D02*
X112183988Y-124108398D01*
D48*
X87231320Y-102246012D02*
X86633042Y-101647734D01*
D49*
X87473042Y-104637734D02*
X88363042Y-104637734D01*
X88363042Y-104637734D02*
X88665189Y-104335587D01*
D48*
X86633042Y-84117734D02*
X87048042Y-83702734D01*
D51*
X93622074Y-111282458D02*
X93622074Y-114023224D01*
D49*
X87343042Y-104507734D02*
X87473042Y-104637734D01*
D51*
X95126299Y-109778233D02*
X93915091Y-110989441D01*
X91382864Y-105013687D02*
X91382864Y-110127388D01*
D49*
X106300542Y-107760234D02*
X105043572Y-109017204D01*
X113789019Y-118808741D02*
X113795211Y-118802549D01*
D48*
X88006911Y-101637734D02*
X88615189Y-102246012D01*
D49*
X88113042Y-102598159D02*
X88665189Y-102046012D01*
X104788042Y-108761674D02*
X104788042Y-106267734D01*
X113795211Y-116351342D02*
X113808407Y-116338146D01*
X113774685Y-122633595D02*
X113774685Y-122795103D01*
X88665189Y-104335587D02*
X88665189Y-102046012D01*
X112925351Y-123334835D02*
X112925351Y-124709452D01*
D51*
X103037825Y-109778233D02*
X95126299Y-109778233D01*
D49*
X112925351Y-124709452D02*
X112911421Y-124723382D01*
X113234953Y-123334835D02*
X113789367Y-123889249D01*
X87343042Y-104097734D02*
X87343042Y-104507734D01*
X112199168Y-124761143D02*
X112199168Y-124123578D01*
X113789367Y-122438311D02*
X113789367Y-121375659D01*
X113795211Y-118802549D02*
X113795211Y-117649174D01*
X112265639Y-124827614D02*
X112199168Y-124761143D01*
X112914002Y-124827614D02*
X112265639Y-124827614D01*
X105043572Y-109017204D02*
X104788042Y-108761674D01*
X113795211Y-117649174D02*
X113795211Y-116351342D01*
X113774685Y-122795103D02*
X113234953Y-123334835D01*
D51*
X88615189Y-102246012D02*
X91382864Y-105013687D01*
D49*
X113789019Y-120190976D02*
X113789019Y-118808741D01*
D48*
X88615189Y-102246012D02*
X87231320Y-102246012D01*
D49*
X104118100Y-109017204D02*
X105043572Y-109017204D01*
X113789019Y-121375311D02*
X113789019Y-120190976D01*
X106300542Y-106255234D02*
X106300542Y-107760234D01*
D48*
X86633042Y-101647734D02*
X86633042Y-84117734D01*
D49*
X113789367Y-121375659D02*
X113789019Y-121375311D01*
D51*
X104118100Y-109017204D02*
X103798854Y-109017204D01*
X103798854Y-109017204D02*
X103037825Y-109778233D01*
D48*
X105353042Y-69307734D02*
X104783042Y-69877734D01*
D47*
X93649231Y-84167235D02*
X92133541Y-84167235D01*
X91983042Y-90337734D02*
X95013042Y-90337734D01*
X94452543Y-80403923D02*
X94452543Y-83363923D01*
D48*
X104793042Y-78067734D02*
X104793042Y-75197734D01*
D47*
X91423541Y-84877235D02*
X91423541Y-89778233D01*
X100773042Y-79307734D02*
X95548732Y-79307734D01*
X92133541Y-84167235D02*
X91423541Y-84877235D01*
D48*
X106835542Y-69307734D02*
X105353042Y-69307734D01*
X100423042Y-79307734D02*
X100773042Y-79307734D01*
D47*
X95548732Y-79307734D02*
X94452543Y-80403923D01*
D48*
X100773042Y-79307734D02*
X103553042Y-79307734D01*
D47*
X91423541Y-89778233D02*
X91983042Y-90337734D01*
D48*
X103553042Y-79307734D02*
X104793042Y-78067734D01*
X104783042Y-69877734D02*
X104783042Y-71337734D01*
D47*
X95013042Y-90337734D02*
X95788042Y-91112734D01*
X95788042Y-91112734D02*
X95788042Y-93317734D01*
X94452543Y-83363923D02*
X93649231Y-84167235D01*
D46*
X93946970Y-86263470D02*
X93946970Y-85020983D01*
X93938541Y-86271899D02*
X93946970Y-86263470D01*
X98983711Y-84087734D02*
X100064485Y-85168508D01*
X93946970Y-85020983D02*
X94880219Y-84087734D01*
X93594376Y-86967734D02*
X93938541Y-86623569D01*
X92959470Y-86967734D02*
X93594376Y-86967734D01*
X93938541Y-86623569D02*
X93938541Y-86271899D01*
X94880219Y-84087734D02*
X98983711Y-84087734D01*
D47*
X97483042Y-85177734D02*
X98623042Y-85177734D01*
X98623042Y-85177734D02*
X98683042Y-85117734D01*
X95234470Y-85067734D02*
X97373042Y-85067734D01*
X97373042Y-85067734D02*
X97483042Y-85177734D01*
X102583042Y-83439552D02*
X101991724Y-82848234D01*
X102583042Y-85157734D02*
X102583042Y-83439552D01*
X102287352Y-85157734D02*
X102583042Y-85157734D01*
X101296881Y-86148205D02*
X102287352Y-85157734D01*
X96632571Y-86148205D02*
X101296881Y-86148205D01*
X95813042Y-86967734D02*
X96632571Y-86148205D01*
X95234470Y-86967734D02*
X95813042Y-86967734D01*
D48*
X95883042Y-77327734D02*
X96123042Y-77567734D01*
X96123042Y-77567734D02*
X98103042Y-77567734D01*
X95248042Y-75022734D02*
X95883042Y-75657734D01*
X91998042Y-75022734D02*
X95248042Y-75022734D01*
X95883042Y-75657734D02*
X95883042Y-77327734D01*
X91998042Y-73752734D02*
X96228042Y-73752734D01*
X97356965Y-74881657D02*
X97356965Y-76818234D01*
X96228042Y-73752734D02*
X97356965Y-74881657D01*
D47*
X89855282Y-79687734D02*
X89863042Y-79687734D01*
D48*
X101114776Y-114087734D02*
X101583042Y-114087734D01*
D47*
X89863042Y-79687734D02*
X90183042Y-79367734D01*
D48*
X104473042Y-117481679D02*
X105226198Y-118234835D01*
D47*
X88258042Y-73752734D02*
X90183042Y-75677734D01*
D48*
X100365347Y-111678233D02*
X96801851Y-111678233D01*
D47*
X87048042Y-73752734D02*
X88258042Y-73752734D01*
D48*
X101108909Y-114081867D02*
X100365347Y-113338305D01*
D47*
X90183042Y-75677734D02*
X90183042Y-79367734D01*
D48*
X100365347Y-113338305D02*
X100365347Y-111678233D01*
X96801851Y-111678233D02*
X96288272Y-112191812D01*
X87063042Y-73737734D02*
X87048042Y-73752734D01*
X107976519Y-118234835D02*
X105226198Y-118234835D01*
X104473042Y-116377734D02*
X104473042Y-117481679D01*
X101108909Y-114081867D02*
X101114776Y-114087734D01*
X101733042Y-74537734D02*
X101903042Y-74707734D01*
X101903042Y-74707734D02*
X102603042Y-74707734D01*
D47*
X101913042Y-86167734D02*
X101233042Y-86847734D01*
X102413042Y-80147734D02*
X102423042Y-80157734D01*
D48*
X102833042Y-75857734D02*
X102833042Y-78291343D01*
X104623042Y-72097734D02*
X102123042Y-72097734D01*
X102833042Y-74937734D02*
X102833042Y-75857734D01*
X102833042Y-78291343D02*
X102751151Y-78373234D01*
D47*
X102733042Y-82557734D02*
X103343042Y-82557734D01*
X100288042Y-91712734D02*
X100288042Y-93317734D01*
D48*
X102123042Y-72097734D02*
X101733042Y-72487734D01*
X105923042Y-73397734D02*
X104623042Y-72097734D01*
D47*
X100293042Y-91707734D02*
X100288042Y-91712734D01*
X100293042Y-88797734D02*
X100293042Y-91707734D01*
D48*
X106803042Y-73397734D02*
X105923042Y-73397734D01*
D47*
X101233042Y-86847734D02*
X101233042Y-87857734D01*
X102423042Y-82247734D02*
X102733042Y-82557734D01*
X102423042Y-80157734D02*
X102423042Y-82247734D01*
D48*
X102603042Y-74707734D02*
X102833042Y-74937734D01*
X101733042Y-72487734D02*
X101733042Y-74537734D01*
D47*
X101233042Y-87857734D02*
X100293042Y-88797734D01*
X100993042Y-95917734D02*
X100993042Y-88717734D01*
X102583042Y-87157734D02*
X102583042Y-87197734D01*
X100288042Y-106267734D02*
X100288042Y-96652734D01*
X100993042Y-95947734D02*
X100993042Y-95917734D01*
X101023042Y-88717734D02*
X102583042Y-87157734D01*
X100288042Y-96652734D02*
X100993042Y-95947734D01*
X100043042Y-88187734D02*
X99543042Y-88687734D01*
X100043042Y-87189951D02*
X100043042Y-88187734D01*
X99493042Y-95897734D02*
X98788042Y-96602734D01*
X99493042Y-88737734D02*
X99493042Y-95897734D01*
D46*
X99543042Y-88687734D02*
X99493042Y-88737734D01*
D47*
X100064485Y-87168508D02*
X100043042Y-87189951D01*
X98788042Y-96602734D02*
X98788042Y-106267734D01*
X97993042Y-91427734D02*
X97483042Y-90917734D01*
X97483042Y-90917734D02*
X97483042Y-87177734D01*
X97288042Y-96822734D02*
X97993042Y-96117734D01*
X97993042Y-96117734D02*
X97993042Y-91427734D01*
X97288042Y-106267734D02*
X97288042Y-96822734D01*
D48*
X108803042Y-71547734D02*
X108803042Y-73397734D01*
X106835542Y-71207734D02*
X108463042Y-71207734D01*
X108463042Y-71207734D02*
X108803042Y-71547734D01*
X90549115Y-115215888D02*
X89003043Y-115215888D01*
X89003043Y-115215888D02*
X88891018Y-115103863D01*
X110333042Y-70467734D02*
X110123042Y-70257734D01*
X108940245Y-75827734D02*
X110333042Y-74434937D01*
X110333042Y-74434937D02*
X110333042Y-70467734D01*
X109943042Y-69627734D02*
X109313042Y-70257734D01*
X113742297Y-67178479D02*
X113023042Y-67897734D01*
X113742297Y-66236801D02*
X113742297Y-67178479D01*
X109313042Y-70257734D02*
X108710542Y-70257734D01*
X110183042Y-67897734D02*
X109943042Y-68137734D01*
X110123042Y-70257734D02*
X109313042Y-70257734D01*
X109943042Y-68137734D02*
X109943042Y-69627734D01*
X108803042Y-75827734D02*
X108940245Y-75827734D01*
X113023042Y-67897734D02*
X110183042Y-67897734D01*
X100693042Y-73467734D02*
X100693042Y-71370234D01*
D47*
X100693042Y-71370234D02*
X100805542Y-71257734D01*
D48*
X103853042Y-69357734D02*
X104923042Y-68287734D01*
X108303042Y-68287734D02*
X109573042Y-67017734D01*
X111202297Y-67098479D02*
X111202297Y-66236801D01*
X109573042Y-67017734D02*
X109573042Y-67007734D01*
X110343975Y-66236801D02*
X111202297Y-66236801D01*
X100805542Y-69357734D02*
X103853042Y-69357734D01*
X109573042Y-67007734D02*
X110343975Y-66236801D01*
X104923042Y-68287734D02*
X108303042Y-68287734D01*
X111202297Y-84646989D02*
X111202297Y-81476801D01*
D47*
X111403042Y-84847734D02*
X111202297Y-84646989D01*
X113742297Y-84506989D02*
X114023042Y-84787734D01*
D48*
X113742297Y-81476801D02*
X113742297Y-84506989D01*
D47*
X113742297Y-81476801D02*
X113352825Y-81476801D01*
G04 #@! TA.AperFunction,Conductor*
G36*
X117608699Y-101847321D02*
G01*
X117650611Y-101904626D01*
X117658074Y-101947344D01*
X117658074Y-127203234D01*
X117638072Y-127271355D01*
X117584416Y-127317848D01*
X117532074Y-127329234D01*
X116987630Y-127329234D01*
X116919509Y-127309232D01*
X116873016Y-127255576D01*
X116862912Y-127185302D01*
X116868037Y-127163566D01*
X116909273Y-127039245D01*
X116912140Y-127025869D01*
X116921807Y-126931517D01*
X116922135Y-126925101D01*
X116922135Y-126700070D01*
X116917660Y-126684831D01*
X116916270Y-126683626D01*
X116908587Y-126681955D01*
X115686135Y-126681955D01*
X115618014Y-126661953D01*
X115571521Y-126608297D01*
X115560135Y-126555955D01*
X115560135Y-126299955D01*
X115580137Y-126231834D01*
X115633793Y-126185341D01*
X115686135Y-126173955D01*
X116904019Y-126173955D01*
X116919258Y-126169480D01*
X116920463Y-126168090D01*
X116922134Y-126160407D01*
X116922134Y-125930860D01*
X116921797Y-125924341D01*
X116911878Y-125828749D01*
X116908986Y-125815355D01*
X116857547Y-125661171D01*
X116851374Y-125647993D01*
X116766072Y-125510148D01*
X116757036Y-125498747D01*
X116642306Y-125384216D01*
X116630895Y-125375204D01*
X116492892Y-125290139D01*
X116479707Y-125283990D01*
X116450437Y-125274282D01*
X116392076Y-125233852D01*
X116364839Y-125168288D01*
X116377372Y-125098406D01*
X116425696Y-125046394D01*
X116450225Y-125035166D01*
X116456362Y-125033118D01*
X116463313Y-125030799D01*
X116613715Y-124937727D01*
X116738672Y-124812552D01*
X116773121Y-124756666D01*
X116827642Y-124668217D01*
X116827643Y-124668215D01*
X116831482Y-124661987D01*
X116887164Y-124494110D01*
X116897867Y-124389649D01*
X116897867Y-123388849D01*
X116886893Y-123283083D01*
X116881627Y-123267297D01*
X116833235Y-123122251D01*
X116830917Y-123115303D01*
X116737845Y-122964901D01*
X116612670Y-122839944D01*
X116606439Y-122836103D01*
X116497228Y-122768784D01*
X116449734Y-122716011D01*
X116438311Y-122645940D01*
X116466585Y-122580816D01*
X116512817Y-122549266D01*
X116511675Y-122546828D01*
X116531481Y-122537550D01*
X116669326Y-122452248D01*
X116680727Y-122443212D01*
X116795258Y-122328482D01*
X116804270Y-122317071D01*
X116889335Y-122179068D01*
X116895482Y-122165887D01*
X116946657Y-122011601D01*
X116949524Y-121998225D01*
X116959191Y-121903873D01*
X116959519Y-121897457D01*
X116959519Y-121647426D01*
X116955044Y-121632187D01*
X116953654Y-121630982D01*
X116945971Y-121629311D01*
X115736019Y-121629311D01*
X115667898Y-121609309D01*
X115621405Y-121555653D01*
X115610019Y-121503311D01*
X115610019Y-121247311D01*
X115630021Y-121179190D01*
X115683677Y-121132697D01*
X115736019Y-121121311D01*
X116941403Y-121121311D01*
X116956642Y-121116836D01*
X116957847Y-121115446D01*
X116959518Y-121107763D01*
X116959518Y-120853216D01*
X116959181Y-120846697D01*
X116949262Y-120751105D01*
X116946370Y-120737711D01*
X116894931Y-120583527D01*
X116888758Y-120570349D01*
X116803456Y-120432504D01*
X116794420Y-120421103D01*
X116679690Y-120306572D01*
X116668279Y-120297560D01*
X116530274Y-120212493D01*
X116512519Y-120204214D01*
X116459233Y-120157297D01*
X116439772Y-120089020D01*
X116460313Y-120021060D01*
X116514336Y-119974994D01*
X116523505Y-119971425D01*
X116537673Y-119964788D01*
X116675518Y-119879486D01*
X116686919Y-119870450D01*
X116801450Y-119755720D01*
X116810462Y-119744309D01*
X116895527Y-119606306D01*
X116901674Y-119593125D01*
X116952849Y-119438839D01*
X116955716Y-119425463D01*
X116965383Y-119331111D01*
X116965711Y-119324695D01*
X116965711Y-119074664D01*
X116961236Y-119059425D01*
X116959846Y-119058220D01*
X116952163Y-119056549D01*
X115742211Y-119056549D01*
X115674090Y-119036547D01*
X115627597Y-118982891D01*
X115616211Y-118930549D01*
X115616211Y-117629261D01*
X115611736Y-117614022D01*
X115610346Y-117612817D01*
X115602663Y-117611146D01*
X115580407Y-117611146D01*
X115512286Y-117591144D01*
X115465793Y-117537488D01*
X115460125Y-117511434D01*
X115962407Y-117511434D01*
X115966882Y-117526673D01*
X115968272Y-117527878D01*
X115975955Y-117529549D01*
X115998211Y-117529549D01*
X116066332Y-117549551D01*
X116112825Y-117603207D01*
X116124211Y-117655549D01*
X116124211Y-118530434D01*
X116128686Y-118545673D01*
X116130076Y-118546878D01*
X116137759Y-118548549D01*
X116947595Y-118548549D01*
X116962834Y-118544074D01*
X116964039Y-118542684D01*
X116965710Y-118535001D01*
X116965710Y-118280454D01*
X116965373Y-118273935D01*
X116955454Y-118178343D01*
X116952562Y-118164949D01*
X116901123Y-118010765D01*
X116894950Y-117997587D01*
X116809648Y-117859742D01*
X116800612Y-117848341D01*
X116685882Y-117733810D01*
X116674471Y-117724798D01*
X116536468Y-117639733D01*
X116523287Y-117633586D01*
X116481917Y-117619864D01*
X116423557Y-117579433D01*
X116396321Y-117513868D01*
X116408855Y-117443987D01*
X116434036Y-117412820D01*
X116432442Y-117411229D01*
X116552146Y-117291317D01*
X116561158Y-117279906D01*
X116646223Y-117141903D01*
X116652370Y-117128722D01*
X116703545Y-116974436D01*
X116706412Y-116961060D01*
X116716079Y-116866708D01*
X116716407Y-116860292D01*
X116716407Y-116610261D01*
X116711932Y-116595022D01*
X116710542Y-116593817D01*
X116702859Y-116592146D01*
X115980522Y-116592146D01*
X115965283Y-116596621D01*
X115964078Y-116598011D01*
X115962407Y-116605694D01*
X115962407Y-117511434D01*
X115460125Y-117511434D01*
X115454407Y-117485146D01*
X115454407Y-116210146D01*
X115474409Y-116142025D01*
X115528065Y-116095532D01*
X115580407Y-116084146D01*
X116698291Y-116084146D01*
X116713530Y-116079671D01*
X116714735Y-116078281D01*
X116716406Y-116070598D01*
X116716406Y-115816051D01*
X116716069Y-115809532D01*
X116706150Y-115713940D01*
X116703258Y-115700546D01*
X116651819Y-115546362D01*
X116645646Y-115533184D01*
X116560344Y-115395339D01*
X116551308Y-115383938D01*
X116436578Y-115269407D01*
X116425167Y-115260395D01*
X116334292Y-115204379D01*
X116286799Y-115151607D01*
X116275375Y-115081535D01*
X116304597Y-115015288D01*
X116395330Y-114909055D01*
X116401122Y-114901082D01*
X116532313Y-114686998D01*
X116536794Y-114678204D01*
X116632876Y-114446242D01*
X116635925Y-114436857D01*
X116693862Y-114195532D01*
X116691588Y-114184704D01*
X116680124Y-114181734D01*
X112428020Y-114181734D01*
X112413227Y-114186078D01*
X112411839Y-114193934D01*
X112470159Y-114436857D01*
X112473208Y-114446242D01*
X112569290Y-114678204D01*
X112573771Y-114686998D01*
X112704962Y-114901082D01*
X112710754Y-114909055D01*
X112873826Y-115099986D01*
X112880790Y-115106950D01*
X112971939Y-115184799D01*
X113010748Y-115244250D01*
X113011254Y-115315245D01*
X112979283Y-115369626D01*
X112964997Y-115383938D01*
X112959102Y-115389843D01*
X112955262Y-115396073D01*
X112955261Y-115396074D01*
X112903062Y-115480757D01*
X112866292Y-115540408D01*
X112852761Y-115581202D01*
X112812786Y-115701726D01*
X112810610Y-115708285D01*
X112799907Y-115812746D01*
X112799907Y-115945518D01*
X112779905Y-116013639D01*
X112726249Y-116060132D01*
X112655975Y-116070236D01*
X112591395Y-116040742D01*
X112579393Y-116028843D01*
X112546942Y-115992034D01*
X112546939Y-115992031D01*
X112543594Y-115988237D01*
X112511303Y-115961713D01*
X112502184Y-115953443D01*
X111832630Y-115283889D01*
X111830176Y-115281367D01*
X111765093Y-115212543D01*
X111765090Y-115212541D01*
X111761623Y-115208874D01*
X111699194Y-115161144D01*
X111694063Y-115157003D01*
X111638088Y-115109364D01*
X111638087Y-115109363D01*
X111634235Y-115106085D01*
X111629910Y-115103466D01*
X111629905Y-115103462D01*
X111606131Y-115089064D01*
X111594884Y-115081392D01*
X111568781Y-115061435D01*
X111499547Y-115024312D01*
X111493823Y-115021048D01*
X111490448Y-115019004D01*
X111426597Y-114980334D01*
X111396136Y-114968027D01*
X111383796Y-114962247D01*
X111359305Y-114949115D01*
X111359306Y-114949115D01*
X111354846Y-114946724D01*
X111350065Y-114945078D01*
X111350061Y-114945076D01*
X111280554Y-114921143D01*
X111274376Y-114918833D01*
X111206221Y-114891297D01*
X111206222Y-114891297D01*
X111201526Y-114889400D01*
X111169494Y-114882123D01*
X111156396Y-114878392D01*
X111125324Y-114867693D01*
X111125323Y-114867693D01*
X111126120Y-114865380D01*
X111073788Y-114834237D01*
X111042093Y-114770708D01*
X111049711Y-114700282D01*
X111138468Y-114486004D01*
X111141517Y-114476619D01*
X111200130Y-114232479D01*
X111201673Y-114222732D01*
X111221373Y-113972426D01*
X111221373Y-113962566D01*
X111201673Y-113712260D01*
X111200130Y-113702513D01*
X111141517Y-113458373D01*
X111138468Y-113448988D01*
X111042386Y-113217026D01*
X111037905Y-113208232D01*
X110908230Y-112996621D01*
X110898964Y-112990574D01*
X110888759Y-112996581D01*
X109647729Y-114237611D01*
X109585417Y-114271637D01*
X109514602Y-114266572D01*
X109469539Y-114237611D01*
X108229968Y-112998040D01*
X108200181Y-112981775D01*
X108172757Y-112975810D01*
X108179782Y-113024666D01*
X108162497Y-113072569D01*
X108079363Y-113208232D01*
X108074882Y-113217026D01*
X107978800Y-113448988D01*
X107975751Y-113458373D01*
X107917138Y-113702513D01*
X107915595Y-113712260D01*
X107902186Y-113882626D01*
X107876900Y-113948968D01*
X107819762Y-113991107D01*
X107748912Y-113995666D01*
X107686844Y-113961197D01*
X107666101Y-113932745D01*
X107665576Y-113931509D01*
X107648069Y-113903709D01*
X107641440Y-113891799D01*
X107627042Y-113862277D01*
X107581745Y-113798065D01*
X107578087Y-113792579D01*
X107538917Y-113730379D01*
X107538916Y-113730378D01*
X107536221Y-113726098D01*
X107532880Y-113722309D01*
X107532876Y-113722303D01*
X107514490Y-113701448D01*
X107506062Y-113690779D01*
X107504589Y-113688690D01*
X107481542Y-113616051D01*
X107481542Y-112855784D01*
X107501544Y-112787663D01*
X107555200Y-112741170D01*
X107625474Y-112731066D01*
X107673657Y-112748524D01*
X107774280Y-112810548D01*
X107787466Y-112816697D01*
X107941752Y-112867872D01*
X107955128Y-112870739D01*
X108049480Y-112880406D01*
X108059107Y-112880898D01*
X108059056Y-112881906D01*
X108107372Y-112896093D01*
X108099042Y-112863459D01*
X108099042Y-112638579D01*
X108607042Y-112638579D01*
X108614572Y-112664224D01*
X109545822Y-113595474D01*
X109559766Y-113603088D01*
X109561599Y-113602957D01*
X109568214Y-113598706D01*
X110528090Y-112638830D01*
X110535483Y-112625292D01*
X110530914Y-112618761D01*
X110317898Y-112488225D01*
X110309104Y-112483744D01*
X110077142Y-112387662D01*
X110067757Y-112384613D01*
X109823617Y-112326000D01*
X109813870Y-112324457D01*
X109563564Y-112304757D01*
X109553704Y-112304757D01*
X109496389Y-112309268D01*
X109426909Y-112294672D01*
X109376350Y-112244830D01*
X109360667Y-112177233D01*
X109361042Y-112169887D01*
X109361042Y-111919849D01*
X109356567Y-111904610D01*
X109355177Y-111903405D01*
X109347494Y-111901734D01*
X108625157Y-111901734D01*
X108609918Y-111906209D01*
X108608713Y-111907599D01*
X108607042Y-111915282D01*
X108607042Y-112638579D01*
X108099042Y-112638579D01*
X108099042Y-111519734D01*
X108119044Y-111451613D01*
X108172700Y-111405120D01*
X108225042Y-111393734D01*
X109342926Y-111393734D01*
X109358165Y-111389259D01*
X109359370Y-111387869D01*
X109361041Y-111380186D01*
X109361041Y-111164134D01*
X109381043Y-111096013D01*
X109434699Y-111049520D01*
X109490559Y-111038183D01*
X109517192Y-111038927D01*
X109517195Y-111038927D01*
X109522247Y-111039068D01*
X109600140Y-111028675D01*
X109606681Y-111027976D01*
X109635374Y-111025667D01*
X109679965Y-111022080D01*
X109679969Y-111022079D01*
X109685007Y-111021674D01*
X109716920Y-111013835D01*
X109730300Y-111011308D01*
X109762862Y-111006963D01*
X109767703Y-111005502D01*
X109767705Y-111005501D01*
X109806016Y-110993934D01*
X112381839Y-110993934D01*
X112440159Y-111236857D01*
X112443208Y-111246242D01*
X112539290Y-111478204D01*
X112543771Y-111486998D01*
X112674962Y-111701082D01*
X112680754Y-111709055D01*
X112843826Y-111899986D01*
X112850790Y-111906950D01*
X113041721Y-112070022D01*
X113049694Y-112075814D01*
X113263778Y-112207005D01*
X113272570Y-112211484D01*
X113288298Y-112217999D01*
X113343580Y-112262547D01*
X113366002Y-112329910D01*
X113348445Y-112398701D01*
X113297286Y-112446675D01*
X113293784Y-112448460D01*
X113079694Y-112579654D01*
X113071721Y-112585446D01*
X112880790Y-112748518D01*
X112873826Y-112755482D01*
X112710754Y-112946413D01*
X112704962Y-112954386D01*
X112573771Y-113168470D01*
X112569290Y-113177264D01*
X112473208Y-113409226D01*
X112470159Y-113418611D01*
X112412222Y-113659936D01*
X112414496Y-113670764D01*
X112425960Y-113673734D01*
X114280927Y-113673734D01*
X114296166Y-113669259D01*
X114297371Y-113667869D01*
X114299042Y-113660186D01*
X114299042Y-112443849D01*
X114287871Y-112405805D01*
X114274147Y-112384450D01*
X114269042Y-112348950D01*
X114269042Y-112211619D01*
X114777042Y-112211619D01*
X114788213Y-112249663D01*
X114801937Y-112271018D01*
X114807042Y-112306518D01*
X114807042Y-113655619D01*
X114811517Y-113670858D01*
X114812907Y-113672063D01*
X114820590Y-113673734D01*
X116678064Y-113673734D01*
X116692857Y-113669390D01*
X116694245Y-113661534D01*
X116635925Y-113418611D01*
X116632876Y-113409226D01*
X116536794Y-113177264D01*
X116532313Y-113168470D01*
X116401122Y-112954386D01*
X116395330Y-112946413D01*
X116232258Y-112755482D01*
X116225294Y-112748518D01*
X116034363Y-112585446D01*
X116026390Y-112579654D01*
X115812306Y-112448463D01*
X115803514Y-112443984D01*
X115787786Y-112437469D01*
X115732504Y-112392921D01*
X115710082Y-112325558D01*
X115727639Y-112256767D01*
X115778798Y-112208793D01*
X115782300Y-112207008D01*
X115996390Y-112075814D01*
X116004363Y-112070022D01*
X116195294Y-111906950D01*
X116202258Y-111899986D01*
X116365330Y-111709055D01*
X116371122Y-111701082D01*
X116502313Y-111486998D01*
X116506794Y-111478204D01*
X116602876Y-111246242D01*
X116605925Y-111236857D01*
X116663862Y-110995532D01*
X116661588Y-110984704D01*
X116650124Y-110981734D01*
X114795157Y-110981734D01*
X114779918Y-110986209D01*
X114778713Y-110987599D01*
X114777042Y-110995282D01*
X114777042Y-112211619D01*
X114269042Y-112211619D01*
X114269042Y-110999849D01*
X114264567Y-110984610D01*
X114263177Y-110983405D01*
X114255494Y-110981734D01*
X112398020Y-110981734D01*
X112383227Y-110986078D01*
X112381839Y-110993934D01*
X109806016Y-110993934D01*
X109838071Y-110984256D01*
X109844434Y-110982515D01*
X109847614Y-110981734D01*
X109920748Y-110963771D01*
X109950994Y-110950933D01*
X109963805Y-110946295D01*
X109990404Y-110938264D01*
X109995250Y-110936801D01*
X109999798Y-110934583D01*
X109999805Y-110934580D01*
X110065860Y-110902363D01*
X110071862Y-110899627D01*
X110116546Y-110880659D01*
X110144198Y-110868922D01*
X110171998Y-110851415D01*
X110183902Y-110844789D01*
X110213430Y-110830388D01*
X110277642Y-110785091D01*
X110283128Y-110781433D01*
X110345328Y-110742263D01*
X110345329Y-110742262D01*
X110349609Y-110739567D01*
X110353398Y-110736226D01*
X110353404Y-110736222D01*
X110374259Y-110717836D01*
X110384954Y-110709390D01*
X110387905Y-110707308D01*
X110411789Y-110690460D01*
X110433292Y-110670825D01*
X110473008Y-110631109D01*
X110478778Y-110625690D01*
X110527900Y-110582384D01*
X110527903Y-110582381D01*
X110531697Y-110579036D01*
X110534913Y-110575121D01*
X110558220Y-110546747D01*
X110566490Y-110537627D01*
X110644181Y-110459936D01*
X112382222Y-110459936D01*
X112384496Y-110470764D01*
X112395960Y-110473734D01*
X116648064Y-110473734D01*
X116662857Y-110469390D01*
X116664245Y-110461534D01*
X116605925Y-110218611D01*
X116602876Y-110209226D01*
X116506794Y-109977264D01*
X116502313Y-109968470D01*
X116463989Y-109905931D01*
X116445451Y-109837397D01*
X116466907Y-109769721D01*
X116521547Y-109724388D01*
X116528873Y-109721593D01*
X116543004Y-109714973D01*
X116680849Y-109629671D01*
X116692250Y-109620635D01*
X116806781Y-109505905D01*
X116815793Y-109494494D01*
X116900858Y-109356491D01*
X116907005Y-109343310D01*
X116958180Y-109189024D01*
X116961047Y-109175648D01*
X116970714Y-109081296D01*
X116971042Y-109074880D01*
X116971042Y-108699849D01*
X116966567Y-108684610D01*
X116965177Y-108683405D01*
X116957494Y-108681734D01*
X113473158Y-108681734D01*
X113457919Y-108686209D01*
X113456714Y-108687599D01*
X113455043Y-108695282D01*
X113455043Y-109074841D01*
X113455184Y-109077563D01*
X113438733Y-109146628D01*
X113387554Y-109195834D01*
X113377571Y-109200490D01*
X113272573Y-109243982D01*
X113263778Y-109248463D01*
X113049694Y-109379654D01*
X113041721Y-109385446D01*
X112850790Y-109548518D01*
X112843826Y-109555482D01*
X112680754Y-109746413D01*
X112674962Y-109754386D01*
X112543771Y-109968470D01*
X112539290Y-109977264D01*
X112443208Y-110209226D01*
X112440159Y-110218611D01*
X112382222Y-110459936D01*
X110644181Y-110459936D01*
X111842726Y-109261392D01*
X111845248Y-109258938D01*
X111914047Y-109193878D01*
X111917723Y-109190402D01*
X111929004Y-109175648D01*
X111965454Y-109127973D01*
X111969596Y-109122841D01*
X112017229Y-109066872D01*
X112017231Y-109066869D01*
X112020512Y-109063014D01*
X112023132Y-109058688D01*
X112023137Y-109058681D01*
X112037533Y-109034910D01*
X112045205Y-109023663D01*
X112065162Y-108997560D01*
X112102289Y-108928318D01*
X112105552Y-108922597D01*
X112143644Y-108859700D01*
X112143645Y-108859699D01*
X112146262Y-108855377D01*
X112158576Y-108824900D01*
X112164345Y-108812584D01*
X112179873Y-108783625D01*
X112205465Y-108709301D01*
X112207760Y-108703163D01*
X112214049Y-108687599D01*
X112220824Y-108670828D01*
X112235300Y-108635001D01*
X112235301Y-108634997D01*
X112237197Y-108630305D01*
X112244474Y-108598273D01*
X112248205Y-108585175D01*
X112258904Y-108554103D01*
X112272278Y-108476677D01*
X112273570Y-108470210D01*
X112289857Y-108398523D01*
X112289858Y-108398514D01*
X112290977Y-108393590D01*
X112293041Y-108360781D01*
X112294627Y-108347281D01*
X112300221Y-108314898D01*
X112301542Y-108285809D01*
X112301542Y-108229627D01*
X112301791Y-108221715D01*
X112305902Y-108156376D01*
X112306220Y-108151322D01*
X112302143Y-108109743D01*
X112301542Y-108097447D01*
X112301542Y-102864765D01*
X112321544Y-102796644D01*
X112338447Y-102775670D01*
X112640978Y-102473139D01*
X112703290Y-102439113D01*
X112730073Y-102436234D01*
X113606641Y-102436234D01*
X113674762Y-102456236D01*
X113721255Y-102509892D01*
X113731359Y-102580166D01*
X113707731Y-102637446D01*
X113654288Y-102709276D01*
X113651872Y-102714027D01*
X113651870Y-102714031D01*
X113609868Y-102796644D01*
X113549802Y-102914785D01*
X113548220Y-102919879D01*
X113548219Y-102919882D01*
X113488721Y-103111495D01*
X113481435Y-103134961D01*
X113480734Y-103140250D01*
X113465346Y-103256357D01*
X113451144Y-103363508D01*
X113459793Y-103593892D01*
X113507135Y-103819525D01*
X113509093Y-103824484D01*
X113509094Y-103824486D01*
X113571980Y-103983721D01*
X113591818Y-104033955D01*
X113594585Y-104038514D01*
X113594586Y-104038517D01*
X113633913Y-104103325D01*
X113711419Y-104231051D01*
X113714916Y-104235081D01*
X113847516Y-104387889D01*
X113862519Y-104405179D01*
X113866650Y-104408566D01*
X114036669Y-104547974D01*
X114036675Y-104547978D01*
X114040797Y-104551358D01*
X114072292Y-104569286D01*
X114121597Y-104620366D01*
X114135459Y-104689996D01*
X114109476Y-104756067D01*
X114080326Y-104783307D01*
X113958723Y-104865175D01*
X113954866Y-104868854D01*
X113954864Y-104868856D01*
X113886071Y-104934482D01*
X113791907Y-105024310D01*
X113654288Y-105209276D01*
X113651872Y-105214027D01*
X113651870Y-105214031D01*
X113602045Y-105312031D01*
X113549802Y-105414785D01*
X113548220Y-105419879D01*
X113548219Y-105419882D01*
X113503736Y-105563140D01*
X113481435Y-105634961D01*
X113480734Y-105640250D01*
X113452822Y-105850850D01*
X113451144Y-105863508D01*
X113459793Y-106093892D01*
X113507135Y-106319525D01*
X113591818Y-106533955D01*
X113594585Y-106538514D01*
X113594586Y-106538517D01*
X113657040Y-106641437D01*
X113711419Y-106731051D01*
X113714916Y-106735081D01*
X113801480Y-106834837D01*
X113862519Y-106905179D01*
X113866650Y-106908566D01*
X113898571Y-106934740D01*
X113938566Y-106993400D01*
X113940497Y-107064370D01*
X113903752Y-107125118D01*
X113884983Y-107139318D01*
X113745235Y-107225797D01*
X113733834Y-107234833D01*
X113619303Y-107349563D01*
X113610291Y-107360974D01*
X113525226Y-107498977D01*
X113519079Y-107512158D01*
X113467904Y-107666444D01*
X113465037Y-107679820D01*
X113455370Y-107774172D01*
X113455042Y-107780589D01*
X113455042Y-108155619D01*
X113459517Y-108170858D01*
X113460907Y-108172063D01*
X113468590Y-108173734D01*
X116952926Y-108173734D01*
X116968165Y-108169259D01*
X116969370Y-108167869D01*
X116971041Y-108160186D01*
X116971041Y-107780639D01*
X116970704Y-107774120D01*
X116960785Y-107678528D01*
X116957893Y-107665134D01*
X116906454Y-107510950D01*
X116900281Y-107497772D01*
X116814979Y-107359927D01*
X116805943Y-107348526D01*
X116691213Y-107233995D01*
X116679799Y-107224981D01*
X116540329Y-107139011D01*
X116492835Y-107086239D01*
X116481411Y-107016168D01*
X116509685Y-106951044D01*
X116519472Y-106940581D01*
X116553033Y-106908566D01*
X116634177Y-106831158D01*
X116771796Y-106646192D01*
X116796260Y-106598076D01*
X116873864Y-106445438D01*
X116876282Y-106440683D01*
X116912363Y-106324486D01*
X116943066Y-106225605D01*
X116944649Y-106220507D01*
X116953969Y-106150186D01*
X116974240Y-105997245D01*
X116974240Y-105997240D01*
X116974940Y-105991960D01*
X116966291Y-105761576D01*
X116918949Y-105535943D01*
X116916990Y-105530982D01*
X116836227Y-105326478D01*
X116836226Y-105326476D01*
X116834266Y-105321513D01*
X116828917Y-105312697D01*
X116717432Y-105128977D01*
X116714665Y-105124417D01*
X116663437Y-105065382D01*
X116567065Y-104954322D01*
X116567063Y-104954320D01*
X116563565Y-104950289D01*
X116512635Y-104908529D01*
X116389415Y-104807494D01*
X116389409Y-104807490D01*
X116385287Y-104804110D01*
X116353792Y-104786182D01*
X116304487Y-104735102D01*
X116290625Y-104665472D01*
X116316608Y-104599401D01*
X116345758Y-104572161D01*
X116453740Y-104499463D01*
X116467361Y-104490293D01*
X116634177Y-104331158D01*
X116771796Y-104146192D01*
X116806793Y-104077359D01*
X116854400Y-103983721D01*
X116876282Y-103940683D01*
X116890591Y-103894603D01*
X116943066Y-103725605D01*
X116944649Y-103720507D01*
X116948278Y-103693126D01*
X116974240Y-103497245D01*
X116974240Y-103497240D01*
X116974940Y-103491960D01*
X116966291Y-103261576D01*
X116918949Y-103035943D01*
X116838669Y-102832662D01*
X116836227Y-102826478D01*
X116836226Y-102826476D01*
X116834266Y-102821513D01*
X116830892Y-102815952D01*
X116717432Y-102628977D01*
X116714665Y-102624417D01*
X116563565Y-102450289D01*
X116487453Y-102387881D01*
X116389415Y-102307494D01*
X116389409Y-102307490D01*
X116385287Y-102304110D01*
X116353792Y-102286182D01*
X116304487Y-102235102D01*
X116290625Y-102165472D01*
X116316608Y-102099401D01*
X116345758Y-102072161D01*
X116462931Y-101993276D01*
X116462935Y-101993273D01*
X116467361Y-101990293D01*
X116487517Y-101971065D01*
X116550613Y-101938517D01*
X116574489Y-101936234D01*
X117082811Y-101936234D01*
X117085867Y-101935934D01*
X117085874Y-101935934D01*
X117144382Y-101930197D01*
X117229875Y-101921814D01*
X117235776Y-101920032D01*
X117235778Y-101920032D01*
X117328471Y-101892046D01*
X117419211Y-101864650D01*
X117424653Y-101861757D01*
X117424659Y-101861754D01*
X117472921Y-101836093D01*
X117542458Y-101821773D01*
X117608699Y-101847321D01*
G37*
G04 #@! TD.AperFunction*
G04 #@! TA.AperFunction,Conductor*
G36*
X86300054Y-105006964D02*
G01*
X86331888Y-105053202D01*
X86333086Y-105052644D01*
X86406125Y-105209276D01*
X86422453Y-105244292D01*
X86543741Y-105417510D01*
X86693266Y-105567035D01*
X86866484Y-105688323D01*
X86871462Y-105690644D01*
X86871465Y-105690646D01*
X87053150Y-105775367D01*
X87058132Y-105777690D01*
X87063440Y-105779112D01*
X87063442Y-105779113D01*
X87257072Y-105830996D01*
X87257074Y-105830996D01*
X87262387Y-105832420D01*
X87473042Y-105850850D01*
X87683697Y-105832420D01*
X87689010Y-105830996D01*
X87689012Y-105830996D01*
X87882642Y-105779113D01*
X87882644Y-105779112D01*
X87887952Y-105777690D01*
X87892934Y-105775367D01*
X88074615Y-105690648D01*
X88074619Y-105690646D01*
X88079600Y-105688323D01*
X88084102Y-105685171D01*
X88084105Y-105685169D01*
X88107168Y-105669020D01*
X88179438Y-105646234D01*
X88301199Y-105646234D01*
X88314806Y-105646971D01*
X88346304Y-105650393D01*
X88346309Y-105650393D01*
X88352430Y-105651058D01*
X88378680Y-105648761D01*
X88402430Y-105646684D01*
X88407256Y-105646355D01*
X88409728Y-105646234D01*
X88412811Y-105646234D01*
X88424780Y-105645060D01*
X88455548Y-105642044D01*
X88456861Y-105641922D01*
X88501126Y-105638049D01*
X88549455Y-105633821D01*
X88554574Y-105632334D01*
X88559875Y-105631814D01*
X88648876Y-105604943D01*
X88650009Y-105604608D01*
X88733456Y-105580364D01*
X88733460Y-105580362D01*
X88739378Y-105578643D01*
X88744110Y-105576190D01*
X88749211Y-105574650D01*
X88770859Y-105563140D01*
X88831302Y-105531003D01*
X88832468Y-105530391D01*
X88909495Y-105490463D01*
X88914968Y-105487626D01*
X88919131Y-105484303D01*
X88923838Y-105481800D01*
X88995960Y-105422979D01*
X88996816Y-105422288D01*
X89036015Y-105390996D01*
X89038519Y-105388492D01*
X89039237Y-105387850D01*
X89043570Y-105384149D01*
X89077104Y-105356799D01*
X89106326Y-105321476D01*
X89114315Y-105312697D01*
X89242329Y-105184683D01*
X89304641Y-105150657D01*
X89375456Y-105155722D01*
X89420519Y-105184683D01*
X89837459Y-105601623D01*
X89871485Y-105663935D01*
X89874364Y-105690718D01*
X89874364Y-107520359D01*
X89854362Y-107588480D01*
X89800706Y-107634973D01*
X89748364Y-107646359D01*
X89700830Y-107646359D01*
X89685591Y-107650834D01*
X89684386Y-107652224D01*
X89682715Y-107659907D01*
X89682715Y-110144243D01*
X89687190Y-110159482D01*
X89688580Y-110160687D01*
X89696263Y-110162358D01*
X89755323Y-110162358D01*
X89823444Y-110182360D01*
X89869937Y-110236016D01*
X89880215Y-110271687D01*
X89881921Y-110284468D01*
X89882622Y-110291027D01*
X89888924Y-110369353D01*
X89896761Y-110401258D01*
X89899290Y-110414646D01*
X89903635Y-110447208D01*
X89905096Y-110452049D01*
X89905097Y-110452051D01*
X89926342Y-110522417D01*
X89928083Y-110528778D01*
X89946827Y-110605094D01*
X89957870Y-110631109D01*
X89959665Y-110635339D01*
X89964302Y-110648149D01*
X89973797Y-110679596D01*
X89976015Y-110684144D01*
X89976018Y-110684151D01*
X90008235Y-110750206D01*
X90010971Y-110756208D01*
X90041676Y-110828544D01*
X90053790Y-110847780D01*
X90059183Y-110856344D01*
X90065809Y-110868248D01*
X90080210Y-110897776D01*
X90125370Y-110961793D01*
X90125505Y-110961985D01*
X90129165Y-110967474D01*
X90149553Y-110999849D01*
X90171031Y-111033955D01*
X90174372Y-111037744D01*
X90174376Y-111037750D01*
X90192762Y-111058605D01*
X90201208Y-111069300D01*
X90220138Y-111096135D01*
X90239773Y-111117638D01*
X90279489Y-111157354D01*
X90284908Y-111163124D01*
X90328214Y-111212246D01*
X90328217Y-111212249D01*
X90331562Y-111216043D01*
X90335470Y-111219253D01*
X90335471Y-111219254D01*
X90363853Y-111242567D01*
X90372972Y-111250837D01*
X91161242Y-112039107D01*
X91163696Y-112041629D01*
X91232249Y-112114122D01*
X91242582Y-112122022D01*
X91294674Y-112161849D01*
X91299809Y-112165993D01*
X91347998Y-112207005D01*
X91359637Y-112216911D01*
X91363962Y-112219530D01*
X91363967Y-112219534D01*
X91387741Y-112233932D01*
X91398988Y-112241604D01*
X91425091Y-112261561D01*
X91429549Y-112263951D01*
X91429550Y-112263952D01*
X91494318Y-112298680D01*
X91500043Y-112301945D01*
X91567275Y-112342662D01*
X91597734Y-112354968D01*
X91610075Y-112360748D01*
X91639026Y-112376272D01*
X91643807Y-112377918D01*
X91643811Y-112377920D01*
X91713318Y-112401853D01*
X91719496Y-112404163D01*
X91769709Y-112424450D01*
X91792346Y-112433596D01*
X91824377Y-112440873D01*
X91837476Y-112444604D01*
X91868548Y-112455303D01*
X91922490Y-112464620D01*
X91986211Y-112495924D01*
X92022893Y-112556710D01*
X92019025Y-112633010D01*
X91973103Y-112755506D01*
X91973101Y-112755512D01*
X91970329Y-112762908D01*
X91963574Y-112825090D01*
X91963574Y-115221358D01*
X91970329Y-115283540D01*
X92021459Y-115419929D01*
X92108813Y-115536485D01*
X92225369Y-115623839D01*
X92361758Y-115674969D01*
X92423940Y-115681724D01*
X92917519Y-115681724D01*
X92985640Y-115701726D01*
X93032133Y-115755382D01*
X93043519Y-115807724D01*
X93043519Y-121287720D01*
X93047994Y-121302959D01*
X93049384Y-121304164D01*
X93057067Y-121305835D01*
X95679404Y-121305835D01*
X95694643Y-121301360D01*
X95695848Y-121299970D01*
X95697519Y-121292287D01*
X95697519Y-121287720D01*
X96230519Y-121287720D01*
X96234994Y-121302959D01*
X96236384Y-121304164D01*
X96244067Y-121305835D01*
X100754404Y-121305835D01*
X100769643Y-121301360D01*
X100770848Y-121299970D01*
X100772519Y-121292287D01*
X100772519Y-118819450D01*
X100768044Y-118804211D01*
X100766654Y-118803006D01*
X100758971Y-118801335D01*
X98150424Y-118801335D01*
X98082303Y-118781333D01*
X98067912Y-118770560D01*
X98047654Y-118753006D01*
X98039971Y-118751335D01*
X96248634Y-118751335D01*
X96233395Y-118755810D01*
X96232190Y-118757200D01*
X96230519Y-118764883D01*
X96230519Y-121287720D01*
X95697519Y-121287720D01*
X95697519Y-121054888D01*
X95717521Y-120986767D01*
X95720433Y-120982878D01*
X95722519Y-120973287D01*
X95722519Y-115244951D01*
X95718044Y-115229712D01*
X95716654Y-115228507D01*
X95708971Y-115226836D01*
X95406574Y-115226836D01*
X95338453Y-115206834D01*
X95291960Y-115153178D01*
X95280574Y-115100836D01*
X95280574Y-112825090D01*
X95273819Y-112762908D01*
X95222689Y-112626519D01*
X95155748Y-112537200D01*
X95130900Y-112470694D01*
X95130574Y-112461635D01*
X95130574Y-111959489D01*
X95150576Y-111891368D01*
X95167479Y-111870394D01*
X95363839Y-111674034D01*
X95426151Y-111640008D01*
X95496966Y-111645073D01*
X95553802Y-111687620D01*
X95578613Y-111754140D01*
X95565792Y-111819156D01*
X95563325Y-111824125D01*
X95559507Y-111830050D01*
X95497469Y-112000497D01*
X95474735Y-112180452D01*
X95492435Y-112360972D01*
X95549690Y-112533085D01*
X95553337Y-112539107D01*
X95553338Y-112539109D01*
X95634805Y-112673627D01*
X95643652Y-112688236D01*
X95769654Y-112818714D01*
X95794577Y-112835023D01*
X95887902Y-112896093D01*
X95921431Y-112918034D01*
X95928035Y-112920490D01*
X95928037Y-112920491D01*
X96084830Y-112978802D01*
X96084832Y-112978802D01*
X96091440Y-112981260D01*
X96161244Y-112990574D01*
X96264252Y-113004319D01*
X96264256Y-113004319D01*
X96271233Y-113005250D01*
X96278244Y-113004612D01*
X96278248Y-113004612D01*
X96420731Y-112991644D01*
X96451872Y-112988810D01*
X96458574Y-112986632D01*
X96458576Y-112986632D01*
X96617681Y-112934936D01*
X96617684Y-112934935D01*
X96624380Y-112932759D01*
X96780184Y-112839881D01*
X96911538Y-112714794D01*
X97011915Y-112563714D01*
X97014415Y-112557132D01*
X97014421Y-112557121D01*
X97016331Y-112552092D01*
X97045023Y-112507742D01*
X97079127Y-112473638D01*
X97141439Y-112439612D01*
X97168222Y-112436733D01*
X97591014Y-112436733D01*
X97659135Y-112456735D01*
X97705628Y-112510391D01*
X97715732Y-112580665D01*
X97686238Y-112645245D01*
X97656848Y-112670166D01*
X97651200Y-112673627D01*
X97645152Y-112682894D01*
X97651159Y-112693099D01*
X98892189Y-113934129D01*
X98926215Y-113996441D01*
X98921150Y-114067256D01*
X98892189Y-114112319D01*
X98711169Y-114293339D01*
X98648857Y-114327365D01*
X98578042Y-114322300D01*
X98532979Y-114293339D01*
X97293408Y-113053768D01*
X97279870Y-113046375D01*
X97273339Y-113050944D01*
X97142803Y-113263960D01*
X97138322Y-113272754D01*
X97042240Y-113504716D01*
X97039191Y-113514101D01*
X96980578Y-113758241D01*
X96979035Y-113767988D01*
X96959335Y-114018294D01*
X96959335Y-114028154D01*
X96979035Y-114278460D01*
X96980578Y-114288207D01*
X97039191Y-114532347D01*
X97042240Y-114541732D01*
X97138322Y-114773694D01*
X97142803Y-114782488D01*
X97273994Y-114996572D01*
X97279787Y-115004545D01*
X97292136Y-115019004D01*
X97321168Y-115083793D01*
X97310564Y-115153993D01*
X97263690Y-115207317D01*
X97196326Y-115226836D01*
X96248634Y-115226836D01*
X96233395Y-115231311D01*
X96232190Y-115232701D01*
X96230519Y-115240384D01*
X96230519Y-118225220D01*
X96234994Y-118240459D01*
X96236384Y-118241664D01*
X96244067Y-118243335D01*
X98802614Y-118243335D01*
X98870735Y-118263337D01*
X98885126Y-118274110D01*
X98905384Y-118291664D01*
X98913067Y-118293335D01*
X100754404Y-118293335D01*
X100769643Y-118288860D01*
X100770848Y-118287470D01*
X100772519Y-118279787D01*
X100772519Y-115244950D01*
X100768044Y-115229711D01*
X100766654Y-115228506D01*
X100758971Y-115226835D01*
X100047823Y-115226835D01*
X99979702Y-115206833D01*
X99933209Y-115153177D01*
X99923105Y-115082903D01*
X99952013Y-115019003D01*
X99964361Y-115004546D01*
X99970154Y-114996572D01*
X100101345Y-114782488D01*
X100105826Y-114773694D01*
X100201908Y-114541732D01*
X100204957Y-114532347D01*
X100206980Y-114523920D01*
X100242329Y-114462349D01*
X100305355Y-114429664D01*
X100376046Y-114436242D01*
X100418595Y-114464234D01*
X100531006Y-114576645D01*
X100543392Y-114591057D01*
X100551925Y-114602652D01*
X100551930Y-114602657D01*
X100556268Y-114608552D01*
X100561846Y-114613291D01*
X100561849Y-114613294D01*
X100596544Y-114642769D01*
X100604060Y-114649699D01*
X100609755Y-114655394D01*
X100612637Y-114657674D01*
X100632027Y-114673015D01*
X100635431Y-114675806D01*
X100685479Y-114718325D01*
X100691061Y-114723067D01*
X100697577Y-114726395D01*
X100702626Y-114729762D01*
X100707755Y-114732929D01*
X100713492Y-114737468D01*
X100779651Y-114768389D01*
X100783545Y-114770292D01*
X100848584Y-114803503D01*
X100855692Y-114805242D01*
X100861335Y-114807341D01*
X100867098Y-114809258D01*
X100873726Y-114812356D01*
X100880888Y-114813846D01*
X100880889Y-114813846D01*
X100914524Y-114820842D01*
X100934871Y-114825074D01*
X100945188Y-114827220D01*
X100949472Y-114828190D01*
X101020386Y-114845542D01*
X101025988Y-114845890D01*
X101025991Y-114845890D01*
X101031540Y-114846234D01*
X101031538Y-114846270D01*
X101035531Y-114846509D01*
X101039723Y-114846883D01*
X101046891Y-114848374D01*
X101124296Y-114846280D01*
X101127704Y-114846234D01*
X101280324Y-114846234D01*
X101324244Y-114854137D01*
X101379600Y-114874724D01*
X101379602Y-114874725D01*
X101386210Y-114877182D01*
X101469369Y-114888278D01*
X101559022Y-114900241D01*
X101559026Y-114900241D01*
X101566003Y-114901172D01*
X101573014Y-114900534D01*
X101573018Y-114900534D01*
X101715501Y-114887566D01*
X101746642Y-114884732D01*
X101753344Y-114882554D01*
X101753346Y-114882554D01*
X101912451Y-114830858D01*
X101912454Y-114830857D01*
X101919150Y-114828681D01*
X102074954Y-114735803D01*
X102206308Y-114610716D01*
X102306685Y-114459636D01*
X102371097Y-114290072D01*
X102378470Y-114237611D01*
X102395790Y-114114373D01*
X102395790Y-114114370D01*
X102396341Y-114110451D01*
X102396658Y-114087734D01*
X102376439Y-113907479D01*
X102370979Y-113891799D01*
X102319106Y-113742840D01*
X102319104Y-113742837D01*
X102316787Y-113736182D01*
X102301839Y-113712260D01*
X102224401Y-113588332D01*
X102220668Y-113582358D01*
X102152886Y-113514101D01*
X102097820Y-113458649D01*
X102097816Y-113458646D01*
X102092857Y-113453652D01*
X101939708Y-113356461D01*
X101910505Y-113346062D01*
X101775467Y-113297977D01*
X101775462Y-113297976D01*
X101768832Y-113295615D01*
X101761844Y-113294782D01*
X101761841Y-113294781D01*
X101638740Y-113280102D01*
X101588722Y-113274138D01*
X101581719Y-113274874D01*
X101581718Y-113274874D01*
X101454065Y-113288291D01*
X101384226Y-113275519D01*
X101351799Y-113252076D01*
X101160752Y-113061029D01*
X101126726Y-112998717D01*
X101123847Y-112971934D01*
X101123847Y-112837661D01*
X101143849Y-112769540D01*
X101178235Y-112735738D01*
X101177735Y-112735108D01*
X101183467Y-112730565D01*
X101189695Y-112726711D01*
X101276131Y-112640124D01*
X101338413Y-112606045D01*
X101409233Y-112611048D01*
X101454322Y-112639969D01*
X101484572Y-112670166D01*
X101542044Y-112727538D01*
X101548274Y-112731378D01*
X101548275Y-112731379D01*
X101678737Y-112811797D01*
X101692609Y-112820348D01*
X101751500Y-112839881D01*
X101853958Y-112873865D01*
X101853960Y-112873865D01*
X101860486Y-112876030D01*
X101867322Y-112876730D01*
X101867325Y-112876731D01*
X101910378Y-112881142D01*
X101964947Y-112886733D01*
X102765747Y-112886733D01*
X102767832Y-112886517D01*
X102836686Y-112902922D01*
X102885890Y-112954104D01*
X102900134Y-113012299D01*
X102900134Y-115100835D01*
X102880132Y-115168956D01*
X102826476Y-115215449D01*
X102774134Y-115226835D01*
X101298634Y-115226835D01*
X101283395Y-115231310D01*
X101282190Y-115232700D01*
X101280519Y-115240383D01*
X101280519Y-121287720D01*
X101284994Y-121302959D01*
X101286384Y-121304164D01*
X101294067Y-121305835D01*
X104016403Y-121305835D01*
X104031642Y-121301360D01*
X104032847Y-121299970D01*
X104034518Y-121292287D01*
X104034518Y-118420026D01*
X104054520Y-118351905D01*
X104108176Y-118305412D01*
X104178450Y-118295308D01*
X104243030Y-118324802D01*
X104249613Y-118330931D01*
X104642428Y-118723746D01*
X104654814Y-118738158D01*
X104663347Y-118749753D01*
X104663352Y-118749758D01*
X104667690Y-118755653D01*
X104673268Y-118760392D01*
X104673271Y-118760395D01*
X104707966Y-118789870D01*
X104715482Y-118796800D01*
X104721177Y-118802495D01*
X104724059Y-118804775D01*
X104743449Y-118820116D01*
X104746853Y-118822907D01*
X104796901Y-118865426D01*
X104802483Y-118870168D01*
X104808999Y-118873496D01*
X104814048Y-118876863D01*
X104819177Y-118880030D01*
X104824914Y-118884569D01*
X104891073Y-118915490D01*
X104894967Y-118917393D01*
X104960006Y-118950604D01*
X104967114Y-118952343D01*
X104972757Y-118954442D01*
X104978520Y-118956359D01*
X104985148Y-118959457D01*
X104992310Y-118960947D01*
X104992311Y-118960947D01*
X105056610Y-118974321D01*
X105060882Y-118975288D01*
X105091954Y-118982891D01*
X105095767Y-118983824D01*
X105157181Y-119019444D01*
X105189588Y-119082613D01*
X105183800Y-119150442D01*
X105174774Y-119174519D01*
X105168019Y-119236701D01*
X105168019Y-120632969D01*
X105174774Y-120695151D01*
X105190729Y-120737711D01*
X105192081Y-120741317D01*
X105197264Y-120812124D01*
X105192081Y-120829777D01*
X105178041Y-120867229D01*
X105174414Y-120882484D01*
X105168888Y-120933349D01*
X105168519Y-120940163D01*
X105168519Y-121362720D01*
X105172994Y-121377959D01*
X105174384Y-121379164D01*
X105182067Y-121380835D01*
X110766403Y-121380835D01*
X110781642Y-121376360D01*
X110782847Y-121374970D01*
X110784518Y-121367287D01*
X110784518Y-121319335D01*
X110804520Y-121251214D01*
X110858176Y-121204721D01*
X110910518Y-121193335D01*
X110988506Y-121193335D01*
X111004953Y-121194413D01*
X111021418Y-121196581D01*
X111021422Y-121196581D01*
X111026988Y-121197314D01*
X111108391Y-121193475D01*
X111114326Y-121193335D01*
X111136901Y-121193335D01*
X111162891Y-121191016D01*
X111168150Y-121190657D01*
X111251390Y-121186731D01*
X111256849Y-121185481D01*
X111256854Y-121185480D01*
X111268872Y-121182727D01*
X111285801Y-121180046D01*
X111303664Y-121178452D01*
X111309080Y-121176970D01*
X111309082Y-121176970D01*
X111384035Y-121156465D01*
X111389153Y-121155179D01*
X111464902Y-121137830D01*
X111464904Y-121137829D01*
X111470372Y-121136577D01*
X111480872Y-121132098D01*
X111486869Y-121129541D01*
X111503044Y-121123908D01*
X111514941Y-121120653D01*
X111514945Y-121120652D01*
X111520353Y-121119172D01*
X111553094Y-121103555D01*
X111595569Y-121083296D01*
X111600378Y-121081125D01*
X111671851Y-121050639D01*
X111671852Y-121050639D01*
X111677011Y-121048438D01*
X111692012Y-121038584D01*
X111706927Y-121030181D01*
X111723119Y-121022457D01*
X111723634Y-121023537D01*
X111765583Y-121009421D01*
X111781220Y-121007612D01*
X111781223Y-121007611D01*
X111786248Y-121007030D01*
X111791112Y-121005654D01*
X111791115Y-121005653D01*
X112014961Y-120942311D01*
X112014960Y-120942311D01*
X112019824Y-120940935D01*
X112024400Y-120938801D01*
X112024406Y-120938799D01*
X112235246Y-120840483D01*
X112235250Y-120840481D01*
X112239828Y-120838346D01*
X112440599Y-120701901D01*
X112444278Y-120698422D01*
X112444283Y-120698418D01*
X112490397Y-120654811D01*
X112553635Y-120622539D01*
X112624281Y-120629580D01*
X112679907Y-120673698D01*
X112702850Y-120740885D01*
X112702313Y-120759201D01*
X112693019Y-120849911D01*
X112693019Y-121900711D01*
X112693356Y-121903957D01*
X112693356Y-121903961D01*
X112703137Y-121998225D01*
X112703993Y-122006477D01*
X112706176Y-122013019D01*
X112706176Y-122013021D01*
X112722002Y-122060458D01*
X112724587Y-122131408D01*
X112688404Y-122192492D01*
X112624940Y-122224317D01*
X112602479Y-122226335D01*
X110910519Y-122226335D01*
X110842398Y-122206333D01*
X110795905Y-122152677D01*
X110784519Y-122100335D01*
X110784519Y-121906950D01*
X110780044Y-121891711D01*
X110778654Y-121890506D01*
X110770971Y-121888835D01*
X105186635Y-121888835D01*
X105171396Y-121893310D01*
X105170191Y-121894700D01*
X105168520Y-121902383D01*
X105168520Y-122329504D01*
X105168890Y-122336325D01*
X105174414Y-122387187D01*
X105178040Y-122402439D01*
X105192081Y-122439893D01*
X105197264Y-122510700D01*
X105192081Y-122528351D01*
X105174774Y-122574519D01*
X105168019Y-122636701D01*
X105168019Y-124032969D01*
X105174774Y-124095151D01*
X105177546Y-124102544D01*
X105177546Y-124102546D01*
X105191814Y-124140606D01*
X105196997Y-124211413D01*
X105191814Y-124229064D01*
X105177546Y-124267124D01*
X105174774Y-124274519D01*
X105168019Y-124336701D01*
X105168019Y-125732969D01*
X105174774Y-125795151D01*
X105225904Y-125931540D01*
X105313258Y-126048096D01*
X105429814Y-126135450D01*
X105566203Y-126186580D01*
X105628385Y-126193335D01*
X109760148Y-126193335D01*
X109828269Y-126213337D01*
X109849243Y-126230240D01*
X110300574Y-126681571D01*
X110312960Y-126695983D01*
X110321493Y-126707578D01*
X110321498Y-126707583D01*
X110325836Y-126713478D01*
X110331414Y-126718217D01*
X110331417Y-126718220D01*
X110366112Y-126747695D01*
X110373628Y-126754625D01*
X110379324Y-126760321D01*
X110382185Y-126762584D01*
X110382190Y-126762589D01*
X110401610Y-126777953D01*
X110405011Y-126780742D01*
X110460629Y-126827993D01*
X110467142Y-126831319D01*
X110472181Y-126834680D01*
X110477323Y-126837856D01*
X110483060Y-126842394D01*
X110549219Y-126873315D01*
X110553113Y-126875218D01*
X110618152Y-126908429D01*
X110625261Y-126910168D01*
X110630895Y-126912264D01*
X110636665Y-126914183D01*
X110643294Y-126917282D01*
X110650457Y-126918772D01*
X110650460Y-126918773D01*
X110696528Y-126928355D01*
X110714779Y-126932151D01*
X110719045Y-126933117D01*
X110789954Y-126950468D01*
X110795556Y-126950816D01*
X110795559Y-126950816D01*
X110801108Y-126951160D01*
X110801106Y-126951195D01*
X110805078Y-126951435D01*
X110809299Y-126951812D01*
X110816459Y-126953301D01*
X110893886Y-126951206D01*
X110897294Y-126951160D01*
X111230711Y-126951160D01*
X111298832Y-126971162D01*
X111312298Y-126981142D01*
X111314487Y-126983002D01*
X111321995Y-126989925D01*
X111327685Y-126995615D01*
X111330567Y-126997895D01*
X111349957Y-127013236D01*
X111353361Y-127016027D01*
X111403409Y-127058546D01*
X111408991Y-127063288D01*
X111415507Y-127066616D01*
X111420556Y-127069983D01*
X111425686Y-127073151D01*
X111431422Y-127077689D01*
X111455809Y-127089087D01*
X111509052Y-127136048D01*
X111528454Y-127204342D01*
X111507854Y-127272284D01*
X111453791Y-127318304D01*
X111402459Y-127329234D01*
X104160519Y-127329234D01*
X104092398Y-127309232D01*
X104045905Y-127255576D01*
X104034519Y-127203234D01*
X104034519Y-121831950D01*
X104030044Y-121816711D01*
X104028654Y-121815506D01*
X104020971Y-121813835D01*
X101298634Y-121813835D01*
X101283395Y-121818310D01*
X101282190Y-121819700D01*
X101280519Y-121827383D01*
X101280519Y-124512835D01*
X101260517Y-124580956D01*
X101206861Y-124627449D01*
X101154519Y-124638835D01*
X98867634Y-124638835D01*
X98852395Y-124643310D01*
X98830130Y-124669005D01*
X98828708Y-124667773D01*
X98823704Y-124676935D01*
X98761390Y-124710957D01*
X98734613Y-124713835D01*
X95823519Y-124713835D01*
X95755398Y-124693833D01*
X95708905Y-124640177D01*
X95697519Y-124587835D01*
X95697519Y-124187720D01*
X96205519Y-124187720D01*
X96209994Y-124202959D01*
X96211384Y-124204164D01*
X96219067Y-124205835D01*
X98035404Y-124205835D01*
X98050643Y-124201360D01*
X98072908Y-124175665D01*
X98074330Y-124176897D01*
X98079334Y-124167735D01*
X98141648Y-124133713D01*
X98168425Y-124130835D01*
X100754404Y-124130835D01*
X100769643Y-124126360D01*
X100770848Y-124124970D01*
X100772519Y-124117287D01*
X100772519Y-121831950D01*
X100768044Y-121816711D01*
X100766654Y-121815506D01*
X100758971Y-121813835D01*
X96223634Y-121813835D01*
X96208395Y-121818310D01*
X96207190Y-121819700D01*
X96205519Y-121827383D01*
X96205519Y-124187720D01*
X95697519Y-124187720D01*
X95697519Y-121831950D01*
X95693044Y-121816711D01*
X95691654Y-121815506D01*
X95683971Y-121813835D01*
X93061635Y-121813835D01*
X93046396Y-121818310D01*
X93045191Y-121819700D01*
X93043520Y-121827383D01*
X93043520Y-122412537D01*
X93023518Y-122480658D01*
X92969862Y-122527151D01*
X92899588Y-122537255D01*
X92835008Y-122507761D01*
X92799889Y-122457691D01*
X92782255Y-122411753D01*
X92768287Y-122375365D01*
X92766789Y-122372425D01*
X92602833Y-122050643D01*
X92602829Y-122050636D01*
X92601334Y-122047702D01*
X92569204Y-121998225D01*
X92458258Y-121827383D01*
X92401046Y-121739284D01*
X92326661Y-121647426D01*
X92206084Y-121498526D01*
X92194885Y-121482232D01*
X92157211Y-121416978D01*
X92157208Y-121416973D01*
X92153909Y-121411260D01*
X92121234Y-121374970D01*
X92030544Y-121274249D01*
X92030543Y-121274248D01*
X92026122Y-121269338D01*
X91871621Y-121157086D01*
X91865586Y-121154399D01*
X91859872Y-121151100D01*
X91860367Y-121150243D01*
X91843282Y-121139769D01*
X91626365Y-120964113D01*
X91623789Y-120962027D01*
X91477813Y-120867229D01*
X91318141Y-120763537D01*
X91318138Y-120763535D01*
X91315372Y-120761739D01*
X91312438Y-120760244D01*
X91312431Y-120760240D01*
X90990648Y-120596284D01*
X90987708Y-120594786D01*
X90644388Y-120462998D01*
X90641199Y-120462143D01*
X90641182Y-120462138D01*
X90549121Y-120437470D01*
X90488499Y-120400519D01*
X90457477Y-120336658D01*
X90465906Y-120266163D01*
X90511110Y-120211417D01*
X90521225Y-120205243D01*
X90532364Y-120199145D01*
X90634439Y-120122644D01*
X90647000Y-120110083D01*
X90723501Y-120008008D01*
X90732039Y-119992413D01*
X90777193Y-119871965D01*
X90780820Y-119856710D01*
X90786346Y-119805845D01*
X90786715Y-119799031D01*
X90786715Y-119276474D01*
X90782240Y-119261235D01*
X90780850Y-119260030D01*
X90773167Y-119258359D01*
X89400715Y-119258359D01*
X89332594Y-119238357D01*
X89286101Y-119184701D01*
X89274715Y-119132359D01*
X89274715Y-118732244D01*
X89782715Y-118732244D01*
X89787190Y-118747483D01*
X89788580Y-118748688D01*
X89796263Y-118750359D01*
X90768599Y-118750359D01*
X90783838Y-118745884D01*
X90785043Y-118744494D01*
X90786714Y-118736811D01*
X90786714Y-118209690D01*
X90786344Y-118202869D01*
X90780820Y-118152007D01*
X90777194Y-118136755D01*
X90732039Y-118016305D01*
X90723501Y-118000710D01*
X90647000Y-117898635D01*
X90634439Y-117886074D01*
X90532364Y-117809573D01*
X90516769Y-117801035D01*
X90396321Y-117755881D01*
X90381066Y-117752254D01*
X90330201Y-117746728D01*
X90323387Y-117746359D01*
X89800830Y-117746359D01*
X89785591Y-117750834D01*
X89784386Y-117752224D01*
X89782715Y-117759907D01*
X89782715Y-118732244D01*
X89274715Y-118732244D01*
X89274715Y-117764475D01*
X89270240Y-117749236D01*
X89268850Y-117748031D01*
X89261167Y-117746360D01*
X88734046Y-117746360D01*
X88727225Y-117746730D01*
X88676363Y-117752254D01*
X88661111Y-117755880D01*
X88540661Y-117801035D01*
X88525066Y-117809573D01*
X88422991Y-117886074D01*
X88410430Y-117898635D01*
X88333929Y-118000710D01*
X88325391Y-118016305D01*
X88301109Y-118081076D01*
X88258467Y-118137840D01*
X88191905Y-118162540D01*
X88122557Y-118147332D01*
X88089935Y-118121647D01*
X87982524Y-118003603D01*
X87956078Y-117974539D01*
X87956076Y-117974537D01*
X87952600Y-117970717D01*
X87948549Y-117967518D01*
X87948545Y-117967514D01*
X87774891Y-117830371D01*
X87774888Y-117830369D01*
X87770836Y-117827169D01*
X87714625Y-117796139D01*
X87664654Y-117745706D01*
X87649518Y-117685830D01*
X87649518Y-116263291D01*
X87669520Y-116195170D01*
X87703906Y-116161368D01*
X87703406Y-116160738D01*
X87709138Y-116156195D01*
X87715366Y-116152341D01*
X87801802Y-116065754D01*
X87864084Y-116031675D01*
X87934904Y-116036678D01*
X87979993Y-116065599D01*
X88001073Y-116086642D01*
X88067715Y-116153168D01*
X88073945Y-116157008D01*
X88073946Y-116157009D01*
X88211108Y-116241557D01*
X88218280Y-116245978D01*
X88298023Y-116272427D01*
X88379629Y-116299495D01*
X88379631Y-116299495D01*
X88386157Y-116301660D01*
X88392993Y-116302360D01*
X88392996Y-116302361D01*
X88436049Y-116306772D01*
X88490618Y-116312363D01*
X89291418Y-116312363D01*
X89294664Y-116312026D01*
X89294668Y-116312026D01*
X89390326Y-116302101D01*
X89390330Y-116302100D01*
X89397184Y-116301389D01*
X89403720Y-116299208D01*
X89403722Y-116299208D01*
X89535824Y-116255135D01*
X89564964Y-116245413D01*
X89715366Y-116152341D01*
X89727123Y-116140564D01*
X89835152Y-116032346D01*
X89840323Y-116027166D01*
X89843508Y-116021999D01*
X89901006Y-115981233D01*
X89941971Y-115974388D01*
X90246397Y-115974388D01*
X90290317Y-115982291D01*
X90345673Y-116002878D01*
X90345675Y-116002879D01*
X90352283Y-116005336D01*
X90436110Y-116016521D01*
X90525095Y-116028395D01*
X90525099Y-116028395D01*
X90532076Y-116029326D01*
X90539087Y-116028688D01*
X90539091Y-116028688D01*
X90681574Y-116015720D01*
X90712715Y-116012886D01*
X90719417Y-116010708D01*
X90719419Y-116010708D01*
X90878524Y-115959012D01*
X90878527Y-115959011D01*
X90885223Y-115956835D01*
X91041027Y-115863957D01*
X91172381Y-115738870D01*
X91272758Y-115587790D01*
X91314538Y-115477805D01*
X91334670Y-115424808D01*
X91334671Y-115424806D01*
X91337170Y-115418226D01*
X91356099Y-115283540D01*
X91361863Y-115242527D01*
X91361863Y-115242524D01*
X91362414Y-115238605D01*
X91362731Y-115215888D01*
X91342512Y-115035633D01*
X91335427Y-115015288D01*
X91285179Y-114870994D01*
X91285177Y-114870991D01*
X91282860Y-114864336D01*
X91271721Y-114846509D01*
X91190474Y-114716486D01*
X91186741Y-114710512D01*
X91154658Y-114678204D01*
X91063893Y-114586803D01*
X91063889Y-114586800D01*
X91058930Y-114581806D01*
X90905781Y-114484615D01*
X90871222Y-114472309D01*
X90741540Y-114426131D01*
X90741535Y-114426130D01*
X90734905Y-114423769D01*
X90727917Y-114422936D01*
X90727914Y-114422935D01*
X90604813Y-114408256D01*
X90554795Y-114402292D01*
X90547792Y-114403028D01*
X90547791Y-114403028D01*
X90381403Y-114420516D01*
X90381401Y-114420517D01*
X90374403Y-114421252D01*
X90300995Y-114446242D01*
X90287999Y-114450666D01*
X90247394Y-114457388D01*
X90065886Y-114457388D01*
X89997765Y-114437386D01*
X89951272Y-114383730D01*
X89946363Y-114371266D01*
X89934884Y-114336860D01*
X89932568Y-114329917D01*
X89839496Y-114179515D01*
X89834314Y-114174342D01*
X89834310Y-114174337D01*
X89765159Y-114105307D01*
X89731079Y-114043025D01*
X89736082Y-113972205D01*
X89765003Y-113927116D01*
X89800477Y-113891580D01*
X89805648Y-113886400D01*
X89831040Y-113845207D01*
X89883811Y-113797715D01*
X89954963Y-113786431D01*
X90038367Y-113797560D01*
X90038372Y-113797560D01*
X90045349Y-113798491D01*
X90052360Y-113797853D01*
X90052364Y-113797853D01*
X90194847Y-113784885D01*
X90225988Y-113782051D01*
X90232690Y-113779873D01*
X90232692Y-113779873D01*
X90391797Y-113728177D01*
X90391800Y-113728176D01*
X90398496Y-113726000D01*
X90554300Y-113633122D01*
X90685654Y-113508035D01*
X90786031Y-113356955D01*
X90850443Y-113187391D01*
X90868202Y-113061029D01*
X90875136Y-113011692D01*
X90875136Y-113011689D01*
X90875687Y-113007770D01*
X90876004Y-112985053D01*
X90855785Y-112804798D01*
X90842782Y-112767459D01*
X90798452Y-112640159D01*
X90798450Y-112640156D01*
X90796133Y-112633501D01*
X90791770Y-112626519D01*
X90703747Y-112485651D01*
X90700014Y-112479677D01*
X90694017Y-112473638D01*
X90577166Y-112355968D01*
X90577162Y-112355965D01*
X90572203Y-112350971D01*
X90562097Y-112344557D01*
X90494955Y-112301948D01*
X90419054Y-112253780D01*
X90384882Y-112241612D01*
X90254813Y-112195296D01*
X90254808Y-112195295D01*
X90248178Y-112192934D01*
X90241190Y-112192101D01*
X90241187Y-112192100D01*
X90116507Y-112177233D01*
X90068068Y-112171457D01*
X90061065Y-112172193D01*
X90061064Y-112172193D01*
X90027576Y-112175713D01*
X89976686Y-112181062D01*
X89906849Y-112168290D01*
X89856375Y-112122058D01*
X89804821Y-112038749D01*
X89679646Y-111913792D01*
X89669599Y-111907599D01*
X89535311Y-111824822D01*
X89535309Y-111824821D01*
X89529081Y-111820982D01*
X89368597Y-111767752D01*
X89367732Y-111767465D01*
X89367730Y-111767465D01*
X89361204Y-111765300D01*
X89354368Y-111764600D01*
X89354365Y-111764599D01*
X89311312Y-111760188D01*
X89256743Y-111754597D01*
X88455943Y-111754597D01*
X88452697Y-111754934D01*
X88452693Y-111754934D01*
X88357035Y-111764859D01*
X88357031Y-111764860D01*
X88350177Y-111765571D01*
X88343641Y-111767752D01*
X88343639Y-111767752D01*
X88236490Y-111803500D01*
X88182397Y-111821547D01*
X88031995Y-111914619D01*
X88026822Y-111919801D01*
X87945559Y-112001206D01*
X87883277Y-112035285D01*
X87812457Y-112030282D01*
X87767368Y-112001361D01*
X87684826Y-111918963D01*
X87679646Y-111913792D01*
X87673415Y-111909951D01*
X87667670Y-111905414D01*
X87668720Y-111904084D01*
X87627235Y-111857990D01*
X87614843Y-111803500D01*
X87614843Y-110181500D01*
X87634845Y-110113379D01*
X87667675Y-110078921D01*
X87715161Y-110045050D01*
X87800956Y-109983853D01*
X87965016Y-109820364D01*
X87968030Y-109816170D01*
X87968039Y-109816159D01*
X87980817Y-109798376D01*
X88036811Y-109754728D01*
X88107515Y-109748282D01*
X88170479Y-109781085D01*
X88201121Y-109827673D01*
X88225390Y-109892411D01*
X88233929Y-109908008D01*
X88310430Y-110010083D01*
X88322991Y-110022644D01*
X88425066Y-110099145D01*
X88440661Y-110107683D01*
X88561109Y-110152837D01*
X88576364Y-110156464D01*
X88627229Y-110161990D01*
X88634043Y-110162359D01*
X89156600Y-110162359D01*
X89171839Y-110157884D01*
X89173044Y-110156494D01*
X89174715Y-110148811D01*
X89174715Y-107664475D01*
X89170240Y-107649236D01*
X89168850Y-107648031D01*
X89161167Y-107646360D01*
X88634046Y-107646360D01*
X88627225Y-107646730D01*
X88576363Y-107652254D01*
X88561111Y-107655880D01*
X88440661Y-107701035D01*
X88425066Y-107709573D01*
X88322991Y-107786074D01*
X88310430Y-107798635D01*
X88233929Y-107900710D01*
X88225391Y-107916305D01*
X88201109Y-107981076D01*
X88158467Y-108037840D01*
X88091905Y-108062540D01*
X88022557Y-108047332D01*
X87989935Y-108021647D01*
X87884512Y-107905788D01*
X87856078Y-107874539D01*
X87856076Y-107874537D01*
X87852600Y-107870717D01*
X87848549Y-107867518D01*
X87848545Y-107867514D01*
X87674890Y-107730370D01*
X87674885Y-107730367D01*
X87670836Y-107727169D01*
X87666320Y-107724676D01*
X87666317Y-107724674D01*
X87472592Y-107617732D01*
X87472588Y-107617730D01*
X87468068Y-107615235D01*
X87463199Y-107613511D01*
X87463195Y-107613509D01*
X87254616Y-107539647D01*
X87254612Y-107539646D01*
X87249741Y-107537921D01*
X87244648Y-107537014D01*
X87244645Y-107537013D01*
X87026808Y-107498210D01*
X87026802Y-107498209D01*
X87021719Y-107497304D01*
X86948809Y-107496413D01*
X86795294Y-107494538D01*
X86795292Y-107494538D01*
X86790124Y-107494475D01*
X86561177Y-107529509D01*
X86341027Y-107601465D01*
X86275720Y-107635462D01*
X86206063Y-107649174D01*
X86140048Y-107623049D01*
X86098636Y-107565381D01*
X86091542Y-107523698D01*
X86091542Y-105102188D01*
X86111544Y-105034067D01*
X86165200Y-104987574D01*
X86235474Y-104977470D01*
X86300054Y-105006964D01*
G37*
G04 #@! TD.AperFunction*
G04 #@! TA.AperFunction,Conductor*
G36*
X90483333Y-80340400D02*
G01*
X90527995Y-80395589D01*
X90532683Y-80408895D01*
X90561684Y-80508720D01*
X90561686Y-80508725D01*
X90563897Y-80516335D01*
X90648589Y-80659541D01*
X90651271Y-80662223D01*
X90676544Y-80726595D01*
X90662642Y-80796218D01*
X90652470Y-80812046D01*
X90648589Y-80815927D01*
X90563897Y-80959133D01*
X90517480Y-81118903D01*
X90514542Y-81156232D01*
X90514542Y-81589236D01*
X90514735Y-81591684D01*
X90514735Y-81591692D01*
X90516917Y-81619411D01*
X90517480Y-81626565D01*
X90534420Y-81684874D01*
X90561685Y-81778720D01*
X90563897Y-81786335D01*
X90567934Y-81793161D01*
X90638865Y-81913098D01*
X90648589Y-81929541D01*
X90651529Y-81932481D01*
X90676862Y-81997000D01*
X90662963Y-82066623D01*
X90650916Y-82085370D01*
X90644952Y-82093058D01*
X90568394Y-82222513D01*
X90562149Y-82236944D01*
X90523103Y-82371339D01*
X90523143Y-82385440D01*
X90530412Y-82388734D01*
X92126042Y-82388734D01*
X92194163Y-82408736D01*
X92240656Y-82462392D01*
X92252042Y-82514734D01*
X92252042Y-82770734D01*
X92232040Y-82838855D01*
X92178384Y-82885348D01*
X92126042Y-82896734D01*
X90536164Y-82896734D01*
X90522633Y-82900707D01*
X90521498Y-82908605D01*
X90562149Y-83048524D01*
X90568394Y-83062955D01*
X90644953Y-83192412D01*
X90654593Y-83204838D01*
X90753218Y-83303463D01*
X90787244Y-83365775D01*
X90782179Y-83436590D01*
X90753219Y-83481652D01*
X90581782Y-83653089D01*
X90573503Y-83660623D01*
X90567022Y-83664736D01*
X90520397Y-83714387D01*
X90517642Y-83717229D01*
X90497905Y-83736966D01*
X90495425Y-83740163D01*
X90487722Y-83749183D01*
X90457454Y-83781415D01*
X90453635Y-83788361D01*
X90453633Y-83788364D01*
X90447692Y-83799170D01*
X90436841Y-83815689D01*
X90424426Y-83831695D01*
X90421281Y-83838964D01*
X90421278Y-83838968D01*
X90406866Y-83872273D01*
X90401649Y-83882923D01*
X90380345Y-83921676D01*
X90378374Y-83929351D01*
X90378374Y-83929352D01*
X90375307Y-83941298D01*
X90368903Y-83960002D01*
X90366987Y-83964431D01*
X90360859Y-83978591D01*
X90359620Y-83986414D01*
X90359617Y-83986424D01*
X90353941Y-84022260D01*
X90351535Y-84033880D01*
X90347750Y-84048622D01*
X90340540Y-84076706D01*
X90340540Y-84096960D01*
X90338989Y-84116670D01*
X90335820Y-84136679D01*
X90336566Y-84144571D01*
X90339981Y-84180697D01*
X90340540Y-84192555D01*
X90340540Y-90779965D01*
X90340013Y-90791148D01*
X90338338Y-90798641D01*
X90338587Y-90806567D01*
X90338587Y-90806568D01*
X90340478Y-90866718D01*
X90340540Y-90870677D01*
X90340540Y-90898588D01*
X90341037Y-90902522D01*
X90341037Y-90902523D01*
X90341045Y-90902588D01*
X90341978Y-90914425D01*
X90343367Y-90958621D01*
X90349018Y-90978071D01*
X90353027Y-90997432D01*
X90355566Y-91017529D01*
X90358485Y-91024900D01*
X90358485Y-91024902D01*
X90371844Y-91058644D01*
X90375689Y-91069874D01*
X90388022Y-91112325D01*
X90392055Y-91119144D01*
X90392057Y-91119149D01*
X90398333Y-91129760D01*
X90407028Y-91147508D01*
X90414488Y-91166349D01*
X90419150Y-91172765D01*
X90419150Y-91172766D01*
X90440476Y-91202119D01*
X90446992Y-91212039D01*
X90469498Y-91250094D01*
X90483819Y-91264415D01*
X90496659Y-91279448D01*
X90508568Y-91295839D01*
X90531019Y-91314412D01*
X90542645Y-91324030D01*
X90551424Y-91332020D01*
X90754385Y-91534981D01*
X90761929Y-91543271D01*
X90766042Y-91549752D01*
X90771819Y-91555177D01*
X90815709Y-91596392D01*
X90818551Y-91599147D01*
X90838272Y-91618868D01*
X90841467Y-91621346D01*
X90850489Y-91629052D01*
X90882721Y-91659320D01*
X90889670Y-91663140D01*
X90900474Y-91669080D01*
X90916998Y-91679933D01*
X90933001Y-91692347D01*
X90973585Y-91709910D01*
X90984215Y-91715117D01*
X91022982Y-91736429D01*
X91030659Y-91738400D01*
X91030664Y-91738402D01*
X91042600Y-91741466D01*
X91061308Y-91747871D01*
X91079897Y-91755915D01*
X91087722Y-91757154D01*
X91087724Y-91757155D01*
X91123561Y-91762831D01*
X91135182Y-91765238D01*
X91170331Y-91774262D01*
X91178012Y-91776234D01*
X91198273Y-91776234D01*
X91217982Y-91777785D01*
X91237985Y-91780953D01*
X91245877Y-91780207D01*
X91251104Y-91779713D01*
X91281996Y-91776793D01*
X91293853Y-91776234D01*
X93116042Y-91776234D01*
X93184163Y-91796236D01*
X93230656Y-91849892D01*
X93242042Y-91902234D01*
X93242042Y-94403368D01*
X93248797Y-94465550D01*
X93299927Y-94601939D01*
X93387281Y-94718495D01*
X93503837Y-94805849D01*
X93640226Y-94856979D01*
X93702408Y-94863734D01*
X94798676Y-94863734D01*
X94860858Y-94856979D01*
X94908128Y-94839258D01*
X94988843Y-94809000D01*
X94988846Y-94808998D01*
X94997247Y-94805849D01*
X94997566Y-94806700D01*
X95059391Y-94793179D01*
X95103708Y-94806192D01*
X95103837Y-94805849D01*
X95108523Y-94807606D01*
X95108527Y-94807607D01*
X95112238Y-94808998D01*
X95112241Y-94809000D01*
X95192956Y-94839258D01*
X95240226Y-94856979D01*
X95302408Y-94863734D01*
X95733542Y-94863734D01*
X95801663Y-94883736D01*
X95848156Y-94937392D01*
X95859542Y-94989734D01*
X95859542Y-95523139D01*
X95839540Y-95591260D01*
X95822637Y-95612235D01*
X95579541Y-95855330D01*
X95395784Y-96039087D01*
X95387505Y-96046621D01*
X95381024Y-96050734D01*
X95334399Y-96100385D01*
X95331644Y-96103227D01*
X95311907Y-96122964D01*
X95309427Y-96126161D01*
X95301724Y-96135181D01*
X95271456Y-96167413D01*
X95267637Y-96174359D01*
X95267635Y-96174362D01*
X95261694Y-96185168D01*
X95250843Y-96201687D01*
X95238428Y-96217693D01*
X95235283Y-96224962D01*
X95235280Y-96224966D01*
X95220868Y-96258271D01*
X95215651Y-96268921D01*
X95194347Y-96307674D01*
X95192376Y-96315349D01*
X95192376Y-96315350D01*
X95189309Y-96327296D01*
X95182905Y-96346000D01*
X95174861Y-96364589D01*
X95173622Y-96372412D01*
X95173619Y-96372422D01*
X95167943Y-96408258D01*
X95165537Y-96419878D01*
X95156514Y-96455023D01*
X95154542Y-96462704D01*
X95154542Y-96482958D01*
X95152991Y-96502668D01*
X95149822Y-96522677D01*
X95150568Y-96530569D01*
X95153983Y-96566695D01*
X95154542Y-96578553D01*
X95154542Y-104580764D01*
X95134540Y-104648885D01*
X95080884Y-104695378D01*
X95010610Y-104705482D01*
X94984312Y-104698746D01*
X94905648Y-104669256D01*
X94890393Y-104665629D01*
X94839528Y-104660103D01*
X94832714Y-104659734D01*
X94560157Y-104659734D01*
X94544918Y-104664209D01*
X94543713Y-104665599D01*
X94542042Y-104673282D01*
X94542042Y-108157618D01*
X94546517Y-108172858D01*
X94557290Y-108182193D01*
X94595673Y-108241920D01*
X94595673Y-108312916D01*
X94557289Y-108372642D01*
X94530010Y-108390666D01*
X94503480Y-108403605D01*
X94497479Y-108406340D01*
X94452795Y-108425308D01*
X94425143Y-108437045D01*
X94406331Y-108448892D01*
X94397343Y-108454552D01*
X94385439Y-108461178D01*
X94355911Y-108475579D01*
X94351774Y-108478498D01*
X94351773Y-108478498D01*
X94291702Y-108520874D01*
X94286213Y-108524534D01*
X94239259Y-108554103D01*
X94219732Y-108566400D01*
X94215943Y-108569741D01*
X94215937Y-108569745D01*
X94195082Y-108588131D01*
X94184387Y-108596577D01*
X94157552Y-108615507D01*
X94136049Y-108635142D01*
X94096333Y-108674858D01*
X94090563Y-108680277D01*
X94041441Y-108723583D01*
X94041438Y-108723586D01*
X94037644Y-108726931D01*
X94034434Y-108730839D01*
X94034433Y-108730840D01*
X94011120Y-108759222D01*
X94002850Y-108768341D01*
X93327155Y-109444036D01*
X93264843Y-109478062D01*
X93238060Y-109480941D01*
X93017364Y-109480941D01*
X92949243Y-109460939D01*
X92902750Y-109407283D01*
X92891364Y-109354941D01*
X92891364Y-107712403D01*
X93280043Y-107712403D01*
X93280413Y-107719224D01*
X93285937Y-107770086D01*
X93289563Y-107785338D01*
X93334718Y-107905788D01*
X93343256Y-107921383D01*
X93419757Y-108023458D01*
X93432318Y-108036019D01*
X93534393Y-108112520D01*
X93549988Y-108121058D01*
X93670436Y-108166212D01*
X93685691Y-108169839D01*
X93736556Y-108175365D01*
X93743370Y-108175734D01*
X94015927Y-108175734D01*
X94031166Y-108171259D01*
X94032371Y-108169869D01*
X94034042Y-108162186D01*
X94034042Y-106689849D01*
X94029567Y-106674610D01*
X94028177Y-106673405D01*
X94020494Y-106671734D01*
X93298158Y-106671734D01*
X93282919Y-106676209D01*
X93281714Y-106677599D01*
X93280043Y-106685282D01*
X93280043Y-107712403D01*
X92891364Y-107712403D01*
X92891364Y-106145619D01*
X93280042Y-106145619D01*
X93284517Y-106160858D01*
X93285907Y-106162063D01*
X93293590Y-106163734D01*
X94015927Y-106163734D01*
X94031166Y-106159259D01*
X94032371Y-106157869D01*
X94034042Y-106150186D01*
X94034042Y-104677850D01*
X94029567Y-104662611D01*
X94028177Y-104661406D01*
X94020494Y-104659735D01*
X93743373Y-104659735D01*
X93736552Y-104660105D01*
X93685690Y-104665629D01*
X93670438Y-104669255D01*
X93549988Y-104714410D01*
X93534393Y-104722948D01*
X93432318Y-104799449D01*
X93419757Y-104812010D01*
X93343256Y-104914085D01*
X93334718Y-104929680D01*
X93289564Y-105050128D01*
X93285937Y-105065383D01*
X93280411Y-105116248D01*
X93280042Y-105123062D01*
X93280042Y-106145619D01*
X92891364Y-106145619D01*
X92891364Y-105037703D01*
X92891413Y-105034185D01*
X92894057Y-104939538D01*
X92894057Y-104939535D01*
X92894198Y-104934482D01*
X92890736Y-104908529D01*
X92883807Y-104856598D01*
X92883106Y-104850041D01*
X92877210Y-104776767D01*
X92877210Y-104776766D01*
X92876804Y-104771722D01*
X92868970Y-104739826D01*
X92866440Y-104726437D01*
X92862763Y-104698882D01*
X92862094Y-104693867D01*
X92839380Y-104618636D01*
X92837642Y-104612282D01*
X92820108Y-104540895D01*
X92818901Y-104535981D01*
X92806064Y-104505739D01*
X92801426Y-104492925D01*
X92793396Y-104466329D01*
X92791932Y-104461479D01*
X92757472Y-104390825D01*
X92754767Y-104384891D01*
X92724052Y-104312531D01*
X92721357Y-104308251D01*
X92721351Y-104308240D01*
X92706548Y-104284734D01*
X92699920Y-104272827D01*
X92687733Y-104247841D01*
X92685518Y-104243299D01*
X92640221Y-104179087D01*
X92636563Y-104173601D01*
X92597393Y-104111401D01*
X92597392Y-104111400D01*
X92594697Y-104107120D01*
X92591356Y-104103331D01*
X92591352Y-104103325D01*
X92572966Y-104082470D01*
X92564520Y-104071775D01*
X92547873Y-104048177D01*
X92545590Y-104044940D01*
X92525955Y-104023437D01*
X92486239Y-103983721D01*
X92480820Y-103977951D01*
X92437514Y-103928829D01*
X92437511Y-103928826D01*
X92434166Y-103925032D01*
X92401875Y-103898508D01*
X92392756Y-103890238D01*
X90460594Y-101958076D01*
X90426568Y-101895764D01*
X90423689Y-101868981D01*
X90423689Y-101497878D01*
X90416934Y-101435696D01*
X90365804Y-101299307D01*
X90278450Y-101182751D01*
X90161894Y-101095397D01*
X90025505Y-101044267D01*
X89963323Y-101037512D01*
X89566775Y-101037512D01*
X89501711Y-101016491D01*
X89500469Y-101018542D01*
X89411206Y-100964482D01*
X89292831Y-100892791D01*
X89067760Y-100801857D01*
X89014902Y-100789848D01*
X88835976Y-100749197D01*
X88835973Y-100749196D01*
X88831045Y-100748077D01*
X88825998Y-100747759D01*
X88825995Y-100747759D01*
X88605539Y-100733889D01*
X88588776Y-100732834D01*
X88400713Y-100751275D01*
X88352214Y-100756030D01*
X88352213Y-100756030D01*
X88347187Y-100756523D01*
X88112493Y-100818531D01*
X88107869Y-100820590D01*
X87997736Y-100869625D01*
X87949893Y-100880473D01*
X87917596Y-100881347D01*
X87897990Y-100881877D01*
X87890908Y-100883755D01*
X87890907Y-100883755D01*
X87734109Y-100925330D01*
X87734107Y-100925331D01*
X87727027Y-100927208D01*
X87720568Y-100930664D01*
X87576986Y-101007490D01*
X87507486Y-101021992D01*
X87441179Y-100996617D01*
X87399117Y-100939422D01*
X87391542Y-100896394D01*
X87391542Y-99230012D01*
X87411544Y-99161891D01*
X87465200Y-99115398D01*
X87517542Y-99104012D01*
X88393074Y-99104012D01*
X88408313Y-99099537D01*
X88409518Y-99098147D01*
X88411189Y-99090464D01*
X88411189Y-99085896D01*
X88919189Y-99085896D01*
X88923664Y-99101135D01*
X88925054Y-99102340D01*
X88932737Y-99104011D01*
X89959858Y-99104011D01*
X89966679Y-99103641D01*
X90017541Y-99098117D01*
X90032793Y-99094491D01*
X90153243Y-99049336D01*
X90168838Y-99040798D01*
X90270913Y-98964297D01*
X90283474Y-98951736D01*
X90359975Y-98849661D01*
X90368513Y-98834066D01*
X90413667Y-98713618D01*
X90417294Y-98698363D01*
X90422820Y-98647498D01*
X90423189Y-98640684D01*
X90423189Y-97368127D01*
X90418714Y-97352888D01*
X90417324Y-97351683D01*
X90409641Y-97350012D01*
X88937304Y-97350012D01*
X88922065Y-97354487D01*
X88920860Y-97355877D01*
X88919189Y-97363560D01*
X88919189Y-99085896D01*
X88411189Y-99085896D01*
X88411189Y-96823897D01*
X88919189Y-96823897D01*
X88923664Y-96839136D01*
X88925054Y-96840341D01*
X88932737Y-96842012D01*
X90405073Y-96842012D01*
X90420312Y-96837537D01*
X90421517Y-96836147D01*
X90423188Y-96828464D01*
X90423188Y-95551343D01*
X90422818Y-95544522D01*
X90417294Y-95493660D01*
X90413668Y-95478408D01*
X90368513Y-95357958D01*
X90359975Y-95342363D01*
X90283474Y-95240288D01*
X90270913Y-95227727D01*
X90168838Y-95151226D01*
X90153243Y-95142688D01*
X90032795Y-95097534D01*
X90017540Y-95093907D01*
X89966675Y-95088381D01*
X89959861Y-95088012D01*
X88937304Y-95088012D01*
X88922065Y-95092487D01*
X88920860Y-95093877D01*
X88919189Y-95101560D01*
X88919189Y-96823897D01*
X88411189Y-96823897D01*
X88411189Y-95106128D01*
X88406714Y-95090889D01*
X88405324Y-95089684D01*
X88397641Y-95088013D01*
X87517542Y-95088013D01*
X87449421Y-95068011D01*
X87402928Y-95014355D01*
X87391542Y-94962013D01*
X87391542Y-84484105D01*
X87411544Y-84415984D01*
X87428447Y-84395010D01*
X87536953Y-84286504D01*
X87551365Y-84274118D01*
X87562960Y-84265585D01*
X87562965Y-84265580D01*
X87568860Y-84261242D01*
X87573599Y-84255664D01*
X87573602Y-84255661D01*
X87603077Y-84220966D01*
X87610007Y-84213450D01*
X87615703Y-84207754D01*
X87617966Y-84204893D01*
X87617971Y-84204888D01*
X87633327Y-84185478D01*
X87636116Y-84182076D01*
X87678638Y-84132025D01*
X87678639Y-84132024D01*
X87683375Y-84126449D01*
X87686703Y-84119932D01*
X87690069Y-84114884D01*
X87693232Y-84109762D01*
X87697777Y-84104018D01*
X87728706Y-84037839D01*
X87730605Y-84033955D01*
X87763811Y-83968926D01*
X87765552Y-83961811D01*
X87767655Y-83956156D01*
X87769564Y-83950417D01*
X87772664Y-83943784D01*
X87787539Y-83872273D01*
X87788503Y-83868016D01*
X87805850Y-83797124D01*
X87806394Y-83788364D01*
X87806542Y-83785970D01*
X87806577Y-83785972D01*
X87806817Y-83782000D01*
X87807194Y-83777779D01*
X87808683Y-83770619D01*
X87806588Y-83693192D01*
X87806542Y-83689784D01*
X87806542Y-83577234D01*
X87826544Y-83509113D01*
X87880200Y-83462620D01*
X87932542Y-83451234D01*
X87939544Y-83451234D01*
X87941992Y-83451041D01*
X87942000Y-83451041D01*
X87970463Y-83448801D01*
X87970468Y-83448800D01*
X87976873Y-83448296D01*
X88123918Y-83405576D01*
X88129030Y-83404091D01*
X88129032Y-83404090D01*
X88136643Y-83401879D01*
X88166908Y-83383980D01*
X88273022Y-83321225D01*
X88273025Y-83321223D01*
X88279849Y-83317187D01*
X88397495Y-83199541D01*
X88401531Y-83192717D01*
X88401533Y-83192714D01*
X88478150Y-83063161D01*
X88482187Y-83056335D01*
X88484457Y-83048524D01*
X88507932Y-82967720D01*
X88528604Y-82896565D01*
X88529627Y-82883578D01*
X88531349Y-82861692D01*
X88531349Y-82861684D01*
X88531542Y-82859236D01*
X88531542Y-82426232D01*
X88528604Y-82388903D01*
X88489544Y-82254457D01*
X88484399Y-82236746D01*
X88484398Y-82236744D01*
X88482187Y-82229133D01*
X88397495Y-82085927D01*
X88394813Y-82083245D01*
X88369540Y-82018873D01*
X88383442Y-81949250D01*
X88393614Y-81933422D01*
X88397495Y-81929541D01*
X88482187Y-81786335D01*
X88501004Y-81721566D01*
X88539216Y-81661730D01*
X88603712Y-81632052D01*
X88674015Y-81641955D01*
X88690994Y-81651286D01*
X88756201Y-81693956D01*
X88762805Y-81696412D01*
X88762807Y-81696413D01*
X88919600Y-81754724D01*
X88919602Y-81754724D01*
X88926210Y-81757182D01*
X89010037Y-81768367D01*
X89099022Y-81780241D01*
X89099026Y-81780241D01*
X89106003Y-81781172D01*
X89113014Y-81780534D01*
X89113018Y-81780534D01*
X89267644Y-81766461D01*
X89286642Y-81764732D01*
X89293344Y-81762554D01*
X89293346Y-81762554D01*
X89452451Y-81710858D01*
X89452454Y-81710857D01*
X89459150Y-81708681D01*
X89596901Y-81626565D01*
X89608902Y-81619411D01*
X89608904Y-81619410D01*
X89614954Y-81615803D01*
X89746308Y-81490716D01*
X89846685Y-81339636D01*
X89911097Y-81170072D01*
X89915128Y-81141392D01*
X89935790Y-80994373D01*
X89935790Y-80994370D01*
X89936341Y-80990451D01*
X89936658Y-80967734D01*
X89916439Y-80787479D01*
X89890569Y-80713190D01*
X89870434Y-80655370D01*
X89866920Y-80584460D01*
X89902302Y-80522908D01*
X89965344Y-80490256D01*
X89978003Y-80488452D01*
X90018882Y-80484732D01*
X90025584Y-80482554D01*
X90025586Y-80482554D01*
X90184691Y-80430858D01*
X90184694Y-80430857D01*
X90191390Y-80428681D01*
X90321529Y-80351102D01*
X90347169Y-80335818D01*
X90415923Y-80318118D01*
X90483333Y-80340400D01*
G37*
G04 #@! TD.AperFunction*
G04 #@! TA.AperFunction,Conductor*
G36*
X110155075Y-85204996D02*
G01*
X110193943Y-85264409D01*
X110198666Y-85287884D01*
X110202345Y-85323336D01*
X110205516Y-85353900D01*
X110261492Y-85521680D01*
X110354564Y-85672082D01*
X110440875Y-85758242D01*
X110441151Y-85758518D01*
X110475230Y-85820800D01*
X110470227Y-85891620D01*
X110441306Y-85936709D01*
X110411056Y-85967012D01*
X110353737Y-86024431D01*
X110349897Y-86030661D01*
X110349896Y-86030662D01*
X110269678Y-86160800D01*
X110260927Y-86174996D01*
X110253757Y-86196612D01*
X110216670Y-86308429D01*
X110205245Y-86342873D01*
X110194542Y-86447334D01*
X110194542Y-87248134D01*
X110194879Y-87251380D01*
X110194879Y-87251384D01*
X110199291Y-87293900D01*
X110205516Y-87353900D01*
X110261492Y-87521680D01*
X110354564Y-87672082D01*
X110479739Y-87797039D01*
X110571739Y-87853749D01*
X110619231Y-87906520D01*
X110631207Y-87950793D01*
X110634182Y-87987371D01*
X110636438Y-87994335D01*
X110637629Y-88000294D01*
X110639013Y-88006149D01*
X110639860Y-88013415D01*
X110664777Y-88082061D01*
X110666194Y-88086189D01*
X110685813Y-88146748D01*
X110688691Y-88155633D01*
X110692487Y-88161888D01*
X110694993Y-88167362D01*
X110697712Y-88172792D01*
X110700209Y-88179671D01*
X110704222Y-88185791D01*
X110704222Y-88185792D01*
X110740228Y-88240710D01*
X110742565Y-88244414D01*
X110780447Y-88306841D01*
X110784163Y-88311049D01*
X110784164Y-88311050D01*
X110787845Y-88315218D01*
X110787818Y-88315242D01*
X110790471Y-88318234D01*
X110793174Y-88321467D01*
X110797186Y-88327586D01*
X110818560Y-88347834D01*
X110853425Y-88380862D01*
X110855867Y-88383240D01*
X111099272Y-88626645D01*
X111111658Y-88641057D01*
X111120191Y-88652652D01*
X111120196Y-88652657D01*
X111124534Y-88658552D01*
X111130112Y-88663291D01*
X111130115Y-88663294D01*
X111164810Y-88692769D01*
X111172326Y-88699699D01*
X111178021Y-88705394D01*
X111180903Y-88707674D01*
X111200293Y-88723015D01*
X111203697Y-88725806D01*
X111253745Y-88768325D01*
X111259327Y-88773067D01*
X111265843Y-88776395D01*
X111270892Y-88779762D01*
X111276021Y-88782929D01*
X111281758Y-88787468D01*
X111347917Y-88818389D01*
X111351811Y-88820292D01*
X111416850Y-88853503D01*
X111423958Y-88855242D01*
X111429601Y-88857341D01*
X111435364Y-88859258D01*
X111441992Y-88862356D01*
X111503137Y-88875074D01*
X111513454Y-88877220D01*
X111517738Y-88878190D01*
X111588652Y-88895542D01*
X111594254Y-88895890D01*
X111594257Y-88895890D01*
X111599806Y-88896234D01*
X111599804Y-88896270D01*
X111603797Y-88896509D01*
X111607989Y-88896883D01*
X111615157Y-88898374D01*
X111692562Y-88896280D01*
X111695970Y-88896234D01*
X115280324Y-88896234D01*
X115324244Y-88904137D01*
X115379600Y-88924724D01*
X115379602Y-88924725D01*
X115386210Y-88927182D01*
X115470037Y-88938367D01*
X115559022Y-88950241D01*
X115559026Y-88950241D01*
X115566003Y-88951172D01*
X115573014Y-88950534D01*
X115573018Y-88950534D01*
X115715501Y-88937566D01*
X115746642Y-88934732D01*
X115753344Y-88932554D01*
X115753346Y-88932554D01*
X115912451Y-88880858D01*
X115912454Y-88880857D01*
X115919150Y-88878681D01*
X116074954Y-88785803D01*
X116206308Y-88660716D01*
X116306685Y-88509636D01*
X116359973Y-88369356D01*
X116368597Y-88346654D01*
X116368598Y-88346652D01*
X116371097Y-88340072D01*
X116375767Y-88306841D01*
X116395790Y-88164373D01*
X116395790Y-88164370D01*
X116396341Y-88160451D01*
X116396658Y-88137734D01*
X116376439Y-87957479D01*
X116368344Y-87934234D01*
X116319106Y-87792840D01*
X116319104Y-87792837D01*
X116316787Y-87786182D01*
X116252059Y-87682595D01*
X116224401Y-87638332D01*
X116220668Y-87632358D01*
X116166821Y-87578134D01*
X116149180Y-87560369D01*
X116115373Y-87497938D01*
X116120685Y-87427141D01*
X116151694Y-87380340D01*
X116251201Y-87285580D01*
X116251204Y-87285577D01*
X116256308Y-87280716D01*
X116356685Y-87129636D01*
X116421097Y-86960072D01*
X116446341Y-86780451D01*
X116446658Y-86757734D01*
X116426439Y-86577479D01*
X116407748Y-86523804D01*
X116378708Y-86440414D01*
X116375194Y-86369505D01*
X116410576Y-86307952D01*
X116444449Y-86284782D01*
X116604367Y-86210211D01*
X116605539Y-86209535D01*
X116606121Y-86209394D01*
X116609348Y-86207889D01*
X116609650Y-86208537D01*
X116674534Y-86192795D01*
X116741626Y-86216013D01*
X116785515Y-86271819D01*
X116794542Y-86318652D01*
X116794542Y-99793234D01*
X116774540Y-99861355D01*
X116720884Y-99907848D01*
X116668542Y-99919234D01*
X116570743Y-99919234D01*
X116502622Y-99899232D01*
X116490852Y-99890668D01*
X116478258Y-99880341D01*
X116469407Y-99873084D01*
X116389415Y-99807494D01*
X116389409Y-99807490D01*
X116385287Y-99804110D01*
X116380651Y-99801471D01*
X116380648Y-99801469D01*
X116189571Y-99692702D01*
X116184928Y-99690059D01*
X115968217Y-99611397D01*
X115960915Y-99610077D01*
X115958613Y-99609274D01*
X115957817Y-99609059D01*
X115957832Y-99609002D01*
X115923801Y-99597133D01*
X115823392Y-99543294D01*
X115823393Y-99543294D01*
X115818933Y-99540903D01*
X115814152Y-99539257D01*
X115814148Y-99539255D01*
X115594200Y-99463521D01*
X115589411Y-99461872D01*
X115472226Y-99441631D01*
X115354116Y-99421230D01*
X115354110Y-99421229D01*
X115350206Y-99420555D01*
X115346245Y-99420375D01*
X115346244Y-99420375D01*
X115322536Y-99419298D01*
X115322517Y-99419298D01*
X115321117Y-99419234D01*
X112077058Y-99419234D01*
X112073540Y-99419185D01*
X111978892Y-99416541D01*
X111978889Y-99416541D01*
X111973837Y-99416400D01*
X111895944Y-99426793D01*
X111889403Y-99427492D01*
X111860710Y-99429801D01*
X111816119Y-99433388D01*
X111816115Y-99433389D01*
X111811077Y-99433794D01*
X111779164Y-99441633D01*
X111765784Y-99444160D01*
X111733222Y-99448505D01*
X111728381Y-99449966D01*
X111728379Y-99449967D01*
X111658013Y-99471212D01*
X111651652Y-99472953D01*
X111575336Y-99491697D01*
X111570676Y-99493675D01*
X111545091Y-99504535D01*
X111532281Y-99509172D01*
X111500834Y-99518667D01*
X111496286Y-99520885D01*
X111496279Y-99520888D01*
X111430224Y-99553105D01*
X111424222Y-99555841D01*
X111379538Y-99574809D01*
X111351886Y-99586546D01*
X111335075Y-99597133D01*
X111324086Y-99604053D01*
X111312182Y-99610679D01*
X111282654Y-99625080D01*
X111278517Y-99627999D01*
X111278516Y-99627999D01*
X111218445Y-99670375D01*
X111212956Y-99674035D01*
X111190404Y-99688237D01*
X111146475Y-99715901D01*
X111142686Y-99719242D01*
X111142680Y-99719246D01*
X111121825Y-99737632D01*
X111111130Y-99746078D01*
X111084295Y-99765008D01*
X111062792Y-99784643D01*
X111023076Y-99824359D01*
X111017306Y-99829778D01*
X110968184Y-99873084D01*
X110968181Y-99873087D01*
X110964387Y-99876432D01*
X110961177Y-99880340D01*
X110961176Y-99880341D01*
X110937863Y-99908723D01*
X110929593Y-99917842D01*
X109743376Y-101104059D01*
X109740854Y-101106513D01*
X109668361Y-101175066D01*
X109656996Y-101189931D01*
X109620634Y-101237491D01*
X109616490Y-101242626D01*
X109565572Y-101302454D01*
X109562953Y-101306779D01*
X109562949Y-101306784D01*
X109548551Y-101330558D01*
X109540879Y-101341805D01*
X109520922Y-101367908D01*
X109484575Y-101435696D01*
X109483803Y-101437135D01*
X109480538Y-101442860D01*
X109439821Y-101510092D01*
X109437926Y-101514783D01*
X109427515Y-101540551D01*
X109421735Y-101552892D01*
X109406211Y-101581843D01*
X109404565Y-101586624D01*
X109404563Y-101586628D01*
X109380630Y-101656135D01*
X109378320Y-101662313D01*
X109348887Y-101735163D01*
X109347765Y-101740102D01*
X109341610Y-101767194D01*
X109337879Y-101780293D01*
X109327180Y-101811365D01*
X109313799Y-101888834D01*
X109312519Y-101895238D01*
X109295107Y-101971878D01*
X109293043Y-102004687D01*
X109291457Y-102018187D01*
X109285863Y-102050570D01*
X109285683Y-102054527D01*
X109285683Y-102054530D01*
X109284883Y-102072161D01*
X109284542Y-102079659D01*
X109284542Y-102135842D01*
X109284293Y-102143753D01*
X109279864Y-102214147D01*
X109280358Y-102219182D01*
X109283941Y-102255726D01*
X109284542Y-102268022D01*
X109284542Y-107500703D01*
X109264540Y-107568824D01*
X109247637Y-107589798D01*
X109009363Y-107828072D01*
X108947051Y-107862098D01*
X108876236Y-107857033D01*
X108819400Y-107814486D01*
X108794589Y-107747966D01*
X108795005Y-107725369D01*
X108795673Y-107719220D01*
X108796042Y-107712406D01*
X108796042Y-106689849D01*
X108791567Y-106674610D01*
X108790177Y-106673405D01*
X108782494Y-106671734D01*
X107660042Y-106671734D01*
X107591921Y-106651732D01*
X107545428Y-106598076D01*
X107534042Y-106545734D01*
X107534042Y-106145619D01*
X108042042Y-106145619D01*
X108046517Y-106160858D01*
X108047907Y-106162063D01*
X108055590Y-106163734D01*
X108777926Y-106163734D01*
X108793165Y-106159259D01*
X108794370Y-106157869D01*
X108796041Y-106150186D01*
X108796041Y-105123065D01*
X108795671Y-105116244D01*
X108790147Y-105065382D01*
X108786521Y-105050130D01*
X108741366Y-104929680D01*
X108732828Y-104914085D01*
X108656327Y-104812010D01*
X108643766Y-104799449D01*
X108541691Y-104722948D01*
X108526096Y-104714410D01*
X108405648Y-104669256D01*
X108390393Y-104665629D01*
X108339528Y-104660103D01*
X108332714Y-104659734D01*
X108060157Y-104659734D01*
X108044918Y-104664209D01*
X108043713Y-104665599D01*
X108042042Y-104673282D01*
X108042042Y-106145619D01*
X107534042Y-106145619D01*
X107534042Y-104677850D01*
X107529567Y-104662611D01*
X107528177Y-104661406D01*
X107520494Y-104659735D01*
X107243373Y-104659735D01*
X107236552Y-104660105D01*
X107185692Y-104665629D01*
X107170435Y-104669256D01*
X107105905Y-104693447D01*
X107035098Y-104698630D01*
X107017447Y-104693447D01*
X106918260Y-104656263D01*
X106918254Y-104656261D01*
X106910858Y-104653489D01*
X106848676Y-104646734D01*
X105752408Y-104646734D01*
X105690226Y-104653489D01*
X105682830Y-104656261D01*
X105682824Y-104656263D01*
X105571849Y-104697866D01*
X105501042Y-104703049D01*
X105483391Y-104697866D01*
X105405760Y-104668763D01*
X105405754Y-104668761D01*
X105398358Y-104665989D01*
X105336176Y-104659234D01*
X104239908Y-104659234D01*
X104177726Y-104665989D01*
X104158272Y-104673282D01*
X104049741Y-104713968D01*
X104049738Y-104713970D01*
X104041337Y-104717119D01*
X104041078Y-104716427D01*
X103978668Y-104730077D01*
X103934657Y-104717154D01*
X103934504Y-104717562D01*
X103928930Y-104715472D01*
X103927008Y-104714908D01*
X103926103Y-104714413D01*
X103805648Y-104669256D01*
X103790393Y-104665629D01*
X103739528Y-104660103D01*
X103732714Y-104659734D01*
X103560157Y-104659734D01*
X103544918Y-104664209D01*
X103543713Y-104665599D01*
X103542042Y-104673282D01*
X103542042Y-106545734D01*
X103522040Y-106613855D01*
X103468384Y-106660348D01*
X103416042Y-106671734D01*
X103257542Y-106671734D01*
X103189421Y-106651732D01*
X103142928Y-106598076D01*
X103131542Y-106545734D01*
X103131542Y-101085224D01*
X103141905Y-101035183D01*
X103148594Y-101019727D01*
X103176223Y-100955879D01*
X103201262Y-100797791D01*
X103197361Y-100756523D01*
X103186945Y-100646329D01*
X103186944Y-100646326D01*
X103186199Y-100638441D01*
X103178991Y-100618420D01*
X103171542Y-100575739D01*
X103171542Y-96015870D01*
X103172620Y-95999424D01*
X103174151Y-95987799D01*
X103176792Y-95967734D01*
X103171542Y-95927854D01*
X103171542Y-95927849D01*
X103155880Y-95808884D01*
X103155697Y-95808441D01*
X103121132Y-95724995D01*
X103111542Y-95676779D01*
X103111542Y-94989734D01*
X103131544Y-94921613D01*
X103185200Y-94875120D01*
X103237542Y-94863734D01*
X103698676Y-94863734D01*
X103760858Y-94856979D01*
X103808128Y-94839258D01*
X103888843Y-94809000D01*
X103888846Y-94808998D01*
X103897247Y-94805849D01*
X103897566Y-94806700D01*
X103959391Y-94793179D01*
X104003708Y-94806192D01*
X104003837Y-94805849D01*
X104008523Y-94807606D01*
X104008527Y-94807607D01*
X104012238Y-94808998D01*
X104012241Y-94809000D01*
X104092956Y-94839258D01*
X104140226Y-94856979D01*
X104202408Y-94863734D01*
X105298676Y-94863734D01*
X105360858Y-94856979D01*
X105497247Y-94805849D01*
X105504426Y-94800469D01*
X105504429Y-94800467D01*
X105526709Y-94783769D01*
X105593215Y-94758921D01*
X105637529Y-94765317D01*
X105637751Y-94764385D01*
X105660691Y-94769839D01*
X105711556Y-94775365D01*
X105718370Y-94775734D01*
X105990927Y-94775734D01*
X106006166Y-94771259D01*
X106007371Y-94769869D01*
X106009042Y-94762186D01*
X106009042Y-94757618D01*
X106517042Y-94757618D01*
X106521517Y-94772857D01*
X106522907Y-94774062D01*
X106530590Y-94775733D01*
X106807711Y-94775733D01*
X106814532Y-94775363D01*
X106865394Y-94769839D01*
X106880646Y-94766213D01*
X107001101Y-94721056D01*
X107016689Y-94712522D01*
X107027944Y-94704087D01*
X107094450Y-94679239D01*
X107163833Y-94694292D01*
X107173671Y-94700996D01*
X107174012Y-94700491D01*
X107179117Y-94703934D01*
X107183867Y-94707864D01*
X107357841Y-94801932D01*
X107546774Y-94860416D01*
X107552899Y-94861060D01*
X107552900Y-94861060D01*
X107737338Y-94880445D01*
X107737340Y-94880445D01*
X107743467Y-94881089D01*
X107825966Y-94873581D01*
X107934291Y-94863723D01*
X107934294Y-94863722D01*
X107940430Y-94863164D01*
X107946336Y-94861426D01*
X107946340Y-94861425D01*
X108051466Y-94830485D01*
X108130161Y-94807324D01*
X108135619Y-94804471D01*
X108135623Y-94804469D01*
X108295175Y-94721056D01*
X108305432Y-94715694D01*
X108459567Y-94591766D01*
X108586696Y-94440260D01*
X108589663Y-94434862D01*
X108589667Y-94434857D01*
X108679009Y-94272342D01*
X108681975Y-94266947D01*
X108692384Y-94234134D01*
X108732049Y-94175250D01*
X108797251Y-94147158D01*
X108812486Y-94146234D01*
X113168854Y-94146234D01*
X113236975Y-94166236D01*
X113257949Y-94183139D01*
X113318742Y-94243932D01*
X113323250Y-94247089D01*
X113323253Y-94247091D01*
X113401431Y-94301832D01*
X113506293Y-94375257D01*
X113511275Y-94377580D01*
X113511280Y-94377583D01*
X113699928Y-94465550D01*
X113713799Y-94472018D01*
X113719107Y-94473440D01*
X113719109Y-94473441D01*
X113929640Y-94529853D01*
X113929642Y-94529853D01*
X113934955Y-94531277D01*
X114163042Y-94551232D01*
X114391129Y-94531277D01*
X114396442Y-94529853D01*
X114396444Y-94529853D01*
X114606975Y-94473441D01*
X114606977Y-94473440D01*
X114612285Y-94472018D01*
X114626156Y-94465550D01*
X114814804Y-94377583D01*
X114814809Y-94377580D01*
X114819791Y-94375257D01*
X114924653Y-94301832D01*
X115002831Y-94247091D01*
X115002834Y-94247089D01*
X115007342Y-94243932D01*
X115169240Y-94082034D01*
X115300565Y-93894483D01*
X115302888Y-93889501D01*
X115302891Y-93889496D01*
X115395003Y-93691959D01*
X115395003Y-93691958D01*
X115397326Y-93686977D01*
X115456585Y-93465821D01*
X115476540Y-93237734D01*
X115456585Y-93009647D01*
X115397326Y-92788491D01*
X115395003Y-92783509D01*
X115302891Y-92585972D01*
X115302888Y-92585967D01*
X115300565Y-92580985D01*
X115169240Y-92393434D01*
X115007342Y-92231536D01*
X115002834Y-92228379D01*
X115002831Y-92228377D01*
X114900951Y-92157040D01*
X114819791Y-92100211D01*
X114814809Y-92097888D01*
X114814804Y-92097885D01*
X114617267Y-92005773D01*
X114617266Y-92005773D01*
X114612285Y-92003450D01*
X114606977Y-92002028D01*
X114606975Y-92002027D01*
X114396444Y-91945615D01*
X114396442Y-91945615D01*
X114391129Y-91944191D01*
X114163042Y-91924236D01*
X113934955Y-91944191D01*
X113929642Y-91945615D01*
X113929640Y-91945615D01*
X113719109Y-92002027D01*
X113719107Y-92002028D01*
X113713799Y-92003450D01*
X113708818Y-92005773D01*
X113708817Y-92005773D01*
X113511280Y-92097885D01*
X113511275Y-92097888D01*
X113506293Y-92100211D01*
X113425133Y-92157040D01*
X113323253Y-92228377D01*
X113323250Y-92228379D01*
X113318742Y-92231536D01*
X113257949Y-92292329D01*
X113195637Y-92326355D01*
X113168854Y-92329234D01*
X108874397Y-92329234D01*
X108806276Y-92309232D01*
X108759783Y-92255576D01*
X108748998Y-92215530D01*
X108745223Y-92177035D01*
X108744622Y-92170901D01*
X108687458Y-91981565D01*
X108594608Y-91806938D01*
X108486070Y-91673857D01*
X108473502Y-91658447D01*
X108473499Y-91658444D01*
X108469607Y-91653672D01*
X108464858Y-91649743D01*
X108321967Y-91531533D01*
X108321963Y-91531531D01*
X108317217Y-91527604D01*
X108143243Y-91433536D01*
X107954310Y-91375052D01*
X107948185Y-91374408D01*
X107948184Y-91374408D01*
X107763746Y-91355023D01*
X107763744Y-91355023D01*
X107757617Y-91354379D01*
X107675118Y-91361887D01*
X107566793Y-91371745D01*
X107566790Y-91371746D01*
X107560654Y-91372304D01*
X107554748Y-91374042D01*
X107554744Y-91374043D01*
X107450855Y-91404619D01*
X107370923Y-91428144D01*
X107365467Y-91430997D01*
X107365463Y-91430998D01*
X107302411Y-91463961D01*
X107232775Y-91477795D01*
X107166715Y-91451785D01*
X107143210Y-91427864D01*
X107131332Y-91412015D01*
X107118763Y-91399446D01*
X107016691Y-91322948D01*
X107001096Y-91314410D01*
X106880648Y-91269256D01*
X106865393Y-91265629D01*
X106814528Y-91260103D01*
X106807714Y-91259734D01*
X106535157Y-91259734D01*
X106519918Y-91264209D01*
X106518713Y-91265599D01*
X106517042Y-91273282D01*
X106517042Y-94757618D01*
X106009042Y-94757618D01*
X106009042Y-91277850D01*
X106004567Y-91262611D01*
X106003177Y-91261406D01*
X105995494Y-91259735D01*
X105718373Y-91259735D01*
X105711552Y-91260105D01*
X105660690Y-91265629D01*
X105645438Y-91269255D01*
X105524983Y-91314412D01*
X105509400Y-91322943D01*
X105487906Y-91339052D01*
X105421399Y-91363900D01*
X105376115Y-91357362D01*
X105375942Y-91358090D01*
X105368258Y-91356263D01*
X105360858Y-91353489D01*
X105298676Y-91346734D01*
X104202408Y-91346734D01*
X104140226Y-91353489D01*
X104129895Y-91357362D01*
X104012241Y-91401468D01*
X104012238Y-91401470D01*
X104003837Y-91404619D01*
X104003518Y-91403768D01*
X103941693Y-91417289D01*
X103897376Y-91404276D01*
X103897247Y-91404619D01*
X103892561Y-91402862D01*
X103892557Y-91402861D01*
X103888846Y-91401470D01*
X103888843Y-91401468D01*
X103771189Y-91357362D01*
X103760858Y-91353489D01*
X103698676Y-91346734D01*
X103225091Y-91346734D01*
X103156970Y-91326732D01*
X103110477Y-91273076D01*
X103104094Y-91255888D01*
X103092679Y-91216599D01*
X103089060Y-91204141D01*
X103007584Y-91066372D01*
X102786695Y-90845483D01*
X102779155Y-90837197D01*
X102775042Y-90830716D01*
X102725389Y-90784089D01*
X102722548Y-90781335D01*
X102702812Y-90761599D01*
X102699615Y-90759119D01*
X102690593Y-90751414D01*
X102664142Y-90726575D01*
X102658363Y-90721148D01*
X102651417Y-90717329D01*
X102651414Y-90717327D01*
X102640608Y-90711386D01*
X102624089Y-90700535D01*
X102623625Y-90700175D01*
X102608083Y-90688120D01*
X102600814Y-90684975D01*
X102600810Y-90684972D01*
X102567505Y-90670560D01*
X102556855Y-90665343D01*
X102518102Y-90644039D01*
X102498479Y-90639001D01*
X102479776Y-90632597D01*
X102468462Y-90627701D01*
X102468461Y-90627701D01*
X102461187Y-90624553D01*
X102453362Y-90623313D01*
X102453353Y-90623311D01*
X102422829Y-90618476D01*
X102358676Y-90588063D01*
X102321151Y-90527794D01*
X102316542Y-90494028D01*
X102316542Y-89352328D01*
X102336544Y-89284207D01*
X102353447Y-89263233D01*
X102378541Y-89238139D01*
X102440853Y-89204113D01*
X102467636Y-89201234D01*
X104854275Y-89201234D01*
X104865458Y-89201761D01*
X104872951Y-89203436D01*
X104880877Y-89203187D01*
X104880878Y-89203187D01*
X104941028Y-89201296D01*
X104944987Y-89201234D01*
X104972898Y-89201234D01*
X104976833Y-89200737D01*
X104976898Y-89200729D01*
X104988735Y-89199796D01*
X105020993Y-89198782D01*
X105025012Y-89198656D01*
X105032931Y-89198407D01*
X105052385Y-89192755D01*
X105071742Y-89188747D01*
X105083972Y-89187202D01*
X105083973Y-89187202D01*
X105091839Y-89186208D01*
X105099210Y-89183289D01*
X105099212Y-89183289D01*
X105132954Y-89169930D01*
X105144184Y-89166085D01*
X105179025Y-89155963D01*
X105179026Y-89155963D01*
X105186635Y-89153752D01*
X105193454Y-89149719D01*
X105193459Y-89149717D01*
X105204070Y-89143441D01*
X105221818Y-89134746D01*
X105240659Y-89127286D01*
X105248490Y-89121597D01*
X105276429Y-89101298D01*
X105286349Y-89094782D01*
X105317577Y-89076314D01*
X105317580Y-89076312D01*
X105324404Y-89072276D01*
X105338725Y-89057955D01*
X105353759Y-89045114D01*
X105363736Y-89037865D01*
X105370149Y-89033206D01*
X105398340Y-88999129D01*
X105406330Y-88990350D01*
X105684433Y-88712247D01*
X105746745Y-88678221D01*
X105790193Y-88676449D01*
X105948511Y-88697574D01*
X105948515Y-88697574D01*
X105955492Y-88698505D01*
X105962503Y-88697867D01*
X105962507Y-88697867D01*
X106104990Y-88684899D01*
X106136131Y-88682065D01*
X106142833Y-88679887D01*
X106142835Y-88679887D01*
X106301940Y-88628191D01*
X106301943Y-88628190D01*
X106308639Y-88626014D01*
X106464443Y-88533136D01*
X106595797Y-88408049D01*
X106696174Y-88256969D01*
X106729825Y-88168383D01*
X106772714Y-88111805D01*
X106839383Y-88087396D01*
X106908664Y-88102906D01*
X106936630Y-88123953D01*
X106940088Y-88127405D01*
X106949739Y-88137039D01*
X107100304Y-88229849D01*
X107107254Y-88232154D01*
X107108298Y-88232641D01*
X107161584Y-88279557D01*
X107181047Y-88347834D01*
X107180057Y-88362625D01*
X107165005Y-88481774D01*
X107182705Y-88662294D01*
X107239960Y-88834407D01*
X107243607Y-88840429D01*
X107243608Y-88840431D01*
X107325918Y-88976341D01*
X107333922Y-88989558D01*
X107338811Y-88994621D01*
X107338812Y-88994622D01*
X107390007Y-89047635D01*
X107459924Y-89120036D01*
X107530294Y-89166085D01*
X107587373Y-89203436D01*
X107611701Y-89219356D01*
X107618305Y-89221812D01*
X107618307Y-89221813D01*
X107775100Y-89280124D01*
X107775102Y-89280124D01*
X107781710Y-89282582D01*
X107865537Y-89293767D01*
X107954522Y-89305641D01*
X107954526Y-89305641D01*
X107961503Y-89306572D01*
X107968514Y-89305934D01*
X107968518Y-89305934D01*
X108111001Y-89292966D01*
X108142142Y-89290132D01*
X108148844Y-89287954D01*
X108148846Y-89287954D01*
X108307951Y-89236258D01*
X108307954Y-89236257D01*
X108314650Y-89234081D01*
X108470454Y-89141203D01*
X108471784Y-89143434D01*
X108515481Y-89124815D01*
X108520274Y-89124056D01*
X108528191Y-89123807D01*
X108547645Y-89118155D01*
X108567002Y-89114147D01*
X108579232Y-89112602D01*
X108579233Y-89112602D01*
X108587099Y-89111608D01*
X108594470Y-89108689D01*
X108594472Y-89108689D01*
X108628214Y-89095330D01*
X108639444Y-89091485D01*
X108674285Y-89081363D01*
X108674286Y-89081363D01*
X108681895Y-89079152D01*
X108688714Y-89075119D01*
X108688719Y-89075117D01*
X108699330Y-89068841D01*
X108717078Y-89060146D01*
X108735919Y-89052686D01*
X108771689Y-89026698D01*
X108781609Y-89020182D01*
X108812837Y-89001714D01*
X108812840Y-89001712D01*
X108819664Y-88997676D01*
X108833985Y-88983355D01*
X108849019Y-88970514D01*
X108858995Y-88963266D01*
X108865409Y-88958606D01*
X108893590Y-88924541D01*
X108901580Y-88915760D01*
X109465300Y-88352041D01*
X109473579Y-88344507D01*
X109480060Y-88340394D01*
X109526686Y-88290742D01*
X109529440Y-88287901D01*
X109549177Y-88268164D01*
X109551657Y-88264967D01*
X109559362Y-88255945D01*
X109570176Y-88244429D01*
X109589628Y-88223715D01*
X109593447Y-88216769D01*
X109593449Y-88216766D01*
X109599390Y-88205960D01*
X109610241Y-88189441D01*
X109617800Y-88179695D01*
X109622656Y-88173435D01*
X109625801Y-88166166D01*
X109625804Y-88166162D01*
X109640216Y-88132857D01*
X109645433Y-88122207D01*
X109666737Y-88083454D01*
X109668708Y-88075777D01*
X109668710Y-88075772D01*
X109671774Y-88063836D01*
X109678180Y-88045124D01*
X109683075Y-88033813D01*
X109686223Y-88026539D01*
X109687463Y-88018711D01*
X109687465Y-88018704D01*
X109693141Y-87982870D01*
X109695547Y-87971250D01*
X109704570Y-87936105D01*
X109704570Y-87936104D01*
X109706542Y-87928424D01*
X109706542Y-87908170D01*
X109708093Y-87888459D01*
X109710022Y-87876280D01*
X109711262Y-87868451D01*
X109707101Y-87824432D01*
X109706542Y-87812575D01*
X109706542Y-86466501D01*
X109707069Y-86455318D01*
X109708744Y-86447825D01*
X109708128Y-86428213D01*
X109706604Y-86379748D01*
X109706542Y-86375789D01*
X109706542Y-86347878D01*
X109706037Y-86343878D01*
X109705104Y-86332035D01*
X109704684Y-86318652D01*
X109703715Y-86287844D01*
X109698064Y-86268392D01*
X109694056Y-86249040D01*
X109692509Y-86236797D01*
X109691516Y-86228937D01*
X109686467Y-86216184D01*
X109675242Y-86187831D01*
X109671397Y-86176604D01*
X109666633Y-86160208D01*
X109659060Y-86134141D01*
X109655026Y-86127319D01*
X109655023Y-86127313D01*
X109648748Y-86116702D01*
X109640052Y-86098952D01*
X109635514Y-86087490D01*
X109635511Y-86087485D01*
X109632594Y-86080117D01*
X109619943Y-86062704D01*
X109606615Y-86044359D01*
X109600099Y-86034441D01*
X109581617Y-86003191D01*
X109577584Y-85996371D01*
X109563260Y-85982047D01*
X109550418Y-85967012D01*
X109548543Y-85964431D01*
X109538514Y-85950627D01*
X109504448Y-85922445D01*
X109495669Y-85914456D01*
X109118447Y-85537234D01*
X109084421Y-85474922D01*
X109081542Y-85448139D01*
X109081542Y-85323336D01*
X109101544Y-85255215D01*
X109155200Y-85208722D01*
X109225474Y-85198618D01*
X109240153Y-85201629D01*
X109387072Y-85240996D01*
X109387074Y-85240996D01*
X109392387Y-85242420D01*
X109603042Y-85260850D01*
X109813697Y-85242420D01*
X109819010Y-85240996D01*
X109819012Y-85240996D01*
X110012642Y-85189113D01*
X110012644Y-85189112D01*
X110017952Y-85187690D01*
X110022934Y-85185367D01*
X110028107Y-85183484D01*
X110028796Y-85185376D01*
X110090257Y-85176029D01*
X110155075Y-85204996D01*
G37*
G04 #@! TD.AperFunction*
G04 #@! TA.AperFunction,Conductor*
G36*
X101836663Y-94883736D02*
G01*
X101883156Y-94937392D01*
X101894542Y-94989734D01*
X101894542Y-95859598D01*
X101893464Y-95876041D01*
X101889292Y-95907734D01*
X101894542Y-95947614D01*
X101894542Y-95947619D01*
X101905093Y-96027764D01*
X101910204Y-96066585D01*
X101934765Y-96125879D01*
X101944951Y-96150471D01*
X101954542Y-96198689D01*
X101954542Y-100510244D01*
X101944179Y-100560284D01*
X101909861Y-100639589D01*
X101884822Y-100797677D01*
X101885568Y-100805569D01*
X101894154Y-100896394D01*
X101899885Y-100957026D01*
X101907093Y-100977046D01*
X101914542Y-101019727D01*
X101914542Y-104533234D01*
X101894540Y-104601355D01*
X101840884Y-104647848D01*
X101788542Y-104659234D01*
X101339908Y-104659234D01*
X101277726Y-104665989D01*
X101258272Y-104673282D01*
X101149741Y-104713968D01*
X101149738Y-104713970D01*
X101141337Y-104717119D01*
X101141018Y-104716268D01*
X101079193Y-104729789D01*
X101034874Y-104716776D01*
X101034746Y-104717118D01*
X101030070Y-104715365D01*
X101030062Y-104715363D01*
X101026345Y-104713969D01*
X101026339Y-104713966D01*
X101003311Y-104705333D01*
X100946547Y-104662691D01*
X100921848Y-104596129D01*
X100921542Y-104587352D01*
X100921542Y-96967328D01*
X100941544Y-96899207D01*
X100958447Y-96878233D01*
X101385289Y-96451391D01*
X101393579Y-96443847D01*
X101400060Y-96439734D01*
X101446701Y-96390066D01*
X101449455Y-96387225D01*
X101469177Y-96367503D01*
X101471654Y-96364310D01*
X101479359Y-96355289D01*
X101504201Y-96328834D01*
X101509628Y-96323055D01*
X101513864Y-96315350D01*
X101519388Y-96305302D01*
X101530244Y-96288775D01*
X101537799Y-96279036D01*
X101537800Y-96279034D01*
X101542656Y-96272774D01*
X101560216Y-96232194D01*
X101565433Y-96221546D01*
X101582917Y-96189743D01*
X101582918Y-96189741D01*
X101586737Y-96182794D01*
X101591775Y-96163171D01*
X101598179Y-96144468D01*
X101603075Y-96133154D01*
X101603075Y-96133153D01*
X101606223Y-96125879D01*
X101607462Y-96118056D01*
X101607465Y-96118046D01*
X101613141Y-96082210D01*
X101615547Y-96070590D01*
X101624570Y-96035445D01*
X101624570Y-96035444D01*
X101626542Y-96027764D01*
X101626542Y-96007510D01*
X101628093Y-95987799D01*
X101630022Y-95975620D01*
X101631262Y-95967791D01*
X101627101Y-95923772D01*
X101626542Y-95911915D01*
X101626542Y-94989734D01*
X101646544Y-94921613D01*
X101700200Y-94875120D01*
X101752542Y-94863734D01*
X101768542Y-94863734D01*
X101836663Y-94883736D01*
G37*
G04 #@! TD.AperFunction*
G04 #@! TA.AperFunction,Conductor*
G36*
X107181663Y-83151236D02*
G01*
X107228156Y-83204892D01*
X107239542Y-83257234D01*
X107239542Y-84008537D01*
X107219540Y-84076658D01*
X107165884Y-84123151D01*
X107153419Y-84128060D01*
X107106040Y-84143867D01*
X107106038Y-84143868D01*
X107099096Y-84146184D01*
X107092872Y-84150035D01*
X107092871Y-84150036D01*
X106997173Y-84209256D01*
X106948694Y-84239256D01*
X106823737Y-84364431D01*
X106819897Y-84370661D01*
X106819896Y-84370662D01*
X106749969Y-84484105D01*
X106730927Y-84514996D01*
X106715669Y-84560998D01*
X106675238Y-84619357D01*
X106609674Y-84646594D01*
X106539792Y-84634060D01*
X106487780Y-84585736D01*
X106476552Y-84561205D01*
X106461455Y-84515952D01*
X106455281Y-84502772D01*
X106369979Y-84364927D01*
X106360943Y-84353526D01*
X106246213Y-84238995D01*
X106234802Y-84229983D01*
X106096799Y-84144918D01*
X106083618Y-84138771D01*
X105929332Y-84087596D01*
X105915956Y-84084729D01*
X105821604Y-84075062D01*
X105815187Y-84074734D01*
X105565157Y-84074734D01*
X105549918Y-84079209D01*
X105548713Y-84080599D01*
X105547042Y-84088282D01*
X105547042Y-85298234D01*
X105527040Y-85366355D01*
X105473384Y-85412848D01*
X105421042Y-85424234D01*
X105165042Y-85424234D01*
X105096921Y-85404232D01*
X105050428Y-85350576D01*
X105039042Y-85298234D01*
X105039042Y-84092850D01*
X105034567Y-84077611D01*
X105033177Y-84076406D01*
X105025494Y-84074735D01*
X104770947Y-84074735D01*
X104764428Y-84075072D01*
X104668836Y-84084991D01*
X104655442Y-84087883D01*
X104501258Y-84139322D01*
X104488079Y-84145496D01*
X104478845Y-84151210D01*
X104410393Y-84170048D01*
X104342623Y-84148887D01*
X104297052Y-84094446D01*
X104286542Y-84044066D01*
X104286542Y-83402555D01*
X104306544Y-83334434D01*
X104360200Y-83287941D01*
X104373606Y-83282722D01*
X104502451Y-83240858D01*
X104502454Y-83240857D01*
X104509150Y-83238681D01*
X104659582Y-83149005D01*
X104724100Y-83131234D01*
X107113542Y-83131234D01*
X107181663Y-83151236D01*
G37*
G04 #@! TD.AperFunction*
G04 #@! TA.AperFunction,Conductor*
G36*
X100022729Y-79955017D02*
G01*
X100150334Y-80020176D01*
X100150336Y-80020177D01*
X100156850Y-80023503D01*
X100163955Y-80025242D01*
X100163959Y-80025243D01*
X100246280Y-80045386D01*
X100328652Y-80065542D01*
X100334254Y-80065890D01*
X100334257Y-80065890D01*
X100337867Y-80066114D01*
X100337877Y-80066114D01*
X100339806Y-80066234D01*
X101478378Y-80066234D01*
X101546499Y-80086236D01*
X101592992Y-80139892D01*
X101603776Y-80179936D01*
X101617205Y-80316894D01*
X101674460Y-80489007D01*
X101678107Y-80495029D01*
X101678108Y-80495031D01*
X101768422Y-80644158D01*
X101766802Y-80645139D01*
X101789087Y-80702495D01*
X101789542Y-80713190D01*
X101789542Y-81972742D01*
X101769540Y-82040863D01*
X101715884Y-82087356D01*
X101704150Y-82092019D01*
X101695134Y-82095088D01*
X101651969Y-82109782D01*
X101651964Y-82109785D01*
X101645303Y-82112052D01*
X101566285Y-82160665D01*
X101497786Y-82179322D01*
X101430072Y-82157983D01*
X101410859Y-82142130D01*
X101347820Y-82078649D01*
X101347816Y-82078646D01*
X101342857Y-82073652D01*
X101331739Y-82066596D01*
X101260834Y-82021599D01*
X101189708Y-81976461D01*
X101160505Y-81966062D01*
X101025467Y-81917977D01*
X101025462Y-81917976D01*
X101018832Y-81915615D01*
X101011844Y-81914782D01*
X101011841Y-81914781D01*
X100879504Y-81899001D01*
X100838722Y-81894138D01*
X100831719Y-81894874D01*
X100831718Y-81894874D01*
X100665330Y-81912362D01*
X100665328Y-81912363D01*
X100658330Y-81913098D01*
X100486621Y-81971552D01*
X100480617Y-81975246D01*
X100338137Y-82062900D01*
X100338134Y-82062902D01*
X100332130Y-82066596D01*
X100327095Y-82071527D01*
X100327092Y-82071529D01*
X100207567Y-82188577D01*
X100202535Y-82193505D01*
X100104277Y-82345972D01*
X100101868Y-82352592D01*
X100101866Y-82352595D01*
X100044648Y-82509800D01*
X100042239Y-82516419D01*
X100019505Y-82696374D01*
X100037205Y-82876894D01*
X100094460Y-83049007D01*
X100098107Y-83055029D01*
X100098108Y-83055031D01*
X100181318Y-83192428D01*
X100199542Y-83257699D01*
X100199542Y-83934008D01*
X100179540Y-84002129D01*
X100125884Y-84048622D01*
X100073542Y-84060008D01*
X99868724Y-84060008D01*
X99800603Y-84040006D01*
X99779629Y-84023103D01*
X99448026Y-83691500D01*
X99437159Y-83679109D01*
X99422724Y-83660297D01*
X99417698Y-83653747D01*
X99385786Y-83629260D01*
X99385783Y-83629257D01*
X99326243Y-83583570D01*
X99297140Y-83561238D01*
X99297138Y-83561237D01*
X99290587Y-83556210D01*
X99142562Y-83494896D01*
X99134375Y-83493818D01*
X99134374Y-83493818D01*
X99123169Y-83492343D01*
X99091973Y-83488236D01*
X99023596Y-83479234D01*
X99023593Y-83479234D01*
X99023585Y-83479233D01*
X98991900Y-83475062D01*
X98983711Y-83473984D01*
X98952018Y-83478156D01*
X98935575Y-83479234D01*
X95214419Y-83479234D01*
X95146298Y-83459232D01*
X95099805Y-83405576D01*
X95088978Y-83365094D01*
X95086602Y-83339964D01*
X95086043Y-83328104D01*
X95086043Y-83052669D01*
X95106045Y-82984548D01*
X95159701Y-82938055D01*
X95229975Y-82927951D01*
X95284313Y-82949455D01*
X95305548Y-82964324D01*
X95310530Y-82966647D01*
X95310535Y-82966650D01*
X95508072Y-83058762D01*
X95513054Y-83061085D01*
X95518362Y-83062507D01*
X95518364Y-83062508D01*
X95728895Y-83118920D01*
X95728897Y-83118920D01*
X95734210Y-83120344D01*
X95962297Y-83140299D01*
X96190384Y-83120344D01*
X96195697Y-83118920D01*
X96195699Y-83118920D01*
X96406230Y-83062508D01*
X96406232Y-83062507D01*
X96411540Y-83061085D01*
X96416522Y-83058762D01*
X96614059Y-82966650D01*
X96614064Y-82966647D01*
X96619046Y-82964324D01*
X96746142Y-82875330D01*
X96802086Y-82836158D01*
X96802089Y-82836156D01*
X96806597Y-82832999D01*
X96968495Y-82671101D01*
X97012405Y-82608392D01*
X97076675Y-82516604D01*
X97099820Y-82483550D01*
X97102143Y-82478568D01*
X97102146Y-82478563D01*
X97118102Y-82444344D01*
X97165019Y-82391059D01*
X97233296Y-82371598D01*
X97301256Y-82392140D01*
X97346492Y-82444344D01*
X97362448Y-82478563D01*
X97362451Y-82478568D01*
X97364774Y-82483550D01*
X97387919Y-82516604D01*
X97452190Y-82608392D01*
X97496099Y-82671101D01*
X97657997Y-82832999D01*
X97662505Y-82836156D01*
X97662508Y-82836158D01*
X97718452Y-82875330D01*
X97845548Y-82964324D01*
X97850530Y-82966647D01*
X97850535Y-82966650D01*
X98048072Y-83058762D01*
X98053054Y-83061085D01*
X98058362Y-83062507D01*
X98058364Y-83062508D01*
X98268895Y-83118920D01*
X98268897Y-83118920D01*
X98274210Y-83120344D01*
X98502297Y-83140299D01*
X98730384Y-83120344D01*
X98735697Y-83118920D01*
X98735699Y-83118920D01*
X98946230Y-83062508D01*
X98946232Y-83062507D01*
X98951540Y-83061085D01*
X98956522Y-83058762D01*
X99154059Y-82966650D01*
X99154064Y-82966647D01*
X99159046Y-82964324D01*
X99286142Y-82875330D01*
X99342086Y-82836158D01*
X99342089Y-82836156D01*
X99346597Y-82832999D01*
X99508495Y-82671101D01*
X99552405Y-82608392D01*
X99616675Y-82516604D01*
X99639820Y-82483550D01*
X99642143Y-82478568D01*
X99642146Y-82478563D01*
X99734258Y-82281026D01*
X99734258Y-82281025D01*
X99736581Y-82276044D01*
X99740225Y-82262447D01*
X99794416Y-82060203D01*
X99794416Y-82060201D01*
X99795840Y-82054888D01*
X99806098Y-81937635D01*
X99810559Y-81886652D01*
X99810559Y-81886645D01*
X99810797Y-81883928D01*
X99810797Y-81069674D01*
X99795840Y-80898714D01*
X99767412Y-80792620D01*
X99738004Y-80682868D01*
X99738003Y-80682866D01*
X99736581Y-80677558D01*
X99721464Y-80645139D01*
X99642146Y-80475039D01*
X99642143Y-80475034D01*
X99639820Y-80470052D01*
X99560355Y-80356565D01*
X99511654Y-80287012D01*
X99511652Y-80287009D01*
X99508495Y-80282501D01*
X99382323Y-80156329D01*
X99348297Y-80094017D01*
X99353362Y-80023202D01*
X99395909Y-79966366D01*
X99462429Y-79941555D01*
X99471418Y-79941234D01*
X99965428Y-79941234D01*
X100022729Y-79955017D01*
G37*
G04 #@! TD.AperFunction*
G04 #@! TA.AperFunction,Conductor*
G36*
X106466569Y-80801236D02*
G01*
X106487543Y-80818139D01*
X106749385Y-81079981D01*
X106756929Y-81088271D01*
X106761042Y-81094752D01*
X106766819Y-81100177D01*
X106810709Y-81141392D01*
X106813551Y-81144147D01*
X106833272Y-81163868D01*
X106836467Y-81166346D01*
X106845489Y-81174052D01*
X106877721Y-81204320D01*
X106884670Y-81208140D01*
X106895474Y-81214080D01*
X106911998Y-81224933D01*
X106928001Y-81237347D01*
X106968585Y-81254910D01*
X106979215Y-81260117D01*
X107017982Y-81281429D01*
X107025659Y-81283400D01*
X107025664Y-81283402D01*
X107037600Y-81286466D01*
X107056308Y-81292871D01*
X107074897Y-81300915D01*
X107082725Y-81302155D01*
X107082732Y-81302157D01*
X107118566Y-81307833D01*
X107130186Y-81310239D01*
X107165331Y-81319262D01*
X107173012Y-81321234D01*
X107193266Y-81321234D01*
X107212976Y-81322785D01*
X107232985Y-81325954D01*
X107240877Y-81325208D01*
X107277003Y-81321793D01*
X107288861Y-81321234D01*
X108348447Y-81321234D01*
X108416568Y-81341236D01*
X108437543Y-81358139D01*
X108932638Y-81853235D01*
X108966663Y-81915547D01*
X108969542Y-81942330D01*
X108969542Y-82950419D01*
X108949540Y-83018540D01*
X108915812Y-83053632D01*
X108823266Y-83118433D01*
X108721637Y-83220062D01*
X108659325Y-83254088D01*
X108588510Y-83249023D01*
X108531674Y-83206476D01*
X108506863Y-83139956D01*
X108506542Y-83130967D01*
X108506542Y-82806501D01*
X108507069Y-82795318D01*
X108508744Y-82787825D01*
X108506604Y-82719748D01*
X108506542Y-82715789D01*
X108506542Y-82687878D01*
X108506037Y-82683878D01*
X108505104Y-82672035D01*
X108503964Y-82635763D01*
X108503715Y-82627844D01*
X108498064Y-82608392D01*
X108494056Y-82589040D01*
X108492509Y-82576797D01*
X108491516Y-82568937D01*
X108488598Y-82561566D01*
X108475242Y-82527831D01*
X108471397Y-82516604D01*
X108463103Y-82488058D01*
X108459060Y-82474141D01*
X108452112Y-82462392D01*
X108448749Y-82456706D01*
X108440054Y-82438958D01*
X108432594Y-82420117D01*
X108411483Y-82391059D01*
X108406606Y-82384347D01*
X108400090Y-82374427D01*
X108381622Y-82343199D01*
X108381620Y-82343196D01*
X108377584Y-82336372D01*
X108363260Y-82322048D01*
X108350425Y-82307021D01*
X108338514Y-82290627D01*
X108326909Y-82281026D01*
X108304450Y-82262447D01*
X108295669Y-82254457D01*
X108146689Y-82105476D01*
X108139155Y-82097197D01*
X108135042Y-82090716D01*
X108085389Y-82044089D01*
X108082548Y-82041335D01*
X108062812Y-82021599D01*
X108059615Y-82019119D01*
X108050593Y-82011414D01*
X108024142Y-81986575D01*
X108018363Y-81981148D01*
X108011417Y-81977329D01*
X108011414Y-81977327D01*
X108000608Y-81971386D01*
X107984089Y-81960535D01*
X107978932Y-81956535D01*
X107968083Y-81948120D01*
X107960814Y-81944975D01*
X107960810Y-81944972D01*
X107927505Y-81930560D01*
X107916855Y-81925343D01*
X107878102Y-81904039D01*
X107858479Y-81899001D01*
X107839776Y-81892597D01*
X107828462Y-81887701D01*
X107828461Y-81887701D01*
X107821187Y-81884553D01*
X107813364Y-81883314D01*
X107813354Y-81883311D01*
X107777518Y-81877635D01*
X107765898Y-81875229D01*
X107730753Y-81866206D01*
X107730752Y-81866206D01*
X107723072Y-81864234D01*
X107702818Y-81864234D01*
X107683107Y-81862683D01*
X107670928Y-81860754D01*
X107663099Y-81859514D01*
X107655207Y-81860260D01*
X107619081Y-81863675D01*
X107607223Y-81864234D01*
X104720380Y-81864234D01*
X104652866Y-81844619D01*
X104579774Y-81798234D01*
X104529708Y-81766461D01*
X104496747Y-81754724D01*
X104365467Y-81707977D01*
X104365462Y-81707976D01*
X104358832Y-81705615D01*
X104351844Y-81704782D01*
X104351841Y-81704781D01*
X104228695Y-81690097D01*
X104178722Y-81684138D01*
X104171719Y-81684874D01*
X104171718Y-81684874D01*
X104005330Y-81702362D01*
X104005328Y-81702363D01*
X103998330Y-81703098D01*
X103826621Y-81761552D01*
X103786337Y-81786335D01*
X103678137Y-81852900D01*
X103678134Y-81852902D01*
X103672130Y-81856596D01*
X103667095Y-81861527D01*
X103667092Y-81861529D01*
X103643581Y-81884553D01*
X103619787Y-81907855D01*
X103619080Y-81908547D01*
X103556415Y-81941918D01*
X103511208Y-81942972D01*
X103477517Y-81937635D01*
X103465898Y-81935229D01*
X103430753Y-81926206D01*
X103430752Y-81926206D01*
X103423072Y-81924234D01*
X103402818Y-81924234D01*
X103383107Y-81922683D01*
X103370928Y-81920754D01*
X103363099Y-81919514D01*
X103355207Y-81920260D01*
X103319081Y-81923675D01*
X103307223Y-81924234D01*
X103182542Y-81924234D01*
X103114421Y-81904232D01*
X103067928Y-81850576D01*
X103056542Y-81798234D01*
X103056542Y-80907234D01*
X103076544Y-80839113D01*
X103130200Y-80792620D01*
X103182542Y-80781234D01*
X106398448Y-80781234D01*
X106466569Y-80801236D01*
G37*
G04 #@! TD.AperFunction*
G04 #@! TA.AperFunction,Conductor*
G36*
X94949792Y-75801236D02*
G01*
X94970766Y-75818139D01*
X95087637Y-75935010D01*
X95121663Y-75997322D01*
X95124542Y-76024105D01*
X95124542Y-77260664D01*
X95123109Y-77279614D01*
X95121616Y-77289431D01*
X95119843Y-77301083D01*
X95120436Y-77308375D01*
X95120436Y-77308378D01*
X95124127Y-77353752D01*
X95124542Y-77363967D01*
X95124542Y-77372027D01*
X95124967Y-77375671D01*
X95127831Y-77400241D01*
X95128264Y-77404616D01*
X95131164Y-77440263D01*
X95134182Y-77477371D01*
X95136438Y-77484335D01*
X95137629Y-77490294D01*
X95139013Y-77496149D01*
X95139860Y-77503415D01*
X95164777Y-77572061D01*
X95166194Y-77576189D01*
X95176036Y-77606568D01*
X95188691Y-77645633D01*
X95192487Y-77651888D01*
X95194993Y-77657362D01*
X95197712Y-77662792D01*
X95200209Y-77669671D01*
X95204222Y-77675791D01*
X95204222Y-77675792D01*
X95240228Y-77730710D01*
X95242565Y-77734414D01*
X95280447Y-77796841D01*
X95284163Y-77801049D01*
X95284164Y-77801050D01*
X95287845Y-77805218D01*
X95287818Y-77805242D01*
X95290471Y-77808234D01*
X95293174Y-77811467D01*
X95297186Y-77817586D01*
X95302498Y-77822618D01*
X95302502Y-77822623D01*
X95310473Y-77830174D01*
X95346171Y-77891543D01*
X95343023Y-77962470D01*
X95297885Y-78023579D01*
X95292351Y-78027600D01*
X95292349Y-78027602D01*
X95285935Y-78032262D01*
X95265890Y-78056492D01*
X95257754Y-78066327D01*
X95249764Y-78075107D01*
X93622692Y-79702179D01*
X93560380Y-79736205D01*
X93489565Y-79731140D01*
X93432729Y-79688593D01*
X93425144Y-79677224D01*
X93419046Y-79666913D01*
X93347495Y-79545927D01*
X93344813Y-79543245D01*
X93319540Y-79478873D01*
X93333442Y-79409250D01*
X93343614Y-79393422D01*
X93347495Y-79389541D01*
X93432187Y-79246335D01*
X93478604Y-79086565D01*
X93481542Y-79049236D01*
X93481542Y-78616232D01*
X93478604Y-78578903D01*
X93432187Y-78419133D01*
X93347495Y-78275927D01*
X93344813Y-78273245D01*
X93319540Y-78208873D01*
X93333442Y-78139250D01*
X93343614Y-78123422D01*
X93347495Y-78119541D01*
X93432187Y-77976335D01*
X93478604Y-77816565D01*
X93479216Y-77808796D01*
X93481349Y-77781692D01*
X93481349Y-77781684D01*
X93481542Y-77779236D01*
X93481542Y-77346232D01*
X93478604Y-77308903D01*
X93432187Y-77149133D01*
X93347495Y-77005927D01*
X93344813Y-77003245D01*
X93319540Y-76938873D01*
X93333442Y-76869250D01*
X93343614Y-76853422D01*
X93347495Y-76849541D01*
X93432187Y-76706335D01*
X93436526Y-76691402D01*
X93465738Y-76590850D01*
X93478604Y-76546565D01*
X93479297Y-76537769D01*
X93481349Y-76511692D01*
X93481349Y-76511684D01*
X93481542Y-76509236D01*
X93481542Y-76076232D01*
X93481251Y-76072535D01*
X93479109Y-76045313D01*
X93479108Y-76045308D01*
X93478604Y-76038903D01*
X93474305Y-76024105D01*
X93450564Y-75942386D01*
X93450767Y-75871390D01*
X93489321Y-75811774D01*
X93553986Y-75782466D01*
X93571561Y-75781234D01*
X94881671Y-75781234D01*
X94949792Y-75801236D01*
G37*
G04 #@! TD.AperFunction*
G04 #@! TA.AperFunction,Conductor*
G36*
X116478418Y-66002803D02*
G01*
X116524911Y-66056459D01*
X116536297Y-66108801D01*
X116536297Y-67854768D01*
X116540270Y-67868299D01*
X116548819Y-67869528D01*
X116726058Y-67822037D01*
X116736350Y-67818291D01*
X116933808Y-67726215D01*
X116943304Y-67720732D01*
X117121764Y-67595773D01*
X117130172Y-67588717D01*
X117284213Y-67434676D01*
X117291269Y-67426268D01*
X117416231Y-67247803D01*
X117422955Y-67236157D01*
X117474337Y-67187164D01*
X117544051Y-67173728D01*
X117609962Y-67200114D01*
X117651144Y-67257946D01*
X117658074Y-67299157D01*
X117658074Y-69935849D01*
X117638072Y-70003970D01*
X117584416Y-70050463D01*
X117518468Y-70061112D01*
X117504578Y-70059603D01*
X117504568Y-70059602D01*
X117501176Y-70059234D01*
X115904908Y-70059234D01*
X115842726Y-70065989D01*
X115706337Y-70117119D01*
X115699152Y-70122504D01*
X115699150Y-70122505D01*
X115628607Y-70175374D01*
X115562100Y-70200222D01*
X115492718Y-70185169D01*
X115477477Y-70175374D01*
X115406934Y-70122505D01*
X115406932Y-70122504D01*
X115399747Y-70117119D01*
X115263358Y-70065989D01*
X115201176Y-70059234D01*
X113604908Y-70059234D01*
X113542726Y-70065989D01*
X113406337Y-70117119D01*
X113394758Y-70125797D01*
X113328190Y-70175687D01*
X113261684Y-70200535D01*
X113192301Y-70185482D01*
X113177060Y-70175687D01*
X113106690Y-70122948D01*
X113091096Y-70114410D01*
X112970648Y-70069256D01*
X112955393Y-70065629D01*
X112904528Y-70060103D01*
X112897714Y-70059734D01*
X112375157Y-70059734D01*
X112359918Y-70064209D01*
X112358713Y-70065599D01*
X112357042Y-70073282D01*
X112357042Y-73057618D01*
X112361517Y-73072857D01*
X112362907Y-73074062D01*
X112370590Y-73075733D01*
X112897711Y-73075733D01*
X112904532Y-73075363D01*
X112955394Y-73069839D01*
X112970646Y-73066213D01*
X113091096Y-73021058D01*
X113106690Y-73012520D01*
X113177060Y-72959781D01*
X113243566Y-72934933D01*
X113312949Y-72949986D01*
X113328181Y-72959774D01*
X113344109Y-72971711D01*
X113386622Y-73028569D01*
X113394542Y-73072536D01*
X113394542Y-76175891D01*
X113393805Y-76189498D01*
X113390672Y-76218343D01*
X113389718Y-76227122D01*
X113390255Y-76233256D01*
X113390241Y-76234557D01*
X113369525Y-76302464D01*
X113315384Y-76348391D01*
X113264248Y-76359234D01*
X112454908Y-76359234D01*
X112392726Y-76365989D01*
X112256337Y-76417119D01*
X112139781Y-76504473D01*
X112052427Y-76621029D01*
X112001297Y-76757418D01*
X111994542Y-76819600D01*
X111994542Y-78543234D01*
X111974540Y-78611355D01*
X111920884Y-78657848D01*
X111868542Y-78669234D01*
X110140112Y-78669234D01*
X110121162Y-78667801D01*
X110106927Y-78665635D01*
X110106923Y-78665635D01*
X110099693Y-78664535D01*
X110092401Y-78665128D01*
X110092398Y-78665128D01*
X110047024Y-78668819D01*
X110036809Y-78669234D01*
X110028749Y-78669234D01*
X110025115Y-78669658D01*
X110025109Y-78669658D01*
X110012084Y-78671177D01*
X110000522Y-78672525D01*
X109996174Y-78672955D01*
X109974101Y-78674750D01*
X109930704Y-78678280D01*
X109930701Y-78678281D01*
X109923406Y-78678874D01*
X109916442Y-78681130D01*
X109910503Y-78682317D01*
X109904632Y-78683704D01*
X109897361Y-78684552D01*
X109890485Y-78687048D01*
X109890476Y-78687050D01*
X109828744Y-78709459D01*
X109824621Y-78710875D01*
X109805868Y-78716950D01*
X109734899Y-78718912D01*
X109674135Y-78682194D01*
X109642868Y-78618453D01*
X109641042Y-78597081D01*
X109641042Y-78509849D01*
X109636567Y-78494610D01*
X109635177Y-78493405D01*
X109627494Y-78491734D01*
X108505042Y-78491734D01*
X108436921Y-78471732D01*
X108390428Y-78418076D01*
X108379042Y-78365734D01*
X108379042Y-78109734D01*
X108399044Y-78041613D01*
X108452700Y-77995120D01*
X108505042Y-77983734D01*
X109622926Y-77983734D01*
X109638165Y-77979259D01*
X109639370Y-77977869D01*
X109641041Y-77970186D01*
X109641041Y-77715639D01*
X109640704Y-77709120D01*
X109630785Y-77613528D01*
X109627893Y-77600134D01*
X109576454Y-77445950D01*
X109570281Y-77432772D01*
X109484979Y-77294927D01*
X109475943Y-77283526D01*
X109384651Y-77192392D01*
X109350572Y-77130109D01*
X109355575Y-77059289D01*
X109398073Y-77002416D01*
X109433793Y-76983695D01*
X109470040Y-76971602D01*
X109476988Y-76969284D01*
X109627390Y-76876212D01*
X109752347Y-76751037D01*
X109780439Y-76705464D01*
X109841317Y-76606702D01*
X109841318Y-76606700D01*
X109845157Y-76600472D01*
X109900839Y-76432595D01*
X109911542Y-76328134D01*
X109911542Y-75981308D01*
X109931544Y-75913187D01*
X109948447Y-75892213D01*
X110821953Y-75018707D01*
X110836365Y-75006321D01*
X110847960Y-74997788D01*
X110847965Y-74997783D01*
X110853860Y-74993445D01*
X110858599Y-74987867D01*
X110858602Y-74987864D01*
X110888077Y-74953169D01*
X110895007Y-74945653D01*
X110900702Y-74939958D01*
X110918323Y-74917686D01*
X110921114Y-74914282D01*
X110963633Y-74864234D01*
X110963634Y-74864232D01*
X110968375Y-74858652D01*
X110971703Y-74852136D01*
X110975070Y-74847087D01*
X110978237Y-74841958D01*
X110982776Y-74836221D01*
X111013697Y-74770062D01*
X111015603Y-74766162D01*
X111048811Y-74701129D01*
X111050550Y-74694021D01*
X111052649Y-74688378D01*
X111054566Y-74682615D01*
X111057664Y-74675987D01*
X111072529Y-74604520D01*
X111073499Y-74600236D01*
X111082425Y-74563758D01*
X111090850Y-74529327D01*
X111091542Y-74518173D01*
X111091578Y-74518175D01*
X111091817Y-74514182D01*
X111092191Y-74509990D01*
X111093682Y-74502822D01*
X111091588Y-74425416D01*
X111091542Y-74422009D01*
X111091542Y-73191471D01*
X111111544Y-73123350D01*
X111165200Y-73076857D01*
X111235474Y-73066753D01*
X111246685Y-73068888D01*
X111250683Y-73069839D01*
X111301556Y-73075365D01*
X111308370Y-73075734D01*
X111830927Y-73075734D01*
X111846166Y-73071259D01*
X111847371Y-73069869D01*
X111849042Y-73062186D01*
X111849042Y-70077850D01*
X111844567Y-70062611D01*
X111843177Y-70061406D01*
X111835494Y-70059735D01*
X111308373Y-70059735D01*
X111301552Y-70060105D01*
X111250690Y-70065629D01*
X111235436Y-70069256D01*
X111123890Y-70111072D01*
X111053083Y-70116255D01*
X110990714Y-70082334D01*
X110971942Y-70058456D01*
X110967092Y-70050463D01*
X110935637Y-69998627D01*
X110928239Y-69990250D01*
X110928266Y-69990226D01*
X110925613Y-69987234D01*
X110922910Y-69984001D01*
X110918898Y-69977882D01*
X110862659Y-69924606D01*
X110860217Y-69922228D01*
X110738801Y-69800812D01*
X110704775Y-69738500D01*
X110702457Y-69701511D01*
X110703683Y-69695619D01*
X110701588Y-69618192D01*
X110701542Y-69614784D01*
X110701542Y-68782234D01*
X110721544Y-68714113D01*
X110775200Y-68667620D01*
X110827542Y-68656234D01*
X112955972Y-68656234D01*
X112974922Y-68657667D01*
X112989157Y-68659833D01*
X112989161Y-68659833D01*
X112996391Y-68660933D01*
X113003683Y-68660340D01*
X113003686Y-68660340D01*
X113049060Y-68656649D01*
X113059275Y-68656234D01*
X113067335Y-68656234D01*
X113080625Y-68654685D01*
X113095549Y-68652945D01*
X113099924Y-68652512D01*
X113165381Y-68647188D01*
X113165384Y-68647187D01*
X113172679Y-68646594D01*
X113179643Y-68644338D01*
X113185602Y-68643147D01*
X113191457Y-68641763D01*
X113198723Y-68640916D01*
X113267369Y-68615999D01*
X113271497Y-68614582D01*
X113333978Y-68594341D01*
X113333980Y-68594340D01*
X113340941Y-68592085D01*
X113347196Y-68588289D01*
X113352670Y-68585783D01*
X113358100Y-68583064D01*
X113364979Y-68580567D01*
X113386343Y-68566560D01*
X113426018Y-68540548D01*
X113429722Y-68538211D01*
X113492149Y-68500329D01*
X113500526Y-68492931D01*
X113500550Y-68492958D01*
X113503542Y-68490305D01*
X113506775Y-68487602D01*
X113512894Y-68483590D01*
X113566170Y-68427351D01*
X113568548Y-68424909D01*
X114142452Y-67851005D01*
X114187876Y-67822067D01*
X114191540Y-67821085D01*
X114262357Y-67788063D01*
X114394059Y-67726650D01*
X114394064Y-67726647D01*
X114399046Y-67724324D01*
X114503908Y-67650899D01*
X114582086Y-67596158D01*
X114582089Y-67596156D01*
X114586597Y-67592999D01*
X114748495Y-67431101D01*
X114879820Y-67243550D01*
X114882143Y-67238568D01*
X114882146Y-67238563D01*
X114898378Y-67203752D01*
X114945295Y-67150467D01*
X115013572Y-67131006D01*
X115081532Y-67151548D01*
X115126768Y-67203752D01*
X115142883Y-67238312D01*
X115148366Y-67247808D01*
X115273325Y-67426268D01*
X115280381Y-67434676D01*
X115434422Y-67588717D01*
X115442830Y-67595773D01*
X115621290Y-67720732D01*
X115630786Y-67726215D01*
X115828244Y-67818291D01*
X115838536Y-67822037D01*
X116010800Y-67868195D01*
X116024896Y-67867859D01*
X116028297Y-67859917D01*
X116028297Y-66108801D01*
X116048299Y-66040680D01*
X116101955Y-65994187D01*
X116154297Y-65982801D01*
X116410297Y-65982801D01*
X116478418Y-66002803D01*
G37*
G04 #@! TD.AperFunction*
G04 #@! TA.AperFunction,Conductor*
G36*
X94919604Y-64866236D02*
G01*
X94966097Y-64919892D01*
X94976201Y-64990166D01*
X94954696Y-65044504D01*
X94824774Y-65230052D01*
X94822451Y-65235034D01*
X94822448Y-65235039D01*
X94792547Y-65299163D01*
X94728013Y-65437558D01*
X94726591Y-65442866D01*
X94726590Y-65442868D01*
X94672635Y-65644230D01*
X94668754Y-65658714D01*
X94653797Y-65829674D01*
X94653797Y-66643928D01*
X94668754Y-66814888D01*
X94670178Y-66820201D01*
X94670178Y-66820203D01*
X94685786Y-66878450D01*
X94728013Y-67036044D01*
X94730336Y-67041025D01*
X94730336Y-67041026D01*
X94822448Y-67238563D01*
X94822451Y-67238568D01*
X94824774Y-67243550D01*
X94956099Y-67431101D01*
X95117997Y-67592999D01*
X95122505Y-67596156D01*
X95122508Y-67596158D01*
X95200686Y-67650899D01*
X95305548Y-67724324D01*
X95310530Y-67726647D01*
X95310535Y-67726650D01*
X95507062Y-67818291D01*
X95513054Y-67821085D01*
X95518362Y-67822507D01*
X95518364Y-67822508D01*
X95728895Y-67878920D01*
X95728897Y-67878920D01*
X95734210Y-67880344D01*
X95962297Y-67900299D01*
X96190384Y-67880344D01*
X96195697Y-67878920D01*
X96195699Y-67878920D01*
X96406230Y-67822508D01*
X96406232Y-67822507D01*
X96411540Y-67821085D01*
X96417532Y-67818291D01*
X96614059Y-67726650D01*
X96614064Y-67726647D01*
X96619046Y-67724324D01*
X96723908Y-67650899D01*
X96802086Y-67596158D01*
X96802089Y-67596156D01*
X96806597Y-67592999D01*
X96968495Y-67431101D01*
X97099820Y-67243550D01*
X97102143Y-67238568D01*
X97102146Y-67238563D01*
X97118102Y-67204344D01*
X97165019Y-67151059D01*
X97233296Y-67131598D01*
X97301256Y-67152140D01*
X97346492Y-67204344D01*
X97362448Y-67238563D01*
X97362451Y-67238568D01*
X97364774Y-67243550D01*
X97496099Y-67431101D01*
X97657997Y-67592999D01*
X97662505Y-67596156D01*
X97662508Y-67596158D01*
X97740686Y-67650899D01*
X97845548Y-67724324D01*
X97850530Y-67726647D01*
X97850535Y-67726650D01*
X98047062Y-67818291D01*
X98053054Y-67821085D01*
X98058362Y-67822507D01*
X98058364Y-67822508D01*
X98268895Y-67878920D01*
X98268897Y-67878920D01*
X98274210Y-67880344D01*
X98502297Y-67900299D01*
X98730384Y-67880344D01*
X98735697Y-67878920D01*
X98735699Y-67878920D01*
X98946230Y-67822508D01*
X98946232Y-67822507D01*
X98951540Y-67821085D01*
X98957532Y-67818291D01*
X99154059Y-67726650D01*
X99154064Y-67726647D01*
X99159046Y-67724324D01*
X99263908Y-67650899D01*
X99342086Y-67596158D01*
X99342089Y-67596156D01*
X99346597Y-67592999D01*
X99508495Y-67431101D01*
X99639820Y-67243550D01*
X99642143Y-67238568D01*
X99642146Y-67238563D01*
X99734258Y-67041026D01*
X99734258Y-67041025D01*
X99736581Y-67036044D01*
X99778809Y-66878450D01*
X99794416Y-66820203D01*
X99794416Y-66820201D01*
X99795840Y-66814888D01*
X99810797Y-66643928D01*
X99810797Y-65829674D01*
X99795840Y-65658714D01*
X99791959Y-65644230D01*
X99738004Y-65442868D01*
X99738003Y-65442866D01*
X99736581Y-65437558D01*
X99672047Y-65299163D01*
X99642146Y-65235039D01*
X99642143Y-65235034D01*
X99639820Y-65230052D01*
X99509898Y-65044504D01*
X99487210Y-64977231D01*
X99504495Y-64908371D01*
X99556265Y-64859786D01*
X99613111Y-64846234D01*
X110091483Y-64846234D01*
X110159604Y-64866236D01*
X110206097Y-64919892D01*
X110216201Y-64990166D01*
X110194696Y-65044504D01*
X110064774Y-65230052D01*
X110062451Y-65235034D01*
X110062448Y-65235039D01*
X110032547Y-65299163D01*
X109968013Y-65437558D01*
X109966591Y-65442866D01*
X109966590Y-65442868D01*
X109936269Y-65556028D01*
X109899317Y-65616651D01*
X109884176Y-65627962D01*
X109884183Y-65627971D01*
X109882931Y-65628892D01*
X109879930Y-65631135D01*
X109874868Y-65634206D01*
X109866491Y-65641604D01*
X109866467Y-65641577D01*
X109863475Y-65644230D01*
X109860242Y-65646933D01*
X109854123Y-65650945D01*
X109849091Y-65656257D01*
X109800847Y-65707184D01*
X109798469Y-65709626D01*
X109084131Y-66423964D01*
X109069719Y-66436350D01*
X109058124Y-66444883D01*
X109058119Y-66444888D01*
X109052224Y-66449226D01*
X109047485Y-66454804D01*
X109047482Y-66454807D01*
X109018007Y-66489502D01*
X109011077Y-66497018D01*
X109005382Y-66502713D01*
X109003111Y-66505584D01*
X109003099Y-66505597D01*
X108987747Y-66525002D01*
X108984957Y-66528405D01*
X108961535Y-66555974D01*
X108954606Y-66563489D01*
X108025766Y-67492329D01*
X107963454Y-67526355D01*
X107936671Y-67529234D01*
X104990112Y-67529234D01*
X104971162Y-67527801D01*
X104956927Y-67525635D01*
X104956923Y-67525635D01*
X104949693Y-67524535D01*
X104942401Y-67525128D01*
X104942398Y-67525128D01*
X104897024Y-67528819D01*
X104886809Y-67529234D01*
X104878749Y-67529234D01*
X104875115Y-67529658D01*
X104875109Y-67529658D01*
X104862084Y-67531177D01*
X104850522Y-67532525D01*
X104846174Y-67532955D01*
X104824101Y-67534750D01*
X104780704Y-67538280D01*
X104780701Y-67538281D01*
X104773406Y-67538874D01*
X104766442Y-67541130D01*
X104760503Y-67542317D01*
X104754632Y-67543704D01*
X104747361Y-67544552D01*
X104740485Y-67547048D01*
X104740476Y-67547050D01*
X104678744Y-67569459D01*
X104674640Y-67570869D01*
X104605143Y-67593382D01*
X104598888Y-67597178D01*
X104593429Y-67599677D01*
X104587981Y-67602405D01*
X104581105Y-67604901D01*
X104520052Y-67644929D01*
X104516379Y-67647247D01*
X104453935Y-67685139D01*
X104445559Y-67692536D01*
X104445535Y-67692509D01*
X104442541Y-67695164D01*
X104439310Y-67697866D01*
X104433190Y-67701878D01*
X104428158Y-67707190D01*
X104379914Y-67758117D01*
X104377536Y-67760559D01*
X103575766Y-68562329D01*
X103513454Y-68596355D01*
X103486671Y-68599234D01*
X101823785Y-68599234D01*
X101758514Y-68581010D01*
X101757783Y-68580567D01*
X101636741Y-68507262D01*
X101629494Y-68504991D01*
X101629492Y-68504990D01*
X101544253Y-68478278D01*
X101473104Y-68455981D01*
X101399677Y-68449234D01*
X101396779Y-68449234D01*
X100804001Y-68449235D01*
X100211408Y-68449235D01*
X100208550Y-68449498D01*
X100208541Y-68449498D01*
X100173038Y-68452760D01*
X100137980Y-68455981D01*
X100131602Y-68457980D01*
X100131601Y-68457980D01*
X99981592Y-68504990D01*
X99981590Y-68504991D01*
X99974343Y-68507262D01*
X99827661Y-68596095D01*
X99706403Y-68717353D01*
X99617570Y-68864035D01*
X99615299Y-68871282D01*
X99615298Y-68871284D01*
X99612471Y-68880305D01*
X99566289Y-69027672D01*
X99559542Y-69101099D01*
X99559543Y-69337848D01*
X99559543Y-69491173D01*
X99539541Y-69559293D01*
X99485886Y-69605786D01*
X99472377Y-69611039D01*
X99472107Y-69611126D01*
X99472100Y-69611129D01*
X99465143Y-69613383D01*
X99458889Y-69617178D01*
X99453414Y-69619685D01*
X99447984Y-69622404D01*
X99441105Y-69624901D01*
X99434985Y-69628914D01*
X99434984Y-69628914D01*
X99380066Y-69664920D01*
X99376362Y-69667257D01*
X99313935Y-69705139D01*
X99305558Y-69712537D01*
X99305534Y-69712510D01*
X99302542Y-69715163D01*
X99299309Y-69717866D01*
X99293190Y-69721878D01*
X99277444Y-69738500D01*
X99239914Y-69778117D01*
X99237536Y-69780559D01*
X98784131Y-70233964D01*
X98769719Y-70246350D01*
X98758124Y-70254883D01*
X98758119Y-70254888D01*
X98752224Y-70259226D01*
X98747485Y-70264804D01*
X98747482Y-70264807D01*
X98718007Y-70299502D01*
X98711077Y-70307018D01*
X98705382Y-70312713D01*
X98703102Y-70315595D01*
X98687761Y-70334985D01*
X98684970Y-70338389D01*
X98656407Y-70372010D01*
X98637709Y-70394019D01*
X98634381Y-70400535D01*
X98631014Y-70405584D01*
X98627847Y-70410713D01*
X98623308Y-70416450D01*
X98592387Y-70482609D01*
X98590484Y-70486503D01*
X98557273Y-70551542D01*
X98555534Y-70558650D01*
X98553435Y-70564293D01*
X98551518Y-70570056D01*
X98548420Y-70576684D01*
X98546930Y-70583846D01*
X98546930Y-70583847D01*
X98533556Y-70648146D01*
X98532586Y-70652430D01*
X98515234Y-70723344D01*
X98514542Y-70734498D01*
X98514506Y-70734496D01*
X98514267Y-70738489D01*
X98513893Y-70742681D01*
X98512402Y-70749849D01*
X98512600Y-70757166D01*
X98514496Y-70827255D01*
X98514542Y-70830662D01*
X98514542Y-75470664D01*
X98513109Y-75489614D01*
X98509843Y-75511083D01*
X98510436Y-75518375D01*
X98510436Y-75518378D01*
X98514127Y-75563752D01*
X98514542Y-75573967D01*
X98514542Y-75582027D01*
X98514967Y-75585671D01*
X98517831Y-75610241D01*
X98518264Y-75614616D01*
X98524182Y-75687371D01*
X98526438Y-75694335D01*
X98527629Y-75700294D01*
X98529013Y-75706149D01*
X98529860Y-75713415D01*
X98554777Y-75782061D01*
X98556194Y-75786189D01*
X98571403Y-75833137D01*
X98573368Y-75904106D01*
X98563752Y-75929270D01*
X98547273Y-75961542D01*
X98545534Y-75968650D01*
X98543435Y-75974293D01*
X98541518Y-75980056D01*
X98538420Y-75986684D01*
X98536930Y-75993846D01*
X98536930Y-75993847D01*
X98523556Y-76058146D01*
X98522586Y-76062430D01*
X98505234Y-76133344D01*
X98504542Y-76144498D01*
X98504506Y-76144496D01*
X98504267Y-76148489D01*
X98503893Y-76152681D01*
X98502402Y-76159849D01*
X98502600Y-76167166D01*
X98504496Y-76237255D01*
X98504542Y-76240662D01*
X98504542Y-76673810D01*
X98484540Y-76741931D01*
X98430884Y-76788424D01*
X98360610Y-76798528D01*
X98336281Y-76792511D01*
X98288832Y-76775615D01*
X98263296Y-76772570D01*
X98198023Y-76744642D01*
X98158211Y-76685859D01*
X98153002Y-76661504D01*
X98151149Y-76644986D01*
X98151147Y-76644977D01*
X98150362Y-76637979D01*
X98122474Y-76557896D01*
X98115465Y-76516459D01*
X98115465Y-74948726D01*
X98116898Y-74929775D01*
X98119064Y-74915540D01*
X98119064Y-74915538D01*
X98120164Y-74908308D01*
X98115880Y-74855639D01*
X98115465Y-74845424D01*
X98115465Y-74837364D01*
X98112412Y-74811173D01*
X98112176Y-74809150D01*
X98111743Y-74804775D01*
X98106419Y-74739318D01*
X98106418Y-74739315D01*
X98105825Y-74732020D01*
X98103569Y-74725056D01*
X98102378Y-74719097D01*
X98100994Y-74713242D01*
X98100147Y-74705976D01*
X98075230Y-74637330D01*
X98073813Y-74633202D01*
X98053572Y-74570721D01*
X98053571Y-74570719D01*
X98051316Y-74563758D01*
X98047520Y-74557503D01*
X98045014Y-74552029D01*
X98042295Y-74546599D01*
X98039798Y-74539720D01*
X97999774Y-74478673D01*
X97997437Y-74474969D01*
X97991951Y-74465927D01*
X97967368Y-74425416D01*
X97962474Y-74417350D01*
X97962470Y-74417345D01*
X97959560Y-74412549D01*
X97952162Y-74404173D01*
X97952188Y-74404150D01*
X97949539Y-74401160D01*
X97946831Y-74397921D01*
X97942821Y-74391805D01*
X97937514Y-74386778D01*
X97937511Y-74386774D01*
X97886582Y-74338529D01*
X97884140Y-74336151D01*
X96811812Y-73263823D01*
X96799426Y-73249411D01*
X96790893Y-73237816D01*
X96790888Y-73237811D01*
X96786550Y-73231916D01*
X96780972Y-73227177D01*
X96780969Y-73227174D01*
X96746274Y-73197699D01*
X96738758Y-73190769D01*
X96733063Y-73185074D01*
X96726922Y-73180216D01*
X96710791Y-73167453D01*
X96707387Y-73164662D01*
X96657339Y-73122143D01*
X96657337Y-73122142D01*
X96651757Y-73117401D01*
X96645241Y-73114073D01*
X96640192Y-73110706D01*
X96635063Y-73107539D01*
X96629326Y-73103000D01*
X96563167Y-73072079D01*
X96559267Y-73070173D01*
X96557908Y-73069479D01*
X96494234Y-73036965D01*
X96487126Y-73035226D01*
X96481483Y-73033127D01*
X96475720Y-73031210D01*
X96469092Y-73028112D01*
X96397625Y-73013247D01*
X96393341Y-73012277D01*
X96361211Y-73004415D01*
X96322432Y-72994926D01*
X96316830Y-72994578D01*
X96316827Y-72994578D01*
X96311278Y-72994234D01*
X96311280Y-72994198D01*
X96307287Y-72993959D01*
X96303095Y-72993585D01*
X96295927Y-72992094D01*
X96240664Y-72993589D01*
X96218521Y-72994188D01*
X96215114Y-72994234D01*
X93106796Y-72994234D01*
X93071644Y-72989231D01*
X92933053Y-72948967D01*
X92933049Y-72948966D01*
X92926873Y-72947172D01*
X92920468Y-72946668D01*
X92920463Y-72946667D01*
X92892000Y-72944427D01*
X92891992Y-72944427D01*
X92889544Y-72944234D01*
X91106540Y-72944234D01*
X91104092Y-72944427D01*
X91104084Y-72944427D01*
X91075621Y-72946667D01*
X91075616Y-72946668D01*
X91069211Y-72947172D01*
X90969273Y-72976206D01*
X90917054Y-72991377D01*
X90917052Y-72991378D01*
X90909441Y-72993589D01*
X90902614Y-72997626D01*
X90902615Y-72997626D01*
X90773062Y-73074243D01*
X90773059Y-73074245D01*
X90766235Y-73078281D01*
X90648589Y-73195927D01*
X90644553Y-73202751D01*
X90644551Y-73202754D01*
X90599221Y-73279403D01*
X90563897Y-73339133D01*
X90517480Y-73498903D01*
X90514542Y-73536232D01*
X90514542Y-73969236D01*
X90517480Y-74006565D01*
X90563897Y-74166335D01*
X90648589Y-74309541D01*
X90651271Y-74312223D01*
X90676544Y-74376595D01*
X90662642Y-74446218D01*
X90652470Y-74462046D01*
X90648589Y-74465927D01*
X90563897Y-74609133D01*
X90561686Y-74616744D01*
X90561685Y-74616746D01*
X90547512Y-74665531D01*
X90517480Y-74768903D01*
X90516976Y-74775308D01*
X90516975Y-74775313D01*
X90514735Y-74803776D01*
X90514542Y-74806232D01*
X90514542Y-74809140D01*
X90514522Y-74809208D01*
X90514445Y-74811173D01*
X90513951Y-74811154D01*
X90494540Y-74877261D01*
X90440884Y-74923754D01*
X90370610Y-74933858D01*
X90306030Y-74904364D01*
X90299447Y-74898235D01*
X89627447Y-74226234D01*
X88761694Y-73360481D01*
X88754154Y-73352195D01*
X88750042Y-73345716D01*
X88700390Y-73299090D01*
X88697549Y-73296336D01*
X88677812Y-73276599D01*
X88674615Y-73274119D01*
X88665593Y-73266414D01*
X88639142Y-73241575D01*
X88633363Y-73236148D01*
X88626417Y-73232329D01*
X88626414Y-73232327D01*
X88615608Y-73226386D01*
X88599089Y-73215535D01*
X88598625Y-73215175D01*
X88583083Y-73203120D01*
X88575814Y-73199975D01*
X88575810Y-73199972D01*
X88542505Y-73185560D01*
X88531855Y-73180343D01*
X88493102Y-73159039D01*
X88473479Y-73154001D01*
X88454776Y-73147597D01*
X88443462Y-73142701D01*
X88443461Y-73142701D01*
X88436187Y-73139553D01*
X88428364Y-73138314D01*
X88428354Y-73138311D01*
X88392518Y-73132635D01*
X88380898Y-73130229D01*
X88348223Y-73121840D01*
X88290461Y-73088893D01*
X88279849Y-73078281D01*
X88273025Y-73074245D01*
X88273022Y-73074243D01*
X88143469Y-72997626D01*
X88143470Y-72997626D01*
X88136643Y-72993589D01*
X88129032Y-72991378D01*
X88129030Y-72991377D01*
X88076811Y-72976206D01*
X87976873Y-72947172D01*
X87970468Y-72946668D01*
X87970463Y-72946667D01*
X87942000Y-72944427D01*
X87941992Y-72944427D01*
X87939544Y-72944234D01*
X86217542Y-72944234D01*
X86149421Y-72924232D01*
X86102928Y-72870576D01*
X86091542Y-72818234D01*
X86091542Y-70571081D01*
X86111544Y-70502960D01*
X86165200Y-70456467D01*
X86235474Y-70446363D01*
X86300054Y-70475857D01*
X86315454Y-70491778D01*
X86411350Y-70610199D01*
X86422543Y-70626486D01*
X86460217Y-70691740D01*
X86460220Y-70691745D01*
X86463519Y-70697458D01*
X86467937Y-70702365D01*
X86467938Y-70702366D01*
X86581919Y-70828955D01*
X86591306Y-70839380D01*
X86745807Y-70951632D01*
X86751842Y-70954319D01*
X86757556Y-70957618D01*
X86757061Y-70958475D01*
X86774146Y-70968949D01*
X86993639Y-71146691D01*
X86996414Y-71148493D01*
X87290130Y-71339234D01*
X87302056Y-71346979D01*
X87304990Y-71348474D01*
X87304997Y-71348478D01*
X87532445Y-71464368D01*
X87629720Y-71513932D01*
X87973040Y-71645720D01*
X88328255Y-71740900D01*
X88521272Y-71771471D01*
X88688225Y-71797914D01*
X88688233Y-71797915D01*
X88691473Y-71798428D01*
X88758524Y-71801942D01*
X88796035Y-71803908D01*
X88815638Y-71806488D01*
X88956770Y-71836487D01*
X88956775Y-71836487D01*
X88963227Y-71837859D01*
X89154201Y-71837859D01*
X89160653Y-71836487D01*
X89160658Y-71836487D01*
X89301790Y-71806488D01*
X89321393Y-71803908D01*
X89358904Y-71801942D01*
X89425955Y-71798428D01*
X89429195Y-71797915D01*
X89429203Y-71797914D01*
X89596156Y-71771471D01*
X89789173Y-71740900D01*
X90144388Y-71645720D01*
X90487708Y-71513932D01*
X90584983Y-71464368D01*
X90812431Y-71348478D01*
X90812438Y-71348474D01*
X90815372Y-71346979D01*
X90827299Y-71339234D01*
X91121014Y-71148493D01*
X91123789Y-71146691D01*
X91343282Y-70968949D01*
X91360367Y-70958475D01*
X91359872Y-70957618D01*
X91365586Y-70954319D01*
X91371621Y-70951632D01*
X91526122Y-70839380D01*
X91535509Y-70828955D01*
X91649490Y-70702366D01*
X91649491Y-70702365D01*
X91653909Y-70697458D01*
X91657208Y-70691745D01*
X91657211Y-70691740D01*
X91694885Y-70626486D01*
X91706084Y-70610192D01*
X91898960Y-70372010D01*
X91901046Y-70369434D01*
X92020505Y-70185482D01*
X92099536Y-70063785D01*
X92099538Y-70063782D01*
X92101334Y-70061016D01*
X92106712Y-70050463D01*
X92266789Y-69736293D01*
X92268287Y-69733353D01*
X92400075Y-69390033D01*
X92495255Y-69034818D01*
X92530085Y-68814909D01*
X92552269Y-68674848D01*
X92552270Y-68674840D01*
X92552783Y-68671600D01*
X92557314Y-68585135D01*
X92558288Y-68566560D01*
X92564282Y-68534218D01*
X92575214Y-68500573D01*
X92575215Y-68500569D01*
X92577256Y-68494287D01*
X92578381Y-68483590D01*
X92596528Y-68310924D01*
X92597218Y-68304359D01*
X92577256Y-68114431D01*
X92575214Y-68108145D01*
X92564282Y-68074500D01*
X92558288Y-68042158D01*
X92556217Y-68002646D01*
X92552783Y-67937118D01*
X92546952Y-67900299D01*
X92524819Y-67760559D01*
X92495255Y-67573900D01*
X92400075Y-67218685D01*
X92366646Y-67131598D01*
X92269471Y-66878450D01*
X92268287Y-66875365D01*
X92266789Y-66872425D01*
X92102833Y-66550643D01*
X92102829Y-66550636D01*
X92101334Y-66547702D01*
X92088803Y-66528405D01*
X91902848Y-66242059D01*
X91901046Y-66239284D01*
X91752997Y-66056459D01*
X91706084Y-65998526D01*
X91694885Y-65982232D01*
X91657211Y-65916978D01*
X91657208Y-65916973D01*
X91653909Y-65911260D01*
X91526122Y-65769338D01*
X91371621Y-65657086D01*
X91365586Y-65654399D01*
X91359872Y-65651100D01*
X91360367Y-65650243D01*
X91343282Y-65639769D01*
X91126365Y-65464113D01*
X91123789Y-65462027D01*
X90939881Y-65342596D01*
X90818141Y-65263537D01*
X90818138Y-65263535D01*
X90815372Y-65261739D01*
X90812438Y-65260244D01*
X90812431Y-65260240D01*
X90490648Y-65096284D01*
X90487708Y-65094786D01*
X90474887Y-65089865D01*
X90418460Y-65046780D01*
X90394283Y-64980027D01*
X90410034Y-64910800D01*
X90460711Y-64861077D01*
X90520042Y-64846234D01*
X94851483Y-64846234D01*
X94919604Y-64866236D01*
G37*
G04 #@! TD.AperFunction*
M02*
