M48
; DRILL file {KiCad (6.0.7)} date Wed Feb 15 16:43:41 2023
; FORMAT={-:-/ absolute / inch / decimal}
; #@! TF.CreationDate,2023-02-15T16:43:41+05:30
; #@! TF.GenerationSoftware,Kicad,Pcbnew,(6.0.7)
; #@! TF.FileFunction,Plated,1,2,PTH
FMAT,2
INCH
; #@! TA.AperFunction,Plated,PTH,ViaDrill
T1C0.0157
; #@! TA.AperFunction,Plated,PTH,ComponentDrill
T2C0.0197
; #@! TA.AperFunction,Plated,PTH,ComponentDrill
T3C0.0276
; #@! TA.AperFunction,Plated,PTH,ComponentDrill
T4C0.0354
; #@! TA.AperFunction,Plated,PTH,ComponentDrill
T5C0.0394
; #@! TA.AperFunction,Plated,PTH,ComponentDrill
T6C0.0472
; #@! TA.AperFunction,Plated,PTH,ComponentDrill
T7C0.0787
; #@! TA.AperFunction,Plated,PTH,ComponentDrill
T8C0.1575
%
G90
G05
T1
X3.4676Y-4.3846
X3.4981Y-4.384
X3.5013Y-3.2558
X3.5037Y-3.7826
X3.5037Y-3.8251
X3.5052Y-3.8629
X3.5088Y-3.1877
X3.5262Y-4.3684
X3.5376Y-3.1373
X3.5395Y-3.2188
X3.5403Y-3.2558
X3.5458Y-4.4482
X3.5517Y-4.6135
X3.5649Y-4.5361
X3.5785Y-3.8578
X3.5796Y-3.7601
X3.5812Y-3.8058
X3.5898Y-4.6135
X3.617Y-3.8601
X3.6182Y-3.7613
X3.6198Y-3.807
X3.6588Y-4.0928
X3.6749Y-4.2814
X3.693Y-4.0928
X3.7123Y-3.02
X3.7131Y-3.0688
X3.7135Y-2.7251
X3.7147Y-2.7763
X3.732Y-4.0924
X3.7852Y-3.3779
X3.7909Y-4.417
X3.8009Y-4.0932
X3.8202Y-2.7255
X3.8202Y-2.7771
X3.8265Y-4.794
X3.8289Y-4.7121
X3.8289Y-4.8759
X3.83Y-3.2731
X3.83Y-4.6464
X3.833Y-3.0243
X3.8623Y-3.0538
X3.8714Y-2.9598
X3.8852Y-3.3511
X3.8898Y-4.8774
X3.8908Y-4.7888
X3.8931Y-4.7129
X3.897Y-4.6452
X3.9368Y-4.7888
X3.9424Y-4.8763
X3.9513Y-2.6346
X3.9517Y-2.6003
X3.9545Y-4.6449
X3.956Y-3.1668
X3.956Y-3.2062
X3.9611Y-4.7118
X3.9698Y-3.2562
X3.9934Y-2.6346
X3.9949Y-4.7888
X3.9951Y-4.8763
X3.9954Y-3.8204
X3.9954Y-3.8794
X3.9954Y-4.0881
X3.9993Y-4.4916
X4.0154Y-3.2617
X4.032Y-3.1554
X4.0357Y-4.7118
X4.0379Y-4.6449
X4.0453Y-3.0856
X4.0505Y-3.529
X4.0545Y-3.5605
X4.0585Y-4.7888
X4.0631Y-4.8785
X4.1013Y-3.2479
X4.1096Y-3.3204
X4.1111Y-3.357
X4.1131Y-4.5818
X4.1167Y-3.7759
X4.1174Y-3.8322
X4.1174Y-3.9385
X4.1182Y-3.9948
X4.1194Y-4.059
X4.1253Y-2.8086
X4.1257Y-2.9605
X4.1287Y-4.7888
X4.1378Y-3.3188
X4.156Y-3.7759
X4.156Y-3.8342
X4.1568Y-3.9385
X4.1568Y-3.9968
X4.158Y-4.0609
X4.1721Y-3.46
X4.1765Y-3.1944
X4.1954Y-3.7759
X4.1962Y-3.9385
X4.197Y-3.8353
X4.1978Y-3.9979
X4.1989Y-4.0621
X4.2037Y-3.642
X4.2041Y-3.7035
X4.2045Y-3.6731
X4.2107Y-3.6086
X4.2237Y-3.7287
X4.2363Y-3.5948
X4.2387Y-3.7759
X4.2395Y-3.9385
X4.2399Y-3.8365
X4.2407Y-3.9991
X4.2419Y-4.0633
X4.2511Y-3.484
X4.2631Y-3.729
X4.2643Y-3.6031
X4.271Y-3.222
X4.2808Y-3.8377
X4.2816Y-3.7078
X4.2816Y-4.0003
X4.282Y-3.7759
X4.2828Y-3.9385
X4.2828Y-4.0645
X4.2832Y-3.6314
X4.3139Y-3.6326
X4.3139Y-3.7078
X4.3222Y-4.4031
X4.3446Y-3.0153
X4.3462Y-3.0609
X4.3482Y-3.7074
X4.3493Y-3.6322
X4.3497Y-3.7495
X4.3497Y-3.7854
X4.3497Y-3.8204
X4.3497Y-3.8558
X4.3537Y-3.529
X4.3692Y-4.7897
X4.3694Y-4.3558
X4.3694Y-4.3912
X4.3694Y-4.4306
X4.3702Y-2.7243
X4.3733Y-2.9802
X4.3828Y-3.7062
X4.3848Y-3.633
X4.3856Y-3.0164
X4.3871Y-3.0621
X4.3962Y-2.8991
X4.3978Y-2.9448
X4.4009Y-3.529
X4.4111Y-2.7255
X4.4127Y-4.3361
X4.4127Y-4.3755
X4.4127Y-4.4109
X4.4143Y-2.9814
X4.4167Y-4.8862
X4.4173Y-4.9119
X4.4186Y-4.7861
X4.421Y-3.6334
X4.421Y-3.7074
X4.4371Y-2.9003
X4.4387Y-2.946
X4.4439Y-4.8521
X4.4442Y-4.1235
X4.4442Y-4.2141
X4.4442Y-4.2613
X4.4442Y-4.3007
X4.4445Y-4.8852
X4.4454Y-4.9145
X4.4482Y-3.529
X4.4521Y-4.0448
X4.4541Y-2.7267
X4.456Y-3.707
X4.4604Y-3.6338
X4.4793Y-4.8281
X4.4844Y-2.6991
X4.4867Y-3.62
X4.4875Y-3.7224
X4.4891Y-2.7373
X4.4954Y-3.529
X4.5107Y-2.6779
X4.5222Y-3.6263
X4.5222Y-3.7164
X4.53Y-2.7385
X4.5387Y-3.529
X4.5419Y-3.6905
X4.5426Y-3.8716
X4.5454Y-3.6538
X4.5505Y-3.47
X4.5525Y-3.4157
X4.573Y-2.7397
X4.6106Y-4.3598
X4.613Y-4.4232
X4.6131Y-4.942
X4.6135Y-4.8447
X4.6136Y-4.9122
X4.6139Y-2.7409
X4.6144Y-4.5444
X4.6151Y-4.6129
X4.6152Y-4.8176
X4.6155Y-4.642
X4.6161Y-4.7141
X4.6162Y-4.7457
X4.6167Y-5.0003
X4.6198Y-4.4956
T2
X3.4029Y-2.6891
X3.4226Y-4.8742
X3.4332Y-2.6161
X3.4332Y-2.7622
X3.4529Y-4.8011
X3.4529Y-4.9473
X3.5062Y-2.5858
X3.5062Y-2.7925
X3.5259Y-4.7708
X3.5259Y-4.9775
X3.5793Y-2.6161
X3.5793Y-2.7622
X3.599Y-4.8011
X3.599Y-4.9473
X3.6096Y-2.6891
X3.6293Y-4.8742
T3
X3.4438Y-4.1196
X4.3151Y-3.309
X4.567Y-3.3527
T4
X3.4208Y-4.2876
X3.4248Y-4.6852
X3.5208Y-4.2876
X3.5248Y-4.6852
T5
X3.6859Y-4.4891
X3.778Y-2.6077
X3.778Y-3.2077
X3.878Y-2.6077
X3.878Y-3.2077
X3.8828Y-4.4891
X4.1165Y-4.4869
X4.3133Y-4.4869
X4.378Y-2.6077
X4.378Y-3.2077
X4.478Y-2.6077
X4.478Y-3.2077
X4.5359Y-3.9735
X4.5359Y-4.072
X4.5359Y-4.1704
X4.5359Y-4.2688
X4.578Y-2.6077
X4.578Y-3.2077
T6
X4.4946Y-3.6708
T8
X3.5062Y-2.6891
X3.5259Y-4.8742
T7
G00X4.4891Y-4.3594
M15
G01X4.5285Y-4.3594
M16
G05
G00X4.4903Y-4.4853
M15
G01X4.5296Y-4.4853
M16
G05
T0
M30
