G04 #@! TF.GenerationSoftware,KiCad,Pcbnew,(6.0.7)*
G04 #@! TF.CreationDate,2023-02-15T16:43:35+05:30*
G04 #@! TF.ProjectId,POWER CARD,504f5745-5220-4434-9152-442e6b696361,rev?*
G04 #@! TF.SameCoordinates,Original*
G04 #@! TF.FileFunction,Legend,Bot*
G04 #@! TF.FilePolarity,Positive*
%FSLAX46Y46*%
G04 Gerber Fmt 4.6, Leading zero omitted, Abs format (unit mm)*
G04 Created by KiCad (PCBNEW (6.0.7)) date 2023-02-15 16:43:35*
%MOMM*%
%LPD*%
G01*
G04 APERTURE LIST*
%ADD10C,0.200000*%
G04 #@! TA.AperFunction,Profile*
%ADD11C,0.100000*%
G04 #@! TD*
%ADD12C,0.300000*%
%ADD13C,0.250000*%
%ADD14C,0.150000*%
%ADD15C,0.120000*%
G04 APERTURE END LIST*
D10*
X95254470Y-84499638D02*
X95711613Y-84499638D01*
X95483042Y-84499638D02*
X95483042Y-83699638D01*
X95559232Y-83813924D01*
X95635422Y-83890114D01*
X95711613Y-83928210D01*
D11*
X85582966Y-123837734D02*
G75*
G03*
X89583042Y-127837734I4000034J34D01*
G01*
X85583042Y-68337734D02*
X85583042Y-123837734D01*
X118166574Y-127837734D02*
X118166574Y-64337734D01*
X89583042Y-127837734D02*
X118166574Y-127837734D01*
X118166574Y-64337734D02*
X89583042Y-64337734D01*
X89583042Y-64337732D02*
G75*
G03*
X85583042Y-68337734I-2J-3999998D01*
G01*
X81906894Y-125643083D02*
G75*
G03*
X81906894Y-125643083I-1J0D01*
G01*
D12*
X108457327Y-65570591D02*
X108243042Y-65642019D01*
X108171613Y-65713448D01*
X108100184Y-65856305D01*
X108100184Y-66070591D01*
X108171613Y-66213448D01*
X108243042Y-66284876D01*
X108385899Y-66356305D01*
X108957327Y-66356305D01*
X108957327Y-64856305D01*
X108457327Y-64856305D01*
X108314470Y-64927734D01*
X108243042Y-64999162D01*
X108171613Y-65142019D01*
X108171613Y-65284876D01*
X108243042Y-65427734D01*
X108314470Y-65499162D01*
X108457327Y-65570591D01*
X108957327Y-65570591D01*
X107171613Y-64856305D02*
X106885899Y-64856305D01*
X106743042Y-64927734D01*
X106600184Y-65070591D01*
X106528756Y-65356305D01*
X106528756Y-65856305D01*
X106600184Y-66142019D01*
X106743042Y-66284876D01*
X106885899Y-66356305D01*
X107171613Y-66356305D01*
X107314470Y-66284876D01*
X107457327Y-66142019D01*
X107528756Y-65856305D01*
X107528756Y-65356305D01*
X107457327Y-65070591D01*
X107314470Y-64927734D01*
X107171613Y-64856305D01*
X106100184Y-64856305D02*
X105243042Y-64856305D01*
X105671613Y-66356305D02*
X105671613Y-64856305D01*
X104957327Y-64856305D02*
X104100184Y-64856305D01*
X104528756Y-66356305D02*
X104528756Y-64856305D01*
X103314470Y-64856305D02*
X103028756Y-64856305D01*
X102885899Y-64927734D01*
X102743042Y-65070591D01*
X102671613Y-65356305D01*
X102671613Y-65856305D01*
X102743042Y-66142019D01*
X102885899Y-66284876D01*
X103028756Y-66356305D01*
X103314470Y-66356305D01*
X103457327Y-66284876D01*
X103600184Y-66142019D01*
X103671613Y-65856305D01*
X103671613Y-65356305D01*
X103600184Y-65070591D01*
X103457327Y-64927734D01*
X103314470Y-64856305D01*
X102028756Y-66356305D02*
X102028756Y-64856305D01*
X101528756Y-65927734D01*
X101028756Y-64856305D01*
X101028756Y-66356305D01*
D10*
X115802089Y-95048591D02*
X115687803Y-95086686D01*
X115649708Y-95124781D01*
X115611613Y-95200972D01*
X115611613Y-95315257D01*
X115649708Y-95391448D01*
X115687803Y-95429543D01*
X115763994Y-95467638D01*
X116068756Y-95467638D01*
X116068756Y-94667638D01*
X115802089Y-94667638D01*
X115725899Y-94705734D01*
X115687803Y-94743829D01*
X115649708Y-94820019D01*
X115649708Y-94896210D01*
X115687803Y-94972400D01*
X115725899Y-95010495D01*
X115802089Y-95048591D01*
X116068756Y-95048591D01*
X115154470Y-95467638D02*
X115230661Y-95429543D01*
X115268756Y-95353353D01*
X115268756Y-94667638D01*
X114506851Y-95467638D02*
X114506851Y-95048591D01*
X114544946Y-94972400D01*
X114621137Y-94934305D01*
X114773518Y-94934305D01*
X114849708Y-94972400D01*
X114506851Y-95429543D02*
X114583042Y-95467638D01*
X114773518Y-95467638D01*
X114849708Y-95429543D01*
X114887803Y-95353353D01*
X114887803Y-95277162D01*
X114849708Y-95200972D01*
X114773518Y-95162876D01*
X114583042Y-95162876D01*
X114506851Y-95124781D01*
X113783042Y-95429543D02*
X113859232Y-95467638D01*
X114011613Y-95467638D01*
X114087803Y-95429543D01*
X114125899Y-95391448D01*
X114163994Y-95315257D01*
X114163994Y-95086686D01*
X114125899Y-95010495D01*
X114087803Y-94972400D01*
X114011613Y-94934305D01*
X113859232Y-94934305D01*
X113783042Y-94972400D01*
X113440184Y-95467638D02*
X113440184Y-94667638D01*
X113363994Y-95162876D02*
X113135422Y-95467638D01*
X113135422Y-94934305D02*
X113440184Y-95239067D01*
X112449708Y-95429543D02*
X112525899Y-95467638D01*
X112678280Y-95467638D01*
X112754470Y-95429543D01*
X112792565Y-95391448D01*
X112830661Y-95315257D01*
X112830661Y-95086686D01*
X112792565Y-95010495D01*
X112754470Y-94972400D01*
X112678280Y-94934305D01*
X112525899Y-94934305D01*
X112449708Y-94972400D01*
X111763994Y-95467638D02*
X111763994Y-95048591D01*
X111802089Y-94972400D01*
X111878280Y-94934305D01*
X112030661Y-94934305D01*
X112106851Y-94972400D01*
X111763994Y-95429543D02*
X111840184Y-95467638D01*
X112030661Y-95467638D01*
X112106851Y-95429543D01*
X112144946Y-95353353D01*
X112144946Y-95277162D01*
X112106851Y-95200972D01*
X112030661Y-95162876D01*
X111840184Y-95162876D01*
X111763994Y-95124781D01*
X111497327Y-94934305D02*
X111192565Y-94934305D01*
X111383042Y-94667638D02*
X111383042Y-95353353D01*
X111344946Y-95429543D01*
X111268756Y-95467638D01*
X111192565Y-95467638D01*
X115116375Y-95993734D02*
X115192565Y-95955638D01*
X115306851Y-95955638D01*
X115421137Y-95993734D01*
X115497327Y-96069924D01*
X115535422Y-96146114D01*
X115573518Y-96298495D01*
X115573518Y-96412781D01*
X115535422Y-96565162D01*
X115497327Y-96641353D01*
X115421137Y-96717543D01*
X115306851Y-96755638D01*
X115230661Y-96755638D01*
X115116375Y-96717543D01*
X115078280Y-96679448D01*
X115078280Y-96412781D01*
X115230661Y-96412781D01*
X114773518Y-96717543D02*
X114659232Y-96755638D01*
X114468756Y-96755638D01*
X114392565Y-96717543D01*
X114354470Y-96679448D01*
X114316375Y-96603257D01*
X114316375Y-96527067D01*
X114354470Y-96450876D01*
X114392565Y-96412781D01*
X114468756Y-96374686D01*
X114621137Y-96336591D01*
X114697327Y-96298495D01*
X114735422Y-96260400D01*
X114773518Y-96184210D01*
X114773518Y-96108019D01*
X114735422Y-96031829D01*
X114697327Y-95993734D01*
X114621137Y-95955638D01*
X114430661Y-95955638D01*
X114316375Y-95993734D01*
X113973518Y-96755638D02*
X113973518Y-95955638D01*
X113706851Y-96527067D01*
X113440184Y-95955638D01*
X113440184Y-96755638D01*
X112449708Y-96755638D02*
X112449708Y-95955638D01*
X112144946Y-95955638D01*
X112068756Y-95993734D01*
X112030661Y-96031829D01*
X111992565Y-96108019D01*
X111992565Y-96222305D01*
X112030661Y-96298495D01*
X112068756Y-96336591D01*
X112144946Y-96374686D01*
X112449708Y-96374686D01*
X111192565Y-96679448D02*
X111230661Y-96717543D01*
X111344946Y-96755638D01*
X111421137Y-96755638D01*
X111535422Y-96717543D01*
X111611613Y-96641353D01*
X111649708Y-96565162D01*
X111687803Y-96412781D01*
X111687803Y-96298495D01*
X111649708Y-96146114D01*
X111611613Y-96069924D01*
X111535422Y-95993734D01*
X111421137Y-95955638D01*
X111344946Y-95955638D01*
X111230661Y-95993734D01*
X111192565Y-96031829D01*
X115497327Y-97624591D02*
X115763994Y-97624591D01*
X115763994Y-98043638D02*
X115763994Y-97243638D01*
X115383042Y-97243638D01*
X114773518Y-98005543D02*
X114849708Y-98043638D01*
X115002089Y-98043638D01*
X115078280Y-98005543D01*
X115116375Y-97929353D01*
X115116375Y-97624591D01*
X115078280Y-97548400D01*
X115002089Y-97510305D01*
X114849708Y-97510305D01*
X114773518Y-97548400D01*
X114735422Y-97624591D01*
X114735422Y-97700781D01*
X115116375Y-97776972D01*
X114392565Y-98043638D02*
X114392565Y-97243638D01*
X114392565Y-97548400D02*
X114316375Y-97510305D01*
X114163994Y-97510305D01*
X114087803Y-97548400D01*
X114049708Y-97586495D01*
X114011613Y-97662686D01*
X114011613Y-97891257D01*
X114049708Y-97967448D01*
X114087803Y-98005543D01*
X114163994Y-98043638D01*
X114316375Y-98043638D01*
X114392565Y-98005543D01*
X113706851Y-97319829D02*
X113668756Y-97281734D01*
X113592565Y-97243638D01*
X113402089Y-97243638D01*
X113325899Y-97281734D01*
X113287803Y-97319829D01*
X113249708Y-97396019D01*
X113249708Y-97472210D01*
X113287803Y-97586495D01*
X113744946Y-98043638D01*
X113249708Y-98043638D01*
X112754470Y-97243638D02*
X112678280Y-97243638D01*
X112602089Y-97281734D01*
X112563994Y-97319829D01*
X112525899Y-97396019D01*
X112487803Y-97548400D01*
X112487803Y-97738876D01*
X112525899Y-97891257D01*
X112563994Y-97967448D01*
X112602089Y-98005543D01*
X112678280Y-98043638D01*
X112754470Y-98043638D01*
X112830661Y-98005543D01*
X112868756Y-97967448D01*
X112906851Y-97891257D01*
X112944946Y-97738876D01*
X112944946Y-97548400D01*
X112906851Y-97396019D01*
X112868756Y-97319829D01*
X112830661Y-97281734D01*
X112754470Y-97243638D01*
X112183042Y-97319829D02*
X112144946Y-97281734D01*
X112068756Y-97243638D01*
X111878280Y-97243638D01*
X111802089Y-97281734D01*
X111763994Y-97319829D01*
X111725899Y-97396019D01*
X111725899Y-97472210D01*
X111763994Y-97586495D01*
X112221137Y-98043638D01*
X111725899Y-98043638D01*
X111459232Y-97243638D02*
X110963994Y-97243638D01*
X111230661Y-97548400D01*
X111116375Y-97548400D01*
X111040184Y-97586495D01*
X111002089Y-97624591D01*
X110963994Y-97700781D01*
X110963994Y-97891257D01*
X111002089Y-97967448D01*
X111040184Y-98005543D01*
X111116375Y-98043638D01*
X111344946Y-98043638D01*
X111421137Y-98005543D01*
X111459232Y-97967448D01*
X117706851Y-99293543D02*
X117592565Y-99331638D01*
X117402089Y-99331638D01*
X117325899Y-99293543D01*
X117287803Y-99255448D01*
X117249708Y-99179257D01*
X117249708Y-99103067D01*
X117287803Y-99026876D01*
X117325899Y-98988781D01*
X117402089Y-98950686D01*
X117554470Y-98912591D01*
X117630661Y-98874495D01*
X117668756Y-98836400D01*
X117706851Y-98760210D01*
X117706851Y-98684019D01*
X117668756Y-98607829D01*
X117630661Y-98569734D01*
X117554470Y-98531638D01*
X117363994Y-98531638D01*
X117249708Y-98569734D01*
X116563994Y-99331638D02*
X116563994Y-98912591D01*
X116602089Y-98836400D01*
X116678280Y-98798305D01*
X116830661Y-98798305D01*
X116906851Y-98836400D01*
X116563994Y-99293543D02*
X116640184Y-99331638D01*
X116830661Y-99331638D01*
X116906851Y-99293543D01*
X116944946Y-99217353D01*
X116944946Y-99141162D01*
X116906851Y-99064972D01*
X116830661Y-99026876D01*
X116640184Y-99026876D01*
X116563994Y-98988781D01*
X116221137Y-99293543D02*
X116144946Y-99331638D01*
X115992565Y-99331638D01*
X115916375Y-99293543D01*
X115878280Y-99217353D01*
X115878280Y-99179257D01*
X115916375Y-99103067D01*
X115992565Y-99064972D01*
X116106851Y-99064972D01*
X116183042Y-99026876D01*
X116221137Y-98950686D01*
X116221137Y-98912591D01*
X116183042Y-98836400D01*
X116106851Y-98798305D01*
X115992565Y-98798305D01*
X115916375Y-98836400D01*
X115611613Y-98798305D02*
X115421137Y-99331638D01*
X115230661Y-98798305D02*
X115421137Y-99331638D01*
X115497327Y-99522114D01*
X115535422Y-99560210D01*
X115611613Y-99598305D01*
X114583042Y-99331638D02*
X114583042Y-98912591D01*
X114621137Y-98836400D01*
X114697327Y-98798305D01*
X114849708Y-98798305D01*
X114925899Y-98836400D01*
X114583042Y-99293543D02*
X114659232Y-99331638D01*
X114849708Y-99331638D01*
X114925899Y-99293543D01*
X114963994Y-99217353D01*
X114963994Y-99141162D01*
X114925899Y-99064972D01*
X114849708Y-99026876D01*
X114659232Y-99026876D01*
X114583042Y-98988781D01*
X113630661Y-99293543D02*
X113516375Y-99331638D01*
X113325899Y-99331638D01*
X113249708Y-99293543D01*
X113211613Y-99255448D01*
X113173518Y-99179257D01*
X113173518Y-99103067D01*
X113211613Y-99026876D01*
X113249708Y-98988781D01*
X113325899Y-98950686D01*
X113478280Y-98912591D01*
X113554470Y-98874495D01*
X113592565Y-98836400D01*
X113630661Y-98760210D01*
X113630661Y-98684019D01*
X113592565Y-98607829D01*
X113554470Y-98569734D01*
X113478280Y-98531638D01*
X113287803Y-98531638D01*
X113173518Y-98569734D01*
X112906851Y-98798305D02*
X112716375Y-99331638D01*
X112525899Y-98798305D02*
X112716375Y-99331638D01*
X112792565Y-99522114D01*
X112830661Y-99560210D01*
X112906851Y-99598305D01*
X112259232Y-99293543D02*
X112183042Y-99331638D01*
X112030661Y-99331638D01*
X111954470Y-99293543D01*
X111916375Y-99217353D01*
X111916375Y-99179257D01*
X111954470Y-99103067D01*
X112030661Y-99064972D01*
X112144946Y-99064972D01*
X112221137Y-99026876D01*
X112259232Y-98950686D01*
X112259232Y-98912591D01*
X112221137Y-98836400D01*
X112144946Y-98798305D01*
X112030661Y-98798305D01*
X111954470Y-98836400D01*
X111687803Y-98798305D02*
X111383042Y-98798305D01*
X111573518Y-98531638D02*
X111573518Y-99217353D01*
X111535422Y-99293543D01*
X111459232Y-99331638D01*
X111383042Y-99331638D01*
X110811613Y-99293543D02*
X110887803Y-99331638D01*
X111040184Y-99331638D01*
X111116375Y-99293543D01*
X111154470Y-99217353D01*
X111154470Y-98912591D01*
X111116375Y-98836400D01*
X111040184Y-98798305D01*
X110887803Y-98798305D01*
X110811613Y-98836400D01*
X110773518Y-98912591D01*
X110773518Y-98988781D01*
X111154470Y-99064972D01*
X110430661Y-99331638D02*
X110430661Y-98798305D01*
X110430661Y-98874495D02*
X110392565Y-98836400D01*
X110316375Y-98798305D01*
X110202089Y-98798305D01*
X110125899Y-98836400D01*
X110087803Y-98912591D01*
X110087803Y-99331638D01*
X110087803Y-98912591D02*
X110049708Y-98836400D01*
X109973518Y-98798305D01*
X109859232Y-98798305D01*
X109783042Y-98836400D01*
X109744946Y-98912591D01*
X109744946Y-99331638D01*
X109402089Y-99293543D02*
X109325899Y-99331638D01*
X109173518Y-99331638D01*
X109097327Y-99293543D01*
X109059232Y-99217353D01*
X109059232Y-99179257D01*
X109097327Y-99103067D01*
X109173518Y-99064972D01*
X109287803Y-99064972D01*
X109363994Y-99026876D01*
X109402089Y-98950686D01*
X109402089Y-98912591D01*
X109363994Y-98836400D01*
X109287803Y-98798305D01*
X109173518Y-98798305D01*
X109097327Y-98836400D01*
X86863994Y-95266305D02*
X86102089Y-95266305D01*
X93954470Y-73369638D02*
X94411613Y-73369638D01*
X94183042Y-73369638D02*
X94183042Y-72569638D01*
X94259232Y-72683924D01*
X94335422Y-72760114D01*
X94411613Y-72798210D01*
D13*
X90507803Y-105690114D02*
X89936375Y-105690114D01*
X90222089Y-106690114D02*
X90222089Y-105690114D01*
X89603042Y-106690114D02*
X89603042Y-105690114D01*
X89222089Y-105690114D01*
X89126851Y-105737734D01*
X89079232Y-105785353D01*
X89031613Y-105880591D01*
X89031613Y-106023448D01*
X89079232Y-106118686D01*
X89126851Y-106166305D01*
X89222089Y-106213924D01*
X89603042Y-106213924D01*
X88174470Y-106023448D02*
X88174470Y-106690114D01*
X88412565Y-105642495D02*
X88650661Y-106356781D01*
X88031613Y-106356781D01*
X87650661Y-106594876D02*
X87603042Y-106642495D01*
X87650661Y-106690114D01*
X87698280Y-106642495D01*
X87650661Y-106594876D01*
X87650661Y-106690114D01*
X87222089Y-105785353D02*
X87174470Y-105737734D01*
X87079232Y-105690114D01*
X86841137Y-105690114D01*
X86745899Y-105737734D01*
X86698280Y-105785353D01*
X86650661Y-105880591D01*
X86650661Y-105975829D01*
X86698280Y-106118686D01*
X87269708Y-106690114D01*
X86650661Y-106690114D01*
X86364946Y-105690114D02*
X86031613Y-106690114D01*
X85698280Y-105690114D01*
X117571137Y-82900114D02*
X116952089Y-82900114D01*
X117285422Y-83281067D01*
X117142565Y-83281067D01*
X117047327Y-83328686D01*
X116999708Y-83376305D01*
X116952089Y-83471543D01*
X116952089Y-83709638D01*
X116999708Y-83804876D01*
X117047327Y-83852495D01*
X117142565Y-83900114D01*
X117428280Y-83900114D01*
X117523518Y-83852495D01*
X117571137Y-83804876D01*
X116666375Y-82900114D02*
X116333042Y-83900114D01*
X115999708Y-82900114D01*
X115761613Y-82900114D02*
X115142565Y-82900114D01*
X115475899Y-83281067D01*
X115333042Y-83281067D01*
X115237803Y-83328686D01*
X115190184Y-83376305D01*
X115142565Y-83471543D01*
X115142565Y-83709638D01*
X115190184Y-83804876D01*
X115237803Y-83852495D01*
X115333042Y-83900114D01*
X115618756Y-83900114D01*
X115713994Y-83852495D01*
X115761613Y-83804876D01*
D10*
X110286851Y-81999638D02*
X109829708Y-81999638D01*
X110058280Y-82799638D02*
X110058280Y-81999638D01*
X109563042Y-82799638D02*
X109563042Y-81999638D01*
X109258280Y-81999638D01*
X109182089Y-82037734D01*
X109143994Y-82075829D01*
X109105899Y-82152019D01*
X109105899Y-82266305D01*
X109143994Y-82342495D01*
X109182089Y-82380591D01*
X109258280Y-82418686D01*
X109563042Y-82418686D01*
X108801137Y-82075829D02*
X108763042Y-82037734D01*
X108686851Y-81999638D01*
X108496375Y-81999638D01*
X108420184Y-82037734D01*
X108382089Y-82075829D01*
X108343994Y-82152019D01*
X108343994Y-82228210D01*
X108382089Y-82342495D01*
X108839232Y-82799638D01*
X108343994Y-82799638D01*
X108001137Y-82723448D02*
X107963042Y-82761543D01*
X108001137Y-82799638D01*
X108039232Y-82761543D01*
X108001137Y-82723448D01*
X108001137Y-82799638D01*
X107505899Y-82342495D02*
X107582089Y-82304400D01*
X107620184Y-82266305D01*
X107658280Y-82190114D01*
X107658280Y-82152019D01*
X107620184Y-82075829D01*
X107582089Y-82037734D01*
X107505899Y-81999638D01*
X107353518Y-81999638D01*
X107277327Y-82037734D01*
X107239232Y-82075829D01*
X107201137Y-82152019D01*
X107201137Y-82190114D01*
X107239232Y-82266305D01*
X107277327Y-82304400D01*
X107353518Y-82342495D01*
X107505899Y-82342495D01*
X107582089Y-82380591D01*
X107620184Y-82418686D01*
X107658280Y-82494876D01*
X107658280Y-82647257D01*
X107620184Y-82723448D01*
X107582089Y-82761543D01*
X107505899Y-82799638D01*
X107353518Y-82799638D01*
X107277327Y-82761543D01*
X107239232Y-82723448D01*
X107201137Y-82647257D01*
X107201137Y-82494876D01*
X107239232Y-82418686D01*
X107277327Y-82380591D01*
X107353518Y-82342495D01*
X106972565Y-81999638D02*
X106705899Y-82799638D01*
X106439232Y-81999638D01*
D13*
X117164946Y-67827734D02*
X117260184Y-67780114D01*
X117403042Y-67780114D01*
X117545899Y-67827734D01*
X117641137Y-67922972D01*
X117688756Y-68018210D01*
X117736375Y-68208686D01*
X117736375Y-68351543D01*
X117688756Y-68542019D01*
X117641137Y-68637257D01*
X117545899Y-68732495D01*
X117403042Y-68780114D01*
X117307803Y-68780114D01*
X117164946Y-68732495D01*
X117117327Y-68684876D01*
X117117327Y-68351543D01*
X117307803Y-68351543D01*
X116688756Y-68780114D02*
X116688756Y-67780114D01*
X116117327Y-68780114D01*
X116117327Y-67780114D01*
X115641137Y-68780114D02*
X115641137Y-67780114D01*
X115403042Y-67780114D01*
X115260184Y-67827734D01*
X115164946Y-67922972D01*
X115117327Y-68018210D01*
X115069708Y-68208686D01*
X115069708Y-68351543D01*
X115117327Y-68542019D01*
X115164946Y-68637257D01*
X115260184Y-68732495D01*
X115403042Y-68780114D01*
X115641137Y-68780114D01*
X117064946Y-86397734D02*
X117160184Y-86350114D01*
X117303042Y-86350114D01*
X117445899Y-86397734D01*
X117541137Y-86492972D01*
X117588756Y-86588210D01*
X117636375Y-86778686D01*
X117636375Y-86921543D01*
X117588756Y-87112019D01*
X117541137Y-87207257D01*
X117445899Y-87302495D01*
X117303042Y-87350114D01*
X117207803Y-87350114D01*
X117064946Y-87302495D01*
X117017327Y-87254876D01*
X117017327Y-86921543D01*
X117207803Y-86921543D01*
X116588756Y-87350114D02*
X116588756Y-86350114D01*
X116017327Y-87350114D01*
X116017327Y-86350114D01*
X115541137Y-87350114D02*
X115541137Y-86350114D01*
X115303042Y-86350114D01*
X115160184Y-86397734D01*
X115064946Y-86492972D01*
X115017327Y-86588210D01*
X114969708Y-86778686D01*
X114969708Y-86921543D01*
X115017327Y-87112019D01*
X115064946Y-87207257D01*
X115160184Y-87302495D01*
X115303042Y-87350114D01*
X115541137Y-87350114D01*
D12*
X109024470Y-108296305D02*
X109881613Y-108296305D01*
X109453042Y-108296305D02*
X109453042Y-106796305D01*
X109595899Y-107010591D01*
X109738756Y-107153448D01*
X109881613Y-107224876D01*
D14*
X98958280Y-70735353D02*
X99053518Y-70687734D01*
X99148756Y-70592495D01*
X99291613Y-70449638D01*
X99386851Y-70402019D01*
X99482089Y-70402019D01*
X99434470Y-70640114D02*
X99529708Y-70592495D01*
X99624946Y-70497257D01*
X99672565Y-70306781D01*
X99672565Y-69973448D01*
X99624946Y-69782972D01*
X99529708Y-69687734D01*
X99434470Y-69640114D01*
X99243994Y-69640114D01*
X99148756Y-69687734D01*
X99053518Y-69782972D01*
X99005899Y-69973448D01*
X99005899Y-70306781D01*
X99053518Y-70497257D01*
X99148756Y-70592495D01*
X99243994Y-70640114D01*
X99434470Y-70640114D01*
X98624946Y-69735353D02*
X98577327Y-69687734D01*
X98482089Y-69640114D01*
X98243994Y-69640114D01*
X98148756Y-69687734D01*
X98101137Y-69735353D01*
X98053518Y-69830591D01*
X98053518Y-69925829D01*
X98101137Y-70068686D01*
X98672565Y-70640114D01*
X98053518Y-70640114D01*
X104315422Y-68319638D02*
X104315422Y-67519638D01*
X104048756Y-68091067D01*
X103782089Y-67519638D01*
X103782089Y-68319638D01*
X103401137Y-68319638D02*
X103401137Y-67519638D01*
X103134470Y-68091067D01*
X102867803Y-67519638D01*
X102867803Y-68319638D01*
X102220184Y-67900591D02*
X102105899Y-67938686D01*
X102067803Y-67976781D01*
X102029708Y-68052972D01*
X102029708Y-68167257D01*
X102067803Y-68243448D01*
X102105899Y-68281543D01*
X102182089Y-68319638D01*
X102486851Y-68319638D01*
X102486851Y-67519638D01*
X102220184Y-67519638D01*
X102143994Y-67557734D01*
X102105899Y-67595829D01*
X102067803Y-67672019D01*
X102067803Y-67748210D01*
X102105899Y-67824400D01*
X102143994Y-67862495D01*
X102220184Y-67900591D01*
X102486851Y-67900591D01*
X101801137Y-67519638D02*
X101343994Y-67519638D01*
X101572565Y-68319638D02*
X101572565Y-67519638D01*
X101153518Y-67519638D02*
X100658280Y-67519638D01*
X100924946Y-67824400D01*
X100810661Y-67824400D01*
X100734470Y-67862495D01*
X100696375Y-67900591D01*
X100658280Y-67976781D01*
X100658280Y-68167257D01*
X100696375Y-68243448D01*
X100734470Y-68281543D01*
X100810661Y-68319638D01*
X101039232Y-68319638D01*
X101115422Y-68281543D01*
X101153518Y-68243448D01*
X100277327Y-68319638D02*
X100124946Y-68319638D01*
X100048756Y-68281543D01*
X100010661Y-68243448D01*
X99934470Y-68129162D01*
X99896375Y-67976781D01*
X99896375Y-67672019D01*
X99934470Y-67595829D01*
X99972565Y-67557734D01*
X100048756Y-67519638D01*
X100201137Y-67519638D01*
X100277327Y-67557734D01*
X100315422Y-67595829D01*
X100353518Y-67672019D01*
X100353518Y-67862495D01*
X100315422Y-67938686D01*
X100277327Y-67976781D01*
X100201137Y-68014876D01*
X100048756Y-68014876D01*
X99972565Y-67976781D01*
X99934470Y-67938686D01*
X99896375Y-67862495D01*
X99401137Y-67519638D02*
X99324946Y-67519638D01*
X99248756Y-67557734D01*
X99210661Y-67595829D01*
X99172565Y-67672019D01*
X99134470Y-67824400D01*
X99134470Y-68014876D01*
X99172565Y-68167257D01*
X99210661Y-68243448D01*
X99248756Y-68281543D01*
X99324946Y-68319638D01*
X99401137Y-68319638D01*
X99477327Y-68281543D01*
X99515422Y-68243448D01*
X99553518Y-68167257D01*
X99591613Y-68014876D01*
X99591613Y-67824400D01*
X99553518Y-67672019D01*
X99515422Y-67595829D01*
X99477327Y-67557734D01*
X99401137Y-67519638D01*
X98448756Y-67786305D02*
X98448756Y-68319638D01*
X98639232Y-67481543D02*
X98829708Y-68052972D01*
X98334470Y-68052972D01*
X101532013Y-113780613D02*
X101865347Y-113304423D01*
X102103442Y-113780613D02*
X102103442Y-112780613D01*
X101722489Y-112780613D01*
X101627251Y-112828233D01*
X101579632Y-112875852D01*
X101532013Y-112971090D01*
X101532013Y-113113947D01*
X101579632Y-113209185D01*
X101627251Y-113256804D01*
X101722489Y-113304423D01*
X102103442Y-113304423D01*
X101151061Y-112875852D02*
X101103442Y-112828233D01*
X101008204Y-112780613D01*
X100770108Y-112780613D01*
X100674870Y-112828233D01*
X100627251Y-112875852D01*
X100579632Y-112971090D01*
X100579632Y-113066328D01*
X100627251Y-113209185D01*
X101198680Y-113780613D01*
X100579632Y-113780613D01*
X101579632Y-110480613D02*
X102151061Y-110480613D01*
X101865347Y-110480613D02*
X101865347Y-109480613D01*
X101960585Y-109623471D01*
X102055823Y-109718709D01*
X102151061Y-109766328D01*
X101151061Y-110480613D02*
X101151061Y-109480613D01*
X100579632Y-110480613D02*
X101008204Y-109909185D01*
X100579632Y-109480613D02*
X101151061Y-110052042D01*
X105787327Y-89053448D02*
X105825422Y-89091543D01*
X105939708Y-89129638D01*
X106015899Y-89129638D01*
X106130184Y-89091543D01*
X106206375Y-89015353D01*
X106244470Y-88939162D01*
X106282565Y-88786781D01*
X106282565Y-88672495D01*
X106244470Y-88520114D01*
X106206375Y-88443924D01*
X106130184Y-88367734D01*
X106015899Y-88329638D01*
X105939708Y-88329638D01*
X105825422Y-88367734D01*
X105787327Y-88405829D01*
X105025422Y-89129638D02*
X105482565Y-89129638D01*
X105253994Y-89129638D02*
X105253994Y-88329638D01*
X105330184Y-88443924D01*
X105406375Y-88520114D01*
X105482565Y-88558210D01*
X104530184Y-88329638D02*
X104453994Y-88329638D01*
X104377803Y-88367734D01*
X104339708Y-88405829D01*
X104301613Y-88482019D01*
X104263518Y-88634400D01*
X104263518Y-88824876D01*
X104301613Y-88977257D01*
X104339708Y-89053448D01*
X104377803Y-89091543D01*
X104453994Y-89129638D01*
X104530184Y-89129638D01*
X104606375Y-89091543D01*
X104644470Y-89053448D01*
X104682565Y-88977257D01*
X104720661Y-88824876D01*
X104720661Y-88634400D01*
X104682565Y-88482019D01*
X104644470Y-88405829D01*
X104606375Y-88367734D01*
X104530184Y-88329638D01*
X105894946Y-82000591D02*
X105894946Y-81543448D01*
X105894946Y-81772019D02*
X105094946Y-81772019D01*
X105209232Y-81695829D01*
X105285422Y-81619638D01*
X105323518Y-81543448D01*
X105094946Y-82495829D02*
X105094946Y-82572019D01*
X105133042Y-82648210D01*
X105171137Y-82686305D01*
X105247327Y-82724400D01*
X105399708Y-82762495D01*
X105590184Y-82762495D01*
X105742565Y-82724400D01*
X105818756Y-82686305D01*
X105856851Y-82648210D01*
X105894946Y-82572019D01*
X105894946Y-82495829D01*
X105856851Y-82419638D01*
X105818756Y-82381543D01*
X105742565Y-82343448D01*
X105590184Y-82305353D01*
X105399708Y-82305353D01*
X105247327Y-82343448D01*
X105171137Y-82381543D01*
X105133042Y-82419638D01*
X105094946Y-82495829D01*
X105361613Y-83448210D02*
X105894946Y-83448210D01*
X105361613Y-83105353D02*
X105780661Y-83105353D01*
X105856851Y-83143448D01*
X105894946Y-83219638D01*
X105894946Y-83333924D01*
X105856851Y-83410114D01*
X105818756Y-83448210D01*
X105475899Y-84095829D02*
X105475899Y-83829162D01*
X105894946Y-83829162D02*
X105094946Y-83829162D01*
X105094946Y-84210114D01*
X99105899Y-76640114D02*
X99439232Y-76163924D01*
X99677327Y-76640114D02*
X99677327Y-75640114D01*
X99296375Y-75640114D01*
X99201137Y-75687734D01*
X99153518Y-75735353D01*
X99105899Y-75830591D01*
X99105899Y-75973448D01*
X99153518Y-76068686D01*
X99201137Y-76116305D01*
X99296375Y-76163924D01*
X99677327Y-76163924D01*
X98153518Y-76640114D02*
X98724946Y-76640114D01*
X98439232Y-76640114D02*
X98439232Y-75640114D01*
X98534470Y-75782972D01*
X98629708Y-75878210D01*
X98724946Y-75925829D01*
X97248756Y-75640114D02*
X97724946Y-75640114D01*
X97772565Y-76116305D01*
X97724946Y-76068686D01*
X97629708Y-76021067D01*
X97391613Y-76021067D01*
X97296375Y-76068686D01*
X97248756Y-76116305D01*
X97201137Y-76211543D01*
X97201137Y-76449638D01*
X97248756Y-76544876D01*
X97296375Y-76592495D01*
X97391613Y-76640114D01*
X97629708Y-76640114D01*
X97724946Y-76592495D01*
X97772565Y-76544876D01*
X102523518Y-77960114D02*
X103094946Y-77960114D01*
X102809232Y-77960114D02*
X102809232Y-76960114D01*
X102904470Y-77102972D01*
X102999708Y-77198210D01*
X103094946Y-77245829D01*
X101904470Y-76960114D02*
X101809232Y-76960114D01*
X101713994Y-77007734D01*
X101666375Y-77055353D01*
X101618756Y-77150591D01*
X101571137Y-77341067D01*
X101571137Y-77579162D01*
X101618756Y-77769638D01*
X101666375Y-77864876D01*
X101713994Y-77912495D01*
X101809232Y-77960114D01*
X101904470Y-77960114D01*
X101999708Y-77912495D01*
X102047327Y-77864876D01*
X102094946Y-77769638D01*
X102142565Y-77579162D01*
X102142565Y-77341067D01*
X102094946Y-77150591D01*
X102047327Y-77055353D01*
X101999708Y-77007734D01*
X101904470Y-76960114D01*
X101142565Y-77960114D02*
X101142565Y-76960114D01*
X100571137Y-77960114D02*
X100999708Y-77388686D01*
X100571137Y-76960114D02*
X101142565Y-77531543D01*
X107956375Y-84119638D02*
X108223042Y-83738686D01*
X108413518Y-84119638D02*
X108413518Y-83319638D01*
X108108756Y-83319638D01*
X108032565Y-83357734D01*
X107994470Y-83395829D01*
X107956375Y-83472019D01*
X107956375Y-83586305D01*
X107994470Y-83662495D01*
X108032565Y-83700591D01*
X108108756Y-83738686D01*
X108413518Y-83738686D01*
X107689708Y-83319638D02*
X107156375Y-83319638D01*
X107499232Y-84119638D01*
X108445422Y-89079638D02*
X108902565Y-89079638D01*
X108673994Y-89079638D02*
X108673994Y-88279638D01*
X108750184Y-88393924D01*
X108826375Y-88470114D01*
X108902565Y-88508210D01*
X107950184Y-88279638D02*
X107873994Y-88279638D01*
X107797803Y-88317734D01*
X107759708Y-88355829D01*
X107721613Y-88432019D01*
X107683518Y-88584400D01*
X107683518Y-88774876D01*
X107721613Y-88927257D01*
X107759708Y-89003448D01*
X107797803Y-89041543D01*
X107873994Y-89079638D01*
X107950184Y-89079638D01*
X108026375Y-89041543D01*
X108064470Y-89003448D01*
X108102565Y-88927257D01*
X108140661Y-88774876D01*
X108140661Y-88584400D01*
X108102565Y-88432019D01*
X108064470Y-88355829D01*
X108026375Y-88317734D01*
X107950184Y-88279638D01*
X107340661Y-89079638D02*
X107340661Y-88279638D01*
X106883518Y-89079638D02*
X107226375Y-88622495D01*
X106883518Y-88279638D02*
X107340661Y-88736781D01*
X117316375Y-119183448D02*
X117354470Y-119221543D01*
X117468756Y-119259638D01*
X117544946Y-119259638D01*
X117659232Y-119221543D01*
X117735422Y-119145353D01*
X117773518Y-119069162D01*
X117811613Y-118916781D01*
X117811613Y-118802495D01*
X117773518Y-118650114D01*
X117735422Y-118573924D01*
X117659232Y-118497734D01*
X117544946Y-118459638D01*
X117468756Y-118459638D01*
X117354470Y-118497734D01*
X117316375Y-118535829D01*
X117049708Y-118459638D02*
X116516375Y-118459638D01*
X116859232Y-119259638D01*
X112799708Y-119074400D02*
X113199708Y-119074400D01*
X112999708Y-119074400D02*
X112999708Y-118374400D01*
X113066375Y-118474400D01*
X113133042Y-118541067D01*
X113199708Y-118574400D01*
X112366375Y-118374400D02*
X112299708Y-118374400D01*
X112233042Y-118407734D01*
X112199708Y-118441067D01*
X112166375Y-118507734D01*
X112133042Y-118641067D01*
X112133042Y-118807734D01*
X112166375Y-118941067D01*
X112199708Y-119007734D01*
X112233042Y-119041067D01*
X112299708Y-119074400D01*
X112366375Y-119074400D01*
X112433042Y-119041067D01*
X112466375Y-119007734D01*
X112499708Y-118941067D01*
X112533042Y-118807734D01*
X112533042Y-118641067D01*
X112499708Y-118507734D01*
X112466375Y-118441067D01*
X112433042Y-118407734D01*
X112366375Y-118374400D01*
X111699708Y-118374400D02*
X111633042Y-118374400D01*
X111566375Y-118407734D01*
X111533042Y-118441067D01*
X111499708Y-118507734D01*
X111466375Y-118641067D01*
X111466375Y-118807734D01*
X111499708Y-118941067D01*
X111533042Y-119007734D01*
X111566375Y-119041067D01*
X111633042Y-119074400D01*
X111699708Y-119074400D01*
X111766375Y-119041067D01*
X111799708Y-119007734D01*
X111833042Y-118941067D01*
X111866375Y-118807734D01*
X111866375Y-118641067D01*
X111833042Y-118507734D01*
X111799708Y-118441067D01*
X111766375Y-118407734D01*
X111699708Y-118374400D01*
X111166375Y-119074400D02*
X111166375Y-118374400D01*
X110899708Y-118374400D01*
X110833042Y-118407734D01*
X110799708Y-118441067D01*
X110766375Y-118507734D01*
X110766375Y-118607734D01*
X110799708Y-118674400D01*
X110833042Y-118707734D01*
X110899708Y-118741067D01*
X111166375Y-118741067D01*
X110233042Y-118707734D02*
X110466375Y-118707734D01*
X110466375Y-119074400D02*
X110466375Y-118374400D01*
X110133042Y-118374400D01*
X105647327Y-75839638D02*
X105913994Y-75458686D01*
X106104470Y-75839638D02*
X106104470Y-75039638D01*
X105799708Y-75039638D01*
X105723518Y-75077734D01*
X105685422Y-75115829D01*
X105647327Y-75192019D01*
X105647327Y-75306305D01*
X105685422Y-75382495D01*
X105723518Y-75420591D01*
X105799708Y-75458686D01*
X106104470Y-75458686D01*
X104885422Y-75839638D02*
X105342565Y-75839638D01*
X105113994Y-75839638D02*
X105113994Y-75039638D01*
X105190184Y-75153924D01*
X105266375Y-75230114D01*
X105342565Y-75268210D01*
X104580661Y-75115829D02*
X104542565Y-75077734D01*
X104466375Y-75039638D01*
X104275899Y-75039638D01*
X104199708Y-75077734D01*
X104161613Y-75115829D01*
X104123518Y-75192019D01*
X104123518Y-75268210D01*
X104161613Y-75382495D01*
X104618756Y-75839638D01*
X104123518Y-75839638D01*
X105725422Y-76879638D02*
X106182565Y-76879638D01*
X105953994Y-76879638D02*
X105953994Y-76079638D01*
X106030184Y-76193924D01*
X106106375Y-76270114D01*
X106182565Y-76308210D01*
X105230184Y-76079638D02*
X105153994Y-76079638D01*
X105077803Y-76117734D01*
X105039708Y-76155829D01*
X105001613Y-76232019D01*
X104963518Y-76384400D01*
X104963518Y-76574876D01*
X105001613Y-76727257D01*
X105039708Y-76803448D01*
X105077803Y-76841543D01*
X105153994Y-76879638D01*
X105230184Y-76879638D01*
X105306375Y-76841543D01*
X105344470Y-76803448D01*
X105382565Y-76727257D01*
X105420661Y-76574876D01*
X105420661Y-76384400D01*
X105382565Y-76232019D01*
X105344470Y-76155829D01*
X105306375Y-76117734D01*
X105230184Y-76079638D01*
X104620661Y-76879638D02*
X104620661Y-76079638D01*
X104163518Y-76879638D02*
X104506375Y-76422495D01*
X104163518Y-76079638D02*
X104620661Y-76536781D01*
X97917327Y-84089638D02*
X98183994Y-83708686D01*
X98374470Y-84089638D02*
X98374470Y-83289638D01*
X98069708Y-83289638D01*
X97993518Y-83327734D01*
X97955422Y-83365829D01*
X97917327Y-83442019D01*
X97917327Y-83556305D01*
X97955422Y-83632495D01*
X97993518Y-83670591D01*
X98069708Y-83708686D01*
X98374470Y-83708686D01*
X97155422Y-84089638D02*
X97612565Y-84089638D01*
X97383994Y-84089638D02*
X97383994Y-83289638D01*
X97460184Y-83403924D01*
X97536375Y-83480114D01*
X97612565Y-83518210D01*
X96660184Y-83289638D02*
X96583994Y-83289638D01*
X96507803Y-83327734D01*
X96469708Y-83365829D01*
X96431613Y-83442019D01*
X96393518Y-83594400D01*
X96393518Y-83784876D01*
X96431613Y-83937257D01*
X96469708Y-84013448D01*
X96507803Y-84051543D01*
X96583994Y-84089638D01*
X96660184Y-84089638D01*
X96736375Y-84051543D01*
X96774470Y-84013448D01*
X96812565Y-83937257D01*
X96850661Y-83784876D01*
X96850661Y-83594400D01*
X96812565Y-83442019D01*
X96774470Y-83365829D01*
X96736375Y-83327734D01*
X96660184Y-83289638D01*
X98364470Y-88385829D02*
X98326375Y-88347734D01*
X98250184Y-88309638D01*
X98059708Y-88309638D01*
X97983518Y-88347734D01*
X97945422Y-88385829D01*
X97907327Y-88462019D01*
X97907327Y-88538210D01*
X97945422Y-88652495D01*
X98402565Y-89109638D01*
X97907327Y-89109638D01*
X97412089Y-88309638D02*
X97335899Y-88309638D01*
X97259708Y-88347734D01*
X97221613Y-88385829D01*
X97183518Y-88462019D01*
X97145422Y-88614400D01*
X97145422Y-88804876D01*
X97183518Y-88957257D01*
X97221613Y-89033448D01*
X97259708Y-89071543D01*
X97335899Y-89109638D01*
X97412089Y-89109638D01*
X97488280Y-89071543D01*
X97526375Y-89033448D01*
X97564470Y-88957257D01*
X97602565Y-88804876D01*
X97602565Y-88614400D01*
X97564470Y-88462019D01*
X97526375Y-88385829D01*
X97488280Y-88347734D01*
X97412089Y-88309638D01*
X96802565Y-88690591D02*
X96535899Y-88690591D01*
X96421613Y-89109638D02*
X96802565Y-89109638D01*
X96802565Y-88309638D01*
X96421613Y-88309638D01*
X111516375Y-83839638D02*
X111783042Y-83458686D01*
X111973518Y-83839638D02*
X111973518Y-83039638D01*
X111668756Y-83039638D01*
X111592565Y-83077734D01*
X111554470Y-83115829D01*
X111516375Y-83192019D01*
X111516375Y-83306305D01*
X111554470Y-83382495D01*
X111592565Y-83420591D01*
X111668756Y-83458686D01*
X111973518Y-83458686D01*
X110830661Y-83039638D02*
X110983042Y-83039638D01*
X111059232Y-83077734D01*
X111097327Y-83115829D01*
X111173518Y-83230114D01*
X111211613Y-83382495D01*
X111211613Y-83687257D01*
X111173518Y-83763448D01*
X111135422Y-83801543D01*
X111059232Y-83839638D01*
X110906851Y-83839638D01*
X110830661Y-83801543D01*
X110792565Y-83763448D01*
X110754470Y-83687257D01*
X110754470Y-83496781D01*
X110792565Y-83420591D01*
X110830661Y-83382495D01*
X110906851Y-83344400D01*
X111059232Y-83344400D01*
X111135422Y-83382495D01*
X111173518Y-83420591D01*
X111211613Y-83496781D01*
X112294470Y-87995829D02*
X112256375Y-87957734D01*
X112180184Y-87919638D01*
X111989708Y-87919638D01*
X111913518Y-87957734D01*
X111875422Y-87995829D01*
X111837327Y-88072019D01*
X111837327Y-88148210D01*
X111875422Y-88262495D01*
X112332565Y-88719638D01*
X111837327Y-88719638D01*
X111342089Y-87919638D02*
X111265899Y-87919638D01*
X111189708Y-87957734D01*
X111151613Y-87995829D01*
X111113518Y-88072019D01*
X111075422Y-88224400D01*
X111075422Y-88414876D01*
X111113518Y-88567257D01*
X111151613Y-88643448D01*
X111189708Y-88681543D01*
X111265899Y-88719638D01*
X111342089Y-88719638D01*
X111418280Y-88681543D01*
X111456375Y-88643448D01*
X111494470Y-88567257D01*
X111532565Y-88414876D01*
X111532565Y-88224400D01*
X111494470Y-88072019D01*
X111456375Y-87995829D01*
X111418280Y-87957734D01*
X111342089Y-87919638D01*
X110732565Y-88300591D02*
X110465899Y-88300591D01*
X110351613Y-88719638D02*
X110732565Y-88719638D01*
X110732565Y-87919638D01*
X110351613Y-87919638D01*
X102746375Y-83999638D02*
X103013042Y-83618686D01*
X103203518Y-83999638D02*
X103203518Y-83199638D01*
X102898756Y-83199638D01*
X102822565Y-83237734D01*
X102784470Y-83275829D01*
X102746375Y-83352019D01*
X102746375Y-83466305D01*
X102784470Y-83542495D01*
X102822565Y-83580591D01*
X102898756Y-83618686D01*
X103203518Y-83618686D01*
X102289232Y-83542495D02*
X102365422Y-83504400D01*
X102403518Y-83466305D01*
X102441613Y-83390114D01*
X102441613Y-83352019D01*
X102403518Y-83275829D01*
X102365422Y-83237734D01*
X102289232Y-83199638D01*
X102136851Y-83199638D01*
X102060661Y-83237734D01*
X102022565Y-83275829D01*
X101984470Y-83352019D01*
X101984470Y-83390114D01*
X102022565Y-83466305D01*
X102060661Y-83504400D01*
X102136851Y-83542495D01*
X102289232Y-83542495D01*
X102365422Y-83580591D01*
X102403518Y-83618686D01*
X102441613Y-83694876D01*
X102441613Y-83847257D01*
X102403518Y-83923448D01*
X102365422Y-83961543D01*
X102289232Y-83999638D01*
X102136851Y-83999638D01*
X102060661Y-83961543D01*
X102022565Y-83923448D01*
X101984470Y-83847257D01*
X101984470Y-83694876D01*
X102022565Y-83618686D01*
X102060661Y-83580591D01*
X102136851Y-83542495D01*
X103544470Y-88435829D02*
X103506375Y-88397734D01*
X103430184Y-88359638D01*
X103239708Y-88359638D01*
X103163518Y-88397734D01*
X103125422Y-88435829D01*
X103087327Y-88512019D01*
X103087327Y-88588210D01*
X103125422Y-88702495D01*
X103582565Y-89159638D01*
X103087327Y-89159638D01*
X102592089Y-88359638D02*
X102515899Y-88359638D01*
X102439708Y-88397734D01*
X102401613Y-88435829D01*
X102363518Y-88512019D01*
X102325422Y-88664400D01*
X102325422Y-88854876D01*
X102363518Y-89007257D01*
X102401613Y-89083448D01*
X102439708Y-89121543D01*
X102515899Y-89159638D01*
X102592089Y-89159638D01*
X102668280Y-89121543D01*
X102706375Y-89083448D01*
X102744470Y-89007257D01*
X102782565Y-88854876D01*
X102782565Y-88664400D01*
X102744470Y-88512019D01*
X102706375Y-88435829D01*
X102668280Y-88397734D01*
X102592089Y-88359638D01*
X101982565Y-88740591D02*
X101715899Y-88740591D01*
X101601613Y-89159638D02*
X101982565Y-89159638D01*
X101982565Y-88359638D01*
X101601613Y-88359638D01*
X117336375Y-126759638D02*
X117603042Y-126378686D01*
X117793518Y-126759638D02*
X117793518Y-125959638D01*
X117488756Y-125959638D01*
X117412565Y-125997734D01*
X117374470Y-126035829D01*
X117336375Y-126112019D01*
X117336375Y-126226305D01*
X117374470Y-126302495D01*
X117412565Y-126340591D01*
X117488756Y-126378686D01*
X117793518Y-126378686D01*
X117069708Y-125959638D02*
X116574470Y-125959638D01*
X116841137Y-126264400D01*
X116726851Y-126264400D01*
X116650661Y-126302495D01*
X116612565Y-126340591D01*
X116574470Y-126416781D01*
X116574470Y-126607257D01*
X116612565Y-126683448D01*
X116650661Y-126721543D01*
X116726851Y-126759638D01*
X116955422Y-126759638D01*
X117031613Y-126721543D01*
X117069708Y-126683448D01*
X112264470Y-126326305D02*
X112264470Y-126859638D01*
X112454946Y-126021543D02*
X112645422Y-126592972D01*
X112150184Y-126592972D01*
X111883518Y-126135829D02*
X111845422Y-126097734D01*
X111769232Y-126059638D01*
X111578756Y-126059638D01*
X111502565Y-126097734D01*
X111464470Y-126135829D01*
X111426375Y-126212019D01*
X111426375Y-126288210D01*
X111464470Y-126402495D01*
X111921613Y-126859638D01*
X111426375Y-126859638D01*
X110931137Y-126059638D02*
X110854946Y-126059638D01*
X110778756Y-126097734D01*
X110740661Y-126135829D01*
X110702565Y-126212019D01*
X110664470Y-126364400D01*
X110664470Y-126554876D01*
X110702565Y-126707257D01*
X110740661Y-126783448D01*
X110778756Y-126821543D01*
X110854946Y-126859638D01*
X110931137Y-126859638D01*
X111007327Y-126821543D01*
X111045422Y-126783448D01*
X111083518Y-126707257D01*
X111121613Y-126554876D01*
X111121613Y-126364400D01*
X111083518Y-126212019D01*
X111045422Y-126135829D01*
X111007327Y-126097734D01*
X110931137Y-126059638D01*
X110321613Y-126440591D02*
X110054946Y-126440591D01*
X109940661Y-126859638D02*
X110321613Y-126859638D01*
X110321613Y-126059638D01*
X109940661Y-126059638D01*
X90751318Y-115505350D02*
X91084652Y-115029160D01*
X91322747Y-115505350D02*
X91322747Y-114505350D01*
X90941794Y-114505350D01*
X90846556Y-114552970D01*
X90798937Y-114600589D01*
X90751318Y-114695827D01*
X90751318Y-114838684D01*
X90798937Y-114933922D01*
X90846556Y-114981541D01*
X90941794Y-115029160D01*
X91322747Y-115029160D01*
X89846556Y-114505350D02*
X90322747Y-114505350D01*
X90370366Y-114981541D01*
X90322747Y-114933922D01*
X90227509Y-114886303D01*
X89989413Y-114886303D01*
X89894175Y-114933922D01*
X89846556Y-114981541D01*
X89798937Y-115076779D01*
X89798937Y-115314874D01*
X89846556Y-115410112D01*
X89894175Y-115457731D01*
X89989413Y-115505350D01*
X90227509Y-115505350D01*
X90322747Y-115457731D01*
X90370366Y-115410112D01*
X92163518Y-115869638D02*
X91668280Y-115869638D01*
X91934946Y-116174400D01*
X91820661Y-116174400D01*
X91744470Y-116212495D01*
X91706375Y-116250591D01*
X91668280Y-116326781D01*
X91668280Y-116517257D01*
X91706375Y-116593448D01*
X91744470Y-116631543D01*
X91820661Y-116669638D01*
X92049232Y-116669638D01*
X92125422Y-116631543D01*
X92163518Y-116593448D01*
X91401613Y-115869638D02*
X90906375Y-115869638D01*
X91173042Y-116174400D01*
X91058756Y-116174400D01*
X90982565Y-116212495D01*
X90944470Y-116250591D01*
X90906375Y-116326781D01*
X90906375Y-116517257D01*
X90944470Y-116593448D01*
X90982565Y-116631543D01*
X91058756Y-116669638D01*
X91287327Y-116669638D01*
X91363518Y-116631543D01*
X91401613Y-116593448D01*
X90411137Y-115869638D02*
X90334946Y-115869638D01*
X90258756Y-115907734D01*
X90220661Y-115945829D01*
X90182565Y-116022019D01*
X90144470Y-116174400D01*
X90144470Y-116364876D01*
X90182565Y-116517257D01*
X90220661Y-116593448D01*
X90258756Y-116631543D01*
X90334946Y-116669638D01*
X90411137Y-116669638D01*
X90487327Y-116631543D01*
X90525422Y-116593448D01*
X90563518Y-116517257D01*
X90601613Y-116364876D01*
X90601613Y-116174400D01*
X90563518Y-116022019D01*
X90525422Y-115945829D01*
X90487327Y-115907734D01*
X90411137Y-115869638D01*
X89801613Y-116250591D02*
X89534946Y-116250591D01*
X89420661Y-116669638D02*
X89801613Y-116669638D01*
X89801613Y-115869638D01*
X89420661Y-115869638D01*
X107417122Y-110337046D02*
X107455217Y-110375141D01*
X107569503Y-110413236D01*
X107645693Y-110413236D01*
X107759979Y-110375141D01*
X107836169Y-110298951D01*
X107874265Y-110222760D01*
X107912360Y-110070379D01*
X107912360Y-109956093D01*
X107874265Y-109803712D01*
X107836169Y-109727522D01*
X107759979Y-109651332D01*
X107645693Y-109613236D01*
X107569503Y-109613236D01*
X107455217Y-109651332D01*
X107417122Y-109689427D01*
X106655217Y-110413236D02*
X107112360Y-110413236D01*
X106883789Y-110413236D02*
X106883789Y-109613236D01*
X106959979Y-109727522D01*
X107036169Y-109803712D01*
X107112360Y-109841808D01*
X108538074Y-112703236D02*
X108461884Y-112703236D01*
X108385693Y-112741332D01*
X108347598Y-112779427D01*
X108309503Y-112855617D01*
X108271408Y-113007998D01*
X108271408Y-113198474D01*
X108309503Y-113350855D01*
X108347598Y-113427046D01*
X108385693Y-113465141D01*
X108461884Y-113503236D01*
X108538074Y-113503236D01*
X108614265Y-113465141D01*
X108652360Y-113427046D01*
X108690455Y-113350855D01*
X108728550Y-113198474D01*
X108728550Y-113007998D01*
X108690455Y-112855617D01*
X108652360Y-112779427D01*
X108614265Y-112741332D01*
X108538074Y-112703236D01*
X107928550Y-113427046D02*
X107890455Y-113465141D01*
X107928550Y-113503236D01*
X107966646Y-113465141D01*
X107928550Y-113427046D01*
X107928550Y-113503236D01*
X107128550Y-113503236D02*
X107585693Y-113503236D01*
X107357122Y-113503236D02*
X107357122Y-112703236D01*
X107433312Y-112817522D01*
X107509503Y-112893712D01*
X107585693Y-112931808D01*
X106442836Y-112969903D02*
X106442836Y-113503236D01*
X106785693Y-112969903D02*
X106785693Y-113388951D01*
X106747598Y-113465141D01*
X106671408Y-113503236D01*
X106557122Y-113503236D01*
X106480931Y-113465141D01*
X106442836Y-113427046D01*
X105795217Y-113084189D02*
X106061884Y-113084189D01*
X106061884Y-113503236D02*
X106061884Y-112703236D01*
X105680931Y-112703236D01*
X91075422Y-118835829D02*
X91884946Y-118835829D01*
X91980184Y-118883448D01*
X92027803Y-118931067D01*
X92075422Y-119026305D01*
X92075422Y-119216781D01*
X92027803Y-119312019D01*
X91980184Y-119359638D01*
X91884946Y-119407257D01*
X91075422Y-119407257D01*
X91075422Y-119788210D02*
X91075422Y-120407257D01*
X91456375Y-120073924D01*
X91456375Y-120216781D01*
X91503994Y-120312019D01*
X91551613Y-120359638D01*
X91646851Y-120407257D01*
X91884946Y-120407257D01*
X91980184Y-120359638D01*
X92027803Y-120312019D01*
X92075422Y-120216781D01*
X92075422Y-119931067D01*
X92027803Y-119835829D01*
X91980184Y-119788210D01*
X93284946Y-116695829D02*
X92484946Y-116695829D01*
X93056375Y-116962495D01*
X92484946Y-117229162D01*
X93284946Y-117229162D01*
X93284946Y-117610114D02*
X92484946Y-117610114D01*
X93208756Y-118448210D02*
X93246851Y-118410114D01*
X93284946Y-118295829D01*
X93284946Y-118219638D01*
X93246851Y-118105353D01*
X93170661Y-118029162D01*
X93094470Y-117991067D01*
X92942089Y-117952972D01*
X92827803Y-117952972D01*
X92675422Y-117991067D01*
X92599232Y-118029162D01*
X92523042Y-118105353D01*
X92484946Y-118219638D01*
X92484946Y-118295829D01*
X92523042Y-118410114D01*
X92561137Y-118448210D01*
X92561137Y-118752972D02*
X92523042Y-118791067D01*
X92484946Y-118867257D01*
X92484946Y-119057734D01*
X92523042Y-119133924D01*
X92561137Y-119172019D01*
X92637327Y-119210114D01*
X92713518Y-119210114D01*
X92827803Y-119172019D01*
X93284946Y-118714876D01*
X93284946Y-119210114D01*
X93284946Y-119591067D02*
X93284946Y-119743448D01*
X93246851Y-119819638D01*
X93208756Y-119857734D01*
X93094470Y-119933924D01*
X92942089Y-119972019D01*
X92637327Y-119972019D01*
X92561137Y-119933924D01*
X92523042Y-119895829D01*
X92484946Y-119819638D01*
X92484946Y-119667257D01*
X92523042Y-119591067D01*
X92561137Y-119552972D01*
X92637327Y-119514876D01*
X92827803Y-119514876D01*
X92903994Y-119552972D01*
X92942089Y-119591067D01*
X92980184Y-119667257D01*
X92980184Y-119819638D01*
X92942089Y-119895829D01*
X92903994Y-119933924D01*
X92827803Y-119972019D01*
X92484946Y-120238686D02*
X92484946Y-120733924D01*
X92789708Y-120467257D01*
X92789708Y-120581543D01*
X92827803Y-120657734D01*
X92865899Y-120695829D01*
X92942089Y-120733924D01*
X93132565Y-120733924D01*
X93208756Y-120695829D01*
X93246851Y-120657734D01*
X93284946Y-120581543D01*
X93284946Y-120352972D01*
X93246851Y-120276781D01*
X93208756Y-120238686D01*
X92484946Y-121229162D02*
X92484946Y-121305353D01*
X92523042Y-121381543D01*
X92561137Y-121419638D01*
X92637327Y-121457734D01*
X92789708Y-121495829D01*
X92980184Y-121495829D01*
X93132565Y-121457734D01*
X93208756Y-121419638D01*
X93246851Y-121381543D01*
X93284946Y-121305353D01*
X93284946Y-121229162D01*
X93246851Y-121152972D01*
X93208756Y-121114876D01*
X93132565Y-121076781D01*
X92980184Y-121038686D01*
X92789708Y-121038686D01*
X92637327Y-121076781D01*
X92561137Y-121114876D01*
X92523042Y-121152972D01*
X92484946Y-121229162D01*
X92561137Y-121800591D02*
X92523042Y-121838686D01*
X92484946Y-121914876D01*
X92484946Y-122105353D01*
X92523042Y-122181543D01*
X92561137Y-122219638D01*
X92637327Y-122257734D01*
X92713518Y-122257734D01*
X92827803Y-122219638D01*
X93284946Y-121762495D01*
X93284946Y-122257734D01*
X94706493Y-83179638D02*
X94706493Y-83827257D01*
X94668398Y-83903448D01*
X94630303Y-83941543D01*
X94554112Y-83979638D01*
X94401731Y-83979638D01*
X94325541Y-83941543D01*
X94287446Y-83903448D01*
X94249350Y-83827257D01*
X94249350Y-83179638D01*
X93487446Y-83179638D02*
X93868398Y-83179638D01*
X93906493Y-83560591D01*
X93868398Y-83522495D01*
X93792208Y-83484400D01*
X93601731Y-83484400D01*
X93525541Y-83522495D01*
X93487446Y-83560591D01*
X93449350Y-83636781D01*
X93449350Y-83827257D01*
X93487446Y-83903448D01*
X93525541Y-83941543D01*
X93601731Y-83979638D01*
X93792208Y-83979638D01*
X93868398Y-83941543D01*
X93906493Y-83903448D01*
X95562565Y-88971543D02*
X95448280Y-89009638D01*
X95257803Y-89009638D01*
X95181613Y-88971543D01*
X95143518Y-88933448D01*
X95105422Y-88857257D01*
X95105422Y-88781067D01*
X95143518Y-88704876D01*
X95181613Y-88666781D01*
X95257803Y-88628686D01*
X95410184Y-88590591D01*
X95486375Y-88552495D01*
X95524470Y-88514400D01*
X95562565Y-88438210D01*
X95562565Y-88362019D01*
X95524470Y-88285829D01*
X95486375Y-88247734D01*
X95410184Y-88209638D01*
X95219708Y-88209638D01*
X95105422Y-88247734D01*
X94305422Y-89009638D02*
X94572089Y-88628686D01*
X94762565Y-89009638D02*
X94762565Y-88209638D01*
X94457803Y-88209638D01*
X94381613Y-88247734D01*
X94343518Y-88285829D01*
X94305422Y-88362019D01*
X94305422Y-88476305D01*
X94343518Y-88552495D01*
X94381613Y-88590591D01*
X94457803Y-88628686D01*
X94762565Y-88628686D01*
X94076851Y-88209638D02*
X93810184Y-89009638D01*
X93543518Y-88209638D01*
X93124470Y-88209638D02*
X93048280Y-88209638D01*
X92972089Y-88247734D01*
X92933994Y-88285829D01*
X92895899Y-88362019D01*
X92857803Y-88514400D01*
X92857803Y-88704876D01*
X92895899Y-88857257D01*
X92933994Y-88933448D01*
X92972089Y-88971543D01*
X93048280Y-89009638D01*
X93124470Y-89009638D01*
X93200661Y-88971543D01*
X93238756Y-88933448D01*
X93276851Y-88857257D01*
X93314946Y-88704876D01*
X93314946Y-88514400D01*
X93276851Y-88362019D01*
X93238756Y-88285829D01*
X93200661Y-88247734D01*
X93124470Y-88209638D01*
X92133994Y-88209638D02*
X92514946Y-88209638D01*
X92553042Y-88590591D01*
X92514946Y-88552495D01*
X92438756Y-88514400D01*
X92248280Y-88514400D01*
X92172089Y-88552495D01*
X92133994Y-88590591D01*
X92095899Y-88666781D01*
X92095899Y-88857257D01*
X92133994Y-88933448D01*
X92172089Y-88971543D01*
X92248280Y-89009638D01*
X92438756Y-89009638D01*
X92514946Y-88971543D01*
X92553042Y-88933448D01*
X91753042Y-88704876D02*
X91143518Y-88704876D01*
X90419708Y-88476305D02*
X90419708Y-89009638D01*
X90610184Y-88171543D02*
X90800661Y-88742972D01*
X90305422Y-88742972D01*
X100236375Y-84049638D02*
X100503042Y-83668686D01*
X100693518Y-84049638D02*
X100693518Y-83249638D01*
X100388756Y-83249638D01*
X100312565Y-83287734D01*
X100274470Y-83325829D01*
X100236375Y-83402019D01*
X100236375Y-83516305D01*
X100274470Y-83592495D01*
X100312565Y-83630591D01*
X100388756Y-83668686D01*
X100693518Y-83668686D01*
X99855422Y-84049638D02*
X99703042Y-84049638D01*
X99626851Y-84011543D01*
X99588756Y-83973448D01*
X99512565Y-83859162D01*
X99474470Y-83706781D01*
X99474470Y-83402019D01*
X99512565Y-83325829D01*
X99550661Y-83287734D01*
X99626851Y-83249638D01*
X99779232Y-83249638D01*
X99855422Y-83287734D01*
X99893518Y-83325829D01*
X99931613Y-83402019D01*
X99931613Y-83592495D01*
X99893518Y-83668686D01*
X99855422Y-83706781D01*
X99779232Y-83744876D01*
X99626851Y-83744876D01*
X99550661Y-83706781D01*
X99512565Y-83668686D01*
X99474470Y-83592495D01*
X100944470Y-88395829D02*
X100906375Y-88357734D01*
X100830184Y-88319638D01*
X100639708Y-88319638D01*
X100563518Y-88357734D01*
X100525422Y-88395829D01*
X100487327Y-88472019D01*
X100487327Y-88548210D01*
X100525422Y-88662495D01*
X100982565Y-89119638D01*
X100487327Y-89119638D01*
X99992089Y-88319638D02*
X99915899Y-88319638D01*
X99839708Y-88357734D01*
X99801613Y-88395829D01*
X99763518Y-88472019D01*
X99725422Y-88624400D01*
X99725422Y-88814876D01*
X99763518Y-88967257D01*
X99801613Y-89043448D01*
X99839708Y-89081543D01*
X99915899Y-89119638D01*
X99992089Y-89119638D01*
X100068280Y-89081543D01*
X100106375Y-89043448D01*
X100144470Y-88967257D01*
X100182565Y-88814876D01*
X100182565Y-88624400D01*
X100144470Y-88472019D01*
X100106375Y-88395829D01*
X100068280Y-88357734D01*
X99992089Y-88319638D01*
X99382565Y-88700591D02*
X99115899Y-88700591D01*
X99001613Y-89119638D02*
X99382565Y-89119638D01*
X99382565Y-88319638D01*
X99001613Y-88319638D01*
X90940601Y-112395702D02*
X91273935Y-111919512D01*
X91512030Y-112395702D02*
X91512030Y-111395702D01*
X91131077Y-111395702D01*
X91035839Y-111443322D01*
X90988220Y-111490941D01*
X90940601Y-111586179D01*
X90940601Y-111729036D01*
X90988220Y-111824274D01*
X91035839Y-111871893D01*
X91131077Y-111919512D01*
X91512030Y-111919512D01*
X90083458Y-111729036D02*
X90083458Y-112395702D01*
X90321554Y-111348083D02*
X90559649Y-112062369D01*
X89940601Y-112062369D01*
X92323518Y-112719638D02*
X91828280Y-112719638D01*
X92094946Y-113024400D01*
X91980661Y-113024400D01*
X91904470Y-113062495D01*
X91866375Y-113100591D01*
X91828280Y-113176781D01*
X91828280Y-113367257D01*
X91866375Y-113443448D01*
X91904470Y-113481543D01*
X91980661Y-113519638D01*
X92209232Y-113519638D01*
X92285422Y-113481543D01*
X92323518Y-113443448D01*
X91561613Y-112719638D02*
X91066375Y-112719638D01*
X91333042Y-113024400D01*
X91218756Y-113024400D01*
X91142565Y-113062495D01*
X91104470Y-113100591D01*
X91066375Y-113176781D01*
X91066375Y-113367257D01*
X91104470Y-113443448D01*
X91142565Y-113481543D01*
X91218756Y-113519638D01*
X91447327Y-113519638D01*
X91523518Y-113481543D01*
X91561613Y-113443448D01*
X90571137Y-112719638D02*
X90494946Y-112719638D01*
X90418756Y-112757734D01*
X90380661Y-112795829D01*
X90342565Y-112872019D01*
X90304470Y-113024400D01*
X90304470Y-113214876D01*
X90342565Y-113367257D01*
X90380661Y-113443448D01*
X90418756Y-113481543D01*
X90494946Y-113519638D01*
X90571137Y-113519638D01*
X90647327Y-113481543D01*
X90685422Y-113443448D01*
X90723518Y-113367257D01*
X90761613Y-113214876D01*
X90761613Y-113024400D01*
X90723518Y-112872019D01*
X90685422Y-112795829D01*
X90647327Y-112757734D01*
X90571137Y-112719638D01*
X89961613Y-113100591D02*
X89694946Y-113100591D01*
X89580661Y-113519638D02*
X89961613Y-113519638D01*
X89961613Y-112719638D01*
X89580661Y-112719638D01*
X111374946Y-90740234D02*
X111470184Y-90692614D01*
X111613042Y-90692614D01*
X111755899Y-90740234D01*
X111851137Y-90835472D01*
X111898756Y-90930710D01*
X111946375Y-91121186D01*
X111946375Y-91264043D01*
X111898756Y-91454519D01*
X111851137Y-91549757D01*
X111755899Y-91644995D01*
X111613042Y-91692614D01*
X111517803Y-91692614D01*
X111374946Y-91644995D01*
X111327327Y-91597376D01*
X111327327Y-91264043D01*
X111517803Y-91264043D01*
X110946375Y-91644995D02*
X110803518Y-91692614D01*
X110565422Y-91692614D01*
X110470184Y-91644995D01*
X110422565Y-91597376D01*
X110374946Y-91502138D01*
X110374946Y-91406900D01*
X110422565Y-91311662D01*
X110470184Y-91264043D01*
X110565422Y-91216424D01*
X110755899Y-91168805D01*
X110851137Y-91121186D01*
X110898756Y-91073567D01*
X110946375Y-90978329D01*
X110946375Y-90883091D01*
X110898756Y-90787853D01*
X110851137Y-90740234D01*
X110755899Y-90692614D01*
X110517803Y-90692614D01*
X110374946Y-90740234D01*
X109946375Y-91692614D02*
X109946375Y-90692614D01*
X109613042Y-91406900D01*
X109279708Y-90692614D01*
X109279708Y-91692614D01*
X108279708Y-91692614D02*
X108851137Y-91692614D01*
X108565422Y-91692614D02*
X108565422Y-90692614D01*
X108660661Y-90835472D01*
X108755899Y-90930710D01*
X108851137Y-90978329D01*
X107115162Y-91655236D02*
X107115162Y-90655236D01*
X106543733Y-91655236D01*
X106543733Y-90655236D01*
X105543733Y-91655236D02*
X106115162Y-91655236D01*
X105829448Y-91655236D02*
X105829448Y-90655236D01*
X105924686Y-90798094D01*
X106019924Y-90893332D01*
X106115162Y-90940951D01*
X104591352Y-91655236D02*
X105162781Y-91655236D01*
X104877067Y-91655236D02*
X104877067Y-90655236D01*
X104972305Y-90798094D01*
X105067543Y-90893332D01*
X105162781Y-90940951D01*
X104400876Y-91750475D02*
X103638972Y-91750475D01*
X103400876Y-91655236D02*
X103400876Y-90655236D01*
X102829448Y-91655236D01*
X102829448Y-90655236D01*
X102353257Y-91131427D02*
X102019924Y-91131427D01*
X101877067Y-91655236D02*
X102353257Y-91655236D01*
X102353257Y-90655236D01*
X101877067Y-90655236D01*
X101258019Y-90655236D02*
X101067543Y-90655236D01*
X100972305Y-90702856D01*
X100877067Y-90798094D01*
X100829448Y-90988570D01*
X100829448Y-91321903D01*
X100877067Y-91512379D01*
X100972305Y-91607617D01*
X101067543Y-91655236D01*
X101258019Y-91655236D01*
X101353257Y-91607617D01*
X101448495Y-91512379D01*
X101496114Y-91321903D01*
X101496114Y-90988570D01*
X101448495Y-90798094D01*
X101353257Y-90702856D01*
X101258019Y-90655236D01*
X100496114Y-90655236D02*
X100258019Y-91655236D01*
X100067543Y-90940951D01*
X99877067Y-91655236D01*
X99638972Y-90655236D01*
X99305638Y-91369522D02*
X98829448Y-91369522D01*
X99400876Y-91655236D02*
X99067543Y-90655236D01*
X98734210Y-91655236D01*
X98210400Y-91179046D02*
X98210400Y-91655236D01*
X98543733Y-90655236D02*
X98210400Y-91179046D01*
X97877067Y-90655236D01*
X97781829Y-91750475D02*
X97019924Y-91750475D01*
X96258019Y-90702856D02*
X96353257Y-90655236D01*
X96496114Y-90655236D01*
X96638972Y-90702856D01*
X96734210Y-90798094D01*
X96781829Y-90893332D01*
X96829448Y-91083808D01*
X96829448Y-91226665D01*
X96781829Y-91417141D01*
X96734210Y-91512379D01*
X96638972Y-91607617D01*
X96496114Y-91655236D01*
X96400876Y-91655236D01*
X96258019Y-91607617D01*
X96210400Y-91559998D01*
X96210400Y-91226665D01*
X96400876Y-91226665D01*
X95829448Y-91607617D02*
X95686591Y-91655236D01*
X95448495Y-91655236D01*
X95353257Y-91607617D01*
X95305638Y-91559998D01*
X95258019Y-91464760D01*
X95258019Y-91369522D01*
X95305638Y-91274284D01*
X95353257Y-91226665D01*
X95448495Y-91179046D01*
X95638972Y-91131427D01*
X95734210Y-91083808D01*
X95781829Y-91036189D01*
X95829448Y-90940951D01*
X95829448Y-90845713D01*
X95781829Y-90750475D01*
X95734210Y-90702856D01*
X95638972Y-90655236D01*
X95400876Y-90655236D01*
X95258019Y-90702856D01*
X94829448Y-91655236D02*
X94829448Y-90655236D01*
X94496114Y-91369522D01*
X94162781Y-90655236D01*
X94162781Y-91655236D01*
X98805899Y-73250114D02*
X99139232Y-72773924D01*
X99377327Y-73250114D02*
X99377327Y-72250114D01*
X98996375Y-72250114D01*
X98901137Y-72297734D01*
X98853518Y-72345353D01*
X98805899Y-72440591D01*
X98805899Y-72583448D01*
X98853518Y-72678686D01*
X98901137Y-72726305D01*
X98996375Y-72773924D01*
X99377327Y-72773924D01*
X97853518Y-73250114D02*
X98424946Y-73250114D01*
X98139232Y-73250114D02*
X98139232Y-72250114D01*
X98234470Y-72392972D01*
X98329708Y-72488210D01*
X98424946Y-72535829D01*
X96996375Y-72583448D02*
X96996375Y-73250114D01*
X97234470Y-72202495D02*
X97472565Y-72916781D01*
X96853518Y-72916781D01*
X99138756Y-74033448D02*
X99138756Y-74700114D01*
X99376851Y-73652495D02*
X99614946Y-74366781D01*
X98995899Y-74366781D01*
X98614946Y-74700114D02*
X98614946Y-73700114D01*
X98043518Y-74700114D02*
X98472089Y-74128686D01*
X98043518Y-73700114D02*
X98614946Y-74271543D01*
X97710184Y-73700114D02*
X97043518Y-73700114D01*
X97472089Y-74700114D01*
X117126375Y-116613448D02*
X117164470Y-116651543D01*
X117278756Y-116689638D01*
X117354946Y-116689638D01*
X117469232Y-116651543D01*
X117545422Y-116575353D01*
X117583518Y-116499162D01*
X117621613Y-116346781D01*
X117621613Y-116232495D01*
X117583518Y-116080114D01*
X117545422Y-116003924D01*
X117469232Y-115927734D01*
X117354946Y-115889638D01*
X117278756Y-115889638D01*
X117164470Y-115927734D01*
X117126375Y-115965829D01*
X116669232Y-116232495D02*
X116745422Y-116194400D01*
X116783518Y-116156305D01*
X116821613Y-116080114D01*
X116821613Y-116042019D01*
X116783518Y-115965829D01*
X116745422Y-115927734D01*
X116669232Y-115889638D01*
X116516851Y-115889638D01*
X116440661Y-115927734D01*
X116402565Y-115965829D01*
X116364470Y-116042019D01*
X116364470Y-116080114D01*
X116402565Y-116156305D01*
X116440661Y-116194400D01*
X116516851Y-116232495D01*
X116669232Y-116232495D01*
X116745422Y-116270591D01*
X116783518Y-116308686D01*
X116821613Y-116384876D01*
X116821613Y-116537257D01*
X116783518Y-116613448D01*
X116745422Y-116651543D01*
X116669232Y-116689638D01*
X116516851Y-116689638D01*
X116440661Y-116651543D01*
X116402565Y-116613448D01*
X116364470Y-116537257D01*
X116364470Y-116384876D01*
X116402565Y-116308686D01*
X116440661Y-116270591D01*
X116516851Y-116232495D01*
X112737327Y-115879638D02*
X112661137Y-115879638D01*
X112584946Y-115917734D01*
X112546851Y-115955829D01*
X112508756Y-116032019D01*
X112470661Y-116184400D01*
X112470661Y-116374876D01*
X112508756Y-116527257D01*
X112546851Y-116603448D01*
X112584946Y-116641543D01*
X112661137Y-116679638D01*
X112737327Y-116679638D01*
X112813518Y-116641543D01*
X112851613Y-116603448D01*
X112889708Y-116527257D01*
X112927803Y-116374876D01*
X112927803Y-116184400D01*
X112889708Y-116032019D01*
X112851613Y-115955829D01*
X112813518Y-115917734D01*
X112737327Y-115879638D01*
X112127803Y-116603448D02*
X112089708Y-116641543D01*
X112127803Y-116679638D01*
X112165899Y-116641543D01*
X112127803Y-116603448D01*
X112127803Y-116679638D01*
X111327803Y-116679638D02*
X111784946Y-116679638D01*
X111556375Y-116679638D02*
X111556375Y-115879638D01*
X111632565Y-115993924D01*
X111708756Y-116070114D01*
X111784946Y-116108210D01*
X110642089Y-116146305D02*
X110642089Y-116679638D01*
X110984946Y-116146305D02*
X110984946Y-116565353D01*
X110946851Y-116641543D01*
X110870661Y-116679638D01*
X110756375Y-116679638D01*
X110680184Y-116641543D01*
X110642089Y-116603448D01*
X109994470Y-116260591D02*
X110261137Y-116260591D01*
X110261137Y-116679638D02*
X110261137Y-115879638D01*
X109880184Y-115879638D01*
X104988280Y-70745353D02*
X105083518Y-70697734D01*
X105178756Y-70602495D01*
X105321613Y-70459638D01*
X105416851Y-70412019D01*
X105512089Y-70412019D01*
X105464470Y-70650114D02*
X105559708Y-70602495D01*
X105654946Y-70507257D01*
X105702565Y-70316781D01*
X105702565Y-69983448D01*
X105654946Y-69792972D01*
X105559708Y-69697734D01*
X105464470Y-69650114D01*
X105273994Y-69650114D01*
X105178756Y-69697734D01*
X105083518Y-69792972D01*
X105035899Y-69983448D01*
X105035899Y-70316781D01*
X105083518Y-70507257D01*
X105178756Y-70602495D01*
X105273994Y-70650114D01*
X105464470Y-70650114D01*
X104083518Y-70650114D02*
X104654946Y-70650114D01*
X104369232Y-70650114D02*
X104369232Y-69650114D01*
X104464470Y-69792972D01*
X104559708Y-69888210D01*
X104654946Y-69935829D01*
X111195422Y-68349638D02*
X111195422Y-67549638D01*
X110928756Y-68121067D01*
X110662089Y-67549638D01*
X110662089Y-68349638D01*
X110281137Y-68349638D02*
X110281137Y-67549638D01*
X110014470Y-68121067D01*
X109747803Y-67549638D01*
X109747803Y-68349638D01*
X109100184Y-67930591D02*
X108985899Y-67968686D01*
X108947803Y-68006781D01*
X108909708Y-68082972D01*
X108909708Y-68197257D01*
X108947803Y-68273448D01*
X108985899Y-68311543D01*
X109062089Y-68349638D01*
X109366851Y-68349638D01*
X109366851Y-67549638D01*
X109100184Y-67549638D01*
X109023994Y-67587734D01*
X108985899Y-67625829D01*
X108947803Y-67702019D01*
X108947803Y-67778210D01*
X108985899Y-67854400D01*
X109023994Y-67892495D01*
X109100184Y-67930591D01*
X109366851Y-67930591D01*
X108681137Y-67549638D02*
X108223994Y-67549638D01*
X108452565Y-68349638D02*
X108452565Y-67549638D01*
X108033518Y-67549638D02*
X107538280Y-67549638D01*
X107804946Y-67854400D01*
X107690661Y-67854400D01*
X107614470Y-67892495D01*
X107576375Y-67930591D01*
X107538280Y-68006781D01*
X107538280Y-68197257D01*
X107576375Y-68273448D01*
X107614470Y-68311543D01*
X107690661Y-68349638D01*
X107919232Y-68349638D01*
X107995422Y-68311543D01*
X108033518Y-68273448D01*
X107157327Y-68349638D02*
X107004946Y-68349638D01*
X106928756Y-68311543D01*
X106890661Y-68273448D01*
X106814470Y-68159162D01*
X106776375Y-68006781D01*
X106776375Y-67702019D01*
X106814470Y-67625829D01*
X106852565Y-67587734D01*
X106928756Y-67549638D01*
X107081137Y-67549638D01*
X107157327Y-67587734D01*
X107195422Y-67625829D01*
X107233518Y-67702019D01*
X107233518Y-67892495D01*
X107195422Y-67968686D01*
X107157327Y-68006781D01*
X107081137Y-68044876D01*
X106928756Y-68044876D01*
X106852565Y-68006781D01*
X106814470Y-67968686D01*
X106776375Y-67892495D01*
X106281137Y-67549638D02*
X106204946Y-67549638D01*
X106128756Y-67587734D01*
X106090661Y-67625829D01*
X106052565Y-67702019D01*
X106014470Y-67854400D01*
X106014470Y-68044876D01*
X106052565Y-68197257D01*
X106090661Y-68273448D01*
X106128756Y-68311543D01*
X106204946Y-68349638D01*
X106281137Y-68349638D01*
X106357327Y-68311543D01*
X106395422Y-68273448D01*
X106433518Y-68197257D01*
X106471613Y-68044876D01*
X106471613Y-67854400D01*
X106433518Y-67702019D01*
X106395422Y-67625829D01*
X106357327Y-67587734D01*
X106281137Y-67549638D01*
X105328756Y-67816305D02*
X105328756Y-68349638D01*
X105519232Y-67511543D02*
X105709708Y-68082972D01*
X105214470Y-68082972D01*
X117731225Y-77624616D02*
X117731225Y-78272235D01*
X117693130Y-78348426D01*
X117655035Y-78386521D01*
X117578844Y-78424616D01*
X117426463Y-78424616D01*
X117350273Y-78386521D01*
X117312178Y-78348426D01*
X117274082Y-78272235D01*
X117274082Y-77624616D01*
X116474082Y-78424616D02*
X116931225Y-78424616D01*
X116702654Y-78424616D02*
X116702654Y-77624616D01*
X116778844Y-77738902D01*
X116855035Y-77815092D01*
X116931225Y-77853188D01*
X117363994Y-79939638D02*
X117744946Y-79939638D01*
X117744946Y-79139638D01*
X117097327Y-79939638D02*
X117097327Y-79139638D01*
X116830661Y-79711067D01*
X116563994Y-79139638D01*
X116563994Y-79939638D01*
X115763994Y-79939638D02*
X116221137Y-79939638D01*
X115992565Y-79939638D02*
X115992565Y-79139638D01*
X116068756Y-79253924D01*
X116144946Y-79330114D01*
X116221137Y-79368210D01*
X115002089Y-79939638D02*
X115459232Y-79939638D01*
X115230661Y-79939638D02*
X115230661Y-79139638D01*
X115306851Y-79253924D01*
X115383042Y-79330114D01*
X115459232Y-79368210D01*
X114240184Y-79939638D02*
X114697327Y-79939638D01*
X114468756Y-79939638D02*
X114468756Y-79139638D01*
X114544946Y-79253924D01*
X114621137Y-79330114D01*
X114697327Y-79368210D01*
X113973518Y-79139638D02*
X113440184Y-79139638D01*
X113783042Y-79939638D01*
X113135422Y-79634876D02*
X112525899Y-79634876D01*
X112221137Y-79139638D02*
X111725899Y-79139638D01*
X111992565Y-79444400D01*
X111878280Y-79444400D01*
X111802089Y-79482495D01*
X111763994Y-79520591D01*
X111725899Y-79596781D01*
X111725899Y-79787257D01*
X111763994Y-79863448D01*
X111802089Y-79901543D01*
X111878280Y-79939638D01*
X112106851Y-79939638D01*
X112183042Y-79901543D01*
X112221137Y-79863448D01*
X111383042Y-79863448D02*
X111344946Y-79901543D01*
X111383042Y-79939638D01*
X111421137Y-79901543D01*
X111383042Y-79863448D01*
X111383042Y-79939638D01*
X111078280Y-79139638D02*
X110583042Y-79139638D01*
X110849708Y-79444400D01*
X110735422Y-79444400D01*
X110659232Y-79482495D01*
X110621137Y-79520591D01*
X110583042Y-79596781D01*
X110583042Y-79787257D01*
X110621137Y-79863448D01*
X110659232Y-79901543D01*
X110735422Y-79939638D01*
X110963994Y-79939638D01*
X111040184Y-79901543D01*
X111078280Y-79863448D01*
X117276375Y-124209638D02*
X117543042Y-123828686D01*
X117733518Y-124209638D02*
X117733518Y-123409638D01*
X117428756Y-123409638D01*
X117352565Y-123447734D01*
X117314470Y-123485829D01*
X117276375Y-123562019D01*
X117276375Y-123676305D01*
X117314470Y-123752495D01*
X117352565Y-123790591D01*
X117428756Y-123828686D01*
X117733518Y-123828686D01*
X116514470Y-124209638D02*
X116971613Y-124209638D01*
X116743042Y-124209638D02*
X116743042Y-123409638D01*
X116819232Y-123523924D01*
X116895422Y-123600114D01*
X116971613Y-123638210D01*
X112044650Y-124273015D02*
X112616079Y-124273015D01*
X112330365Y-124273015D02*
X112330365Y-123273015D01*
X112425603Y-123415873D01*
X112520841Y-123511111D01*
X112616079Y-123558730D01*
X111616079Y-124273015D02*
X111616079Y-123273015D01*
X111044650Y-124273015D02*
X111473222Y-123701587D01*
X111044650Y-123273015D02*
X111616079Y-123844444D01*
X89249708Y-93194876D02*
X89297327Y-93242495D01*
X89440184Y-93290114D01*
X89535422Y-93290114D01*
X89678280Y-93242495D01*
X89773518Y-93147257D01*
X89821137Y-93052019D01*
X89868756Y-92861543D01*
X89868756Y-92718686D01*
X89821137Y-92528210D01*
X89773518Y-92432972D01*
X89678280Y-92337734D01*
X89535422Y-92290114D01*
X89440184Y-92290114D01*
X89297327Y-92337734D01*
X89249708Y-92385353D01*
X88773518Y-93290114D02*
X88583042Y-93290114D01*
X88487803Y-93242495D01*
X88440184Y-93194876D01*
X88344946Y-93052019D01*
X88297327Y-92861543D01*
X88297327Y-92480591D01*
X88344946Y-92385353D01*
X88392565Y-92337734D01*
X88487803Y-92290114D01*
X88678280Y-92290114D01*
X88773518Y-92337734D01*
X88821137Y-92385353D01*
X88868756Y-92480591D01*
X88868756Y-92718686D01*
X88821137Y-92813924D01*
X88773518Y-92861543D01*
X88678280Y-92909162D01*
X88487803Y-92909162D01*
X88392565Y-92861543D01*
X88344946Y-92813924D01*
X88297327Y-92718686D01*
X91903518Y-93685829D02*
X91865422Y-93647734D01*
X91789232Y-93609638D01*
X91598756Y-93609638D01*
X91522565Y-93647734D01*
X91484470Y-93685829D01*
X91446375Y-93762019D01*
X91446375Y-93838210D01*
X91484470Y-93952495D01*
X91941613Y-94409638D01*
X91446375Y-94409638D01*
X91141613Y-93685829D02*
X91103518Y-93647734D01*
X91027327Y-93609638D01*
X90836851Y-93609638D01*
X90760661Y-93647734D01*
X90722565Y-93685829D01*
X90684470Y-93762019D01*
X90684470Y-93838210D01*
X90722565Y-93952495D01*
X91179708Y-94409638D01*
X90684470Y-94409638D01*
X90189232Y-93609638D02*
X90113042Y-93609638D01*
X90036851Y-93647734D01*
X89998756Y-93685829D01*
X89960661Y-93762019D01*
X89922565Y-93914400D01*
X89922565Y-94104876D01*
X89960661Y-94257257D01*
X89998756Y-94333448D01*
X90036851Y-94371543D01*
X90113042Y-94409638D01*
X90189232Y-94409638D01*
X90265422Y-94371543D01*
X90303518Y-94333448D01*
X90341613Y-94257257D01*
X90379708Y-94104876D01*
X90379708Y-93914400D01*
X90341613Y-93762019D01*
X90303518Y-93685829D01*
X90265422Y-93647734D01*
X90189232Y-93609638D01*
X89236851Y-93876305D02*
X89236851Y-94409638D01*
X89579708Y-93876305D02*
X89579708Y-94295353D01*
X89541613Y-94371543D01*
X89465422Y-94409638D01*
X89351137Y-94409638D01*
X89274946Y-94371543D01*
X89236851Y-94333448D01*
X88589232Y-93990591D02*
X88855899Y-93990591D01*
X88855899Y-94409638D02*
X88855899Y-93609638D01*
X88474946Y-93609638D01*
X88132089Y-94371543D02*
X88132089Y-94409638D01*
X88170184Y-94485829D01*
X88208280Y-94523924D01*
X87370184Y-94409638D02*
X87827327Y-94409638D01*
X87598756Y-94409638D02*
X87598756Y-93609638D01*
X87674946Y-93723924D01*
X87751137Y-93800114D01*
X87827327Y-93838210D01*
X86874946Y-93609638D02*
X86798756Y-93609638D01*
X86722565Y-93647734D01*
X86684470Y-93685829D01*
X86646375Y-93762019D01*
X86608280Y-93914400D01*
X86608280Y-94104876D01*
X86646375Y-94257257D01*
X86684470Y-94333448D01*
X86722565Y-94371543D01*
X86798756Y-94409638D01*
X86874946Y-94409638D01*
X86951137Y-94371543D01*
X86989232Y-94333448D01*
X87027327Y-94257257D01*
X87065422Y-94104876D01*
X87065422Y-93914400D01*
X87027327Y-93762019D01*
X86989232Y-93685829D01*
X86951137Y-93647734D01*
X86874946Y-93609638D01*
X86379708Y-93609638D02*
X86113041Y-94409638D01*
X85846375Y-93609638D01*
X86311613Y-103918686D02*
X86311613Y-103156781D01*
X85930661Y-103537734D02*
X86692565Y-103537734D01*
X114317327Y-83819638D02*
X114583994Y-83438686D01*
X114774470Y-83819638D02*
X114774470Y-83019638D01*
X114469708Y-83019638D01*
X114393518Y-83057734D01*
X114355422Y-83095829D01*
X114317327Y-83172019D01*
X114317327Y-83286305D01*
X114355422Y-83362495D01*
X114393518Y-83400591D01*
X114469708Y-83438686D01*
X114774470Y-83438686D01*
X113555422Y-83819638D02*
X114012565Y-83819638D01*
X113783994Y-83819638D02*
X113783994Y-83019638D01*
X113860184Y-83133924D01*
X113936375Y-83210114D01*
X114012565Y-83248210D01*
X112793518Y-83819638D02*
X113250661Y-83819638D01*
X113022089Y-83819638D02*
X113022089Y-83019638D01*
X113098280Y-83133924D01*
X113174470Y-83210114D01*
X113250661Y-83248210D01*
X115054470Y-87965829D02*
X115016375Y-87927734D01*
X114940184Y-87889638D01*
X114749708Y-87889638D01*
X114673518Y-87927734D01*
X114635422Y-87965829D01*
X114597327Y-88042019D01*
X114597327Y-88118210D01*
X114635422Y-88232495D01*
X115092565Y-88689638D01*
X114597327Y-88689638D01*
X114102089Y-87889638D02*
X114025899Y-87889638D01*
X113949708Y-87927734D01*
X113911613Y-87965829D01*
X113873518Y-88042019D01*
X113835422Y-88194400D01*
X113835422Y-88384876D01*
X113873518Y-88537257D01*
X113911613Y-88613448D01*
X113949708Y-88651543D01*
X114025899Y-88689638D01*
X114102089Y-88689638D01*
X114178280Y-88651543D01*
X114216375Y-88613448D01*
X114254470Y-88537257D01*
X114292565Y-88384876D01*
X114292565Y-88194400D01*
X114254470Y-88042019D01*
X114216375Y-87965829D01*
X114178280Y-87927734D01*
X114102089Y-87889638D01*
X113492565Y-88270591D02*
X113225899Y-88270591D01*
X113111613Y-88689638D02*
X113492565Y-88689638D01*
X113492565Y-87889638D01*
X113111613Y-87889638D01*
X105567327Y-73309638D02*
X105833994Y-72928686D01*
X106024470Y-73309638D02*
X106024470Y-72509638D01*
X105719708Y-72509638D01*
X105643518Y-72547734D01*
X105605422Y-72585829D01*
X105567327Y-72662019D01*
X105567327Y-72776305D01*
X105605422Y-72852495D01*
X105643518Y-72890591D01*
X105719708Y-72928686D01*
X106024470Y-72928686D01*
X104805422Y-73309638D02*
X105262565Y-73309638D01*
X105033994Y-73309638D02*
X105033994Y-72509638D01*
X105110184Y-72623924D01*
X105186375Y-72700114D01*
X105262565Y-72738210D01*
X104538756Y-72509638D02*
X104043518Y-72509638D01*
X104310184Y-72814400D01*
X104195899Y-72814400D01*
X104119708Y-72852495D01*
X104081613Y-72890591D01*
X104043518Y-72966781D01*
X104043518Y-73157257D01*
X104081613Y-73233448D01*
X104119708Y-73271543D01*
X104195899Y-73309638D01*
X104424470Y-73309638D01*
X104500661Y-73271543D01*
X104538756Y-73233448D01*
X105641613Y-73816305D02*
X105641613Y-74349638D01*
X105832089Y-73511543D02*
X106022565Y-74082972D01*
X105527327Y-74082972D01*
X105222565Y-74349638D02*
X105222565Y-73549638D01*
X104765422Y-74349638D02*
X105108280Y-73892495D01*
X104765422Y-73549638D02*
X105222565Y-74006781D01*
X104498756Y-73549638D02*
X103965422Y-73549638D01*
X104308280Y-74349638D01*
X117326375Y-121633448D02*
X117364470Y-121671543D01*
X117478756Y-121709638D01*
X117554946Y-121709638D01*
X117669232Y-121671543D01*
X117745422Y-121595353D01*
X117783518Y-121519162D01*
X117821613Y-121366781D01*
X117821613Y-121252495D01*
X117783518Y-121100114D01*
X117745422Y-121023924D01*
X117669232Y-120947734D01*
X117554946Y-120909638D01*
X117478756Y-120909638D01*
X117364470Y-120947734D01*
X117326375Y-120985829D01*
X116640661Y-120909638D02*
X116793042Y-120909638D01*
X116869232Y-120947734D01*
X116907327Y-120985829D01*
X116983518Y-121100114D01*
X117021613Y-121252495D01*
X117021613Y-121557257D01*
X116983518Y-121633448D01*
X116945422Y-121671543D01*
X116869232Y-121709638D01*
X116716851Y-121709638D01*
X116640661Y-121671543D01*
X116602565Y-121633448D01*
X116564470Y-121557257D01*
X116564470Y-121366781D01*
X116602565Y-121290591D01*
X116640661Y-121252495D01*
X116716851Y-121214400D01*
X116869232Y-121214400D01*
X116945422Y-121252495D01*
X116983518Y-121290591D01*
X117021613Y-121366781D01*
X113020600Y-120973774D02*
X112525362Y-120973774D01*
X112792028Y-121278536D01*
X112677743Y-121278536D01*
X112601552Y-121316631D01*
X112563457Y-121354727D01*
X112525362Y-121430917D01*
X112525362Y-121621393D01*
X112563457Y-121697584D01*
X112601552Y-121735679D01*
X112677743Y-121773774D01*
X112906314Y-121773774D01*
X112982504Y-121735679D01*
X113020600Y-121697584D01*
X112258695Y-120973774D02*
X111763457Y-120973774D01*
X112030124Y-121278536D01*
X111915838Y-121278536D01*
X111839647Y-121316631D01*
X111801552Y-121354727D01*
X111763457Y-121430917D01*
X111763457Y-121621393D01*
X111801552Y-121697584D01*
X111839647Y-121735679D01*
X111915838Y-121773774D01*
X112144409Y-121773774D01*
X112220600Y-121735679D01*
X112258695Y-121697584D01*
X111420600Y-121773774D02*
X111420600Y-120973774D01*
X111115838Y-120973774D01*
X111039647Y-121011870D01*
X111001552Y-121049965D01*
X110963457Y-121126155D01*
X110963457Y-121240441D01*
X111001552Y-121316631D01*
X111039647Y-121354727D01*
X111115838Y-121392822D01*
X111420600Y-121392822D01*
X110353933Y-121354727D02*
X110620600Y-121354727D01*
X110620600Y-121773774D02*
X110620600Y-120973774D01*
X110239647Y-120973774D01*
X105543471Y-78535438D02*
X105581566Y-78573533D01*
X105695852Y-78611628D01*
X105772042Y-78611628D01*
X105886328Y-78573533D01*
X105962518Y-78497343D01*
X106000614Y-78421152D01*
X106038709Y-78268771D01*
X106038709Y-78154485D01*
X106000614Y-78002104D01*
X105962518Y-77925914D01*
X105886328Y-77849724D01*
X105772042Y-77811628D01*
X105695852Y-77811628D01*
X105581566Y-77849724D01*
X105543471Y-77887819D01*
X105276804Y-77811628D02*
X104781566Y-77811628D01*
X105048233Y-78116390D01*
X104933947Y-78116390D01*
X104857757Y-78154485D01*
X104819661Y-78192581D01*
X104781566Y-78268771D01*
X104781566Y-78459247D01*
X104819661Y-78535438D01*
X104857757Y-78573533D01*
X104933947Y-78611628D01*
X105162518Y-78611628D01*
X105238709Y-78573533D01*
X105276804Y-78535438D01*
X108867327Y-79209638D02*
X108791137Y-79209638D01*
X108714946Y-79247734D01*
X108676851Y-79285829D01*
X108638756Y-79362019D01*
X108600661Y-79514400D01*
X108600661Y-79704876D01*
X108638756Y-79857257D01*
X108676851Y-79933448D01*
X108714946Y-79971543D01*
X108791137Y-80009638D01*
X108867327Y-80009638D01*
X108943518Y-79971543D01*
X108981613Y-79933448D01*
X109019708Y-79857257D01*
X109057803Y-79704876D01*
X109057803Y-79514400D01*
X109019708Y-79362019D01*
X108981613Y-79285829D01*
X108943518Y-79247734D01*
X108867327Y-79209638D01*
X108257803Y-79933448D02*
X108219708Y-79971543D01*
X108257803Y-80009638D01*
X108295899Y-79971543D01*
X108257803Y-79933448D01*
X108257803Y-80009638D01*
X107457803Y-80009638D02*
X107914946Y-80009638D01*
X107686375Y-80009638D02*
X107686375Y-79209638D01*
X107762565Y-79323924D01*
X107838756Y-79400114D01*
X107914946Y-79438210D01*
X106772089Y-79476305D02*
X106772089Y-80009638D01*
X107114946Y-79476305D02*
X107114946Y-79895353D01*
X107076851Y-79971543D01*
X107000661Y-80009638D01*
X106886375Y-80009638D01*
X106810184Y-79971543D01*
X106772089Y-79933448D01*
X106124470Y-79590591D02*
X106391137Y-79590591D01*
X106391137Y-80009638D02*
X106391137Y-79209638D01*
X106010184Y-79209638D01*
X90034946Y-83550114D02*
X90034946Y-84359638D01*
X89987327Y-84454876D01*
X89939708Y-84502495D01*
X89844470Y-84550114D01*
X89653994Y-84550114D01*
X89558756Y-84502495D01*
X89511137Y-84454876D01*
X89463518Y-84359638D01*
X89463518Y-83550114D01*
X88558756Y-83883448D02*
X88558756Y-84550114D01*
X88796851Y-83502495D02*
X89034946Y-84216781D01*
X88415899Y-84216781D01*
X93072089Y-71770114D02*
X93072089Y-72579638D01*
X93024470Y-72674876D01*
X92976851Y-72722495D01*
X92881613Y-72770114D01*
X92691137Y-72770114D01*
X92595899Y-72722495D01*
X92548280Y-72674876D01*
X92500661Y-72579638D01*
X92500661Y-71770114D01*
X91548280Y-72770114D02*
X92024470Y-72770114D01*
X92024470Y-71770114D01*
X91214946Y-72770114D02*
X91214946Y-71770114D01*
X90643518Y-72770114D01*
X90643518Y-71770114D01*
X90214946Y-71865353D02*
X90167327Y-71817734D01*
X90072089Y-71770114D01*
X89833994Y-71770114D01*
X89738756Y-71817734D01*
X89691137Y-71865353D01*
X89643518Y-71960591D01*
X89643518Y-72055829D01*
X89691137Y-72198686D01*
X90262565Y-72770114D01*
X89643518Y-72770114D01*
X89024470Y-71770114D02*
X88929232Y-71770114D01*
X88833994Y-71817734D01*
X88786375Y-71865353D01*
X88738756Y-71960591D01*
X88691137Y-72151067D01*
X88691137Y-72389162D01*
X88738756Y-72579638D01*
X88786375Y-72674876D01*
X88833994Y-72722495D01*
X88929232Y-72770114D01*
X89024470Y-72770114D01*
X89119708Y-72722495D01*
X89167327Y-72674876D01*
X89214946Y-72579638D01*
X89262565Y-72389162D01*
X89262565Y-72151067D01*
X89214946Y-71960591D01*
X89167327Y-71865353D01*
X89119708Y-71817734D01*
X89024470Y-71770114D01*
X88072089Y-71770114D02*
X87976851Y-71770114D01*
X87881613Y-71817734D01*
X87833994Y-71865353D01*
X87786375Y-71960591D01*
X87738756Y-72151067D01*
X87738756Y-72389162D01*
X87786375Y-72579638D01*
X87833994Y-72674876D01*
X87881613Y-72722495D01*
X87976851Y-72770114D01*
X88072089Y-72770114D01*
X88167327Y-72722495D01*
X88214946Y-72674876D01*
X88262565Y-72579638D01*
X88310184Y-72389162D01*
X88310184Y-72151067D01*
X88262565Y-71960591D01*
X88214946Y-71865353D01*
X88167327Y-71817734D01*
X88072089Y-71770114D01*
X87405422Y-71770114D02*
X86786375Y-71770114D01*
X87119708Y-72151067D01*
X86976851Y-72151067D01*
X86881613Y-72198686D01*
X86833994Y-72246305D01*
X86786375Y-72341543D01*
X86786375Y-72579638D01*
X86833994Y-72674876D01*
X86881613Y-72722495D01*
X86976851Y-72770114D01*
X87262565Y-72770114D01*
X87357803Y-72722495D01*
X87405422Y-72674876D01*
D15*
X101743042Y-71867734D02*
X102393042Y-71867734D01*
X101743042Y-71867734D02*
X100068042Y-71867734D01*
X101743042Y-68747734D02*
X102393042Y-68747734D01*
X101743042Y-68747734D02*
X101093042Y-68747734D01*
X101138283Y-110943233D02*
X101592411Y-110943233D01*
X101138283Y-112413233D02*
X101592411Y-112413233D01*
X106028042Y-86468986D02*
X106028042Y-85946482D01*
X104558042Y-86468986D02*
X104558042Y-85946482D01*
X102060106Y-75122734D02*
X101605978Y-75122734D01*
X102060106Y-76592734D02*
X101605978Y-76592734D01*
X108608042Y-86414798D02*
X108608042Y-85960670D01*
X107138042Y-86414798D02*
X107138042Y-85960670D01*
X114571459Y-118067549D02*
X115093963Y-118067549D01*
X114571459Y-119537549D02*
X115093963Y-119537549D01*
X107575978Y-76562734D02*
X108030106Y-76562734D01*
X107575978Y-75092734D02*
X108030106Y-75092734D01*
X98218042Y-85950670D02*
X98218042Y-86404798D01*
X96748042Y-85950670D02*
X96748042Y-86404798D01*
X110668042Y-85620670D02*
X110668042Y-86074798D01*
X112138042Y-85620670D02*
X112138042Y-86074798D01*
X101848042Y-85930670D02*
X101848042Y-86384798D01*
X103318042Y-85930670D02*
X103318042Y-86384798D01*
X114587071Y-125692955D02*
X115041199Y-125692955D01*
X114587071Y-127162955D02*
X115041199Y-127162955D01*
X87663954Y-115838863D02*
X88118082Y-115838863D01*
X87663954Y-114368863D02*
X88118082Y-114368863D01*
X107141790Y-112382734D02*
X107664294Y-112382734D01*
X107141790Y-110912734D02*
X107664294Y-110912734D01*
X105151519Y-125884835D02*
X106251519Y-125884835D01*
X103651519Y-126834835D02*
X105151519Y-126834835D01*
X103651519Y-116434835D02*
X105151519Y-116434835D01*
X105151519Y-116434835D02*
X105151519Y-117384835D01*
X105151519Y-117384835D02*
X110276519Y-117384835D01*
X105151519Y-126834835D02*
X105151519Y-125884835D01*
X94096970Y-87577734D02*
X94896970Y-87577734D01*
X93296970Y-87577734D02*
X93296970Y-87317734D01*
X94096970Y-84457734D02*
X93296970Y-84457734D01*
X94946970Y-87267734D02*
X94946970Y-87577734D01*
X94096970Y-84457734D02*
X94546970Y-84817734D01*
X94096970Y-87577734D02*
X93296970Y-87577734D01*
X93296970Y-84457734D02*
X93296970Y-84717734D01*
X100799485Y-85941444D02*
X100799485Y-86395572D01*
X99329485Y-85941444D02*
X99329485Y-86395572D01*
X87629279Y-112228097D02*
X88083407Y-112228097D01*
X87629279Y-113698097D02*
X88083407Y-113698097D01*
X93238042Y-106717734D02*
X93788042Y-106717734D01*
X93788042Y-106717734D02*
X93788042Y-92817734D01*
X93788042Y-92817734D02*
X93238042Y-92817734D01*
X93238042Y-92817734D02*
X93238042Y-106717734D01*
X93488042Y-106417734D02*
X93438042Y-106417734D01*
X93438042Y-106417734D02*
X93438042Y-93067734D01*
X93438042Y-93067734D02*
X93488042Y-93067734D01*
X93488042Y-93067734D02*
X93488042Y-106417734D01*
X108088042Y-105267734D02*
X93938042Y-105267734D01*
X93938042Y-105267734D02*
X93938042Y-94317734D01*
X93938042Y-94317734D02*
X108088042Y-94317734D01*
X108088042Y-94317734D02*
X108088042Y-105267734D01*
X108538042Y-106417734D02*
X108488042Y-106417734D01*
X108488042Y-106417734D02*
X108488042Y-93067734D01*
X108488042Y-93067734D02*
X108538042Y-93067734D01*
X108538042Y-93067734D02*
X108538042Y-106417734D01*
X93688042Y-106617734D02*
X93288042Y-106617734D01*
X93288042Y-106617734D02*
X93288042Y-92917734D01*
X93288042Y-92917734D02*
X93688042Y-92917734D01*
X93688042Y-92917734D02*
X93688042Y-106617734D01*
X93588042Y-93017734D02*
X93388042Y-93017734D01*
X93388042Y-93017734D02*
X93388042Y-106517734D01*
X93388042Y-106517734D02*
X93588042Y-106517734D01*
X93588042Y-106517734D02*
X93588042Y-93017734D01*
G36*
X109388042Y-105617734D02*
G01*
X108288042Y-106717734D01*
X108238042Y-92767734D01*
X109388042Y-92767734D01*
X109388042Y-105617734D01*
G37*
X109388042Y-105617734D02*
X108288042Y-106717734D01*
X108238042Y-92767734D01*
X109388042Y-92767734D01*
X109388042Y-105617734D01*
X101920106Y-72732734D02*
X101465978Y-72732734D01*
X101920106Y-74202734D02*
X101465978Y-74202734D01*
X114497155Y-117073146D02*
X115019659Y-117073146D01*
X114497155Y-115603146D02*
X115019659Y-115603146D01*
X107773042Y-71817734D02*
X106098042Y-71817734D01*
X107773042Y-68697734D02*
X108423042Y-68697734D01*
X107773042Y-71817734D02*
X108423042Y-71817734D01*
X107773042Y-68697734D02*
X107123042Y-68697734D01*
X110993042Y-70617734D02*
X110993042Y-76627734D01*
X117813042Y-72867734D02*
X117813042Y-76627734D01*
X117813042Y-76627734D02*
X116553042Y-76627734D01*
X110993042Y-76627734D02*
X112253042Y-76627734D01*
X115016431Y-124624249D02*
X114562303Y-124624249D01*
X115016431Y-123154249D02*
X114562303Y-123154249D01*
X86965189Y-104146012D02*
X86965189Y-98346012D01*
X90265189Y-104146012D02*
X90265189Y-98346012D01*
X90265189Y-104146012D02*
X86965189Y-104146012D01*
X114758042Y-85560670D02*
X114758042Y-86014798D01*
X113288042Y-85560670D02*
X113288042Y-86014798D01*
X107575978Y-74132734D02*
X108030106Y-74132734D01*
X107575978Y-72662734D02*
X108030106Y-72662734D01*
X114565267Y-122110311D02*
X115087771Y-122110311D01*
X114565267Y-120640311D02*
X115087771Y-120640311D01*
X107421790Y-77502734D02*
X107944294Y-77502734D01*
X107421790Y-78972734D02*
X107944294Y-78972734D01*
X89523042Y-73137734D02*
X92973042Y-73137734D01*
X89523042Y-73137734D02*
X87573042Y-73137734D01*
X89523042Y-83257734D02*
X91473042Y-83257734D01*
X89523042Y-83257734D02*
X87573042Y-83257734D01*
M02*
