G04 #@! TF.GenerationSoftware,KiCad,Pcbnew,(6.0.7)*
G04 #@! TF.CreationDate,2023-02-15T16:43:35+05:30*
G04 #@! TF.ProjectId,POWER CARD,504f5745-5220-4434-9152-442e6b696361,rev?*
G04 #@! TF.SameCoordinates,Original*
G04 #@! TF.FileFunction,Legend,Top*
G04 #@! TF.FilePolarity,Positive*
%FSLAX46Y46*%
G04 Gerber Fmt 4.6, Leading zero omitted, Abs format (unit mm)*
G04 Created by KiCad (PCBNEW (6.0.7)) date 2023-02-15 16:43:35*
%MOMM*%
%LPD*%
G01*
G04 APERTURE LIST*
%ADD10C,0.200000*%
G04 #@! TA.AperFunction,Profile*
%ADD11C,0.100000*%
G04 #@! TD*
%ADD12C,0.300000*%
%ADD13C,0.250000*%
%ADD14C,0.150000*%
%ADD15C,0.120000*%
%ADD16C,0.050000*%
%ADD17O,1.600000X2.300000*%
G04 APERTURE END LIST*
D10*
G36*
X116040100Y-72089098D02*
G01*
X117299723Y-72089098D01*
X117314037Y-72833420D01*
X116083042Y-72847734D01*
X116083042Y-73606370D01*
X115009501Y-72582926D01*
X114980873Y-72575770D01*
X115997159Y-71473601D01*
X116040100Y-72089098D01*
G37*
X116040100Y-72089098D02*
X117299723Y-72089098D01*
X117314037Y-72833420D01*
X116083042Y-72847734D01*
X116083042Y-73606370D01*
X115009501Y-72582926D01*
X114980873Y-72575770D01*
X115997159Y-71473601D01*
X116040100Y-72089098D01*
D11*
X85582966Y-123837734D02*
G75*
G03*
X89583042Y-127837734I4000034J34D01*
G01*
X85583042Y-68337734D02*
X85583042Y-123837734D01*
X118166574Y-127837734D02*
X118166574Y-64337734D01*
X89583042Y-127837734D02*
X118166574Y-127837734D01*
X118166574Y-64337734D02*
X89583042Y-64337734D01*
X89583042Y-64337732D02*
G75*
G03*
X85583042Y-68337734I-2J-3999998D01*
G01*
X81906894Y-125643083D02*
G75*
G03*
X81906894Y-125643083I-1J0D01*
G01*
D12*
X112827327Y-105398686D02*
X112922565Y-105493924D01*
X113017803Y-105779638D01*
X113017803Y-105970114D01*
X112922565Y-106255829D01*
X112732089Y-106446305D01*
X112541613Y-106541543D01*
X112160661Y-106636781D01*
X111874946Y-106636781D01*
X111493994Y-106541543D01*
X111303518Y-106446305D01*
X111113042Y-106255829D01*
X111017803Y-105970114D01*
X111017803Y-105779638D01*
X111113042Y-105493924D01*
X111208280Y-105398686D01*
D13*
X115621137Y-67847734D02*
X115525899Y-67800114D01*
X115383042Y-67800114D01*
X115240184Y-67847734D01*
X115144946Y-67942972D01*
X115097327Y-68038210D01*
X115049708Y-68228686D01*
X115049708Y-68371543D01*
X115097327Y-68562019D01*
X115144946Y-68657257D01*
X115240184Y-68752495D01*
X115383042Y-68800114D01*
X115478280Y-68800114D01*
X115621137Y-68752495D01*
X115668756Y-68704876D01*
X115668756Y-68371543D01*
X115478280Y-68371543D01*
X116097327Y-68800114D02*
X116097327Y-67800114D01*
X116668756Y-68800114D01*
X116668756Y-67800114D01*
X117144946Y-68800114D02*
X117144946Y-67800114D01*
X117383042Y-67800114D01*
X117525899Y-67847734D01*
X117621137Y-67942972D01*
X117668756Y-68038210D01*
X117716375Y-68228686D01*
X117716375Y-68371543D01*
X117668756Y-68562019D01*
X117621137Y-68657257D01*
X117525899Y-68752495D01*
X117383042Y-68800114D01*
X117144946Y-68800114D01*
D12*
X93569003Y-117441590D02*
X93569003Y-115536829D01*
X94521384Y-116489210D02*
X92616622Y-116489210D01*
X111452227Y-119775368D02*
X109547466Y-119775368D01*
D10*
X99563994Y-103004591D02*
X99678280Y-103042686D01*
X99716375Y-103080781D01*
X99754470Y-103156972D01*
X99754470Y-103271257D01*
X99716375Y-103347448D01*
X99678280Y-103385543D01*
X99602089Y-103423638D01*
X99297327Y-103423638D01*
X99297327Y-102623638D01*
X99563994Y-102623638D01*
X99640184Y-102661734D01*
X99678280Y-102699829D01*
X99716375Y-102776019D01*
X99716375Y-102852210D01*
X99678280Y-102928400D01*
X99640184Y-102966495D01*
X99563994Y-103004591D01*
X99297327Y-103004591D01*
X100211613Y-103423638D02*
X100135422Y-103385543D01*
X100097327Y-103309353D01*
X100097327Y-102623638D01*
X100859232Y-103423638D02*
X100859232Y-103004591D01*
X100821137Y-102928400D01*
X100744946Y-102890305D01*
X100592565Y-102890305D01*
X100516375Y-102928400D01*
X100859232Y-103385543D02*
X100783042Y-103423638D01*
X100592565Y-103423638D01*
X100516375Y-103385543D01*
X100478280Y-103309353D01*
X100478280Y-103233162D01*
X100516375Y-103156972D01*
X100592565Y-103118876D01*
X100783042Y-103118876D01*
X100859232Y-103080781D01*
X101583042Y-103385543D02*
X101506851Y-103423638D01*
X101354470Y-103423638D01*
X101278280Y-103385543D01*
X101240184Y-103347448D01*
X101202089Y-103271257D01*
X101202089Y-103042686D01*
X101240184Y-102966495D01*
X101278280Y-102928400D01*
X101354470Y-102890305D01*
X101506851Y-102890305D01*
X101583042Y-102928400D01*
X101925899Y-103423638D02*
X101925899Y-102623638D01*
X102002089Y-103118876D02*
X102230661Y-103423638D01*
X102230661Y-102890305D02*
X101925899Y-103195067D01*
X102916375Y-103385543D02*
X102840184Y-103423638D01*
X102687803Y-103423638D01*
X102611613Y-103385543D01*
X102573518Y-103347448D01*
X102535422Y-103271257D01*
X102535422Y-103042686D01*
X102573518Y-102966495D01*
X102611613Y-102928400D01*
X102687803Y-102890305D01*
X102840184Y-102890305D01*
X102916375Y-102928400D01*
X103602089Y-103423638D02*
X103602089Y-103004591D01*
X103563994Y-102928400D01*
X103487803Y-102890305D01*
X103335422Y-102890305D01*
X103259232Y-102928400D01*
X103602089Y-103385543D02*
X103525899Y-103423638D01*
X103335422Y-103423638D01*
X103259232Y-103385543D01*
X103221137Y-103309353D01*
X103221137Y-103233162D01*
X103259232Y-103156972D01*
X103335422Y-103118876D01*
X103525899Y-103118876D01*
X103602089Y-103080781D01*
X103868756Y-102890305D02*
X104173518Y-102890305D01*
X103983042Y-102623638D02*
X103983042Y-103309353D01*
X104021137Y-103385543D01*
X104097327Y-103423638D01*
X104173518Y-103423638D01*
X96116375Y-103949734D02*
X96040184Y-103911638D01*
X95925899Y-103911638D01*
X95811613Y-103949734D01*
X95735422Y-104025924D01*
X95697327Y-104102114D01*
X95659232Y-104254495D01*
X95659232Y-104368781D01*
X95697327Y-104521162D01*
X95735422Y-104597353D01*
X95811613Y-104673543D01*
X95925899Y-104711638D01*
X96002089Y-104711638D01*
X96116375Y-104673543D01*
X96154470Y-104635448D01*
X96154470Y-104368781D01*
X96002089Y-104368781D01*
X96459232Y-104673543D02*
X96573518Y-104711638D01*
X96763994Y-104711638D01*
X96840184Y-104673543D01*
X96878280Y-104635448D01*
X96916375Y-104559257D01*
X96916375Y-104483067D01*
X96878280Y-104406876D01*
X96840184Y-104368781D01*
X96763994Y-104330686D01*
X96611613Y-104292591D01*
X96535422Y-104254495D01*
X96497327Y-104216400D01*
X96459232Y-104140210D01*
X96459232Y-104064019D01*
X96497327Y-103987829D01*
X96535422Y-103949734D01*
X96611613Y-103911638D01*
X96802089Y-103911638D01*
X96916375Y-103949734D01*
X97259232Y-104711638D02*
X97259232Y-103911638D01*
X97525899Y-104483067D01*
X97792565Y-103911638D01*
X97792565Y-104711638D01*
X98783042Y-104711638D02*
X98783042Y-103911638D01*
X99087803Y-103911638D01*
X99163994Y-103949734D01*
X99202089Y-103987829D01*
X99240184Y-104064019D01*
X99240184Y-104178305D01*
X99202089Y-104254495D01*
X99163994Y-104292591D01*
X99087803Y-104330686D01*
X98783042Y-104330686D01*
X99925899Y-104178305D02*
X99925899Y-104711638D01*
X99583042Y-104178305D02*
X99583042Y-104597353D01*
X99621137Y-104673543D01*
X99697327Y-104711638D01*
X99811613Y-104711638D01*
X99887803Y-104673543D01*
X99925899Y-104635448D01*
X100306851Y-104711638D02*
X100306851Y-104178305D01*
X100306851Y-104254495D02*
X100344946Y-104216400D01*
X100421137Y-104178305D01*
X100535422Y-104178305D01*
X100611613Y-104216400D01*
X100649708Y-104292591D01*
X100649708Y-104711638D01*
X100649708Y-104292591D02*
X100687803Y-104216400D01*
X100763994Y-104178305D01*
X100878280Y-104178305D01*
X100954470Y-104216400D01*
X100992565Y-104292591D01*
X100992565Y-104711638D01*
X101373518Y-104178305D02*
X101373518Y-104978305D01*
X101373518Y-104216400D02*
X101449708Y-104178305D01*
X101602089Y-104178305D01*
X101678280Y-104216400D01*
X101716375Y-104254495D01*
X101754470Y-104330686D01*
X101754470Y-104559257D01*
X101716375Y-104635448D01*
X101678280Y-104673543D01*
X101602089Y-104711638D01*
X101449708Y-104711638D01*
X101373518Y-104673543D01*
X103163994Y-104635448D02*
X103125899Y-104673543D01*
X103011613Y-104711638D01*
X102935422Y-104711638D01*
X102821137Y-104673543D01*
X102744946Y-104597353D01*
X102706851Y-104521162D01*
X102668756Y-104368781D01*
X102668756Y-104254495D01*
X102706851Y-104102114D01*
X102744946Y-104025924D01*
X102821137Y-103949734D01*
X102935422Y-103911638D01*
X103011613Y-103911638D01*
X103125899Y-103949734D01*
X103163994Y-103987829D01*
X103621137Y-104711638D02*
X103544946Y-104673543D01*
X103506851Y-104635448D01*
X103468756Y-104559257D01*
X103468756Y-104330686D01*
X103506851Y-104254495D01*
X103544946Y-104216400D01*
X103621137Y-104178305D01*
X103735422Y-104178305D01*
X103811613Y-104216400D01*
X103849708Y-104254495D01*
X103887803Y-104330686D01*
X103887803Y-104559257D01*
X103849708Y-104635448D01*
X103811613Y-104673543D01*
X103735422Y-104711638D01*
X103621137Y-104711638D01*
X104230661Y-104178305D02*
X104230661Y-104711638D01*
X104230661Y-104254495D02*
X104268756Y-104216400D01*
X104344946Y-104178305D01*
X104459232Y-104178305D01*
X104535422Y-104216400D01*
X104573518Y-104292591D01*
X104573518Y-104711638D01*
X104840184Y-104178305D02*
X105144946Y-104178305D01*
X104954470Y-103911638D02*
X104954470Y-104597353D01*
X104992565Y-104673543D01*
X105068756Y-104711638D01*
X105144946Y-104711638D01*
X105411613Y-104711638D02*
X105411613Y-104178305D01*
X105411613Y-104330686D02*
X105449708Y-104254495D01*
X105487803Y-104216400D01*
X105563994Y-104178305D01*
X105640184Y-104178305D01*
X106021137Y-104711638D02*
X105944946Y-104673543D01*
X105906851Y-104635448D01*
X105868756Y-104559257D01*
X105868756Y-104330686D01*
X105906851Y-104254495D01*
X105944946Y-104216400D01*
X106021137Y-104178305D01*
X106135422Y-104178305D01*
X106211613Y-104216400D01*
X106249708Y-104254495D01*
X106287803Y-104330686D01*
X106287803Y-104559257D01*
X106249708Y-104635448D01*
X106211613Y-104673543D01*
X106135422Y-104711638D01*
X106021137Y-104711638D01*
X106744946Y-104711638D02*
X106668756Y-104673543D01*
X106630661Y-104597353D01*
X106630661Y-103911638D01*
X107163994Y-104711638D02*
X107087803Y-104673543D01*
X107049708Y-104597353D01*
X107049708Y-103911638D01*
X107773518Y-104673543D02*
X107697327Y-104711638D01*
X107544946Y-104711638D01*
X107468756Y-104673543D01*
X107430661Y-104597353D01*
X107430661Y-104292591D01*
X107468756Y-104216400D01*
X107544946Y-104178305D01*
X107697327Y-104178305D01*
X107773518Y-104216400D01*
X107811613Y-104292591D01*
X107811613Y-104368781D01*
X107430661Y-104444972D01*
X108154470Y-104711638D02*
X108154470Y-104178305D01*
X108154470Y-104330686D02*
X108192565Y-104254495D01*
X108230661Y-104216400D01*
X108306851Y-104178305D01*
X108383042Y-104178305D01*
X99335422Y-105961543D02*
X99449708Y-105999638D01*
X99640184Y-105999638D01*
X99716375Y-105961543D01*
X99754470Y-105923448D01*
X99792565Y-105847257D01*
X99792565Y-105771067D01*
X99754470Y-105694876D01*
X99716375Y-105656781D01*
X99640184Y-105618686D01*
X99487803Y-105580591D01*
X99411613Y-105542495D01*
X99373518Y-105504400D01*
X99335422Y-105428210D01*
X99335422Y-105352019D01*
X99373518Y-105275829D01*
X99411613Y-105237734D01*
X99487803Y-105199638D01*
X99678280Y-105199638D01*
X99792565Y-105237734D01*
X100478280Y-105999638D02*
X100478280Y-105580591D01*
X100440184Y-105504400D01*
X100363994Y-105466305D01*
X100211613Y-105466305D01*
X100135422Y-105504400D01*
X100478280Y-105961543D02*
X100402089Y-105999638D01*
X100211613Y-105999638D01*
X100135422Y-105961543D01*
X100097327Y-105885353D01*
X100097327Y-105809162D01*
X100135422Y-105732972D01*
X100211613Y-105694876D01*
X100402089Y-105694876D01*
X100478280Y-105656781D01*
X100859232Y-105999638D02*
X100859232Y-105199638D01*
X101202089Y-105999638D02*
X101202089Y-105580591D01*
X101163994Y-105504400D01*
X101087803Y-105466305D01*
X100973518Y-105466305D01*
X100897327Y-105504400D01*
X100859232Y-105542495D01*
X101925899Y-105999638D02*
X101925899Y-105580591D01*
X101887803Y-105504400D01*
X101811613Y-105466305D01*
X101659232Y-105466305D01*
X101583042Y-105504400D01*
X101925899Y-105961543D02*
X101849708Y-105999638D01*
X101659232Y-105999638D01*
X101583042Y-105961543D01*
X101544946Y-105885353D01*
X101544946Y-105809162D01*
X101583042Y-105732972D01*
X101659232Y-105694876D01*
X101849708Y-105694876D01*
X101925899Y-105656781D01*
X102306851Y-105466305D02*
X102306851Y-106152019D01*
X102268756Y-106228210D01*
X102192565Y-106266305D01*
X102154470Y-106266305D01*
X102306851Y-105199638D02*
X102268756Y-105237734D01*
X102306851Y-105275829D01*
X102344946Y-105237734D01*
X102306851Y-105199638D01*
X102306851Y-105275829D01*
X102649708Y-105275829D02*
X102687803Y-105237734D01*
X102763994Y-105199638D01*
X102954470Y-105199638D01*
X103030661Y-105237734D01*
X103068756Y-105275829D01*
X103106851Y-105352019D01*
X103106851Y-105428210D01*
X103068756Y-105542495D01*
X102611613Y-105999638D01*
X103106851Y-105999638D01*
X103602089Y-105199638D02*
X103678280Y-105199638D01*
X103754470Y-105237734D01*
X103792565Y-105275829D01*
X103830661Y-105352019D01*
X103868756Y-105504400D01*
X103868756Y-105694876D01*
X103830661Y-105847257D01*
X103792565Y-105923448D01*
X103754470Y-105961543D01*
X103678280Y-105999638D01*
X103602089Y-105999638D01*
X103525899Y-105961543D01*
X103487803Y-105923448D01*
X103449708Y-105847257D01*
X103411613Y-105694876D01*
X103411613Y-105504400D01*
X103449708Y-105352019D01*
X103487803Y-105275829D01*
X103525899Y-105237734D01*
X103602089Y-105199638D01*
X104363994Y-105199638D02*
X104440184Y-105199638D01*
X104516375Y-105237734D01*
X104554470Y-105275829D01*
X104592565Y-105352019D01*
X104630661Y-105504400D01*
X104630661Y-105694876D01*
X104592565Y-105847257D01*
X104554470Y-105923448D01*
X104516375Y-105961543D01*
X104440184Y-105999638D01*
X104363994Y-105999638D01*
X104287803Y-105961543D01*
X104249708Y-105923448D01*
X104211613Y-105847257D01*
X104173518Y-105694876D01*
X104173518Y-105504400D01*
X104211613Y-105352019D01*
X104249708Y-105275829D01*
X104287803Y-105237734D01*
X104363994Y-105199638D01*
X99868756Y-106868591D02*
X99602089Y-106868591D01*
X99602089Y-107287638D02*
X99602089Y-106487638D01*
X99983042Y-106487638D01*
X100592565Y-107249543D02*
X100516375Y-107287638D01*
X100363994Y-107287638D01*
X100287803Y-107249543D01*
X100249708Y-107173353D01*
X100249708Y-106868591D01*
X100287803Y-106792400D01*
X100363994Y-106754305D01*
X100516375Y-106754305D01*
X100592565Y-106792400D01*
X100630661Y-106868591D01*
X100630661Y-106944781D01*
X100249708Y-107020972D01*
X100973518Y-107287638D02*
X100973518Y-106487638D01*
X100973518Y-106792400D02*
X101049708Y-106754305D01*
X101202089Y-106754305D01*
X101278280Y-106792400D01*
X101316375Y-106830495D01*
X101354470Y-106906686D01*
X101354470Y-107135257D01*
X101316375Y-107211448D01*
X101278280Y-107249543D01*
X101202089Y-107287638D01*
X101049708Y-107287638D01*
X100973518Y-107249543D01*
X101659232Y-106563829D02*
X101697327Y-106525734D01*
X101773518Y-106487638D01*
X101963994Y-106487638D01*
X102040184Y-106525734D01*
X102078280Y-106563829D01*
X102116375Y-106640019D01*
X102116375Y-106716210D01*
X102078280Y-106830495D01*
X101621137Y-107287638D01*
X102116375Y-107287638D01*
X102611613Y-106487638D02*
X102687803Y-106487638D01*
X102763994Y-106525734D01*
X102802089Y-106563829D01*
X102840184Y-106640019D01*
X102878280Y-106792400D01*
X102878280Y-106982876D01*
X102840184Y-107135257D01*
X102802089Y-107211448D01*
X102763994Y-107249543D01*
X102687803Y-107287638D01*
X102611613Y-107287638D01*
X102535422Y-107249543D01*
X102497327Y-107211448D01*
X102459232Y-107135257D01*
X102421137Y-106982876D01*
X102421137Y-106792400D01*
X102459232Y-106640019D01*
X102497327Y-106563829D01*
X102535422Y-106525734D01*
X102611613Y-106487638D01*
X103183042Y-106563829D02*
X103221137Y-106525734D01*
X103297327Y-106487638D01*
X103487803Y-106487638D01*
X103563994Y-106525734D01*
X103602089Y-106563829D01*
X103640184Y-106640019D01*
X103640184Y-106716210D01*
X103602089Y-106830495D01*
X103144946Y-107287638D01*
X103640184Y-107287638D01*
X103906851Y-106487638D02*
X104402089Y-106487638D01*
X104135422Y-106792400D01*
X104249708Y-106792400D01*
X104325899Y-106830495D01*
X104363994Y-106868591D01*
X104402089Y-106944781D01*
X104402089Y-107135257D01*
X104363994Y-107211448D01*
X104325899Y-107249543D01*
X104249708Y-107287638D01*
X104021137Y-107287638D01*
X103944946Y-107249543D01*
X103906851Y-107211448D01*
X97659232Y-108537543D02*
X97773518Y-108575638D01*
X97963994Y-108575638D01*
X98040184Y-108537543D01*
X98078280Y-108499448D01*
X98116375Y-108423257D01*
X98116375Y-108347067D01*
X98078280Y-108270876D01*
X98040184Y-108232781D01*
X97963994Y-108194686D01*
X97811613Y-108156591D01*
X97735422Y-108118495D01*
X97697327Y-108080400D01*
X97659232Y-108004210D01*
X97659232Y-107928019D01*
X97697327Y-107851829D01*
X97735422Y-107813734D01*
X97811613Y-107775638D01*
X98002089Y-107775638D01*
X98116375Y-107813734D01*
X98802089Y-108575638D02*
X98802089Y-108156591D01*
X98763994Y-108080400D01*
X98687803Y-108042305D01*
X98535422Y-108042305D01*
X98459232Y-108080400D01*
X98802089Y-108537543D02*
X98725899Y-108575638D01*
X98535422Y-108575638D01*
X98459232Y-108537543D01*
X98421137Y-108461353D01*
X98421137Y-108385162D01*
X98459232Y-108308972D01*
X98535422Y-108270876D01*
X98725899Y-108270876D01*
X98802089Y-108232781D01*
X99144946Y-108537543D02*
X99221137Y-108575638D01*
X99373518Y-108575638D01*
X99449708Y-108537543D01*
X99487803Y-108461353D01*
X99487803Y-108423257D01*
X99449708Y-108347067D01*
X99373518Y-108308972D01*
X99259232Y-108308972D01*
X99183042Y-108270876D01*
X99144946Y-108194686D01*
X99144946Y-108156591D01*
X99183042Y-108080400D01*
X99259232Y-108042305D01*
X99373518Y-108042305D01*
X99449708Y-108080400D01*
X99754470Y-108042305D02*
X99944946Y-108575638D01*
X100135422Y-108042305D02*
X99944946Y-108575638D01*
X99868756Y-108766114D01*
X99830661Y-108804210D01*
X99754470Y-108842305D01*
X100783042Y-108575638D02*
X100783042Y-108156591D01*
X100744946Y-108080400D01*
X100668756Y-108042305D01*
X100516375Y-108042305D01*
X100440184Y-108080400D01*
X100783042Y-108537543D02*
X100706851Y-108575638D01*
X100516375Y-108575638D01*
X100440184Y-108537543D01*
X100402089Y-108461353D01*
X100402089Y-108385162D01*
X100440184Y-108308972D01*
X100516375Y-108270876D01*
X100706851Y-108270876D01*
X100783042Y-108232781D01*
X101735422Y-108537543D02*
X101849708Y-108575638D01*
X102040184Y-108575638D01*
X102116375Y-108537543D01*
X102154470Y-108499448D01*
X102192565Y-108423257D01*
X102192565Y-108347067D01*
X102154470Y-108270876D01*
X102116375Y-108232781D01*
X102040184Y-108194686D01*
X101887803Y-108156591D01*
X101811613Y-108118495D01*
X101773518Y-108080400D01*
X101735422Y-108004210D01*
X101735422Y-107928019D01*
X101773518Y-107851829D01*
X101811613Y-107813734D01*
X101887803Y-107775638D01*
X102078280Y-107775638D01*
X102192565Y-107813734D01*
X102459232Y-108042305D02*
X102649708Y-108575638D01*
X102840184Y-108042305D02*
X102649708Y-108575638D01*
X102573518Y-108766114D01*
X102535422Y-108804210D01*
X102459232Y-108842305D01*
X103106851Y-108537543D02*
X103183042Y-108575638D01*
X103335422Y-108575638D01*
X103411613Y-108537543D01*
X103449708Y-108461353D01*
X103449708Y-108423257D01*
X103411613Y-108347067D01*
X103335422Y-108308972D01*
X103221137Y-108308972D01*
X103144946Y-108270876D01*
X103106851Y-108194686D01*
X103106851Y-108156591D01*
X103144946Y-108080400D01*
X103221137Y-108042305D01*
X103335422Y-108042305D01*
X103411613Y-108080400D01*
X103678280Y-108042305D02*
X103983042Y-108042305D01*
X103792565Y-107775638D02*
X103792565Y-108461353D01*
X103830661Y-108537543D01*
X103906851Y-108575638D01*
X103983042Y-108575638D01*
X104554470Y-108537543D02*
X104478280Y-108575638D01*
X104325899Y-108575638D01*
X104249708Y-108537543D01*
X104211613Y-108461353D01*
X104211613Y-108156591D01*
X104249708Y-108080400D01*
X104325899Y-108042305D01*
X104478280Y-108042305D01*
X104554470Y-108080400D01*
X104592565Y-108156591D01*
X104592565Y-108232781D01*
X104211613Y-108308972D01*
X104935422Y-108575638D02*
X104935422Y-108042305D01*
X104935422Y-108118495D02*
X104973518Y-108080400D01*
X105049708Y-108042305D01*
X105163994Y-108042305D01*
X105240184Y-108080400D01*
X105278280Y-108156591D01*
X105278280Y-108575638D01*
X105278280Y-108156591D02*
X105316375Y-108080400D01*
X105392565Y-108042305D01*
X105506851Y-108042305D01*
X105583042Y-108080400D01*
X105621137Y-108156591D01*
X105621137Y-108575638D01*
X105963994Y-108537543D02*
X106040184Y-108575638D01*
X106192565Y-108575638D01*
X106268756Y-108537543D01*
X106306851Y-108461353D01*
X106306851Y-108423257D01*
X106268756Y-108347067D01*
X106192565Y-108308972D01*
X106078280Y-108308972D01*
X106002089Y-108270876D01*
X105963994Y-108194686D01*
X105963994Y-108156591D01*
X106002089Y-108080400D01*
X106078280Y-108042305D01*
X106192565Y-108042305D01*
X106268756Y-108080400D01*
D12*
X104428606Y-120507396D02*
X104428606Y-118602635D01*
X105380987Y-119555016D02*
X103476225Y-119555016D01*
X111017803Y-103698210D02*
X111017803Y-103317257D01*
X111113042Y-103126781D01*
X111303518Y-102936305D01*
X111684470Y-102841067D01*
X112351137Y-102841067D01*
X112732089Y-102936305D01*
X112922565Y-103126781D01*
X113017803Y-103317257D01*
X113017803Y-103698210D01*
X112922565Y-103888686D01*
X112732089Y-104079162D01*
X112351137Y-104174400D01*
X111684470Y-104174400D01*
X111303518Y-104079162D01*
X111113042Y-103888686D01*
X111017803Y-103698210D01*
X112071613Y-109520114D02*
X112071613Y-107615353D01*
D13*
X86455765Y-107374106D02*
X86455765Y-106374106D01*
X86836717Y-106374106D01*
X86931955Y-106421726D01*
X86979574Y-106469345D01*
X87027193Y-106564583D01*
X87027193Y-106707440D01*
X86979574Y-106802678D01*
X86931955Y-106850297D01*
X86836717Y-106897916D01*
X86455765Y-106897916D01*
X87455765Y-106374106D02*
X87455765Y-107183630D01*
X87503384Y-107278868D01*
X87551003Y-107326487D01*
X87646241Y-107374106D01*
X87836717Y-107374106D01*
X87931955Y-107326487D01*
X87979574Y-107278868D01*
X88027193Y-107183630D01*
X88027193Y-106374106D01*
X88503384Y-107374106D02*
X88503384Y-106374106D01*
X88836717Y-107088392D01*
X89170050Y-106374106D01*
X89170050Y-107374106D01*
X89646241Y-107374106D02*
X89646241Y-106374106D01*
X90027193Y-106374106D01*
X90122431Y-106421726D01*
X90170050Y-106469345D01*
X90217669Y-106564583D01*
X90217669Y-106707440D01*
X90170050Y-106802678D01*
X90122431Y-106850297D01*
X90027193Y-106897916D01*
X89646241Y-106897916D01*
D12*
X116761613Y-78872019D02*
X115261613Y-78872019D01*
X115261613Y-78300591D01*
X115333042Y-78157734D01*
X115404470Y-78086305D01*
X115547327Y-78014876D01*
X115761613Y-78014876D01*
X115904470Y-78086305D01*
X115975899Y-78157734D01*
X116047327Y-78300591D01*
X116047327Y-78872019D01*
X116761613Y-77372019D02*
X115761613Y-77372019D01*
X116047327Y-77372019D02*
X115904470Y-77300591D01*
X115833042Y-77229162D01*
X115761613Y-77086305D01*
X115761613Y-76943448D01*
X116761613Y-76229162D02*
X116690184Y-76372019D01*
X116618756Y-76443448D01*
X116475899Y-76514876D01*
X116047327Y-76514876D01*
X115904470Y-76443448D01*
X115833042Y-76372019D01*
X115761613Y-76229162D01*
X115761613Y-76014876D01*
X115833042Y-75872019D01*
X115904470Y-75800591D01*
X116047327Y-75729162D01*
X116475899Y-75729162D01*
X116618756Y-75800591D01*
X116690184Y-75872019D01*
X116761613Y-76014876D01*
X116761613Y-76229162D01*
X115761613Y-74443448D02*
X116975899Y-74443448D01*
X117118756Y-74514876D01*
X117190184Y-74586305D01*
X117261613Y-74729162D01*
X117261613Y-74943448D01*
X117190184Y-75086305D01*
X116690184Y-74443448D02*
X116761613Y-74586305D01*
X116761613Y-74872019D01*
X116690184Y-75014876D01*
X116618756Y-75086305D01*
X116475899Y-75157734D01*
X116047327Y-75157734D01*
X115904470Y-75086305D01*
X115833042Y-75014876D01*
X115761613Y-74872019D01*
X115761613Y-74586305D01*
X115833042Y-74443448D01*
X111991613Y-101820114D02*
X111991613Y-99915353D01*
X112943994Y-100867734D02*
X111039232Y-100867734D01*
D13*
X115084946Y-82900114D02*
X115703994Y-82900114D01*
X115370661Y-83281067D01*
X115513518Y-83281067D01*
X115608756Y-83328686D01*
X115656375Y-83376305D01*
X115703994Y-83471543D01*
X115703994Y-83709638D01*
X115656375Y-83804876D01*
X115608756Y-83852495D01*
X115513518Y-83900114D01*
X115227803Y-83900114D01*
X115132565Y-83852495D01*
X115084946Y-83804876D01*
X115989708Y-82900114D02*
X116323042Y-83900114D01*
X116656375Y-82900114D01*
X116894470Y-82900114D02*
X117513518Y-82900114D01*
X117180184Y-83281067D01*
X117323042Y-83281067D01*
X117418280Y-83328686D01*
X117465899Y-83376305D01*
X117513518Y-83471543D01*
X117513518Y-83709638D01*
X117465899Y-83804876D01*
X117418280Y-83852495D01*
X117323042Y-83900114D01*
X117037327Y-83900114D01*
X116942089Y-83852495D01*
X116894470Y-83804876D01*
D12*
X99514052Y-116310638D02*
X97609291Y-116310638D01*
D13*
X87567327Y-115767734D02*
X87472089Y-115720114D01*
X87329232Y-115720114D01*
X87186375Y-115767734D01*
X87091137Y-115862972D01*
X87043518Y-115958210D01*
X86995899Y-116148686D01*
X86995899Y-116291543D01*
X87043518Y-116482019D01*
X87091137Y-116577257D01*
X87186375Y-116672495D01*
X87329232Y-116720114D01*
X87424470Y-116720114D01*
X87567327Y-116672495D01*
X87614946Y-116624876D01*
X87614946Y-116291543D01*
X87424470Y-116291543D01*
X87995899Y-116672495D02*
X88138756Y-116720114D01*
X88376851Y-116720114D01*
X88472089Y-116672495D01*
X88519708Y-116624876D01*
X88567327Y-116529638D01*
X88567327Y-116434400D01*
X88519708Y-116339162D01*
X88472089Y-116291543D01*
X88376851Y-116243924D01*
X88186375Y-116196305D01*
X88091137Y-116148686D01*
X88043518Y-116101067D01*
X87995899Y-116005829D01*
X87995899Y-115910591D01*
X88043518Y-115815353D01*
X88091137Y-115767734D01*
X88186375Y-115720114D01*
X88424470Y-115720114D01*
X88567327Y-115767734D01*
X88995899Y-116720114D02*
X88995899Y-115720114D01*
X89329232Y-116434400D01*
X89662565Y-115720114D01*
X89662565Y-116720114D01*
D12*
X87678756Y-76056305D02*
X88535899Y-76056305D01*
X88107327Y-77556305D02*
X88107327Y-76056305D01*
X89321613Y-76056305D02*
X89607327Y-76056305D01*
X89750184Y-76127734D01*
X89893042Y-76270591D01*
X89964470Y-76556305D01*
X89964470Y-77056305D01*
X89893042Y-77342019D01*
X89750184Y-77484876D01*
X89607327Y-77556305D01*
X89321613Y-77556305D01*
X89178756Y-77484876D01*
X89035899Y-77342019D01*
X88964470Y-77056305D01*
X88964470Y-76556305D01*
X89035899Y-76270591D01*
X89178756Y-76127734D01*
X89321613Y-76056305D01*
X90607327Y-77556305D02*
X90607327Y-76056305D01*
X91178756Y-76056305D01*
X91321613Y-76127734D01*
X91393042Y-76199162D01*
X91464470Y-76342019D01*
X91464470Y-76556305D01*
X91393042Y-76699162D01*
X91321613Y-76770591D01*
X91178756Y-76842019D01*
X90607327Y-76842019D01*
D14*
X100798112Y-118790164D02*
X100750493Y-118837783D01*
X100607636Y-118885402D01*
X100512398Y-118885402D01*
X100369540Y-118837783D01*
X100274302Y-118742545D01*
X100226683Y-118647307D01*
X100179064Y-118456831D01*
X100179064Y-118313974D01*
X100226683Y-118123498D01*
X100274302Y-118028260D01*
X100369540Y-117933022D01*
X100512398Y-117885402D01*
X100607636Y-117885402D01*
X100750493Y-117933022D01*
X100798112Y-117980641D01*
X101702874Y-117885402D02*
X101226683Y-117885402D01*
X101179064Y-118361593D01*
X101226683Y-118313974D01*
X101321921Y-118266355D01*
X101560017Y-118266355D01*
X101655255Y-118313974D01*
X101702874Y-118361593D01*
X101750493Y-118456831D01*
X101750493Y-118694926D01*
X101702874Y-118790164D01*
X101655255Y-118837783D01*
X101560017Y-118885402D01*
X101321921Y-118885402D01*
X101226683Y-118837783D01*
X101179064Y-118790164D01*
X94350184Y-121330114D02*
X93778756Y-121330114D01*
X94064470Y-121330114D02*
X94064470Y-120330114D01*
X93969232Y-120472972D01*
X93873994Y-120568210D01*
X93778756Y-120615829D01*
X94969232Y-120330114D02*
X95064470Y-120330114D01*
X95159708Y-120377734D01*
X95207327Y-120425353D01*
X95254946Y-120520591D01*
X95302565Y-120711067D01*
X95302565Y-120949162D01*
X95254946Y-121139638D01*
X95207327Y-121234876D01*
X95159708Y-121282495D01*
X95064470Y-121330114D01*
X94969232Y-121330114D01*
X94873994Y-121282495D01*
X94826375Y-121234876D01*
X94778756Y-121139638D01*
X94731137Y-120949162D01*
X94731137Y-120711067D01*
X94778756Y-120520591D01*
X94826375Y-120425353D01*
X94873994Y-120377734D01*
X94969232Y-120330114D01*
X95921613Y-120330114D02*
X96016851Y-120330114D01*
X96112089Y-120377734D01*
X96159708Y-120425353D01*
X96207327Y-120520591D01*
X96254946Y-120711067D01*
X96254946Y-120949162D01*
X96207327Y-121139638D01*
X96159708Y-121234876D01*
X96112089Y-121282495D01*
X96016851Y-121330114D01*
X95921613Y-121330114D01*
X95826375Y-121282495D01*
X95778756Y-121234876D01*
X95731137Y-121139638D01*
X95683518Y-120949162D01*
X95683518Y-120711067D01*
X95731137Y-120520591D01*
X95778756Y-120425353D01*
X95826375Y-120377734D01*
X95921613Y-120330114D01*
X96873994Y-120330114D02*
X96969232Y-120330114D01*
X97064470Y-120377734D01*
X97112089Y-120425353D01*
X97159708Y-120520591D01*
X97207327Y-120711067D01*
X97207327Y-120949162D01*
X97159708Y-121139638D01*
X97112089Y-121234876D01*
X97064470Y-121282495D01*
X96969232Y-121330114D01*
X96873994Y-121330114D01*
X96778756Y-121282495D01*
X96731137Y-121234876D01*
X96683518Y-121139638D01*
X96635899Y-120949162D01*
X96635899Y-120711067D01*
X96683518Y-120520591D01*
X96731137Y-120425353D01*
X96778756Y-120377734D01*
X96873994Y-120330114D01*
X98064470Y-120663448D02*
X98064470Y-121330114D01*
X97635899Y-120663448D02*
X97635899Y-121187257D01*
X97683518Y-121282495D01*
X97778756Y-121330114D01*
X97921613Y-121330114D01*
X98016851Y-121282495D01*
X98064470Y-121234876D01*
X98873994Y-120806305D02*
X98540661Y-120806305D01*
X98540661Y-121330114D02*
X98540661Y-120330114D01*
X99016851Y-120330114D01*
X99445422Y-121282495D02*
X99445422Y-121330114D01*
X99397803Y-121425353D01*
X99350184Y-121472972D01*
X99826375Y-120425353D02*
X99873994Y-120377734D01*
X99969232Y-120330114D01*
X100207327Y-120330114D01*
X100302565Y-120377734D01*
X100350184Y-120425353D01*
X100397803Y-120520591D01*
X100397803Y-120615829D01*
X100350184Y-120758686D01*
X99778756Y-121330114D01*
X100397803Y-121330114D01*
X101302565Y-120330114D02*
X100826375Y-120330114D01*
X100778756Y-120806305D01*
X100826375Y-120758686D01*
X100921613Y-120711067D01*
X101159708Y-120711067D01*
X101254946Y-120758686D01*
X101302565Y-120806305D01*
X101350184Y-120901543D01*
X101350184Y-121139638D01*
X101302565Y-121234876D01*
X101254946Y-121282495D01*
X101159708Y-121330114D01*
X100921613Y-121330114D01*
X100826375Y-121282495D01*
X100778756Y-121234876D01*
X101635899Y-120330114D02*
X101969232Y-121330114D01*
X102302565Y-120330114D01*
X91204946Y-81760114D02*
X91204946Y-80760114D01*
X91585899Y-80760114D01*
X91681137Y-80807734D01*
X91728756Y-80855353D01*
X91776375Y-80950591D01*
X91776375Y-81093448D01*
X91728756Y-81188686D01*
X91681137Y-81236305D01*
X91585899Y-81283924D01*
X91204946Y-81283924D01*
X92728756Y-81760114D02*
X92157327Y-81760114D01*
X92443042Y-81760114D02*
X92443042Y-80760114D01*
X92347803Y-80902972D01*
X92252565Y-80998210D01*
X92157327Y-81045829D01*
X87724946Y-83640114D02*
X87724946Y-82640114D01*
X88058280Y-83354400D01*
X88391613Y-82640114D01*
X88391613Y-83640114D01*
X88867803Y-83640114D02*
X88867803Y-82973448D01*
X88867803Y-82640114D02*
X88820184Y-82687734D01*
X88867803Y-82735353D01*
X88915422Y-82687734D01*
X88867803Y-82640114D01*
X88867803Y-82735353D01*
X89772565Y-83592495D02*
X89677327Y-83640114D01*
X89486851Y-83640114D01*
X89391613Y-83592495D01*
X89343994Y-83544876D01*
X89296375Y-83449638D01*
X89296375Y-83163924D01*
X89343994Y-83068686D01*
X89391613Y-83021067D01*
X89486851Y-82973448D01*
X89677327Y-82973448D01*
X89772565Y-83021067D01*
X90201137Y-83640114D02*
X90201137Y-82973448D01*
X90201137Y-83163924D02*
X90248756Y-83068686D01*
X90296375Y-83021067D01*
X90391613Y-82973448D01*
X90486851Y-82973448D01*
X90963042Y-83640114D02*
X90867803Y-83592495D01*
X90820184Y-83544876D01*
X90772565Y-83449638D01*
X90772565Y-83163924D01*
X90820184Y-83068686D01*
X90867803Y-83021067D01*
X90963042Y-82973448D01*
X91105899Y-82973448D01*
X91201137Y-83021067D01*
X91248756Y-83068686D01*
X91296375Y-83163924D01*
X91296375Y-83449638D01*
X91248756Y-83544876D01*
X91201137Y-83592495D01*
X91105899Y-83640114D01*
X90963042Y-83640114D01*
X91486851Y-83735353D02*
X92248756Y-83735353D01*
X92439232Y-83592495D02*
X92582089Y-83640114D01*
X92820184Y-83640114D01*
X92915422Y-83592495D01*
X92963042Y-83544876D01*
X93010661Y-83449638D01*
X93010661Y-83354400D01*
X92963042Y-83259162D01*
X92915422Y-83211543D01*
X92820184Y-83163924D01*
X92629708Y-83116305D01*
X92534470Y-83068686D01*
X92486851Y-83021067D01*
X92439232Y-82925829D01*
X92439232Y-82830591D01*
X92486851Y-82735353D01*
X92534470Y-82687734D01*
X92629708Y-82640114D01*
X92867803Y-82640114D01*
X93010661Y-82687734D01*
X93439232Y-83640114D02*
X93439232Y-82640114D01*
X93915422Y-83640114D02*
X93915422Y-82640114D01*
X94248756Y-83354400D01*
X94582089Y-82640114D01*
X94582089Y-83640114D01*
X94820184Y-83735353D02*
X95582089Y-83735353D01*
X95820184Y-83640114D02*
X95820184Y-82640114D01*
X95820184Y-83116305D02*
X96391613Y-83116305D01*
X96391613Y-83640114D02*
X96391613Y-82640114D01*
X97010661Y-83640114D02*
X96915422Y-83592495D01*
X96867803Y-83544876D01*
X96820184Y-83449638D01*
X96820184Y-83163924D01*
X96867803Y-83068686D01*
X96915422Y-83021067D01*
X97010661Y-82973448D01*
X97153518Y-82973448D01*
X97248756Y-83021067D01*
X97296375Y-83068686D01*
X97343994Y-83163924D01*
X97343994Y-83449638D01*
X97296375Y-83544876D01*
X97248756Y-83592495D01*
X97153518Y-83640114D01*
X97010661Y-83640114D01*
X97915422Y-83640114D02*
X97820184Y-83592495D01*
X97772565Y-83497257D01*
X97772565Y-82640114D01*
X98724946Y-83640114D02*
X98724946Y-82640114D01*
X98724946Y-83592495D02*
X98629708Y-83640114D01*
X98439232Y-83640114D01*
X98343994Y-83592495D01*
X98296375Y-83544876D01*
X98248756Y-83449638D01*
X98248756Y-83163924D01*
X98296375Y-83068686D01*
X98343994Y-83021067D01*
X98439232Y-82973448D01*
X98629708Y-82973448D01*
X98724946Y-83021067D01*
X99582089Y-83592495D02*
X99486851Y-83640114D01*
X99296375Y-83640114D01*
X99201137Y-83592495D01*
X99153518Y-83497257D01*
X99153518Y-83116305D01*
X99201137Y-83021067D01*
X99296375Y-82973448D01*
X99486851Y-82973448D01*
X99582089Y-83021067D01*
X99629708Y-83116305D01*
X99629708Y-83211543D01*
X99153518Y-83306781D01*
X100058280Y-83640114D02*
X100058280Y-82973448D01*
X100058280Y-83163924D02*
X100105899Y-83068686D01*
X100153518Y-83021067D01*
X100248756Y-82973448D01*
X100343994Y-82973448D01*
X102386375Y-93097734D02*
X102353042Y-93131067D01*
X102253042Y-93164400D01*
X102186375Y-93164400D01*
X102086375Y-93131067D01*
X102019708Y-93064400D01*
X101986375Y-92997734D01*
X101953042Y-92864400D01*
X101953042Y-92764400D01*
X101986375Y-92631067D01*
X102019708Y-92564400D01*
X102086375Y-92497734D01*
X102186375Y-92464400D01*
X102253042Y-92464400D01*
X102353042Y-92497734D01*
X102386375Y-92531067D01*
X103019708Y-93164400D02*
X102686375Y-93164400D01*
X102686375Y-92464400D01*
X103253042Y-93164400D02*
X103253042Y-92464400D01*
X103653042Y-93164400D02*
X103353042Y-92764400D01*
X103653042Y-92464400D02*
X103253042Y-92864400D01*
X102369708Y-90614400D02*
X102136375Y-90281067D01*
X101969708Y-90614400D02*
X101969708Y-89914400D01*
X102236375Y-89914400D01*
X102303042Y-89947734D01*
X102336375Y-89981067D01*
X102369708Y-90047734D01*
X102369708Y-90147734D01*
X102336375Y-90214400D01*
X102303042Y-90247734D01*
X102236375Y-90281067D01*
X101969708Y-90281067D01*
X102636375Y-90581067D02*
X102736375Y-90614400D01*
X102903042Y-90614400D01*
X102969708Y-90581067D01*
X103003042Y-90547734D01*
X103036375Y-90481067D01*
X103036375Y-90414400D01*
X103003042Y-90347734D01*
X102969708Y-90314400D01*
X102903042Y-90281067D01*
X102769708Y-90247734D01*
X102703042Y-90214400D01*
X102669708Y-90181067D01*
X102636375Y-90114400D01*
X102636375Y-90047734D01*
X102669708Y-89981067D01*
X102703042Y-89947734D01*
X102769708Y-89914400D01*
X102936375Y-89914400D01*
X103036375Y-89947734D01*
X103236375Y-89914400D02*
X103636375Y-89914400D01*
X103436375Y-90614400D02*
X103436375Y-89914400D01*
X101869708Y-87314400D02*
X102103042Y-88014400D01*
X102336375Y-87314400D01*
X102969708Y-87947734D02*
X102936375Y-87981067D01*
X102836375Y-88014400D01*
X102769708Y-88014400D01*
X102669708Y-87981067D01*
X102603042Y-87914400D01*
X102569708Y-87847734D01*
X102536375Y-87714400D01*
X102536375Y-87614400D01*
X102569708Y-87481067D01*
X102603042Y-87414400D01*
X102669708Y-87347734D01*
X102769708Y-87314400D01*
X102836375Y-87314400D01*
X102936375Y-87347734D01*
X102969708Y-87381067D01*
X103669708Y-87947734D02*
X103636375Y-87981067D01*
X103536375Y-88014400D01*
X103469708Y-88014400D01*
X103369708Y-87981067D01*
X103303042Y-87914400D01*
X103269708Y-87847734D01*
X103236375Y-87714400D01*
X103236375Y-87614400D01*
X103269708Y-87481067D01*
X103303042Y-87414400D01*
X103369708Y-87347734D01*
X103469708Y-87314400D01*
X103536375Y-87314400D01*
X103636375Y-87347734D01*
X103669708Y-87381067D01*
X101919708Y-88614400D02*
X102153042Y-89314400D01*
X102386375Y-88614400D01*
X102619708Y-89314400D02*
X102619708Y-88614400D01*
X102886375Y-88614400D01*
X102953042Y-88647734D01*
X102986375Y-88681067D01*
X103019708Y-88747734D01*
X103019708Y-88847734D01*
X102986375Y-88914400D01*
X102953042Y-88947734D01*
X102886375Y-88981067D01*
X102619708Y-88981067D01*
X103319708Y-89314400D02*
X103319708Y-88614400D01*
X103586375Y-88614400D01*
X103653042Y-88647734D01*
X103686375Y-88681067D01*
X103719708Y-88747734D01*
X103719708Y-88847734D01*
X103686375Y-88914400D01*
X103653042Y-88947734D01*
X103586375Y-88981067D01*
X103319708Y-88981067D01*
X102319708Y-86097734D02*
X102253042Y-86064400D01*
X102153042Y-86064400D01*
X102053042Y-86097734D01*
X101986375Y-86164400D01*
X101953042Y-86231067D01*
X101919708Y-86364400D01*
X101919708Y-86464400D01*
X101953042Y-86597734D01*
X101986375Y-86664400D01*
X102053042Y-86731067D01*
X102153042Y-86764400D01*
X102219708Y-86764400D01*
X102319708Y-86731067D01*
X102353042Y-86697734D01*
X102353042Y-86464400D01*
X102219708Y-86464400D01*
X102653042Y-86764400D02*
X102653042Y-86064400D01*
X103053042Y-86764400D01*
X103053042Y-86064400D01*
X103386375Y-86764400D02*
X103386375Y-86064400D01*
X103553042Y-86064400D01*
X103653042Y-86097734D01*
X103719708Y-86164400D01*
X103753042Y-86231067D01*
X103786375Y-86364400D01*
X103786375Y-86464400D01*
X103753042Y-86597734D01*
X103719708Y-86664400D01*
X103653042Y-86731067D01*
X103553042Y-86764400D01*
X103386375Y-86764400D01*
X102386375Y-91914400D02*
X102386375Y-91214400D01*
X102853042Y-91214400D02*
X102986375Y-91214400D01*
X103053042Y-91247734D01*
X103119708Y-91314400D01*
X103153042Y-91447734D01*
X103153042Y-91681067D01*
X103119708Y-91814400D01*
X103053042Y-91881067D01*
X102986375Y-91914400D01*
X102853042Y-91914400D01*
X102786375Y-91881067D01*
X102719708Y-91814400D01*
X102686375Y-91681067D01*
X102686375Y-91447734D01*
X102719708Y-91314400D01*
X102786375Y-91247734D01*
X102853042Y-91214400D01*
X111446302Y-118784402D02*
X111398683Y-118832021D01*
X111255826Y-118879640D01*
X111160588Y-118879640D01*
X111017730Y-118832021D01*
X110922492Y-118736783D01*
X110874873Y-118641545D01*
X110827254Y-118451069D01*
X110827254Y-118308212D01*
X110874873Y-118117736D01*
X110922492Y-118022498D01*
X111017730Y-117927260D01*
X111160588Y-117879640D01*
X111255826Y-117879640D01*
X111398683Y-117927260D01*
X111446302Y-117974879D01*
X112303445Y-118212974D02*
X112303445Y-118879640D01*
X112065349Y-117832021D02*
X111827254Y-118546307D01*
X112446302Y-118546307D01*
X105620184Y-121230114D02*
X105048756Y-121230114D01*
X105334470Y-121230114D02*
X105334470Y-120230114D01*
X105239232Y-120372972D01*
X105143994Y-120468210D01*
X105048756Y-120515829D01*
X106239232Y-120230114D02*
X106334470Y-120230114D01*
X106429708Y-120277734D01*
X106477327Y-120325353D01*
X106524946Y-120420591D01*
X106572565Y-120611067D01*
X106572565Y-120849162D01*
X106524946Y-121039638D01*
X106477327Y-121134876D01*
X106429708Y-121182495D01*
X106334470Y-121230114D01*
X106239232Y-121230114D01*
X106143994Y-121182495D01*
X106096375Y-121134876D01*
X106048756Y-121039638D01*
X106001137Y-120849162D01*
X106001137Y-120611067D01*
X106048756Y-120420591D01*
X106096375Y-120325353D01*
X106143994Y-120277734D01*
X106239232Y-120230114D01*
X107191613Y-120230114D02*
X107286851Y-120230114D01*
X107382089Y-120277734D01*
X107429708Y-120325353D01*
X107477327Y-120420591D01*
X107524946Y-120611067D01*
X107524946Y-120849162D01*
X107477327Y-121039638D01*
X107429708Y-121134876D01*
X107382089Y-121182495D01*
X107286851Y-121230114D01*
X107191613Y-121230114D01*
X107096375Y-121182495D01*
X107048756Y-121134876D01*
X107001137Y-121039638D01*
X106953518Y-120849162D01*
X106953518Y-120611067D01*
X107001137Y-120420591D01*
X107048756Y-120325353D01*
X107096375Y-120277734D01*
X107191613Y-120230114D01*
X108143994Y-120230114D02*
X108239232Y-120230114D01*
X108334470Y-120277734D01*
X108382089Y-120325353D01*
X108429708Y-120420591D01*
X108477327Y-120611067D01*
X108477327Y-120849162D01*
X108429708Y-121039638D01*
X108382089Y-121134876D01*
X108334470Y-121182495D01*
X108239232Y-121230114D01*
X108143994Y-121230114D01*
X108048756Y-121182495D01*
X108001137Y-121134876D01*
X107953518Y-121039638D01*
X107905899Y-120849162D01*
X107905899Y-120611067D01*
X107953518Y-120420591D01*
X108001137Y-120325353D01*
X108048756Y-120277734D01*
X108143994Y-120230114D01*
X109334470Y-120563448D02*
X109334470Y-121230114D01*
X108905899Y-120563448D02*
X108905899Y-121087257D01*
X108953518Y-121182495D01*
X109048756Y-121230114D01*
X109191613Y-121230114D01*
X109286851Y-121182495D01*
X109334470Y-121134876D01*
X110143994Y-120706305D02*
X109810661Y-120706305D01*
X109810661Y-121230114D02*
X109810661Y-120230114D01*
X110286851Y-120230114D01*
X110715422Y-121182495D02*
X110715422Y-121230114D01*
X110667803Y-121325353D01*
X110620184Y-121372972D01*
X111096375Y-120325353D02*
X111143994Y-120277734D01*
X111239232Y-120230114D01*
X111477327Y-120230114D01*
X111572565Y-120277734D01*
X111620184Y-120325353D01*
X111667803Y-120420591D01*
X111667803Y-120515829D01*
X111620184Y-120658686D01*
X111048756Y-121230114D01*
X111667803Y-121230114D01*
X112572565Y-120230114D02*
X112096375Y-120230114D01*
X112048756Y-120706305D01*
X112096375Y-120658686D01*
X112191613Y-120611067D01*
X112429708Y-120611067D01*
X112524946Y-120658686D01*
X112572565Y-120706305D01*
X112620184Y-120801543D01*
X112620184Y-121039638D01*
X112572565Y-121134876D01*
X112524946Y-121182495D01*
X112429708Y-121230114D01*
X112191613Y-121230114D01*
X112096375Y-121182495D01*
X112048756Y-121134876D01*
X112905899Y-120230114D02*
X113239232Y-121230114D01*
X113572565Y-120230114D01*
X104501137Y-64610114D02*
X104501137Y-65419638D01*
X104548756Y-65514876D01*
X104596375Y-65562495D01*
X104691613Y-65610114D01*
X104882089Y-65610114D01*
X104977327Y-65562495D01*
X105024946Y-65514876D01*
X105072565Y-65419638D01*
X105072565Y-64610114D01*
X105501137Y-64705353D02*
X105548756Y-64657734D01*
X105643994Y-64610114D01*
X105882089Y-64610114D01*
X105977327Y-64657734D01*
X106024946Y-64705353D01*
X106072565Y-64800591D01*
X106072565Y-64895829D01*
X106024946Y-65038686D01*
X105453518Y-65610114D01*
X106072565Y-65610114D01*
X102414946Y-66830114D02*
X102414946Y-65830114D01*
X102795899Y-65830114D01*
X102891137Y-65877734D01*
X102938756Y-65925353D01*
X102986375Y-66020591D01*
X102986375Y-66163448D01*
X102938756Y-66258686D01*
X102891137Y-66306305D01*
X102795899Y-66353924D01*
X102414946Y-66353924D01*
X103986375Y-66830114D02*
X103653042Y-66353924D01*
X103414946Y-66830114D02*
X103414946Y-65830114D01*
X103795899Y-65830114D01*
X103891137Y-65877734D01*
X103938756Y-65925353D01*
X103986375Y-66020591D01*
X103986375Y-66163448D01*
X103938756Y-66258686D01*
X103891137Y-66306305D01*
X103795899Y-66353924D01*
X103414946Y-66353924D01*
X104605422Y-65830114D02*
X104795899Y-65830114D01*
X104891137Y-65877734D01*
X104986375Y-65972972D01*
X105033994Y-66163448D01*
X105033994Y-66496781D01*
X104986375Y-66687257D01*
X104891137Y-66782495D01*
X104795899Y-66830114D01*
X104605422Y-66830114D01*
X104510184Y-66782495D01*
X104414946Y-66687257D01*
X104367327Y-66496781D01*
X104367327Y-66163448D01*
X104414946Y-65972972D01*
X104510184Y-65877734D01*
X104605422Y-65830114D01*
X105224470Y-66925353D02*
X105986375Y-66925353D01*
X106224470Y-66830114D02*
X106224470Y-65830114D01*
X106557803Y-66544400D01*
X106891137Y-65830114D01*
X106891137Y-66830114D01*
X107367327Y-66830114D02*
X107367327Y-65830114D01*
X107843518Y-66830114D02*
X107843518Y-65830114D01*
X108414946Y-66830114D01*
X108414946Y-65830114D01*
X108891137Y-66830114D02*
X108891137Y-65830114D01*
X91625935Y-126343001D02*
X91864030Y-127343001D01*
X92054506Y-126628716D01*
X92244982Y-127343001D01*
X92483077Y-126343001D01*
X92816411Y-126438240D02*
X92864030Y-126390621D01*
X92959268Y-126343001D01*
X93197363Y-126343001D01*
X93292601Y-126390621D01*
X93340220Y-126438240D01*
X93387839Y-126533478D01*
X93387839Y-126628716D01*
X93340220Y-126771573D01*
X92768792Y-127343001D01*
X93387839Y-127343001D01*
X91094946Y-107970114D02*
X91094946Y-106970114D01*
X91333042Y-106970114D01*
X91475899Y-107017734D01*
X91571137Y-107112972D01*
X91618756Y-107208210D01*
X91666375Y-107398686D01*
X91666375Y-107541543D01*
X91618756Y-107732019D01*
X91571137Y-107827257D01*
X91475899Y-107922495D01*
X91333042Y-107970114D01*
X91094946Y-107970114D01*
X92618756Y-107970114D02*
X92047327Y-107970114D01*
X92333042Y-107970114D02*
X92333042Y-106970114D01*
X92237803Y-107112972D01*
X92142565Y-107208210D01*
X92047327Y-107255829D01*
X90827327Y-108718686D02*
X90827327Y-109099638D01*
X90560661Y-108299638D02*
X90827327Y-108718686D01*
X91093994Y-108299638D01*
X91360661Y-108680591D02*
X91627327Y-108680591D01*
X91741613Y-109099638D02*
X91360661Y-109099638D01*
X91360661Y-108299638D01*
X91741613Y-108299638D01*
X92465422Y-109099638D02*
X92084470Y-109099638D01*
X92084470Y-108299638D01*
X93113042Y-109099638D02*
X92732089Y-109099638D01*
X92732089Y-108299638D01*
X93532089Y-108299638D02*
X93684470Y-108299638D01*
X93760661Y-108337734D01*
X93836851Y-108413924D01*
X93874946Y-108566305D01*
X93874946Y-108832972D01*
X93836851Y-108985353D01*
X93760661Y-109061543D01*
X93684470Y-109099638D01*
X93532089Y-109099638D01*
X93455899Y-109061543D01*
X93379708Y-108985353D01*
X93341613Y-108832972D01*
X93341613Y-108566305D01*
X93379708Y-108413924D01*
X93455899Y-108337734D01*
X93532089Y-108299638D01*
X94141613Y-108299638D02*
X94332089Y-109099638D01*
X94484470Y-108528210D01*
X94636851Y-109099638D01*
X94827327Y-108299638D01*
X85686851Y-102230114D02*
X86258280Y-102230114D01*
X85972565Y-103230114D02*
X85972565Y-102230114D01*
X86591613Y-103230114D02*
X86591613Y-102230114D01*
X86972565Y-102230114D01*
X87067803Y-102277734D01*
X87115422Y-102325353D01*
X87163042Y-102420591D01*
X87163042Y-102563448D01*
X87115422Y-102658686D01*
X87067803Y-102706305D01*
X86972565Y-102753924D01*
X86591613Y-102753924D01*
X88020184Y-102563448D02*
X88020184Y-103230114D01*
X87782089Y-102182495D02*
X87543994Y-102896781D01*
X88163042Y-102896781D01*
X88543994Y-103134876D02*
X88591613Y-103182495D01*
X88543994Y-103230114D01*
X88496375Y-103182495D01*
X88543994Y-103134876D01*
X88543994Y-103230114D01*
X88972565Y-102325353D02*
X89020184Y-102277734D01*
X89115422Y-102230114D01*
X89353518Y-102230114D01*
X89448756Y-102277734D01*
X89496375Y-102325353D01*
X89543994Y-102420591D01*
X89543994Y-102515829D01*
X89496375Y-102658686D01*
X88924946Y-103230114D01*
X89543994Y-103230114D01*
X90789908Y-64702874D02*
X91028003Y-65702874D01*
X91218479Y-64988589D01*
X91408955Y-65702874D01*
X91647050Y-64702874D01*
X92551812Y-65702874D02*
X91980384Y-65702874D01*
X92266098Y-65702874D02*
X92266098Y-64702874D01*
X92170860Y-64845732D01*
X92075622Y-64940970D01*
X91980384Y-64988589D01*
X91176950Y-118762687D02*
X91176950Y-117762687D01*
X91415046Y-117762687D01*
X91557903Y-117810307D01*
X91653141Y-117905545D01*
X91700760Y-118000783D01*
X91748379Y-118191259D01*
X91748379Y-118334116D01*
X91700760Y-118524592D01*
X91653141Y-118619830D01*
X91557903Y-118715068D01*
X91415046Y-118762687D01*
X91176950Y-118762687D01*
X92129331Y-117857926D02*
X92176950Y-117810307D01*
X92272188Y-117762687D01*
X92510284Y-117762687D01*
X92605522Y-117810307D01*
X92653141Y-117857926D01*
X92700760Y-117953164D01*
X92700760Y-118048402D01*
X92653141Y-118191259D01*
X92081712Y-118762687D01*
X92700760Y-118762687D01*
X91255784Y-119716747D02*
X91398641Y-119764366D01*
X91446260Y-119811985D01*
X91493879Y-119907223D01*
X91493879Y-120050080D01*
X91446260Y-120145318D01*
X91398641Y-120192937D01*
X91303403Y-120240556D01*
X90922450Y-120240556D01*
X90922450Y-119240556D01*
X91255784Y-119240556D01*
X91351022Y-119288176D01*
X91398641Y-119335795D01*
X91446260Y-119431033D01*
X91446260Y-119526271D01*
X91398641Y-119621509D01*
X91351022Y-119669128D01*
X91255784Y-119716747D01*
X90922450Y-119716747D01*
X92398641Y-120240556D02*
X91922450Y-120240556D01*
X91922450Y-119240556D01*
X92731974Y-119240556D02*
X92731974Y-120050080D01*
X92779593Y-120145318D01*
X92827212Y-120192937D01*
X92922450Y-120240556D01*
X93112927Y-120240556D01*
X93208165Y-120192937D01*
X93255784Y-120145318D01*
X93303403Y-120050080D01*
X93303403Y-119240556D01*
X93779593Y-119716747D02*
X94112927Y-119716747D01*
X94255784Y-120240556D02*
X93779593Y-120240556D01*
X93779593Y-119240556D01*
X94255784Y-119240556D01*
X110789708Y-94856781D02*
X110789708Y-94380591D01*
X111075422Y-94952019D02*
X110075422Y-94618686D01*
X111075422Y-94285353D01*
X111075422Y-93952019D02*
X110075422Y-93952019D01*
X111075422Y-93380591D01*
X110075422Y-93380591D01*
X110075422Y-93047257D02*
X110075422Y-92475829D01*
X111075422Y-92761543D02*
X110075422Y-92761543D01*
X111075422Y-91618686D02*
X111075422Y-92190114D01*
X111075422Y-91904400D02*
X110075422Y-91904400D01*
X110218280Y-91999638D01*
X110313518Y-92094876D01*
X110361137Y-92190114D01*
X107916851Y-85470114D02*
X108488280Y-85470114D01*
X108202565Y-86470114D02*
X108202565Y-85470114D01*
X108821613Y-86470114D02*
X108821613Y-85470114D01*
X109202565Y-85470114D01*
X109297803Y-85517734D01*
X109345422Y-85565353D01*
X109393042Y-85660591D01*
X109393042Y-85803448D01*
X109345422Y-85898686D01*
X109297803Y-85946305D01*
X109202565Y-85993924D01*
X108821613Y-85993924D01*
X109773994Y-85565353D02*
X109821613Y-85517734D01*
X109916851Y-85470114D01*
X110154946Y-85470114D01*
X110250184Y-85517734D01*
X110297803Y-85565353D01*
X110345422Y-85660591D01*
X110345422Y-85755829D01*
X110297803Y-85898686D01*
X109726375Y-86470114D01*
X110345422Y-86470114D01*
X110773994Y-86374876D02*
X110821613Y-86422495D01*
X110773994Y-86470114D01*
X110726375Y-86422495D01*
X110773994Y-86374876D01*
X110773994Y-86470114D01*
X111393042Y-85898686D02*
X111297803Y-85851067D01*
X111250184Y-85803448D01*
X111202565Y-85708210D01*
X111202565Y-85660591D01*
X111250184Y-85565353D01*
X111297803Y-85517734D01*
X111393042Y-85470114D01*
X111583518Y-85470114D01*
X111678756Y-85517734D01*
X111726375Y-85565353D01*
X111773994Y-85660591D01*
X111773994Y-85708210D01*
X111726375Y-85803448D01*
X111678756Y-85851067D01*
X111583518Y-85898686D01*
X111393042Y-85898686D01*
X111297803Y-85946305D01*
X111250184Y-85993924D01*
X111202565Y-86089162D01*
X111202565Y-86279638D01*
X111250184Y-86374876D01*
X111297803Y-86422495D01*
X111393042Y-86470114D01*
X111583518Y-86470114D01*
X111678756Y-86422495D01*
X111726375Y-86374876D01*
X111773994Y-86279638D01*
X111773994Y-86089162D01*
X111726375Y-85993924D01*
X111678756Y-85946305D01*
X111583518Y-85898686D01*
X112602565Y-86400114D02*
X113173994Y-86400114D01*
X112888280Y-87400114D02*
X112888280Y-86400114D01*
X113507327Y-87400114D02*
X113507327Y-86400114D01*
X113888280Y-86400114D01*
X113983518Y-86447734D01*
X114031137Y-86495353D01*
X114078756Y-86590591D01*
X114078756Y-86733448D01*
X114031137Y-86828686D01*
X113983518Y-86876305D01*
X113888280Y-86923924D01*
X113507327Y-86923924D01*
X114269232Y-87495353D02*
X115031137Y-87495353D01*
X115793042Y-86447734D02*
X115697803Y-86400114D01*
X115554946Y-86400114D01*
X115412089Y-86447734D01*
X115316851Y-86542972D01*
X115269232Y-86638210D01*
X115221613Y-86828686D01*
X115221613Y-86971543D01*
X115269232Y-87162019D01*
X115316851Y-87257257D01*
X115412089Y-87352495D01*
X115554946Y-87400114D01*
X115650184Y-87400114D01*
X115793042Y-87352495D01*
X115840661Y-87304876D01*
X115840661Y-86971543D01*
X115650184Y-86971543D01*
X116269232Y-87400114D02*
X116269232Y-86400114D01*
X116840661Y-87400114D01*
X116840661Y-86400114D01*
X117316851Y-87400114D02*
X117316851Y-86400114D01*
X117554946Y-86400114D01*
X117697803Y-86447734D01*
X117793042Y-86542972D01*
X117840661Y-86638210D01*
X117888280Y-86828686D01*
X117888280Y-86971543D01*
X117840661Y-87162019D01*
X117793042Y-87257257D01*
X117697803Y-87352495D01*
X117554946Y-87400114D01*
X117316851Y-87400114D01*
X117510639Y-105372009D02*
X118224925Y-105372009D01*
X118367782Y-105419628D01*
X118463020Y-105514866D01*
X118510639Y-105657723D01*
X118510639Y-105752961D01*
X118510639Y-104372009D02*
X118510639Y-104943437D01*
X118510639Y-104657723D02*
X117510639Y-104657723D01*
X117653497Y-104752961D01*
X117748735Y-104848199D01*
X117796354Y-104943437D01*
X101159574Y-114023224D02*
G75*
G03*
X101159574Y-114023224I-5037500J0D01*
G01*
D15*
X104003042Y-84897734D02*
X104003042Y-95947734D01*
X88103042Y-84897734D02*
X104003042Y-84897734D01*
X104003042Y-95947734D02*
X105353042Y-95947734D01*
X105353042Y-95947734D02*
X105353042Y-100697734D01*
X88103042Y-100697734D02*
X88103042Y-84897734D01*
X105353042Y-100697734D02*
X88103042Y-100697734D01*
D16*
X88047043Y-99794220D02*
G75*
G03*
X88103042Y-85897734I-11934279J6996448D01*
G01*
D14*
X112096134Y-113967496D02*
G75*
G03*
X112096134Y-113967496I-5037500J0D01*
G01*
X93667297Y-66371801D02*
X93667297Y-81341801D01*
X125202297Y-66371801D02*
X125202297Y-81341801D01*
X123902297Y-66379301D02*
X123902297Y-65094301D01*
X125202297Y-66371801D02*
X123932297Y-66371801D01*
X93667297Y-81341801D02*
X94937297Y-81341801D01*
X93667297Y-66371801D02*
X94937297Y-66371801D01*
X125202297Y-81341801D02*
X123932297Y-81341801D01*
D15*
X88508714Y-110454359D02*
X87808714Y-110904359D01*
X89718714Y-107824359D02*
X89718714Y-107668359D01*
X87858714Y-110654359D02*
X88208714Y-110404359D01*
X88258714Y-110454359D02*
X87908714Y-110704359D01*
X88458714Y-110404359D02*
X88408714Y-110404359D01*
X88158714Y-110404359D02*
X87908714Y-110254359D01*
X87908714Y-110154359D02*
X88158714Y-110304359D01*
X88408714Y-110404359D02*
X87808714Y-110004359D01*
X87858714Y-110054359D02*
X87858714Y-110754359D01*
X87758714Y-111054359D02*
X87758714Y-109804359D01*
X87758714Y-109804359D02*
X88658714Y-110404359D01*
X87808714Y-110004359D02*
X87858714Y-110054359D01*
X88708714Y-110404359D02*
X87758714Y-111054359D01*
X87958714Y-110554359D02*
X87958714Y-110354359D01*
X87808714Y-110854359D02*
X88458714Y-110404359D01*
X89558714Y-110404359D02*
X86858714Y-110404359D01*
X87858714Y-110754359D02*
X87858714Y-110654359D01*
X88458714Y-110354359D02*
X87808714Y-109954359D01*
X88708714Y-111054359D02*
X88708714Y-109804359D01*
X89199675Y-107824359D02*
G75*
G03*
X87117584Y-107824522I-1040961J-1080000D01*
G01*
X89718714Y-107668843D02*
G75*
G03*
X86486379Y-107825751I-1560000J-1235517D01*
G01*
X88373042Y-105587734D02*
X88373042Y-103737734D01*
X88373042Y-103737734D02*
X88373042Y-103687734D01*
X86523042Y-105587734D02*
X88373042Y-105587734D01*
X88373042Y-103687734D02*
X86523042Y-103687734D01*
X86523042Y-103687734D02*
X86523042Y-105587734D01*
X87858714Y-119804359D02*
X88758714Y-120404359D01*
X88808714Y-121054359D02*
X88808714Y-119804359D01*
X88608714Y-120454359D02*
X87908714Y-120904359D01*
X89658714Y-120404359D02*
X86958714Y-120404359D01*
X88258714Y-120404359D02*
X88008714Y-120254359D01*
X87908714Y-120004359D02*
X87958714Y-120054359D01*
X88058714Y-120554359D02*
X88058714Y-120354359D01*
X87958714Y-120654359D02*
X88308714Y-120404359D01*
X88558714Y-120404359D02*
X88508714Y-120404359D01*
X88358714Y-120454359D02*
X88008714Y-120704359D01*
X88558714Y-120354359D02*
X87908714Y-119954359D01*
X88508714Y-120404359D02*
X87908714Y-120004359D01*
X87858714Y-121054359D02*
X87858714Y-119804359D01*
X89818714Y-117924359D02*
X89818715Y-117768359D01*
X87958714Y-120054359D02*
X87958714Y-120754359D01*
X87958714Y-120754359D02*
X87958714Y-120654359D01*
X87908714Y-120854359D02*
X88558714Y-120404359D01*
X88008714Y-120154359D02*
X88258714Y-120304359D01*
X88808714Y-120404359D02*
X87858714Y-121054359D01*
X89818714Y-117768843D02*
G75*
G03*
X86586379Y-117925751I-1560000J-1235517D01*
G01*
X89299675Y-117924359D02*
G75*
G03*
X87217584Y-117924522I-1040961J-1080000D01*
G01*
X112623042Y-91937734D02*
X112823042Y-91737734D01*
X115623042Y-94737734D02*
X115423042Y-94737734D01*
X115423042Y-91737734D02*
X115623042Y-91737734D01*
X115623042Y-93937734D02*
X115623042Y-94737734D01*
X112623042Y-93937734D02*
X112123042Y-93937734D01*
X115623042Y-91737734D02*
X115623042Y-92537734D01*
X112823042Y-94737734D02*
X112623042Y-94737734D01*
X112623042Y-92537734D02*
X112623042Y-91937734D01*
X112623042Y-92537734D02*
X112123042Y-92537734D01*
X112623042Y-94737734D02*
X112623042Y-93937734D01*
X108653042Y-84997734D02*
X110503042Y-84997734D01*
X110503042Y-83147734D02*
X110503042Y-83097734D01*
X108653042Y-83097734D02*
X108653042Y-84997734D01*
X110503042Y-83097734D02*
X108653042Y-83097734D01*
X110503042Y-84997734D02*
X110503042Y-83147734D01*
X116903042Y-84257734D02*
X116903042Y-84207734D01*
X115053042Y-86107734D02*
X116903042Y-86107734D01*
X115053042Y-84207734D02*
X115053042Y-86107734D01*
X116903042Y-86107734D02*
X116903042Y-84257734D01*
X116903042Y-84207734D02*
X115053042Y-84207734D01*
X116023042Y-98317734D02*
X116023042Y-99317734D01*
X117523042Y-98317734D02*
X113503042Y-98317734D01*
X116023042Y-111037734D02*
X116023042Y-110037734D01*
X117523042Y-111037734D02*
X117523042Y-98317734D01*
X114003042Y-110537734D02*
X114003042Y-98817734D01*
X114003042Y-98817734D02*
X115213042Y-98817734D01*
X116023042Y-110037734D02*
X117523042Y-110037734D01*
X115213042Y-110537734D02*
X114003042Y-110537734D01*
X113503042Y-98317734D02*
X113503042Y-111037734D01*
X113503042Y-111037734D02*
X117523042Y-111037734D01*
X115213042Y-98817734D02*
X115213042Y-98317734D01*
X117823042Y-111337734D02*
X117823042Y-108837734D01*
X115323042Y-111337734D02*
X117823042Y-111337734D01*
X115213042Y-111037734D02*
X115213042Y-110537734D01*
X116023042Y-99317734D02*
X117523042Y-99317734D01*
D17*
X116282297Y-66236801D03*
X113742297Y-66236801D03*
X111202297Y-66236801D03*
X98502297Y-66236801D03*
X95962297Y-66236801D03*
X95962297Y-81476801D03*
X98502297Y-81476801D03*
X111202297Y-81476801D03*
X113742297Y-81476801D03*
X116282297Y-81476801D03*
M02*
