G04 #@! TF.GenerationSoftware,KiCad,Pcbnew,(6.0.7)*
G04 #@! TF.CreationDate,2023-02-15T16:43:35+05:30*
G04 #@! TF.ProjectId,POWER CARD,504f5745-5220-4434-9152-442e6b696361,rev?*
G04 #@! TF.SameCoordinates,Original*
G04 #@! TF.FileFunction,Copper,L1,Top*
G04 #@! TF.FilePolarity,Positive*
%FSLAX46Y46*%
G04 Gerber Fmt 4.6, Leading zero omitted, Abs format (unit mm)*
G04 Created by KiCad (PCBNEW (6.0.7)) date 2023-02-15 16:43:35*
%MOMM*%
%LPD*%
G01*
G04 APERTURE LIST*
G04 Aperture macros list*
%AMRoundRect*
0 Rectangle with rounded corners*
0 $1 Rounding radius*
0 $2 $3 $4 $5 $6 $7 $8 $9 X,Y pos of 4 corners*
0 Add a 4 corners polygon primitive as box body*
4,1,4,$2,$3,$4,$5,$6,$7,$8,$9,$2,$3,0*
0 Add four circle primitives for the rounded corners*
1,1,$1+$1,$2,$3*
1,1,$1+$1,$4,$5*
1,1,$1+$1,$6,$7*
1,1,$1+$1,$8,$9*
0 Add four rect primitives between the rounded corners*
20,1,$1+$1,$2,$3,$4,$5,0*
20,1,$1+$1,$4,$5,$6,$7,0*
20,1,$1+$1,$6,$7,$8,$9,0*
20,1,$1+$1,$8,$9,$2,$3,0*%
G04 Aperture macros list end*
G04 #@! TA.AperFunction,Profile*
%ADD10C,0.100000*%
G04 #@! TD*
G04 #@! TA.AperFunction,ComponentPad*
%ADD11O,3.300000X2.300000*%
G04 #@! TD*
G04 #@! TA.AperFunction,ComponentPad*
%ADD12R,2.300000X2.300000*%
G04 #@! TD*
G04 #@! TA.AperFunction,ComponentPad*
%ADD13C,2.300000*%
G04 #@! TD*
G04 #@! TA.AperFunction,SMDPad,CuDef*
%ADD14R,1.340000X0.900000*%
G04 #@! TD*
G04 #@! TA.AperFunction,SMDPad,CuDef*
%ADD15R,2.610000X2.000000*%
G04 #@! TD*
G04 #@! TA.AperFunction,ComponentPad*
%ADD16O,1.600000X2.300000*%
G04 #@! TD*
G04 #@! TA.AperFunction,ComponentPad*
%ADD17C,6.000000*%
G04 #@! TD*
G04 #@! TA.AperFunction,ComponentPad*
%ADD18C,0.800000*%
G04 #@! TD*
G04 #@! TA.AperFunction,ComponentPad*
%ADD19R,1.500000X1.500000*%
G04 #@! TD*
G04 #@! TA.AperFunction,ComponentPad*
%ADD20C,1.800000*%
G04 #@! TD*
G04 #@! TA.AperFunction,ComponentPad*
%ADD21C,1.400000*%
G04 #@! TD*
G04 #@! TA.AperFunction,SMDPad,CuDef*
%ADD22R,2.000000X0.800000*%
G04 #@! TD*
G04 #@! TA.AperFunction,SMDPad,CuDef*
%ADD23R,2.200000X1.050000*%
G04 #@! TD*
G04 #@! TA.AperFunction,SMDPad,CuDef*
%ADD24R,1.000000X1.000000*%
G04 #@! TD*
G04 #@! TA.AperFunction,ComponentPad*
%ADD25RoundRect,0.250000X1.000000X-0.600000X1.000000X0.600000X-1.000000X0.600000X-1.000000X-0.600000X0*%
G04 #@! TD*
G04 #@! TA.AperFunction,ComponentPad*
%ADD26O,2.500000X1.700000*%
G04 #@! TD*
G04 #@! TA.AperFunction,ComponentPad*
%ADD27C,1.600000*%
G04 #@! TD*
G04 #@! TA.AperFunction,ViaPad*
%ADD28C,0.600000*%
G04 #@! TD*
G04 #@! TA.AperFunction,Conductor*
%ADD29C,0.500000*%
G04 #@! TD*
G04 #@! TA.AperFunction,Conductor*
%ADD30C,0.250000*%
G04 #@! TD*
G04 #@! TA.AperFunction,Conductor*
%ADD31C,0.400000*%
G04 #@! TD*
G04 #@! TA.AperFunction,Conductor*
%ADD32C,0.700000*%
G04 #@! TD*
G04 #@! TA.AperFunction,Conductor*
%ADD33C,2.000000*%
G04 #@! TD*
G04 #@! TA.AperFunction,Conductor*
%ADD34C,1.000000*%
G04 #@! TD*
G04 APERTURE END LIST*
D10*
X85582966Y-123837734D02*
G75*
G03*
X89583042Y-127837734I4000034J34D01*
G01*
X85583042Y-68337734D02*
X85583042Y-123837734D01*
X118166574Y-127837734D02*
X118166574Y-64337734D01*
X89583042Y-127837734D02*
X118166574Y-127837734D01*
X118166574Y-64337734D02*
X89583042Y-64337734D01*
X89583042Y-64337732D02*
G75*
G03*
X85583042Y-68337734I-2J-3999998D01*
G01*
X81906894Y-125643083D02*
G75*
G03*
X81906894Y-125643083I-1J0D01*
G01*
D11*
X114523042Y-110727734D03*
D12*
X93622074Y-114023224D03*
D13*
X98622074Y-114023224D03*
D14*
X104723042Y-92772734D03*
X104723042Y-86422734D03*
X104723042Y-91502734D03*
X104723042Y-90232734D03*
D15*
X102203042Y-84797734D03*
X102253042Y-100797734D03*
X89553042Y-84697734D03*
X89553042Y-100797734D03*
D14*
X104723042Y-87692734D03*
X104723042Y-88962734D03*
D12*
X104558634Y-113967496D03*
D13*
X109558634Y-113967496D03*
D16*
X116282297Y-66236801D03*
X113742297Y-66236801D03*
X111202297Y-66236801D03*
X98502297Y-66236801D03*
X95962297Y-66236801D03*
X95962297Y-81476801D03*
X98502297Y-81476801D03*
X111202297Y-81476801D03*
X113742297Y-81476801D03*
X116282297Y-81476801D03*
D11*
X114553042Y-113927734D03*
D17*
X89558714Y-123804359D03*
D18*
X91414869Y-121948204D03*
X86933714Y-123804359D03*
X92183714Y-123804359D03*
X91414869Y-125660514D03*
X89558714Y-121179359D03*
X89558714Y-126429359D03*
X87702559Y-125660514D03*
X87702559Y-121948204D03*
D19*
X89428715Y-108904359D03*
D20*
X86888713Y-108904359D03*
D21*
X87473042Y-104637734D03*
D18*
X89058714Y-70929359D03*
X91683714Y-68304359D03*
X87202559Y-66448204D03*
D17*
X89058714Y-68304359D03*
D18*
X90914869Y-66448204D03*
X89058714Y-65679359D03*
X90914869Y-70160514D03*
X87202559Y-70160514D03*
X86433714Y-68304359D03*
D19*
X89528715Y-119004359D03*
D20*
X86988713Y-119004359D03*
D22*
X112623042Y-93237734D03*
D23*
X114123042Y-91762734D03*
D24*
X115623042Y-93237734D03*
D23*
X114123042Y-94712734D03*
D21*
X109603042Y-84047734D03*
X116003042Y-85157734D03*
D25*
X115213042Y-108427734D03*
D26*
X115213042Y-105927734D03*
X115213042Y-103427734D03*
X115213042Y-100927734D03*
D27*
X114163042Y-93237734D03*
D28*
X102983042Y-90437734D03*
X102883042Y-89637734D03*
X105613042Y-103147734D03*
X104633042Y-103097734D03*
X106653042Y-103177734D03*
X107743042Y-103207734D03*
X108783042Y-103237734D03*
X113083042Y-102737734D03*
X112883042Y-104737734D03*
X112883042Y-107037734D03*
X112883042Y-108237734D03*
X112883042Y-109237734D03*
X109783042Y-111837734D03*
X110983042Y-112537734D03*
X110983042Y-111537734D03*
X110983042Y-110637734D03*
X112083042Y-110137734D03*
X112083042Y-111137734D03*
X112083042Y-112037734D03*
X115583042Y-88137734D03*
X105563042Y-95907734D03*
X104563042Y-95907734D03*
X105563042Y-97387734D03*
X104583042Y-97337734D03*
X106603042Y-97417734D03*
X107693042Y-97447734D03*
X106563042Y-95907734D03*
X107663042Y-95907734D03*
X108733042Y-97477734D03*
X108763042Y-95907734D03*
X115283042Y-89637734D03*
X114183042Y-89637734D03*
X112983042Y-89637734D03*
X111783042Y-89637734D03*
X110583042Y-89637734D03*
X108483042Y-81837734D03*
X100483042Y-81437734D03*
X97283042Y-83137734D03*
X106083042Y-81137734D03*
X100483042Y-80437734D03*
X101483042Y-103837734D03*
X101483042Y-98537734D03*
X101483042Y-97037734D03*
X89033042Y-98117734D03*
X88993042Y-97157734D03*
X97253042Y-123847734D03*
X97193042Y-121767734D03*
X97253042Y-119687734D03*
X97283042Y-118017734D03*
X110483042Y-97037734D03*
X88993042Y-96077734D03*
X110393042Y-77747734D03*
X92933042Y-103957734D03*
X107603042Y-91307734D03*
X97033042Y-69227734D03*
X107283042Y-94707734D03*
X90893042Y-97987734D03*
X111663042Y-73637734D03*
X117171117Y-112349237D03*
X117223042Y-117167734D03*
X117205231Y-115427063D03*
X117173042Y-125527734D03*
X94313042Y-77947734D03*
X97033042Y-70537734D03*
X117186199Y-124768790D03*
X113983042Y-94547734D03*
X89564910Y-110958617D03*
X113293042Y-92297734D03*
X115383042Y-98337734D03*
X98333042Y-75177734D03*
X94293042Y-76707734D03*
X98826519Y-121634835D03*
X108753042Y-101607734D03*
X117110397Y-110740146D03*
X110977205Y-121657327D03*
X113903042Y-68557734D03*
X117250771Y-120541073D03*
X104383042Y-84337734D03*
X91943042Y-96697734D03*
X93343042Y-108747734D03*
X112233042Y-121567734D03*
X103086364Y-121634835D03*
X89903042Y-81757734D03*
X100611853Y-119678994D03*
X112743042Y-74827734D03*
X110353042Y-76587734D03*
X103203191Y-123914299D03*
X115363042Y-93737734D03*
X108783042Y-100037734D03*
X108283042Y-94717734D03*
X90213881Y-117183089D03*
X113963042Y-91947734D03*
X101475633Y-123858571D03*
X100363042Y-66917734D03*
X117193042Y-69617734D03*
X111083042Y-75697734D03*
X115453042Y-92807734D03*
X98983042Y-117987734D03*
X98800703Y-123886435D03*
X112703042Y-73667734D03*
X111433042Y-77777734D03*
X111003042Y-69197734D03*
X114863042Y-92107734D03*
X93803042Y-103957734D03*
X117224898Y-122366307D03*
X102506595Y-119678994D03*
X114023042Y-69527734D03*
X104583042Y-100037734D03*
X104603042Y-101467734D03*
X107683042Y-100037734D03*
X90963042Y-96667734D03*
X89923042Y-82697734D03*
X114573042Y-68017734D03*
X112293042Y-92287734D03*
X110473042Y-92257734D03*
X99993477Y-121634835D03*
X107713042Y-101577734D03*
X112123042Y-75727734D03*
X111373042Y-92277734D03*
X90923042Y-95507734D03*
X111393042Y-76617734D03*
X104869650Y-121634835D03*
X110483042Y-95237734D03*
X106773042Y-92507734D03*
X102562323Y-117979299D03*
X94323042Y-69217734D03*
X101433042Y-66917734D03*
X94793042Y-103947734D03*
X105583042Y-101517734D03*
X113183042Y-94157734D03*
X112043042Y-69227734D03*
X115063042Y-69557734D03*
X110443042Y-94167734D03*
X96143042Y-85797734D03*
X91181899Y-117183089D03*
X91903042Y-95537734D03*
X111323042Y-94137734D03*
X106583042Y-100037734D03*
X100138168Y-123858571D03*
X106623042Y-101547734D03*
X109573042Y-94177734D03*
X108793042Y-92237734D03*
X117343042Y-114187734D03*
X105099041Y-84297734D03*
X117263042Y-127007734D03*
X113133042Y-69257734D03*
X94353042Y-70517734D03*
X88851445Y-111353300D03*
X110483042Y-97937734D03*
X108313042Y-91517734D03*
X100444670Y-117979299D03*
X88077259Y-111368480D03*
X101470261Y-121634835D03*
X98884295Y-119706858D03*
X106793042Y-93297734D03*
X109573042Y-92267734D03*
X91873042Y-98047734D03*
X117233042Y-117907734D03*
X88933042Y-82697734D03*
X100373042Y-66047734D03*
X108753042Y-94177734D03*
X111703042Y-74797734D03*
X106783042Y-94067734D03*
X106953042Y-91657734D03*
X105583042Y-100037734D03*
X114863042Y-94397734D03*
X117183304Y-123055911D03*
X112293042Y-94167734D03*
X110483042Y-96149691D03*
X116153042Y-69587734D03*
X117248118Y-119737817D03*
X104423042Y-85267734D03*
X90062388Y-112985053D03*
X89123042Y-80967734D03*
X96543042Y-103967734D03*
X115633042Y-86757734D03*
X105972531Y-87885067D03*
X112199168Y-124761143D03*
X112183988Y-124108398D03*
X113774685Y-122633595D03*
X112889234Y-124084579D03*
X112914002Y-124827614D03*
X112874786Y-123244535D03*
X104783042Y-71337734D03*
X104793042Y-75197734D03*
X100833042Y-82707734D03*
X98683042Y-85117734D03*
X101991724Y-82848234D03*
X107978542Y-88493134D03*
X104173042Y-82497734D03*
X98103042Y-77567734D03*
X97356965Y-76818234D03*
X96288272Y-112191812D03*
X101583042Y-114087734D03*
X89855282Y-79687734D03*
X104473042Y-116377734D03*
X102413042Y-80147734D03*
X102751151Y-78373234D03*
X90549115Y-115215888D03*
D29*
X105099041Y-84297734D02*
X105099041Y-86046735D01*
D30*
X105099041Y-86046735D02*
X104723042Y-86422734D01*
X104423042Y-84377734D02*
X104383042Y-84337734D01*
D29*
X104423042Y-85267734D02*
X104423042Y-84377734D01*
D30*
X104723042Y-85567734D02*
X104423042Y-85267734D01*
X104723042Y-86422734D02*
X104723042Y-85567734D01*
X89510887Y-103855579D02*
X91763042Y-106107734D01*
X89505197Y-103855579D02*
X89510887Y-103855579D01*
X91763042Y-106107734D02*
X91763042Y-110467734D01*
X95473042Y-102897734D02*
X96543042Y-103967734D01*
X89183042Y-102897734D02*
X95473042Y-102897734D01*
X88693042Y-102407734D02*
X89183042Y-102897734D01*
X87953042Y-102407734D02*
X88693042Y-102407734D01*
X87793042Y-81617734D02*
X87793042Y-102247734D01*
X88443042Y-80967734D02*
X87793042Y-81617734D01*
X89123042Y-80967734D02*
X88443042Y-80967734D01*
X87793042Y-102247734D02*
X87953042Y-102407734D01*
X93487120Y-112191812D02*
X96288272Y-112191812D01*
X91763042Y-110467734D02*
X93487120Y-112191812D01*
X88575197Y-102925579D02*
X89505197Y-103855579D01*
X87630887Y-102925579D02*
X88575197Y-102925579D01*
X87293541Y-102588233D02*
X87630887Y-102925579D01*
X87323541Y-82401545D02*
X87293541Y-82431545D01*
X87293541Y-82431545D02*
X87293541Y-102588233D01*
X87343541Y-82301545D02*
X87323541Y-82321545D01*
X88413042Y-79687734D02*
X87343541Y-80757235D01*
X87323541Y-82321545D02*
X87323541Y-82401545D01*
X89855282Y-79687734D02*
X88413042Y-79687734D01*
X87343541Y-80757235D02*
X87343541Y-82301545D01*
X91279207Y-114485796D02*
X90549115Y-115215888D01*
X91279207Y-106265279D02*
X91279207Y-114485796D01*
X88407352Y-103393424D02*
X91279207Y-106265279D01*
X87328732Y-103393424D02*
X88407352Y-103393424D01*
X86794040Y-102858732D02*
X87328732Y-103393424D01*
X87014040Y-80451046D02*
X86794040Y-80671046D01*
X87014040Y-76586736D02*
X87014040Y-80451046D01*
X86794040Y-80671046D02*
X86794040Y-102858732D01*
X89073042Y-74527734D02*
X87014040Y-76586736D01*
X94853042Y-74527734D02*
X89073042Y-74527734D01*
X98502297Y-70878479D02*
X94853042Y-74527734D01*
X90062388Y-111362698D02*
X90062388Y-112985053D01*
X90829706Y-110595380D02*
X90062388Y-111362698D01*
X90829706Y-106991070D02*
X90829706Y-110595380D01*
X90316370Y-106477734D02*
X90829706Y-106991070D01*
X86283042Y-105957734D02*
X86803042Y-106477734D01*
X86283042Y-101904804D02*
X86283042Y-105957734D01*
X86803042Y-106477734D02*
X90316370Y-106477734D01*
X86523042Y-75877734D02*
X86523042Y-80306354D01*
X86523042Y-80306354D02*
X86263042Y-80566354D01*
X88573042Y-73827734D02*
X86523042Y-75877734D01*
X95962297Y-72178479D02*
X94313042Y-73827734D01*
X94313042Y-73827734D02*
X88573042Y-73827734D01*
X86263042Y-80566354D02*
X86263042Y-101884804D01*
X95962297Y-71768479D02*
X95962297Y-72178479D01*
X86263042Y-101884804D02*
X86283042Y-101904804D01*
X105763042Y-92652734D02*
X105643042Y-92772734D01*
X105763042Y-91457235D02*
X105763042Y-92652734D01*
X106563541Y-89977235D02*
X106563541Y-90656736D01*
X107248042Y-89292734D02*
X106563541Y-89977235D01*
X106563541Y-90656736D02*
X105763042Y-91457235D01*
X108258042Y-89292734D02*
X107248042Y-89292734D01*
X108603042Y-88947734D02*
X108258042Y-89292734D01*
X108603042Y-87997734D02*
X108603042Y-88947734D01*
X108363042Y-87757734D02*
X108603042Y-87997734D01*
X107073042Y-87117734D02*
X107073042Y-87427734D01*
X106369631Y-86414323D02*
X107073042Y-87117734D01*
X106369631Y-83581145D02*
X106369631Y-86414323D01*
X105924631Y-83136145D02*
X106369631Y-83581145D01*
X105041453Y-83136145D02*
X105924631Y-83136145D01*
X104934631Y-83029323D02*
X105041453Y-83136145D01*
X104934631Y-82146145D02*
X104934631Y-83029323D01*
X104661719Y-81873234D02*
X104934631Y-82146145D01*
X101667542Y-81873234D02*
X104661719Y-81873234D01*
X105034438Y-91502734D02*
X104723042Y-91502734D01*
X106114040Y-90398132D02*
X105718042Y-90794130D01*
X107403042Y-87757734D02*
X108363042Y-87757734D01*
X107978542Y-88493134D02*
X107411952Y-88493134D01*
X107073042Y-87427734D02*
X107403042Y-87757734D01*
X100833042Y-82707734D02*
X101667542Y-81873234D01*
X106114040Y-89791046D02*
X106114040Y-90398132D01*
X105718042Y-90819130D02*
X105034438Y-91502734D01*
X107411952Y-88493134D02*
X106114040Y-89791046D01*
X105718042Y-90794130D02*
X105718042Y-90819130D01*
X105643042Y-92772734D02*
X104723042Y-92772734D01*
X105643042Y-90232734D02*
X104723042Y-90232734D01*
X105664040Y-90211736D02*
X105643042Y-90232734D01*
X105664040Y-89605356D02*
X105664040Y-90211736D01*
X106623042Y-88646354D02*
X105664040Y-89605356D01*
X106623042Y-87487734D02*
X106623042Y-88646354D01*
X105903042Y-86767734D02*
X106623042Y-87487734D01*
X100328042Y-83472734D02*
X104104865Y-83472734D01*
X104294365Y-83662234D02*
X105427542Y-83662234D01*
X98683042Y-85117734D02*
X100328042Y-83472734D01*
X104104865Y-83472734D02*
X104294365Y-83662234D01*
X105903042Y-84137734D02*
X105903042Y-86767734D01*
X105427542Y-83662234D02*
X105903042Y-84137734D01*
X105780198Y-87692734D02*
X105972531Y-87885067D01*
X104723042Y-87692734D02*
X105780198Y-87692734D01*
X103822542Y-82848234D02*
X104173042Y-82497734D01*
X101991724Y-82848234D02*
X103822542Y-82848234D01*
D29*
X115483042Y-91597734D02*
X114288042Y-91597734D01*
D30*
X104723042Y-84426388D02*
X104817196Y-84332234D01*
D29*
X115623042Y-91737734D02*
X115483042Y-91597734D01*
X115623042Y-93237734D02*
X115623042Y-94587734D01*
D30*
X104723042Y-86422734D02*
X104723042Y-84426388D01*
D29*
X114288042Y-91597734D02*
X114123042Y-91762734D01*
X115483042Y-94727734D02*
X114138042Y-94727734D01*
X114138042Y-94727734D02*
X114123042Y-94712734D01*
X115623042Y-94587734D02*
X115483042Y-94727734D01*
X115623042Y-93237734D02*
X115623042Y-91737734D01*
X95962297Y-66236801D02*
X95962297Y-71768479D01*
D30*
X95962297Y-71768479D02*
X95953042Y-71777734D01*
D31*
X115633042Y-86847734D02*
X115633042Y-86757734D01*
X117473042Y-88807734D02*
X117473042Y-88687734D01*
X117303042Y-88517734D02*
X115633042Y-86847734D01*
X116903042Y-105927734D02*
X117473042Y-105357734D01*
X117473042Y-88687734D02*
X117303042Y-88517734D01*
X117473042Y-105357734D02*
X117473042Y-88807734D01*
D32*
X115213042Y-105927734D02*
X116903042Y-105927734D01*
D31*
X115213042Y-103427734D02*
X115613042Y-103427734D01*
X116873042Y-89437734D02*
X115523042Y-88087734D01*
D32*
X115613042Y-103427734D02*
X116873042Y-102167734D01*
D31*
X116873042Y-102167734D02*
X116873042Y-89437734D01*
D33*
X94940357Y-125087404D02*
X94940357Y-121743743D01*
X96050687Y-126197734D02*
X94940357Y-125087404D01*
X113234953Y-123334835D02*
X112828947Y-123740841D01*
D34*
X113234953Y-123316258D02*
X113940837Y-122610374D01*
D33*
X93622074Y-120425460D02*
X93622074Y-114023224D01*
X94940357Y-121743743D02*
X93622074Y-120425460D01*
X112828947Y-125630750D02*
X112261963Y-126197734D01*
D34*
X113234953Y-123334835D02*
X113234953Y-123316258D01*
D33*
X112261963Y-126197734D02*
X96050687Y-126197734D01*
X112828947Y-123740841D02*
X112828947Y-125630750D01*
D29*
X104783042Y-75187734D02*
X104793042Y-75197734D01*
X104783042Y-71337734D02*
X104783042Y-75187734D01*
X98103042Y-81077546D02*
X98502297Y-81476801D01*
X98103042Y-77567734D02*
X98103042Y-81077546D01*
X95962297Y-81476801D02*
X95962297Y-78212903D01*
X95962297Y-78212903D02*
X97356965Y-76818234D01*
X101583042Y-114087734D02*
X101583042Y-115237734D01*
X101583042Y-115237734D02*
X102723042Y-116377734D01*
X102723042Y-116377734D02*
X104473042Y-116377734D01*
D30*
X89855282Y-79687734D02*
X89850735Y-79683187D01*
X102413042Y-78711343D02*
X102751151Y-78373234D01*
X102413042Y-80147734D02*
X102413042Y-78711343D01*
D29*
X98502297Y-70878479D02*
X98502297Y-66236801D01*
G04 #@! TA.AperFunction,Conductor*
G36*
X86300054Y-106872618D02*
G01*
X86309427Y-106882207D01*
X86311042Y-106884752D01*
X86316819Y-106890177D01*
X86360693Y-106931377D01*
X86363535Y-106934132D01*
X86383272Y-106953869D01*
X86386469Y-106956349D01*
X86395489Y-106964052D01*
X86427721Y-106994320D01*
X86434667Y-106998139D01*
X86434670Y-106998141D01*
X86445476Y-107004082D01*
X86461995Y-107014933D01*
X86478001Y-107027348D01*
X86485270Y-107030493D01*
X86485274Y-107030496D01*
X86518579Y-107044908D01*
X86529229Y-107050125D01*
X86567982Y-107071429D01*
X86575657Y-107073400D01*
X86575658Y-107073400D01*
X86587604Y-107076467D01*
X86606309Y-107082871D01*
X86624897Y-107090915D01*
X86632720Y-107092154D01*
X86632730Y-107092157D01*
X86668566Y-107097833D01*
X86680186Y-107100239D01*
X86715331Y-107109262D01*
X86723012Y-107111234D01*
X86743266Y-107111234D01*
X86762976Y-107112785D01*
X86782985Y-107115954D01*
X86790877Y-107115208D01*
X86827003Y-107111793D01*
X86838861Y-107111234D01*
X90001775Y-107111234D01*
X90069896Y-107131236D01*
X90090871Y-107148139D01*
X90159302Y-107216571D01*
X90193327Y-107278884D01*
X90196206Y-107305666D01*
X90196206Y-107520359D01*
X90176204Y-107588480D01*
X90122548Y-107634973D01*
X90070206Y-107646359D01*
X89700830Y-107646359D01*
X89685591Y-107650834D01*
X89684386Y-107652224D01*
X89682715Y-107659907D01*
X89682715Y-110144243D01*
X89687190Y-110159482D01*
X89688580Y-110160687D01*
X89696263Y-110162358D01*
X90062633Y-110162358D01*
X90130754Y-110182360D01*
X90177247Y-110236016D01*
X90187351Y-110306290D01*
X90157857Y-110370870D01*
X90151728Y-110377454D01*
X89670130Y-110859051D01*
X89661851Y-110866585D01*
X89655370Y-110870698D01*
X89608745Y-110920349D01*
X89605990Y-110923191D01*
X89586253Y-110942928D01*
X89583773Y-110946125D01*
X89576070Y-110955145D01*
X89545802Y-110987377D01*
X89541983Y-110994323D01*
X89541981Y-110994326D01*
X89536040Y-111005132D01*
X89525189Y-111021651D01*
X89512774Y-111037657D01*
X89509629Y-111044926D01*
X89509626Y-111044930D01*
X89495214Y-111078235D01*
X89489997Y-111088885D01*
X89468693Y-111127638D01*
X89466722Y-111135313D01*
X89466722Y-111135314D01*
X89463655Y-111147260D01*
X89457251Y-111165964D01*
X89449207Y-111184553D01*
X89447968Y-111192376D01*
X89447965Y-111192386D01*
X89442289Y-111228222D01*
X89439883Y-111239842D01*
X89428888Y-111282668D01*
X89428888Y-111302922D01*
X89427337Y-111322632D01*
X89424168Y-111342641D01*
X89424914Y-111350533D01*
X89428329Y-111386659D01*
X89428888Y-111398517D01*
X89428888Y-112438384D01*
X89408799Y-112506639D01*
X89337442Y-112617363D01*
X89337438Y-112617372D01*
X89333623Y-112623291D01*
X89331214Y-112629911D01*
X89331213Y-112629912D01*
X89280457Y-112769362D01*
X89271585Y-112793738D01*
X89248851Y-112973693D01*
X89266551Y-113154213D01*
X89323806Y-113326326D01*
X89327453Y-113332348D01*
X89327454Y-113332350D01*
X89403776Y-113458373D01*
X89417768Y-113481477D01*
X89543770Y-113611955D01*
X89695547Y-113711275D01*
X89702151Y-113713731D01*
X89702153Y-113713732D01*
X89858946Y-113772043D01*
X89858948Y-113772043D01*
X89865556Y-113774501D01*
X89949383Y-113785686D01*
X90038368Y-113797560D01*
X90038372Y-113797560D01*
X90045349Y-113798491D01*
X90052360Y-113797853D01*
X90052364Y-113797853D01*
X90194847Y-113784885D01*
X90225988Y-113782051D01*
X90232690Y-113779873D01*
X90232692Y-113779873D01*
X90391797Y-113728177D01*
X90391800Y-113728176D01*
X90398496Y-113726000D01*
X90421545Y-113712260D01*
X90455190Y-113692204D01*
X90523945Y-113674504D01*
X90591355Y-113696786D01*
X90636016Y-113751975D01*
X90645707Y-113800433D01*
X90645707Y-114171201D01*
X90625705Y-114239322D01*
X90608802Y-114260297D01*
X90488022Y-114381076D01*
X90425710Y-114415101D01*
X90412098Y-114417290D01*
X90381403Y-114420516D01*
X90381401Y-114420516D01*
X90374403Y-114421252D01*
X90202694Y-114479706D01*
X90196690Y-114483400D01*
X90054210Y-114571054D01*
X90054207Y-114571056D01*
X90048203Y-114574750D01*
X90043168Y-114579681D01*
X90043165Y-114579683D01*
X89957124Y-114663941D01*
X89918608Y-114701659D01*
X89820350Y-114854126D01*
X89817941Y-114860746D01*
X89817939Y-114860749D01*
X89769973Y-114992535D01*
X89758312Y-115024573D01*
X89735578Y-115204528D01*
X89753278Y-115385048D01*
X89810533Y-115557161D01*
X89814180Y-115563183D01*
X89814181Y-115563185D01*
X89898277Y-115702044D01*
X89904495Y-115712312D01*
X89909384Y-115717375D01*
X89909385Y-115717376D01*
X89919245Y-115727586D01*
X90030497Y-115842790D01*
X90182274Y-115942110D01*
X90188878Y-115944566D01*
X90188880Y-115944567D01*
X90345673Y-116002878D01*
X90345675Y-116002878D01*
X90352283Y-116005336D01*
X90436110Y-116016521D01*
X90525095Y-116028395D01*
X90525099Y-116028395D01*
X90532076Y-116029326D01*
X90539087Y-116028688D01*
X90539091Y-116028688D01*
X90681574Y-116015720D01*
X90712715Y-116012886D01*
X90719417Y-116010708D01*
X90719419Y-116010708D01*
X90878524Y-115959012D01*
X90878527Y-115959011D01*
X90885223Y-115956835D01*
X91016913Y-115878332D01*
X91034975Y-115867565D01*
X91034977Y-115867564D01*
X91041027Y-115863957D01*
X91172381Y-115738870D01*
X91272758Y-115587790D01*
X91326328Y-115446767D01*
X91334670Y-115424808D01*
X91334671Y-115424806D01*
X91337170Y-115418226D01*
X91340894Y-115391732D01*
X91346754Y-115350034D01*
X91376042Y-115285360D01*
X91382433Y-115278475D01*
X91671460Y-114989448D01*
X91679746Y-114981908D01*
X91686225Y-114977796D01*
X91732851Y-114928144D01*
X91735605Y-114925303D01*
X91748479Y-114912429D01*
X91810791Y-114878403D01*
X91881606Y-114883468D01*
X91938442Y-114926015D01*
X91963253Y-114992535D01*
X91963574Y-115001524D01*
X91963574Y-115221358D01*
X91970329Y-115283540D01*
X92021459Y-115419929D01*
X92061666Y-115473577D01*
X92088400Y-115509248D01*
X92113248Y-115575754D01*
X92113574Y-115584813D01*
X92113574Y-120401444D01*
X92113525Y-120404962D01*
X92113216Y-120416042D01*
X92110740Y-120504665D01*
X92111409Y-120509679D01*
X92121132Y-120582546D01*
X92121832Y-120589099D01*
X92128134Y-120667425D01*
X92135971Y-120699330D01*
X92138500Y-120712718D01*
X92142845Y-120745280D01*
X92144306Y-120750121D01*
X92144307Y-120750123D01*
X92165552Y-120820489D01*
X92167293Y-120826850D01*
X92186037Y-120903166D01*
X92188015Y-120907826D01*
X92198875Y-120933411D01*
X92203512Y-120946221D01*
X92213007Y-120977668D01*
X92215225Y-120982216D01*
X92215228Y-120982223D01*
X92247445Y-121048278D01*
X92250181Y-121054280D01*
X92280886Y-121126616D01*
X92283578Y-121130890D01*
X92298393Y-121154416D01*
X92305019Y-121166320D01*
X92319420Y-121195848D01*
X92322339Y-121199985D01*
X92322339Y-121199986D01*
X92364715Y-121260057D01*
X92368375Y-121265546D01*
X92373856Y-121274249D01*
X92410241Y-121332027D01*
X92413582Y-121335816D01*
X92413586Y-121335822D01*
X92431972Y-121356677D01*
X92440418Y-121367372D01*
X92459348Y-121394207D01*
X92462018Y-121397131D01*
X92474920Y-121411260D01*
X92478983Y-121415710D01*
X92518699Y-121455426D01*
X92524118Y-121461196D01*
X92567424Y-121510318D01*
X92567427Y-121510321D01*
X92570772Y-121514115D01*
X92574680Y-121517325D01*
X92574681Y-121517326D01*
X92603063Y-121540639D01*
X92612182Y-121548909D01*
X93394952Y-122331679D01*
X93428978Y-122393991D01*
X93431857Y-122420774D01*
X93431857Y-125063388D01*
X93431808Y-125066906D01*
X93429023Y-125166609D01*
X93429692Y-125171623D01*
X93439415Y-125244490D01*
X93440115Y-125251043D01*
X93446417Y-125329369D01*
X93454195Y-125361034D01*
X93454254Y-125361274D01*
X93456783Y-125374662D01*
X93461128Y-125407224D01*
X93462589Y-125412065D01*
X93462590Y-125412067D01*
X93483835Y-125482433D01*
X93485576Y-125488794D01*
X93504320Y-125565110D01*
X93506298Y-125569770D01*
X93517158Y-125595355D01*
X93521795Y-125608165D01*
X93531290Y-125639612D01*
X93533508Y-125644160D01*
X93533511Y-125644167D01*
X93565728Y-125710222D01*
X93568464Y-125716224D01*
X93578058Y-125738825D01*
X93599169Y-125788560D01*
X93601861Y-125792834D01*
X93616676Y-125816360D01*
X93623302Y-125828264D01*
X93637703Y-125857792D01*
X93640622Y-125861929D01*
X93640622Y-125861930D01*
X93682998Y-125922001D01*
X93686658Y-125927490D01*
X93725828Y-125989690D01*
X93728524Y-125993971D01*
X93731865Y-125997760D01*
X93731869Y-125997766D01*
X93750255Y-126018621D01*
X93758701Y-126029316D01*
X93777631Y-126056151D01*
X93797266Y-126077654D01*
X93836982Y-126117370D01*
X93842401Y-126123140D01*
X93885707Y-126172262D01*
X93885710Y-126172265D01*
X93889055Y-126176059D01*
X93892963Y-126179269D01*
X93892964Y-126179270D01*
X93921346Y-126202583D01*
X93930465Y-126210853D01*
X94833751Y-127114139D01*
X94867777Y-127176451D01*
X94862712Y-127247266D01*
X94820165Y-127304102D01*
X94753645Y-127328913D01*
X94744656Y-127329234D01*
X90846152Y-127329234D01*
X90778031Y-127309232D01*
X90731538Y-127255576D01*
X90721434Y-127185302D01*
X90750928Y-127120722D01*
X90800998Y-127085603D01*
X90987708Y-127013932D01*
X91148307Y-126932103D01*
X91312431Y-126848478D01*
X91312438Y-126848474D01*
X91315372Y-126846979D01*
X91623789Y-126646691D01*
X91843282Y-126468949D01*
X91860367Y-126458475D01*
X91859872Y-126457618D01*
X91865586Y-126454319D01*
X91871621Y-126451632D01*
X92026122Y-126339380D01*
X92141848Y-126210853D01*
X92149490Y-126202366D01*
X92149491Y-126202365D01*
X92153909Y-126197458D01*
X92157208Y-126191745D01*
X92157211Y-126191740D01*
X92194885Y-126126486D01*
X92206084Y-126110192D01*
X92398960Y-125872010D01*
X92401046Y-125869434D01*
X92548039Y-125643083D01*
X92599536Y-125563785D01*
X92599538Y-125563782D01*
X92601334Y-125561016D01*
X92606712Y-125550463D01*
X92766789Y-125236293D01*
X92768287Y-125233353D01*
X92900075Y-124890033D01*
X92995255Y-124534818D01*
X93025826Y-124341801D01*
X93052269Y-124174848D01*
X93052270Y-124174840D01*
X93052783Y-124171600D01*
X93058288Y-124066560D01*
X93064282Y-124034218D01*
X93075214Y-124000573D01*
X93075215Y-124000569D01*
X93077256Y-123994287D01*
X93097218Y-123804359D01*
X93079332Y-123634180D01*
X93077947Y-123621001D01*
X93077946Y-123620997D01*
X93077256Y-123614431D01*
X93075214Y-123608145D01*
X93064282Y-123574500D01*
X93058288Y-123542158D01*
X93052955Y-123440408D01*
X93052783Y-123437118D01*
X93040520Y-123359688D01*
X93019392Y-123226294D01*
X92995255Y-123073900D01*
X92900075Y-122718685D01*
X92768287Y-122375365D01*
X92764832Y-122368584D01*
X92602833Y-122050643D01*
X92602829Y-122050636D01*
X92601334Y-122047702D01*
X92593147Y-122035094D01*
X92422439Y-121772227D01*
X92401046Y-121739284D01*
X92206084Y-121498526D01*
X92194885Y-121482232D01*
X92157211Y-121416978D01*
X92157208Y-121416973D01*
X92153909Y-121411260D01*
X92138555Y-121394207D01*
X92030544Y-121274249D01*
X92030543Y-121274248D01*
X92026122Y-121269338D01*
X91871621Y-121157086D01*
X91865586Y-121154399D01*
X91859872Y-121151100D01*
X91860367Y-121150243D01*
X91843282Y-121139769D01*
X91626365Y-120964113D01*
X91623789Y-120962027D01*
X91425691Y-120833381D01*
X91318141Y-120763537D01*
X91318138Y-120763535D01*
X91315372Y-120761739D01*
X91312438Y-120760244D01*
X91312431Y-120760240D01*
X90990648Y-120596284D01*
X90987708Y-120594786D01*
X90644388Y-120462998D01*
X90641199Y-120462143D01*
X90641182Y-120462138D01*
X90549121Y-120437470D01*
X90488499Y-120400519D01*
X90457477Y-120336658D01*
X90465906Y-120266163D01*
X90511110Y-120211417D01*
X90521225Y-120205243D01*
X90532364Y-120199145D01*
X90634439Y-120122644D01*
X90647000Y-120110083D01*
X90723501Y-120008008D01*
X90732039Y-119992413D01*
X90777193Y-119871965D01*
X90780820Y-119856710D01*
X90786346Y-119805845D01*
X90786715Y-119799031D01*
X90786715Y-119276474D01*
X90782240Y-119261235D01*
X90780850Y-119260030D01*
X90773167Y-119258359D01*
X89400715Y-119258359D01*
X89332594Y-119238357D01*
X89286101Y-119184701D01*
X89274715Y-119132359D01*
X89274715Y-118732244D01*
X89782715Y-118732244D01*
X89787190Y-118747483D01*
X89788580Y-118748688D01*
X89796263Y-118750359D01*
X90768599Y-118750359D01*
X90783838Y-118745884D01*
X90785043Y-118744494D01*
X90786714Y-118736811D01*
X90786714Y-118209690D01*
X90786344Y-118202869D01*
X90780820Y-118152007D01*
X90777194Y-118136755D01*
X90732039Y-118016305D01*
X90723501Y-118000710D01*
X90647000Y-117898635D01*
X90634439Y-117886074D01*
X90532364Y-117809573D01*
X90516769Y-117801035D01*
X90396321Y-117755881D01*
X90381066Y-117752254D01*
X90330201Y-117746728D01*
X90323387Y-117746359D01*
X89800830Y-117746359D01*
X89785591Y-117750834D01*
X89784386Y-117752224D01*
X89782715Y-117759907D01*
X89782715Y-118732244D01*
X89274715Y-118732244D01*
X89274715Y-117764475D01*
X89270240Y-117749236D01*
X89268850Y-117748031D01*
X89261167Y-117746360D01*
X88734046Y-117746360D01*
X88727225Y-117746730D01*
X88676363Y-117752254D01*
X88661111Y-117755880D01*
X88540661Y-117801035D01*
X88525066Y-117809573D01*
X88422991Y-117886074D01*
X88410430Y-117898635D01*
X88333929Y-118000710D01*
X88325391Y-118016305D01*
X88301109Y-118081076D01*
X88258467Y-118137840D01*
X88191905Y-118162540D01*
X88122557Y-118147332D01*
X88089935Y-118121647D01*
X87994082Y-118016305D01*
X87956078Y-117974539D01*
X87956076Y-117974537D01*
X87952600Y-117970717D01*
X87948549Y-117967518D01*
X87948545Y-117967514D01*
X87774890Y-117830370D01*
X87774885Y-117830367D01*
X87770836Y-117827169D01*
X87766320Y-117824676D01*
X87766317Y-117824674D01*
X87572592Y-117717732D01*
X87572588Y-117717730D01*
X87568068Y-117715235D01*
X87563199Y-117713511D01*
X87563195Y-117713509D01*
X87354616Y-117639647D01*
X87354612Y-117639646D01*
X87349741Y-117637921D01*
X87344648Y-117637014D01*
X87344645Y-117637013D01*
X87126808Y-117598210D01*
X87126802Y-117598209D01*
X87121719Y-117597304D01*
X87048809Y-117596413D01*
X86895294Y-117594538D01*
X86895292Y-117594538D01*
X86890124Y-117594475D01*
X86661177Y-117629509D01*
X86441027Y-117701465D01*
X86436439Y-117703853D01*
X86436435Y-117703855D01*
X86275722Y-117787517D01*
X86206062Y-117801230D01*
X86140047Y-117775105D01*
X86098636Y-117717436D01*
X86091542Y-117675754D01*
X86091542Y-110289205D01*
X86111544Y-110221084D01*
X86165200Y-110174591D01*
X86235474Y-110164487D01*
X86271988Y-110175576D01*
X86273572Y-110176335D01*
X86278035Y-110178943D01*
X86494407Y-110261568D01*
X86499473Y-110262599D01*
X86499474Y-110262599D01*
X86552559Y-110273399D01*
X86721369Y-110307744D01*
X86852037Y-110312535D01*
X86947662Y-110316042D01*
X86947666Y-110316042D01*
X86952826Y-110316231D01*
X86957946Y-110315575D01*
X86957948Y-110315575D01*
X87030983Y-110306219D01*
X87182560Y-110286801D01*
X87187508Y-110285316D01*
X87187515Y-110285315D01*
X87399460Y-110221728D01*
X87404403Y-110220245D01*
X87426896Y-110209226D01*
X87607762Y-110120621D01*
X87607765Y-110120619D01*
X87612397Y-110118350D01*
X87800956Y-109983853D01*
X87965016Y-109820364D01*
X87968030Y-109816170D01*
X87968039Y-109816159D01*
X87980817Y-109798376D01*
X88036811Y-109754728D01*
X88107515Y-109748282D01*
X88170479Y-109781085D01*
X88201121Y-109827673D01*
X88225390Y-109892411D01*
X88233929Y-109908008D01*
X88310430Y-110010083D01*
X88322991Y-110022644D01*
X88425066Y-110099145D01*
X88440661Y-110107683D01*
X88561109Y-110152837D01*
X88576364Y-110156464D01*
X88627229Y-110161990D01*
X88634043Y-110162359D01*
X89156600Y-110162359D01*
X89171839Y-110157884D01*
X89173044Y-110156494D01*
X89174715Y-110148811D01*
X89174715Y-107664475D01*
X89170240Y-107649236D01*
X89168850Y-107648031D01*
X89161167Y-107646360D01*
X88634046Y-107646360D01*
X88627225Y-107646730D01*
X88576363Y-107652254D01*
X88561111Y-107655880D01*
X88440661Y-107701035D01*
X88425066Y-107709573D01*
X88322991Y-107786074D01*
X88310430Y-107798635D01*
X88233929Y-107900710D01*
X88225391Y-107916305D01*
X88201109Y-107981076D01*
X88158467Y-108037840D01*
X88091905Y-108062540D01*
X88022557Y-108047332D01*
X87989935Y-108021647D01*
X87894082Y-107916305D01*
X87856078Y-107874539D01*
X87856076Y-107874537D01*
X87852600Y-107870717D01*
X87848549Y-107867518D01*
X87848545Y-107867514D01*
X87674890Y-107730370D01*
X87674885Y-107730367D01*
X87670836Y-107727169D01*
X87666320Y-107724676D01*
X87666317Y-107724674D01*
X87472592Y-107617732D01*
X87472588Y-107617730D01*
X87468068Y-107615235D01*
X87463199Y-107613511D01*
X87463195Y-107613509D01*
X87254616Y-107539647D01*
X87254612Y-107539646D01*
X87249741Y-107537921D01*
X87244648Y-107537014D01*
X87244645Y-107537013D01*
X87026808Y-107498210D01*
X87026802Y-107498209D01*
X87021719Y-107497304D01*
X86948809Y-107496413D01*
X86795294Y-107494538D01*
X86795292Y-107494538D01*
X86790124Y-107494475D01*
X86561177Y-107529509D01*
X86341027Y-107601465D01*
X86275720Y-107635462D01*
X86206063Y-107649174D01*
X86140048Y-107623049D01*
X86098636Y-107565381D01*
X86091542Y-107523698D01*
X86091542Y-106967842D01*
X86111544Y-106899721D01*
X86165200Y-106853228D01*
X86235474Y-106843124D01*
X86300054Y-106872618D01*
G37*
G04 #@! TD.AperFunction*
G04 #@! TA.AperFunction,Conductor*
G36*
X110159604Y-64866236D02*
G01*
X110206097Y-64919892D01*
X110216201Y-64990166D01*
X110194696Y-65044504D01*
X110064774Y-65230052D01*
X110062451Y-65235034D01*
X110062448Y-65235039D01*
X110032547Y-65299163D01*
X109968013Y-65437558D01*
X109966591Y-65442866D01*
X109966590Y-65442868D01*
X109932297Y-65570851D01*
X109908754Y-65658714D01*
X109893797Y-65829674D01*
X109893797Y-66643928D01*
X109908754Y-66814888D01*
X109910178Y-66820201D01*
X109910178Y-66820203D01*
X109925786Y-66878450D01*
X109968013Y-67036044D01*
X109970336Y-67041025D01*
X109970336Y-67041026D01*
X110062448Y-67238563D01*
X110062451Y-67238568D01*
X110064774Y-67243550D01*
X110196099Y-67431101D01*
X110357997Y-67592999D01*
X110362505Y-67596156D01*
X110362508Y-67596158D01*
X110390066Y-67615454D01*
X110545548Y-67724324D01*
X110550530Y-67726647D01*
X110550535Y-67726650D01*
X110747062Y-67818291D01*
X110753054Y-67821085D01*
X110758362Y-67822507D01*
X110758364Y-67822508D01*
X110968895Y-67878920D01*
X110968897Y-67878920D01*
X110974210Y-67880344D01*
X111202297Y-67900299D01*
X111430384Y-67880344D01*
X111435697Y-67878920D01*
X111435699Y-67878920D01*
X111646230Y-67822508D01*
X111646232Y-67822507D01*
X111651540Y-67821085D01*
X111657532Y-67818291D01*
X111854059Y-67726650D01*
X111854064Y-67726647D01*
X111859046Y-67724324D01*
X112014528Y-67615454D01*
X112042086Y-67596158D01*
X112042089Y-67596156D01*
X112046597Y-67592999D01*
X112208495Y-67431101D01*
X112339820Y-67243550D01*
X112342143Y-67238568D01*
X112342146Y-67238563D01*
X112358102Y-67204344D01*
X112405019Y-67151059D01*
X112473296Y-67131598D01*
X112541256Y-67152140D01*
X112586492Y-67204344D01*
X112602448Y-67238563D01*
X112602451Y-67238568D01*
X112604774Y-67243550D01*
X112736099Y-67431101D01*
X112897997Y-67592999D01*
X112902505Y-67596156D01*
X112902508Y-67596158D01*
X112930066Y-67615454D01*
X113085548Y-67724324D01*
X113090530Y-67726647D01*
X113090535Y-67726650D01*
X113287062Y-67818291D01*
X113293054Y-67821085D01*
X113298362Y-67822507D01*
X113298364Y-67822508D01*
X113508895Y-67878920D01*
X113508897Y-67878920D01*
X113514210Y-67880344D01*
X113742297Y-67900299D01*
X113970384Y-67880344D01*
X113975697Y-67878920D01*
X113975699Y-67878920D01*
X114186230Y-67822508D01*
X114186232Y-67822507D01*
X114191540Y-67821085D01*
X114197532Y-67818291D01*
X114394059Y-67726650D01*
X114394064Y-67726647D01*
X114399046Y-67724324D01*
X114554528Y-67615454D01*
X114582086Y-67596158D01*
X114582089Y-67596156D01*
X114586597Y-67592999D01*
X114748495Y-67431101D01*
X114879820Y-67243550D01*
X114882143Y-67238568D01*
X114882146Y-67238563D01*
X114898378Y-67203752D01*
X114945295Y-67150467D01*
X115013572Y-67131006D01*
X115081532Y-67151548D01*
X115126768Y-67203752D01*
X115142883Y-67238312D01*
X115148366Y-67247808D01*
X115273325Y-67426268D01*
X115280381Y-67434676D01*
X115434422Y-67588717D01*
X115442830Y-67595773D01*
X115621290Y-67720732D01*
X115630786Y-67726215D01*
X115828244Y-67818291D01*
X115838536Y-67822037D01*
X116010800Y-67868195D01*
X116024896Y-67867859D01*
X116028297Y-67859917D01*
X116028297Y-66108801D01*
X116048299Y-66040680D01*
X116101955Y-65994187D01*
X116154297Y-65982801D01*
X116410297Y-65982801D01*
X116478418Y-66002803D01*
X116524911Y-66056459D01*
X116536297Y-66108801D01*
X116536297Y-67854768D01*
X116540270Y-67868299D01*
X116548819Y-67869528D01*
X116726058Y-67822037D01*
X116736350Y-67818291D01*
X116933808Y-67726215D01*
X116943304Y-67720732D01*
X117121764Y-67595773D01*
X117130172Y-67588717D01*
X117284213Y-67434676D01*
X117291269Y-67426268D01*
X117416231Y-67247803D01*
X117422955Y-67236157D01*
X117474337Y-67187164D01*
X117544051Y-67173728D01*
X117609962Y-67200114D01*
X117651144Y-67257946D01*
X117658074Y-67299157D01*
X117658074Y-80413440D01*
X117638072Y-80481561D01*
X117584416Y-80528054D01*
X117514142Y-80538158D01*
X117449562Y-80508664D01*
X117422956Y-80476441D01*
X117422141Y-80475029D01*
X117419820Y-80470052D01*
X117390852Y-80428681D01*
X117291654Y-80287012D01*
X117291652Y-80287009D01*
X117288495Y-80282501D01*
X117126597Y-80120603D01*
X117122089Y-80117446D01*
X117122086Y-80117444D01*
X117015327Y-80042691D01*
X116939046Y-79989278D01*
X116934064Y-79986955D01*
X116934059Y-79986952D01*
X116736522Y-79894840D01*
X116736521Y-79894840D01*
X116731540Y-79892517D01*
X116726232Y-79891095D01*
X116726230Y-79891094D01*
X116515699Y-79834682D01*
X116515697Y-79834682D01*
X116510384Y-79833258D01*
X116282297Y-79813303D01*
X116054210Y-79833258D01*
X116048897Y-79834682D01*
X116048895Y-79834682D01*
X115838364Y-79891094D01*
X115838362Y-79891095D01*
X115833054Y-79892517D01*
X115828073Y-79894840D01*
X115828072Y-79894840D01*
X115630535Y-79986952D01*
X115630530Y-79986955D01*
X115625548Y-79989278D01*
X115549267Y-80042691D01*
X115442508Y-80117444D01*
X115442505Y-80117446D01*
X115437997Y-80120603D01*
X115276099Y-80282501D01*
X115272942Y-80287009D01*
X115272940Y-80287012D01*
X115247336Y-80323578D01*
X115144774Y-80470052D01*
X115142451Y-80475034D01*
X115142448Y-80475039D01*
X115126492Y-80509258D01*
X115079575Y-80562543D01*
X115011298Y-80582004D01*
X114943338Y-80561462D01*
X114898102Y-80509258D01*
X114882146Y-80475039D01*
X114882143Y-80475034D01*
X114879820Y-80470052D01*
X114777258Y-80323578D01*
X114751654Y-80287012D01*
X114751652Y-80287009D01*
X114748495Y-80282501D01*
X114586597Y-80120603D01*
X114582089Y-80117446D01*
X114582086Y-80117444D01*
X114475327Y-80042691D01*
X114399046Y-79989278D01*
X114394064Y-79986955D01*
X114394059Y-79986952D01*
X114196522Y-79894840D01*
X114196521Y-79894840D01*
X114191540Y-79892517D01*
X114186232Y-79891095D01*
X114186230Y-79891094D01*
X113975699Y-79834682D01*
X113975697Y-79834682D01*
X113970384Y-79833258D01*
X113742297Y-79813303D01*
X113514210Y-79833258D01*
X113508897Y-79834682D01*
X113508895Y-79834682D01*
X113298364Y-79891094D01*
X113298362Y-79891095D01*
X113293054Y-79892517D01*
X113288073Y-79894840D01*
X113288072Y-79894840D01*
X113090535Y-79986952D01*
X113090530Y-79986955D01*
X113085548Y-79989278D01*
X113009267Y-80042691D01*
X112902508Y-80117444D01*
X112902505Y-80117446D01*
X112897997Y-80120603D01*
X112736099Y-80282501D01*
X112732942Y-80287009D01*
X112732940Y-80287012D01*
X112707336Y-80323578D01*
X112604774Y-80470052D01*
X112602451Y-80475034D01*
X112602448Y-80475039D01*
X112586492Y-80509258D01*
X112539575Y-80562543D01*
X112471298Y-80582004D01*
X112403338Y-80561462D01*
X112358102Y-80509258D01*
X112342146Y-80475039D01*
X112342143Y-80475034D01*
X112339820Y-80470052D01*
X112237258Y-80323578D01*
X112211654Y-80287012D01*
X112211652Y-80287009D01*
X112208495Y-80282501D01*
X112046597Y-80120603D01*
X112042089Y-80117446D01*
X112042086Y-80117444D01*
X111935327Y-80042691D01*
X111859046Y-79989278D01*
X111854064Y-79986955D01*
X111854059Y-79986952D01*
X111656522Y-79894840D01*
X111656521Y-79894840D01*
X111651540Y-79892517D01*
X111646232Y-79891095D01*
X111646230Y-79891094D01*
X111435699Y-79834682D01*
X111435697Y-79834682D01*
X111430384Y-79833258D01*
X111202297Y-79813303D01*
X110974210Y-79833258D01*
X110968897Y-79834682D01*
X110968895Y-79834682D01*
X110758364Y-79891094D01*
X110758362Y-79891095D01*
X110753054Y-79892517D01*
X110748073Y-79894840D01*
X110748072Y-79894840D01*
X110550535Y-79986952D01*
X110550530Y-79986955D01*
X110545548Y-79989278D01*
X110469267Y-80042691D01*
X110362508Y-80117444D01*
X110362505Y-80117446D01*
X110357997Y-80120603D01*
X110196099Y-80282501D01*
X110192942Y-80287009D01*
X110192940Y-80287012D01*
X110167336Y-80323578D01*
X110064774Y-80470052D01*
X110062451Y-80475034D01*
X110062448Y-80475039D01*
X109981226Y-80649222D01*
X109968013Y-80677558D01*
X109966591Y-80682866D01*
X109966590Y-80682868D01*
X109912409Y-80885074D01*
X109908754Y-80898714D01*
X109893797Y-81069674D01*
X109893797Y-81883928D01*
X109894035Y-81886645D01*
X109894035Y-81886652D01*
X109898765Y-81940718D01*
X109908754Y-82054888D01*
X109910178Y-82060201D01*
X109910178Y-82060203D01*
X109949308Y-82206235D01*
X109968013Y-82276044D01*
X109970336Y-82281025D01*
X109970336Y-82281026D01*
X110062448Y-82478563D01*
X110062451Y-82478568D01*
X110064774Y-82483550D01*
X110120930Y-82563749D01*
X110184048Y-82653890D01*
X110196099Y-82671101D01*
X110289939Y-82764941D01*
X110323965Y-82827253D01*
X110318900Y-82898068D01*
X110276353Y-82954904D01*
X110209833Y-82979715D01*
X110147594Y-82968231D01*
X110022934Y-82910101D01*
X110022933Y-82910100D01*
X110017952Y-82907778D01*
X110012644Y-82906356D01*
X110012642Y-82906355D01*
X109819012Y-82854472D01*
X109819010Y-82854472D01*
X109813697Y-82853048D01*
X109603042Y-82834618D01*
X109392387Y-82853048D01*
X109387074Y-82854472D01*
X109387072Y-82854472D01*
X109193442Y-82906355D01*
X109193440Y-82906356D01*
X109188132Y-82907778D01*
X109183151Y-82910100D01*
X109183150Y-82910101D01*
X109001465Y-82994822D01*
X109001462Y-82994824D01*
X108996484Y-82997145D01*
X108823266Y-83118433D01*
X108673741Y-83267958D01*
X108552453Y-83441176D01*
X108550132Y-83446154D01*
X108550130Y-83446157D01*
X108503921Y-83545253D01*
X108463086Y-83632824D01*
X108461664Y-83638132D01*
X108461663Y-83638134D01*
X108458591Y-83649600D01*
X108408356Y-83837079D01*
X108389926Y-84047734D01*
X108408356Y-84258389D01*
X108409780Y-84263702D01*
X108409780Y-84263704D01*
X108446338Y-84400138D01*
X108463086Y-84462644D01*
X108465408Y-84467625D01*
X108465409Y-84467626D01*
X108532419Y-84611328D01*
X108552453Y-84654292D01*
X108673741Y-84827510D01*
X108823266Y-84977035D01*
X108996484Y-85098323D01*
X109001462Y-85100644D01*
X109001465Y-85100646D01*
X109172327Y-85180320D01*
X109188132Y-85187690D01*
X109193440Y-85189112D01*
X109193442Y-85189113D01*
X109387072Y-85240996D01*
X109387074Y-85240996D01*
X109392387Y-85242420D01*
X109603042Y-85260850D01*
X109813697Y-85242420D01*
X109819010Y-85240996D01*
X109819012Y-85240996D01*
X110012642Y-85189113D01*
X110012644Y-85189112D01*
X110017952Y-85187690D01*
X110033757Y-85180320D01*
X110070452Y-85163209D01*
X114790907Y-85163209D01*
X114808371Y-85362825D01*
X114810273Y-85373612D01*
X114862135Y-85567163D01*
X114865883Y-85577457D01*
X114950563Y-85759057D01*
X114956041Y-85768545D01*
X114977353Y-85798982D01*
X114987830Y-85807357D01*
X115001278Y-85800288D01*
X115631020Y-85170546D01*
X115637398Y-85158866D01*
X116367450Y-85158866D01*
X116367581Y-85160699D01*
X116371832Y-85167314D01*
X117005528Y-85801010D01*
X117017303Y-85807440D01*
X117029318Y-85798144D01*
X117050043Y-85768545D01*
X117055521Y-85759057D01*
X117140201Y-85577457D01*
X117143949Y-85567163D01*
X117195811Y-85373612D01*
X117197713Y-85362825D01*
X117215177Y-85163209D01*
X117215177Y-85152259D01*
X117197713Y-84952643D01*
X117195811Y-84941856D01*
X117143949Y-84748305D01*
X117140201Y-84738011D01*
X117055521Y-84556411D01*
X117050043Y-84546923D01*
X117028731Y-84516486D01*
X117018254Y-84508111D01*
X117004806Y-84515180D01*
X116375064Y-85144922D01*
X116367450Y-85158866D01*
X115637398Y-85158866D01*
X115638634Y-85156602D01*
X115638503Y-85154769D01*
X115634252Y-85148154D01*
X115000556Y-84514458D01*
X114988781Y-84508028D01*
X114976766Y-84517324D01*
X114956041Y-84546923D01*
X114950563Y-84556411D01*
X114865883Y-84738011D01*
X114862135Y-84748305D01*
X114810273Y-84941856D01*
X114808371Y-84952643D01*
X114790907Y-85152259D01*
X114790907Y-85163209D01*
X110070452Y-85163209D01*
X110204619Y-85100646D01*
X110204622Y-85100644D01*
X110209600Y-85098323D01*
X110382818Y-84977035D01*
X110532343Y-84827510D01*
X110653631Y-84654292D01*
X110673666Y-84611328D01*
X110740675Y-84467626D01*
X110740676Y-84467625D01*
X110742998Y-84462644D01*
X110759747Y-84400138D01*
X110796304Y-84263704D01*
X110796304Y-84263702D01*
X110797728Y-84258389D01*
X110807865Y-84142522D01*
X115353419Y-84142522D01*
X115360488Y-84155970D01*
X115990230Y-84785712D01*
X116004174Y-84793326D01*
X116006007Y-84793195D01*
X116012622Y-84788944D01*
X116646318Y-84155248D01*
X116652748Y-84143473D01*
X116643452Y-84131458D01*
X116613853Y-84110733D01*
X116604365Y-84105255D01*
X116422765Y-84020575D01*
X116412471Y-84016827D01*
X116218920Y-83964965D01*
X116208133Y-83963063D01*
X116008517Y-83945599D01*
X115997567Y-83945599D01*
X115797951Y-83963063D01*
X115787164Y-83964965D01*
X115593613Y-84016827D01*
X115583319Y-84020575D01*
X115401719Y-84105255D01*
X115392231Y-84110733D01*
X115361794Y-84132045D01*
X115353419Y-84142522D01*
X110807865Y-84142522D01*
X110816158Y-84047734D01*
X110797728Y-83837079D01*
X110747493Y-83649600D01*
X110744421Y-83638134D01*
X110744420Y-83638132D01*
X110742998Y-83632824D01*
X110702163Y-83545253D01*
X110655954Y-83446157D01*
X110655952Y-83446154D01*
X110653631Y-83441176D01*
X110532343Y-83267958D01*
X110457159Y-83192774D01*
X110423133Y-83130462D01*
X110428198Y-83059647D01*
X110470745Y-83002811D01*
X110537265Y-82978000D01*
X110599504Y-82989484D01*
X110720492Y-83045901D01*
X110753054Y-83061085D01*
X110758362Y-83062507D01*
X110758364Y-83062508D01*
X110968895Y-83118920D01*
X110968897Y-83118920D01*
X110974210Y-83120344D01*
X111202297Y-83140299D01*
X111430384Y-83120344D01*
X111435697Y-83118920D01*
X111435699Y-83118920D01*
X111646230Y-83062508D01*
X111646232Y-83062507D01*
X111651540Y-83061085D01*
X111675083Y-83050107D01*
X111854059Y-82966650D01*
X111854064Y-82966647D01*
X111859046Y-82964324D01*
X111983909Y-82876894D01*
X112042086Y-82836158D01*
X112042089Y-82836156D01*
X112046597Y-82832999D01*
X112208495Y-82671101D01*
X112220547Y-82653890D01*
X112283664Y-82563749D01*
X112339820Y-82483550D01*
X112342143Y-82478568D01*
X112342146Y-82478563D01*
X112358102Y-82444344D01*
X112405019Y-82391059D01*
X112473296Y-82371598D01*
X112541256Y-82392140D01*
X112586492Y-82444344D01*
X112602448Y-82478563D01*
X112602451Y-82478568D01*
X112604774Y-82483550D01*
X112660930Y-82563749D01*
X112724048Y-82653890D01*
X112736099Y-82671101D01*
X112897997Y-82832999D01*
X112902505Y-82836156D01*
X112902508Y-82836158D01*
X112960685Y-82876894D01*
X113085548Y-82964324D01*
X113090530Y-82966647D01*
X113090535Y-82966650D01*
X113269511Y-83050107D01*
X113293054Y-83061085D01*
X113298362Y-83062507D01*
X113298364Y-83062508D01*
X113508895Y-83118920D01*
X113508897Y-83118920D01*
X113514210Y-83120344D01*
X113742297Y-83140299D01*
X113970384Y-83120344D01*
X113975697Y-83118920D01*
X113975699Y-83118920D01*
X114186230Y-83062508D01*
X114186232Y-83062507D01*
X114191540Y-83061085D01*
X114215083Y-83050107D01*
X114394059Y-82966650D01*
X114394064Y-82966647D01*
X114399046Y-82964324D01*
X114523909Y-82876894D01*
X114582086Y-82836158D01*
X114582089Y-82836156D01*
X114586597Y-82832999D01*
X114748495Y-82671101D01*
X114760547Y-82653890D01*
X114823664Y-82563749D01*
X114879820Y-82483550D01*
X114882143Y-82478568D01*
X114882146Y-82478563D01*
X114898102Y-82444344D01*
X114945019Y-82391059D01*
X115013296Y-82371598D01*
X115081256Y-82392140D01*
X115126492Y-82444344D01*
X115142448Y-82478563D01*
X115142451Y-82478568D01*
X115144774Y-82483550D01*
X115200930Y-82563749D01*
X115264048Y-82653890D01*
X115276099Y-82671101D01*
X115437997Y-82832999D01*
X115442505Y-82836156D01*
X115442508Y-82836158D01*
X115500685Y-82876894D01*
X115625548Y-82964324D01*
X115630530Y-82966647D01*
X115630535Y-82966650D01*
X115809511Y-83050107D01*
X115833054Y-83061085D01*
X115838362Y-83062507D01*
X115838364Y-83062508D01*
X116048895Y-83118920D01*
X116048897Y-83118920D01*
X116054210Y-83120344D01*
X116282297Y-83140299D01*
X116510384Y-83120344D01*
X116515697Y-83118920D01*
X116515699Y-83118920D01*
X116726230Y-83062508D01*
X116726232Y-83062507D01*
X116731540Y-83061085D01*
X116755083Y-83050107D01*
X116934059Y-82966650D01*
X116934064Y-82966647D01*
X116939046Y-82964324D01*
X117063909Y-82876894D01*
X117122086Y-82836158D01*
X117122089Y-82836156D01*
X117126597Y-82832999D01*
X117288495Y-82671101D01*
X117300547Y-82653890D01*
X117406841Y-82502086D01*
X117419820Y-82483550D01*
X117422141Y-82478573D01*
X117422956Y-82477161D01*
X117474339Y-82428168D01*
X117544053Y-82414733D01*
X117609963Y-82441120D01*
X117651145Y-82498953D01*
X117658074Y-82540162D01*
X117658074Y-87566605D01*
X117638072Y-87634726D01*
X117584416Y-87681219D01*
X117514142Y-87691323D01*
X117449562Y-87661829D01*
X117442979Y-87655700D01*
X116465434Y-86678155D01*
X116431408Y-86615843D01*
X116429315Y-86603108D01*
X116427226Y-86584485D01*
X116427224Y-86584475D01*
X116426439Y-86577479D01*
X116422588Y-86566419D01*
X116378708Y-86440414D01*
X116375194Y-86369505D01*
X116410576Y-86307952D01*
X116444449Y-86284782D01*
X116604369Y-86210211D01*
X116613853Y-86204735D01*
X116644290Y-86183423D01*
X116652665Y-86172946D01*
X116645596Y-86159498D01*
X116015854Y-85529756D01*
X116001910Y-85522142D01*
X116000077Y-85522273D01*
X115993462Y-85526524D01*
X115600015Y-85919971D01*
X115537703Y-85953997D01*
X115524091Y-85956186D01*
X115465330Y-85962362D01*
X115465328Y-85962363D01*
X115458330Y-85963098D01*
X115286621Y-86021552D01*
X115280617Y-86025246D01*
X115138137Y-86112900D01*
X115138134Y-86112902D01*
X115132130Y-86116596D01*
X115127095Y-86121527D01*
X115127092Y-86121529D01*
X115007567Y-86238577D01*
X115002535Y-86243505D01*
X114904277Y-86395972D01*
X114901868Y-86402592D01*
X114901866Y-86402595D01*
X114888101Y-86440414D01*
X114842239Y-86566419D01*
X114819505Y-86746374D01*
X114837205Y-86926894D01*
X114894460Y-87099007D01*
X114898107Y-87105029D01*
X114898108Y-87105031D01*
X114983830Y-87246575D01*
X114988422Y-87254158D01*
X115067379Y-87335920D01*
X115100311Y-87398815D01*
X115094012Y-87469531D01*
X115064902Y-87513467D01*
X114952535Y-87623505D01*
X114854277Y-87775972D01*
X114851868Y-87782592D01*
X114851866Y-87782595D01*
X114794648Y-87939800D01*
X114792239Y-87946419D01*
X114769505Y-88126374D01*
X114787205Y-88306894D01*
X114844460Y-88479007D01*
X114938422Y-88634158D01*
X115064424Y-88764636D01*
X115216201Y-88863956D01*
X115319563Y-88902396D01*
X115364734Y-88931396D01*
X116127638Y-89694301D01*
X116161663Y-89756613D01*
X116164542Y-89783396D01*
X116164542Y-92103734D01*
X116144540Y-92171855D01*
X116090884Y-92218348D01*
X116038542Y-92229734D01*
X115857042Y-92229734D01*
X115788921Y-92209732D01*
X115742428Y-92156076D01*
X115731042Y-92103734D01*
X115731042Y-92034849D01*
X115726567Y-92019610D01*
X115725177Y-92018405D01*
X115717494Y-92016734D01*
X114668706Y-92016734D01*
X114622835Y-92006566D01*
X114622438Y-92007656D01*
X114617274Y-92005777D01*
X114612285Y-92003450D01*
X114501707Y-91973820D01*
X114396444Y-91945615D01*
X114396442Y-91945615D01*
X114391129Y-91944191D01*
X114163042Y-91924236D01*
X113934955Y-91944191D01*
X113929642Y-91945615D01*
X113929640Y-91945615D01*
X113824377Y-91973820D01*
X113713799Y-92003450D01*
X113708810Y-92005777D01*
X113703646Y-92007656D01*
X113703249Y-92006566D01*
X113657378Y-92016734D01*
X112533158Y-92016734D01*
X112517919Y-92021209D01*
X112516714Y-92022599D01*
X112515043Y-92030282D01*
X112515043Y-92203234D01*
X112495041Y-92271355D01*
X112441385Y-92317848D01*
X112389043Y-92329234D01*
X111574908Y-92329234D01*
X111512726Y-92335989D01*
X111376337Y-92387119D01*
X111259781Y-92474473D01*
X111254400Y-92481653D01*
X111254399Y-92481654D01*
X111197234Y-92557929D01*
X111140375Y-92600444D01*
X111095890Y-92608363D01*
X110317268Y-92605159D01*
X108633697Y-92598231D01*
X108565661Y-92577949D01*
X108519389Y-92524102D01*
X108508314Y-92477169D01*
X108493785Y-92106680D01*
X108493042Y-92087734D01*
X108150554Y-91624519D01*
X108139022Y-91624545D01*
X108139021Y-91624545D01*
X107465692Y-91626072D01*
X107113698Y-91626870D01*
X107111567Y-91637154D01*
X107111566Y-91637155D01*
X106966733Y-92335989D01*
X106953524Y-92399723D01*
X106954090Y-92408243D01*
X106954090Y-92408244D01*
X107052959Y-93896489D01*
X107053099Y-93898960D01*
X107069835Y-94257119D01*
X107073638Y-94338514D01*
X107087841Y-94345442D01*
X107087842Y-94345443D01*
X107308066Y-94452869D01*
X107483638Y-94538514D01*
X108076540Y-94609969D01*
X108423931Y-94231963D01*
X108435357Y-93960383D01*
X108458205Y-93893163D01*
X108513768Y-93848966D01*
X108561195Y-93839679D01*
X108867502Y-93839555D01*
X111075040Y-93838661D01*
X111143169Y-93858635D01*
X111175917Y-93889096D01*
X111181458Y-93896489D01*
X111259781Y-94000995D01*
X111376337Y-94088349D01*
X111512726Y-94139479D01*
X111574908Y-94146234D01*
X112389042Y-94146234D01*
X112457163Y-94166236D01*
X112503656Y-94219892D01*
X112515042Y-94272234D01*
X112515042Y-94440619D01*
X112519517Y-94455858D01*
X112520907Y-94457063D01*
X112528590Y-94458734D01*
X113657378Y-94458734D01*
X113703249Y-94468902D01*
X113703646Y-94467812D01*
X113708810Y-94469691D01*
X113713799Y-94472018D01*
X113824377Y-94501648D01*
X113929640Y-94529853D01*
X113929642Y-94529853D01*
X113934955Y-94531277D01*
X114163042Y-94551232D01*
X114391129Y-94531277D01*
X114396442Y-94529853D01*
X114396444Y-94529853D01*
X114501707Y-94501648D01*
X114612285Y-94472018D01*
X114617274Y-94469691D01*
X114622438Y-94467812D01*
X114622835Y-94468902D01*
X114668706Y-94458734D01*
X115712926Y-94458734D01*
X115728165Y-94454259D01*
X115729370Y-94452869D01*
X115731041Y-94445186D01*
X115731041Y-94371733D01*
X115751043Y-94303612D01*
X115804699Y-94257119D01*
X115857041Y-94245733D01*
X116038542Y-94245733D01*
X116106663Y-94265735D01*
X116153156Y-94319391D01*
X116164542Y-94371733D01*
X116164542Y-99502880D01*
X116144540Y-99571001D01*
X116090884Y-99617494D01*
X116020610Y-99627598D01*
X115995550Y-99621318D01*
X115973239Y-99613219D01*
X115973230Y-99613216D01*
X115968217Y-99611397D01*
X115962968Y-99610448D01*
X115962965Y-99610447D01*
X115745434Y-99571111D01*
X115745427Y-99571110D01*
X115741350Y-99570373D01*
X115723628Y-99569537D01*
X115718686Y-99569304D01*
X115718679Y-99569304D01*
X115717198Y-99569234D01*
X114755152Y-99569234D01*
X114688233Y-99574912D01*
X114588633Y-99583363D01*
X114588629Y-99583364D01*
X114583322Y-99583814D01*
X114578167Y-99585152D01*
X114578161Y-99585153D01*
X114365339Y-99640391D01*
X114365335Y-99640392D01*
X114360170Y-99641733D01*
X114355304Y-99643925D01*
X114355301Y-99643926D01*
X114269317Y-99682659D01*
X114149967Y-99736422D01*
X113958723Y-99865175D01*
X113791907Y-100024310D01*
X113654288Y-100209276D01*
X113549802Y-100414785D01*
X113481435Y-100634961D01*
X113451144Y-100863508D01*
X113459793Y-101093892D01*
X113507135Y-101319525D01*
X113591818Y-101533955D01*
X113711419Y-101731051D01*
X113714916Y-101735081D01*
X113811052Y-101845868D01*
X113862519Y-101905179D01*
X113866650Y-101908566D01*
X114036669Y-102047974D01*
X114036675Y-102047978D01*
X114040797Y-102051358D01*
X114072292Y-102069286D01*
X114121597Y-102120366D01*
X114135459Y-102189996D01*
X114109476Y-102256067D01*
X114080326Y-102283307D01*
X113958723Y-102365175D01*
X113954866Y-102368854D01*
X113954864Y-102368856D01*
X113899576Y-102421599D01*
X113791907Y-102524310D01*
X113654288Y-102709276D01*
X113549802Y-102914785D01*
X113481435Y-103134961D01*
X113480734Y-103140250D01*
X113454439Y-103338649D01*
X113451144Y-103363508D01*
X113459793Y-103593892D01*
X113507135Y-103819525D01*
X113509093Y-103824484D01*
X113509094Y-103824486D01*
X113567231Y-103971696D01*
X113591818Y-104033955D01*
X113711419Y-104231051D01*
X113714916Y-104235081D01*
X113844267Y-104384145D01*
X113862519Y-104405179D01*
X113890374Y-104428019D01*
X114036669Y-104547974D01*
X114036675Y-104547978D01*
X114040797Y-104551358D01*
X114072292Y-104569286D01*
X114121597Y-104620366D01*
X114135459Y-104689996D01*
X114109476Y-104756067D01*
X114080326Y-104783307D01*
X113958723Y-104865175D01*
X113791907Y-105024310D01*
X113788724Y-105028588D01*
X113732832Y-105103709D01*
X113654288Y-105209276D01*
X113651872Y-105214027D01*
X113651870Y-105214031D01*
X113602045Y-105312031D01*
X113549802Y-105414785D01*
X113481435Y-105634961D01*
X113480734Y-105640250D01*
X113453699Y-105844234D01*
X113451144Y-105863508D01*
X113459793Y-106093892D01*
X113507135Y-106319525D01*
X113509093Y-106324484D01*
X113509094Y-106324486D01*
X113573443Y-106487426D01*
X113591818Y-106533955D01*
X113594585Y-106538514D01*
X113594586Y-106538517D01*
X113643486Y-106619101D01*
X113711419Y-106731051D01*
X113714916Y-106735081D01*
X113857783Y-106899721D01*
X113862519Y-106905179D01*
X113866650Y-106908566D01*
X113898571Y-106934740D01*
X113938566Y-106993400D01*
X113940497Y-107064370D01*
X113903752Y-107125118D01*
X113884983Y-107139318D01*
X113745235Y-107225797D01*
X113733834Y-107234833D01*
X113619303Y-107349563D01*
X113610291Y-107360974D01*
X113525226Y-107498977D01*
X113519079Y-107512158D01*
X113467904Y-107666444D01*
X113465037Y-107679820D01*
X113455370Y-107774172D01*
X113455042Y-107780589D01*
X113455042Y-108155619D01*
X113459517Y-108170858D01*
X113460907Y-108172063D01*
X113468590Y-108173734D01*
X116952926Y-108173734D01*
X116968165Y-108169259D01*
X116969370Y-108167869D01*
X116971041Y-108160186D01*
X116971041Y-107780639D01*
X116970704Y-107774120D01*
X116960785Y-107678528D01*
X116957893Y-107665134D01*
X116906454Y-107510950D01*
X116900281Y-107497772D01*
X116814979Y-107359927D01*
X116805943Y-107348526D01*
X116691213Y-107233995D01*
X116679799Y-107224981D01*
X116540329Y-107139011D01*
X116492835Y-107086239D01*
X116481411Y-107016168D01*
X116509685Y-106951044D01*
X116519472Y-106940581D01*
X116526233Y-106934132D01*
X116634177Y-106831158D01*
X116636202Y-106828436D01*
X116695827Y-106790979D01*
X116730079Y-106786234D01*
X116949638Y-106786234D01*
X117088479Y-106771151D01*
X117265265Y-106711656D01*
X117425151Y-106615587D01*
X117430106Y-106610901D01*
X117430113Y-106610896D01*
X117445501Y-106596344D01*
X117508739Y-106564072D01*
X117579386Y-106571112D01*
X117635011Y-106615229D01*
X117658074Y-106687892D01*
X117658074Y-127203234D01*
X117638072Y-127271355D01*
X117584416Y-127317848D01*
X117532074Y-127329234D01*
X113567994Y-127329234D01*
X113499873Y-127309232D01*
X113453380Y-127255576D01*
X113443276Y-127185302D01*
X113472770Y-127120722D01*
X113478899Y-127114139D01*
X113878613Y-126714425D01*
X113881135Y-126711971D01*
X113949948Y-126646898D01*
X113953628Y-126643418D01*
X114001365Y-126580981D01*
X114005478Y-126575882D01*
X114056417Y-126516030D01*
X114059036Y-126511705D01*
X114059040Y-126511700D01*
X114073438Y-126487926D01*
X114081110Y-126476679D01*
X114101067Y-126450576D01*
X114138194Y-126381334D01*
X114141457Y-126375613D01*
X114179549Y-126312716D01*
X114179550Y-126312715D01*
X114182167Y-126308393D01*
X114194481Y-126277916D01*
X114200250Y-126265600D01*
X114215778Y-126236641D01*
X114241370Y-126162317D01*
X114243665Y-126156179D01*
X114245001Y-126152874D01*
X114273102Y-126083321D01*
X114274390Y-126077654D01*
X114280379Y-126051290D01*
X114284110Y-126038191D01*
X114294809Y-126007119D01*
X114308190Y-125929650D01*
X114309473Y-125923232D01*
X114325762Y-125851536D01*
X114325762Y-125851535D01*
X114326882Y-125846606D01*
X114328946Y-125813797D01*
X114330532Y-125800297D01*
X114336126Y-125767914D01*
X114336306Y-125763954D01*
X114337383Y-125740244D01*
X114337383Y-125740225D01*
X114337447Y-125738825D01*
X114337447Y-125682643D01*
X114337696Y-125674731D01*
X114338898Y-125655635D01*
X114342125Y-125604338D01*
X114338048Y-125562759D01*
X114337447Y-125550463D01*
X114337447Y-124413320D01*
X114357449Y-124345199D01*
X114367493Y-124331657D01*
X114459145Y-124223967D01*
X114459147Y-124223965D01*
X114462423Y-124220115D01*
X114588174Y-124012477D01*
X114679108Y-123787406D01*
X114699679Y-123696861D01*
X114731768Y-123555622D01*
X114731769Y-123555619D01*
X114732888Y-123550691D01*
X114734189Y-123530022D01*
X114747813Y-123313477D01*
X114748131Y-123308423D01*
X114745171Y-123278235D01*
X114758430Y-123208487D01*
X114773203Y-123185967D01*
X114782940Y-123174113D01*
X114876400Y-122999811D01*
X114934225Y-122810676D01*
X114942958Y-122724703D01*
X114953589Y-122620039D01*
X114953589Y-122620035D01*
X114954211Y-122613911D01*
X114935599Y-122417012D01*
X114923184Y-122375365D01*
X114880856Y-122233382D01*
X114879096Y-122227478D01*
X114786855Y-122052527D01*
X114780706Y-122044933D01*
X114666269Y-121903616D01*
X114666268Y-121903615D01*
X114662390Y-121898826D01*
X114648517Y-121887268D01*
X114515172Y-121776168D01*
X114515167Y-121776165D01*
X114510441Y-121772227D01*
X114336796Y-121677552D01*
X114148069Y-121618409D01*
X114141946Y-121617744D01*
X114141942Y-121617743D01*
X113957574Y-121597714D01*
X113957570Y-121597714D01*
X113951449Y-121597049D01*
X113754424Y-121614287D01*
X113564501Y-121669465D01*
X113388911Y-121760482D01*
X113384092Y-121764329D01*
X113340791Y-121798896D01*
X113275075Y-121825764D01*
X113258670Y-121826376D01*
X113193093Y-121824544D01*
X113160803Y-121823642D01*
X113160801Y-121823642D01*
X113155748Y-121823501D01*
X113150735Y-121824170D01*
X113150733Y-121824170D01*
X112938479Y-121852491D01*
X112915133Y-121855606D01*
X112910292Y-121857068D01*
X112910290Y-121857068D01*
X112687596Y-121924303D01*
X112687592Y-121924305D01*
X112682745Y-121925768D01*
X112464565Y-122032181D01*
X112266206Y-122172109D01*
X112244703Y-122191744D01*
X111779281Y-122657166D01*
X111776759Y-122659620D01*
X111710923Y-122721878D01*
X111704266Y-122728173D01*
X111701199Y-122732185D01*
X111656539Y-122790598D01*
X111652395Y-122795733D01*
X111601477Y-122855561D01*
X111598858Y-122859886D01*
X111598854Y-122859891D01*
X111584456Y-122883665D01*
X111576784Y-122894912D01*
X111556827Y-122921015D01*
X111554437Y-122925473D01*
X111554436Y-122925474D01*
X111519708Y-122990242D01*
X111516443Y-122995967D01*
X111475726Y-123063199D01*
X111473831Y-123067890D01*
X111463420Y-123093658D01*
X111457640Y-123105999D01*
X111442116Y-123134950D01*
X111440470Y-123139731D01*
X111440468Y-123139735D01*
X111416535Y-123209242D01*
X111414225Y-123215420D01*
X111384792Y-123288270D01*
X111379065Y-123313477D01*
X111377515Y-123320301D01*
X111373784Y-123333400D01*
X111363085Y-123364472D01*
X111349704Y-123441941D01*
X111348424Y-123448345D01*
X111331012Y-123524985D01*
X111328948Y-123557794D01*
X111327362Y-123571294D01*
X111321768Y-123603677D01*
X111321588Y-123607634D01*
X111321588Y-123607637D01*
X111321280Y-123614431D01*
X111320447Y-123632766D01*
X111320447Y-123688949D01*
X111320198Y-123696860D01*
X111315769Y-123767254D01*
X111316263Y-123772289D01*
X111319846Y-123808833D01*
X111320447Y-123821129D01*
X111320447Y-124563234D01*
X111300445Y-124631355D01*
X111246789Y-124677848D01*
X111194447Y-124689234D01*
X96727718Y-124689234D01*
X96659597Y-124669232D01*
X96638623Y-124652329D01*
X96485762Y-124499468D01*
X96451736Y-124437156D01*
X96448857Y-124410373D01*
X96448857Y-121767759D01*
X96448906Y-121764241D01*
X96451550Y-121669593D01*
X96451550Y-121669590D01*
X96451691Y-121664538D01*
X96441298Y-121586645D01*
X96440598Y-121580096D01*
X96434703Y-121506820D01*
X96434702Y-121506816D01*
X96434297Y-121501778D01*
X96426458Y-121469865D01*
X96423930Y-121456481D01*
X96420255Y-121428937D01*
X96419586Y-121423923D01*
X96417415Y-121416733D01*
X96396879Y-121348714D01*
X96395138Y-121342351D01*
X96377601Y-121270952D01*
X96376394Y-121266037D01*
X96363556Y-121235791D01*
X96358918Y-121222980D01*
X96349424Y-121191535D01*
X96347206Y-121186987D01*
X96347203Y-121186980D01*
X96314986Y-121120925D01*
X96312250Y-121114923D01*
X96285221Y-121051247D01*
X96281545Y-121042587D01*
X96264038Y-121014787D01*
X96257409Y-121002877D01*
X96243011Y-120973355D01*
X96197714Y-120909143D01*
X96194056Y-120903657D01*
X96154886Y-120841457D01*
X96154885Y-120841456D01*
X96152190Y-120837176D01*
X96148849Y-120833387D01*
X96148845Y-120833381D01*
X96130459Y-120812526D01*
X96122013Y-120801831D01*
X96105366Y-120778233D01*
X96103083Y-120774996D01*
X96099851Y-120771456D01*
X96084419Y-120754556D01*
X96084411Y-120754548D01*
X96083448Y-120753493D01*
X96043732Y-120713777D01*
X96038313Y-120708007D01*
X95995007Y-120658885D01*
X95995004Y-120658882D01*
X95991659Y-120655088D01*
X95959368Y-120628564D01*
X95950249Y-120620294D01*
X95167479Y-119837524D01*
X95133453Y-119775212D01*
X95130574Y-119748429D01*
X95130574Y-115584813D01*
X95150576Y-115516692D01*
X95155748Y-115509248D01*
X95182482Y-115473577D01*
X95222689Y-115419929D01*
X95243121Y-115365428D01*
X97645225Y-115365428D01*
X97649794Y-115371959D01*
X97862810Y-115502495D01*
X97871604Y-115506976D01*
X98103566Y-115603058D01*
X98112951Y-115606107D01*
X98357091Y-115664720D01*
X98366838Y-115666263D01*
X98617144Y-115685963D01*
X98627004Y-115685963D01*
X98877310Y-115666263D01*
X98887057Y-115664720D01*
X99131197Y-115606107D01*
X99140582Y-115603058D01*
X99372544Y-115506976D01*
X99381338Y-115502495D01*
X99592949Y-115372820D01*
X99598996Y-115363554D01*
X99592989Y-115353349D01*
X98634886Y-114395246D01*
X98620942Y-114387632D01*
X98619109Y-114387763D01*
X98612494Y-114392014D01*
X97652618Y-115351890D01*
X97645225Y-115365428D01*
X95243121Y-115365428D01*
X95273819Y-115283540D01*
X95280574Y-115221358D01*
X95280574Y-114028154D01*
X96959335Y-114028154D01*
X96979035Y-114278460D01*
X96980578Y-114288207D01*
X97039191Y-114532347D01*
X97042240Y-114541732D01*
X97138322Y-114773694D01*
X97142803Y-114782488D01*
X97272478Y-114994099D01*
X97281744Y-115000146D01*
X97291949Y-114994139D01*
X98250052Y-114036036D01*
X98256430Y-114024356D01*
X98986482Y-114024356D01*
X98986613Y-114026189D01*
X98990864Y-114032804D01*
X99950740Y-114992680D01*
X99964278Y-115000073D01*
X99970809Y-114995504D01*
X100101345Y-114782488D01*
X100105826Y-114773694D01*
X100201908Y-114541732D01*
X100204957Y-114532347D01*
X100263570Y-114288207D01*
X100265113Y-114278460D01*
X100281018Y-114076374D01*
X100769505Y-114076374D01*
X100787205Y-114256894D01*
X100789429Y-114263579D01*
X100818100Y-114349767D01*
X100824542Y-114389539D01*
X100824542Y-115170664D01*
X100823109Y-115189614D01*
X100819843Y-115211083D01*
X100820436Y-115218375D01*
X100820436Y-115218378D01*
X100824127Y-115263752D01*
X100824542Y-115273967D01*
X100824542Y-115282027D01*
X100824967Y-115285671D01*
X100827831Y-115310241D01*
X100828264Y-115314616D01*
X100832245Y-115363554D01*
X100834182Y-115387371D01*
X100836438Y-115394335D01*
X100837629Y-115400294D01*
X100839013Y-115406149D01*
X100839860Y-115413415D01*
X100864777Y-115482061D01*
X100866194Y-115486189D01*
X100883644Y-115540053D01*
X100888691Y-115555633D01*
X100892487Y-115561888D01*
X100894993Y-115567362D01*
X100897712Y-115572792D01*
X100900209Y-115579671D01*
X100904222Y-115585791D01*
X100904222Y-115585792D01*
X100940228Y-115640710D01*
X100942565Y-115644414D01*
X100980447Y-115706841D01*
X100984163Y-115711049D01*
X100984164Y-115711050D01*
X100987845Y-115715218D01*
X100987818Y-115715242D01*
X100990471Y-115718234D01*
X100993174Y-115721467D01*
X100997186Y-115727586D01*
X101002498Y-115732618D01*
X101053425Y-115780862D01*
X101055867Y-115783240D01*
X102139272Y-116866645D01*
X102151658Y-116881057D01*
X102160191Y-116892652D01*
X102160196Y-116892657D01*
X102164534Y-116898552D01*
X102170112Y-116903291D01*
X102170115Y-116903294D01*
X102204810Y-116932769D01*
X102212326Y-116939699D01*
X102218021Y-116945394D01*
X102220903Y-116947674D01*
X102240293Y-116963015D01*
X102243697Y-116965806D01*
X102293745Y-117008325D01*
X102299327Y-117013067D01*
X102305843Y-117016395D01*
X102310880Y-117019754D01*
X102316019Y-117022928D01*
X102321758Y-117027468D01*
X102328391Y-117030568D01*
X102387879Y-117058370D01*
X102391833Y-117060303D01*
X102456850Y-117093503D01*
X102463966Y-117095244D01*
X102469596Y-117097338D01*
X102475363Y-117099257D01*
X102481992Y-117102355D01*
X102489152Y-117103844D01*
X102489154Y-117103845D01*
X102553438Y-117117216D01*
X102557722Y-117118186D01*
X102628652Y-117135542D01*
X102634254Y-117135890D01*
X102634257Y-117135890D01*
X102639806Y-117136234D01*
X102639804Y-117136270D01*
X102643794Y-117136509D01*
X102647992Y-117136884D01*
X102655157Y-117138374D01*
X102732562Y-117136280D01*
X102735970Y-117136234D01*
X104170324Y-117136234D01*
X104214244Y-117144137D01*
X104269600Y-117164724D01*
X104269602Y-117164725D01*
X104276210Y-117167182D01*
X104360037Y-117178367D01*
X104449022Y-117190241D01*
X104449026Y-117190241D01*
X104456003Y-117191172D01*
X104463014Y-117190534D01*
X104463018Y-117190534D01*
X104605501Y-117177566D01*
X104636642Y-117174732D01*
X104643344Y-117172554D01*
X104643346Y-117172554D01*
X104802451Y-117120858D01*
X104802454Y-117120857D01*
X104809150Y-117118681D01*
X104964954Y-117025803D01*
X105096308Y-116900716D01*
X105196685Y-116749636D01*
X105261097Y-116580072D01*
X105286341Y-116400451D01*
X105286658Y-116377734D01*
X105266439Y-116197479D01*
X105206787Y-116026182D01*
X105197118Y-116010708D01*
X105114401Y-115878332D01*
X105110668Y-115872358D01*
X105105707Y-115867362D01*
X105105702Y-115867356D01*
X105079310Y-115840779D01*
X105045503Y-115778349D01*
X105050815Y-115707551D01*
X105093560Y-115650864D01*
X105160167Y-115626286D01*
X105168716Y-115625996D01*
X105756768Y-115625996D01*
X105818950Y-115619241D01*
X105955339Y-115568111D01*
X106071895Y-115480757D01*
X106159249Y-115364201D01*
X106179681Y-115309700D01*
X108581785Y-115309700D01*
X108586354Y-115316231D01*
X108799370Y-115446767D01*
X108808164Y-115451248D01*
X109040126Y-115547330D01*
X109049511Y-115550379D01*
X109293651Y-115608992D01*
X109303398Y-115610535D01*
X109553704Y-115630235D01*
X109563564Y-115630235D01*
X109813870Y-115610535D01*
X109823617Y-115608992D01*
X110067757Y-115550379D01*
X110077142Y-115547330D01*
X110309104Y-115451248D01*
X110317898Y-115446767D01*
X110529509Y-115317092D01*
X110535556Y-115307826D01*
X110529549Y-115297621D01*
X109571446Y-114339518D01*
X109557502Y-114331904D01*
X109555669Y-114332035D01*
X109549054Y-114336286D01*
X108589178Y-115296162D01*
X108581785Y-115309700D01*
X106179681Y-115309700D01*
X106210379Y-115227812D01*
X106217134Y-115165630D01*
X106217134Y-113972426D01*
X107895895Y-113972426D01*
X107915595Y-114222732D01*
X107917138Y-114232479D01*
X107975751Y-114476619D01*
X107978800Y-114486004D01*
X108074882Y-114717966D01*
X108079363Y-114726760D01*
X108209038Y-114938371D01*
X108218304Y-114944418D01*
X108228509Y-114938411D01*
X109186612Y-113980308D01*
X109192990Y-113968628D01*
X109923042Y-113968628D01*
X109923173Y-113970461D01*
X109927424Y-113977076D01*
X110887300Y-114936952D01*
X110900838Y-114944345D01*
X110907369Y-114939776D01*
X111037905Y-114726760D01*
X111042386Y-114717966D01*
X111138468Y-114486004D01*
X111141517Y-114476619D01*
X111200130Y-114232479D01*
X111201673Y-114222732D01*
X111203940Y-114193934D01*
X112411839Y-114193934D01*
X112470159Y-114436857D01*
X112473208Y-114446242D01*
X112569290Y-114678204D01*
X112573771Y-114686998D01*
X112704962Y-114901082D01*
X112710754Y-114909055D01*
X112873826Y-115099986D01*
X112880790Y-115106950D01*
X113071721Y-115270022D01*
X113079694Y-115275814D01*
X113293778Y-115407005D01*
X113302572Y-115411486D01*
X113534534Y-115507568D01*
X113543919Y-115510617D01*
X113788059Y-115569230D01*
X113797806Y-115570773D01*
X113985441Y-115585541D01*
X113990367Y-115585734D01*
X114280927Y-115585734D01*
X114296166Y-115581259D01*
X114297371Y-115579869D01*
X114299042Y-115572186D01*
X114299042Y-115567619D01*
X114807042Y-115567619D01*
X114811517Y-115582858D01*
X114812907Y-115584063D01*
X114820590Y-115585734D01*
X115115717Y-115585734D01*
X115120643Y-115585541D01*
X115308278Y-115570773D01*
X115318025Y-115569230D01*
X115562165Y-115510617D01*
X115571550Y-115507568D01*
X115803512Y-115411486D01*
X115812306Y-115407005D01*
X116026390Y-115275814D01*
X116034363Y-115270022D01*
X116225294Y-115106950D01*
X116232258Y-115099986D01*
X116395330Y-114909055D01*
X116401122Y-114901082D01*
X116532313Y-114686998D01*
X116536794Y-114678204D01*
X116632876Y-114446242D01*
X116635925Y-114436857D01*
X116693862Y-114195532D01*
X116691588Y-114184704D01*
X116680124Y-114181734D01*
X114825157Y-114181734D01*
X114809918Y-114186209D01*
X114808713Y-114187599D01*
X114807042Y-114195282D01*
X114807042Y-115567619D01*
X114299042Y-115567619D01*
X114299042Y-114199849D01*
X114294567Y-114184610D01*
X114293177Y-114183405D01*
X114285494Y-114181734D01*
X112428020Y-114181734D01*
X112413227Y-114186078D01*
X112411839Y-114193934D01*
X111203940Y-114193934D01*
X111221373Y-113972426D01*
X111221373Y-113962566D01*
X111201673Y-113712260D01*
X111200130Y-113702513D01*
X111141517Y-113458373D01*
X111138468Y-113448988D01*
X111042386Y-113217026D01*
X111037905Y-113208232D01*
X110908230Y-112996621D01*
X110898964Y-112990574D01*
X110888759Y-112996581D01*
X109930656Y-113954684D01*
X109923042Y-113968628D01*
X109192990Y-113968628D01*
X109194226Y-113966364D01*
X109194095Y-113964531D01*
X109189844Y-113957916D01*
X108229968Y-112998040D01*
X108216430Y-112990647D01*
X108209899Y-112995216D01*
X108079363Y-113208232D01*
X108074882Y-113217026D01*
X107978800Y-113448988D01*
X107975751Y-113458373D01*
X107917138Y-113702513D01*
X107915595Y-113712260D01*
X107895895Y-113962566D01*
X107895895Y-113972426D01*
X106217134Y-113972426D01*
X106217134Y-112769362D01*
X106210379Y-112707180D01*
X106180383Y-112627166D01*
X108581712Y-112627166D01*
X108587719Y-112637371D01*
X109545822Y-113595474D01*
X109559766Y-113603088D01*
X109561599Y-113602957D01*
X109568214Y-113598706D01*
X110528090Y-112638830D01*
X110535483Y-112625292D01*
X110530914Y-112618761D01*
X110317898Y-112488225D01*
X110309104Y-112483744D01*
X110077142Y-112387662D01*
X110067757Y-112384613D01*
X109823617Y-112326000D01*
X109813870Y-112324457D01*
X109563564Y-112304757D01*
X109553704Y-112304757D01*
X109303398Y-112324457D01*
X109293651Y-112326000D01*
X109049511Y-112384613D01*
X109040126Y-112387662D01*
X108808164Y-112483744D01*
X108799370Y-112488225D01*
X108587759Y-112617900D01*
X108581712Y-112627166D01*
X106180383Y-112627166D01*
X106159249Y-112570791D01*
X106071895Y-112454235D01*
X105955339Y-112366881D01*
X105818950Y-112315751D01*
X105756768Y-112308996D01*
X103360500Y-112308996D01*
X103298318Y-112315751D01*
X103161929Y-112366881D01*
X103045373Y-112454235D01*
X102958019Y-112570791D01*
X102906889Y-112707180D01*
X102900134Y-112769362D01*
X102900134Y-115165630D01*
X102900502Y-115169014D01*
X102900655Y-115171845D01*
X102884368Y-115240948D01*
X102833306Y-115290275D01*
X102763682Y-115304166D01*
X102697600Y-115278210D01*
X102685745Y-115267756D01*
X102378447Y-114960458D01*
X102344421Y-114898146D01*
X102341542Y-114871363D01*
X102341542Y-114391001D01*
X102349754Y-114346257D01*
X102368597Y-114296654D01*
X102368598Y-114296652D01*
X102371097Y-114290072D01*
X102376745Y-114249885D01*
X102395790Y-114114373D01*
X102395790Y-114114370D01*
X102396341Y-114110451D01*
X102396658Y-114087734D01*
X102376439Y-113907479D01*
X102374122Y-113900825D01*
X102319106Y-113742840D01*
X102319104Y-113742837D01*
X102316787Y-113736182D01*
X102298813Y-113707417D01*
X102224401Y-113588332D01*
X102220668Y-113582358D01*
X102206983Y-113568577D01*
X102097820Y-113458649D01*
X102097816Y-113458646D01*
X102092857Y-113453652D01*
X102081739Y-113446596D01*
X102022853Y-113409226D01*
X101939708Y-113356461D01*
X101910505Y-113346062D01*
X101775467Y-113297977D01*
X101775462Y-113297976D01*
X101768832Y-113295615D01*
X101761844Y-113294782D01*
X101761841Y-113294781D01*
X101638740Y-113280102D01*
X101588722Y-113274138D01*
X101581719Y-113274874D01*
X101581718Y-113274874D01*
X101415330Y-113292362D01*
X101415328Y-113292363D01*
X101408330Y-113293098D01*
X101236621Y-113351552D01*
X101230617Y-113355246D01*
X101088137Y-113442900D01*
X101088134Y-113442902D01*
X101082130Y-113446596D01*
X101077095Y-113451527D01*
X101077092Y-113451529D01*
X100957567Y-113568577D01*
X100952535Y-113573505D01*
X100854277Y-113725972D01*
X100851868Y-113732592D01*
X100851866Y-113732595D01*
X100833633Y-113782690D01*
X100792239Y-113896419D01*
X100769505Y-114076374D01*
X100281018Y-114076374D01*
X100284813Y-114028154D01*
X100284813Y-114018294D01*
X100265113Y-113767988D01*
X100263570Y-113758241D01*
X100204957Y-113514101D01*
X100201908Y-113504716D01*
X100105826Y-113272754D01*
X100101345Y-113263960D01*
X99971670Y-113052349D01*
X99962404Y-113046302D01*
X99952199Y-113052309D01*
X98994096Y-114010412D01*
X98986482Y-114024356D01*
X98256430Y-114024356D01*
X98257666Y-114022092D01*
X98257535Y-114020259D01*
X98253284Y-114013644D01*
X97293408Y-113053768D01*
X97279870Y-113046375D01*
X97273339Y-113050944D01*
X97142803Y-113263960D01*
X97138322Y-113272754D01*
X97042240Y-113504716D01*
X97039191Y-113514101D01*
X96980578Y-113758241D01*
X96979035Y-113767988D01*
X96959335Y-114018294D01*
X96959335Y-114028154D01*
X95280574Y-114028154D01*
X95280574Y-112951312D01*
X95300576Y-112883191D01*
X95354232Y-112836698D01*
X95406574Y-112825312D01*
X95742175Y-112825312D01*
X95811168Y-112845880D01*
X95921431Y-112918034D01*
X95928035Y-112920490D01*
X95928037Y-112920491D01*
X96084830Y-112978802D01*
X96084832Y-112978802D01*
X96091440Y-112981260D01*
X96161244Y-112990574D01*
X96264252Y-113004319D01*
X96264256Y-113004319D01*
X96271233Y-113005250D01*
X96278244Y-113004612D01*
X96278248Y-113004612D01*
X96431687Y-112990647D01*
X96451872Y-112988810D01*
X96458574Y-112986632D01*
X96458576Y-112986632D01*
X96617681Y-112934936D01*
X96617684Y-112934935D01*
X96624380Y-112932759D01*
X96780184Y-112839881D01*
X96911538Y-112714794D01*
X96932732Y-112682894D01*
X97645152Y-112682894D01*
X97651159Y-112693099D01*
X98609262Y-113651202D01*
X98623206Y-113658816D01*
X98625039Y-113658685D01*
X98631654Y-113654434D01*
X99591530Y-112694558D01*
X99598923Y-112681020D01*
X99594354Y-112674489D01*
X99381338Y-112543953D01*
X99372544Y-112539472D01*
X99140582Y-112443390D01*
X99131197Y-112440341D01*
X98887057Y-112381728D01*
X98877310Y-112380185D01*
X98627004Y-112360485D01*
X98617144Y-112360485D01*
X98366838Y-112380185D01*
X98357091Y-112381728D01*
X98112951Y-112440341D01*
X98103566Y-112443390D01*
X97871604Y-112539472D01*
X97862810Y-112543953D01*
X97651199Y-112673628D01*
X97645152Y-112682894D01*
X96932732Y-112682894D01*
X97011915Y-112563714D01*
X97059524Y-112438384D01*
X97073827Y-112400732D01*
X97073828Y-112400730D01*
X97076327Y-112394150D01*
X97079123Y-112374253D01*
X97101020Y-112218451D01*
X97101020Y-112218448D01*
X97101571Y-112214529D01*
X97101888Y-112191812D01*
X97081669Y-112011557D01*
X97022017Y-111840260D01*
X96925898Y-111686436D01*
X96920936Y-111681439D01*
X96803050Y-111562727D01*
X96803046Y-111562724D01*
X96798087Y-111557730D01*
X96786969Y-111550674D01*
X96728081Y-111513303D01*
X96644938Y-111460539D01*
X96615735Y-111450140D01*
X96480697Y-111402055D01*
X96480692Y-111402054D01*
X96474062Y-111399693D01*
X96467074Y-111398860D01*
X96467071Y-111398859D01*
X96343970Y-111384180D01*
X96293952Y-111378216D01*
X96286949Y-111378952D01*
X96286948Y-111378952D01*
X96120560Y-111396440D01*
X96120558Y-111396441D01*
X96113560Y-111397176D01*
X95941851Y-111455630D01*
X95805311Y-111539631D01*
X95739291Y-111558312D01*
X93801715Y-111558312D01*
X93733594Y-111538310D01*
X93712620Y-111521407D01*
X93185147Y-110993934D01*
X112381839Y-110993934D01*
X112440159Y-111236857D01*
X112443208Y-111246242D01*
X112539290Y-111478204D01*
X112543771Y-111486998D01*
X112674962Y-111701082D01*
X112680754Y-111709055D01*
X112843826Y-111899986D01*
X112850790Y-111906950D01*
X113041721Y-112070022D01*
X113049694Y-112075814D01*
X113263778Y-112207005D01*
X113272570Y-112211484D01*
X113288298Y-112217999D01*
X113343580Y-112262547D01*
X113366002Y-112329910D01*
X113348445Y-112398701D01*
X113297286Y-112446675D01*
X113293784Y-112448460D01*
X113079694Y-112579654D01*
X113071721Y-112585446D01*
X112880790Y-112748518D01*
X112873826Y-112755482D01*
X112710754Y-112946413D01*
X112704962Y-112954386D01*
X112573771Y-113168470D01*
X112569290Y-113177264D01*
X112473208Y-113409226D01*
X112470159Y-113418611D01*
X112412222Y-113659936D01*
X112414496Y-113670764D01*
X112425960Y-113673734D01*
X114280927Y-113673734D01*
X114296166Y-113669259D01*
X114297371Y-113667869D01*
X114299042Y-113660186D01*
X114299042Y-112443849D01*
X114287871Y-112405805D01*
X114274147Y-112384450D01*
X114269042Y-112348950D01*
X114269042Y-112211619D01*
X114777042Y-112211619D01*
X114788213Y-112249663D01*
X114801937Y-112271018D01*
X114807042Y-112306518D01*
X114807042Y-113655619D01*
X114811517Y-113670858D01*
X114812907Y-113672063D01*
X114820590Y-113673734D01*
X116678064Y-113673734D01*
X116692857Y-113669390D01*
X116694245Y-113661534D01*
X116635925Y-113418611D01*
X116632876Y-113409226D01*
X116536794Y-113177264D01*
X116532313Y-113168470D01*
X116401122Y-112954386D01*
X116395330Y-112946413D01*
X116232258Y-112755482D01*
X116225294Y-112748518D01*
X116034363Y-112585446D01*
X116026390Y-112579654D01*
X115812306Y-112448463D01*
X115803514Y-112443984D01*
X115787786Y-112437469D01*
X115732504Y-112392921D01*
X115710082Y-112325558D01*
X115727639Y-112256767D01*
X115778798Y-112208793D01*
X115782300Y-112207008D01*
X115996390Y-112075814D01*
X116004363Y-112070022D01*
X116195294Y-111906950D01*
X116202258Y-111899986D01*
X116365330Y-111709055D01*
X116371122Y-111701082D01*
X116502313Y-111486998D01*
X116506794Y-111478204D01*
X116602876Y-111246242D01*
X116605925Y-111236857D01*
X116663862Y-110995532D01*
X116661588Y-110984704D01*
X116650124Y-110981734D01*
X114795157Y-110981734D01*
X114779918Y-110986209D01*
X114778713Y-110987599D01*
X114777042Y-110995282D01*
X114777042Y-112211619D01*
X114269042Y-112211619D01*
X114269042Y-110999849D01*
X114264567Y-110984610D01*
X114263177Y-110983405D01*
X114255494Y-110981734D01*
X112398020Y-110981734D01*
X112383227Y-110986078D01*
X112381839Y-110993934D01*
X93185147Y-110993934D01*
X92651149Y-110459936D01*
X112382222Y-110459936D01*
X112384496Y-110470764D01*
X112395960Y-110473734D01*
X116648064Y-110473734D01*
X116662857Y-110469390D01*
X116664245Y-110461534D01*
X116605925Y-110218611D01*
X116602876Y-110209226D01*
X116506794Y-109977264D01*
X116502313Y-109968470D01*
X116463989Y-109905931D01*
X116445451Y-109837397D01*
X116466907Y-109769721D01*
X116521547Y-109724388D01*
X116528873Y-109721593D01*
X116543004Y-109714973D01*
X116680849Y-109629671D01*
X116692250Y-109620635D01*
X116806781Y-109505905D01*
X116815793Y-109494494D01*
X116900858Y-109356491D01*
X116907005Y-109343310D01*
X116958180Y-109189024D01*
X116961047Y-109175648D01*
X116970714Y-109081296D01*
X116971042Y-109074880D01*
X116971042Y-108699849D01*
X116966567Y-108684610D01*
X116965177Y-108683405D01*
X116957494Y-108681734D01*
X113473158Y-108681734D01*
X113457919Y-108686209D01*
X113456714Y-108687599D01*
X113455043Y-108695282D01*
X113455043Y-109074841D01*
X113455184Y-109077563D01*
X113438733Y-109146628D01*
X113387554Y-109195834D01*
X113377571Y-109200490D01*
X113272573Y-109243982D01*
X113263778Y-109248463D01*
X113049694Y-109379654D01*
X113041721Y-109385446D01*
X112850790Y-109548518D01*
X112843826Y-109555482D01*
X112680754Y-109746413D01*
X112674962Y-109754386D01*
X112543771Y-109968470D01*
X112539290Y-109977264D01*
X112443208Y-110209226D01*
X112440159Y-110218611D01*
X112382222Y-110459936D01*
X92651149Y-110459936D01*
X92433447Y-110242234D01*
X92399421Y-110179922D01*
X92396542Y-110153139D01*
X92396542Y-106186501D01*
X92397069Y-106175318D01*
X92398744Y-106167825D01*
X92396604Y-106099748D01*
X92396542Y-106095789D01*
X92396542Y-106067878D01*
X92396037Y-106063878D01*
X92395104Y-106052035D01*
X92393964Y-106015763D01*
X92393715Y-106007844D01*
X92388064Y-105988392D01*
X92384056Y-105969040D01*
X92382509Y-105956797D01*
X92381516Y-105948937D01*
X92378598Y-105941566D01*
X92365242Y-105907831D01*
X92361397Y-105896604D01*
X92351781Y-105863508D01*
X92349060Y-105854141D01*
X92338749Y-105836706D01*
X92330054Y-105818958D01*
X92322594Y-105800117D01*
X92296606Y-105764347D01*
X92290090Y-105754427D01*
X92271622Y-105723199D01*
X92271620Y-105723196D01*
X92267584Y-105716372D01*
X92253263Y-105702051D01*
X92240422Y-105687017D01*
X92233173Y-105677040D01*
X92228514Y-105670627D01*
X92194437Y-105642436D01*
X92185658Y-105634446D01*
X90297542Y-103746329D01*
X90263516Y-103684017D01*
X90268581Y-103613201D01*
X90311128Y-103556366D01*
X90377648Y-103531555D01*
X90386637Y-103531234D01*
X95158448Y-103531234D01*
X95226569Y-103551236D01*
X95247543Y-103568139D01*
X95707792Y-104028388D01*
X95741818Y-104090700D01*
X95744096Y-104105187D01*
X95747205Y-104136894D01*
X95804460Y-104309007D01*
X95808107Y-104315029D01*
X95808108Y-104315031D01*
X95876536Y-104428019D01*
X95898422Y-104464158D01*
X95903311Y-104469221D01*
X95903312Y-104469222D01*
X95979363Y-104547974D01*
X96024424Y-104594636D01*
X96062284Y-104619411D01*
X96170246Y-104690059D01*
X96176201Y-104693956D01*
X96182805Y-104696412D01*
X96182807Y-104696413D01*
X96339600Y-104754724D01*
X96339602Y-104754724D01*
X96346210Y-104757182D01*
X96430037Y-104768367D01*
X96519022Y-104780241D01*
X96519026Y-104780241D01*
X96526003Y-104781172D01*
X96533014Y-104780534D01*
X96533018Y-104780534D01*
X96675501Y-104767566D01*
X96706642Y-104764732D01*
X96713344Y-104762554D01*
X96713346Y-104762554D01*
X96872451Y-104710858D01*
X96872454Y-104710857D01*
X96879150Y-104708681D01*
X96975555Y-104651212D01*
X97028902Y-104619411D01*
X97028904Y-104619410D01*
X97034954Y-104615803D01*
X97166308Y-104490716D01*
X97266685Y-104339636D01*
X97331097Y-104170072D01*
X97333083Y-104155942D01*
X97355790Y-103994373D01*
X97355790Y-103994370D01*
X97356341Y-103990451D01*
X97356658Y-103967734D01*
X97336439Y-103787479D01*
X97276787Y-103616182D01*
X97180668Y-103462358D01*
X97175706Y-103457361D01*
X97057820Y-103338649D01*
X97057816Y-103338646D01*
X97052857Y-103333652D01*
X96899708Y-103236461D01*
X96728832Y-103175615D01*
X96679049Y-103169679D01*
X96613776Y-103141752D01*
X96604872Y-103133660D01*
X95976689Y-102505476D01*
X95969155Y-102497197D01*
X95965042Y-102490716D01*
X95915390Y-102444090D01*
X95912549Y-102441336D01*
X95892812Y-102421599D01*
X95889615Y-102419119D01*
X95880593Y-102411414D01*
X95854142Y-102386575D01*
X95848363Y-102381148D01*
X95841417Y-102377329D01*
X95841414Y-102377327D01*
X95830608Y-102371386D01*
X95814089Y-102360535D01*
X95813625Y-102360175D01*
X95798083Y-102348120D01*
X95790814Y-102344975D01*
X95790810Y-102344972D01*
X95757505Y-102330560D01*
X95746855Y-102325343D01*
X95708102Y-102304039D01*
X95688479Y-102299001D01*
X95669776Y-102292597D01*
X95658462Y-102287701D01*
X95658461Y-102287701D01*
X95651187Y-102284553D01*
X95643364Y-102283314D01*
X95643354Y-102283311D01*
X95607518Y-102277635D01*
X95595898Y-102275229D01*
X95560753Y-102266206D01*
X95560752Y-102266206D01*
X95553072Y-102264234D01*
X95532818Y-102264234D01*
X95513107Y-102262683D01*
X95500928Y-102260754D01*
X95493099Y-102259514D01*
X95485207Y-102260260D01*
X95449081Y-102263675D01*
X95437223Y-102264234D01*
X91395820Y-102264234D01*
X91327699Y-102244232D01*
X91281206Y-102190576D01*
X91271102Y-102120302D01*
X91294995Y-102062668D01*
X91303271Y-102051626D01*
X91303272Y-102051624D01*
X91308657Y-102044439D01*
X91359787Y-101908050D01*
X91366542Y-101845868D01*
X100439542Y-101845868D01*
X100446297Y-101908050D01*
X100497427Y-102044439D01*
X100584781Y-102160995D01*
X100701337Y-102248349D01*
X100837726Y-102299479D01*
X100899908Y-102306234D01*
X103606176Y-102306234D01*
X103668358Y-102299479D01*
X103804747Y-102248349D01*
X103921303Y-102160995D01*
X104008657Y-102044439D01*
X104059787Y-101908050D01*
X104066542Y-101845868D01*
X104066542Y-99749600D01*
X104059787Y-99687418D01*
X104008657Y-99551029D01*
X103921303Y-99434473D01*
X103804747Y-99347119D01*
X103668358Y-99295989D01*
X103606176Y-99289234D01*
X100899908Y-99289234D01*
X100837726Y-99295989D01*
X100701337Y-99347119D01*
X100584781Y-99434473D01*
X100497427Y-99551029D01*
X100446297Y-99687418D01*
X100439542Y-99749600D01*
X100439542Y-101845868D01*
X91366542Y-101845868D01*
X91366542Y-99749600D01*
X91359787Y-99687418D01*
X91308657Y-99551029D01*
X91221303Y-99434473D01*
X91104747Y-99347119D01*
X90968358Y-99295989D01*
X90906176Y-99289234D01*
X88552542Y-99289234D01*
X88484421Y-99269232D01*
X88437928Y-99215576D01*
X88426542Y-99163234D01*
X88426542Y-95282403D01*
X112515043Y-95282403D01*
X112515413Y-95289224D01*
X112520937Y-95340086D01*
X112524563Y-95355338D01*
X112569718Y-95475788D01*
X112578256Y-95491383D01*
X112654757Y-95593458D01*
X112667318Y-95606019D01*
X112769393Y-95682520D01*
X112784988Y-95691058D01*
X112905436Y-95736212D01*
X112920691Y-95739839D01*
X112971556Y-95745365D01*
X112978370Y-95745734D01*
X113850927Y-95745734D01*
X113866166Y-95741259D01*
X113867371Y-95739869D01*
X113869042Y-95732186D01*
X113869042Y-95727618D01*
X114377042Y-95727618D01*
X114381517Y-95742857D01*
X114382907Y-95744062D01*
X114390590Y-95745733D01*
X115267711Y-95745733D01*
X115274532Y-95745363D01*
X115325394Y-95739839D01*
X115340646Y-95736213D01*
X115461096Y-95691058D01*
X115476691Y-95682520D01*
X115578766Y-95606019D01*
X115591327Y-95593458D01*
X115667828Y-95491383D01*
X115676366Y-95475788D01*
X115721520Y-95355340D01*
X115725147Y-95340085D01*
X115730673Y-95289220D01*
X115731042Y-95282406D01*
X115731042Y-94984849D01*
X115726567Y-94969610D01*
X115725177Y-94968405D01*
X115717494Y-94966734D01*
X114395157Y-94966734D01*
X114379918Y-94971209D01*
X114378713Y-94972599D01*
X114377042Y-94980282D01*
X114377042Y-95727618D01*
X113869042Y-95727618D01*
X113869042Y-94984849D01*
X113864567Y-94969610D01*
X113863177Y-94968405D01*
X113855494Y-94966734D01*
X112533158Y-94966734D01*
X112517919Y-94971209D01*
X112516714Y-94972599D01*
X112515043Y-94980282D01*
X112515043Y-95282403D01*
X88426542Y-95282403D01*
X88426542Y-86332234D01*
X88446544Y-86264113D01*
X88500200Y-86217620D01*
X88552542Y-86206234D01*
X90906176Y-86206234D01*
X90968358Y-86199479D01*
X91104747Y-86148349D01*
X91221303Y-86060995D01*
X91308657Y-85944439D01*
X91359787Y-85808050D01*
X91366542Y-85745868D01*
X91366542Y-85106374D01*
X97869505Y-85106374D01*
X97887205Y-85286894D01*
X97944460Y-85459007D01*
X97948107Y-85465029D01*
X97948108Y-85465031D01*
X97987307Y-85529756D01*
X98038422Y-85614158D01*
X98164424Y-85744636D01*
X98316201Y-85843956D01*
X98322805Y-85846412D01*
X98322807Y-85846413D01*
X98479600Y-85904724D01*
X98479602Y-85904724D01*
X98486210Y-85907182D01*
X98570037Y-85918367D01*
X98659022Y-85930241D01*
X98659026Y-85930241D01*
X98666003Y-85931172D01*
X98673014Y-85930534D01*
X98673018Y-85930534D01*
X98815501Y-85917566D01*
X98846642Y-85914732D01*
X98853344Y-85912554D01*
X98853346Y-85912554D01*
X99012451Y-85860858D01*
X99012454Y-85860857D01*
X99019150Y-85858681D01*
X99174954Y-85765803D01*
X99306308Y-85640716D01*
X99406685Y-85489636D01*
X99450759Y-85373612D01*
X99468597Y-85326654D01*
X99468598Y-85326652D01*
X99471097Y-85320072D01*
X99474821Y-85293578D01*
X99480681Y-85251879D01*
X99509969Y-85187205D01*
X99516360Y-85180320D01*
X100174447Y-84522233D01*
X100236759Y-84488207D01*
X100307574Y-84493272D01*
X100364410Y-84535819D01*
X100389221Y-84602339D01*
X100389542Y-84611328D01*
X100389542Y-85845868D01*
X100396297Y-85908050D01*
X100447427Y-86044439D01*
X100534781Y-86160995D01*
X100651337Y-86248349D01*
X100787726Y-86299479D01*
X100849908Y-86306234D01*
X103556176Y-86306234D01*
X103618358Y-86299479D01*
X103754747Y-86248349D01*
X103827388Y-86193908D01*
X103893893Y-86169060D01*
X103902952Y-86168734D01*
X104450927Y-86168734D01*
X104466166Y-86164259D01*
X104467371Y-86162869D01*
X104469042Y-86155186D01*
X104469042Y-85482850D01*
X104464567Y-85467611D01*
X104463177Y-85466406D01*
X104455494Y-85464735D01*
X104142542Y-85464735D01*
X104074421Y-85444733D01*
X104027928Y-85391077D01*
X104016542Y-85338735D01*
X104016542Y-84407388D01*
X104036544Y-84339267D01*
X104090200Y-84292774D01*
X104160474Y-84282670D01*
X104173871Y-84285345D01*
X104214335Y-84295734D01*
X104234596Y-84295734D01*
X104254305Y-84297285D01*
X104274308Y-84300453D01*
X104282200Y-84299707D01*
X104287427Y-84299213D01*
X104318319Y-84296293D01*
X104330176Y-84295734D01*
X105112948Y-84295734D01*
X105181069Y-84315736D01*
X105202043Y-84332639D01*
X105232637Y-84363233D01*
X105266663Y-84425545D01*
X105269542Y-84452328D01*
X105269542Y-85338734D01*
X105249540Y-85406855D01*
X105195884Y-85453348D01*
X105143542Y-85464734D01*
X104995157Y-85464734D01*
X104979918Y-85469209D01*
X104978713Y-85470599D01*
X104977042Y-85478282D01*
X104977042Y-86550734D01*
X104957040Y-86618855D01*
X104903384Y-86665348D01*
X104851042Y-86676734D01*
X103563158Y-86676734D01*
X103547919Y-86681209D01*
X103546714Y-86682599D01*
X103545043Y-86690282D01*
X103545043Y-86917403D01*
X103545413Y-86924224D01*
X103550937Y-86975086D01*
X103554562Y-86990334D01*
X103562981Y-87012791D01*
X103568164Y-87083598D01*
X103562984Y-87101244D01*
X103551297Y-87132418D01*
X103544542Y-87194600D01*
X103544542Y-88190868D01*
X103551297Y-88253050D01*
X103562714Y-88283505D01*
X103567897Y-88354311D01*
X103562716Y-88371958D01*
X103551297Y-88402418D01*
X103544542Y-88464600D01*
X103544542Y-89460868D01*
X103551297Y-89523050D01*
X103562714Y-89553505D01*
X103567897Y-89624311D01*
X103562716Y-89641958D01*
X103551297Y-89672418D01*
X103544542Y-89734600D01*
X103544542Y-90730868D01*
X103551297Y-90793050D01*
X103562714Y-90823505D01*
X103567897Y-90894311D01*
X103562716Y-90911958D01*
X103551297Y-90942418D01*
X103544542Y-91004600D01*
X103544542Y-92000868D01*
X103551297Y-92063050D01*
X103562714Y-92093505D01*
X103567897Y-92164311D01*
X103562716Y-92181958D01*
X103551297Y-92212418D01*
X103544542Y-92274600D01*
X103544542Y-93270868D01*
X103551297Y-93333050D01*
X103602427Y-93469439D01*
X103689781Y-93585995D01*
X103806337Y-93673349D01*
X103942726Y-93724479D01*
X104004908Y-93731234D01*
X105441176Y-93731234D01*
X105503358Y-93724479D01*
X105639747Y-93673349D01*
X105756303Y-93585995D01*
X105774061Y-93562301D01*
X105838275Y-93476621D01*
X105838277Y-93476618D01*
X105843657Y-93469439D01*
X105865763Y-93410472D01*
X105908403Y-93353708D01*
X105937357Y-93337552D01*
X105950659Y-93332286D01*
X105960421Y-93325194D01*
X105986429Y-93306298D01*
X105996349Y-93299782D01*
X106027577Y-93281314D01*
X106027580Y-93281312D01*
X106034404Y-93277276D01*
X106048725Y-93262955D01*
X106063759Y-93250114D01*
X106073736Y-93242865D01*
X106080149Y-93238206D01*
X106108340Y-93204129D01*
X106116330Y-93195350D01*
X106155289Y-93156391D01*
X106163579Y-93148847D01*
X106170060Y-93144734D01*
X106216701Y-93095066D01*
X106219455Y-93092225D01*
X106239177Y-93072503D01*
X106241654Y-93069310D01*
X106249359Y-93060289D01*
X106274201Y-93033834D01*
X106279628Y-93028055D01*
X106283449Y-93021105D01*
X106289388Y-93010302D01*
X106300244Y-92993775D01*
X106307799Y-92984036D01*
X106307800Y-92984034D01*
X106312656Y-92977774D01*
X106330216Y-92937194D01*
X106335433Y-92926546D01*
X106352917Y-92894743D01*
X106352918Y-92894741D01*
X106356737Y-92887794D01*
X106361775Y-92868171D01*
X106368179Y-92849468D01*
X106373075Y-92838154D01*
X106373075Y-92838153D01*
X106376223Y-92830879D01*
X106377462Y-92823056D01*
X106377465Y-92823046D01*
X106383141Y-92787210D01*
X106385547Y-92775590D01*
X106394570Y-92740445D01*
X106394570Y-92740444D01*
X106396542Y-92732764D01*
X106396542Y-92712510D01*
X106398093Y-92692799D01*
X106400022Y-92680620D01*
X106401262Y-92672791D01*
X106397101Y-92628772D01*
X106396542Y-92616915D01*
X106396542Y-91771829D01*
X106416544Y-91703708D01*
X106433447Y-91682734D01*
X106625562Y-91490619D01*
X112515042Y-91490619D01*
X112519517Y-91505858D01*
X112520907Y-91507063D01*
X112528590Y-91508734D01*
X113850927Y-91508734D01*
X113866166Y-91504259D01*
X113867371Y-91502869D01*
X113869042Y-91495186D01*
X113869042Y-91490619D01*
X114377042Y-91490619D01*
X114381517Y-91505858D01*
X114382907Y-91507063D01*
X114390590Y-91508734D01*
X115712926Y-91508734D01*
X115728165Y-91504259D01*
X115729370Y-91502869D01*
X115731041Y-91495186D01*
X115731041Y-91193065D01*
X115730671Y-91186244D01*
X115725147Y-91135382D01*
X115721521Y-91120130D01*
X115676366Y-90999680D01*
X115667828Y-90984085D01*
X115591327Y-90882010D01*
X115578766Y-90869449D01*
X115476691Y-90792948D01*
X115461096Y-90784410D01*
X115340648Y-90739256D01*
X115325393Y-90735629D01*
X115274528Y-90730103D01*
X115267714Y-90729734D01*
X114395157Y-90729734D01*
X114379918Y-90734209D01*
X114378713Y-90735599D01*
X114377042Y-90743282D01*
X114377042Y-91490619D01*
X113869042Y-91490619D01*
X113869042Y-90747850D01*
X113864567Y-90732611D01*
X113863177Y-90731406D01*
X113855494Y-90729735D01*
X112978373Y-90729735D01*
X112971552Y-90730105D01*
X112920690Y-90735629D01*
X112905438Y-90739255D01*
X112784988Y-90784410D01*
X112769393Y-90792948D01*
X112667318Y-90869449D01*
X112654757Y-90882010D01*
X112578256Y-90984085D01*
X112569718Y-90999680D01*
X112524564Y-91120128D01*
X112520937Y-91135383D01*
X112515411Y-91186248D01*
X112515042Y-91193062D01*
X112515042Y-91490619D01*
X106625562Y-91490619D01*
X106955788Y-91160393D01*
X106964078Y-91152849D01*
X106970559Y-91148736D01*
X106997424Y-91120128D01*
X107017199Y-91099069D01*
X107019954Y-91096227D01*
X107039676Y-91076505D01*
X107042153Y-91073312D01*
X107049858Y-91064291D01*
X107074700Y-91037836D01*
X107080127Y-91032057D01*
X107083948Y-91025107D01*
X107089887Y-91014304D01*
X107100743Y-90997777D01*
X107108298Y-90988038D01*
X107108299Y-90988036D01*
X107113155Y-90981776D01*
X107130715Y-90941196D01*
X107135932Y-90930548D01*
X107153416Y-90898745D01*
X107153417Y-90898743D01*
X107157236Y-90891796D01*
X107162274Y-90872173D01*
X107168678Y-90853470D01*
X107173574Y-90842156D01*
X107173574Y-90842155D01*
X107176722Y-90834881D01*
X107177961Y-90827058D01*
X107177964Y-90827048D01*
X107183640Y-90791212D01*
X107186046Y-90779592D01*
X107195069Y-90744447D01*
X107195069Y-90744446D01*
X107197041Y-90736766D01*
X107197041Y-90716512D01*
X107198592Y-90696801D01*
X107200521Y-90684622D01*
X107201761Y-90676793D01*
X107197600Y-90632774D01*
X107197041Y-90620917D01*
X107197041Y-90291829D01*
X107217043Y-90223708D01*
X107233946Y-90202734D01*
X107473541Y-89963139D01*
X107535853Y-89929113D01*
X107562636Y-89926234D01*
X108179275Y-89926234D01*
X108190458Y-89926761D01*
X108197951Y-89928436D01*
X108205877Y-89928187D01*
X108205878Y-89928187D01*
X108266028Y-89926296D01*
X108269987Y-89926234D01*
X108297898Y-89926234D01*
X108301833Y-89925737D01*
X108301898Y-89925729D01*
X108313735Y-89924796D01*
X108345993Y-89923782D01*
X108350012Y-89923656D01*
X108357931Y-89923407D01*
X108377385Y-89917755D01*
X108396742Y-89913747D01*
X108408972Y-89912202D01*
X108408973Y-89912202D01*
X108416839Y-89911208D01*
X108424210Y-89908289D01*
X108424212Y-89908289D01*
X108457954Y-89894930D01*
X108469184Y-89891085D01*
X108504025Y-89880963D01*
X108504026Y-89880963D01*
X108511635Y-89878752D01*
X108518454Y-89874719D01*
X108518459Y-89874717D01*
X108529070Y-89868441D01*
X108546818Y-89859746D01*
X108565659Y-89852286D01*
X108601429Y-89826298D01*
X108611349Y-89819782D01*
X108642577Y-89801314D01*
X108642580Y-89801312D01*
X108649404Y-89797276D01*
X108663725Y-89782955D01*
X108678759Y-89770114D01*
X108688736Y-89762865D01*
X108695149Y-89758206D01*
X108723340Y-89724129D01*
X108731330Y-89715350D01*
X108995289Y-89451391D01*
X109003579Y-89443847D01*
X109010060Y-89439734D01*
X109056701Y-89390066D01*
X109059455Y-89387225D01*
X109079177Y-89367503D01*
X109081654Y-89364310D01*
X109089359Y-89355289D01*
X109114201Y-89328834D01*
X109119628Y-89323055D01*
X109123449Y-89316105D01*
X109129388Y-89305302D01*
X109140244Y-89288775D01*
X109147799Y-89279036D01*
X109147800Y-89279034D01*
X109152656Y-89272774D01*
X109170216Y-89232194D01*
X109175433Y-89221546D01*
X109192917Y-89189743D01*
X109192918Y-89189741D01*
X109196737Y-89182794D01*
X109201775Y-89163171D01*
X109208179Y-89144468D01*
X109213075Y-89133154D01*
X109213075Y-89133153D01*
X109216223Y-89125879D01*
X109217462Y-89118056D01*
X109217465Y-89118046D01*
X109223141Y-89082210D01*
X109225547Y-89070590D01*
X109234570Y-89035445D01*
X109234570Y-89035444D01*
X109236542Y-89027764D01*
X109236542Y-89007510D01*
X109238093Y-88987799D01*
X109240022Y-88975620D01*
X109241262Y-88967791D01*
X109237101Y-88923772D01*
X109236542Y-88911915D01*
X109236542Y-88076501D01*
X109237069Y-88065318D01*
X109238744Y-88057825D01*
X109236604Y-87989748D01*
X109236542Y-87985789D01*
X109236542Y-87957878D01*
X109236037Y-87953878D01*
X109235104Y-87942035D01*
X109233964Y-87905763D01*
X109233715Y-87897844D01*
X109228064Y-87878392D01*
X109224056Y-87859040D01*
X109222509Y-87846797D01*
X109221516Y-87838937D01*
X109218598Y-87831566D01*
X109205242Y-87797831D01*
X109201397Y-87786604D01*
X109196586Y-87770046D01*
X109189060Y-87744141D01*
X109185026Y-87737319D01*
X109185023Y-87737313D01*
X109178748Y-87726702D01*
X109170052Y-87708952D01*
X109165514Y-87697490D01*
X109165511Y-87697485D01*
X109162594Y-87690117D01*
X109136615Y-87654359D01*
X109130099Y-87644441D01*
X109117717Y-87623505D01*
X109107584Y-87606371D01*
X109093260Y-87592047D01*
X109080418Y-87577012D01*
X109068514Y-87560627D01*
X109034448Y-87532445D01*
X109025669Y-87524456D01*
X108866694Y-87365481D01*
X108859154Y-87357195D01*
X108855042Y-87350716D01*
X108805390Y-87304090D01*
X108802549Y-87301336D01*
X108782812Y-87281599D01*
X108779615Y-87279119D01*
X108770593Y-87271414D01*
X108744142Y-87246575D01*
X108738363Y-87241148D01*
X108731417Y-87237329D01*
X108731414Y-87237327D01*
X108720608Y-87231386D01*
X108704089Y-87220535D01*
X108703625Y-87220175D01*
X108688083Y-87208120D01*
X108680814Y-87204975D01*
X108680810Y-87204972D01*
X108647505Y-87190560D01*
X108636855Y-87185343D01*
X108598102Y-87164039D01*
X108578479Y-87159001D01*
X108559776Y-87152597D01*
X108548462Y-87147701D01*
X108548461Y-87147701D01*
X108541187Y-87144553D01*
X108533364Y-87143314D01*
X108533354Y-87143311D01*
X108497518Y-87137635D01*
X108485898Y-87135229D01*
X108450753Y-87126206D01*
X108450752Y-87126206D01*
X108443072Y-87124234D01*
X108422818Y-87124234D01*
X108403107Y-87122683D01*
X108390928Y-87120754D01*
X108383099Y-87119514D01*
X108375207Y-87120260D01*
X108339081Y-87123675D01*
X108327223Y-87124234D01*
X107827174Y-87124234D01*
X107759053Y-87104232D01*
X107712560Y-87050576D01*
X107703834Y-87021624D01*
X107703715Y-87017844D01*
X107698064Y-86998392D01*
X107694056Y-86979040D01*
X107692510Y-86966802D01*
X107692509Y-86966800D01*
X107691516Y-86958937D01*
X107675236Y-86917820D01*
X107671401Y-86906619D01*
X107659060Y-86864140D01*
X107655027Y-86857321D01*
X107655025Y-86857316D01*
X107648749Y-86846705D01*
X107640052Y-86828955D01*
X107632594Y-86810117D01*
X107606613Y-86774357D01*
X107600095Y-86764435D01*
X107581620Y-86733194D01*
X107581616Y-86733189D01*
X107577584Y-86726371D01*
X107563260Y-86712047D01*
X107550418Y-86697012D01*
X107538514Y-86680627D01*
X107504448Y-86652445D01*
X107495669Y-86644456D01*
X107040036Y-86188823D01*
X107006010Y-86126511D01*
X107003131Y-86099728D01*
X107003131Y-83659912D01*
X107003658Y-83648729D01*
X107005333Y-83641236D01*
X107003193Y-83573159D01*
X107003131Y-83569200D01*
X107003131Y-83541289D01*
X107002626Y-83537289D01*
X107001693Y-83525446D01*
X107000553Y-83489175D01*
X107000304Y-83481256D01*
X106994652Y-83461802D01*
X106990644Y-83442445D01*
X106989099Y-83430215D01*
X106989099Y-83430214D01*
X106988105Y-83422348D01*
X106985186Y-83414975D01*
X106971827Y-83381233D01*
X106967982Y-83370003D01*
X106957860Y-83335162D01*
X106957860Y-83335161D01*
X106955649Y-83327552D01*
X106951616Y-83320733D01*
X106951614Y-83320728D01*
X106945338Y-83310117D01*
X106936643Y-83292369D01*
X106929183Y-83273528D01*
X106922307Y-83264063D01*
X106903195Y-83237758D01*
X106896679Y-83227838D01*
X106878211Y-83196610D01*
X106878209Y-83196607D01*
X106874173Y-83189783D01*
X106859852Y-83175462D01*
X106847011Y-83160428D01*
X106839763Y-83150452D01*
X106835103Y-83144038D01*
X106801038Y-83115857D01*
X106792257Y-83107867D01*
X106428277Y-82743886D01*
X106420744Y-82735608D01*
X106416631Y-82729127D01*
X106366993Y-82682515D01*
X106364150Y-82679760D01*
X106347202Y-82662811D01*
X106344401Y-82660010D01*
X106341204Y-82657530D01*
X106332182Y-82649825D01*
X106305731Y-82624986D01*
X106299952Y-82619559D01*
X106293006Y-82615740D01*
X106293003Y-82615738D01*
X106282197Y-82609797D01*
X106265678Y-82598946D01*
X106265214Y-82598586D01*
X106249672Y-82586531D01*
X106242403Y-82583386D01*
X106242399Y-82583383D01*
X106209094Y-82568971D01*
X106198444Y-82563754D01*
X106159691Y-82542450D01*
X106140068Y-82537412D01*
X106121365Y-82531008D01*
X106110051Y-82526112D01*
X106110050Y-82526112D01*
X106102776Y-82522964D01*
X106094953Y-82521725D01*
X106094943Y-82521722D01*
X106059107Y-82516046D01*
X106047487Y-82513640D01*
X106012342Y-82504617D01*
X106012341Y-82504617D01*
X106004661Y-82502645D01*
X105984407Y-82502645D01*
X105964696Y-82501094D01*
X105952517Y-82499165D01*
X105944688Y-82497925D01*
X105936796Y-82498671D01*
X105900670Y-82502086D01*
X105888812Y-82502645D01*
X105694131Y-82502645D01*
X105626010Y-82482643D01*
X105579517Y-82428987D01*
X105568131Y-82376645D01*
X105568131Y-82224911D01*
X105568658Y-82213728D01*
X105570333Y-82206235D01*
X105568193Y-82138158D01*
X105568131Y-82134199D01*
X105568131Y-82106289D01*
X105567626Y-82102288D01*
X105566693Y-82090445D01*
X105566099Y-82071529D01*
X105565304Y-82046254D01*
X105559654Y-82026808D01*
X105555645Y-82007448D01*
X105554099Y-81995214D01*
X105554098Y-81995211D01*
X105553105Y-81987348D01*
X105545952Y-81969281D01*
X105536831Y-81946242D01*
X105532986Y-81935015D01*
X105532206Y-81932329D01*
X105520649Y-81892551D01*
X105510338Y-81875116D01*
X105501641Y-81857366D01*
X105494183Y-81838528D01*
X105468194Y-81802757D01*
X105461679Y-81792839D01*
X105443210Y-81761609D01*
X105443208Y-81761606D01*
X105439172Y-81754782D01*
X105424852Y-81740462D01*
X105412011Y-81725428D01*
X105404763Y-81715452D01*
X105400103Y-81709038D01*
X105366036Y-81680855D01*
X105357258Y-81672868D01*
X105165367Y-81480978D01*
X105157831Y-81472696D01*
X105153719Y-81466216D01*
X105104069Y-81419592D01*
X105101226Y-81416837D01*
X105081488Y-81397099D01*
X105078364Y-81394676D01*
X105078360Y-81394672D01*
X105078295Y-81394622D01*
X105069274Y-81386917D01*
X105042819Y-81362075D01*
X105037040Y-81356648D01*
X105030092Y-81352829D01*
X105030090Y-81352827D01*
X105019287Y-81346888D01*
X105002760Y-81336032D01*
X104993021Y-81328477D01*
X104993019Y-81328476D01*
X104986759Y-81323620D01*
X104946183Y-81306061D01*
X104935526Y-81300840D01*
X104929502Y-81297528D01*
X104896779Y-81279539D01*
X104877147Y-81274498D01*
X104858455Y-81268098D01*
X104839863Y-81260053D01*
X104796194Y-81253137D01*
X104784574Y-81250730D01*
X104761370Y-81244772D01*
X104749426Y-81241705D01*
X104749425Y-81241705D01*
X104741749Y-81239734D01*
X104721494Y-81239734D01*
X104701783Y-81238183D01*
X104689604Y-81236254D01*
X104681775Y-81235014D01*
X104652504Y-81237781D01*
X104637757Y-81239175D01*
X104625899Y-81239734D01*
X101746309Y-81239734D01*
X101735126Y-81239207D01*
X101727633Y-81237532D01*
X101719707Y-81237781D01*
X101719706Y-81237781D01*
X101659556Y-81239672D01*
X101655597Y-81239734D01*
X101627686Y-81239734D01*
X101623752Y-81240231D01*
X101623751Y-81240231D01*
X101623686Y-81240239D01*
X101611849Y-81241172D01*
X101580032Y-81242172D01*
X101575571Y-81242312D01*
X101567652Y-81242561D01*
X101549996Y-81247690D01*
X101548200Y-81248212D01*
X101528848Y-81252220D01*
X101521777Y-81253114D01*
X101508745Y-81254760D01*
X101501376Y-81257677D01*
X101501374Y-81257678D01*
X101467639Y-81271034D01*
X101456411Y-81274879D01*
X101413949Y-81287216D01*
X101407127Y-81291250D01*
X101407121Y-81291253D01*
X101396510Y-81297528D01*
X101378760Y-81306224D01*
X101367298Y-81310762D01*
X101367293Y-81310765D01*
X101359925Y-81313682D01*
X101342512Y-81326333D01*
X101324167Y-81339661D01*
X101314249Y-81346177D01*
X101303005Y-81352827D01*
X101276179Y-81368692D01*
X101261855Y-81383016D01*
X101246823Y-81395855D01*
X101230435Y-81407762D01*
X101202254Y-81441827D01*
X101194264Y-81450607D01*
X100771950Y-81872921D01*
X100709638Y-81906947D01*
X100696028Y-81909136D01*
X100687252Y-81910058D01*
X100665330Y-81912362D01*
X100665328Y-81912362D01*
X100658330Y-81913098D01*
X100486621Y-81971552D01*
X100460945Y-81987348D01*
X100338137Y-82062900D01*
X100338134Y-82062902D01*
X100332130Y-82066596D01*
X100327095Y-82071527D01*
X100327092Y-82071529D01*
X100287549Y-82110253D01*
X100202535Y-82193505D01*
X100104277Y-82345972D01*
X100101868Y-82352592D01*
X100101866Y-82352595D01*
X100044648Y-82509800D01*
X100042239Y-82516419D01*
X100019505Y-82696374D01*
X100023303Y-82735108D01*
X100032323Y-82827108D01*
X100019063Y-82896856D01*
X99971064Y-82947856D01*
X99943502Y-82964156D01*
X99943497Y-82964160D01*
X99936679Y-82968192D01*
X99922355Y-82982516D01*
X99907323Y-82995355D01*
X99890935Y-83007262D01*
X99862754Y-83041327D01*
X99854764Y-83050107D01*
X98621950Y-84282921D01*
X98559638Y-84316947D01*
X98546028Y-84319136D01*
X98537252Y-84320058D01*
X98515330Y-84322362D01*
X98515328Y-84322362D01*
X98508330Y-84323098D01*
X98336621Y-84381552D01*
X98274151Y-84419984D01*
X98188137Y-84472900D01*
X98188134Y-84472902D01*
X98182130Y-84476596D01*
X98177095Y-84481527D01*
X98177092Y-84481529D01*
X98057567Y-84598577D01*
X98052535Y-84603505D01*
X97954277Y-84755972D01*
X97951868Y-84762592D01*
X97951866Y-84762595D01*
X97940681Y-84793326D01*
X97892239Y-84926419D01*
X97869505Y-85106374D01*
X91366542Y-85106374D01*
X91366542Y-83649600D01*
X91359787Y-83587418D01*
X91308657Y-83451029D01*
X91221303Y-83334473D01*
X91104747Y-83247119D01*
X90968358Y-83195989D01*
X90906176Y-83189234D01*
X88552542Y-83189234D01*
X88484421Y-83169232D01*
X88437928Y-83115576D01*
X88426542Y-83063234D01*
X88426542Y-81932329D01*
X88440754Y-81883928D01*
X94653797Y-81883928D01*
X94654035Y-81886645D01*
X94654035Y-81886652D01*
X94658765Y-81940718D01*
X94668754Y-82054888D01*
X94670178Y-82060201D01*
X94670178Y-82060203D01*
X94709308Y-82206235D01*
X94728013Y-82276044D01*
X94730336Y-82281025D01*
X94730336Y-82281026D01*
X94822448Y-82478563D01*
X94822451Y-82478568D01*
X94824774Y-82483550D01*
X94880930Y-82563749D01*
X94944048Y-82653890D01*
X94956099Y-82671101D01*
X95117997Y-82832999D01*
X95122505Y-82836156D01*
X95122508Y-82836158D01*
X95180685Y-82876894D01*
X95305548Y-82964324D01*
X95310530Y-82966647D01*
X95310535Y-82966650D01*
X95489511Y-83050107D01*
X95513054Y-83061085D01*
X95518362Y-83062507D01*
X95518364Y-83062508D01*
X95728895Y-83118920D01*
X95728897Y-83118920D01*
X95734210Y-83120344D01*
X95962297Y-83140299D01*
X96190384Y-83120344D01*
X96195697Y-83118920D01*
X96195699Y-83118920D01*
X96406230Y-83062508D01*
X96406232Y-83062507D01*
X96411540Y-83061085D01*
X96435083Y-83050107D01*
X96614059Y-82966650D01*
X96614064Y-82966647D01*
X96619046Y-82964324D01*
X96743909Y-82876894D01*
X96802086Y-82836158D01*
X96802089Y-82836156D01*
X96806597Y-82832999D01*
X96968495Y-82671101D01*
X96980547Y-82653890D01*
X97043664Y-82563749D01*
X97099820Y-82483550D01*
X97102143Y-82478568D01*
X97102146Y-82478563D01*
X97118102Y-82444344D01*
X97165019Y-82391059D01*
X97233296Y-82371598D01*
X97301256Y-82392140D01*
X97346492Y-82444344D01*
X97362448Y-82478563D01*
X97362451Y-82478568D01*
X97364774Y-82483550D01*
X97420930Y-82563749D01*
X97484048Y-82653890D01*
X97496099Y-82671101D01*
X97657997Y-82832999D01*
X97662505Y-82836156D01*
X97662508Y-82836158D01*
X97720685Y-82876894D01*
X97845548Y-82964324D01*
X97850530Y-82966647D01*
X97850535Y-82966650D01*
X98029511Y-83050107D01*
X98053054Y-83061085D01*
X98058362Y-83062507D01*
X98058364Y-83062508D01*
X98268895Y-83118920D01*
X98268897Y-83118920D01*
X98274210Y-83120344D01*
X98502297Y-83140299D01*
X98730384Y-83120344D01*
X98735697Y-83118920D01*
X98735699Y-83118920D01*
X98946230Y-83062508D01*
X98946232Y-83062507D01*
X98951540Y-83061085D01*
X98975083Y-83050107D01*
X99154059Y-82966650D01*
X99154064Y-82966647D01*
X99159046Y-82964324D01*
X99283909Y-82876894D01*
X99342086Y-82836158D01*
X99342089Y-82836156D01*
X99346597Y-82832999D01*
X99508495Y-82671101D01*
X99520547Y-82653890D01*
X99583664Y-82563749D01*
X99639820Y-82483550D01*
X99642143Y-82478568D01*
X99642146Y-82478563D01*
X99734258Y-82281026D01*
X99734258Y-82281025D01*
X99736581Y-82276044D01*
X99755287Y-82206235D01*
X99794416Y-82060203D01*
X99794416Y-82060201D01*
X99795840Y-82054888D01*
X99805829Y-81940718D01*
X99810559Y-81886652D01*
X99810559Y-81886645D01*
X99810797Y-81883928D01*
X99810797Y-81069674D01*
X99795840Y-80898714D01*
X99792185Y-80885074D01*
X99738004Y-80682868D01*
X99738003Y-80682866D01*
X99736581Y-80677558D01*
X99723368Y-80649222D01*
X99642146Y-80475039D01*
X99642143Y-80475034D01*
X99639820Y-80470052D01*
X99537258Y-80323578D01*
X99511654Y-80287012D01*
X99511652Y-80287009D01*
X99508495Y-80282501D01*
X99362368Y-80136374D01*
X101599505Y-80136374D01*
X101617205Y-80316894D01*
X101674460Y-80489007D01*
X101678107Y-80495029D01*
X101678108Y-80495031D01*
X101730781Y-80582004D01*
X101768422Y-80644158D01*
X101894424Y-80774636D01*
X102046201Y-80873956D01*
X102052805Y-80876412D01*
X102052807Y-80876413D01*
X102209600Y-80934724D01*
X102209602Y-80934724D01*
X102216210Y-80937182D01*
X102300037Y-80948367D01*
X102389022Y-80960241D01*
X102389026Y-80960241D01*
X102396003Y-80961172D01*
X102403014Y-80960534D01*
X102403018Y-80960534D01*
X102545501Y-80947566D01*
X102576642Y-80944732D01*
X102583344Y-80942554D01*
X102583346Y-80942554D01*
X102742451Y-80890858D01*
X102742454Y-80890857D01*
X102749150Y-80888681D01*
X102904954Y-80795803D01*
X103036308Y-80670716D01*
X103136685Y-80519636D01*
X103201097Y-80350072D01*
X103202595Y-80339411D01*
X103225790Y-80174373D01*
X103225790Y-80174370D01*
X103226341Y-80170451D01*
X103226658Y-80147734D01*
X103206439Y-79967479D01*
X103204122Y-79960825D01*
X103149106Y-79802840D01*
X103149104Y-79802837D01*
X103146787Y-79796182D01*
X103065688Y-79666395D01*
X103046542Y-79599626D01*
X103046542Y-79210031D01*
X103066544Y-79141910D01*
X103108023Y-79101803D01*
X103243063Y-79021303D01*
X103374417Y-78896216D01*
X103474794Y-78745136D01*
X103539206Y-78575572D01*
X103540186Y-78568600D01*
X103563899Y-78399873D01*
X103563899Y-78399870D01*
X103564450Y-78395951D01*
X103564767Y-78373234D01*
X103544548Y-78192979D01*
X103542231Y-78186325D01*
X103487215Y-78028340D01*
X103487213Y-78028337D01*
X103484896Y-78021682D01*
X103438049Y-77946711D01*
X103392510Y-77873832D01*
X103388777Y-77867858D01*
X103368933Y-77847875D01*
X103265929Y-77744149D01*
X103265925Y-77744146D01*
X103260966Y-77739152D01*
X103252171Y-77733570D01*
X103136204Y-77659976D01*
X103107817Y-77641961D01*
X103071792Y-77629133D01*
X102943576Y-77583477D01*
X102943571Y-77583476D01*
X102936941Y-77581115D01*
X102929953Y-77580282D01*
X102929950Y-77580281D01*
X102806849Y-77565602D01*
X102756831Y-77559638D01*
X102749828Y-77560374D01*
X102749827Y-77560374D01*
X102583439Y-77577862D01*
X102583437Y-77577863D01*
X102576439Y-77578598D01*
X102404730Y-77637052D01*
X102396751Y-77641961D01*
X102256246Y-77728400D01*
X102256243Y-77728402D01*
X102250239Y-77732096D01*
X102245204Y-77737027D01*
X102245201Y-77737029D01*
X102125676Y-77854077D01*
X102120644Y-77859005D01*
X102022386Y-78011472D01*
X102019977Y-78018092D01*
X102019975Y-78018095D01*
X101977524Y-78134729D01*
X101960348Y-78181919D01*
X101952916Y-78240747D01*
X101924536Y-78305820D01*
X101919768Y-78311197D01*
X101896456Y-78336022D01*
X101892637Y-78342968D01*
X101892635Y-78342971D01*
X101886694Y-78353777D01*
X101875843Y-78370296D01*
X101863428Y-78386302D01*
X101860283Y-78393571D01*
X101860280Y-78393575D01*
X101845868Y-78426880D01*
X101840651Y-78437530D01*
X101819347Y-78476283D01*
X101817376Y-78483958D01*
X101817376Y-78483959D01*
X101814309Y-78495905D01*
X101807905Y-78514609D01*
X101799861Y-78533198D01*
X101798622Y-78541021D01*
X101798619Y-78541031D01*
X101792943Y-78576867D01*
X101790537Y-78588487D01*
X101779542Y-78631313D01*
X101779542Y-78651567D01*
X101777991Y-78671277D01*
X101774822Y-78691286D01*
X101775568Y-78699178D01*
X101778983Y-78735304D01*
X101779542Y-78747162D01*
X101779542Y-79601065D01*
X101759453Y-79669320D01*
X101688096Y-79780044D01*
X101688092Y-79780053D01*
X101684277Y-79785972D01*
X101681868Y-79792592D01*
X101681867Y-79792593D01*
X101644652Y-79894840D01*
X101622239Y-79956419D01*
X101599505Y-80136374D01*
X99362368Y-80136374D01*
X99346597Y-80120603D01*
X99342089Y-80117446D01*
X99342086Y-80117444D01*
X99235327Y-80042691D01*
X99159046Y-79989278D01*
X99154064Y-79986955D01*
X99154059Y-79986952D01*
X99048706Y-79937826D01*
X98951540Y-79892517D01*
X98946228Y-79891094D01*
X98944446Y-79890445D01*
X98887275Y-79848350D01*
X98861938Y-79782028D01*
X98861542Y-79772044D01*
X98861542Y-77871001D01*
X98869754Y-77826257D01*
X98888597Y-77776654D01*
X98888598Y-77776652D01*
X98891097Y-77770072D01*
X98896434Y-77732096D01*
X98915790Y-77594373D01*
X98915790Y-77594370D01*
X98916341Y-77590451D01*
X98916658Y-77567734D01*
X98896439Y-77387479D01*
X98836787Y-77216182D01*
X98740668Y-77062358D01*
X98735706Y-77057361D01*
X98617820Y-76938649D01*
X98617816Y-76938646D01*
X98612857Y-76933652D01*
X98459708Y-76836461D01*
X98430505Y-76826062D01*
X98295467Y-76777977D01*
X98295462Y-76777976D01*
X98288832Y-76775615D01*
X98263296Y-76772570D01*
X98198023Y-76744642D01*
X98158211Y-76685859D01*
X98153002Y-76661504D01*
X98151149Y-76644986D01*
X98151147Y-76644977D01*
X98150362Y-76637979D01*
X98119196Y-76548481D01*
X98093029Y-76473340D01*
X98093027Y-76473337D01*
X98090710Y-76466682D01*
X97994591Y-76312858D01*
X97980906Y-76299077D01*
X97871743Y-76189149D01*
X97871739Y-76189146D01*
X97866780Y-76184152D01*
X97855662Y-76177096D01*
X97807503Y-76146534D01*
X97713631Y-76086961D01*
X97684428Y-76076562D01*
X97549390Y-76028477D01*
X97549385Y-76028476D01*
X97542755Y-76026115D01*
X97535767Y-76025282D01*
X97535764Y-76025281D01*
X97409633Y-76010241D01*
X97362645Y-76004638D01*
X97355642Y-76005374D01*
X97355641Y-76005374D01*
X97189253Y-76022862D01*
X97189251Y-76022863D01*
X97182253Y-76023598D01*
X97010544Y-76082052D01*
X97004540Y-76085746D01*
X96862060Y-76173400D01*
X96862057Y-76173402D01*
X96856053Y-76177096D01*
X96851018Y-76182027D01*
X96851015Y-76182029D01*
X96731490Y-76299077D01*
X96726458Y-76304005D01*
X96628200Y-76456472D01*
X96625790Y-76463094D01*
X96622657Y-76469404D01*
X96620986Y-76468574D01*
X96598234Y-76504284D01*
X95473386Y-77629133D01*
X95458974Y-77641519D01*
X95447379Y-77650052D01*
X95447374Y-77650057D01*
X95441479Y-77654395D01*
X95436740Y-77659973D01*
X95436737Y-77659976D01*
X95407262Y-77694671D01*
X95400332Y-77702187D01*
X95394636Y-77707883D01*
X95392373Y-77710744D01*
X95392368Y-77710749D01*
X95377004Y-77730169D01*
X95374215Y-77733570D01*
X95326964Y-77789188D01*
X95323638Y-77795701D01*
X95320277Y-77800740D01*
X95317101Y-77805882D01*
X95312563Y-77811619D01*
X95281642Y-77877778D01*
X95279739Y-77881672D01*
X95246528Y-77946711D01*
X95244789Y-77953819D01*
X95242690Y-77959462D01*
X95240773Y-77965225D01*
X95237675Y-77971853D01*
X95236185Y-77979015D01*
X95236185Y-77979016D01*
X95222811Y-78043315D01*
X95221841Y-78047599D01*
X95204489Y-78118513D01*
X95203797Y-78129667D01*
X95203761Y-78129665D01*
X95203522Y-78133658D01*
X95203148Y-78137850D01*
X95201657Y-78145018D01*
X95201855Y-78152335D01*
X95203751Y-78222424D01*
X95203797Y-78225831D01*
X95203797Y-79994934D01*
X95183795Y-80063055D01*
X95150069Y-80098146D01*
X95117997Y-80120603D01*
X94956099Y-80282501D01*
X94952942Y-80287009D01*
X94952940Y-80287012D01*
X94927336Y-80323578D01*
X94824774Y-80470052D01*
X94822451Y-80475034D01*
X94822448Y-80475039D01*
X94741226Y-80649222D01*
X94728013Y-80677558D01*
X94726591Y-80682866D01*
X94726590Y-80682868D01*
X94672409Y-80885074D01*
X94668754Y-80898714D01*
X94653797Y-81069674D01*
X94653797Y-81883928D01*
X88440754Y-81883928D01*
X88446544Y-81864208D01*
X88463447Y-81843233D01*
X88597071Y-81709610D01*
X88659383Y-81675585D01*
X88730199Y-81680650D01*
X88743729Y-81687494D01*
X88744018Y-81686922D01*
X88750305Y-81690098D01*
X88756201Y-81693956D01*
X88762805Y-81696412D01*
X88762807Y-81696413D01*
X88919600Y-81754724D01*
X88919602Y-81754724D01*
X88926210Y-81757182D01*
X89010037Y-81768367D01*
X89099022Y-81780241D01*
X89099026Y-81780241D01*
X89106003Y-81781172D01*
X89113014Y-81780534D01*
X89113018Y-81780534D01*
X89255501Y-81767566D01*
X89286642Y-81764732D01*
X89293344Y-81762554D01*
X89293346Y-81762554D01*
X89452451Y-81710858D01*
X89452454Y-81710857D01*
X89459150Y-81708681D01*
X89614954Y-81615803D01*
X89746308Y-81490716D01*
X89846685Y-81339636D01*
X89911097Y-81170072D01*
X89936341Y-80990451D01*
X89936658Y-80967734D01*
X89916439Y-80787479D01*
X89880010Y-80682868D01*
X89870434Y-80655370D01*
X89866920Y-80584460D01*
X89902302Y-80522908D01*
X89965344Y-80490256D01*
X89978003Y-80488452D01*
X90018882Y-80484732D01*
X90025584Y-80482554D01*
X90025586Y-80482554D01*
X90184691Y-80430858D01*
X90184694Y-80430857D01*
X90191390Y-80428681D01*
X90323258Y-80350072D01*
X90341142Y-80339411D01*
X90341144Y-80339410D01*
X90347194Y-80335803D01*
X90478548Y-80210716D01*
X90578925Y-80059636D01*
X90643337Y-79890072D01*
X90655597Y-79802840D01*
X90668030Y-79714373D01*
X90668030Y-79714370D01*
X90668581Y-79710451D01*
X90668898Y-79687734D01*
X90648679Y-79507479D01*
X90589027Y-79336182D01*
X90492908Y-79182358D01*
X90464916Y-79154170D01*
X90370060Y-79058649D01*
X90370056Y-79058646D01*
X90365097Y-79053652D01*
X90353979Y-79046596D01*
X90305820Y-79016034D01*
X90211948Y-78956461D01*
X90182745Y-78946062D01*
X90047707Y-78897977D01*
X90047702Y-78897976D01*
X90041072Y-78895615D01*
X90034084Y-78894782D01*
X90034081Y-78894781D01*
X89910980Y-78880102D01*
X89860962Y-78874138D01*
X89853959Y-78874874D01*
X89853958Y-78874874D01*
X89687570Y-78892362D01*
X89687568Y-78892363D01*
X89680570Y-78893098D01*
X89508861Y-78951552D01*
X89372321Y-79035553D01*
X89306301Y-79054234D01*
X88491809Y-79054234D01*
X88480626Y-79053707D01*
X88473133Y-79052032D01*
X88465207Y-79052281D01*
X88465206Y-79052281D01*
X88405043Y-79054172D01*
X88401085Y-79054234D01*
X88373186Y-79054234D01*
X88369196Y-79054738D01*
X88357362Y-79055670D01*
X88313153Y-79057060D01*
X88305539Y-79059272D01*
X88305534Y-79059273D01*
X88293701Y-79062711D01*
X88274338Y-79066722D01*
X88254245Y-79069260D01*
X88246878Y-79072177D01*
X88246873Y-79072178D01*
X88213134Y-79085536D01*
X88201907Y-79089380D01*
X88159449Y-79101716D01*
X88152623Y-79105753D01*
X88142014Y-79112027D01*
X88124266Y-79120722D01*
X88105425Y-79128182D01*
X88099009Y-79132844D01*
X88099008Y-79132844D01*
X88069655Y-79154170D01*
X88059735Y-79160686D01*
X88028507Y-79179154D01*
X88028504Y-79179156D01*
X88021680Y-79183192D01*
X88007359Y-79197513D01*
X87992326Y-79210353D01*
X87975935Y-79222262D01*
X87970884Y-79228368D01*
X87947744Y-79256339D01*
X87939754Y-79265118D01*
X87862635Y-79342237D01*
X87800323Y-79376263D01*
X87729508Y-79371198D01*
X87672672Y-79328651D01*
X87647861Y-79262131D01*
X87647540Y-79253142D01*
X87647540Y-76901330D01*
X87667542Y-76833209D01*
X87684445Y-76812235D01*
X89298541Y-75198139D01*
X89360853Y-75164113D01*
X89387636Y-75161234D01*
X94774275Y-75161234D01*
X94785458Y-75161761D01*
X94792951Y-75163436D01*
X94800877Y-75163187D01*
X94800878Y-75163187D01*
X94861028Y-75161296D01*
X94864987Y-75161234D01*
X94892898Y-75161234D01*
X94896833Y-75160737D01*
X94896898Y-75160729D01*
X94908735Y-75159796D01*
X94940993Y-75158782D01*
X94945012Y-75158656D01*
X94952931Y-75158407D01*
X94972385Y-75152755D01*
X94991742Y-75148747D01*
X95003972Y-75147202D01*
X95003973Y-75147202D01*
X95011839Y-75146208D01*
X95019210Y-75143289D01*
X95019212Y-75143289D01*
X95052954Y-75129930D01*
X95064184Y-75126085D01*
X95099025Y-75115963D01*
X95099026Y-75115963D01*
X95106635Y-75113752D01*
X95113454Y-75109719D01*
X95113459Y-75109717D01*
X95124070Y-75103441D01*
X95141818Y-75094746D01*
X95160659Y-75087286D01*
X95196429Y-75061298D01*
X95206349Y-75054782D01*
X95237577Y-75036314D01*
X95237580Y-75036312D01*
X95244404Y-75032276D01*
X95258725Y-75017955D01*
X95273759Y-75005114D01*
X95283736Y-74997865D01*
X95290149Y-74993206D01*
X95318340Y-74959129D01*
X95326330Y-74950350D01*
X98626450Y-71650231D01*
X98694207Y-71615146D01*
X98698622Y-71614387D01*
X98710696Y-71612313D01*
X98710698Y-71612312D01*
X98717911Y-71611073D01*
X98880661Y-71541822D01*
X98886549Y-71537489D01*
X98886554Y-71537486D01*
X99017220Y-71441325D01*
X99023115Y-71436987D01*
X99027854Y-71431409D01*
X99027857Y-71431406D01*
X99117088Y-71326374D01*
X103969505Y-71326374D01*
X103987205Y-71506894D01*
X103989429Y-71513579D01*
X104018100Y-71599767D01*
X104024542Y-71639539D01*
X104024542Y-74922925D01*
X104016943Y-74966019D01*
X104007048Y-74993206D01*
X104002239Y-75006419D01*
X103979505Y-75186374D01*
X103997205Y-75366894D01*
X104054460Y-75539007D01*
X104058107Y-75545029D01*
X104058108Y-75545031D01*
X104069020Y-75563048D01*
X104148422Y-75694158D01*
X104274424Y-75824636D01*
X104426201Y-75923956D01*
X104432805Y-75926412D01*
X104432807Y-75926413D01*
X104589600Y-75984724D01*
X104589602Y-75984724D01*
X104596210Y-75987182D01*
X104680037Y-75998367D01*
X104769022Y-76010241D01*
X104769026Y-76010241D01*
X104776003Y-76011172D01*
X104783014Y-76010534D01*
X104783018Y-76010534D01*
X104925501Y-75997566D01*
X104956642Y-75994732D01*
X104963344Y-75992554D01*
X104963346Y-75992554D01*
X105122451Y-75940858D01*
X105122454Y-75940857D01*
X105129150Y-75938681D01*
X105284954Y-75845803D01*
X105416308Y-75720716D01*
X105516685Y-75569636D01*
X105581097Y-75400072D01*
X105583872Y-75380327D01*
X105605790Y-75224373D01*
X105605790Y-75224370D01*
X105606341Y-75220451D01*
X105606658Y-75197734D01*
X105586439Y-75017479D01*
X105582588Y-75006419D01*
X105548551Y-74908680D01*
X105541542Y-74867243D01*
X105541542Y-71641001D01*
X105549754Y-71596257D01*
X105568597Y-71546654D01*
X105568598Y-71546652D01*
X105571097Y-71540072D01*
X105596341Y-71360451D01*
X105596658Y-71337734D01*
X105576439Y-71157479D01*
X105572682Y-71146691D01*
X105519106Y-70992840D01*
X105519104Y-70992837D01*
X105516787Y-70986182D01*
X105502710Y-70963654D01*
X105424401Y-70838332D01*
X105420668Y-70832358D01*
X105406983Y-70818577D01*
X105297820Y-70708649D01*
X105297816Y-70708646D01*
X105292857Y-70703652D01*
X105281739Y-70696596D01*
X105171262Y-70626486D01*
X105139708Y-70606461D01*
X105110505Y-70596062D01*
X104975467Y-70547977D01*
X104975462Y-70547976D01*
X104968832Y-70545615D01*
X104961844Y-70544782D01*
X104961841Y-70544781D01*
X104838740Y-70530102D01*
X104788722Y-70524138D01*
X104781719Y-70524874D01*
X104781718Y-70524874D01*
X104615330Y-70542362D01*
X104615328Y-70542363D01*
X104608330Y-70543098D01*
X104436621Y-70601552D01*
X104430617Y-70605246D01*
X104288137Y-70692900D01*
X104288134Y-70692902D01*
X104282130Y-70696596D01*
X104277095Y-70701527D01*
X104277092Y-70701529D01*
X104157567Y-70818577D01*
X104152535Y-70823505D01*
X104054277Y-70975972D01*
X104051868Y-70982592D01*
X104051866Y-70982595D01*
X103995463Y-71137562D01*
X103992239Y-71146419D01*
X103969505Y-71326374D01*
X99117088Y-71326374D01*
X99132891Y-71307773D01*
X99132894Y-71307769D01*
X99137630Y-71302194D01*
X99218066Y-71144671D01*
X99260105Y-70972869D01*
X99260797Y-70961715D01*
X99260797Y-67718668D01*
X99280799Y-67650547D01*
X99314525Y-67615456D01*
X99346597Y-67592999D01*
X99508495Y-67431101D01*
X99639820Y-67243550D01*
X99642143Y-67238568D01*
X99642146Y-67238563D01*
X99734258Y-67041026D01*
X99734258Y-67041025D01*
X99736581Y-67036044D01*
X99778809Y-66878450D01*
X99794416Y-66820203D01*
X99794416Y-66820201D01*
X99795840Y-66814888D01*
X99810797Y-66643928D01*
X99810797Y-65829674D01*
X99795840Y-65658714D01*
X99772297Y-65570851D01*
X99738004Y-65442868D01*
X99738003Y-65442866D01*
X99736581Y-65437558D01*
X99672047Y-65299163D01*
X99642146Y-65235039D01*
X99642143Y-65235034D01*
X99639820Y-65230052D01*
X99509898Y-65044504D01*
X99487210Y-64977231D01*
X99504495Y-64908371D01*
X99556265Y-64859786D01*
X99613111Y-64846234D01*
X110091483Y-64846234D01*
X110159604Y-64866236D01*
G37*
G04 #@! TD.AperFunction*
G04 #@! TA.AperFunction,Conductor*
G36*
X94919604Y-64866236D02*
G01*
X94966097Y-64919892D01*
X94976201Y-64990166D01*
X94954696Y-65044504D01*
X94824774Y-65230052D01*
X94822451Y-65235034D01*
X94822448Y-65235039D01*
X94792547Y-65299163D01*
X94728013Y-65437558D01*
X94726591Y-65442866D01*
X94726590Y-65442868D01*
X94692297Y-65570851D01*
X94668754Y-65658714D01*
X94653797Y-65829674D01*
X94653797Y-66643928D01*
X94668754Y-66814888D01*
X94670178Y-66820201D01*
X94670178Y-66820203D01*
X94685786Y-66878450D01*
X94728013Y-67036044D01*
X94730336Y-67041025D01*
X94730336Y-67041026D01*
X94822448Y-67238563D01*
X94822451Y-67238568D01*
X94824774Y-67243550D01*
X94956099Y-67431101D01*
X95117997Y-67592999D01*
X95150068Y-67615456D01*
X95194396Y-67670911D01*
X95203797Y-67718668D01*
X95203797Y-71812772D01*
X95219096Y-71943996D01*
X95219115Y-71944160D01*
X95219087Y-71944163D01*
X95215462Y-72011952D01*
X95185729Y-72059143D01*
X94087542Y-73157329D01*
X94025230Y-73191355D01*
X93998447Y-73194234D01*
X88651809Y-73194234D01*
X88640626Y-73193707D01*
X88633133Y-73192032D01*
X88625207Y-73192281D01*
X88625206Y-73192281D01*
X88565043Y-73194172D01*
X88561085Y-73194234D01*
X88533186Y-73194234D01*
X88529196Y-73194738D01*
X88517362Y-73195670D01*
X88473153Y-73197060D01*
X88465539Y-73199272D01*
X88465534Y-73199273D01*
X88453701Y-73202711D01*
X88434338Y-73206722D01*
X88414245Y-73209260D01*
X88406878Y-73212177D01*
X88406873Y-73212178D01*
X88373134Y-73225536D01*
X88361907Y-73229380D01*
X88319449Y-73241716D01*
X88312623Y-73245753D01*
X88302014Y-73252027D01*
X88284266Y-73260722D01*
X88265425Y-73268182D01*
X88259009Y-73272844D01*
X88259008Y-73272844D01*
X88229655Y-73294170D01*
X88219735Y-73300686D01*
X88188507Y-73319154D01*
X88188504Y-73319156D01*
X88181680Y-73323192D01*
X88167359Y-73337513D01*
X88152326Y-73350353D01*
X88135935Y-73362262D01*
X88130884Y-73368368D01*
X88107744Y-73396339D01*
X88099754Y-73405118D01*
X86306637Y-75198234D01*
X86244325Y-75232260D01*
X86173509Y-75227195D01*
X86116674Y-75184648D01*
X86091863Y-75118128D01*
X86091542Y-75109139D01*
X86091542Y-70571081D01*
X86111544Y-70502960D01*
X86165200Y-70456467D01*
X86235474Y-70446363D01*
X86300054Y-70475857D01*
X86315454Y-70491778D01*
X86411350Y-70610199D01*
X86422543Y-70626486D01*
X86460217Y-70691740D01*
X86460220Y-70691745D01*
X86463519Y-70697458D01*
X86591306Y-70839380D01*
X86745807Y-70951632D01*
X86751842Y-70954319D01*
X86757556Y-70957618D01*
X86757061Y-70958475D01*
X86774146Y-70968949D01*
X86993639Y-71146691D01*
X87302056Y-71346979D01*
X87304990Y-71348474D01*
X87304997Y-71348478D01*
X87602151Y-71499885D01*
X87629720Y-71513932D01*
X87809664Y-71583006D01*
X87960747Y-71641001D01*
X87973040Y-71645720D01*
X88328255Y-71740900D01*
X88521272Y-71771471D01*
X88688225Y-71797914D01*
X88688233Y-71797915D01*
X88691473Y-71798428D01*
X88758524Y-71801942D01*
X88796035Y-71803908D01*
X88815638Y-71806488D01*
X88956770Y-71836487D01*
X88956775Y-71836487D01*
X88963227Y-71837859D01*
X89154201Y-71837859D01*
X89160653Y-71836487D01*
X89160658Y-71836487D01*
X89301790Y-71806488D01*
X89321393Y-71803908D01*
X89358904Y-71801942D01*
X89425955Y-71798428D01*
X89429195Y-71797915D01*
X89429203Y-71797914D01*
X89596156Y-71771471D01*
X89789173Y-71740900D01*
X90144388Y-71645720D01*
X90156682Y-71641001D01*
X90307764Y-71583006D01*
X90487708Y-71513932D01*
X90515277Y-71499885D01*
X90812431Y-71348478D01*
X90812438Y-71348474D01*
X90815372Y-71346979D01*
X91123789Y-71146691D01*
X91343282Y-70968949D01*
X91360367Y-70958475D01*
X91359872Y-70957618D01*
X91365586Y-70954319D01*
X91371621Y-70951632D01*
X91526122Y-70839380D01*
X91653909Y-70697458D01*
X91657208Y-70691745D01*
X91657211Y-70691740D01*
X91694885Y-70626486D01*
X91706084Y-70610192D01*
X91898960Y-70372010D01*
X91901046Y-70369434D01*
X92101334Y-70061016D01*
X92268287Y-69733353D01*
X92400075Y-69390033D01*
X92495255Y-69034818D01*
X92552783Y-68671600D01*
X92558288Y-68566560D01*
X92564282Y-68534218D01*
X92575214Y-68500573D01*
X92575215Y-68500569D01*
X92577256Y-68494287D01*
X92589873Y-68374248D01*
X92596528Y-68310924D01*
X92597218Y-68304359D01*
X92577256Y-68114431D01*
X92575214Y-68108145D01*
X92564282Y-68074500D01*
X92558288Y-68042158D01*
X92556217Y-68002646D01*
X92552783Y-67937118D01*
X92546952Y-67900299D01*
X92507795Y-67653077D01*
X92495255Y-67573900D01*
X92400075Y-67218685D01*
X92366646Y-67131598D01*
X92269471Y-66878450D01*
X92268287Y-66875365D01*
X92266789Y-66872425D01*
X92102833Y-66550643D01*
X92102829Y-66550636D01*
X92101334Y-66547702D01*
X91901046Y-66239284D01*
X91752997Y-66056459D01*
X91706084Y-65998526D01*
X91694885Y-65982232D01*
X91657211Y-65916978D01*
X91657208Y-65916973D01*
X91653909Y-65911260D01*
X91526122Y-65769338D01*
X91371621Y-65657086D01*
X91365586Y-65654399D01*
X91359872Y-65651100D01*
X91360367Y-65650243D01*
X91343282Y-65639769D01*
X91126365Y-65464113D01*
X91123789Y-65462027D01*
X90939881Y-65342596D01*
X90818141Y-65263537D01*
X90818138Y-65263535D01*
X90815372Y-65261739D01*
X90812438Y-65260244D01*
X90812431Y-65260240D01*
X90490648Y-65096284D01*
X90487708Y-65094786D01*
X90474887Y-65089865D01*
X90418460Y-65046780D01*
X90394283Y-64980027D01*
X90410034Y-64910800D01*
X90460711Y-64861077D01*
X90520042Y-64846234D01*
X94851483Y-64846234D01*
X94919604Y-64866236D01*
G37*
G04 #@! TD.AperFunction*
G04 #@! TA.AperFunction,Conductor*
G36*
X97301256Y-67152140D02*
G01*
X97346492Y-67204344D01*
X97362448Y-67238563D01*
X97362451Y-67238568D01*
X97364774Y-67243550D01*
X97496099Y-67431101D01*
X97657997Y-67592999D01*
X97690068Y-67615456D01*
X97734396Y-67670911D01*
X97743797Y-67718668D01*
X97743797Y-70688885D01*
X97723795Y-70757006D01*
X97706892Y-70777980D01*
X96935892Y-71548980D01*
X96873580Y-71583006D01*
X96802765Y-71577941D01*
X96745929Y-71535394D01*
X96721118Y-71468874D01*
X96720797Y-71459885D01*
X96720797Y-67718668D01*
X96740799Y-67650547D01*
X96774525Y-67615456D01*
X96806597Y-67592999D01*
X96968495Y-67431101D01*
X97099820Y-67243550D01*
X97102143Y-67238568D01*
X97102146Y-67238563D01*
X97118102Y-67204344D01*
X97165019Y-67151059D01*
X97233296Y-67131598D01*
X97301256Y-67152140D01*
G37*
G04 #@! TD.AperFunction*
M02*
