G04 #@! TF.GenerationSoftware,KiCad,Pcbnew,(6.0.7)*
G04 #@! TF.CreationDate,2023-05-10T15:43:49+05:30*
G04 #@! TF.ProjectId,PS440V_to_5V,50533434-3056-45f7-946f-5f35562e6b69,rev?*
G04 #@! TF.SameCoordinates,Original*
G04 #@! TF.FileFunction,Legend,Top*
G04 #@! TF.FilePolarity,Positive*
%FSLAX46Y46*%
G04 Gerber Fmt 4.6, Leading zero omitted, Abs format (unit mm)*
G04 Created by KiCad (PCBNEW (6.0.7)) date 2023-05-10 15:43:49*
%MOMM*%
%LPD*%
G01*
G04 APERTURE LIST*
%ADD10C,0.150000*%
%ADD11C,0.175000*%
%ADD12C,0.300000*%
%ADD13C,0.200000*%
%ADD14C,0.120000*%
G04 APERTURE END LIST*
D10*
X112444408Y-98133476D02*
X116534502Y-98133476D01*
X116534502Y-98133476D02*
X116534502Y-100860205D01*
X116534502Y-100860205D02*
X112444408Y-100860205D01*
X112444408Y-100860205D02*
X112444408Y-98133476D01*
X112794598Y-115872905D02*
X118797773Y-115872905D01*
X118797773Y-115872905D02*
X118797773Y-122171318D01*
X118797773Y-122171318D02*
X112794598Y-122171318D01*
X112794598Y-122171318D02*
X112794598Y-115872905D01*
X110300000Y-107500000D02*
X119300000Y-107500000D01*
X119300000Y-107500000D02*
X119300000Y-112400000D01*
X119300000Y-112400000D02*
X110300000Y-112400000D01*
X110300000Y-112400000D02*
X110300000Y-107500000D01*
X134100000Y-105400000D02*
X139200000Y-105400000D01*
X139200000Y-105400000D02*
X139200000Y-113600000D01*
X139200000Y-113600000D02*
X134100000Y-113600000D01*
X134100000Y-113600000D02*
X134100000Y-105400000D01*
X112171735Y-86953886D02*
X116602670Y-86953886D01*
X116602670Y-86953886D02*
X116602670Y-90021456D01*
X116602670Y-90021456D02*
X112171735Y-90021456D01*
X112171735Y-90021456D02*
X112171735Y-86953886D01*
X110285074Y-100778858D02*
X118404122Y-100778858D01*
X118404122Y-100778858D02*
X118404122Y-106240762D01*
X118404122Y-106240762D02*
X110285074Y-106240762D01*
X110285074Y-106240762D02*
X110285074Y-100778858D01*
X110285074Y-89928858D02*
X118551741Y-89928858D01*
X118551741Y-89928858D02*
X118551741Y-95489175D01*
X118551741Y-95489175D02*
X110285074Y-95489175D01*
X110285074Y-95489175D02*
X110285074Y-89928858D01*
D11*
X119666666Y-104616666D02*
X119666666Y-103916666D01*
X119933333Y-103916666D01*
X120000000Y-103950000D01*
X120033333Y-103983333D01*
X120066666Y-104050000D01*
X120066666Y-104150000D01*
X120033333Y-104216666D01*
X120000000Y-104250000D01*
X119933333Y-104283333D01*
X119666666Y-104283333D01*
X120300000Y-103916666D02*
X120466666Y-104616666D01*
X120600000Y-104116666D01*
X120733333Y-104616666D01*
X120900000Y-103916666D01*
X121566666Y-104616666D02*
X121333333Y-104283333D01*
X121166666Y-104616666D02*
X121166666Y-103916666D01*
X121433333Y-103916666D01*
X121500000Y-103950000D01*
X121533333Y-103983333D01*
X121566666Y-104050000D01*
X121566666Y-104150000D01*
X121533333Y-104216666D01*
X121500000Y-104250000D01*
X121433333Y-104283333D01*
X121166666Y-104283333D01*
X122733333Y-104616666D02*
X122400000Y-104616666D01*
X122400000Y-103916666D01*
X122966666Y-104250000D02*
X123200000Y-104250000D01*
X123300000Y-104616666D02*
X122966666Y-104616666D01*
X122966666Y-103916666D01*
X123300000Y-103916666D01*
X123600000Y-104616666D02*
X123600000Y-103916666D01*
X123766666Y-103916666D01*
X123866666Y-103950000D01*
X123933333Y-104016666D01*
X123966666Y-104083333D01*
X124000000Y-104216666D01*
X124000000Y-104316666D01*
X123966666Y-104450000D01*
X123933333Y-104516666D01*
X123866666Y-104583333D01*
X123766666Y-104616666D01*
X123600000Y-104616666D01*
X125233333Y-104616666D02*
X125000000Y-104283333D01*
X124833333Y-104616666D02*
X124833333Y-103916666D01*
X125100000Y-103916666D01*
X125166666Y-103950000D01*
X125200000Y-103983333D01*
X125233333Y-104050000D01*
X125233333Y-104150000D01*
X125200000Y-104216666D01*
X125166666Y-104250000D01*
X125100000Y-104283333D01*
X124833333Y-104283333D01*
X125533333Y-104250000D02*
X125766666Y-104250000D01*
X125866666Y-104616666D02*
X125533333Y-104616666D01*
X125533333Y-103916666D01*
X125866666Y-103916666D01*
X126166666Y-104616666D02*
X126166666Y-103916666D01*
X126333333Y-103916666D01*
X126433333Y-103950000D01*
X126500000Y-104016666D01*
X126533333Y-104083333D01*
X126566666Y-104216666D01*
X126566666Y-104316666D01*
X126533333Y-104450000D01*
X126500000Y-104516666D01*
X126433333Y-104583333D01*
X126333333Y-104616666D01*
X126166666Y-104616666D01*
X119416666Y-116953166D02*
X119416666Y-116253166D01*
X119683333Y-116253166D01*
X119750000Y-116286500D01*
X119783333Y-116319833D01*
X119816666Y-116386500D01*
X119816666Y-116486500D01*
X119783333Y-116553166D01*
X119750000Y-116586500D01*
X119683333Y-116619833D01*
X119416666Y-116619833D01*
X120116666Y-116253166D02*
X120116666Y-116819833D01*
X120150000Y-116886500D01*
X120183333Y-116919833D01*
X120250000Y-116953166D01*
X120383333Y-116953166D01*
X120450000Y-116919833D01*
X120483333Y-116886500D01*
X120516666Y-116819833D01*
X120516666Y-116253166D01*
X120850000Y-116953166D02*
X120850000Y-116253166D01*
X121083333Y-116753166D01*
X121316666Y-116253166D01*
X121316666Y-116953166D01*
X121650000Y-116953166D02*
X121650000Y-116253166D01*
X121916666Y-116253166D01*
X121983333Y-116286500D01*
X122016666Y-116319833D01*
X122050000Y-116386500D01*
X122050000Y-116486500D01*
X122016666Y-116553166D01*
X121983333Y-116586500D01*
X121916666Y-116619833D01*
X121650000Y-116619833D01*
X123216666Y-116953166D02*
X122883333Y-116953166D01*
X122883333Y-116253166D01*
X123450000Y-116586500D02*
X123683333Y-116586500D01*
X123783333Y-116953166D02*
X123450000Y-116953166D01*
X123450000Y-116253166D01*
X123783333Y-116253166D01*
X124083333Y-116953166D02*
X124083333Y-116253166D01*
X124250000Y-116253166D01*
X124350000Y-116286500D01*
X124416666Y-116353166D01*
X124450000Y-116419833D01*
X124483333Y-116553166D01*
X124483333Y-116653166D01*
X124450000Y-116786500D01*
X124416666Y-116853166D01*
X124350000Y-116919833D01*
X124250000Y-116953166D01*
X124083333Y-116953166D01*
X120550000Y-117746833D02*
X120550000Y-118080166D01*
X120316666Y-117380166D02*
X120550000Y-117746833D01*
X120783333Y-117380166D01*
X121016666Y-117713500D02*
X121250000Y-117713500D01*
X121350000Y-118080166D02*
X121016666Y-118080166D01*
X121016666Y-117380166D01*
X121350000Y-117380166D01*
X121983333Y-118080166D02*
X121650000Y-118080166D01*
X121650000Y-117380166D01*
X122550000Y-118080166D02*
X122216666Y-118080166D01*
X122216666Y-117380166D01*
X122916666Y-117380166D02*
X123050000Y-117380166D01*
X123116666Y-117413500D01*
X123183333Y-117480166D01*
X123216666Y-117613500D01*
X123216666Y-117846833D01*
X123183333Y-117980166D01*
X123116666Y-118046833D01*
X123050000Y-118080166D01*
X122916666Y-118080166D01*
X122850000Y-118046833D01*
X122783333Y-117980166D01*
X122750000Y-117846833D01*
X122750000Y-117613500D01*
X122783333Y-117480166D01*
X122850000Y-117413500D01*
X122916666Y-117380166D01*
X123450000Y-117380166D02*
X123616666Y-118080166D01*
X123750000Y-117580166D01*
X123883333Y-118080166D01*
X124050000Y-117380166D01*
D12*
X131838095Y-107442857D02*
X133361904Y-107442857D01*
X132600000Y-108204761D02*
X132600000Y-106680952D01*
X140392857Y-113790476D02*
X140392857Y-112800000D01*
X140888095Y-113295238D02*
X139897619Y-113295238D01*
X140888095Y-111500000D02*
X140888095Y-112242857D01*
X140888095Y-111871428D02*
X139588095Y-111871428D01*
X139773809Y-111995238D01*
X139897619Y-112119047D01*
X139959523Y-112242857D01*
X139711904Y-111004761D02*
X139650000Y-110942857D01*
X139588095Y-110819047D01*
X139588095Y-110509523D01*
X139650000Y-110385714D01*
X139711904Y-110323809D01*
X139835714Y-110261904D01*
X139959523Y-110261904D01*
X140145238Y-110323809D01*
X140888095Y-111066666D01*
X140888095Y-110261904D01*
X139588095Y-109890476D02*
X140888095Y-109457142D01*
X139588095Y-109023809D01*
X147500000Y-111114285D02*
X147442857Y-111228571D01*
X147442857Y-111400000D01*
X147500000Y-111571428D01*
X147614285Y-111685714D01*
X147728571Y-111742857D01*
X147957142Y-111800000D01*
X148128571Y-111800000D01*
X148357142Y-111742857D01*
X148471428Y-111685714D01*
X148585714Y-111571428D01*
X148642857Y-111400000D01*
X148642857Y-111285714D01*
X148585714Y-111114285D01*
X148528571Y-111057142D01*
X148128571Y-111057142D01*
X148128571Y-111285714D01*
X148642857Y-110542857D02*
X147442857Y-110542857D01*
X148642857Y-109857142D01*
X147442857Y-109857142D01*
X148642857Y-109285714D02*
X147442857Y-109285714D01*
X147442857Y-109000000D01*
X147500000Y-108828571D01*
X147614285Y-108714285D01*
X147728571Y-108657142D01*
X147957142Y-108600000D01*
X148128571Y-108600000D01*
X148357142Y-108657142D01*
X148471428Y-108714285D01*
X148585714Y-108828571D01*
X148642857Y-109000000D01*
X148642857Y-109285714D01*
X143388095Y-111352380D02*
X142088095Y-111352380D01*
X143388095Y-110609523D01*
X142088095Y-110609523D01*
X142088095Y-109742857D02*
X142088095Y-109495238D01*
X142150000Y-109371428D01*
X142273809Y-109247619D01*
X142521428Y-109185714D01*
X142954761Y-109185714D01*
X143202380Y-109247619D01*
X143326190Y-109371428D01*
X143388095Y-109495238D01*
X143388095Y-109742857D01*
X143326190Y-109866666D01*
X143202380Y-109990476D01*
X142954761Y-110052380D01*
X142521428Y-110052380D01*
X142273809Y-109990476D01*
X142150000Y-109866666D01*
X142088095Y-109742857D01*
X110820523Y-116414174D02*
X110820523Y-115671317D01*
X110820523Y-116042746D02*
X112120523Y-116042746D01*
X111934809Y-115918936D01*
X111810999Y-115795126D01*
X111749095Y-115671317D01*
X111996714Y-116909412D02*
X112058619Y-116971317D01*
X112120523Y-117095126D01*
X112120523Y-117404650D01*
X112058619Y-117528460D01*
X111996714Y-117590365D01*
X111872904Y-117652269D01*
X111749095Y-117652269D01*
X111563380Y-117590365D01*
X110820523Y-116847507D01*
X110820523Y-117652269D01*
X112120523Y-118023698D02*
X110820523Y-118457031D01*
X112120523Y-118890365D01*
X110325285Y-119695126D02*
X110387190Y-119633222D01*
X110572904Y-119509412D01*
X110696714Y-119447507D01*
X110882428Y-119385603D01*
X111191952Y-119323698D01*
X111439571Y-119323698D01*
X111749095Y-119385603D01*
X111934809Y-119447507D01*
X112058619Y-119509412D01*
X112244333Y-119633222D01*
X112306238Y-119695126D01*
X111191952Y-120128460D02*
X111191952Y-120747507D01*
X110820523Y-120004650D02*
X112120523Y-120437984D01*
X110820523Y-120871317D01*
X110944333Y-122047507D02*
X110882428Y-121985603D01*
X110820523Y-121799888D01*
X110820523Y-121676079D01*
X110882428Y-121490365D01*
X111006238Y-121366555D01*
X111130047Y-121304650D01*
X111377666Y-121242746D01*
X111563380Y-121242746D01*
X111810999Y-121304650D01*
X111934809Y-121366555D01*
X112058619Y-121490365D01*
X112120523Y-121676079D01*
X112120523Y-121799888D01*
X112058619Y-121985603D01*
X111996714Y-122047507D01*
X110325285Y-122480841D02*
X110387190Y-122542746D01*
X110572904Y-122666555D01*
X110696714Y-122728460D01*
X110882428Y-122790365D01*
X111191952Y-122852269D01*
X111439571Y-122852269D01*
X111749095Y-122790365D01*
X111934809Y-122728460D01*
X112058619Y-122666555D01*
X112244333Y-122542746D01*
X112306238Y-122480841D01*
X146188095Y-111321428D02*
X144888095Y-111321428D01*
X146188095Y-110578571D01*
X144888095Y-110578571D01*
X146064285Y-109216666D02*
X146126190Y-109278571D01*
X146188095Y-109464285D01*
X146188095Y-109588095D01*
X146126190Y-109773809D01*
X146002380Y-109897619D01*
X145878571Y-109959523D01*
X145630952Y-110021428D01*
X145445238Y-110021428D01*
X145197619Y-109959523D01*
X145073809Y-109897619D01*
X144950000Y-109773809D01*
X144888095Y-109588095D01*
X144888095Y-109464285D01*
X144950000Y-109278571D01*
X145011904Y-109216666D01*
X119038095Y-127542857D02*
X120561904Y-127542857D01*
X131838095Y-107442857D02*
X133361904Y-107442857D01*
X132600000Y-108204761D02*
X132600000Y-106680952D01*
X115571428Y-111342857D02*
X115571428Y-110142857D01*
X116142857Y-111342857D02*
X116142857Y-110142857D01*
X116828571Y-111342857D01*
X116828571Y-110142857D01*
X120138095Y-106242857D02*
X121661904Y-106242857D01*
X120900000Y-107004761D02*
X120900000Y-105480952D01*
D13*
X135714285Y-110058142D02*
X135714285Y-109158142D01*
X136019047Y-109158142D01*
X136095238Y-109201000D01*
X136133333Y-109243857D01*
X136171428Y-109329571D01*
X136171428Y-109458142D01*
X136133333Y-109543857D01*
X136095238Y-109586714D01*
X136019047Y-109629571D01*
X135714285Y-109629571D01*
X136514285Y-109158142D02*
X136514285Y-109886714D01*
X136552380Y-109972428D01*
X136590476Y-110015285D01*
X136666666Y-110058142D01*
X136819047Y-110058142D01*
X136895238Y-110015285D01*
X136933333Y-109972428D01*
X136971428Y-109886714D01*
X136971428Y-109158142D01*
X137352380Y-110058142D02*
X137352380Y-109158142D01*
X137619047Y-109801000D01*
X137885714Y-109158142D01*
X137885714Y-110058142D01*
X138266666Y-110058142D02*
X138266666Y-109158142D01*
X138571428Y-109158142D01*
X138647619Y-109201000D01*
X138685714Y-109243857D01*
X138723809Y-109329571D01*
X138723809Y-109458142D01*
X138685714Y-109543857D01*
X138647619Y-109586714D01*
X138571428Y-109629571D01*
X138266666Y-109629571D01*
X136704761Y-110607142D02*
X136857142Y-110607142D01*
X136933333Y-110650000D01*
X137009523Y-110735714D01*
X137047619Y-110907142D01*
X137047619Y-111207142D01*
X137009523Y-111378571D01*
X136933333Y-111464285D01*
X136857142Y-111507142D01*
X136704761Y-111507142D01*
X136628571Y-111464285D01*
X136552380Y-111378571D01*
X136514285Y-111207142D01*
X136514285Y-110907142D01*
X136552380Y-110735714D01*
X136628571Y-110650000D01*
X136704761Y-110607142D01*
X137390476Y-111507142D02*
X137390476Y-110607142D01*
X137847619Y-111507142D01*
X137847619Y-110607142D01*
X136400000Y-112056142D02*
X136552380Y-112056142D01*
X136628571Y-112099000D01*
X136704761Y-112184714D01*
X136742857Y-112356142D01*
X136742857Y-112656142D01*
X136704761Y-112827571D01*
X136628571Y-112913285D01*
X136552380Y-112956142D01*
X136400000Y-112956142D01*
X136323809Y-112913285D01*
X136247619Y-112827571D01*
X136209523Y-112656142D01*
X136209523Y-112356142D01*
X136247619Y-112184714D01*
X136323809Y-112099000D01*
X136400000Y-112056142D01*
X137085714Y-112056142D02*
X137085714Y-112784714D01*
X137123809Y-112870428D01*
X137161904Y-112913285D01*
X137238095Y-112956142D01*
X137390476Y-112956142D01*
X137466666Y-112913285D01*
X137504761Y-112870428D01*
X137542857Y-112784714D01*
X137542857Y-112056142D01*
X137809523Y-112056142D02*
X138266666Y-112056142D01*
X138038095Y-112956142D02*
X138038095Y-112056142D01*
D12*
X112918026Y-100537938D02*
X112918026Y-98537938D01*
X114060883Y-100537938D01*
X114060883Y-98537938D01*
X116156121Y-100347462D02*
X116060883Y-100442700D01*
X115775169Y-100537938D01*
X115584693Y-100537938D01*
X115298978Y-100442700D01*
X115108502Y-100252224D01*
X115013264Y-100061748D01*
X114918026Y-99680796D01*
X114918026Y-99395081D01*
X115013264Y-99014129D01*
X115108502Y-98823653D01*
X115298978Y-98633177D01*
X115584693Y-98537938D01*
X115775169Y-98537938D01*
X116060883Y-98633177D01*
X116156121Y-98728415D01*
X144338095Y-127942857D02*
X145861904Y-127942857D01*
X144238095Y-122942857D02*
X145761904Y-122942857D01*
X145000000Y-123704761D02*
X145000000Y-122180952D01*
X110757142Y-109042857D02*
X110757142Y-107842857D01*
X111214285Y-107842857D01*
X111328571Y-107900000D01*
X111385714Y-107957142D01*
X111442857Y-108071428D01*
X111442857Y-108242857D01*
X111385714Y-108357142D01*
X111328571Y-108414285D01*
X111214285Y-108471428D01*
X110757142Y-108471428D01*
X111957142Y-107842857D02*
X111957142Y-108814285D01*
X112014285Y-108928571D01*
X112071428Y-108985714D01*
X112185714Y-109042857D01*
X112414285Y-109042857D01*
X112528571Y-108985714D01*
X112585714Y-108928571D01*
X112642857Y-108814285D01*
X112642857Y-107842857D01*
X113214285Y-109042857D02*
X113214285Y-107842857D01*
X113614285Y-108700000D01*
X114014285Y-107842857D01*
X114014285Y-109042857D01*
X114585714Y-109042857D02*
X114585714Y-107842857D01*
X115042857Y-107842857D01*
X115157142Y-107900000D01*
X115214285Y-107957142D01*
X115271428Y-108071428D01*
X115271428Y-108242857D01*
X115214285Y-108357142D01*
X115157142Y-108414285D01*
X115042857Y-108471428D01*
X114585714Y-108471428D01*
X116928571Y-107842857D02*
X117157142Y-107842857D01*
X117271428Y-107900000D01*
X117385714Y-108014285D01*
X117442857Y-108242857D01*
X117442857Y-108642857D01*
X117385714Y-108871428D01*
X117271428Y-108985714D01*
X117157142Y-109042857D01*
X116928571Y-109042857D01*
X116814285Y-108985714D01*
X116700000Y-108871428D01*
X116642857Y-108642857D01*
X116642857Y-108242857D01*
X116700000Y-108014285D01*
X116814285Y-107900000D01*
X116928571Y-107842857D01*
X117957142Y-109042857D02*
X117957142Y-107842857D01*
X118642857Y-109042857D01*
X118642857Y-107842857D01*
X131738095Y-112642857D02*
X133261904Y-112642857D01*
X118938095Y-130442857D02*
X120461904Y-130442857D01*
X119700000Y-131204761D02*
X119700000Y-129680952D01*
X122538095Y-111142857D02*
X124061904Y-111142857D01*
X122538095Y-106242857D02*
X124061904Y-106242857D01*
X112780952Y-89504761D02*
X112780952Y-87504761D01*
X113923809Y-89504761D01*
X113923809Y-87504761D01*
X115257142Y-87504761D02*
X115638095Y-87504761D01*
X115828571Y-87600000D01*
X116019047Y-87790476D01*
X116114285Y-88171428D01*
X116114285Y-88838095D01*
X116019047Y-89219047D01*
X115828571Y-89409523D01*
X115638095Y-89504761D01*
X115257142Y-89504761D01*
X115066666Y-89409523D01*
X114876190Y-89219047D01*
X114780952Y-88838095D01*
X114780952Y-88171428D01*
X114876190Y-87790476D01*
X115066666Y-87600000D01*
X115257142Y-87504761D01*
X119938095Y-111242857D02*
X121461904Y-111242857D01*
X120700000Y-112004761D02*
X120700000Y-110480952D01*
D10*
X127152380Y-125261904D02*
X127961904Y-125261904D01*
X128057142Y-125214285D01*
X128104761Y-125166666D01*
X128152380Y-125071428D01*
X128152380Y-124880952D01*
X128104761Y-124785714D01*
X128057142Y-124738095D01*
X127961904Y-124690476D01*
X127152380Y-124690476D01*
X128152380Y-123690476D02*
X128152380Y-124261904D01*
X128152380Y-123976190D02*
X127152380Y-123976190D01*
X127295238Y-124071428D01*
X127390476Y-124166666D01*
X127438095Y-124261904D01*
X128152380Y-121895238D02*
X128152380Y-122371428D01*
X127152380Y-122371428D01*
X127152380Y-121657142D02*
X127152380Y-120990476D01*
X128152380Y-121419047D01*
X127580952Y-120466666D02*
X127533333Y-120561904D01*
X127485714Y-120609523D01*
X127390476Y-120657142D01*
X127342857Y-120657142D01*
X127247619Y-120609523D01*
X127200000Y-120561904D01*
X127152380Y-120466666D01*
X127152380Y-120276190D01*
X127200000Y-120180952D01*
X127247619Y-120133333D01*
X127342857Y-120085714D01*
X127390476Y-120085714D01*
X127485714Y-120133333D01*
X127533333Y-120180952D01*
X127580952Y-120276190D01*
X127580952Y-120466666D01*
X127628571Y-120561904D01*
X127676190Y-120609523D01*
X127771428Y-120657142D01*
X127961904Y-120657142D01*
X128057142Y-120609523D01*
X128104761Y-120561904D01*
X128152380Y-120466666D01*
X128152380Y-120276190D01*
X128104761Y-120180952D01*
X128057142Y-120133333D01*
X127961904Y-120085714D01*
X127771428Y-120085714D01*
X127676190Y-120133333D01*
X127628571Y-120180952D01*
X127580952Y-120276190D01*
X127152380Y-119466666D02*
X127152380Y-119371428D01*
X127200000Y-119276190D01*
X127247619Y-119228571D01*
X127342857Y-119180952D01*
X127533333Y-119133333D01*
X127771428Y-119133333D01*
X127961904Y-119180952D01*
X128057142Y-119228571D01*
X128104761Y-119276190D01*
X128152380Y-119371428D01*
X128152380Y-119466666D01*
X128104761Y-119561904D01*
X128057142Y-119609523D01*
X127961904Y-119657142D01*
X127771428Y-119704761D01*
X127533333Y-119704761D01*
X127342857Y-119657142D01*
X127247619Y-119609523D01*
X127200000Y-119561904D01*
X127152380Y-119466666D01*
X127152380Y-118228571D02*
X127152380Y-118704761D01*
X127628571Y-118752380D01*
X127580952Y-118704761D01*
X127533333Y-118609523D01*
X127533333Y-118371428D01*
X127580952Y-118276190D01*
X127628571Y-118228571D01*
X127723809Y-118180952D01*
X127961904Y-118180952D01*
X128057142Y-118228571D01*
X128104761Y-118276190D01*
X128152380Y-118371428D01*
X128152380Y-118609523D01*
X128104761Y-118704761D01*
X128057142Y-118752380D01*
X113161904Y-124652380D02*
X113161904Y-123652380D01*
X113400000Y-123652380D01*
X113542857Y-123700000D01*
X113638095Y-123795238D01*
X113685714Y-123890476D01*
X113733333Y-124080952D01*
X113733333Y-124223809D01*
X113685714Y-124414285D01*
X113638095Y-124509523D01*
X113542857Y-124604761D01*
X113400000Y-124652380D01*
X113161904Y-124652380D01*
X114685714Y-124652380D02*
X114114285Y-124652380D01*
X114400000Y-124652380D02*
X114400000Y-123652380D01*
X114304761Y-123795238D01*
X114209523Y-123890476D01*
X114114285Y-123938095D01*
X111938095Y-126052380D02*
X111938095Y-125052380D01*
X112271428Y-125766666D01*
X112604761Y-125052380D01*
X112604761Y-126052380D01*
X113414285Y-125528571D02*
X113557142Y-125576190D01*
X113604761Y-125623809D01*
X113652380Y-125719047D01*
X113652380Y-125861904D01*
X113604761Y-125957142D01*
X113557142Y-126004761D01*
X113461904Y-126052380D01*
X113080952Y-126052380D01*
X113080952Y-125052380D01*
X113414285Y-125052380D01*
X113509523Y-125100000D01*
X113557142Y-125147619D01*
X113604761Y-125242857D01*
X113604761Y-125338095D01*
X113557142Y-125433333D01*
X113509523Y-125480952D01*
X113414285Y-125528571D01*
X113080952Y-125528571D01*
X114604761Y-126052380D02*
X114033333Y-126052380D01*
X114319047Y-126052380D02*
X114319047Y-125052380D01*
X114223809Y-125195238D01*
X114128571Y-125290476D01*
X114033333Y-125338095D01*
X115223809Y-125052380D02*
X115319047Y-125052380D01*
X115414285Y-125100000D01*
X115461904Y-125147619D01*
X115509523Y-125242857D01*
X115557142Y-125433333D01*
X115557142Y-125671428D01*
X115509523Y-125861904D01*
X115461904Y-125957142D01*
X115414285Y-126004761D01*
X115319047Y-126052380D01*
X115223809Y-126052380D01*
X115128571Y-126004761D01*
X115080952Y-125957142D01*
X115033333Y-125861904D01*
X114985714Y-125671428D01*
X114985714Y-125433333D01*
X115033333Y-125242857D01*
X115080952Y-125147619D01*
X115128571Y-125100000D01*
X115223809Y-125052380D01*
X115938095Y-126004761D02*
X116080952Y-126052380D01*
X116319047Y-126052380D01*
X116414285Y-126004761D01*
X116461904Y-125957142D01*
X116509523Y-125861904D01*
X116509523Y-125766666D01*
X116461904Y-125671428D01*
X116414285Y-125623809D01*
X116319047Y-125576190D01*
X116128571Y-125528571D01*
X116033333Y-125480952D01*
X115985714Y-125433333D01*
X115938095Y-125338095D01*
X115938095Y-125242857D01*
X115985714Y-125147619D01*
X116033333Y-125100000D01*
X116128571Y-125052380D01*
X116366666Y-125052380D01*
X116509523Y-125100000D01*
X124761904Y-106452380D02*
X124761904Y-105452380D01*
X125000000Y-105452380D01*
X125142857Y-105500000D01*
X125238095Y-105595238D01*
X125285714Y-105690476D01*
X125333333Y-105880952D01*
X125333333Y-106023809D01*
X125285714Y-106214285D01*
X125238095Y-106309523D01*
X125142857Y-106404761D01*
X125000000Y-106452380D01*
X124761904Y-106452380D01*
X125714285Y-105547619D02*
X125761904Y-105500000D01*
X125857142Y-105452380D01*
X126095238Y-105452380D01*
X126190476Y-105500000D01*
X126238095Y-105547619D01*
X126285714Y-105642857D01*
X126285714Y-105738095D01*
X126238095Y-105880952D01*
X125666666Y-106452380D01*
X126285714Y-106452380D01*
X140161904Y-104252380D02*
X140161904Y-103252380D01*
X140733333Y-104252380D02*
X140304761Y-103680952D01*
X140733333Y-103252380D02*
X140161904Y-103823809D01*
X141685714Y-104252380D02*
X141114285Y-104252380D01*
X141400000Y-104252380D02*
X141400000Y-103252380D01*
X141304761Y-103395238D01*
X141209523Y-103490476D01*
X141114285Y-103538095D01*
X137433333Y-84161904D02*
X137052380Y-84161904D01*
X137014285Y-84542857D01*
X137052380Y-84504761D01*
X137128571Y-84466666D01*
X137319047Y-84466666D01*
X137395238Y-84504761D01*
X137433333Y-84542857D01*
X137471428Y-84619047D01*
X137471428Y-84809523D01*
X137433333Y-84885714D01*
X137395238Y-84923809D01*
X137319047Y-84961904D01*
X137128571Y-84961904D01*
X137052380Y-84923809D01*
X137014285Y-84885714D01*
X137699999Y-84161904D02*
X137966666Y-84961904D01*
X138233333Y-84161904D01*
X139071428Y-84923809D02*
X139185714Y-84961904D01*
X139376190Y-84961904D01*
X139452380Y-84923809D01*
X139490476Y-84885714D01*
X139528571Y-84809523D01*
X139528571Y-84733333D01*
X139490476Y-84657142D01*
X139452380Y-84619047D01*
X139376190Y-84580952D01*
X139223809Y-84542857D01*
X139147619Y-84504761D01*
X139109523Y-84466666D01*
X139071428Y-84390476D01*
X139071428Y-84314285D01*
X139109523Y-84238095D01*
X139147619Y-84200000D01*
X139223809Y-84161904D01*
X139414285Y-84161904D01*
X139528571Y-84200000D01*
X140214285Y-84428571D02*
X140214285Y-84961904D01*
X139871428Y-84428571D02*
X139871428Y-84847619D01*
X139909523Y-84923809D01*
X139985714Y-84961904D01*
X140099999Y-84961904D01*
X140176190Y-84923809D01*
X140214285Y-84885714D01*
X140938095Y-84428571D02*
X140938095Y-85076190D01*
X140899999Y-85152380D01*
X140861904Y-85190476D01*
X140785714Y-85228571D01*
X140671428Y-85228571D01*
X140595238Y-85190476D01*
X140938095Y-84923809D02*
X140861904Y-84961904D01*
X140709523Y-84961904D01*
X140633333Y-84923809D01*
X140595238Y-84885714D01*
X140557142Y-84809523D01*
X140557142Y-84580952D01*
X140595238Y-84504761D01*
X140633333Y-84466666D01*
X140709523Y-84428571D01*
X140861904Y-84428571D01*
X140938095Y-84466666D01*
X141661904Y-84961904D02*
X141661904Y-84542857D01*
X141623809Y-84466666D01*
X141547619Y-84428571D01*
X141395238Y-84428571D01*
X141319047Y-84466666D01*
X141661904Y-84923809D02*
X141585714Y-84961904D01*
X141395238Y-84961904D01*
X141319047Y-84923809D01*
X141280952Y-84847619D01*
X141280952Y-84771428D01*
X141319047Y-84695238D01*
X141395238Y-84657142D01*
X141585714Y-84657142D01*
X141661904Y-84619047D01*
X142042857Y-84961904D02*
X142042857Y-84428571D01*
X142042857Y-84580952D02*
X142080952Y-84504761D01*
X142119047Y-84466666D01*
X142195238Y-84428571D01*
X142271428Y-84428571D01*
X143604761Y-84885714D02*
X143566666Y-84923809D01*
X143452380Y-84961904D01*
X143376190Y-84961904D01*
X143261904Y-84923809D01*
X143185714Y-84847619D01*
X143147619Y-84771428D01*
X143109523Y-84619047D01*
X143109523Y-84504761D01*
X143147619Y-84352380D01*
X143185714Y-84276190D01*
X143261904Y-84200000D01*
X143376190Y-84161904D01*
X143452380Y-84161904D01*
X143566666Y-84200000D01*
X143604761Y-84238095D01*
X144290476Y-84428571D02*
X144290476Y-84961904D01*
X143947619Y-84428571D02*
X143947619Y-84847619D01*
X143985714Y-84923809D01*
X144061904Y-84961904D01*
X144176190Y-84961904D01*
X144252380Y-84923809D01*
X144290476Y-84885714D01*
X144671428Y-84961904D02*
X144671428Y-84161904D01*
X144671428Y-84466666D02*
X144747619Y-84428571D01*
X144899999Y-84428571D01*
X144976190Y-84466666D01*
X145014285Y-84504761D01*
X145052380Y-84580952D01*
X145052380Y-84809523D01*
X145014285Y-84885714D01*
X144976190Y-84923809D01*
X144899999Y-84961904D01*
X144747619Y-84961904D01*
X144671428Y-84923809D01*
X145699999Y-84923809D02*
X145623809Y-84961904D01*
X145471428Y-84961904D01*
X145395238Y-84923809D01*
X145357142Y-84847619D01*
X145357142Y-84542857D01*
X145395238Y-84466666D01*
X145471428Y-84428571D01*
X145623809Y-84428571D01*
X145699999Y-84466666D01*
X145738095Y-84542857D01*
X145738095Y-84619047D01*
X145357142Y-84695238D01*
X147147619Y-84961904D02*
X146880952Y-84580952D01*
X146690476Y-84961904D02*
X146690476Y-84161904D01*
X146995238Y-84161904D01*
X147071428Y-84200000D01*
X147109523Y-84238095D01*
X147147619Y-84314285D01*
X147147619Y-84428571D01*
X147109523Y-84504761D01*
X147071428Y-84542857D01*
X146995238Y-84580952D01*
X146690476Y-84580952D01*
X147795238Y-84923809D02*
X147719047Y-84961904D01*
X147566666Y-84961904D01*
X147490476Y-84923809D01*
X147452380Y-84847619D01*
X147452380Y-84542857D01*
X147490476Y-84466666D01*
X147566666Y-84428571D01*
X147719047Y-84428571D01*
X147795238Y-84466666D01*
X147833333Y-84542857D01*
X147833333Y-84619047D01*
X147452380Y-84695238D01*
X148290476Y-84961904D02*
X148214285Y-84923809D01*
X148176190Y-84847619D01*
X148176190Y-84161904D01*
X148938095Y-84961904D02*
X148938095Y-84542857D01*
X148899999Y-84466666D01*
X148823809Y-84428571D01*
X148671428Y-84428571D01*
X148595238Y-84466666D01*
X148938095Y-84923809D02*
X148861904Y-84961904D01*
X148671428Y-84961904D01*
X148595238Y-84923809D01*
X148557142Y-84847619D01*
X148557142Y-84771428D01*
X148595238Y-84695238D01*
X148671428Y-84657142D01*
X148861904Y-84657142D01*
X148938095Y-84619047D01*
X149242857Y-84428571D02*
X149433333Y-84961904D01*
X149623809Y-84428571D02*
X149433333Y-84961904D01*
X149357142Y-85152380D01*
X149319047Y-85190476D01*
X149242857Y-85228571D01*
X130961904Y-104352380D02*
X130961904Y-103352380D01*
X131533333Y-104352380D02*
X131104761Y-103780952D01*
X131533333Y-103352380D02*
X130961904Y-103923809D01*
X131914285Y-103447619D02*
X131961904Y-103400000D01*
X132057142Y-103352380D01*
X132295238Y-103352380D01*
X132390476Y-103400000D01*
X132438095Y-103447619D01*
X132485714Y-103542857D01*
X132485714Y-103638095D01*
X132438095Y-103780952D01*
X131866666Y-104352380D01*
X132485714Y-104352380D01*
X121633333Y-83961904D02*
X121252380Y-83961904D01*
X121214285Y-84342857D01*
X121252380Y-84304761D01*
X121328571Y-84266666D01*
X121519047Y-84266666D01*
X121595238Y-84304761D01*
X121633333Y-84342857D01*
X121671428Y-84419047D01*
X121671428Y-84609523D01*
X121633333Y-84685714D01*
X121595238Y-84723809D01*
X121519047Y-84761904D01*
X121328571Y-84761904D01*
X121252380Y-84723809D01*
X121214285Y-84685714D01*
X121900000Y-83961904D02*
X122166666Y-84761904D01*
X122433333Y-83961904D01*
X123271428Y-84723809D02*
X123385714Y-84761904D01*
X123576190Y-84761904D01*
X123652380Y-84723809D01*
X123690476Y-84685714D01*
X123728571Y-84609523D01*
X123728571Y-84533333D01*
X123690476Y-84457142D01*
X123652380Y-84419047D01*
X123576190Y-84380952D01*
X123423809Y-84342857D01*
X123347619Y-84304761D01*
X123309523Y-84266666D01*
X123271428Y-84190476D01*
X123271428Y-84114285D01*
X123309523Y-84038095D01*
X123347619Y-84000000D01*
X123423809Y-83961904D01*
X123614285Y-83961904D01*
X123728571Y-84000000D01*
X124414285Y-84228571D02*
X124414285Y-84761904D01*
X124071428Y-84228571D02*
X124071428Y-84647619D01*
X124109523Y-84723809D01*
X124185714Y-84761904D01*
X124300000Y-84761904D01*
X124376190Y-84723809D01*
X124414285Y-84685714D01*
X125138095Y-84228571D02*
X125138095Y-84876190D01*
X125100000Y-84952380D01*
X125061904Y-84990476D01*
X124985714Y-85028571D01*
X124871428Y-85028571D01*
X124795238Y-84990476D01*
X125138095Y-84723809D02*
X125061904Y-84761904D01*
X124909523Y-84761904D01*
X124833333Y-84723809D01*
X124795238Y-84685714D01*
X124757142Y-84609523D01*
X124757142Y-84380952D01*
X124795238Y-84304761D01*
X124833333Y-84266666D01*
X124909523Y-84228571D01*
X125061904Y-84228571D01*
X125138095Y-84266666D01*
X125861904Y-84761904D02*
X125861904Y-84342857D01*
X125823809Y-84266666D01*
X125747619Y-84228571D01*
X125595238Y-84228571D01*
X125519047Y-84266666D01*
X125861904Y-84723809D02*
X125785714Y-84761904D01*
X125595238Y-84761904D01*
X125519047Y-84723809D01*
X125480952Y-84647619D01*
X125480952Y-84571428D01*
X125519047Y-84495238D01*
X125595238Y-84457142D01*
X125785714Y-84457142D01*
X125861904Y-84419047D01*
X126242857Y-84761904D02*
X126242857Y-84228571D01*
X126242857Y-84380952D02*
X126280952Y-84304761D01*
X126319047Y-84266666D01*
X126395238Y-84228571D01*
X126471428Y-84228571D01*
X127804761Y-84685714D02*
X127766666Y-84723809D01*
X127652380Y-84761904D01*
X127576190Y-84761904D01*
X127461904Y-84723809D01*
X127385714Y-84647619D01*
X127347619Y-84571428D01*
X127309523Y-84419047D01*
X127309523Y-84304761D01*
X127347619Y-84152380D01*
X127385714Y-84076190D01*
X127461904Y-84000000D01*
X127576190Y-83961904D01*
X127652380Y-83961904D01*
X127766666Y-84000000D01*
X127804761Y-84038095D01*
X128490476Y-84228571D02*
X128490476Y-84761904D01*
X128147619Y-84228571D02*
X128147619Y-84647619D01*
X128185714Y-84723809D01*
X128261904Y-84761904D01*
X128376190Y-84761904D01*
X128452380Y-84723809D01*
X128490476Y-84685714D01*
X128871428Y-84761904D02*
X128871428Y-83961904D01*
X128871428Y-84266666D02*
X128947619Y-84228571D01*
X129100000Y-84228571D01*
X129176190Y-84266666D01*
X129214285Y-84304761D01*
X129252380Y-84380952D01*
X129252380Y-84609523D01*
X129214285Y-84685714D01*
X129176190Y-84723809D01*
X129100000Y-84761904D01*
X128947619Y-84761904D01*
X128871428Y-84723809D01*
X129900000Y-84723809D02*
X129823809Y-84761904D01*
X129671428Y-84761904D01*
X129595238Y-84723809D01*
X129557142Y-84647619D01*
X129557142Y-84342857D01*
X129595238Y-84266666D01*
X129671428Y-84228571D01*
X129823809Y-84228571D01*
X129900000Y-84266666D01*
X129938095Y-84342857D01*
X129938095Y-84419047D01*
X129557142Y-84495238D01*
X131347619Y-84761904D02*
X131080952Y-84380952D01*
X130890476Y-84761904D02*
X130890476Y-83961904D01*
X131195238Y-83961904D01*
X131271428Y-84000000D01*
X131309523Y-84038095D01*
X131347619Y-84114285D01*
X131347619Y-84228571D01*
X131309523Y-84304761D01*
X131271428Y-84342857D01*
X131195238Y-84380952D01*
X130890476Y-84380952D01*
X131995238Y-84723809D02*
X131919047Y-84761904D01*
X131766666Y-84761904D01*
X131690476Y-84723809D01*
X131652380Y-84647619D01*
X131652380Y-84342857D01*
X131690476Y-84266666D01*
X131766666Y-84228571D01*
X131919047Y-84228571D01*
X131995238Y-84266666D01*
X132033333Y-84342857D01*
X132033333Y-84419047D01*
X131652380Y-84495238D01*
X132490476Y-84761904D02*
X132414285Y-84723809D01*
X132376190Y-84647619D01*
X132376190Y-83961904D01*
X133138095Y-84761904D02*
X133138095Y-84342857D01*
X133100000Y-84266666D01*
X133023809Y-84228571D01*
X132871428Y-84228571D01*
X132795238Y-84266666D01*
X133138095Y-84723809D02*
X133061904Y-84761904D01*
X132871428Y-84761904D01*
X132795238Y-84723809D01*
X132757142Y-84647619D01*
X132757142Y-84571428D01*
X132795238Y-84495238D01*
X132871428Y-84457142D01*
X133061904Y-84457142D01*
X133138095Y-84419047D01*
X133442857Y-84228571D02*
X133633333Y-84761904D01*
X133823809Y-84228571D02*
X133633333Y-84761904D01*
X133557142Y-84952380D01*
X133519047Y-84990476D01*
X133442857Y-85028571D01*
X113916666Y-92202380D02*
X113916666Y-92916666D01*
X113869047Y-93059523D01*
X113773809Y-93154761D01*
X113630952Y-93202380D01*
X113535714Y-93202380D01*
X114821428Y-92535714D02*
X114821428Y-93202380D01*
X114583333Y-92154761D02*
X114345238Y-92869047D01*
X114964285Y-92869047D01*
X113916666Y-103202380D02*
X113916666Y-103916666D01*
X113869047Y-104059523D01*
X113773809Y-104154761D01*
X113630952Y-104202380D01*
X113535714Y-104202380D01*
X114297619Y-103202380D02*
X114916666Y-103202380D01*
X114583333Y-103583333D01*
X114726190Y-103583333D01*
X114821428Y-103630952D01*
X114869047Y-103678571D01*
X114916666Y-103773809D01*
X114916666Y-104011904D01*
X114869047Y-104107142D01*
X114821428Y-104154761D01*
X114726190Y-104202380D01*
X114440476Y-104202380D01*
X114345238Y-104154761D01*
X114297619Y-104107142D01*
X115516666Y-118322380D02*
X115516666Y-119036666D01*
X115469047Y-119179523D01*
X115373809Y-119274761D01*
X115230952Y-119322380D01*
X115135714Y-119322380D01*
X116516666Y-119322380D02*
X115945238Y-119322380D01*
X116230952Y-119322380D02*
X116230952Y-118322380D01*
X116135714Y-118465238D01*
X116040476Y-118560476D01*
X115945238Y-118608095D01*
X124861904Y-115452380D02*
X124861904Y-114452380D01*
X125100000Y-114452380D01*
X125242857Y-114500000D01*
X125338095Y-114595238D01*
X125385714Y-114690476D01*
X125433333Y-114880952D01*
X125433333Y-115023809D01*
X125385714Y-115214285D01*
X125338095Y-115309523D01*
X125242857Y-115404761D01*
X125100000Y-115452380D01*
X124861904Y-115452380D01*
X125766666Y-114452380D02*
X126385714Y-114452380D01*
X126052380Y-114833333D01*
X126195238Y-114833333D01*
X126290476Y-114880952D01*
X126338095Y-114928571D01*
X126385714Y-115023809D01*
X126385714Y-115261904D01*
X126338095Y-115357142D01*
X126290476Y-115404761D01*
X126195238Y-115452380D01*
X125909523Y-115452380D01*
X125814285Y-115404761D01*
X125766666Y-115357142D01*
X134533333Y-114657142D02*
X134485714Y-114704761D01*
X134342857Y-114752380D01*
X134247619Y-114752380D01*
X134104761Y-114704761D01*
X134009523Y-114609523D01*
X133961904Y-114514285D01*
X133914285Y-114323809D01*
X133914285Y-114180952D01*
X133961904Y-113990476D01*
X134009523Y-113895238D01*
X134104761Y-113800000D01*
X134247619Y-113752380D01*
X134342857Y-113752380D01*
X134485714Y-113800000D01*
X134533333Y-113847619D01*
X134914285Y-113847619D02*
X134961904Y-113800000D01*
X135057142Y-113752380D01*
X135295238Y-113752380D01*
X135390476Y-113800000D01*
X135438095Y-113847619D01*
X135485714Y-113942857D01*
X135485714Y-114038095D01*
X135438095Y-114180952D01*
X134866666Y-114752380D01*
X135485714Y-114752380D01*
X133238095Y-115852380D02*
X132666666Y-115852380D01*
X132952380Y-115852380D02*
X132952380Y-114852380D01*
X132857142Y-114995238D01*
X132761904Y-115090476D01*
X132666666Y-115138095D01*
X133857142Y-114852380D02*
X133952380Y-114852380D01*
X134047619Y-114900000D01*
X134095238Y-114947619D01*
X134142857Y-115042857D01*
X134190476Y-115233333D01*
X134190476Y-115471428D01*
X134142857Y-115661904D01*
X134095238Y-115757142D01*
X134047619Y-115804761D01*
X133952380Y-115852380D01*
X133857142Y-115852380D01*
X133761904Y-115804761D01*
X133714285Y-115757142D01*
X133666666Y-115661904D01*
X133619047Y-115471428D01*
X133619047Y-115233333D01*
X133666666Y-115042857D01*
X133714285Y-114947619D01*
X133761904Y-114900000D01*
X133857142Y-114852380D01*
X134809523Y-114852380D02*
X134904761Y-114852380D01*
X135000000Y-114900000D01*
X135047619Y-114947619D01*
X135095238Y-115042857D01*
X135142857Y-115233333D01*
X135142857Y-115471428D01*
X135095238Y-115661904D01*
X135047619Y-115757142D01*
X135000000Y-115804761D01*
X134904761Y-115852380D01*
X134809523Y-115852380D01*
X134714285Y-115804761D01*
X134666666Y-115757142D01*
X134619047Y-115661904D01*
X134571428Y-115471428D01*
X134571428Y-115233333D01*
X134619047Y-115042857D01*
X134666666Y-114947619D01*
X134714285Y-114900000D01*
X134809523Y-114852380D01*
X135761904Y-114852380D02*
X135857142Y-114852380D01*
X135952380Y-114900000D01*
X136000000Y-114947619D01*
X136047619Y-115042857D01*
X136095238Y-115233333D01*
X136095238Y-115471428D01*
X136047619Y-115661904D01*
X136000000Y-115757142D01*
X135952380Y-115804761D01*
X135857142Y-115852380D01*
X135761904Y-115852380D01*
X135666666Y-115804761D01*
X135619047Y-115757142D01*
X135571428Y-115661904D01*
X135523809Y-115471428D01*
X135523809Y-115233333D01*
X135571428Y-115042857D01*
X135619047Y-114947619D01*
X135666666Y-114900000D01*
X135761904Y-114852380D01*
X136571428Y-115804761D02*
X136571428Y-115852380D01*
X136523809Y-115947619D01*
X136476190Y-115995238D01*
X136523809Y-115233333D02*
X136571428Y-115280952D01*
X136523809Y-115328571D01*
X136476190Y-115280952D01*
X136523809Y-115233333D01*
X136523809Y-115328571D01*
X136952380Y-114947619D02*
X137000000Y-114900000D01*
X137095238Y-114852380D01*
X137333333Y-114852380D01*
X137428571Y-114900000D01*
X137476190Y-114947619D01*
X137523809Y-115042857D01*
X137523809Y-115138095D01*
X137476190Y-115280952D01*
X136904761Y-115852380D01*
X137523809Y-115852380D01*
X138428571Y-114852380D02*
X137952380Y-114852380D01*
X137904761Y-115328571D01*
X137952380Y-115280952D01*
X138047619Y-115233333D01*
X138285714Y-115233333D01*
X138380952Y-115280952D01*
X138428571Y-115328571D01*
X138476190Y-115423809D01*
X138476190Y-115661904D01*
X138428571Y-115757142D01*
X138380952Y-115804761D01*
X138285714Y-115852380D01*
X138047619Y-115852380D01*
X137952380Y-115804761D01*
X137904761Y-115757142D01*
X138761904Y-114852380D02*
X139095238Y-115852380D01*
X139428571Y-114852380D01*
X118900000Y-122871428D02*
X118900000Y-122271428D01*
X119100000Y-122700000D01*
X119300000Y-122271428D01*
X119300000Y-122871428D01*
X119585714Y-122871428D02*
X119585714Y-122271428D01*
X119585714Y-122557142D02*
X119928571Y-122557142D01*
X119928571Y-122871428D02*
X119928571Y-122271428D01*
X120528571Y-122871428D02*
X120185714Y-122871428D01*
X120357142Y-122871428D02*
X120357142Y-122271428D01*
X120300000Y-122357142D01*
X120242857Y-122414285D01*
X120185714Y-122442857D01*
X146866666Y-103452380D02*
X146866666Y-104166666D01*
X146819047Y-104309523D01*
X146723809Y-104404761D01*
X146580952Y-104452380D01*
X146485714Y-104452380D01*
X147247619Y-103452380D02*
X147914285Y-103452380D01*
X147485714Y-104452380D01*
X110533333Y-112561904D02*
X110533333Y-113133333D01*
X110495238Y-113247619D01*
X110419047Y-113323809D01*
X110304761Y-113361904D01*
X110228571Y-113361904D01*
X111295238Y-112561904D02*
X110914285Y-112561904D01*
X110876190Y-112942857D01*
X110914285Y-112904761D01*
X110990476Y-112866666D01*
X111180952Y-112866666D01*
X111257142Y-112904761D01*
X111295238Y-112942857D01*
X111333333Y-113019047D01*
X111333333Y-113209523D01*
X111295238Y-113285714D01*
X111257142Y-113323809D01*
X111180952Y-113361904D01*
X110990476Y-113361904D01*
X110914285Y-113323809D01*
X110876190Y-113285714D01*
X140933333Y-118457142D02*
X140885714Y-118504761D01*
X140742857Y-118552380D01*
X140647619Y-118552380D01*
X140504761Y-118504761D01*
X140409523Y-118409523D01*
X140361904Y-118314285D01*
X140314285Y-118123809D01*
X140314285Y-117980952D01*
X140361904Y-117790476D01*
X140409523Y-117695238D01*
X140504761Y-117600000D01*
X140647619Y-117552380D01*
X140742857Y-117552380D01*
X140885714Y-117600000D01*
X140933333Y-117647619D01*
X141266666Y-117552380D02*
X141885714Y-117552380D01*
X141552380Y-117933333D01*
X141695238Y-117933333D01*
X141790476Y-117980952D01*
X141838095Y-118028571D01*
X141885714Y-118123809D01*
X141885714Y-118361904D01*
X141838095Y-118457142D01*
X141790476Y-118504761D01*
X141695238Y-118552380D01*
X141409523Y-118552380D01*
X141314285Y-118504761D01*
X141266666Y-118457142D01*
X138838095Y-119852380D02*
X138266666Y-119852380D01*
X138552380Y-119852380D02*
X138552380Y-118852380D01*
X138457142Y-118995238D01*
X138361904Y-119090476D01*
X138266666Y-119138095D01*
X139457142Y-118852380D02*
X139552380Y-118852380D01*
X139647619Y-118900000D01*
X139695238Y-118947619D01*
X139742857Y-119042857D01*
X139790476Y-119233333D01*
X139790476Y-119471428D01*
X139742857Y-119661904D01*
X139695238Y-119757142D01*
X139647619Y-119804761D01*
X139552380Y-119852380D01*
X139457142Y-119852380D01*
X139361904Y-119804761D01*
X139314285Y-119757142D01*
X139266666Y-119661904D01*
X139219047Y-119471428D01*
X139219047Y-119233333D01*
X139266666Y-119042857D01*
X139314285Y-118947619D01*
X139361904Y-118900000D01*
X139457142Y-118852380D01*
X140409523Y-118852380D02*
X140504761Y-118852380D01*
X140600000Y-118900000D01*
X140647619Y-118947619D01*
X140695238Y-119042857D01*
X140742857Y-119233333D01*
X140742857Y-119471428D01*
X140695238Y-119661904D01*
X140647619Y-119757142D01*
X140600000Y-119804761D01*
X140504761Y-119852380D01*
X140409523Y-119852380D01*
X140314285Y-119804761D01*
X140266666Y-119757142D01*
X140219047Y-119661904D01*
X140171428Y-119471428D01*
X140171428Y-119233333D01*
X140219047Y-119042857D01*
X140266666Y-118947619D01*
X140314285Y-118900000D01*
X140409523Y-118852380D01*
X141361904Y-118852380D02*
X141457142Y-118852380D01*
X141552380Y-118900000D01*
X141600000Y-118947619D01*
X141647619Y-119042857D01*
X141695238Y-119233333D01*
X141695238Y-119471428D01*
X141647619Y-119661904D01*
X141600000Y-119757142D01*
X141552380Y-119804761D01*
X141457142Y-119852380D01*
X141361904Y-119852380D01*
X141266666Y-119804761D01*
X141219047Y-119757142D01*
X141171428Y-119661904D01*
X141123809Y-119471428D01*
X141123809Y-119233333D01*
X141171428Y-119042857D01*
X141219047Y-118947619D01*
X141266666Y-118900000D01*
X141361904Y-118852380D01*
X142171428Y-119804761D02*
X142171428Y-119852380D01*
X142123809Y-119947619D01*
X142076190Y-119995238D01*
X142123809Y-119233333D02*
X142171428Y-119280952D01*
X142123809Y-119328571D01*
X142076190Y-119280952D01*
X142123809Y-119233333D01*
X142123809Y-119328571D01*
X142552380Y-118947619D02*
X142600000Y-118900000D01*
X142695238Y-118852380D01*
X142933333Y-118852380D01*
X143028571Y-118900000D01*
X143076190Y-118947619D01*
X143123809Y-119042857D01*
X143123809Y-119138095D01*
X143076190Y-119280952D01*
X142504761Y-119852380D01*
X143123809Y-119852380D01*
X144028571Y-118852380D02*
X143552380Y-118852380D01*
X143504761Y-119328571D01*
X143552380Y-119280952D01*
X143647619Y-119233333D01*
X143885714Y-119233333D01*
X143980952Y-119280952D01*
X144028571Y-119328571D01*
X144076190Y-119423809D01*
X144076190Y-119661904D01*
X144028571Y-119757142D01*
X143980952Y-119804761D01*
X143885714Y-119852380D01*
X143647619Y-119852380D01*
X143552380Y-119804761D01*
X143504761Y-119757142D01*
X144361904Y-118852380D02*
X144695238Y-119852380D01*
X145028571Y-118852380D01*
X135966666Y-104152380D02*
X135966666Y-104866666D01*
X135919047Y-105009523D01*
X135823809Y-105104761D01*
X135680952Y-105152380D01*
X135585714Y-105152380D01*
X136395238Y-104247619D02*
X136442857Y-104200000D01*
X136538095Y-104152380D01*
X136776190Y-104152380D01*
X136871428Y-104200000D01*
X136919047Y-104247619D01*
X136966666Y-104342857D01*
X136966666Y-104438095D01*
X136919047Y-104580952D01*
X136347619Y-105152380D01*
X136966666Y-105152380D01*
D14*
X129650000Y-120530000D02*
X129650000Y-119030000D01*
X129650000Y-119030000D02*
X129920000Y-119030000D01*
X136280000Y-119030000D02*
X136280000Y-116200000D01*
X136550000Y-120530000D02*
X136550000Y-119030000D01*
X129920000Y-119030000D02*
X129920000Y-117930000D01*
X136550000Y-119030000D02*
X136280000Y-119030000D01*
X116400000Y-130300000D02*
X116400000Y-130650000D01*
X116400000Y-126350000D02*
X112400000Y-126350000D01*
X116400000Y-130300000D02*
X118000000Y-130300000D01*
X112400000Y-126350000D02*
X112400000Y-126700000D01*
X112400000Y-130650000D02*
X112400000Y-130300000D01*
X116400000Y-127750000D02*
X116400000Y-129250000D01*
X116400000Y-126700000D02*
X116400000Y-126350000D01*
X112400000Y-127750000D02*
X112400000Y-129250000D01*
X116400000Y-130650000D02*
X112400000Y-130650000D01*
X124690000Y-109545000D02*
X124690000Y-106455000D01*
X124690000Y-106455170D02*
G75*
G03*
X119140000Y-108000462I-2560000J-1544830D01*
G01*
X119140000Y-107999538D02*
G75*
G03*
X124690000Y-109544830I2990000J-462D01*
G01*
X124630000Y-108000000D02*
G75*
G03*
X124630000Y-108000000I-2500000J0D01*
G01*
X141850000Y-93550000D02*
X145450000Y-93550000D01*
X147800000Y-87450000D02*
X145350000Y-87450000D01*
X149650000Y-98050000D02*
X149650000Y-95550000D01*
X143650000Y-90650000D02*
X141150000Y-86050000D01*
X145450000Y-95550000D02*
X149650000Y-95550000D01*
X143650000Y-92150000D02*
X147250000Y-92150000D01*
X141850000Y-97550000D02*
X141850000Y-93550000D01*
X135800000Y-103000000D02*
X142400000Y-103000000D01*
X137650000Y-95550000D02*
X137650000Y-98050000D01*
X145450000Y-93550000D02*
X145450000Y-97550000D01*
X143650000Y-98950000D02*
X143650000Y-99750000D01*
X137650000Y-95550000D02*
X141850000Y-95550000D01*
X150500000Y-102950000D02*
X145350000Y-102950000D01*
X150500000Y-83150000D02*
X150500000Y-102950000D01*
X145450000Y-93550000D02*
X141850000Y-97550000D01*
X135800000Y-83150000D02*
X150500000Y-83150000D01*
X139400000Y-87450000D02*
X141900000Y-87450000D01*
X143650000Y-98950000D02*
X147250000Y-98950000D01*
X143650000Y-92150000D02*
X143650000Y-90650000D01*
X147250000Y-92150000D02*
X147250000Y-98950000D01*
X135800000Y-103000000D02*
X135800000Y-83200000D01*
X145450000Y-97550000D02*
X141850000Y-97550000D01*
X127450000Y-98950000D02*
X131050000Y-98950000D01*
X127450000Y-92150000D02*
X127450000Y-90650000D01*
X129250000Y-95550000D02*
X133450000Y-95550000D01*
X125650000Y-97550000D02*
X125650000Y-93550000D01*
X131600000Y-87450000D02*
X129150000Y-87450000D01*
X127450000Y-92150000D02*
X131050000Y-92150000D01*
X127450000Y-98950000D02*
X127450000Y-99750000D01*
X127450000Y-90650000D02*
X124950000Y-86050000D01*
X129250000Y-93550000D02*
X125650000Y-97550000D01*
X128600000Y-103000000D02*
X135200000Y-103000000D01*
X129250000Y-97550000D02*
X125650000Y-97550000D01*
X121450000Y-95550000D02*
X121450000Y-98050000D01*
X131050000Y-92150000D02*
X131050000Y-98950000D01*
X125650000Y-93550000D02*
X129250000Y-93550000D01*
X135200000Y-83200000D02*
X135200000Y-103000000D01*
X119600000Y-83200000D02*
X135200000Y-83200000D01*
X119600000Y-103000000D02*
X126200000Y-103000000D01*
X129250000Y-93550000D02*
X129250000Y-97550000D01*
X123200000Y-87450000D02*
X125700000Y-87450000D01*
X133450000Y-98050000D02*
X133450000Y-95550000D01*
X121450000Y-95550000D02*
X125650000Y-95550000D01*
X119600000Y-103000000D02*
X119600000Y-83200000D01*
X124665000Y-114545000D02*
X124665000Y-111455000D01*
X124665000Y-111455170D02*
G75*
G03*
X119115000Y-113000462I-2560000J-1544830D01*
G01*
X119115000Y-112999538D02*
G75*
G03*
X124665000Y-114544830I2990000J-462D01*
G01*
X124605000Y-113000000D02*
G75*
G03*
X124605000Y-113000000I-2500000J0D01*
G01*
X135320000Y-109900000D02*
G75*
G03*
X135320000Y-109900000I-5120000J0D01*
G01*
X150810000Y-106790000D02*
X150810000Y-104290000D01*
X137790000Y-106090000D02*
X138790000Y-106090000D01*
X150010000Y-106900000D02*
X150010000Y-108110000D01*
X137790000Y-108610000D02*
X150510000Y-108610000D01*
X150010000Y-108110000D02*
X138290000Y-108110000D01*
X150810000Y-104290000D02*
X148310000Y-104290000D01*
X137790000Y-104590000D02*
X137790000Y-108610000D01*
X150510000Y-106900000D02*
X150010000Y-106900000D01*
X150510000Y-108610000D02*
X150510000Y-104590000D01*
X149510000Y-106090000D02*
X149510000Y-104590000D01*
X138290000Y-108110000D02*
X138290000Y-106900000D01*
X138290000Y-106900000D02*
X137790000Y-106900000D01*
X150510000Y-104590000D02*
X137790000Y-104590000D01*
X150510000Y-106090000D02*
X149510000Y-106090000D01*
X138790000Y-106090000D02*
X138790000Y-104590000D01*
X145550000Y-111800000D02*
X150050000Y-111800000D01*
X150050000Y-111800000D02*
X150050000Y-118800000D01*
X150050000Y-118800000D02*
X145550000Y-118800000D01*
X145550000Y-118800000D02*
X145550000Y-111800000D01*
X148020000Y-125300000D02*
G75*
G03*
X148020000Y-125300000I-5120000J0D01*
G01*
X137750806Y-106900000D02*
G75*
G03*
X137750806Y-106900000I-1550806J0D01*
G01*
M02*
