G04 #@! TF.GenerationSoftware,KiCad,Pcbnew,(6.0.7)*
G04 #@! TF.CreationDate,2023-05-10T15:43:49+05:30*
G04 #@! TF.ProjectId,PS440V_to_5V,50533434-3056-45f7-946f-5f35562e6b69,rev?*
G04 #@! TF.SameCoordinates,Original*
G04 #@! TF.FileFunction,Profile,NP*
%FSLAX46Y46*%
G04 Gerber Fmt 4.6, Leading zero omitted, Abs format (unit mm)*
G04 Created by KiCad (PCBNEW (6.0.7)) date 2023-05-10 15:43:49*
%MOMM*%
%LPD*%
G01*
G04 APERTURE LIST*
G04 #@! TA.AperFunction,Profile*
%ADD10C,0.150000*%
G04 #@! TD*
G04 APERTURE END LIST*
D10*
X109800000Y-85500000D02*
X109800000Y-131500000D01*
X125600000Y-99924116D02*
X126100000Y-100424116D01*
X118500000Y-106300000D02*
X110300000Y-106300000D01*
X119400000Y-107300000D02*
X119400000Y-101700000D01*
X141800000Y-99900000D02*
G75*
G03*
X145400000Y-99900000I1800000J-1700000D01*
G01*
X120200000Y-100869181D02*
X119700000Y-101369181D01*
X119400000Y-101700000D02*
X118500000Y-101700000D01*
X142300000Y-100400000D02*
G75*
G03*
X144900000Y-100400000I1300000J-1200000D01*
G01*
X144900000Y-100400000D02*
X145400000Y-99900000D01*
X128700000Y-100424116D02*
X129200000Y-99924116D01*
X150800000Y-85500000D02*
X150800000Y-128500000D01*
X109800000Y-131500000D02*
X150800000Y-131500000D01*
X110300000Y-107300000D02*
X119400000Y-107300000D01*
X112800000Y-82500000D02*
G75*
G03*
X109800000Y-85500000I0J-3000000D01*
G01*
X150800000Y-131500000D02*
X150800000Y-128500000D01*
X150800000Y-85500000D02*
G75*
G03*
X147800000Y-82500000I-3000000J0D01*
G01*
X123300000Y-101369181D02*
G75*
G03*
X119700000Y-101369181I-1800000J1700000D01*
G01*
X147800000Y-82500000D02*
X112800000Y-82500000D01*
X123300000Y-101369181D02*
X122800000Y-100869181D01*
X141800000Y-99900000D02*
X142300000Y-100400000D01*
X125600000Y-99924116D02*
G75*
G03*
X129200000Y-99924116I1800000J-1700000D01*
G01*
X110300000Y-106300000D02*
X110300000Y-107300000D01*
X118500000Y-101700000D02*
X118500000Y-106300000D01*
X126100000Y-100424116D02*
G75*
G03*
X128700000Y-100424116I1300000J-1200000D01*
G01*
X122800000Y-100869181D02*
G75*
G03*
X120200000Y-100869181I-1300000J1200000D01*
G01*
M02*
