G04 #@! TF.GenerationSoftware,KiCad,Pcbnew,(6.0.7)*
G04 #@! TF.CreationDate,2023-05-10T15:43:49+05:30*
G04 #@! TF.ProjectId,PS440V_to_5V,50533434-3056-45f7-946f-5f35562e6b69,rev?*
G04 #@! TF.SameCoordinates,Original*
G04 #@! TF.FileFunction,Soldermask,Top*
G04 #@! TF.FilePolarity,Negative*
%FSLAX46Y46*%
G04 Gerber Fmt 4.6, Leading zero omitted, Abs format (unit mm)*
G04 Created by KiCad (PCBNEW (6.0.7)) date 2023-05-10 15:43:49*
%MOMM*%
%LPD*%
G01*
G04 APERTURE LIST*
G04 Aperture macros list*
%AMRoundRect*
0 Rectangle with rounded corners*
0 $1 Rounding radius*
0 $2 $3 $4 $5 $6 $7 $8 $9 X,Y pos of 4 corners*
0 Add a 4 corners polygon primitive as box body*
4,1,4,$2,$3,$4,$5,$6,$7,$8,$9,$2,$3,0*
0 Add four circle primitives for the rounded corners*
1,1,$1+$1,$2,$3*
1,1,$1+$1,$4,$5*
1,1,$1+$1,$6,$7*
1,1,$1+$1,$8,$9*
0 Add four rect primitives between the rounded corners*
20,1,$1+$1,$2,$3,$4,$5,0*
20,1,$1+$1,$4,$5,$6,$7,0*
20,1,$1+$1,$6,$7,$8,$9,0*
20,1,$1+$1,$8,$9,$2,$3,0*%
G04 Aperture macros list end*
%ADD10RoundRect,0.200000X-0.700000X1.200000X-0.700000X-1.200000X0.700000X-1.200000X0.700000X1.200000X0*%
%ADD11RoundRect,0.200000X-3.850000X3.750000X-3.850000X-3.750000X3.850000X-3.750000X3.850000X3.750000X0*%
%ADD12RoundRect,0.200000X0.725000X0.500000X-0.725000X0.500000X-0.725000X-0.500000X0.725000X-0.500000X0*%
%ADD13RoundRect,0.200000X0.900000X0.900000X-0.900000X0.900000X-0.900000X-0.900000X0.900000X-0.900000X0*%
%ADD14C,2.200000*%
%ADD15C,2.900000*%
%ADD16O,1.900000X3.400000*%
%ADD17C,1.900000*%
%ADD18C,2.400000*%
%ADD19O,2.400000X5.400000*%
%ADD20RoundRect,0.200000X-2.000000X-0.850000X2.000000X-0.850000X2.000000X0.850000X-2.000000X0.850000X0*%
%ADD21O,4.400000X2.100000*%
%ADD22C,2.000000*%
%ADD23C,4.800000*%
%ADD24RoundRect,0.450000X0.600000X0.725000X-0.600000X0.725000X-0.600000X-0.725000X0.600000X-0.725000X0*%
%ADD25O,2.100000X2.350000*%
%ADD26O,4.400000X2.600000*%
%ADD27O,4.400000X2.900000*%
%ADD28O,2.200000X3.400000*%
G04 APERTURE END LIST*
D10*
X135380000Y-117300000D03*
D11*
X133100000Y-124050000D03*
D10*
X130820000Y-117300000D03*
D12*
X117150000Y-129770000D03*
X117150000Y-127230000D03*
X111650000Y-127230000D03*
X111650000Y-129770000D03*
D13*
X123400000Y-108000000D03*
D14*
X120860000Y-108000000D03*
D15*
X143600000Y-101600000D03*
D16*
X149650000Y-99650000D03*
D17*
X149650000Y-87450000D03*
D15*
X137600000Y-87400000D03*
X137650000Y-99650000D03*
X127400000Y-101600000D03*
X133450000Y-99650000D03*
X133450000Y-87450000D03*
D18*
X121400000Y-87400000D03*
D15*
X121450000Y-99650000D03*
D19*
X116970000Y-92600000D03*
X111890000Y-92600000D03*
X111830000Y-103400000D03*
X116910000Y-103400000D03*
D20*
X115900000Y-117100000D03*
D21*
X115900000Y-120910000D03*
D13*
X123375000Y-113000000D03*
D14*
X120835000Y-113000000D03*
D22*
X130200000Y-107400000D03*
X130200000Y-112400000D03*
D23*
X121800000Y-120500000D03*
D24*
X147900000Y-106900000D03*
D25*
X145400000Y-106900000D03*
X142900000Y-106900000D03*
X140400000Y-106900000D03*
D26*
X113025000Y-110700000D03*
D27*
X147800000Y-113450000D03*
X147800000Y-117200000D03*
D22*
X142900000Y-122800000D03*
X142900000Y-127800000D03*
D28*
X136200000Y-106900000D03*
M02*
