G04 #@! TF.GenerationSoftware,KiCad,Pcbnew,(6.0.7)*
G04 #@! TF.CreationDate,2023-05-10T15:43:49+05:30*
G04 #@! TF.ProjectId,PS440V_to_5V,50533434-3056-45f7-946f-5f35562e6b69,rev?*
G04 #@! TF.SameCoordinates,Original*
G04 #@! TF.FileFunction,Copper,L1,Top*
G04 #@! TF.FilePolarity,Positive*
%FSLAX46Y46*%
G04 Gerber Fmt 4.6, Leading zero omitted, Abs format (unit mm)*
G04 Created by KiCad (PCBNEW (6.0.7)) date 2023-05-10 15:43:49*
%MOMM*%
%LPD*%
G01*
G04 APERTURE LIST*
G04 Aperture macros list*
%AMRoundRect*
0 Rectangle with rounded corners*
0 $1 Rounding radius*
0 $2 $3 $4 $5 $6 $7 $8 $9 X,Y pos of 4 corners*
0 Add a 4 corners polygon primitive as box body*
4,1,4,$2,$3,$4,$5,$6,$7,$8,$9,$2,$3,0*
0 Add four circle primitives for the rounded corners*
1,1,$1+$1,$2,$3*
1,1,$1+$1,$4,$5*
1,1,$1+$1,$6,$7*
1,1,$1+$1,$8,$9*
0 Add four rect primitives between the rounded corners*
20,1,$1+$1,$2,$3,$4,$5,0*
20,1,$1+$1,$4,$5,$6,$7,0*
20,1,$1+$1,$6,$7,$8,$9,0*
20,1,$1+$1,$8,$9,$2,$3,0*%
G04 Aperture macros list end*
G04 #@! TA.AperFunction,SMDPad,CuDef*
%ADD10R,1.400000X2.400000*%
G04 #@! TD*
G04 #@! TA.AperFunction,SMDPad,CuDef*
%ADD11R,7.700000X7.500000*%
G04 #@! TD*
G04 #@! TA.AperFunction,SMDPad,CuDef*
%ADD12R,1.450000X1.000000*%
G04 #@! TD*
G04 #@! TA.AperFunction,ComponentPad*
%ADD13R,1.800000X1.800000*%
G04 #@! TD*
G04 #@! TA.AperFunction,ComponentPad*
%ADD14C,1.800000*%
G04 #@! TD*
G04 #@! TA.AperFunction,ComponentPad*
%ADD15C,2.500000*%
G04 #@! TD*
G04 #@! TA.AperFunction,ComponentPad*
%ADD16O,1.500000X3.000000*%
G04 #@! TD*
G04 #@! TA.AperFunction,ComponentPad*
%ADD17C,1.500000*%
G04 #@! TD*
G04 #@! TA.AperFunction,ComponentPad*
%ADD18C,2.000000*%
G04 #@! TD*
G04 #@! TA.AperFunction,ComponentPad*
%ADD19O,2.000000X5.000000*%
G04 #@! TD*
G04 #@! TA.AperFunction,ComponentPad*
%ADD20R,4.000000X1.700000*%
G04 #@! TD*
G04 #@! TA.AperFunction,ComponentPad*
%ADD21O,4.000000X1.700000*%
G04 #@! TD*
G04 #@! TA.AperFunction,ComponentPad*
%ADD22C,1.600000*%
G04 #@! TD*
G04 #@! TA.AperFunction,ComponentPad*
%ADD23C,4.400000*%
G04 #@! TD*
G04 #@! TA.AperFunction,ComponentPad*
%ADD24RoundRect,0.250000X0.600000X0.725000X-0.600000X0.725000X-0.600000X-0.725000X0.600000X-0.725000X0*%
G04 #@! TD*
G04 #@! TA.AperFunction,ComponentPad*
%ADD25O,1.700000X1.950000*%
G04 #@! TD*
G04 #@! TA.AperFunction,ComponentPad*
%ADD26O,4.000000X2.200000*%
G04 #@! TD*
G04 #@! TA.AperFunction,ComponentPad*
%ADD27O,4.000000X2.500000*%
G04 #@! TD*
G04 #@! TA.AperFunction,ComponentPad*
%ADD28O,1.800000X3.000000*%
G04 #@! TD*
G04 #@! TA.AperFunction,ViaPad*
%ADD29C,0.800000*%
G04 #@! TD*
G04 #@! TA.AperFunction,Conductor*
%ADD30C,1.000000*%
G04 #@! TD*
G04 #@! TA.AperFunction,Conductor*
%ADD31C,0.500000*%
G04 #@! TD*
G04 #@! TA.AperFunction,Conductor*
%ADD32C,0.250000*%
G04 #@! TD*
G04 #@! TA.AperFunction,Conductor*
%ADD33C,2.000000*%
G04 #@! TD*
G04 APERTURE END LIST*
D10*
X135380000Y-117300000D03*
D11*
X133100000Y-124050000D03*
D10*
X130820000Y-117300000D03*
D12*
X117150000Y-129770000D03*
X117150000Y-127230000D03*
X111650000Y-127230000D03*
X111650000Y-129770000D03*
D13*
X123400000Y-108000000D03*
D14*
X120860000Y-108000000D03*
D15*
X143600000Y-101600000D03*
D16*
X149650000Y-99650000D03*
D17*
X149650000Y-87450000D03*
D15*
X137600000Y-87400000D03*
X137650000Y-99650000D03*
X127400000Y-101600000D03*
X133450000Y-99650000D03*
X133450000Y-87450000D03*
D18*
X121400000Y-87400000D03*
D15*
X121450000Y-99650000D03*
D19*
X116970000Y-92600000D03*
X111890000Y-92600000D03*
X111830000Y-103400000D03*
X116910000Y-103400000D03*
D20*
X115900000Y-117100000D03*
D21*
X115900000Y-120910000D03*
D13*
X123375000Y-113000000D03*
D14*
X120835000Y-113000000D03*
D22*
X130200000Y-107400000D03*
X130200000Y-112400000D03*
D23*
X121800000Y-120500000D03*
D24*
X147900000Y-106900000D03*
D25*
X145400000Y-106900000D03*
X142900000Y-106900000D03*
X140400000Y-106900000D03*
D26*
X113025000Y-110700000D03*
D27*
X147800000Y-113450000D03*
X147800000Y-117200000D03*
D22*
X142900000Y-122800000D03*
X142900000Y-127800000D03*
D28*
X136200000Y-106900000D03*
D29*
X144100000Y-116700000D03*
X144100000Y-115300000D03*
X149200000Y-119700000D03*
X149400000Y-124900000D03*
X128900001Y-117300002D03*
X129300000Y-130200000D03*
X130700000Y-130100000D03*
X137877131Y-124922869D03*
X118300000Y-111400000D03*
X118300000Y-110300000D03*
X125200000Y-90200000D03*
X126300000Y-90200000D03*
X119000000Y-127000000D03*
X116300000Y-124500000D03*
X115600000Y-113000000D03*
X137400000Y-114200000D03*
X119000000Y-125800000D03*
X120400000Y-125800000D03*
X117100000Y-113000000D03*
X117700000Y-124500000D03*
X117700000Y-123300000D03*
X119000000Y-124500000D03*
X119000000Y-123300000D03*
X124500000Y-129000000D03*
X120300000Y-124400000D03*
X138700000Y-114200000D03*
X135400000Y-112900000D03*
X144200000Y-125900000D03*
X120400000Y-127000000D03*
X116300000Y-123300000D03*
X134100000Y-112900000D03*
X124400000Y-130200000D03*
X133578718Y-113900500D03*
X138700000Y-112900000D03*
X136300000Y-114200000D03*
X127800000Y-130100000D03*
X121400000Y-129800000D03*
X120300000Y-129800000D03*
X119100000Y-129800000D03*
X122400000Y-129800000D03*
X128500000Y-119300000D03*
X128100000Y-120600000D03*
X127400000Y-90200000D03*
X128600000Y-121800000D03*
D30*
X120650000Y-124050000D02*
X120300000Y-124400000D01*
X133100000Y-124050000D02*
X120650000Y-124050000D01*
D31*
X128900000Y-117300000D02*
X128900001Y-117300002D01*
D30*
X128900000Y-117300000D02*
X127600000Y-117300000D01*
X130820000Y-117300000D02*
X128900000Y-117300000D01*
X127600000Y-117300000D02*
X126500000Y-116200000D01*
X126500000Y-116200000D02*
X125600000Y-115300000D01*
X127300000Y-113500000D02*
X127300000Y-112900000D01*
X128800000Y-115000000D02*
X127300000Y-113500000D01*
X134800000Y-115000000D02*
X128800000Y-115000000D01*
X135380000Y-115580000D02*
X134800000Y-115000000D01*
X135380000Y-117300000D02*
X135380000Y-115580000D01*
X127300000Y-112900000D02*
X127300000Y-108700000D01*
X142900000Y-120400000D02*
X142900000Y-122800000D01*
X131600000Y-119200000D02*
X141700000Y-119200000D01*
X141700000Y-119200000D02*
X142900000Y-120400000D01*
X130820000Y-118420000D02*
X131600000Y-119200000D01*
X130820000Y-117300000D02*
X130820000Y-118420000D01*
D32*
X142400000Y-124400000D02*
X142900000Y-123900000D01*
X138400000Y-124400000D02*
X142400000Y-124400000D01*
X142900000Y-123900000D02*
X142900000Y-122800000D01*
X137877131Y-124922869D02*
X138400000Y-124400000D01*
D30*
X127300000Y-108700000D02*
X128600000Y-107400000D01*
X128600000Y-107400000D02*
X130200000Y-107400000D01*
D31*
X127700000Y-119300000D02*
X128500000Y-119300000D01*
X123375000Y-113000000D02*
X123375000Y-114975000D01*
X123375000Y-114975000D02*
X127700000Y-119300000D01*
D30*
X127400000Y-96900000D02*
X127400000Y-101600000D01*
X125200000Y-90200000D02*
X124900000Y-90200000D01*
X126300000Y-90200000D02*
X125200000Y-90200000D01*
X127400000Y-90200000D02*
X126300000Y-90200000D01*
X113130000Y-129770000D02*
X114300000Y-128600000D01*
X114300000Y-128600000D02*
X114300000Y-122510000D01*
X111650000Y-129770000D02*
X113130000Y-129770000D01*
X114300000Y-122510000D02*
X115900000Y-120910000D01*
X111650000Y-127230000D02*
X111650000Y-118250000D01*
X112800000Y-117100000D02*
X115900000Y-117100000D01*
X111650000Y-118250000D02*
X112800000Y-117100000D01*
X117150000Y-129770000D02*
X122670000Y-129770000D01*
D33*
X138400000Y-103700000D02*
X140400000Y-105700000D01*
X133900000Y-103700000D02*
X138400000Y-103700000D01*
X130200000Y-107400000D02*
X133900000Y-103700000D01*
D30*
X122670000Y-129770000D02*
X122700000Y-129800000D01*
D33*
X140400000Y-105700000D02*
X140400000Y-106900000D01*
D31*
X128010756Y-120600000D02*
X128100000Y-120600000D01*
X120835000Y-113000000D02*
X120835000Y-113424244D01*
X120835000Y-113424244D02*
X128010756Y-120600000D01*
D30*
X133450000Y-100250000D02*
X133450000Y-99650000D01*
X132800000Y-100900000D02*
X133450000Y-100250000D01*
X125600000Y-115300000D02*
X125600000Y-106500000D01*
X125600000Y-106500000D02*
X127400000Y-104700000D01*
X128900000Y-104700000D02*
X132700000Y-100900000D01*
X133450000Y-99650000D02*
X137650000Y-99650000D01*
X132700000Y-100900000D02*
X132800000Y-100900000D01*
X127400000Y-104700000D02*
X128900000Y-104700000D01*
X127400000Y-90200000D02*
X127400000Y-96900000D01*
D32*
X118100000Y-114400000D02*
X120700000Y-117000000D01*
D30*
X113025000Y-113125000D02*
X114300000Y-114400000D01*
D32*
X125700000Y-119278488D02*
X125700000Y-121100000D01*
D30*
X113025000Y-110700000D02*
X113025000Y-113125000D01*
D32*
X125700000Y-121100000D02*
X126400000Y-121800000D01*
X120700000Y-117000000D02*
X123421512Y-117000000D01*
X126400000Y-121800000D02*
X128600000Y-121800000D01*
X114300000Y-114400000D02*
X118100000Y-114400000D01*
X123421512Y-117000000D02*
X125700000Y-119278488D01*
G04 #@! TA.AperFunction,Conductor*
G36*
X140956245Y-103021451D02*
G01*
X140995614Y-103061707D01*
X141140625Y-103298806D01*
X141140631Y-103298814D01*
X141142488Y-103301851D01*
X141144687Y-103304670D01*
X141144689Y-103304673D01*
X141315660Y-103523855D01*
X141351130Y-103569327D01*
X141353630Y-103571875D01*
X141353634Y-103571879D01*
X141377301Y-103595995D01*
X141588734Y-103811441D01*
X141591507Y-103813689D01*
X141591509Y-103813691D01*
X141621255Y-103837807D01*
X141852239Y-104025076D01*
X142138252Y-104207481D01*
X142141461Y-104209048D01*
X142141467Y-104209051D01*
X142439876Y-104354737D01*
X142443090Y-104356306D01*
X142762826Y-104469635D01*
X142909379Y-104503499D01*
X143089859Y-104545203D01*
X143089864Y-104545204D01*
X143093344Y-104546008D01*
X143096888Y-104546412D01*
X143096893Y-104546413D01*
X143426840Y-104584038D01*
X143426848Y-104584038D01*
X143430387Y-104584442D01*
X143769613Y-104584442D01*
X143773152Y-104584038D01*
X143773160Y-104584038D01*
X144103107Y-104546413D01*
X144103112Y-104546412D01*
X144106656Y-104546008D01*
X144110136Y-104545204D01*
X144110141Y-104545203D01*
X144290621Y-104503499D01*
X144437174Y-104469635D01*
X144756910Y-104356306D01*
X144760124Y-104354737D01*
X145058533Y-104209051D01*
X145058539Y-104209048D01*
X145061748Y-104207481D01*
X145347761Y-104025076D01*
X145578745Y-103837807D01*
X145608491Y-103813691D01*
X145608493Y-103813689D01*
X145611266Y-103811441D01*
X145822699Y-103595995D01*
X145846366Y-103571879D01*
X145846370Y-103571875D01*
X145848870Y-103569327D01*
X145884340Y-103523855D01*
X146055311Y-103304673D01*
X146055313Y-103304670D01*
X146057512Y-103301851D01*
X146059369Y-103298814D01*
X146059375Y-103298806D01*
X146204386Y-103061707D01*
X146256992Y-103014030D01*
X146311876Y-103001449D01*
X150165500Y-103001449D01*
X150233621Y-103021451D01*
X150280114Y-103075107D01*
X150291500Y-103127449D01*
X150291500Y-112476868D01*
X150271498Y-112544989D01*
X150217842Y-112591482D01*
X150147568Y-112601586D01*
X150082988Y-112572092D01*
X150060128Y-112545953D01*
X149951590Y-112380404D01*
X149951586Y-112380399D01*
X149949024Y-112376491D01*
X149774982Y-112181494D01*
X149574030Y-112014363D01*
X149492394Y-111964825D01*
X149354578Y-111881196D01*
X149354574Y-111881194D01*
X149350581Y-111878771D01*
X149109545Y-111777697D01*
X148856217Y-111713359D01*
X148851566Y-111712891D01*
X148851562Y-111712890D01*
X148642271Y-111691816D01*
X148639133Y-111691500D01*
X146983646Y-111691500D01*
X146981321Y-111691673D01*
X146981315Y-111691673D01*
X146794000Y-111705593D01*
X146793996Y-111705594D01*
X146789348Y-111705939D01*
X146784800Y-111706968D01*
X146784794Y-111706969D01*
X146601305Y-111748489D01*
X146534423Y-111763623D01*
X146530071Y-111765315D01*
X146530069Y-111765316D01*
X146295176Y-111856660D01*
X146295173Y-111856661D01*
X146290823Y-111858353D01*
X146063902Y-111988049D01*
X145858643Y-112149862D01*
X145679557Y-112340237D01*
X145584772Y-112476868D01*
X145537515Y-112544989D01*
X145530576Y-112554991D01*
X145528510Y-112559181D01*
X145528508Y-112559184D01*
X145427239Y-112764539D01*
X145414975Y-112789407D01*
X145413553Y-112793850D01*
X145413552Y-112793852D01*
X145358617Y-112965469D01*
X145335293Y-113038335D01*
X145293279Y-113296307D01*
X145292948Y-113321609D01*
X145290169Y-113533931D01*
X145289858Y-113557655D01*
X145325104Y-113816638D01*
X145398243Y-114067567D01*
X145507668Y-114304928D01*
X145510231Y-114308837D01*
X145648410Y-114519596D01*
X145648414Y-114519601D01*
X145650976Y-114523509D01*
X145825018Y-114718506D01*
X146025970Y-114885637D01*
X146055910Y-114903805D01*
X146245422Y-115018804D01*
X146245426Y-115018806D01*
X146249419Y-115021229D01*
X146490455Y-115122303D01*
X146743783Y-115186641D01*
X146748437Y-115187110D01*
X146748439Y-115187110D01*
X146797775Y-115192078D01*
X146868968Y-115199246D01*
X146934741Y-115225972D01*
X146975625Y-115284016D01*
X146978638Y-115354948D01*
X146942823Y-115416249D01*
X146879552Y-115448456D01*
X146865682Y-115450265D01*
X146794014Y-115455591D01*
X146793997Y-115455593D01*
X146789348Y-115455939D01*
X146784800Y-115456968D01*
X146784794Y-115456969D01*
X146598399Y-115499147D01*
X146534423Y-115513623D01*
X146530071Y-115515315D01*
X146530069Y-115515316D01*
X146295176Y-115606660D01*
X146295173Y-115606661D01*
X146290823Y-115608353D01*
X146063902Y-115738049D01*
X145858643Y-115899862D01*
X145679557Y-116090237D01*
X145584772Y-116226868D01*
X145537515Y-116294989D01*
X145530576Y-116304991D01*
X145528510Y-116309181D01*
X145528508Y-116309184D01*
X145473445Y-116420842D01*
X145414975Y-116539407D01*
X145335293Y-116788335D01*
X145293279Y-117046307D01*
X145289858Y-117307655D01*
X145325104Y-117566638D01*
X145326412Y-117571124D01*
X145326412Y-117571126D01*
X145335178Y-117601199D01*
X145398243Y-117817567D01*
X145507668Y-118054928D01*
X145510231Y-118058837D01*
X145648410Y-118269596D01*
X145648414Y-118269601D01*
X145650976Y-118273509D01*
X145726769Y-118358428D01*
X145810820Y-118452598D01*
X145825018Y-118468506D01*
X146025970Y-118635637D01*
X146029973Y-118638066D01*
X146245422Y-118768804D01*
X146245426Y-118768806D01*
X146249419Y-118771229D01*
X146490455Y-118872303D01*
X146743783Y-118936641D01*
X146748434Y-118937109D01*
X146748438Y-118937110D01*
X146913863Y-118953767D01*
X146960867Y-118958500D01*
X148616354Y-118958500D01*
X148618679Y-118958327D01*
X148618685Y-118958327D01*
X148806000Y-118944407D01*
X148806004Y-118944406D01*
X148810652Y-118944061D01*
X148815200Y-118943032D01*
X148815206Y-118943031D01*
X149001601Y-118900853D01*
X149065577Y-118886377D01*
X149101769Y-118872303D01*
X149304824Y-118793340D01*
X149304827Y-118793339D01*
X149309177Y-118791647D01*
X149349197Y-118768774D01*
X149434663Y-118719926D01*
X149536098Y-118661951D01*
X149741357Y-118500138D01*
X149920443Y-118309763D01*
X149945119Y-118274193D01*
X150061973Y-118105750D01*
X150117236Y-118061180D01*
X150187823Y-118053563D01*
X150251322Y-118085318D01*
X150287574Y-118146361D01*
X150291500Y-118177570D01*
X150291500Y-130865500D01*
X150271498Y-130933621D01*
X150217842Y-130980114D01*
X150165500Y-130991500D01*
X123097115Y-130991500D01*
X123028994Y-130971498D01*
X122982501Y-130917842D01*
X122972397Y-130847568D01*
X123001891Y-130782988D01*
X123061117Y-130744751D01*
X123070907Y-130741833D01*
X123076996Y-130740018D01*
X123076997Y-130740017D01*
X123082896Y-130738259D01*
X123257846Y-130646018D01*
X123286606Y-130622729D01*
X123406757Y-130525432D01*
X123406758Y-130525431D01*
X123411547Y-130521553D01*
X123423105Y-130507680D01*
X123534205Y-130374335D01*
X123534208Y-130374330D01*
X123538146Y-130369604D01*
X123632821Y-130195959D01*
X123691964Y-130007231D01*
X123713324Y-129810611D01*
X123696087Y-129613587D01*
X123640909Y-129423663D01*
X123549892Y-129248074D01*
X123493349Y-129177244D01*
X123455459Y-129129780D01*
X123455456Y-129129777D01*
X123453261Y-129127027D01*
X123426855Y-129100621D01*
X123417753Y-129090478D01*
X123397897Y-129065782D01*
X123394032Y-129060975D01*
X123355578Y-129028708D01*
X123351931Y-129025528D01*
X123350119Y-129023885D01*
X123347925Y-129021691D01*
X123314651Y-128994358D01*
X123313853Y-128993696D01*
X123242526Y-128933846D01*
X123237856Y-128931278D01*
X123233739Y-128927897D01*
X123157488Y-128887012D01*
X123155716Y-128886062D01*
X142178493Y-128886062D01*
X142187789Y-128898077D01*
X142238994Y-128933931D01*
X142248489Y-128939414D01*
X142445947Y-129031490D01*
X142456239Y-129035236D01*
X142666688Y-129091625D01*
X142677481Y-129093528D01*
X142894525Y-129112517D01*
X142905475Y-129112517D01*
X143122519Y-129093528D01*
X143133312Y-129091625D01*
X143343761Y-129035236D01*
X143354053Y-129031490D01*
X143551511Y-128939414D01*
X143561006Y-128933931D01*
X143613048Y-128897491D01*
X143621424Y-128887012D01*
X143614356Y-128873566D01*
X142912812Y-128172022D01*
X142898868Y-128164408D01*
X142897035Y-128164539D01*
X142890420Y-128168790D01*
X142184923Y-128874287D01*
X142178493Y-128886062D01*
X123155716Y-128886062D01*
X123151914Y-128884023D01*
X123150755Y-128883394D01*
X123074619Y-128841538D01*
X123074611Y-128841535D01*
X123069213Y-128838567D01*
X123064131Y-128836955D01*
X123059437Y-128834438D01*
X122970469Y-128807238D01*
X122969441Y-128806918D01*
X122880694Y-128778765D01*
X122875398Y-128778171D01*
X122870302Y-128776613D01*
X122777743Y-128767210D01*
X122776607Y-128767089D01*
X122742992Y-128763319D01*
X122730270Y-128761892D01*
X122730266Y-128761892D01*
X122726773Y-128761500D01*
X122723246Y-128761500D01*
X122722261Y-128761445D01*
X122716581Y-128760998D01*
X122687175Y-128758011D01*
X122679663Y-128757248D01*
X122679661Y-128757248D01*
X122673538Y-128756626D01*
X122631259Y-128760623D01*
X122627891Y-128760941D01*
X122616033Y-128761500D01*
X116376866Y-128761500D01*
X116373469Y-128761869D01*
X116370560Y-128762185D01*
X116314684Y-128768255D01*
X116178295Y-128819385D01*
X116061739Y-128906739D01*
X115974385Y-129023295D01*
X115923255Y-129159684D01*
X115916500Y-129221866D01*
X115916500Y-130318134D01*
X115923255Y-130380316D01*
X115974385Y-130516705D01*
X116061739Y-130633261D01*
X116178295Y-130720615D01*
X116186704Y-130723767D01*
X116186705Y-130723768D01*
X116250058Y-130747518D01*
X116306823Y-130790159D01*
X116331523Y-130856721D01*
X116316316Y-130926070D01*
X116266030Y-130976188D01*
X116205829Y-130991500D01*
X113426851Y-130991500D01*
X113358730Y-130971498D01*
X113312237Y-130917842D01*
X113302133Y-130847568D01*
X113331627Y-130782988D01*
X113390433Y-130744878D01*
X113415786Y-130737224D01*
X113416967Y-130736874D01*
X113500414Y-130712630D01*
X113500418Y-130712628D01*
X113506336Y-130710909D01*
X113511068Y-130708456D01*
X113516169Y-130706916D01*
X113578861Y-130673583D01*
X113598260Y-130663269D01*
X113599426Y-130662657D01*
X113676453Y-130622729D01*
X113681926Y-130619892D01*
X113686089Y-130616569D01*
X113690796Y-130614066D01*
X113762918Y-130555245D01*
X113763774Y-130554554D01*
X113802973Y-130523262D01*
X113805477Y-130520758D01*
X113806195Y-130520116D01*
X113810528Y-130516415D01*
X113844062Y-130489065D01*
X113873288Y-130453737D01*
X113881277Y-130444958D01*
X114969379Y-129356855D01*
X114979522Y-129347753D01*
X115004218Y-129327897D01*
X115009025Y-129324032D01*
X115041292Y-129285578D01*
X115044472Y-129281931D01*
X115046115Y-129280119D01*
X115048309Y-129277925D01*
X115075642Y-129244651D01*
X115076348Y-129243800D01*
X115076806Y-129243255D01*
X115136154Y-129172526D01*
X115138722Y-129167856D01*
X115142103Y-129163739D01*
X115178537Y-129095790D01*
X115185977Y-129081914D01*
X115186606Y-129080755D01*
X115228462Y-129004619D01*
X115228465Y-129004611D01*
X115231433Y-128999213D01*
X115233045Y-128994131D01*
X115235562Y-128989437D01*
X115262747Y-128900523D01*
X115263139Y-128899265D01*
X115289372Y-128816567D01*
X115291235Y-128810694D01*
X115291829Y-128805403D01*
X115293388Y-128800302D01*
X115302790Y-128707737D01*
X115302925Y-128706470D01*
X115308108Y-128660270D01*
X115308108Y-128660265D01*
X115308500Y-128656773D01*
X115308500Y-128653248D01*
X115308555Y-128652263D01*
X115309004Y-128646559D01*
X115312752Y-128609666D01*
X115312752Y-128609661D01*
X115313374Y-128603538D01*
X115309059Y-128557891D01*
X115308500Y-128546033D01*
X115308500Y-127774669D01*
X115917001Y-127774669D01*
X115917371Y-127781490D01*
X115922895Y-127832352D01*
X115926521Y-127847604D01*
X115971676Y-127968054D01*
X115980214Y-127983649D01*
X116056715Y-128085724D01*
X116069276Y-128098285D01*
X116171351Y-128174786D01*
X116186946Y-128183324D01*
X116307394Y-128228478D01*
X116322649Y-128232105D01*
X116373514Y-128237631D01*
X116380328Y-128238000D01*
X116877885Y-128238000D01*
X116893124Y-128233525D01*
X116894329Y-128232135D01*
X116896000Y-128224452D01*
X116896000Y-128219884D01*
X117404000Y-128219884D01*
X117408475Y-128235123D01*
X117409865Y-128236328D01*
X117417548Y-128237999D01*
X117919669Y-128237999D01*
X117926490Y-128237629D01*
X117977352Y-128232105D01*
X117992604Y-128228479D01*
X118113054Y-128183324D01*
X118128649Y-128174786D01*
X118230724Y-128098285D01*
X118243285Y-128085724D01*
X118319786Y-127983649D01*
X118328324Y-127968054D01*
X118373478Y-127847606D01*
X118374176Y-127844669D01*
X128742001Y-127844669D01*
X128742371Y-127851490D01*
X128747895Y-127902352D01*
X128751521Y-127917604D01*
X128796676Y-128038054D01*
X128805214Y-128053649D01*
X128881715Y-128155724D01*
X128894276Y-128168285D01*
X128996351Y-128244786D01*
X129011946Y-128253324D01*
X129132394Y-128298478D01*
X129147649Y-128302105D01*
X129198514Y-128307631D01*
X129205328Y-128308000D01*
X132827885Y-128308000D01*
X132843124Y-128303525D01*
X132844329Y-128302135D01*
X132846000Y-128294452D01*
X132846000Y-124322115D01*
X132841525Y-124306876D01*
X132840135Y-124305671D01*
X132832452Y-124304000D01*
X128760116Y-124304000D01*
X128744877Y-124308475D01*
X128743672Y-124309865D01*
X128742001Y-124317548D01*
X128742001Y-127844669D01*
X118374176Y-127844669D01*
X118377105Y-127832351D01*
X118382631Y-127781486D01*
X118383000Y-127774672D01*
X118383000Y-127502115D01*
X118378525Y-127486876D01*
X118377135Y-127485671D01*
X118369452Y-127484000D01*
X117422115Y-127484000D01*
X117406876Y-127488475D01*
X117405671Y-127489865D01*
X117404000Y-127497548D01*
X117404000Y-128219884D01*
X116896000Y-128219884D01*
X116896000Y-127502115D01*
X116891525Y-127486876D01*
X116890135Y-127485671D01*
X116882452Y-127484000D01*
X115935116Y-127484000D01*
X115919877Y-127488475D01*
X115918672Y-127489865D01*
X115917001Y-127497548D01*
X115917001Y-127774669D01*
X115308500Y-127774669D01*
X115308500Y-126957885D01*
X115917000Y-126957885D01*
X115921475Y-126973124D01*
X115922865Y-126974329D01*
X115930548Y-126976000D01*
X116877885Y-126976000D01*
X116893124Y-126971525D01*
X116894329Y-126970135D01*
X116896000Y-126962452D01*
X116896000Y-126957885D01*
X117404000Y-126957885D01*
X117408475Y-126973124D01*
X117409865Y-126974329D01*
X117417548Y-126976000D01*
X118364884Y-126976000D01*
X118380123Y-126971525D01*
X118381328Y-126970135D01*
X118382999Y-126962452D01*
X118382999Y-126685331D01*
X118382629Y-126678510D01*
X118377105Y-126627648D01*
X118373479Y-126612396D01*
X118328324Y-126491946D01*
X118319786Y-126476351D01*
X118243285Y-126374276D01*
X118230724Y-126361715D01*
X118128649Y-126285214D01*
X118113054Y-126276676D01*
X117992606Y-126231522D01*
X117977351Y-126227895D01*
X117926486Y-126222369D01*
X117919672Y-126222000D01*
X117422115Y-126222000D01*
X117406876Y-126226475D01*
X117405671Y-126227865D01*
X117404000Y-126235548D01*
X117404000Y-126957885D01*
X116896000Y-126957885D01*
X116896000Y-126240116D01*
X116891525Y-126224877D01*
X116890135Y-126223672D01*
X116882452Y-126222001D01*
X116380331Y-126222001D01*
X116373510Y-126222371D01*
X116322648Y-126227895D01*
X116307396Y-126231521D01*
X116186946Y-126276676D01*
X116171351Y-126285214D01*
X116069276Y-126361715D01*
X116056715Y-126374276D01*
X115980214Y-126476351D01*
X115971676Y-126491946D01*
X115926522Y-126612394D01*
X115922895Y-126627649D01*
X115917369Y-126678514D01*
X115917000Y-126685328D01*
X115917000Y-126957885D01*
X115308500Y-126957885D01*
X115308500Y-122979926D01*
X115328502Y-122911805D01*
X115345404Y-122890831D01*
X115930829Y-122305405D01*
X115993142Y-122271380D01*
X116019925Y-122268500D01*
X117107890Y-122268500D01*
X117174809Y-122262822D01*
X117274409Y-122254371D01*
X117274413Y-122254370D01*
X117279720Y-122253920D01*
X117284875Y-122252582D01*
X117284881Y-122252581D01*
X117497703Y-122197343D01*
X117497707Y-122197342D01*
X117502872Y-122196001D01*
X117507738Y-122193809D01*
X117507741Y-122193808D01*
X117667491Y-122121846D01*
X117713075Y-122101312D01*
X117904319Y-121972559D01*
X117930562Y-121947525D01*
X117977536Y-121902713D01*
X118071135Y-121813424D01*
X118208754Y-121628458D01*
X118313240Y-121422949D01*
X118316009Y-121414034D01*
X118380024Y-121207871D01*
X118381607Y-121202773D01*
X118392628Y-121119619D01*
X118411198Y-120979511D01*
X118411198Y-120979506D01*
X118411898Y-120974226D01*
X118403249Y-120743842D01*
X118355907Y-120518209D01*
X118335998Y-120467796D01*
X118273185Y-120308744D01*
X118273184Y-120308742D01*
X118271224Y-120303779D01*
X118220317Y-120219886D01*
X118156220Y-120114259D01*
X118151623Y-120106683D01*
X118090421Y-120036154D01*
X118004023Y-119936588D01*
X118004021Y-119936586D01*
X118000523Y-119932555D01*
X117929366Y-119874210D01*
X117826373Y-119789760D01*
X117826367Y-119789756D01*
X117822245Y-119786376D01*
X117817609Y-119783737D01*
X117817606Y-119783735D01*
X117626529Y-119674968D01*
X117621886Y-119672325D01*
X117405175Y-119593663D01*
X117399926Y-119592714D01*
X117399923Y-119592713D01*
X117182392Y-119553377D01*
X117182385Y-119553376D01*
X117178308Y-119552639D01*
X117160586Y-119551803D01*
X117155644Y-119551570D01*
X117155637Y-119551570D01*
X117154156Y-119551500D01*
X114692110Y-119551500D01*
X114625191Y-119557178D01*
X114525591Y-119565629D01*
X114525587Y-119565630D01*
X114520280Y-119566080D01*
X114515125Y-119567418D01*
X114515119Y-119567419D01*
X114302297Y-119622657D01*
X114302293Y-119622658D01*
X114297128Y-119623999D01*
X114292262Y-119626191D01*
X114292259Y-119626192D01*
X114183980Y-119674968D01*
X114086925Y-119718688D01*
X113895681Y-119847441D01*
X113891824Y-119851120D01*
X113891822Y-119851122D01*
X113822464Y-119917287D01*
X113728865Y-120006576D01*
X113725682Y-120010854D01*
X113719674Y-120018929D01*
X113591246Y-120191542D01*
X113588830Y-120196293D01*
X113588828Y-120196297D01*
X113570933Y-120231494D01*
X113486760Y-120397051D01*
X113485178Y-120402145D01*
X113485177Y-120402148D01*
X113437844Y-120554586D01*
X113418393Y-120617227D01*
X113417692Y-120622516D01*
X113394466Y-120797759D01*
X113388102Y-120845774D01*
X113396751Y-121076158D01*
X113444093Y-121301791D01*
X113446051Y-121306750D01*
X113446052Y-121306752D01*
X113525720Y-121508482D01*
X113528776Y-121516221D01*
X113531546Y-121520785D01*
X113531547Y-121520788D01*
X113603100Y-121638704D01*
X113621339Y-121707317D01*
X113599588Y-121774900D01*
X113590598Y-121785652D01*
X113590975Y-121785968D01*
X113558709Y-121824421D01*
X113555528Y-121828069D01*
X113553885Y-121829881D01*
X113551691Y-121832075D01*
X113524358Y-121865349D01*
X113523696Y-121866147D01*
X113463846Y-121937474D01*
X113461278Y-121942144D01*
X113457897Y-121946261D01*
X113434483Y-121989928D01*
X113414023Y-122028086D01*
X113413394Y-122029245D01*
X113371538Y-122105381D01*
X113371535Y-122105389D01*
X113368567Y-122110787D01*
X113366955Y-122115869D01*
X113364438Y-122120563D01*
X113337238Y-122209531D01*
X113336918Y-122210559D01*
X113308765Y-122299306D01*
X113308171Y-122304602D01*
X113306613Y-122309698D01*
X113298081Y-122393695D01*
X113297218Y-122402187D01*
X113297089Y-122403393D01*
X113291500Y-122453227D01*
X113291500Y-122456754D01*
X113291445Y-122457739D01*
X113290998Y-122463419D01*
X113286626Y-122506462D01*
X113287206Y-122512593D01*
X113290941Y-122552109D01*
X113291500Y-122563967D01*
X113291500Y-128130074D01*
X113271498Y-128198195D01*
X113254596Y-128219169D01*
X112749171Y-128724595D01*
X112686858Y-128758620D01*
X112660075Y-128761500D01*
X110876866Y-128761500D01*
X110873469Y-128761869D01*
X110870560Y-128762185D01*
X110814684Y-128768255D01*
X110678295Y-128819385D01*
X110561739Y-128906739D01*
X110537251Y-128939414D01*
X110535326Y-128941982D01*
X110478467Y-128984497D01*
X110407649Y-128989523D01*
X110345355Y-128955463D01*
X110311365Y-128893132D01*
X110308500Y-128866417D01*
X110308500Y-128133583D01*
X110328502Y-128065462D01*
X110382158Y-128018969D01*
X110452432Y-128008865D01*
X110517012Y-128038359D01*
X110535325Y-128058017D01*
X110561739Y-128093261D01*
X110678295Y-128180615D01*
X110814684Y-128231745D01*
X110876866Y-128238500D01*
X111590127Y-128238500D01*
X111603297Y-128239190D01*
X111636796Y-128242711D01*
X111636798Y-128242711D01*
X111642925Y-128243355D01*
X111690570Y-128239019D01*
X111701990Y-128238500D01*
X112423134Y-128238500D01*
X112485316Y-128231745D01*
X112621705Y-128180615D01*
X112738261Y-128093261D01*
X112825615Y-127976705D01*
X112876745Y-127840316D01*
X112883500Y-127778134D01*
X112883500Y-126681866D01*
X112876745Y-126619684D01*
X112825615Y-126483295D01*
X112738261Y-126366739D01*
X112708933Y-126344759D01*
X112666420Y-126287900D01*
X112658500Y-126243934D01*
X112658500Y-118719926D01*
X112678502Y-118651805D01*
X112695404Y-118630831D01*
X113180829Y-118145405D01*
X113243142Y-118111380D01*
X113269925Y-118108500D01*
X113328991Y-118108500D01*
X113397112Y-118128502D01*
X113443605Y-118182158D01*
X113445903Y-118187694D01*
X113446232Y-118188296D01*
X113449385Y-118196705D01*
X113536739Y-118313261D01*
X113653295Y-118400615D01*
X113789684Y-118451745D01*
X113851866Y-118458500D01*
X117948134Y-118458500D01*
X118010316Y-118451745D01*
X118146705Y-118400615D01*
X118263261Y-118313261D01*
X118350615Y-118196705D01*
X118401745Y-118060316D01*
X118408500Y-117998134D01*
X118408500Y-116201866D01*
X118401745Y-116139684D01*
X118350615Y-116003295D01*
X118263261Y-115886739D01*
X118146705Y-115799385D01*
X118010316Y-115748255D01*
X117948134Y-115741500D01*
X113851866Y-115741500D01*
X113789684Y-115748255D01*
X113653295Y-115799385D01*
X113536739Y-115886739D01*
X113449385Y-116003295D01*
X113446233Y-116011703D01*
X113441923Y-116019575D01*
X113440259Y-116018664D01*
X113404337Y-116066490D01*
X113337776Y-116091193D01*
X113328991Y-116091500D01*
X112861850Y-116091500D01*
X112848242Y-116090763D01*
X112843400Y-116090237D01*
X112810612Y-116086675D01*
X112760570Y-116091053D01*
X112755788Y-116091379D01*
X112753310Y-116091500D01*
X112750231Y-116091500D01*
X112747177Y-116091799D01*
X112747166Y-116091800D01*
X112707529Y-116095687D01*
X112706215Y-116095809D01*
X112670688Y-116098917D01*
X112613587Y-116103913D01*
X112608468Y-116105400D01*
X112603167Y-116105920D01*
X112514166Y-116132791D01*
X112513033Y-116133126D01*
X112429586Y-116157370D01*
X112429582Y-116157372D01*
X112423664Y-116159091D01*
X112418932Y-116161544D01*
X112413831Y-116163084D01*
X112408388Y-116165978D01*
X112331740Y-116206731D01*
X112330574Y-116207343D01*
X112279880Y-116233621D01*
X112248074Y-116250108D01*
X112243911Y-116253431D01*
X112239204Y-116255934D01*
X112234429Y-116259828D01*
X112234428Y-116259829D01*
X112167102Y-116314739D01*
X112166075Y-116315567D01*
X112129792Y-116344531D01*
X112129787Y-116344536D01*
X112127028Y-116346738D01*
X112124527Y-116349239D01*
X112123809Y-116349881D01*
X112119461Y-116353594D01*
X112085938Y-116380935D01*
X112082015Y-116385677D01*
X112082013Y-116385679D01*
X112056703Y-116416273D01*
X112048713Y-116425053D01*
X110980621Y-117493145D01*
X110970478Y-117502247D01*
X110940975Y-117525968D01*
X110918493Y-117552761D01*
X110908709Y-117564421D01*
X110905528Y-117568069D01*
X110903885Y-117569881D01*
X110901691Y-117572075D01*
X110874358Y-117605349D01*
X110873696Y-117606147D01*
X110813846Y-117677474D01*
X110811278Y-117682144D01*
X110807897Y-117686261D01*
X110776860Y-117744145D01*
X110764023Y-117768086D01*
X110763394Y-117769245D01*
X110721538Y-117845381D01*
X110721535Y-117845389D01*
X110718567Y-117850787D01*
X110716955Y-117855869D01*
X110714438Y-117860563D01*
X110687238Y-117949531D01*
X110686918Y-117950559D01*
X110658765Y-118039306D01*
X110658171Y-118044602D01*
X110656613Y-118049698D01*
X110655535Y-118060316D01*
X110647218Y-118142187D01*
X110647089Y-118143393D01*
X110643937Y-118171498D01*
X110642121Y-118187694D01*
X110641500Y-118193227D01*
X110641500Y-118196754D01*
X110641445Y-118197739D01*
X110640998Y-118203419D01*
X110636626Y-118246462D01*
X110639513Y-118277001D01*
X110640941Y-118292109D01*
X110641500Y-118303967D01*
X110641500Y-126243934D01*
X110621498Y-126312055D01*
X110591068Y-126344758D01*
X110561739Y-126366739D01*
X110556358Y-126373919D01*
X110535326Y-126401982D01*
X110478467Y-126444497D01*
X110407649Y-126449523D01*
X110345355Y-126415463D01*
X110311365Y-126353132D01*
X110308500Y-126326417D01*
X110308500Y-111088566D01*
X110328502Y-111020445D01*
X110382158Y-110973952D01*
X110452432Y-110963848D01*
X110517012Y-110993342D01*
X110557019Y-111059152D01*
X110590495Y-111198591D01*
X110592388Y-111203162D01*
X110592389Y-111203164D01*
X110643151Y-111325713D01*
X110687384Y-111432502D01*
X110819672Y-111648376D01*
X110984102Y-111840898D01*
X111176624Y-112005328D01*
X111392498Y-112137616D01*
X111397068Y-112139509D01*
X111397072Y-112139511D01*
X111621836Y-112232611D01*
X111626409Y-112234505D01*
X111711032Y-112254821D01*
X111867784Y-112292454D01*
X111867790Y-112292455D01*
X111872597Y-112293609D01*
X111900387Y-112295796D01*
X111966727Y-112321081D01*
X112008867Y-112378219D01*
X112016500Y-112421408D01*
X112016500Y-113063157D01*
X112015763Y-113076764D01*
X112011676Y-113114388D01*
X112012213Y-113120523D01*
X112016050Y-113164388D01*
X112016379Y-113169214D01*
X112016500Y-113171686D01*
X112016500Y-113174769D01*
X112016801Y-113177837D01*
X112020690Y-113217506D01*
X112020812Y-113218819D01*
X112028913Y-113311413D01*
X112030400Y-113316532D01*
X112030920Y-113321833D01*
X112057791Y-113410834D01*
X112058126Y-113411967D01*
X112076023Y-113473566D01*
X112084091Y-113501336D01*
X112086544Y-113506068D01*
X112088084Y-113511169D01*
X112090978Y-113516612D01*
X112131731Y-113593260D01*
X112132343Y-113594426D01*
X112154535Y-113637237D01*
X112175108Y-113676926D01*
X112178431Y-113681089D01*
X112180934Y-113685796D01*
X112239755Y-113757918D01*
X112240446Y-113758774D01*
X112271738Y-113797973D01*
X112274242Y-113800477D01*
X112274884Y-113801195D01*
X112278585Y-113805528D01*
X112305935Y-113839062D01*
X112310682Y-113842989D01*
X112310684Y-113842991D01*
X112341262Y-113868287D01*
X112350042Y-113876277D01*
X113622075Y-115148309D01*
X113736261Y-115242102D01*
X113910563Y-115335562D01*
X113973971Y-115354948D01*
X114093800Y-115391584D01*
X114093802Y-115391584D01*
X114099698Y-115393387D01*
X114157551Y-115399264D01*
X114290334Y-115412752D01*
X114290339Y-115412752D01*
X114296462Y-115413374D01*
X114420525Y-115401646D01*
X114487229Y-115395341D01*
X114487231Y-115395341D01*
X114493362Y-115394761D01*
X114589893Y-115365984D01*
X114676993Y-115340019D01*
X114676995Y-115340018D01*
X114682896Y-115338259D01*
X114857846Y-115246018D01*
X114867516Y-115238188D01*
X115006757Y-115125432D01*
X115006758Y-115125431D01*
X115011547Y-115121553D01*
X115047129Y-115078846D01*
X115106101Y-115039314D01*
X115143933Y-115033500D01*
X117785406Y-115033500D01*
X117853527Y-115053502D01*
X117874501Y-115070405D01*
X120196343Y-117392247D01*
X120203887Y-117400537D01*
X120208000Y-117407018D01*
X120213777Y-117412443D01*
X120257667Y-117453658D01*
X120260509Y-117456413D01*
X120280230Y-117476134D01*
X120283425Y-117478612D01*
X120292447Y-117486318D01*
X120324679Y-117516586D01*
X120335858Y-117522732D01*
X120342432Y-117526346D01*
X120358956Y-117537199D01*
X120374959Y-117549613D01*
X120415543Y-117567176D01*
X120426173Y-117572383D01*
X120464940Y-117593695D01*
X120472617Y-117595666D01*
X120472622Y-117595668D01*
X120484558Y-117598732D01*
X120503266Y-117605137D01*
X120521855Y-117613181D01*
X120529683Y-117614421D01*
X120529690Y-117614423D01*
X120565524Y-117620099D01*
X120577144Y-117622505D01*
X120612289Y-117631528D01*
X120619970Y-117633500D01*
X120640224Y-117633500D01*
X120659934Y-117635051D01*
X120679943Y-117638220D01*
X120687835Y-117637474D01*
X120723961Y-117634059D01*
X120735819Y-117633500D01*
X121069106Y-117633500D01*
X121137227Y-117653502D01*
X121183720Y-117707158D01*
X121193824Y-117777432D01*
X121164330Y-117842012D01*
X121105840Y-117880027D01*
X120874146Y-117950642D01*
X120854167Y-117956731D01*
X120555477Y-118088781D01*
X120463504Y-118143499D01*
X120278074Y-118253817D01*
X120278068Y-118253821D01*
X120274814Y-118255757D01*
X120271812Y-118258073D01*
X120024374Y-118448971D01*
X120016244Y-118455243D01*
X119961756Y-118508882D01*
X119806264Y-118661951D01*
X119783513Y-118684347D01*
X119781149Y-118687314D01*
X119781146Y-118687317D01*
X119589001Y-118928444D01*
X119579991Y-118939751D01*
X119408626Y-119217757D01*
X119271902Y-119514336D01*
X119270741Y-119517940D01*
X119270741Y-119517941D01*
X119259862Y-119551725D01*
X119171797Y-119825192D01*
X119171079Y-119828903D01*
X119171078Y-119828907D01*
X119110482Y-120142105D01*
X119110481Y-120142114D01*
X119109763Y-120145824D01*
X119109496Y-120149600D01*
X119109495Y-120149605D01*
X119091053Y-120410072D01*
X119086698Y-120471585D01*
X119102936Y-120797759D01*
X119103577Y-120801490D01*
X119103578Y-120801498D01*
X119156581Y-121109958D01*
X119158241Y-121119619D01*
X119159329Y-121123258D01*
X119159330Y-121123261D01*
X119250600Y-121428444D01*
X119251814Y-121432504D01*
X119253327Y-121435975D01*
X119253329Y-121435981D01*
X119309692Y-121565298D01*
X119382297Y-121731881D01*
X119384220Y-121735152D01*
X119384222Y-121735156D01*
X119438843Y-121828069D01*
X119547802Y-122013414D01*
X119550103Y-122016429D01*
X119743631Y-122270012D01*
X119743636Y-122270017D01*
X119745931Y-122273025D01*
X119807931Y-122336670D01*
X119950232Y-122482745D01*
X119973814Y-122506953D01*
X120081641Y-122593803D01*
X120225196Y-122709431D01*
X120225201Y-122709435D01*
X120228149Y-122711809D01*
X120505253Y-122884627D01*
X120801112Y-123022903D01*
X121111440Y-123124634D01*
X121431742Y-123188346D01*
X121435514Y-123188633D01*
X121435522Y-123188634D01*
X121753602Y-123212829D01*
X121753607Y-123212829D01*
X121757379Y-123213116D01*
X122083633Y-123198586D01*
X122143425Y-123188634D01*
X122402037Y-123145590D01*
X122402042Y-123145589D01*
X122405778Y-123144967D01*
X122719149Y-123053034D01*
X122722616Y-123051544D01*
X122722620Y-123051543D01*
X123015721Y-122925616D01*
X123015723Y-122925615D01*
X123019205Y-122924119D01*
X123301601Y-122760091D01*
X123562245Y-122563324D01*
X123726338Y-122405138D01*
X123794632Y-122339303D01*
X123794635Y-122339300D01*
X123797363Y-122336670D01*
X123972257Y-122121846D01*
X124001155Y-122086351D01*
X124001158Y-122086347D01*
X124003549Y-122083410D01*
X124075813Y-121968878D01*
X124175788Y-121810428D01*
X124175790Y-121810425D01*
X124177815Y-121807215D01*
X124317638Y-121512084D01*
X124319774Y-121505683D01*
X124419790Y-121205897D01*
X124419792Y-121205891D01*
X124420992Y-121202293D01*
X124486381Y-120882329D01*
X124489355Y-120845774D01*
X124512674Y-120559061D01*
X124512856Y-120556826D01*
X124513451Y-120500000D01*
X124511510Y-120467796D01*
X124494026Y-120177793D01*
X124494026Y-120177789D01*
X124493798Y-120174015D01*
X124488650Y-120145824D01*
X124435805Y-119856473D01*
X124435804Y-119856469D01*
X124435125Y-119852751D01*
X124432560Y-119844488D01*
X124364096Y-119623999D01*
X124338282Y-119540863D01*
X124204670Y-119242869D01*
X124036226Y-118963084D01*
X124033899Y-118960100D01*
X124033894Y-118960093D01*
X123837726Y-118708558D01*
X123837724Y-118708556D01*
X123835390Y-118705563D01*
X123605070Y-118474034D01*
X123348603Y-118271852D01*
X123069705Y-118101945D01*
X123066261Y-118100379D01*
X123066257Y-118100377D01*
X122919029Y-118033437D01*
X122772414Y-117966775D01*
X122496878Y-117879635D01*
X122437960Y-117840023D01*
X122409810Y-117774846D01*
X122421367Y-117704796D01*
X122468960Y-117652115D01*
X122534872Y-117633500D01*
X123106918Y-117633500D01*
X123175039Y-117653502D01*
X123196013Y-117670405D01*
X125029595Y-119503987D01*
X125063621Y-119566299D01*
X125066500Y-119593082D01*
X125066500Y-121021233D01*
X125065973Y-121032416D01*
X125064298Y-121039909D01*
X125064547Y-121047835D01*
X125064547Y-121047836D01*
X125066438Y-121107986D01*
X125066500Y-121111945D01*
X125066500Y-121139856D01*
X125066997Y-121143790D01*
X125066997Y-121143791D01*
X125067005Y-121143856D01*
X125067938Y-121155693D01*
X125069327Y-121199889D01*
X125074978Y-121219339D01*
X125078987Y-121238700D01*
X125081526Y-121258797D01*
X125084445Y-121266168D01*
X125084445Y-121266170D01*
X125097804Y-121299912D01*
X125101649Y-121311142D01*
X125113982Y-121353593D01*
X125118015Y-121360412D01*
X125118017Y-121360417D01*
X125124293Y-121371028D01*
X125132988Y-121388776D01*
X125140448Y-121407617D01*
X125145110Y-121414033D01*
X125145110Y-121414034D01*
X125166436Y-121443387D01*
X125172952Y-121453307D01*
X125195458Y-121491362D01*
X125209779Y-121505683D01*
X125222619Y-121520716D01*
X125234528Y-121537107D01*
X125240634Y-121542158D01*
X125268605Y-121565298D01*
X125277384Y-121573288D01*
X125896343Y-122192247D01*
X125903887Y-122200537D01*
X125908000Y-122207018D01*
X125913777Y-122212443D01*
X125957667Y-122253658D01*
X125960509Y-122256413D01*
X125980230Y-122276134D01*
X125983425Y-122278612D01*
X125992447Y-122286318D01*
X126024679Y-122316586D01*
X126031628Y-122320406D01*
X126042432Y-122326346D01*
X126058956Y-122337199D01*
X126074959Y-122349613D01*
X126115543Y-122367176D01*
X126126173Y-122372383D01*
X126164940Y-122393695D01*
X126172617Y-122395666D01*
X126172622Y-122395668D01*
X126184558Y-122398732D01*
X126203266Y-122405137D01*
X126221855Y-122413181D01*
X126229680Y-122414420D01*
X126229682Y-122414421D01*
X126265519Y-122420097D01*
X126277140Y-122422504D01*
X126312289Y-122431528D01*
X126319970Y-122433500D01*
X126340231Y-122433500D01*
X126359940Y-122435051D01*
X126379943Y-122438219D01*
X126387835Y-122437473D01*
X126393062Y-122436979D01*
X126423954Y-122434059D01*
X126435811Y-122433500D01*
X127891800Y-122433500D01*
X127959921Y-122453502D01*
X127979147Y-122469843D01*
X127979420Y-122469540D01*
X127984332Y-122473963D01*
X127988747Y-122478866D01*
X127994086Y-122482745D01*
X128116815Y-122571913D01*
X128143248Y-122591118D01*
X128149276Y-122593802D01*
X128149278Y-122593803D01*
X128311681Y-122666109D01*
X128317712Y-122668794D01*
X128411113Y-122688647D01*
X128498056Y-122707128D01*
X128498061Y-122707128D01*
X128504513Y-122708500D01*
X128616000Y-122708500D01*
X128684121Y-122728502D01*
X128730614Y-122782158D01*
X128742000Y-122834500D01*
X128742000Y-123777885D01*
X128746475Y-123793124D01*
X128747865Y-123794329D01*
X128755548Y-123796000D01*
X133228000Y-123796000D01*
X133296121Y-123816002D01*
X133342614Y-123869658D01*
X133354000Y-123922000D01*
X133354000Y-128289884D01*
X133358475Y-128305123D01*
X133359865Y-128306328D01*
X133367548Y-128307999D01*
X136994669Y-128307999D01*
X137001490Y-128307629D01*
X137052352Y-128302105D01*
X137067604Y-128298479D01*
X137188054Y-128253324D01*
X137203649Y-128244786D01*
X137305724Y-128168285D01*
X137318285Y-128155724D01*
X137394786Y-128053649D01*
X137403324Y-128038054D01*
X137448478Y-127917606D01*
X137452105Y-127902351D01*
X137457631Y-127851486D01*
X137458000Y-127844672D01*
X137458000Y-127805475D01*
X141587483Y-127805475D01*
X141606472Y-128022519D01*
X141608375Y-128033312D01*
X141664764Y-128243761D01*
X141668510Y-128254053D01*
X141760586Y-128451511D01*
X141766069Y-128461006D01*
X141802509Y-128513048D01*
X141812988Y-128521424D01*
X141826434Y-128514356D01*
X142527978Y-127812812D01*
X142534356Y-127801132D01*
X143264408Y-127801132D01*
X143264539Y-127802965D01*
X143268790Y-127809580D01*
X143974287Y-128515077D01*
X143986062Y-128521507D01*
X143998077Y-128512211D01*
X144033931Y-128461006D01*
X144039414Y-128451511D01*
X144131490Y-128254053D01*
X144135236Y-128243761D01*
X144191625Y-128033312D01*
X144193528Y-128022519D01*
X144212517Y-127805475D01*
X144212517Y-127794525D01*
X144193528Y-127577481D01*
X144191625Y-127566688D01*
X144135236Y-127356239D01*
X144131490Y-127345947D01*
X144039414Y-127148489D01*
X144033931Y-127138994D01*
X143997491Y-127086952D01*
X143987012Y-127078576D01*
X143973566Y-127085644D01*
X143272022Y-127787188D01*
X143264408Y-127801132D01*
X142534356Y-127801132D01*
X142535592Y-127798868D01*
X142535461Y-127797035D01*
X142531210Y-127790420D01*
X141825713Y-127084923D01*
X141813938Y-127078493D01*
X141801923Y-127087789D01*
X141766069Y-127138994D01*
X141760586Y-127148489D01*
X141668510Y-127345947D01*
X141664764Y-127356239D01*
X141608375Y-127566688D01*
X141606472Y-127577481D01*
X141587483Y-127794525D01*
X141587483Y-127805475D01*
X137458000Y-127805475D01*
X137458000Y-126712988D01*
X142178576Y-126712988D01*
X142185644Y-126726434D01*
X142887188Y-127427978D01*
X142901132Y-127435592D01*
X142902965Y-127435461D01*
X142909580Y-127431210D01*
X143615077Y-126725713D01*
X143621507Y-126713938D01*
X143612211Y-126701923D01*
X143561006Y-126666069D01*
X143551511Y-126660586D01*
X143354053Y-126568510D01*
X143343761Y-126564764D01*
X143133312Y-126508375D01*
X143122519Y-126506472D01*
X142905475Y-126487483D01*
X142894525Y-126487483D01*
X142677481Y-126506472D01*
X142666688Y-126508375D01*
X142456239Y-126564764D01*
X142445947Y-126568510D01*
X142248489Y-126660586D01*
X142238994Y-126666069D01*
X142186952Y-126702509D01*
X142178576Y-126712988D01*
X137458000Y-126712988D01*
X137458000Y-125918174D01*
X137478002Y-125850053D01*
X137531658Y-125803560D01*
X137601932Y-125793456D01*
X137610197Y-125794927D01*
X137775187Y-125829997D01*
X137775192Y-125829997D01*
X137781644Y-125831369D01*
X137972618Y-125831369D01*
X137979070Y-125829997D01*
X137979075Y-125829997D01*
X138066019Y-125811516D01*
X138159419Y-125791663D01*
X138165450Y-125788978D01*
X138327853Y-125716672D01*
X138327855Y-125716671D01*
X138333883Y-125713987D01*
X138488384Y-125601735D01*
X138616171Y-125459813D01*
X138711658Y-125294425D01*
X138768150Y-125120563D01*
X138808223Y-125061958D01*
X138873619Y-125034321D01*
X138887982Y-125033500D01*
X142321233Y-125033500D01*
X142332416Y-125034027D01*
X142339909Y-125035702D01*
X142347835Y-125035453D01*
X142347836Y-125035453D01*
X142407986Y-125033562D01*
X142411945Y-125033500D01*
X142439856Y-125033500D01*
X142443791Y-125033003D01*
X142443856Y-125032995D01*
X142455693Y-125032062D01*
X142487951Y-125031048D01*
X142491970Y-125030922D01*
X142499889Y-125030673D01*
X142519343Y-125025021D01*
X142538700Y-125021013D01*
X142550930Y-125019468D01*
X142550931Y-125019468D01*
X142558797Y-125018474D01*
X142566168Y-125015555D01*
X142566170Y-125015555D01*
X142599912Y-125002196D01*
X142611142Y-124998351D01*
X142645983Y-124988229D01*
X142645984Y-124988229D01*
X142653593Y-124986018D01*
X142660412Y-124981985D01*
X142660417Y-124981983D01*
X142671028Y-124975707D01*
X142688776Y-124967012D01*
X142707617Y-124959552D01*
X142743387Y-124933564D01*
X142753307Y-124927048D01*
X142784535Y-124908580D01*
X142784538Y-124908578D01*
X142791362Y-124904542D01*
X142805683Y-124890221D01*
X142820717Y-124877380D01*
X142830693Y-124870132D01*
X142837107Y-124865472D01*
X142865288Y-124831407D01*
X142873278Y-124822626D01*
X143292258Y-124403647D01*
X143300537Y-124396113D01*
X143307018Y-124392000D01*
X143353644Y-124342348D01*
X143356398Y-124339507D01*
X143376135Y-124319770D01*
X143378615Y-124316573D01*
X143386320Y-124307551D01*
X143386954Y-124306876D01*
X143416586Y-124275321D01*
X143420405Y-124268375D01*
X143420407Y-124268372D01*
X143426348Y-124257566D01*
X143437199Y-124241047D01*
X143444758Y-124231301D01*
X143449614Y-124225041D01*
X143452759Y-124217772D01*
X143452762Y-124217768D01*
X143467174Y-124184463D01*
X143472391Y-124173813D01*
X143493695Y-124135060D01*
X143498733Y-124115437D01*
X143505137Y-124096734D01*
X143510033Y-124085420D01*
X143510033Y-124085419D01*
X143513181Y-124078145D01*
X143514420Y-124070322D01*
X143514423Y-124070312D01*
X143520099Y-124034476D01*
X143522505Y-124022856D01*
X143530119Y-123993199D01*
X143566432Y-123932192D01*
X143579886Y-123921322D01*
X143699552Y-123837531D01*
X143739789Y-123809357D01*
X143739792Y-123809355D01*
X143744300Y-123806198D01*
X143906198Y-123644300D01*
X144037523Y-123456749D01*
X144039846Y-123451767D01*
X144039849Y-123451762D01*
X144131961Y-123254225D01*
X144131961Y-123254224D01*
X144134284Y-123249243D01*
X144150602Y-123188346D01*
X144192119Y-123033402D01*
X144192119Y-123033400D01*
X144193543Y-123028087D01*
X144213498Y-122800000D01*
X144193543Y-122571913D01*
X144189821Y-122558022D01*
X144135707Y-122356067D01*
X144135706Y-122356065D01*
X144134284Y-122350757D01*
X144112457Y-122303948D01*
X144039849Y-122148238D01*
X144039846Y-122148233D01*
X144037523Y-122143251D01*
X143931287Y-121991531D01*
X143908500Y-121919260D01*
X143908500Y-120461842D01*
X143909237Y-120448235D01*
X143912659Y-120416737D01*
X143912659Y-120416732D01*
X143913324Y-120410611D01*
X143908950Y-120360609D01*
X143908621Y-120355784D01*
X143908500Y-120353313D01*
X143908500Y-120350231D01*
X143904309Y-120307489D01*
X143904187Y-120306174D01*
X143898870Y-120245404D01*
X143896087Y-120213587D01*
X143894600Y-120208468D01*
X143894080Y-120203167D01*
X143867218Y-120114194D01*
X143866862Y-120112994D01*
X143840909Y-120023663D01*
X143838455Y-120018929D01*
X143836916Y-120013831D01*
X143834021Y-120008386D01*
X143793316Y-119931831D01*
X143792702Y-119930663D01*
X143752726Y-119853541D01*
X143752725Y-119853540D01*
X143749892Y-119848074D01*
X143746569Y-119843911D01*
X143744066Y-119839204D01*
X143685245Y-119767082D01*
X143684554Y-119766226D01*
X143653262Y-119727027D01*
X143650758Y-119724523D01*
X143650116Y-119723805D01*
X143646415Y-119719472D01*
X143619065Y-119685938D01*
X143583737Y-119656712D01*
X143574958Y-119648723D01*
X142456855Y-118530621D01*
X142447753Y-118520478D01*
X142427897Y-118495782D01*
X142424032Y-118490975D01*
X142385578Y-118458708D01*
X142381931Y-118455528D01*
X142380119Y-118453885D01*
X142377925Y-118451691D01*
X142344651Y-118424358D01*
X142343853Y-118423696D01*
X142272526Y-118363846D01*
X142267856Y-118361278D01*
X142263739Y-118357897D01*
X142181914Y-118314023D01*
X142180755Y-118313394D01*
X142104619Y-118271538D01*
X142104611Y-118271535D01*
X142099213Y-118268567D01*
X142094131Y-118266955D01*
X142089437Y-118264438D01*
X142000469Y-118237238D01*
X141999441Y-118236918D01*
X141910694Y-118208765D01*
X141905398Y-118208171D01*
X141900302Y-118206613D01*
X141807743Y-118197210D01*
X141806607Y-118197089D01*
X141772171Y-118193227D01*
X141760270Y-118191892D01*
X141760266Y-118191892D01*
X141756773Y-118191500D01*
X141753246Y-118191500D01*
X141752261Y-118191445D01*
X141746581Y-118190998D01*
X141717175Y-118188011D01*
X141709663Y-118187248D01*
X141709661Y-118187248D01*
X141703538Y-118186626D01*
X141661259Y-118190623D01*
X141657891Y-118190941D01*
X141646033Y-118191500D01*
X136714500Y-118191500D01*
X136646379Y-118171498D01*
X136599886Y-118117842D01*
X136588500Y-118065500D01*
X136588500Y-116051866D01*
X136581745Y-115989684D01*
X136530615Y-115853295D01*
X136443261Y-115736739D01*
X136436081Y-115731358D01*
X136429731Y-115725008D01*
X136431597Y-115723142D01*
X136397340Y-115677326D01*
X136390158Y-115619752D01*
X136392659Y-115596735D01*
X136392659Y-115596733D01*
X136393324Y-115590612D01*
X136388950Y-115540612D01*
X136388621Y-115535786D01*
X136388500Y-115533314D01*
X136388500Y-115530231D01*
X136386872Y-115513623D01*
X136384310Y-115487494D01*
X136384188Y-115486181D01*
X136378750Y-115424028D01*
X136376087Y-115393587D01*
X136374600Y-115388468D01*
X136374080Y-115383167D01*
X136347209Y-115294166D01*
X136346874Y-115293033D01*
X136322630Y-115209586D01*
X136322628Y-115209582D01*
X136320909Y-115203664D01*
X136318456Y-115198932D01*
X136316916Y-115193831D01*
X136277924Y-115120496D01*
X136273269Y-115111740D01*
X136272657Y-115110574D01*
X136232729Y-115033547D01*
X136229892Y-115028074D01*
X136226569Y-115023911D01*
X136224066Y-115019204D01*
X136165245Y-114947082D01*
X136164554Y-114946226D01*
X136133262Y-114907027D01*
X136130758Y-114904523D01*
X136130116Y-114903805D01*
X136126415Y-114899472D01*
X136099065Y-114865938D01*
X136063736Y-114836712D01*
X136054955Y-114828721D01*
X135556855Y-114330621D01*
X135547753Y-114320478D01*
X135527897Y-114295782D01*
X135524032Y-114290975D01*
X135485544Y-114258680D01*
X135481926Y-114255523D01*
X135480111Y-114253877D01*
X135477925Y-114251691D01*
X135475543Y-114249735D01*
X135475536Y-114249728D01*
X135444754Y-114224443D01*
X135443739Y-114223600D01*
X135377251Y-114167810D01*
X135377246Y-114167807D01*
X135372526Y-114163846D01*
X135367856Y-114161278D01*
X135363739Y-114157897D01*
X135281914Y-114114023D01*
X135280755Y-114113394D01*
X135204619Y-114071538D01*
X135204611Y-114071535D01*
X135199213Y-114068567D01*
X135194131Y-114066955D01*
X135189437Y-114064438D01*
X135100469Y-114037238D01*
X135099441Y-114036918D01*
X135010694Y-114008765D01*
X135005398Y-114008171D01*
X135000302Y-114006613D01*
X134907743Y-113997210D01*
X134906607Y-113997089D01*
X134872992Y-113993319D01*
X134860270Y-113991892D01*
X134860266Y-113991892D01*
X134856773Y-113991500D01*
X134853246Y-113991500D01*
X134852261Y-113991445D01*
X134846581Y-113990998D01*
X134817175Y-113988011D01*
X134809663Y-113987248D01*
X134809661Y-113987248D01*
X134803538Y-113986626D01*
X134761259Y-113990623D01*
X134757891Y-113990941D01*
X134746033Y-113991500D01*
X129269926Y-113991500D01*
X129201805Y-113971498D01*
X129180831Y-113954596D01*
X128712296Y-113486062D01*
X129478493Y-113486062D01*
X129487789Y-113498077D01*
X129538994Y-113533931D01*
X129548489Y-113539414D01*
X129745947Y-113631490D01*
X129756239Y-113635236D01*
X129966688Y-113691625D01*
X129977481Y-113693528D01*
X130194525Y-113712517D01*
X130205475Y-113712517D01*
X130422519Y-113693528D01*
X130433312Y-113691625D01*
X130643761Y-113635236D01*
X130654053Y-113631490D01*
X130851511Y-113539414D01*
X130861006Y-113533931D01*
X130913048Y-113497491D01*
X130921424Y-113487012D01*
X130914356Y-113473566D01*
X130212812Y-112772022D01*
X130198868Y-112764408D01*
X130197035Y-112764539D01*
X130190420Y-112768790D01*
X129484923Y-113474287D01*
X129478493Y-113486062D01*
X128712296Y-113486062D01*
X128345405Y-113119171D01*
X128311380Y-113056858D01*
X128308500Y-113030075D01*
X128308500Y-112405475D01*
X128887483Y-112405475D01*
X128906472Y-112622519D01*
X128908375Y-112633312D01*
X128964764Y-112843761D01*
X128968510Y-112854053D01*
X129060586Y-113051511D01*
X129066069Y-113061006D01*
X129102509Y-113113048D01*
X129112988Y-113121424D01*
X129126434Y-113114356D01*
X129827978Y-112412812D01*
X129834356Y-112401132D01*
X130564408Y-112401132D01*
X130564539Y-112402965D01*
X130568790Y-112409580D01*
X131274287Y-113115077D01*
X131286062Y-113121507D01*
X131298077Y-113112211D01*
X131333931Y-113061006D01*
X131339414Y-113051511D01*
X131431490Y-112854053D01*
X131435236Y-112843761D01*
X131491625Y-112633312D01*
X131493528Y-112622519D01*
X131512517Y-112405475D01*
X131512517Y-112394525D01*
X131493528Y-112177481D01*
X131491625Y-112166688D01*
X131435236Y-111956239D01*
X131431490Y-111945947D01*
X131339414Y-111748489D01*
X131333931Y-111738994D01*
X131297491Y-111686952D01*
X131287012Y-111678576D01*
X131273566Y-111685644D01*
X130572022Y-112387188D01*
X130564408Y-112401132D01*
X129834356Y-112401132D01*
X129835592Y-112398868D01*
X129835461Y-112397035D01*
X129831210Y-112390420D01*
X129125713Y-111684923D01*
X129113938Y-111678493D01*
X129101923Y-111687789D01*
X129066069Y-111738994D01*
X129060586Y-111748489D01*
X128968510Y-111945947D01*
X128964764Y-111956239D01*
X128908375Y-112166688D01*
X128906472Y-112177481D01*
X128887483Y-112394525D01*
X128887483Y-112405475D01*
X128308500Y-112405475D01*
X128308500Y-111312988D01*
X129478576Y-111312988D01*
X129485644Y-111326434D01*
X130187188Y-112027978D01*
X130201132Y-112035592D01*
X130202965Y-112035461D01*
X130209580Y-112031210D01*
X130915077Y-111325713D01*
X130921507Y-111313938D01*
X130912211Y-111301923D01*
X130861006Y-111266069D01*
X130851511Y-111260586D01*
X130654053Y-111168510D01*
X130643761Y-111164764D01*
X130433312Y-111108375D01*
X130422519Y-111106472D01*
X130205475Y-111087483D01*
X130194525Y-111087483D01*
X129977481Y-111106472D01*
X129966688Y-111108375D01*
X129756239Y-111164764D01*
X129745947Y-111168510D01*
X129548489Y-111260586D01*
X129538994Y-111266069D01*
X129486952Y-111302509D01*
X129478576Y-111312988D01*
X128308500Y-111312988D01*
X128308500Y-109169926D01*
X128328502Y-109101805D01*
X128345404Y-109080831D01*
X128650190Y-108776045D01*
X128956036Y-108470198D01*
X129018349Y-108436173D01*
X129089164Y-108441237D01*
X129138175Y-108474329D01*
X129167858Y-108506836D01*
X129171821Y-108509977D01*
X129171822Y-108509978D01*
X129354129Y-108654473D01*
X129354135Y-108654477D01*
X129358098Y-108657618D01*
X129440767Y-108703820D01*
X129552331Y-108766171D01*
X129569998Y-108776045D01*
X129662554Y-108809733D01*
X129793348Y-108857339D01*
X129793353Y-108857340D01*
X129798105Y-108859070D01*
X129803074Y-108860018D01*
X129803078Y-108860019D01*
X130022944Y-108901960D01*
X130036553Y-108904556D01*
X130192051Y-108908900D01*
X130274150Y-108911193D01*
X130274153Y-108911193D01*
X130279205Y-108911334D01*
X130284218Y-108910665D01*
X130284220Y-108910665D01*
X130514806Y-108879898D01*
X130519820Y-108879229D01*
X130524661Y-108877767D01*
X130524663Y-108877767D01*
X130747357Y-108810532D01*
X130747361Y-108810530D01*
X130752208Y-108809067D01*
X130970388Y-108702654D01*
X131168747Y-108562726D01*
X131190250Y-108543091D01*
X134487936Y-105245405D01*
X134550248Y-105211379D01*
X134577031Y-105208500D01*
X135007236Y-105208500D01*
X135075357Y-105228502D01*
X135121850Y-105282158D01*
X135131954Y-105352432D01*
X135104670Y-105414391D01*
X135038406Y-105495205D01*
X135038402Y-105495211D01*
X135035022Y-105499333D01*
X135032383Y-105503969D01*
X135032381Y-105503972D01*
X134963756Y-105624529D01*
X134916773Y-105707066D01*
X134835216Y-105931753D01*
X134834267Y-105937002D01*
X134834266Y-105937005D01*
X134793420Y-106162885D01*
X134793419Y-106162893D01*
X134792682Y-106166969D01*
X134791500Y-106192032D01*
X134791500Y-107560012D01*
X134806617Y-107738175D01*
X134807957Y-107743339D01*
X134807958Y-107743343D01*
X134862572Y-107953757D01*
X134866668Y-107969540D01*
X134868860Y-107974406D01*
X134935854Y-108123126D01*
X134964843Y-108187480D01*
X135098334Y-108385762D01*
X135102013Y-108389619D01*
X135102015Y-108389621D01*
X135170550Y-108461464D01*
X135263326Y-108558718D01*
X135455100Y-108701402D01*
X135459851Y-108703818D01*
X135459855Y-108703820D01*
X135597054Y-108773575D01*
X135668172Y-108809733D01*
X135748640Y-108834719D01*
X135891349Y-108879032D01*
X135891355Y-108879033D01*
X135896452Y-108880616D01*
X136023883Y-108897506D01*
X136128127Y-108911323D01*
X136128131Y-108911323D01*
X136133411Y-108912023D01*
X136138740Y-108911823D01*
X136138741Y-108911823D01*
X136236509Y-108908152D01*
X136372274Y-108903055D01*
X136459184Y-108884819D01*
X136600984Y-108855067D01*
X136600987Y-108855066D01*
X136606211Y-108853970D01*
X136828533Y-108766171D01*
X137032883Y-108642168D01*
X137036913Y-108638671D01*
X137209386Y-108489007D01*
X137209388Y-108489005D01*
X137213419Y-108485507D01*
X137216802Y-108481381D01*
X137216806Y-108481377D01*
X137355016Y-108312816D01*
X137364978Y-108300667D01*
X137373429Y-108285822D01*
X137480584Y-108097577D01*
X137483227Y-108092934D01*
X137564784Y-107868247D01*
X137573698Y-107818952D01*
X137606580Y-107637115D01*
X137606581Y-107637107D01*
X137607318Y-107633031D01*
X137608500Y-107607968D01*
X137608500Y-106239988D01*
X137593383Y-106061825D01*
X137588311Y-106042284D01*
X137534673Y-105835625D01*
X137534671Y-105835620D01*
X137533332Y-105830460D01*
X137496176Y-105747976D01*
X137437347Y-105617381D01*
X137437346Y-105617378D01*
X137435157Y-105612520D01*
X137427506Y-105601156D01*
X137304646Y-105418664D01*
X137304644Y-105418662D01*
X137301666Y-105414238D01*
X137300102Y-105412598D01*
X137273359Y-105347826D01*
X137286044Y-105277972D01*
X137334482Y-105226065D01*
X137398652Y-105208500D01*
X137722969Y-105208500D01*
X137791090Y-105228502D01*
X137812064Y-105245405D01*
X138854595Y-106287936D01*
X138888621Y-106350248D01*
X138891500Y-106377031D01*
X138891500Y-106961001D01*
X138891702Y-106963509D01*
X138891702Y-106963514D01*
X138891838Y-106965196D01*
X138906060Y-107141965D01*
X138907266Y-107146873D01*
X138907266Y-107146876D01*
X138912344Y-107167548D01*
X138963963Y-107377706D01*
X139058812Y-107601156D01*
X139063102Y-107607968D01*
X139182297Y-107797245D01*
X139188167Y-107806567D01*
X139191512Y-107810361D01*
X139345350Y-107984858D01*
X139345353Y-107984861D01*
X139348698Y-107988655D01*
X139352606Y-107991865D01*
X139352607Y-107991866D01*
X139520033Y-108129390D01*
X139536278Y-108142734D01*
X139540646Y-108145276D01*
X139680953Y-108226937D01*
X139746078Y-108264841D01*
X139750801Y-108266654D01*
X139967978Y-108350020D01*
X139967982Y-108350021D01*
X139972702Y-108351833D01*
X139977652Y-108352867D01*
X139977655Y-108352868D01*
X140205369Y-108400440D01*
X140205373Y-108400440D01*
X140210320Y-108401474D01*
X140452817Y-108412486D01*
X140457837Y-108411905D01*
X140457841Y-108411905D01*
X140688929Y-108385167D01*
X140688933Y-108385166D01*
X140693956Y-108384585D01*
X140698820Y-108383209D01*
X140698823Y-108383208D01*
X140922669Y-108319866D01*
X140922668Y-108319866D01*
X140927532Y-108318490D01*
X140932108Y-108316356D01*
X140932114Y-108316354D01*
X141142954Y-108218038D01*
X141142958Y-108218036D01*
X141147536Y-108215901D01*
X141194839Y-108183754D01*
X141344119Y-108082302D01*
X141348307Y-108079456D01*
X141524681Y-107912668D01*
X141596333Y-107818951D01*
X141653596Y-107776984D01*
X141724460Y-107772639D01*
X141786423Y-107807295D01*
X141800948Y-107825114D01*
X141837441Y-107879319D01*
X141996576Y-108046135D01*
X142181542Y-108183754D01*
X142186293Y-108186170D01*
X142186297Y-108186172D01*
X142250352Y-108218739D01*
X142387051Y-108288240D01*
X142392145Y-108289822D01*
X142392148Y-108289823D01*
X142586014Y-108350020D01*
X142607227Y-108356607D01*
X142612516Y-108357308D01*
X142830489Y-108386198D01*
X142830494Y-108386198D01*
X142835774Y-108386898D01*
X142841103Y-108386698D01*
X142841105Y-108386698D01*
X142950966Y-108382574D01*
X143066158Y-108378249D01*
X143071468Y-108377135D01*
X143286572Y-108332002D01*
X143291791Y-108330907D01*
X143296750Y-108328949D01*
X143296752Y-108328948D01*
X143501256Y-108248185D01*
X143501258Y-108248184D01*
X143506221Y-108246224D01*
X143579514Y-108201749D01*
X143676767Y-108142734D01*
X143703317Y-108126623D01*
X143743493Y-108091760D01*
X143873412Y-107979023D01*
X143873414Y-107979021D01*
X143877445Y-107975523D01*
X143941383Y-107897545D01*
X144020240Y-107801373D01*
X144020244Y-107801367D01*
X144023624Y-107797245D01*
X144041552Y-107765750D01*
X144092632Y-107716445D01*
X144162262Y-107702583D01*
X144228333Y-107728566D01*
X144255573Y-107757716D01*
X144337441Y-107879319D01*
X144496576Y-108046135D01*
X144681542Y-108183754D01*
X144686293Y-108186170D01*
X144686297Y-108186172D01*
X144750352Y-108218739D01*
X144887051Y-108288240D01*
X144892145Y-108289822D01*
X144892148Y-108289823D01*
X145086014Y-108350020D01*
X145107227Y-108356607D01*
X145112516Y-108357308D01*
X145330489Y-108386198D01*
X145330494Y-108386198D01*
X145335774Y-108386898D01*
X145341103Y-108386698D01*
X145341105Y-108386698D01*
X145450966Y-108382574D01*
X145566158Y-108378249D01*
X145571468Y-108377135D01*
X145786572Y-108332002D01*
X145791791Y-108330907D01*
X145796750Y-108328949D01*
X145796752Y-108328948D01*
X146001256Y-108248185D01*
X146001258Y-108248184D01*
X146006221Y-108246224D01*
X146079514Y-108201749D01*
X146176767Y-108142734D01*
X146203317Y-108126623D01*
X146243493Y-108091760D01*
X146373412Y-107979023D01*
X146373414Y-107979021D01*
X146377445Y-107975523D01*
X146407006Y-107939471D01*
X146465666Y-107899476D01*
X146536636Y-107897545D01*
X146597384Y-107934290D01*
X146611584Y-107953059D01*
X146698063Y-108092807D01*
X146707099Y-108104208D01*
X146821829Y-108218739D01*
X146833240Y-108227751D01*
X146971243Y-108312816D01*
X146984424Y-108318963D01*
X147138710Y-108370138D01*
X147152086Y-108373005D01*
X147246438Y-108382672D01*
X147252854Y-108383000D01*
X147627885Y-108383000D01*
X147643124Y-108378525D01*
X147644329Y-108377135D01*
X147646000Y-108369452D01*
X147646000Y-108364884D01*
X148154000Y-108364884D01*
X148158475Y-108380123D01*
X148159865Y-108381328D01*
X148167548Y-108382999D01*
X148547095Y-108382999D01*
X148553614Y-108382662D01*
X148649206Y-108372743D01*
X148662600Y-108369851D01*
X148816784Y-108318412D01*
X148829962Y-108312239D01*
X148967807Y-108226937D01*
X148979208Y-108217901D01*
X149093739Y-108103171D01*
X149102751Y-108091760D01*
X149187816Y-107953757D01*
X149193963Y-107940576D01*
X149245138Y-107786290D01*
X149248005Y-107772914D01*
X149257672Y-107678562D01*
X149258000Y-107672146D01*
X149258000Y-107172115D01*
X149253525Y-107156876D01*
X149252135Y-107155671D01*
X149244452Y-107154000D01*
X148172115Y-107154000D01*
X148156876Y-107158475D01*
X148155671Y-107159865D01*
X148154000Y-107167548D01*
X148154000Y-108364884D01*
X147646000Y-108364884D01*
X147646000Y-106627885D01*
X148154000Y-106627885D01*
X148158475Y-106643124D01*
X148159865Y-106644329D01*
X148167548Y-106646000D01*
X149239884Y-106646000D01*
X149255123Y-106641525D01*
X149256328Y-106640135D01*
X149257999Y-106632452D01*
X149257999Y-106127905D01*
X149257662Y-106121386D01*
X149247743Y-106025794D01*
X149244851Y-106012400D01*
X149193412Y-105858216D01*
X149187239Y-105845038D01*
X149101937Y-105707193D01*
X149092901Y-105695792D01*
X148978171Y-105581261D01*
X148966760Y-105572249D01*
X148828757Y-105487184D01*
X148815576Y-105481037D01*
X148661290Y-105429862D01*
X148647914Y-105426995D01*
X148553562Y-105417328D01*
X148547145Y-105417000D01*
X148172115Y-105417000D01*
X148156876Y-105421475D01*
X148155671Y-105422865D01*
X148154000Y-105430548D01*
X148154000Y-106627885D01*
X147646000Y-106627885D01*
X147646000Y-105435116D01*
X147641525Y-105419877D01*
X147640135Y-105418672D01*
X147632452Y-105417001D01*
X147252905Y-105417001D01*
X147246386Y-105417338D01*
X147150794Y-105427257D01*
X147137400Y-105430149D01*
X146983216Y-105481588D01*
X146970038Y-105487761D01*
X146832193Y-105573063D01*
X146820792Y-105582099D01*
X146706261Y-105696829D01*
X146697247Y-105708243D01*
X146611277Y-105847713D01*
X146558505Y-105895207D01*
X146488434Y-105906631D01*
X146423310Y-105878357D01*
X146412847Y-105868570D01*
X146400080Y-105855186D01*
X146303424Y-105753865D01*
X146118458Y-105616246D01*
X146113707Y-105613830D01*
X146113703Y-105613828D01*
X145991731Y-105551815D01*
X145912949Y-105511760D01*
X145907855Y-105510178D01*
X145907852Y-105510177D01*
X145697871Y-105444976D01*
X145692773Y-105443393D01*
X145687484Y-105442692D01*
X145469511Y-105413802D01*
X145469506Y-105413802D01*
X145464226Y-105413102D01*
X145458897Y-105413302D01*
X145458895Y-105413302D01*
X145360368Y-105417001D01*
X145233842Y-105421751D01*
X145228623Y-105422846D01*
X145208849Y-105426995D01*
X145008209Y-105469093D01*
X145003250Y-105471051D01*
X145003248Y-105471052D01*
X144798744Y-105551815D01*
X144798742Y-105551816D01*
X144793779Y-105553776D01*
X144789220Y-105556543D01*
X144789217Y-105556544D01*
X144647352Y-105642630D01*
X144596683Y-105673377D01*
X144592653Y-105676874D01*
X144429940Y-105818069D01*
X144422555Y-105824477D01*
X144396544Y-105856200D01*
X144279760Y-105998627D01*
X144279756Y-105998633D01*
X144276376Y-106002755D01*
X144258448Y-106034250D01*
X144207368Y-106083555D01*
X144137738Y-106097417D01*
X144071667Y-106071434D01*
X144044427Y-106042284D01*
X144015035Y-105998627D01*
X143962559Y-105920681D01*
X143912848Y-105868570D01*
X143870785Y-105824477D01*
X143803424Y-105753865D01*
X143618458Y-105616246D01*
X143613707Y-105613830D01*
X143613703Y-105613828D01*
X143491731Y-105551815D01*
X143412949Y-105511760D01*
X143407855Y-105510178D01*
X143407852Y-105510177D01*
X143197871Y-105444976D01*
X143192773Y-105443393D01*
X143187484Y-105442692D01*
X142969511Y-105413802D01*
X142969506Y-105413802D01*
X142964226Y-105413102D01*
X142958897Y-105413302D01*
X142958895Y-105413302D01*
X142860368Y-105417001D01*
X142733842Y-105421751D01*
X142728623Y-105422846D01*
X142708849Y-105426995D01*
X142508209Y-105469093D01*
X142503250Y-105471051D01*
X142503248Y-105471052D01*
X142298744Y-105551815D01*
X142298742Y-105551816D01*
X142293779Y-105553776D01*
X142289220Y-105556543D01*
X142289217Y-105556544D01*
X142147352Y-105642630D01*
X142096683Y-105673377D01*
X142095393Y-105671250D01*
X142038220Y-105691605D01*
X141969079Y-105675477D01*
X141919634Y-105624529D01*
X141906220Y-105582470D01*
X141906171Y-105582099D01*
X141900941Y-105542906D01*
X141900241Y-105536353D01*
X141894346Y-105463077D01*
X141894345Y-105463073D01*
X141893940Y-105458035D01*
X141886101Y-105426122D01*
X141883573Y-105412738D01*
X141879898Y-105385194D01*
X141879229Y-105380180D01*
X141877767Y-105375337D01*
X141856522Y-105304971D01*
X141854781Y-105298608D01*
X141837244Y-105227209D01*
X141836037Y-105222294D01*
X141823199Y-105192048D01*
X141818561Y-105179237D01*
X141810530Y-105152638D01*
X141809067Y-105147792D01*
X141806849Y-105143244D01*
X141806846Y-105143237D01*
X141774629Y-105077182D01*
X141771893Y-105071180D01*
X141743162Y-105003495D01*
X141741188Y-104998844D01*
X141723681Y-104971044D01*
X141717052Y-104959134D01*
X141702654Y-104929612D01*
X141657357Y-104865400D01*
X141653699Y-104859914D01*
X141614529Y-104797714D01*
X141614528Y-104797713D01*
X141611833Y-104793433D01*
X141608492Y-104789644D01*
X141608488Y-104789638D01*
X141590102Y-104768783D01*
X141581656Y-104758088D01*
X141565009Y-104734490D01*
X141562726Y-104731253D01*
X141543091Y-104709750D01*
X141503375Y-104670034D01*
X141497956Y-104664264D01*
X141454650Y-104615142D01*
X141454647Y-104615139D01*
X141451302Y-104611345D01*
X141419011Y-104584821D01*
X141409892Y-104576551D01*
X140049885Y-103216544D01*
X140015859Y-103154232D01*
X140020924Y-103083417D01*
X140063471Y-103026581D01*
X140129991Y-103001770D01*
X140138980Y-103001449D01*
X140888124Y-103001449D01*
X140956245Y-103021451D01*
G37*
G04 #@! TD.AperFunction*
G04 #@! TA.AperFunction,Conductor*
G36*
X124741496Y-103021451D02*
G01*
X124780865Y-103061708D01*
X124940620Y-103322914D01*
X124940627Y-103322923D01*
X124942488Y-103325967D01*
X125151130Y-103593443D01*
X125153630Y-103595991D01*
X125153634Y-103595995D01*
X125365067Y-103811441D01*
X125388734Y-103835557D01*
X125391507Y-103837805D01*
X125391509Y-103837807D01*
X125622493Y-104025076D01*
X125652239Y-104049192D01*
X125655261Y-104051119D01*
X125902900Y-104209051D01*
X125938252Y-104231597D01*
X125941461Y-104233164D01*
X125941467Y-104233167D01*
X126118185Y-104319442D01*
X126170625Y-104367302D01*
X126188865Y-104435916D01*
X126167114Y-104503499D01*
X126152002Y-104521764D01*
X124930621Y-105743145D01*
X124920478Y-105752247D01*
X124890975Y-105775968D01*
X124887008Y-105780696D01*
X124858709Y-105814421D01*
X124855528Y-105818069D01*
X124853885Y-105819881D01*
X124851691Y-105822075D01*
X124824358Y-105855349D01*
X124823696Y-105856147D01*
X124763846Y-105927474D01*
X124761278Y-105932144D01*
X124757897Y-105936261D01*
X124726860Y-105994145D01*
X124714023Y-106018086D01*
X124713394Y-106019245D01*
X124671538Y-106095381D01*
X124671535Y-106095389D01*
X124668567Y-106100787D01*
X124666955Y-106105869D01*
X124664438Y-106110563D01*
X124637238Y-106199531D01*
X124636918Y-106200559D01*
X124608765Y-106289306D01*
X124608171Y-106294602D01*
X124606613Y-106299698D01*
X124597288Y-106391500D01*
X124597218Y-106392187D01*
X124597089Y-106393393D01*
X124591500Y-106443227D01*
X124591500Y-106446754D01*
X124591445Y-106447739D01*
X124590998Y-106453419D01*
X124586704Y-106495693D01*
X124586665Y-106496078D01*
X124559880Y-106561828D01*
X124501800Y-106602660D01*
X124430865Y-106605609D01*
X124418063Y-106601631D01*
X124402351Y-106597895D01*
X124351486Y-106592369D01*
X124344672Y-106592000D01*
X123672115Y-106592000D01*
X123656876Y-106596475D01*
X123655671Y-106597865D01*
X123654000Y-106605548D01*
X123654000Y-109389884D01*
X123658475Y-109405123D01*
X123659865Y-109406328D01*
X123667548Y-109407999D01*
X124344669Y-109407999D01*
X124351490Y-109407629D01*
X124402352Y-109402105D01*
X124417609Y-109398478D01*
X124421274Y-109397104D01*
X124424327Y-109396881D01*
X124425293Y-109396651D01*
X124425330Y-109396807D01*
X124492081Y-109391923D01*
X124554449Y-109425845D01*
X124588576Y-109488102D01*
X124591500Y-109515087D01*
X124591500Y-111493752D01*
X124571498Y-111561873D01*
X124517842Y-111608366D01*
X124447568Y-111618470D01*
X124421276Y-111611736D01*
X124385316Y-111598255D01*
X124323134Y-111591500D01*
X122426866Y-111591500D01*
X122364684Y-111598255D01*
X122228295Y-111649385D01*
X122111739Y-111736739D01*
X122024385Y-111853295D01*
X122021233Y-111861704D01*
X122021232Y-111861705D01*
X122000538Y-111916906D01*
X121957897Y-111973671D01*
X121891335Y-111998371D01*
X121821986Y-111983164D01*
X121799167Y-111966666D01*
X121798887Y-111966358D01*
X121691053Y-111881196D01*
X121621177Y-111826011D01*
X121621172Y-111826008D01*
X121617123Y-111822810D01*
X121612607Y-111820317D01*
X121612604Y-111820315D01*
X121418879Y-111713373D01*
X121418875Y-111713371D01*
X121414355Y-111710876D01*
X121409486Y-111709152D01*
X121409482Y-111709150D01*
X121200903Y-111635288D01*
X121200899Y-111635287D01*
X121196028Y-111633562D01*
X121190935Y-111632655D01*
X121190932Y-111632654D01*
X120973095Y-111593851D01*
X120973089Y-111593850D01*
X120968006Y-111592945D01*
X120895096Y-111592054D01*
X120741581Y-111590179D01*
X120741579Y-111590179D01*
X120736411Y-111590116D01*
X120507464Y-111625150D01*
X120287314Y-111697106D01*
X120282726Y-111699494D01*
X120282722Y-111699496D01*
X120129028Y-111779504D01*
X120081872Y-111804052D01*
X120077739Y-111807155D01*
X120077736Y-111807157D01*
X119900790Y-111940012D01*
X119896655Y-111943117D01*
X119736639Y-112110564D01*
X119606119Y-112301899D01*
X119508602Y-112511981D01*
X119446707Y-112735169D01*
X119422095Y-112965469D01*
X119422392Y-112970622D01*
X119422392Y-112970625D01*
X119434163Y-113174769D01*
X119435427Y-113196697D01*
X119436564Y-113201743D01*
X119436565Y-113201749D01*
X119462274Y-113315825D01*
X119486346Y-113422642D01*
X119488288Y-113427424D01*
X119488289Y-113427428D01*
X119533762Y-113539414D01*
X119573484Y-113637237D01*
X119694501Y-113834719D01*
X119846147Y-114009784D01*
X120024349Y-114157730D01*
X120224322Y-114274584D01*
X120440694Y-114357209D01*
X120445760Y-114358240D01*
X120445761Y-114358240D01*
X120498846Y-114369040D01*
X120667656Y-114403385D01*
X120694796Y-114404380D01*
X120762138Y-114426864D01*
X120779275Y-114441200D01*
X122489480Y-116151405D01*
X122523506Y-116213717D01*
X122518441Y-116284532D01*
X122475894Y-116341368D01*
X122409374Y-116366179D01*
X122400385Y-116366500D01*
X121014595Y-116366500D01*
X120946474Y-116346498D01*
X120925500Y-116329595D01*
X118603652Y-114007747D01*
X118596112Y-113999461D01*
X118592000Y-113992982D01*
X118585232Y-113986626D01*
X118542349Y-113946357D01*
X118539507Y-113943602D01*
X118519770Y-113923865D01*
X118516573Y-113921385D01*
X118507551Y-113913680D01*
X118481100Y-113888841D01*
X118475321Y-113883414D01*
X118468375Y-113879595D01*
X118468372Y-113879593D01*
X118457566Y-113873652D01*
X118441047Y-113862801D01*
X118439582Y-113861665D01*
X118425041Y-113850386D01*
X118417772Y-113847241D01*
X118417768Y-113847238D01*
X118384463Y-113832826D01*
X118373813Y-113827609D01*
X118335060Y-113806305D01*
X118315437Y-113801267D01*
X118296734Y-113794863D01*
X118285420Y-113789967D01*
X118285419Y-113789967D01*
X118278145Y-113786819D01*
X118270322Y-113785580D01*
X118270312Y-113785577D01*
X118234476Y-113779901D01*
X118222856Y-113777495D01*
X118187711Y-113768472D01*
X118187710Y-113768472D01*
X118180030Y-113766500D01*
X118159776Y-113766500D01*
X118140065Y-113764949D01*
X118127886Y-113763020D01*
X118120057Y-113761780D01*
X118112165Y-113762526D01*
X118076039Y-113765941D01*
X118064181Y-113766500D01*
X115144653Y-113766500D01*
X115076532Y-113746498D01*
X115053466Y-113726823D01*
X115053262Y-113727027D01*
X114617927Y-113291692D01*
X114070405Y-112744171D01*
X114036380Y-112681859D01*
X114033500Y-112655076D01*
X114033500Y-112421408D01*
X114053502Y-112353287D01*
X114107158Y-112306794D01*
X114149613Y-112295796D01*
X114177403Y-112293609D01*
X114182210Y-112292455D01*
X114182216Y-112292454D01*
X114338968Y-112254821D01*
X114423591Y-112234505D01*
X114428164Y-112232611D01*
X114652928Y-112139511D01*
X114652932Y-112139509D01*
X114657502Y-112137616D01*
X114873376Y-112005328D01*
X115065898Y-111840898D01*
X115230328Y-111648376D01*
X115362616Y-111432502D01*
X115406850Y-111325713D01*
X115457611Y-111203164D01*
X115457612Y-111203162D01*
X115459505Y-111198591D01*
X115481621Y-111106472D01*
X115517454Y-110957216D01*
X115517455Y-110957210D01*
X115518609Y-110952403D01*
X115538474Y-110700000D01*
X115518609Y-110447597D01*
X115514030Y-110428520D01*
X115460660Y-110206221D01*
X115459505Y-110201409D01*
X115362616Y-109967498D01*
X115230328Y-109751624D01*
X115065898Y-109559102D01*
X114873376Y-109394672D01*
X114657502Y-109262384D01*
X114652932Y-109260491D01*
X114652928Y-109260489D01*
X114428164Y-109167389D01*
X114428162Y-109167388D01*
X114423591Y-109165495D01*
X114338968Y-109145179D01*
X114182216Y-109107546D01*
X114182210Y-109107545D01*
X114177403Y-109106391D01*
X114077584Y-109098535D01*
X113990655Y-109091693D01*
X113990648Y-109091693D01*
X113988199Y-109091500D01*
X112061801Y-109091500D01*
X112059352Y-109091693D01*
X112059345Y-109091693D01*
X111972416Y-109098535D01*
X111872597Y-109106391D01*
X111867790Y-109107545D01*
X111867784Y-109107546D01*
X111711032Y-109145179D01*
X111626409Y-109165495D01*
X111621838Y-109167388D01*
X111621836Y-109167389D01*
X111397072Y-109260489D01*
X111397068Y-109260491D01*
X111392498Y-109262384D01*
X111176624Y-109394672D01*
X110984102Y-109559102D01*
X110819672Y-109751624D01*
X110687384Y-109967498D01*
X110590495Y-110201409D01*
X110589340Y-110206221D01*
X110557019Y-110340848D01*
X110521667Y-110402417D01*
X110458640Y-110435100D01*
X110387949Y-110428520D01*
X110332038Y-110384765D01*
X110308500Y-110311434D01*
X110308500Y-107934500D01*
X110328502Y-107866379D01*
X110382158Y-107819886D01*
X110434500Y-107808500D01*
X119323687Y-107808500D01*
X119391808Y-107828502D01*
X119438301Y-107882158D01*
X119448973Y-107947891D01*
X119447644Y-107960328D01*
X119447095Y-107965469D01*
X119447392Y-107970622D01*
X119447392Y-107970625D01*
X119455094Y-108104208D01*
X119460427Y-108196697D01*
X119461564Y-108201743D01*
X119461565Y-108201749D01*
X119487393Y-108316354D01*
X119511346Y-108422642D01*
X119513288Y-108427424D01*
X119513289Y-108427428D01*
X119567893Y-108561901D01*
X119598484Y-108637237D01*
X119719501Y-108834719D01*
X119871147Y-109009784D01*
X120049349Y-109157730D01*
X120249322Y-109274584D01*
X120465694Y-109357209D01*
X120470760Y-109358240D01*
X120470761Y-109358240D01*
X120523846Y-109369040D01*
X120692656Y-109403385D01*
X120823324Y-109408176D01*
X120918949Y-109411683D01*
X120918953Y-109411683D01*
X120924113Y-109411872D01*
X120929233Y-109411216D01*
X120929235Y-109411216D01*
X121028668Y-109398478D01*
X121153847Y-109382442D01*
X121158795Y-109380957D01*
X121158802Y-109380956D01*
X121370747Y-109317369D01*
X121375690Y-109315886D01*
X121456236Y-109276427D01*
X121579049Y-109216262D01*
X121579052Y-109216260D01*
X121583684Y-109213991D01*
X121772243Y-109079494D01*
X121775898Y-109075852D01*
X121775906Y-109075845D01*
X121817697Y-109034199D01*
X121880068Y-109000282D01*
X121950875Y-109005470D01*
X122007637Y-109048116D01*
X122024619Y-109079218D01*
X122046677Y-109138056D01*
X122055214Y-109153649D01*
X122131715Y-109255724D01*
X122144276Y-109268285D01*
X122246351Y-109344786D01*
X122261946Y-109353324D01*
X122382394Y-109398478D01*
X122397649Y-109402105D01*
X122448514Y-109407631D01*
X122455328Y-109408000D01*
X123127885Y-109408000D01*
X123143124Y-109403525D01*
X123144329Y-109402135D01*
X123146000Y-109394452D01*
X123146000Y-106610116D01*
X123141525Y-106594877D01*
X123140135Y-106593672D01*
X123132452Y-106592001D01*
X122455331Y-106592001D01*
X122448510Y-106592371D01*
X122397648Y-106597895D01*
X122382396Y-106601521D01*
X122261946Y-106646676D01*
X122246351Y-106655214D01*
X122144276Y-106731715D01*
X122131715Y-106744276D01*
X122055214Y-106846351D01*
X122046675Y-106861948D01*
X122025934Y-106917275D01*
X121983293Y-106974040D01*
X121916731Y-106998740D01*
X121847383Y-106983533D01*
X121824388Y-106966909D01*
X121823887Y-106966358D01*
X121794459Y-106943117D01*
X121646177Y-106826011D01*
X121646172Y-106826008D01*
X121642123Y-106822810D01*
X121637607Y-106820317D01*
X121637604Y-106820315D01*
X121443879Y-106713373D01*
X121443875Y-106713371D01*
X121439355Y-106710876D01*
X121434486Y-106709152D01*
X121434482Y-106709150D01*
X121225903Y-106635288D01*
X121225899Y-106635287D01*
X121221028Y-106633562D01*
X121215935Y-106632655D01*
X121215932Y-106632654D01*
X120998095Y-106593851D01*
X120998089Y-106593850D01*
X120993006Y-106592945D01*
X120915644Y-106592000D01*
X120766581Y-106590179D01*
X120766579Y-106590179D01*
X120761411Y-106590116D01*
X120532464Y-106625150D01*
X120312314Y-106697106D01*
X120307726Y-106699494D01*
X120307722Y-106699496D01*
X120174304Y-106768949D01*
X120106872Y-106804052D01*
X120102736Y-106807158D01*
X120101641Y-106807847D01*
X120033339Y-106827221D01*
X119965406Y-106806592D01*
X119919409Y-106752510D01*
X119908500Y-106701226D01*
X119908500Y-103127449D01*
X119928502Y-103059328D01*
X119982158Y-103012835D01*
X120034500Y-103001449D01*
X124673375Y-103001449D01*
X124741496Y-103021451D01*
G37*
G04 #@! TD.AperFunction*
M02*
