M48
; DRILL file {KiCad (6.0.7)} date Wed May 10 15:43:54 2023
; FORMAT={-:-/ absolute / inch / decimal}
; #@! TF.CreationDate,2023-05-10T15:43:54+05:30
; #@! TF.GenerationSoftware,Kicad,Pcbnew,(6.0.7)
; #@! TF.FileFunction,Plated,1,2,PTH
FMAT,2
INCH
; #@! TA.AperFunction,Plated,PTH,ViaDrill
T1C0.0157
; #@! TA.AperFunction,Plated,PTH,ComponentDrill
T2C0.0315
; #@! TA.AperFunction,Plated,PTH,ComponentDrill
T3C0.0354
; #@! TA.AperFunction,Plated,PTH,ComponentDrill
T4C0.0374
; #@! TA.AperFunction,Plated,PTH,ComponentDrill
T5C0.0394
; #@! TA.AperFunction,Plated,PTH,ComponentDrill
T6C0.0472
; #@! TA.AperFunction,Plated,PTH,ComponentDrill
T7C0.0591
; #@! TA.AperFunction,Plated,PTH,ComponentDrill
T8C0.0787
; #@! TA.AperFunction,Plated,PTH,ComponentDrill
T9C0.0984
%
G90
G05
T1
X4.5512Y-4.4488
X4.5787Y-4.8543
X4.5787Y-4.9016
X4.6102Y-4.4488
X4.6339Y-4.8543
X4.6339Y-4.9016
X4.6575Y-4.3425
X4.6575Y-4.3858
X4.685Y-4.8543
X4.685Y-4.9016
X4.685Y-4.9528
X4.685Y-5.0
X4.689Y-5.1102
X4.7362Y-4.8976
X4.7362Y-5.1102
X4.7402Y-4.9528
X4.7402Y-5.0
X4.7795Y-5.1102
X4.8189Y-5.1102
X4.8976Y-5.126
X4.9016Y-5.0787
X4.9291Y-3.5512
X4.9724Y-3.5512
X5.0157Y-3.5512
X5.0315Y-5.122
X5.0433Y-4.748
X5.0591Y-4.6969
X5.063Y-4.7953
X5.0748Y-4.6181
X5.0906Y-5.126
X5.1457Y-5.122
X5.259Y-4.4843
X5.2795Y-4.4449
X5.3307Y-4.4449
X5.3661Y-4.4961
X5.4094Y-4.4961
X5.4282Y-4.9182
X5.4606Y-4.4449
X5.4606Y-4.4961
X5.6732Y-4.5394
X5.6732Y-4.5945
X5.6772Y-4.9567
X5.874Y-4.7126
X5.8819Y-4.9173
T2
X5.126Y-4.2283
X5.126Y-4.4252
X5.626Y-4.8346
X5.626Y-5.0315
T3
X4.7573Y-4.4488
X4.7583Y-4.252
X4.8573Y-4.4488
X4.8583Y-4.252
T4
X5.5276Y-4.2087
X5.626Y-4.2087
X5.7244Y-4.2087
X5.8228Y-4.2087
T5
X4.563Y-4.6102
X4.563Y-4.7602
X5.3622Y-4.2087
T6
X4.7795Y-3.4409
X4.7815Y-3.9232
X5.0157Y-4.0
X5.2539Y-3.4429
X5.2539Y-3.9232
X5.4173Y-3.4409
X5.4193Y-3.9232
X5.6535Y-4.0
X5.8917Y-3.4429
X5.8917Y-3.9232
T7
X4.4028Y-4.0709
X4.4051Y-3.6457
X4.4498Y-4.3583
X4.6028Y-4.0709
X4.6051Y-3.6457
T9
X4.7953Y-4.7441
T8
G00X5.7894Y-4.4665
M15
G01X5.8484Y-4.4665
M16
G05
G00X5.7894Y-4.6142
M15
G01X5.8484Y-4.6142
M16
G05
T0
M30
