G04 #@! TF.GenerationSoftware,KiCad,Pcbnew,(6.0.7)*
G04 #@! TF.CreationDate,2023-05-10T15:43:49+05:30*
G04 #@! TF.ProjectId,PS440V_to_5V,50533434-3056-45f7-946f-5f35562e6b69,rev?*
G04 #@! TF.SameCoordinates,Original*
G04 #@! TF.FileFunction,Copper,L2,Bot*
G04 #@! TF.FilePolarity,Positive*
%FSLAX46Y46*%
G04 Gerber Fmt 4.6, Leading zero omitted, Abs format (unit mm)*
G04 Created by KiCad (PCBNEW (6.0.7)) date 2023-05-10 15:43:49*
%MOMM*%
%LPD*%
G01*
G04 APERTURE LIST*
G04 Aperture macros list*
%AMRoundRect*
0 Rectangle with rounded corners*
0 $1 Rounding radius*
0 $2 $3 $4 $5 $6 $7 $8 $9 X,Y pos of 4 corners*
0 Add a 4 corners polygon primitive as box body*
4,1,4,$2,$3,$4,$5,$6,$7,$8,$9,$2,$3,0*
0 Add four circle primitives for the rounded corners*
1,1,$1+$1,$2,$3*
1,1,$1+$1,$4,$5*
1,1,$1+$1,$6,$7*
1,1,$1+$1,$8,$9*
0 Add four rect primitives between the rounded corners*
20,1,$1+$1,$2,$3,$4,$5,0*
20,1,$1+$1,$4,$5,$6,$7,0*
20,1,$1+$1,$6,$7,$8,$9,0*
20,1,$1+$1,$8,$9,$2,$3,0*%
G04 Aperture macros list end*
G04 #@! TA.AperFunction,ComponentPad*
%ADD10R,1.800000X1.800000*%
G04 #@! TD*
G04 #@! TA.AperFunction,ComponentPad*
%ADD11C,1.800000*%
G04 #@! TD*
G04 #@! TA.AperFunction,ComponentPad*
%ADD12C,2.500000*%
G04 #@! TD*
G04 #@! TA.AperFunction,ComponentPad*
%ADD13O,1.500000X3.000000*%
G04 #@! TD*
G04 #@! TA.AperFunction,ComponentPad*
%ADD14C,1.500000*%
G04 #@! TD*
G04 #@! TA.AperFunction,ComponentPad*
%ADD15C,2.000000*%
G04 #@! TD*
G04 #@! TA.AperFunction,ComponentPad*
%ADD16O,2.000000X5.000000*%
G04 #@! TD*
G04 #@! TA.AperFunction,ComponentPad*
%ADD17R,4.000000X1.700000*%
G04 #@! TD*
G04 #@! TA.AperFunction,ComponentPad*
%ADD18O,4.000000X1.700000*%
G04 #@! TD*
G04 #@! TA.AperFunction,ComponentPad*
%ADD19C,1.600000*%
G04 #@! TD*
G04 #@! TA.AperFunction,ComponentPad*
%ADD20C,4.400000*%
G04 #@! TD*
G04 #@! TA.AperFunction,ComponentPad*
%ADD21RoundRect,0.250000X0.600000X0.725000X-0.600000X0.725000X-0.600000X-0.725000X0.600000X-0.725000X0*%
G04 #@! TD*
G04 #@! TA.AperFunction,ComponentPad*
%ADD22O,1.700000X1.950000*%
G04 #@! TD*
G04 #@! TA.AperFunction,ComponentPad*
%ADD23O,4.000000X2.200000*%
G04 #@! TD*
G04 #@! TA.AperFunction,ComponentPad*
%ADD24O,4.000000X2.500000*%
G04 #@! TD*
G04 #@! TA.AperFunction,ComponentPad*
%ADD25O,1.800000X3.000000*%
G04 #@! TD*
G04 #@! TA.AperFunction,SMDPad,CuDef*
%ADD26R,0.600000X1.500000*%
G04 #@! TD*
G04 #@! TA.AperFunction,SMDPad,CuDef*
%ADD27RoundRect,0.250000X-0.475000X0.250000X-0.475000X-0.250000X0.475000X-0.250000X0.475000X0.250000X0*%
G04 #@! TD*
G04 #@! TA.AperFunction,SMDPad,CuDef*
%ADD28RoundRect,0.249999X0.450001X-0.262501X0.450001X0.262501X-0.450001X0.262501X-0.450001X-0.262501X0*%
G04 #@! TD*
G04 #@! TA.AperFunction,SMDPad,CuDef*
%ADD29RoundRect,0.249999X-0.450001X0.262501X-0.450001X-0.262501X0.450001X-0.262501X0.450001X0.262501X0*%
G04 #@! TD*
G04 #@! TA.AperFunction,SMDPad,CuDef*
%ADD30RoundRect,0.150000X-0.150000X0.587500X-0.150000X-0.587500X0.150000X-0.587500X0.150000X0.587500X0*%
G04 #@! TD*
G04 #@! TA.AperFunction,SMDPad,CuDef*
%ADD31RoundRect,0.250000X-0.450000X0.262500X-0.450000X-0.262500X0.450000X-0.262500X0.450000X0.262500X0*%
G04 #@! TD*
G04 #@! TA.AperFunction,ViaPad*
%ADD32C,0.800000*%
G04 #@! TD*
G04 #@! TA.AperFunction,Conductor*
%ADD33C,0.500000*%
G04 #@! TD*
G04 #@! TA.AperFunction,Conductor*
%ADD34C,0.250000*%
G04 #@! TD*
G04 #@! TA.AperFunction,Conductor*
%ADD35C,1.000000*%
G04 #@! TD*
G04 #@! TA.AperFunction,Conductor*
%ADD36C,2.000000*%
G04 #@! TD*
G04 APERTURE END LIST*
D10*
X123400000Y-108000000D03*
D11*
X120860000Y-108000000D03*
D12*
X143600000Y-101600000D03*
D13*
X149650000Y-99650000D03*
D14*
X149650000Y-87450000D03*
D12*
X137600000Y-87400000D03*
X137650000Y-99650000D03*
X127400000Y-101600000D03*
X133450000Y-99650000D03*
X133450000Y-87450000D03*
D15*
X121400000Y-87400000D03*
D12*
X121450000Y-99650000D03*
D16*
X116970000Y-92600000D03*
X111890000Y-92600000D03*
X111830000Y-103400000D03*
X116910000Y-103400000D03*
D17*
X115900000Y-117100000D03*
D18*
X115900000Y-120910000D03*
D10*
X123375000Y-113000000D03*
D11*
X120835000Y-113000000D03*
D19*
X130200000Y-107400000D03*
X130200000Y-112400000D03*
D20*
X121800000Y-120500000D03*
D21*
X147900000Y-106900000D03*
D22*
X145400000Y-106900000D03*
X142900000Y-106900000D03*
X140400000Y-106900000D03*
D23*
X113025000Y-110700000D03*
D24*
X147800000Y-113450000D03*
X147800000Y-117200000D03*
D19*
X142900000Y-122800000D03*
X142900000Y-127800000D03*
D25*
X136200000Y-106900000D03*
D26*
X141645000Y-116900000D03*
X140375000Y-116900000D03*
X139105000Y-116900000D03*
X137835000Y-116900000D03*
X136565000Y-116900000D03*
X135295000Y-116900000D03*
X134025000Y-116900000D03*
X132755000Y-116900000D03*
X132755000Y-110550000D03*
X134025000Y-110550000D03*
X135295000Y-110550000D03*
X136565000Y-110550000D03*
X137835000Y-110550000D03*
X139105000Y-110550000D03*
X140375000Y-110550000D03*
X141645000Y-110550000D03*
D27*
X128400000Y-109150000D03*
X128400000Y-111050000D03*
D28*
X126200000Y-109112500D03*
X126200000Y-107287500D03*
D29*
X135100000Y-127187500D03*
X135100000Y-129012500D03*
X126300000Y-127087500D03*
X126300000Y-128912500D03*
X132200000Y-127187500D03*
X132200000Y-129012500D03*
D30*
X137750000Y-127362500D03*
X139650000Y-127362500D03*
X138700000Y-129237500D03*
X146650000Y-122562500D03*
X148550000Y-122562500D03*
X147600000Y-124437500D03*
X146650000Y-127362500D03*
X148550000Y-127362500D03*
X147600000Y-129237500D03*
D31*
X129400000Y-127187500D03*
X129400000Y-129012500D03*
D32*
X144100000Y-116700000D03*
X144100000Y-115300000D03*
X149200000Y-119700000D03*
X149400000Y-124900000D03*
X128900001Y-117300002D03*
X129300000Y-130200000D03*
X130700000Y-130100000D03*
X137877131Y-124922869D03*
X118300000Y-111400000D03*
X118300000Y-110300000D03*
X125200000Y-90200000D03*
X126300000Y-90200000D03*
X119000000Y-127000000D03*
X116300000Y-124500000D03*
X115600000Y-113000000D03*
X137400000Y-114200000D03*
X119000000Y-125800000D03*
X120400000Y-125800000D03*
X117100000Y-113000000D03*
X117700000Y-124500000D03*
X117700000Y-123300000D03*
X119000000Y-124500000D03*
X119000000Y-123300000D03*
X124500000Y-129000000D03*
X120300000Y-124400000D03*
X138700000Y-114200000D03*
X135400000Y-112900000D03*
X144200000Y-125900000D03*
X120400000Y-127000000D03*
X116300000Y-123300000D03*
X134100000Y-112900000D03*
X124400000Y-130200000D03*
X133578718Y-113900500D03*
X138700000Y-112900000D03*
X136300000Y-114200000D03*
X127800000Y-130100000D03*
X121400000Y-129800000D03*
X120300000Y-129800000D03*
X119100000Y-129800000D03*
X122400000Y-129800000D03*
X128500000Y-119300000D03*
X128100000Y-120600000D03*
X127400000Y-90200000D03*
X128600000Y-121800000D03*
D33*
X132755000Y-113445003D02*
X128900001Y-117300002D01*
X132755000Y-110550000D02*
X132755000Y-113445003D01*
X136470000Y-119700000D02*
X128900000Y-119700000D01*
D34*
X137900000Y-124900000D02*
X137877131Y-124922869D01*
X135977131Y-124922869D02*
X137877131Y-124922869D01*
X146650000Y-129150000D02*
X146650000Y-127362500D01*
X140300000Y-129900000D02*
X145900000Y-129900000D01*
X139650000Y-129250000D02*
X140300000Y-129900000D01*
X139650000Y-127362500D02*
X139650000Y-129250000D01*
X145900000Y-129900000D02*
X146650000Y-129150000D01*
X147600000Y-130300000D02*
X147600000Y-129237500D01*
X142300000Y-130700000D02*
X147200000Y-130700000D01*
X147200000Y-130700000D02*
X147600000Y-130300000D01*
X148550000Y-126250000D02*
X148550000Y-127362500D01*
X148200000Y-125900000D02*
X148550000Y-126250000D01*
X146650000Y-125450000D02*
X147100000Y-125900000D01*
X147100000Y-125900000D02*
X148200000Y-125900000D01*
X146650000Y-122562500D02*
X146650000Y-125450000D01*
X146200000Y-119500000D02*
X147600000Y-120900000D01*
X147600000Y-120900000D02*
X147600000Y-124437500D01*
X139000000Y-119500000D02*
X146200000Y-119500000D01*
D33*
X128900000Y-119700000D02*
X128500000Y-119300000D01*
X137835000Y-118335000D02*
X136470000Y-119700000D01*
D35*
X121900000Y-94900000D02*
X116910000Y-99890000D01*
X139800000Y-94900000D02*
X121900000Y-94900000D01*
X116910000Y-99890000D02*
X116910000Y-103400000D01*
X143600000Y-98700000D02*
X139800000Y-94900000D01*
X143600000Y-101600000D02*
X143600000Y-98700000D01*
D33*
X126200000Y-106400000D02*
X125800000Y-106000000D01*
X125800000Y-106000000D02*
X121400000Y-106000000D01*
X121400000Y-106000000D02*
X120860000Y-106540000D01*
X126200000Y-107287500D02*
X126200000Y-106400000D01*
X120860000Y-106540000D02*
X120860000Y-108000000D01*
D36*
X122400000Y-127000000D02*
X122400000Y-129900000D01*
X128450000Y-109150000D02*
X130200000Y-107400000D01*
X126200000Y-123200000D02*
X122400000Y-127000000D01*
X126200000Y-121100000D02*
X126200000Y-118300000D01*
X126200000Y-109112500D02*
X128362500Y-109112500D01*
X120300000Y-129900000D02*
X119100000Y-129900000D01*
X128400000Y-109150000D02*
X128450000Y-109150000D01*
X128362500Y-109112500D02*
X128400000Y-109150000D01*
X126200000Y-118300000D02*
X126200000Y-109112500D01*
X122400000Y-129900000D02*
X121400000Y-129900000D01*
X121400000Y-129900000D02*
X120300000Y-129900000D01*
X126200000Y-121100000D02*
X126200000Y-123200000D01*
D33*
X141645000Y-114555000D02*
X142100000Y-114100000D01*
X141645000Y-116900000D02*
X141645000Y-114555000D01*
X145400000Y-108700000D02*
X145400000Y-106900000D01*
X144100000Y-113000000D02*
X144100000Y-110000000D01*
X143000000Y-114100000D02*
X144100000Y-113000000D01*
X142100000Y-114100000D02*
X143000000Y-114100000D01*
X144100000Y-110000000D02*
X145400000Y-108700000D01*
X140375000Y-116900000D02*
X140375000Y-113725000D01*
X140375000Y-113725000D02*
X141100000Y-113000000D01*
X142400000Y-113000000D02*
X141100000Y-113000000D01*
X142900000Y-112500000D02*
X142400000Y-113000000D01*
X142900000Y-106900000D02*
X142900000Y-112500000D01*
D35*
X111830000Y-98570000D02*
X113700000Y-96700000D01*
X111830000Y-103400000D02*
X111830000Y-98570000D01*
X135300000Y-92700000D02*
X137600000Y-90400000D01*
X137600000Y-90400000D02*
X137600000Y-87400000D01*
X117700000Y-96700000D02*
X121700000Y-92700000D01*
X121700000Y-92700000D02*
X135300000Y-92700000D01*
X113700000Y-96700000D02*
X117700000Y-96700000D01*
X133450000Y-87450000D02*
X133450000Y-85150000D01*
X113200000Y-84100000D02*
X111890000Y-85410000D01*
X111890000Y-85410000D02*
X111890000Y-92600000D01*
X132400000Y-84100000D02*
X113200000Y-84100000D01*
X133450000Y-85150000D02*
X132400000Y-84100000D01*
D33*
X138800000Y-105400000D02*
X139600000Y-104600000D01*
X140745000Y-108400000D02*
X139489244Y-108400000D01*
X138800000Y-107710756D02*
X138800000Y-105400000D01*
X139600000Y-104600000D02*
X148500000Y-104600000D01*
X141645000Y-109300000D02*
X140745000Y-108400000D01*
X149650000Y-103450000D02*
X149650000Y-99650000D01*
X148500000Y-104600000D02*
X149650000Y-103450000D01*
X139489244Y-108400000D02*
X138800000Y-107710756D01*
X141645000Y-110550000D02*
X141645000Y-109300000D01*
X137400000Y-104700000D02*
X138100000Y-105400000D01*
X121450000Y-102700000D02*
X123450000Y-104700000D01*
X138100000Y-105400000D02*
X138100000Y-108000000D01*
X121450000Y-99650000D02*
X121450000Y-102700000D01*
X140375000Y-109375000D02*
X140375000Y-110550000D01*
X140100000Y-109100000D02*
X140375000Y-109375000D01*
X123450000Y-104700000D02*
X137400000Y-104700000D01*
X139200000Y-109100000D02*
X140100000Y-109100000D01*
X138100000Y-108000000D02*
X139200000Y-109100000D01*
D34*
X137835000Y-116900000D02*
X137835000Y-118335000D01*
X137835000Y-118335000D02*
X139000000Y-119500000D01*
X124800000Y-127412500D02*
X124800000Y-126900000D01*
X124800000Y-126900000D02*
X127675500Y-124024500D01*
X127675500Y-124024500D02*
X127675500Y-121024500D01*
X127675500Y-121024500D02*
X128100000Y-120600000D01*
X126300000Y-128912500D02*
X124800000Y-127412500D01*
D33*
X136200000Y-106900000D02*
X136200000Y-107700000D01*
X137835000Y-109335000D02*
X137835000Y-110550000D01*
X136200000Y-107700000D02*
X137835000Y-109335000D01*
D34*
X133600000Y-128500000D02*
X133600000Y-128800000D01*
X137537500Y-129237500D02*
X136400000Y-128100000D01*
X138700000Y-129237500D02*
X137537500Y-129237500D01*
X132287500Y-129100000D02*
X132200000Y-129012500D01*
X134000000Y-128100000D02*
X133600000Y-128500000D01*
X136400000Y-128100000D02*
X134000000Y-128100000D01*
X133300000Y-129100000D02*
X132287500Y-129100000D01*
X133600000Y-128800000D02*
X133300000Y-129100000D01*
X135500000Y-130700000D02*
X135000000Y-130200000D01*
X135000000Y-130200000D02*
X135000000Y-129112500D01*
X142300000Y-130700000D02*
X135500000Y-130700000D01*
X135000000Y-129112500D02*
X135100000Y-129012500D01*
X127600000Y-127900000D02*
X127800000Y-128100000D01*
X132200000Y-127187500D02*
X135100000Y-127187500D01*
X127600000Y-127400000D02*
X127600000Y-127900000D01*
X127800000Y-128100000D02*
X130600000Y-128100000D01*
X127287500Y-127087500D02*
X127600000Y-127400000D01*
X131512500Y-127187500D02*
X132200000Y-127187500D01*
X126300000Y-127087500D02*
X127287500Y-127087500D01*
X135100000Y-127187500D02*
X135100000Y-125800000D01*
X130600000Y-128100000D02*
X131512500Y-127187500D01*
X135100000Y-125800000D02*
X135977131Y-124922869D01*
D35*
X118100000Y-92600000D02*
X120500000Y-90200000D01*
X120500000Y-90200000D02*
X127400000Y-90200000D01*
X116970000Y-92600000D02*
X118100000Y-92600000D01*
D34*
X129700000Y-125400000D02*
X129300000Y-125800000D01*
X129300000Y-125800000D02*
X128600000Y-125100000D01*
X129400000Y-125900000D02*
X129300000Y-125800000D01*
X137750000Y-127362500D02*
X137750000Y-126250000D01*
X128600000Y-125100000D02*
X128600000Y-121800000D01*
X129400000Y-127187500D02*
X129400000Y-125900000D01*
X134300000Y-125400000D02*
X129700000Y-125400000D01*
X138900000Y-125100000D02*
X138900000Y-124500000D01*
X138500000Y-124100000D02*
X135600000Y-124100000D01*
X138900000Y-124500000D02*
X138500000Y-124100000D01*
X135600000Y-124100000D02*
X134300000Y-125400000D01*
X137750000Y-126250000D02*
X138900000Y-125100000D01*
G04 #@! TA.AperFunction,Conductor*
G36*
X124116766Y-127520741D02*
G01*
X124173602Y-127563288D01*
X124189885Y-127592412D01*
X124197803Y-127612410D01*
X124201649Y-127623642D01*
X124213982Y-127666093D01*
X124218015Y-127672912D01*
X124218017Y-127672917D01*
X124224293Y-127683528D01*
X124232988Y-127701276D01*
X124240448Y-127720117D01*
X124245110Y-127726533D01*
X124245110Y-127726534D01*
X124266436Y-127755887D01*
X124272952Y-127765807D01*
X124295458Y-127803862D01*
X124309779Y-127818183D01*
X124322619Y-127833216D01*
X124334528Y-127849607D01*
X124368605Y-127877798D01*
X124377384Y-127885788D01*
X125054595Y-128562999D01*
X125088621Y-128625311D01*
X125091500Y-128652094D01*
X125091501Y-128939414D01*
X125091501Y-129225400D01*
X125102474Y-129331167D01*
X125104658Y-129337713D01*
X125155730Y-129490792D01*
X125158450Y-129498946D01*
X125251521Y-129649349D01*
X125376697Y-129774306D01*
X125425963Y-129804674D01*
X125513329Y-129858527D01*
X125527261Y-129867115D01*
X125559328Y-129877751D01*
X125688610Y-129920632D01*
X125688612Y-129920632D01*
X125695138Y-129922797D01*
X125701974Y-129923497D01*
X125701977Y-129923498D01*
X125745030Y-129927909D01*
X125799599Y-129933500D01*
X126296141Y-129933500D01*
X126800400Y-129933499D01*
X126906167Y-129922526D01*
X126991795Y-129893958D01*
X127067002Y-129868867D01*
X127067004Y-129868866D01*
X127073946Y-129866550D01*
X127224349Y-129773479D01*
X127244622Y-129753171D01*
X127338077Y-129659552D01*
X127349306Y-129648303D01*
X127442115Y-129497739D01*
X127497797Y-129329862D01*
X127498593Y-129322095D01*
X128192001Y-129322095D01*
X128192338Y-129328614D01*
X128202257Y-129424206D01*
X128205149Y-129437600D01*
X128256588Y-129591784D01*
X128262761Y-129604962D01*
X128348063Y-129742807D01*
X128357099Y-129754208D01*
X128471829Y-129868739D01*
X128483240Y-129877751D01*
X128621243Y-129962816D01*
X128634424Y-129968963D01*
X128788710Y-130020138D01*
X128802086Y-130023005D01*
X128896438Y-130032672D01*
X128902854Y-130033000D01*
X129127885Y-130033000D01*
X129143124Y-130028525D01*
X129144329Y-130027135D01*
X129146000Y-130019452D01*
X129146000Y-130014884D01*
X129654000Y-130014884D01*
X129658475Y-130030123D01*
X129659865Y-130031328D01*
X129667548Y-130032999D01*
X129897095Y-130032999D01*
X129903614Y-130032662D01*
X129999206Y-130022743D01*
X130012600Y-130019851D01*
X130166784Y-129968412D01*
X130179962Y-129962239D01*
X130317807Y-129876937D01*
X130329208Y-129867901D01*
X130443739Y-129753171D01*
X130452751Y-129741760D01*
X130537816Y-129603757D01*
X130543963Y-129590576D01*
X130595138Y-129436290D01*
X130598005Y-129422914D01*
X130607672Y-129328562D01*
X130608000Y-129322146D01*
X130608000Y-129284615D01*
X130603525Y-129269376D01*
X130602135Y-129268171D01*
X130594452Y-129266500D01*
X129672115Y-129266500D01*
X129656876Y-129270975D01*
X129655671Y-129272365D01*
X129654000Y-129280048D01*
X129654000Y-130014884D01*
X129146000Y-130014884D01*
X129146000Y-129284615D01*
X129141525Y-129269376D01*
X129140135Y-129268171D01*
X129132452Y-129266500D01*
X128210116Y-129266500D01*
X128194877Y-129270975D01*
X128193672Y-129272365D01*
X128192001Y-129280048D01*
X128192001Y-129322095D01*
X127498593Y-129322095D01*
X127508500Y-129225401D01*
X127508499Y-128842754D01*
X127528501Y-128774635D01*
X127582156Y-128728142D01*
X127654214Y-128718307D01*
X127665526Y-128720099D01*
X127677144Y-128722505D01*
X127708959Y-128730673D01*
X127719970Y-128733500D01*
X127740224Y-128733500D01*
X127759934Y-128735051D01*
X127779943Y-128738220D01*
X127787835Y-128737474D01*
X127823961Y-128734059D01*
X127835819Y-128733500D01*
X128123947Y-128733500D01*
X128192068Y-128753502D01*
X128195957Y-128756414D01*
X128205548Y-128758500D01*
X130589884Y-128758500D01*
X130631463Y-128746291D01*
X130646868Y-128736391D01*
X130678409Y-128731348D01*
X130690253Y-128730976D01*
X130691970Y-128730922D01*
X130699889Y-128730673D01*
X130719343Y-128725021D01*
X130738700Y-128721013D01*
X130750930Y-128719468D01*
X130750931Y-128719468D01*
X130758797Y-128718474D01*
X130766168Y-128715555D01*
X130766170Y-128715555D01*
X130799912Y-128702196D01*
X130811140Y-128698352D01*
X130830345Y-128692772D01*
X130901341Y-128692973D01*
X130960958Y-128731526D01*
X130990268Y-128796190D01*
X130991500Y-128813768D01*
X130991501Y-129073222D01*
X130991501Y-129325400D01*
X131002474Y-129431167D01*
X131004658Y-129437713D01*
X131056061Y-129591784D01*
X131058450Y-129598946D01*
X131151521Y-129749349D01*
X131276697Y-129874306D01*
X131351381Y-129920342D01*
X131420287Y-129962816D01*
X131427261Y-129967115D01*
X131481530Y-129985115D01*
X131588610Y-130020632D01*
X131588612Y-130020632D01*
X131595138Y-130022797D01*
X131601974Y-130023497D01*
X131601977Y-130023498D01*
X131645030Y-130027909D01*
X131699599Y-130033500D01*
X132196141Y-130033500D01*
X132700400Y-130033499D01*
X132806167Y-130022526D01*
X132895140Y-129992842D01*
X132967002Y-129968867D01*
X132967004Y-129968866D01*
X132973946Y-129966550D01*
X133124349Y-129873479D01*
X133193034Y-129804674D01*
X133227165Y-129770483D01*
X133289447Y-129736403D01*
X133316338Y-129733500D01*
X133339856Y-129733500D01*
X133343791Y-129733003D01*
X133343856Y-129732995D01*
X133355693Y-129732062D01*
X133387951Y-129731048D01*
X133391970Y-129730922D01*
X133399889Y-129730673D01*
X133419343Y-129725021D01*
X133438700Y-129721013D01*
X133450930Y-129719468D01*
X133450931Y-129719468D01*
X133458797Y-129718474D01*
X133466168Y-129715555D01*
X133466170Y-129715555D01*
X133499912Y-129702196D01*
X133511142Y-129698351D01*
X133545983Y-129688229D01*
X133545984Y-129688229D01*
X133553593Y-129686018D01*
X133560412Y-129681985D01*
X133560417Y-129681983D01*
X133571028Y-129675707D01*
X133588776Y-129667012D01*
X133607617Y-129659552D01*
X133614541Y-129654522D01*
X133643387Y-129633564D01*
X133653307Y-129627048D01*
X133656687Y-129625049D01*
X133691362Y-129604542D01*
X133696969Y-129598936D01*
X133705685Y-129590220D01*
X133720719Y-129577379D01*
X133730695Y-129570131D01*
X133730696Y-129570130D01*
X133737107Y-129565472D01*
X133742213Y-129559299D01*
X133742269Y-129559262D01*
X133747937Y-129553939D01*
X133748796Y-129554853D01*
X133801048Y-129519561D01*
X133872026Y-129517940D01*
X133932613Y-129554949D01*
X133953400Y-129586167D01*
X133956133Y-129592002D01*
X133958450Y-129598946D01*
X134051521Y-129749349D01*
X134176697Y-129874306D01*
X134304066Y-129952817D01*
X134306616Y-129954389D01*
X134354109Y-130007161D01*
X134366500Y-130061649D01*
X134366500Y-130121233D01*
X134365973Y-130132416D01*
X134364298Y-130139909D01*
X134364547Y-130147835D01*
X134364547Y-130147836D01*
X134366438Y-130207986D01*
X134366500Y-130211945D01*
X134366500Y-130239856D01*
X134366997Y-130243790D01*
X134366997Y-130243791D01*
X134367005Y-130243856D01*
X134367938Y-130255693D01*
X134369327Y-130299889D01*
X134372021Y-130309161D01*
X134374978Y-130319339D01*
X134378987Y-130338700D01*
X134381526Y-130358797D01*
X134384445Y-130366168D01*
X134384445Y-130366170D01*
X134397804Y-130399912D01*
X134401649Y-130411142D01*
X134411771Y-130445983D01*
X134413982Y-130453593D01*
X134418015Y-130460412D01*
X134418017Y-130460417D01*
X134424293Y-130471028D01*
X134432988Y-130488776D01*
X134440448Y-130507617D01*
X134445110Y-130514033D01*
X134445110Y-130514034D01*
X134466436Y-130543387D01*
X134472952Y-130553307D01*
X134491384Y-130584473D01*
X134495458Y-130591362D01*
X134509779Y-130605683D01*
X134522619Y-130620716D01*
X134534528Y-130637107D01*
X134547135Y-130647536D01*
X134568593Y-130665288D01*
X134577373Y-130673278D01*
X134680500Y-130776405D01*
X134714526Y-130838717D01*
X134709461Y-130909532D01*
X134666914Y-130966368D01*
X134600394Y-130991179D01*
X134591405Y-130991500D01*
X123722191Y-130991500D01*
X123654070Y-130971498D01*
X123607577Y-130917842D01*
X123597473Y-130847568D01*
X123624826Y-130785525D01*
X123639522Y-130767633D01*
X123639525Y-130767629D01*
X123642734Y-130763722D01*
X123652062Y-130747694D01*
X123660854Y-130734561D01*
X123672120Y-130719826D01*
X123715995Y-130637999D01*
X123718135Y-130634170D01*
X123762291Y-130558304D01*
X123762293Y-130558300D01*
X123764841Y-130553922D01*
X123766655Y-130549197D01*
X123766661Y-130549184D01*
X123771484Y-130536618D01*
X123778071Y-130522229D01*
X123784441Y-130510349D01*
X123784442Y-130510346D01*
X123786831Y-130505891D01*
X123788476Y-130501113D01*
X123788481Y-130501102D01*
X123817064Y-130418090D01*
X123818568Y-130413957D01*
X123850018Y-130332028D01*
X123850020Y-130332020D01*
X123851833Y-130327298D01*
X123855623Y-130309159D01*
X123859823Y-130293908D01*
X123864215Y-130281152D01*
X123865862Y-130276369D01*
X123881676Y-130184813D01*
X123882489Y-130180554D01*
X123900440Y-130094632D01*
X123900441Y-130094626D01*
X123901474Y-130089680D01*
X123902315Y-130071161D01*
X123904023Y-130055437D01*
X123906504Y-130041071D01*
X123907179Y-130037164D01*
X123907571Y-130028525D01*
X123908436Y-130009494D01*
X123908436Y-130009475D01*
X123908500Y-130008075D01*
X123908500Y-129937812D01*
X123908630Y-129932096D01*
X123910473Y-129891502D01*
X123912486Y-129847183D01*
X123911505Y-129838699D01*
X123909335Y-129819950D01*
X123908500Y-129805468D01*
X123908500Y-127677031D01*
X123928502Y-127608910D01*
X123945405Y-127587936D01*
X123983639Y-127549702D01*
X124045951Y-127515676D01*
X124116766Y-127520741D01*
G37*
G04 #@! TD.AperFunction*
G04 #@! TA.AperFunction,Conductor*
G36*
X125001798Y-107734339D02*
G01*
X125026097Y-107776975D01*
X125052883Y-107857261D01*
X125058450Y-107873946D01*
X125062301Y-107880169D01*
X125098831Y-107939202D01*
X125117668Y-108007654D01*
X125096506Y-108075423D01*
X125082175Y-108092410D01*
X125082381Y-108092595D01*
X125078996Y-108096354D01*
X125075319Y-108099832D01*
X125062824Y-108116175D01*
X125018945Y-108173566D01*
X125016214Y-108177013D01*
X124971565Y-108231370D01*
X124912870Y-108271313D01*
X124841898Y-108273183D01*
X124813451Y-108258133D01*
X124794452Y-108254000D01*
X123672115Y-108254000D01*
X123656876Y-108258475D01*
X123655671Y-108259865D01*
X123654000Y-108267548D01*
X123654000Y-109389884D01*
X123658475Y-109405123D01*
X123659865Y-109406328D01*
X123667548Y-109407999D01*
X124344669Y-109407999D01*
X124351490Y-109407629D01*
X124402352Y-109402105D01*
X124417603Y-109398479D01*
X124521270Y-109359616D01*
X124592077Y-109354433D01*
X124654446Y-109388354D01*
X124688576Y-109450609D01*
X124691500Y-109477598D01*
X124691500Y-111531240D01*
X124671498Y-111599361D01*
X124617842Y-111645854D01*
X124547568Y-111655958D01*
X124521270Y-111649222D01*
X124512286Y-111645854D01*
X124385316Y-111598255D01*
X124323134Y-111591500D01*
X122426866Y-111591500D01*
X122364684Y-111598255D01*
X122228295Y-111649385D01*
X122111739Y-111736739D01*
X122024385Y-111853295D01*
X122021233Y-111861704D01*
X122021232Y-111861705D01*
X122000538Y-111916906D01*
X121957897Y-111973671D01*
X121891335Y-111998371D01*
X121821986Y-111983164D01*
X121799167Y-111966666D01*
X121798887Y-111966358D01*
X121756410Y-111932812D01*
X121621177Y-111826011D01*
X121621172Y-111826008D01*
X121617123Y-111822810D01*
X121612607Y-111820317D01*
X121612604Y-111820315D01*
X121418879Y-111713373D01*
X121418875Y-111713371D01*
X121414355Y-111710876D01*
X121409486Y-111709152D01*
X121409482Y-111709150D01*
X121200903Y-111635288D01*
X121200899Y-111635287D01*
X121196028Y-111633562D01*
X121190935Y-111632655D01*
X121190932Y-111632654D01*
X120973095Y-111593851D01*
X120973089Y-111593850D01*
X120968006Y-111592945D01*
X120895096Y-111592054D01*
X120741581Y-111590179D01*
X120741579Y-111590179D01*
X120736411Y-111590116D01*
X120507464Y-111625150D01*
X120287314Y-111697106D01*
X120282726Y-111699494D01*
X120282722Y-111699496D01*
X120086461Y-111801663D01*
X120081872Y-111804052D01*
X120077739Y-111807155D01*
X120077736Y-111807157D01*
X119900790Y-111940012D01*
X119896655Y-111943117D01*
X119736639Y-112110564D01*
X119606119Y-112301899D01*
X119508602Y-112511981D01*
X119446707Y-112735169D01*
X119422095Y-112965469D01*
X119422392Y-112970622D01*
X119422392Y-112970625D01*
X119423439Y-112988779D01*
X119435427Y-113196697D01*
X119436564Y-113201743D01*
X119436565Y-113201749D01*
X119464052Y-113323716D01*
X119486346Y-113422642D01*
X119488288Y-113427424D01*
X119488289Y-113427428D01*
X119568578Y-113625155D01*
X119573484Y-113637237D01*
X119694501Y-113834719D01*
X119846147Y-114009784D01*
X120024349Y-114157730D01*
X120224322Y-114274584D01*
X120440694Y-114357209D01*
X120445760Y-114358240D01*
X120445761Y-114358240D01*
X120498846Y-114369040D01*
X120667656Y-114403385D01*
X120797089Y-114408131D01*
X120893949Y-114411683D01*
X120893953Y-114411683D01*
X120899113Y-114411872D01*
X120904233Y-114411216D01*
X120904235Y-114411216D01*
X120978166Y-114401745D01*
X121128847Y-114382442D01*
X121133795Y-114380957D01*
X121133802Y-114380956D01*
X121345747Y-114317369D01*
X121350690Y-114315886D01*
X121355324Y-114313616D01*
X121554049Y-114216262D01*
X121554052Y-114216260D01*
X121558684Y-114213991D01*
X121747243Y-114079494D01*
X121792309Y-114034585D01*
X121854681Y-114000669D01*
X121925487Y-114005857D01*
X121982249Y-114048503D01*
X121999231Y-114079607D01*
X122024385Y-114146705D01*
X122111739Y-114263261D01*
X122228295Y-114350615D01*
X122364684Y-114401745D01*
X122426866Y-114408500D01*
X124323134Y-114408500D01*
X124385316Y-114401745D01*
X124521270Y-114350778D01*
X124592078Y-114345595D01*
X124654447Y-114379516D01*
X124688576Y-114441771D01*
X124691500Y-114468760D01*
X124691500Y-119865294D01*
X124671498Y-119933415D01*
X124617842Y-119979908D01*
X124547568Y-119990012D01*
X124482988Y-119960518D01*
X124444604Y-119900792D01*
X124441550Y-119887931D01*
X124435805Y-119856473D01*
X124435804Y-119856469D01*
X124435125Y-119852751D01*
X124427722Y-119828907D01*
X124364096Y-119623999D01*
X124338282Y-119540863D01*
X124204670Y-119242869D01*
X124036226Y-118963084D01*
X124033899Y-118960100D01*
X124033894Y-118960093D01*
X123837726Y-118708558D01*
X123837724Y-118708556D01*
X123835390Y-118705563D01*
X123605070Y-118474034D01*
X123348603Y-118271852D01*
X123069705Y-118101945D01*
X123066261Y-118100379D01*
X123066257Y-118100377D01*
X122955667Y-118050095D01*
X122772414Y-117966775D01*
X122461037Y-117868300D01*
X122167329Y-117813068D01*
X122143809Y-117808645D01*
X122143807Y-117808645D01*
X122140086Y-117807945D01*
X121814208Y-117786586D01*
X121810428Y-117786794D01*
X121810427Y-117786794D01*
X121712897Y-117792162D01*
X121488124Y-117804532D01*
X121484397Y-117805193D01*
X121484393Y-117805193D01*
X121337491Y-117831228D01*
X121166557Y-117861522D01*
X121162941Y-117862624D01*
X121162933Y-117862626D01*
X120857789Y-117955627D01*
X120854167Y-117956731D01*
X120555477Y-118088781D01*
X120530288Y-118103767D01*
X120278074Y-118253817D01*
X120278068Y-118253821D01*
X120274814Y-118255757D01*
X120271812Y-118258073D01*
X120023547Y-118449609D01*
X120016244Y-118455243D01*
X119906170Y-118563602D01*
X119806264Y-118661951D01*
X119783513Y-118684347D01*
X119781149Y-118687314D01*
X119781146Y-118687317D01*
X119606643Y-118906305D01*
X119579991Y-118939751D01*
X119408626Y-119217757D01*
X119407037Y-119221204D01*
X119334096Y-119379427D01*
X119271902Y-119514336D01*
X119270741Y-119517940D01*
X119270741Y-119517941D01*
X119259862Y-119551725D01*
X119171797Y-119825192D01*
X119171079Y-119828903D01*
X119171078Y-119828907D01*
X119110482Y-120142105D01*
X119110481Y-120142114D01*
X119109763Y-120145824D01*
X119109496Y-120149600D01*
X119109495Y-120149605D01*
X119086966Y-120467796D01*
X119086698Y-120471585D01*
X119090437Y-120546693D01*
X119101611Y-120771139D01*
X119102936Y-120797759D01*
X119103577Y-120801490D01*
X119103578Y-120801498D01*
X119157258Y-121113896D01*
X119158241Y-121119619D01*
X119159329Y-121123258D01*
X119159330Y-121123261D01*
X119250600Y-121428444D01*
X119251814Y-121432504D01*
X119253327Y-121435975D01*
X119253329Y-121435981D01*
X119284046Y-121506457D01*
X119382297Y-121731881D01*
X119384220Y-121735152D01*
X119384222Y-121735156D01*
X119457063Y-121859062D01*
X119547802Y-122013414D01*
X119550103Y-122016429D01*
X119743631Y-122270012D01*
X119743636Y-122270017D01*
X119745931Y-122273025D01*
X119973814Y-122506953D01*
X120078273Y-122591090D01*
X120225196Y-122709431D01*
X120225201Y-122709435D01*
X120228149Y-122711809D01*
X120505253Y-122884627D01*
X120801112Y-123022903D01*
X121111440Y-123124634D01*
X121431742Y-123188346D01*
X121435514Y-123188633D01*
X121435522Y-123188634D01*
X121753602Y-123212829D01*
X121753607Y-123212829D01*
X121757379Y-123213116D01*
X122083633Y-123198586D01*
X122143425Y-123188634D01*
X122402037Y-123145590D01*
X122402042Y-123145589D01*
X122405778Y-123144967D01*
X122719149Y-123053034D01*
X122722616Y-123051544D01*
X122722620Y-123051543D01*
X123015721Y-122925616D01*
X123015723Y-122925615D01*
X123019205Y-122924119D01*
X123301601Y-122760091D01*
X123562245Y-122563324D01*
X123797363Y-122336670D01*
X123958501Y-122138743D01*
X124001155Y-122086351D01*
X124001158Y-122086347D01*
X124003549Y-122083410D01*
X124141312Y-121865069D01*
X124175788Y-121810428D01*
X124175790Y-121810425D01*
X124177815Y-121807215D01*
X124182324Y-121797699D01*
X124316009Y-121515522D01*
X124317638Y-121512084D01*
X124318840Y-121508482D01*
X124419790Y-121205897D01*
X124419792Y-121205891D01*
X124420992Y-121202293D01*
X124442053Y-121099238D01*
X124475288Y-121036504D01*
X124537166Y-121001696D01*
X124608040Y-121005867D01*
X124665408Y-121047694D01*
X124691056Y-121113896D01*
X124691500Y-121124469D01*
X124691500Y-122522969D01*
X124671498Y-122591090D01*
X124654595Y-122612064D01*
X121350334Y-125916325D01*
X121347812Y-125918779D01*
X121279506Y-125983373D01*
X121275319Y-125987332D01*
X121231556Y-126044572D01*
X121227592Y-126049757D01*
X121223448Y-126054892D01*
X121203107Y-126078793D01*
X121172530Y-126114720D01*
X121169911Y-126119045D01*
X121169907Y-126119050D01*
X121155509Y-126142824D01*
X121147837Y-126154071D01*
X121127880Y-126180174D01*
X121092312Y-126246509D01*
X121090761Y-126249401D01*
X121087496Y-126255126D01*
X121046779Y-126322358D01*
X121043003Y-126331704D01*
X121034473Y-126352817D01*
X121028693Y-126365158D01*
X121013169Y-126394109D01*
X121011523Y-126398890D01*
X121011521Y-126398894D01*
X120987588Y-126468401D01*
X120985278Y-126474579D01*
X120955845Y-126547429D01*
X120949277Y-126576341D01*
X120948568Y-126579460D01*
X120944837Y-126592559D01*
X120934138Y-126623631D01*
X120920757Y-126701100D01*
X120919477Y-126707504D01*
X120902065Y-126784144D01*
X120900001Y-126816953D01*
X120898415Y-126830453D01*
X120892821Y-126862836D01*
X120891500Y-126891925D01*
X120891500Y-126948108D01*
X120891251Y-126956019D01*
X120886822Y-127026413D01*
X120887316Y-127031448D01*
X120890899Y-127067992D01*
X120891500Y-127080288D01*
X120891500Y-128265500D01*
X120871498Y-128333621D01*
X120817842Y-128380114D01*
X120765500Y-128391500D01*
X119038999Y-128391500D01*
X119036491Y-128391702D01*
X119036486Y-128391702D01*
X118863076Y-128405654D01*
X118863071Y-128405655D01*
X118858035Y-128406060D01*
X118853127Y-128407266D01*
X118853124Y-128407266D01*
X118679345Y-128449950D01*
X118622294Y-128463963D01*
X118617642Y-128465938D01*
X118617638Y-128465939D01*
X118486729Y-128521507D01*
X118398844Y-128558812D01*
X118344574Y-128592988D01*
X118197712Y-128685472D01*
X118197709Y-128685474D01*
X118193433Y-128688167D01*
X118189639Y-128691512D01*
X118015142Y-128845350D01*
X118015139Y-128845353D01*
X118011345Y-128848698D01*
X118008135Y-128852606D01*
X118008134Y-128852607D01*
X117865458Y-129026305D01*
X117857266Y-129036278D01*
X117807044Y-129122568D01*
X117745301Y-129228653D01*
X117735159Y-129246078D01*
X117733346Y-129250801D01*
X117662106Y-129436390D01*
X117648167Y-129472702D01*
X117647133Y-129477652D01*
X117647132Y-129477655D01*
X117601957Y-129693898D01*
X117598526Y-129710320D01*
X117587514Y-129952817D01*
X117588095Y-129957837D01*
X117588095Y-129957841D01*
X117614113Y-130182700D01*
X117615415Y-130193956D01*
X117616791Y-130198820D01*
X117616792Y-130198823D01*
X117650300Y-130317237D01*
X117681510Y-130427532D01*
X117683644Y-130432108D01*
X117683646Y-130432114D01*
X117779236Y-130637107D01*
X117784099Y-130647536D01*
X117882278Y-130792000D01*
X117884097Y-130794677D01*
X117905843Y-130862261D01*
X117887599Y-130930873D01*
X117835156Y-130978730D01*
X117779885Y-130991500D01*
X110434500Y-130991500D01*
X110366379Y-130971498D01*
X110319886Y-130917842D01*
X110308500Y-130865500D01*
X110308500Y-120845774D01*
X113388102Y-120845774D01*
X113396751Y-121076158D01*
X113397846Y-121081377D01*
X113420422Y-121188974D01*
X113444093Y-121301791D01*
X113446051Y-121306750D01*
X113446052Y-121306752D01*
X113525720Y-121508482D01*
X113528776Y-121516221D01*
X113648377Y-121713317D01*
X113651874Y-121717347D01*
X113790990Y-121877664D01*
X113799477Y-121887445D01*
X113803608Y-121890832D01*
X113973627Y-122030240D01*
X113973633Y-122030244D01*
X113977755Y-122033624D01*
X113982391Y-122036263D01*
X113982394Y-122036265D01*
X114070383Y-122086351D01*
X114178114Y-122147675D01*
X114394825Y-122226337D01*
X114400074Y-122227286D01*
X114400077Y-122227287D01*
X114617608Y-122266623D01*
X114617615Y-122266624D01*
X114621692Y-122267361D01*
X114639414Y-122268197D01*
X114644356Y-122268430D01*
X114644363Y-122268430D01*
X114645844Y-122268500D01*
X117107890Y-122268500D01*
X117174809Y-122262822D01*
X117274409Y-122254371D01*
X117274413Y-122254370D01*
X117279720Y-122253920D01*
X117284875Y-122252582D01*
X117284881Y-122252581D01*
X117497703Y-122197343D01*
X117497707Y-122197342D01*
X117502872Y-122196001D01*
X117507738Y-122193809D01*
X117507741Y-122193808D01*
X117708202Y-122103507D01*
X117713075Y-122101312D01*
X117904319Y-121972559D01*
X117968832Y-121911017D01*
X118067278Y-121817103D01*
X118071135Y-121813424D01*
X118208754Y-121628458D01*
X118214766Y-121616635D01*
X118265818Y-121516221D01*
X118313240Y-121422949D01*
X118330969Y-121365855D01*
X118380024Y-121207871D01*
X118381607Y-121202773D01*
X118392942Y-121117251D01*
X118411198Y-120979511D01*
X118411198Y-120979506D01*
X118411898Y-120974226D01*
X118411244Y-120956792D01*
X118405659Y-120808030D01*
X118403249Y-120743842D01*
X118355907Y-120518209D01*
X118352127Y-120508638D01*
X118273185Y-120308744D01*
X118273184Y-120308742D01*
X118271224Y-120303779D01*
X118266017Y-120295197D01*
X118154390Y-120111243D01*
X118151623Y-120106683D01*
X118102101Y-120049614D01*
X118004023Y-119936588D01*
X118004021Y-119936586D01*
X118000523Y-119932555D01*
X117946100Y-119887931D01*
X117826373Y-119789760D01*
X117826367Y-119789756D01*
X117822245Y-119786376D01*
X117817609Y-119783737D01*
X117817606Y-119783735D01*
X117626529Y-119674968D01*
X117621886Y-119672325D01*
X117405175Y-119593663D01*
X117399926Y-119592714D01*
X117399923Y-119592713D01*
X117182392Y-119553377D01*
X117182385Y-119553376D01*
X117178308Y-119552639D01*
X117160586Y-119551803D01*
X117155644Y-119551570D01*
X117155637Y-119551570D01*
X117154156Y-119551500D01*
X114692110Y-119551500D01*
X114625191Y-119557178D01*
X114525591Y-119565629D01*
X114525587Y-119565630D01*
X114520280Y-119566080D01*
X114515125Y-119567418D01*
X114515119Y-119567419D01*
X114302297Y-119622657D01*
X114302293Y-119622658D01*
X114297128Y-119623999D01*
X114292262Y-119626191D01*
X114292259Y-119626192D01*
X114183980Y-119674968D01*
X114086925Y-119718688D01*
X113895681Y-119847441D01*
X113891824Y-119851120D01*
X113891822Y-119851122D01*
X113886213Y-119856473D01*
X113728865Y-120006576D01*
X113591246Y-120191542D01*
X113588830Y-120196293D01*
X113588828Y-120196297D01*
X113545995Y-120280544D01*
X113486760Y-120397051D01*
X113485178Y-120402145D01*
X113485177Y-120402148D01*
X113438706Y-120551808D01*
X113418393Y-120617227D01*
X113417692Y-120622516D01*
X113394466Y-120797759D01*
X113388102Y-120845774D01*
X110308500Y-120845774D01*
X110308500Y-117998134D01*
X113391500Y-117998134D01*
X113398255Y-118060316D01*
X113449385Y-118196705D01*
X113536739Y-118313261D01*
X113653295Y-118400615D01*
X113789684Y-118451745D01*
X113851866Y-118458500D01*
X117948134Y-118458500D01*
X118010316Y-118451745D01*
X118146705Y-118400615D01*
X118263261Y-118313261D01*
X118350615Y-118196705D01*
X118401745Y-118060316D01*
X118408500Y-117998134D01*
X118408500Y-116201866D01*
X118401745Y-116139684D01*
X118350615Y-116003295D01*
X118263261Y-115886739D01*
X118146705Y-115799385D01*
X118010316Y-115748255D01*
X117948134Y-115741500D01*
X113851866Y-115741500D01*
X113789684Y-115748255D01*
X113653295Y-115799385D01*
X113536739Y-115886739D01*
X113449385Y-116003295D01*
X113398255Y-116139684D01*
X113391500Y-116201866D01*
X113391500Y-117998134D01*
X110308500Y-117998134D01*
X110308500Y-111088566D01*
X110328502Y-111020445D01*
X110382158Y-110973952D01*
X110452432Y-110963848D01*
X110517012Y-110993342D01*
X110557019Y-111059152D01*
X110590495Y-111198591D01*
X110592388Y-111203162D01*
X110592389Y-111203164D01*
X110674943Y-111402466D01*
X110687384Y-111432502D01*
X110819672Y-111648376D01*
X110984102Y-111840898D01*
X111176624Y-112005328D01*
X111392498Y-112137616D01*
X111397068Y-112139509D01*
X111397072Y-112139511D01*
X111615808Y-112230114D01*
X111626409Y-112234505D01*
X111710036Y-112254582D01*
X111867784Y-112292454D01*
X111867790Y-112292455D01*
X111872597Y-112293609D01*
X111972416Y-112301465D01*
X112059345Y-112308307D01*
X112059352Y-112308307D01*
X112061801Y-112308500D01*
X113988199Y-112308500D01*
X113990648Y-112308307D01*
X113990655Y-112308307D01*
X114077584Y-112301465D01*
X114177403Y-112293609D01*
X114182210Y-112292455D01*
X114182216Y-112292454D01*
X114339964Y-112254582D01*
X114423591Y-112234505D01*
X114434192Y-112230114D01*
X114652928Y-112139511D01*
X114652932Y-112139509D01*
X114657502Y-112137616D01*
X114873376Y-112005328D01*
X115065898Y-111840898D01*
X115230328Y-111648376D01*
X115362616Y-111432502D01*
X115375058Y-111402466D01*
X115457611Y-111203164D01*
X115457612Y-111203162D01*
X115459505Y-111198591D01*
X115481621Y-111106472D01*
X115517454Y-110957216D01*
X115517455Y-110957210D01*
X115518609Y-110952403D01*
X115538474Y-110700000D01*
X115518609Y-110447597D01*
X115514030Y-110428520D01*
X115468038Y-110236953D01*
X115459505Y-110201409D01*
X115457611Y-110196836D01*
X115364511Y-109972072D01*
X115364509Y-109972068D01*
X115362616Y-109967498D01*
X115230328Y-109751624D01*
X115065898Y-109559102D01*
X114873376Y-109394672D01*
X114657502Y-109262384D01*
X114652932Y-109260491D01*
X114652928Y-109260489D01*
X114428164Y-109167389D01*
X114428162Y-109167388D01*
X114423591Y-109165495D01*
X114312052Y-109138717D01*
X114182216Y-109107546D01*
X114182210Y-109107545D01*
X114177403Y-109106391D01*
X114077584Y-109098535D01*
X113990655Y-109091693D01*
X113990648Y-109091693D01*
X113988199Y-109091500D01*
X112061801Y-109091500D01*
X112059352Y-109091693D01*
X112059345Y-109091693D01*
X111972416Y-109098535D01*
X111872597Y-109106391D01*
X111867790Y-109107545D01*
X111867784Y-109107546D01*
X111737948Y-109138717D01*
X111626409Y-109165495D01*
X111621838Y-109167388D01*
X111621836Y-109167389D01*
X111397072Y-109260489D01*
X111397068Y-109260491D01*
X111392498Y-109262384D01*
X111176624Y-109394672D01*
X110984102Y-109559102D01*
X110819672Y-109751624D01*
X110687384Y-109967498D01*
X110685491Y-109972068D01*
X110685489Y-109972072D01*
X110592389Y-110196836D01*
X110590495Y-110201409D01*
X110581962Y-110236953D01*
X110557019Y-110340848D01*
X110521667Y-110402417D01*
X110458640Y-110435100D01*
X110387949Y-110428520D01*
X110332038Y-110384765D01*
X110308500Y-110311434D01*
X110308500Y-107934500D01*
X110328502Y-107866379D01*
X110382158Y-107819886D01*
X110434500Y-107808500D01*
X119323687Y-107808500D01*
X119391808Y-107828502D01*
X119438301Y-107882158D01*
X119448973Y-107947891D01*
X119447644Y-107960328D01*
X119447095Y-107965469D01*
X119447392Y-107970622D01*
X119447392Y-107970625D01*
X119455074Y-108103852D01*
X119460427Y-108196697D01*
X119461564Y-108201743D01*
X119461565Y-108201749D01*
X119487857Y-108318412D01*
X119511346Y-108422642D01*
X119513288Y-108427424D01*
X119513289Y-108427428D01*
X119596540Y-108632450D01*
X119598484Y-108637237D01*
X119719501Y-108834719D01*
X119871147Y-109009784D01*
X120049349Y-109157730D01*
X120249322Y-109274584D01*
X120254147Y-109276426D01*
X120254148Y-109276427D01*
X120309076Y-109297402D01*
X120465694Y-109357209D01*
X120470760Y-109358240D01*
X120470761Y-109358240D01*
X120522282Y-109368722D01*
X120692656Y-109403385D01*
X120823324Y-109408176D01*
X120918949Y-109411683D01*
X120918953Y-109411683D01*
X120924113Y-109411872D01*
X120929233Y-109411216D01*
X120929235Y-109411216D01*
X121028668Y-109398478D01*
X121153847Y-109382442D01*
X121158795Y-109380957D01*
X121158802Y-109380956D01*
X121370747Y-109317369D01*
X121375690Y-109315886D01*
X121406017Y-109301029D01*
X121579049Y-109216262D01*
X121579052Y-109216260D01*
X121583684Y-109213991D01*
X121772243Y-109079494D01*
X121775898Y-109075852D01*
X121775906Y-109075845D01*
X121817697Y-109034199D01*
X121880068Y-109000282D01*
X121950875Y-109005470D01*
X122007637Y-109048116D01*
X122024619Y-109079218D01*
X122046677Y-109138056D01*
X122055214Y-109153649D01*
X122131715Y-109255724D01*
X122144276Y-109268285D01*
X122246351Y-109344786D01*
X122261946Y-109353324D01*
X122382394Y-109398478D01*
X122397649Y-109402105D01*
X122448514Y-109407631D01*
X122455328Y-109408000D01*
X123127885Y-109408000D01*
X123143124Y-109403525D01*
X123144329Y-109402135D01*
X123146000Y-109394452D01*
X123146000Y-107872000D01*
X123166002Y-107803879D01*
X123219658Y-107757386D01*
X123272000Y-107746000D01*
X124789884Y-107746000D01*
X124805123Y-107741525D01*
X124811349Y-107734340D01*
X124871075Y-107695956D01*
X124942072Y-107695956D01*
X125001798Y-107734339D01*
G37*
G04 #@! TD.AperFunction*
G04 #@! TA.AperFunction,Conductor*
G36*
X150251322Y-118085318D02*
G01*
X150287574Y-118146361D01*
X150291500Y-118177570D01*
X150291500Y-130865500D01*
X150271498Y-130933621D01*
X150217842Y-130980114D01*
X150165500Y-130991500D01*
X148110844Y-130991500D01*
X148042723Y-130971498D01*
X147996230Y-130917842D01*
X147986126Y-130847568D01*
X148018993Y-130779248D01*
X148053657Y-130742334D01*
X148056413Y-130739491D01*
X148076134Y-130719770D01*
X148078612Y-130716575D01*
X148086318Y-130707553D01*
X148111158Y-130681101D01*
X148116586Y-130675321D01*
X148126346Y-130657568D01*
X148137199Y-130641045D01*
X148139553Y-130638010D01*
X148149613Y-130625041D01*
X148167176Y-130584457D01*
X148172383Y-130573827D01*
X148193695Y-130535060D01*
X148195666Y-130527383D01*
X148195668Y-130527378D01*
X148198732Y-130515442D01*
X148205138Y-130496730D01*
X148210034Y-130485417D01*
X148213181Y-130478145D01*
X148220097Y-130434481D01*
X148222504Y-130422860D01*
X148231528Y-130387711D01*
X148231528Y-130387710D01*
X148233500Y-130380030D01*
X148233500Y-130359769D01*
X148235051Y-130340058D01*
X148236323Y-130332028D01*
X148238219Y-130320057D01*
X148237810Y-130315726D01*
X148259448Y-130249779D01*
X148264316Y-130243929D01*
X148263989Y-130243675D01*
X148268845Y-130237415D01*
X148274453Y-130231807D01*
X148278489Y-130224983D01*
X148278491Y-130224980D01*
X148355108Y-130095427D01*
X148359145Y-130088601D01*
X148367838Y-130058681D01*
X148378059Y-130023498D01*
X148405562Y-129928831D01*
X148406208Y-129920632D01*
X148408307Y-129893958D01*
X148408307Y-129893950D01*
X148408500Y-129891502D01*
X148408500Y-128734500D01*
X148428502Y-128666379D01*
X148482158Y-128619886D01*
X148534500Y-128608500D01*
X148766502Y-128608500D01*
X148768950Y-128608307D01*
X148768958Y-128608307D01*
X148797421Y-128606067D01*
X148797426Y-128606066D01*
X148803831Y-128605562D01*
X148903769Y-128576528D01*
X148955988Y-128561357D01*
X148955990Y-128561356D01*
X148963601Y-128559145D01*
X148992411Y-128542107D01*
X149099980Y-128478491D01*
X149099983Y-128478489D01*
X149106807Y-128474453D01*
X149224453Y-128356807D01*
X149228489Y-128349983D01*
X149228491Y-128349980D01*
X149305108Y-128220427D01*
X149309145Y-128213601D01*
X149355562Y-128053831D01*
X149358027Y-128022519D01*
X149358307Y-128018958D01*
X149358307Y-128018950D01*
X149358500Y-128016502D01*
X149358500Y-126708498D01*
X149355562Y-126671169D01*
X149321377Y-126553502D01*
X149311357Y-126519012D01*
X149311356Y-126519010D01*
X149309145Y-126511399D01*
X149282996Y-126467183D01*
X149228491Y-126375020D01*
X149228489Y-126375017D01*
X149224453Y-126368193D01*
X149218844Y-126362584D01*
X149213989Y-126356325D01*
X149215879Y-126354859D01*
X149187580Y-126303034D01*
X149184763Y-126280210D01*
X149183562Y-126242003D01*
X149183500Y-126238044D01*
X149183500Y-126210144D01*
X149182996Y-126206153D01*
X149182063Y-126194311D01*
X149181821Y-126186593D01*
X149180674Y-126150111D01*
X149178462Y-126142497D01*
X149178461Y-126142492D01*
X149175023Y-126130659D01*
X149171012Y-126111295D01*
X149169467Y-126099064D01*
X149168474Y-126091203D01*
X149165557Y-126083836D01*
X149165556Y-126083831D01*
X149152198Y-126050092D01*
X149148354Y-126038865D01*
X149145974Y-126030673D01*
X149136018Y-125996407D01*
X149125707Y-125978972D01*
X149117012Y-125961224D01*
X149109552Y-125942383D01*
X149091544Y-125917596D01*
X149083564Y-125906613D01*
X149077048Y-125896693D01*
X149064029Y-125874679D01*
X149054542Y-125858638D01*
X149048936Y-125853031D01*
X149040220Y-125844315D01*
X149027379Y-125829281D01*
X149020131Y-125819305D01*
X149020130Y-125819304D01*
X149015472Y-125812893D01*
X148981407Y-125784712D01*
X148972626Y-125776722D01*
X148703647Y-125507742D01*
X148696113Y-125499463D01*
X148692000Y-125492982D01*
X148642347Y-125446355D01*
X148639506Y-125443601D01*
X148619770Y-125423865D01*
X148616573Y-125421385D01*
X148607551Y-125413680D01*
X148590679Y-125397836D01*
X148575321Y-125383414D01*
X148568375Y-125379595D01*
X148568372Y-125379593D01*
X148557566Y-125373652D01*
X148541047Y-125362801D01*
X148537973Y-125360417D01*
X148525041Y-125350386D01*
X148517772Y-125347241D01*
X148517768Y-125347238D01*
X148484463Y-125332826D01*
X148473813Y-125327609D01*
X148453623Y-125316510D01*
X148403566Y-125266167D01*
X148388671Y-125196751D01*
X148393327Y-125170943D01*
X148396572Y-125159776D01*
X148405562Y-125128831D01*
X148406891Y-125111945D01*
X148408307Y-125093958D01*
X148408307Y-125093950D01*
X148408500Y-125091502D01*
X148408500Y-123786878D01*
X148804000Y-123786878D01*
X148807973Y-123800409D01*
X148815871Y-123801544D01*
X148955790Y-123760893D01*
X148970221Y-123754648D01*
X149099678Y-123678089D01*
X149112104Y-123668449D01*
X149218449Y-123562104D01*
X149228089Y-123549678D01*
X149304648Y-123420221D01*
X149310893Y-123405790D01*
X149353269Y-123259935D01*
X149355570Y-123247333D01*
X149357807Y-123218916D01*
X149358000Y-123213986D01*
X149358000Y-122834615D01*
X149353525Y-122819376D01*
X149352135Y-122818171D01*
X149344452Y-122816500D01*
X148822115Y-122816500D01*
X148806876Y-122820975D01*
X148805671Y-122822365D01*
X148804000Y-122830048D01*
X148804000Y-123786878D01*
X148408500Y-123786878D01*
X148408500Y-123783498D01*
X148406721Y-123760893D01*
X148406067Y-123752579D01*
X148406066Y-123752574D01*
X148405562Y-123746169D01*
X148367071Y-123613680D01*
X148361357Y-123594012D01*
X148361356Y-123594010D01*
X148359145Y-123586399D01*
X148316317Y-123513981D01*
X148313547Y-123509297D01*
X148296000Y-123445158D01*
X148296000Y-122290385D01*
X148804000Y-122290385D01*
X148808475Y-122305624D01*
X148809865Y-122306829D01*
X148817548Y-122308500D01*
X149339884Y-122308500D01*
X149355123Y-122304025D01*
X149356328Y-122302635D01*
X149357999Y-122294952D01*
X149357999Y-121911017D01*
X149357805Y-121906080D01*
X149355570Y-121877664D01*
X149353270Y-121865069D01*
X149310893Y-121719210D01*
X149304648Y-121704779D01*
X149228089Y-121575322D01*
X149218449Y-121562896D01*
X149112104Y-121456551D01*
X149099678Y-121446911D01*
X148970221Y-121370352D01*
X148955790Y-121364107D01*
X148821395Y-121325061D01*
X148807294Y-121325101D01*
X148804000Y-121332370D01*
X148804000Y-122290385D01*
X148296000Y-122290385D01*
X148296000Y-121338122D01*
X148291525Y-121322883D01*
X148276987Y-121310285D01*
X148238604Y-121250559D01*
X148233500Y-121215061D01*
X148233500Y-120978767D01*
X148234027Y-120967584D01*
X148235702Y-120960091D01*
X148233562Y-120892014D01*
X148233500Y-120888055D01*
X148233500Y-120860144D01*
X148232995Y-120856144D01*
X148232062Y-120844301D01*
X148230922Y-120808030D01*
X148230673Y-120800111D01*
X148225021Y-120780657D01*
X148221013Y-120761300D01*
X148219468Y-120749070D01*
X148219468Y-120749069D01*
X148218474Y-120741203D01*
X148215555Y-120733830D01*
X148202196Y-120700088D01*
X148198351Y-120688858D01*
X148188229Y-120654017D01*
X148188229Y-120654016D01*
X148186018Y-120646407D01*
X148181985Y-120639588D01*
X148181983Y-120639583D01*
X148175707Y-120628972D01*
X148167012Y-120611224D01*
X148159552Y-120592383D01*
X148133564Y-120556613D01*
X148127048Y-120546693D01*
X148108580Y-120515465D01*
X148108578Y-120515462D01*
X148104542Y-120508638D01*
X148090221Y-120494317D01*
X148077380Y-120479283D01*
X148070131Y-120469306D01*
X148065472Y-120462893D01*
X148031395Y-120434702D01*
X148022616Y-120426712D01*
X146758757Y-119162852D01*
X146724731Y-119100540D01*
X146729796Y-119029724D01*
X146772343Y-118972889D01*
X146838863Y-118948078D01*
X146860473Y-118948391D01*
X146960867Y-118958500D01*
X148616354Y-118958500D01*
X148618679Y-118958327D01*
X148618685Y-118958327D01*
X148806000Y-118944407D01*
X148806004Y-118944406D01*
X148810652Y-118944061D01*
X148815200Y-118943032D01*
X148815206Y-118943031D01*
X149010671Y-118898801D01*
X149065577Y-118886377D01*
X149101769Y-118872303D01*
X149304824Y-118793340D01*
X149304827Y-118793339D01*
X149309177Y-118791647D01*
X149349197Y-118768774D01*
X149393196Y-118743626D01*
X149536098Y-118661951D01*
X149741357Y-118500138D01*
X149920443Y-118309763D01*
X149945119Y-118274193D01*
X150061973Y-118105750D01*
X150117236Y-118061180D01*
X150187823Y-118053563D01*
X150251322Y-118085318D01*
G37*
G04 #@! TD.AperFunction*
G04 #@! TA.AperFunction,Conductor*
G36*
X137967420Y-119379427D02*
G01*
X138012483Y-119408388D01*
X138496348Y-119892253D01*
X138503888Y-119900539D01*
X138508000Y-119907018D01*
X138513777Y-119912443D01*
X138557651Y-119953643D01*
X138560493Y-119956398D01*
X138580230Y-119976135D01*
X138583427Y-119978615D01*
X138592447Y-119986318D01*
X138624679Y-120016586D01*
X138631625Y-120020405D01*
X138631628Y-120020407D01*
X138642434Y-120026348D01*
X138658953Y-120037199D01*
X138674959Y-120049614D01*
X138682228Y-120052759D01*
X138682232Y-120052762D01*
X138715537Y-120067174D01*
X138726187Y-120072391D01*
X138764940Y-120093695D01*
X138772615Y-120095666D01*
X138772616Y-120095666D01*
X138784562Y-120098733D01*
X138803267Y-120105137D01*
X138821855Y-120113181D01*
X138829678Y-120114420D01*
X138829688Y-120114423D01*
X138865524Y-120120099D01*
X138877144Y-120122505D01*
X138912289Y-120131528D01*
X138919970Y-120133500D01*
X138940224Y-120133500D01*
X138959934Y-120135051D01*
X138979943Y-120138220D01*
X138987835Y-120137474D01*
X139023961Y-120134059D01*
X139035819Y-120133500D01*
X145885406Y-120133500D01*
X145953527Y-120153502D01*
X145974497Y-120170401D01*
X146905502Y-121101407D01*
X146939526Y-121163717D01*
X146934461Y-121234533D01*
X146891914Y-121291368D01*
X146825394Y-121316179D01*
X146816405Y-121316500D01*
X146433498Y-121316500D01*
X146431050Y-121316693D01*
X146431042Y-121316693D01*
X146402579Y-121318933D01*
X146402574Y-121318934D01*
X146396169Y-121319438D01*
X146331858Y-121338122D01*
X146244012Y-121363643D01*
X146244010Y-121363644D01*
X146236399Y-121365855D01*
X146229572Y-121369892D01*
X146229573Y-121369892D01*
X146100020Y-121446509D01*
X146100017Y-121446511D01*
X146093193Y-121450547D01*
X145975547Y-121568193D01*
X145971511Y-121575017D01*
X145971509Y-121575020D01*
X145946898Y-121616635D01*
X145890855Y-121711399D01*
X145888644Y-121719010D01*
X145888643Y-121719012D01*
X145885916Y-121728400D01*
X145844438Y-121871169D01*
X145843934Y-121877574D01*
X145843933Y-121877579D01*
X145843474Y-121883412D01*
X145841500Y-121908498D01*
X145841500Y-123216502D01*
X145841693Y-123218950D01*
X145841693Y-123218958D01*
X145843927Y-123247333D01*
X145844438Y-123253831D01*
X145846233Y-123260008D01*
X145888586Y-123405790D01*
X145890855Y-123413601D01*
X145894892Y-123420427D01*
X145971509Y-123549980D01*
X145971511Y-123549983D01*
X145975547Y-123556807D01*
X145981155Y-123562415D01*
X145986011Y-123568675D01*
X145984504Y-123569844D01*
X146013621Y-123623167D01*
X146016500Y-123649950D01*
X146016500Y-125371233D01*
X146015973Y-125382416D01*
X146014298Y-125389909D01*
X146014547Y-125397835D01*
X146014547Y-125397836D01*
X146016438Y-125457986D01*
X146016500Y-125461945D01*
X146016500Y-125489856D01*
X146016997Y-125493790D01*
X146016997Y-125493791D01*
X146017005Y-125493856D01*
X146017937Y-125505683D01*
X146019327Y-125549889D01*
X146023804Y-125565298D01*
X146024978Y-125569339D01*
X146028987Y-125588700D01*
X146031526Y-125608797D01*
X146034445Y-125616168D01*
X146034445Y-125616170D01*
X146047804Y-125649912D01*
X146051649Y-125661142D01*
X146063982Y-125703593D01*
X146068015Y-125710412D01*
X146068017Y-125710417D01*
X146074293Y-125721028D01*
X146082988Y-125738776D01*
X146090448Y-125757617D01*
X146095110Y-125764033D01*
X146095110Y-125764034D01*
X146116436Y-125793387D01*
X146122952Y-125803307D01*
X146145458Y-125841362D01*
X146159779Y-125855683D01*
X146172619Y-125870716D01*
X146184528Y-125887107D01*
X146190636Y-125892160D01*
X146218598Y-125915292D01*
X146227378Y-125923282D01*
X146269066Y-125964970D01*
X146303092Y-126027282D01*
X146298027Y-126098097D01*
X146255480Y-126154933D01*
X146236894Y-126165711D01*
X146236399Y-126165855D01*
X146218973Y-126176161D01*
X146100020Y-126246509D01*
X146100017Y-126246511D01*
X146093193Y-126250547D01*
X145975547Y-126368193D01*
X145971511Y-126375017D01*
X145971509Y-126375020D01*
X145917004Y-126467183D01*
X145890855Y-126511399D01*
X145888644Y-126519010D01*
X145888643Y-126519012D01*
X145878623Y-126553502D01*
X145844438Y-126671169D01*
X145841500Y-126708498D01*
X145841500Y-128016502D01*
X145841693Y-128018950D01*
X145841693Y-128018958D01*
X145841974Y-128022519D01*
X145844438Y-128053831D01*
X145890855Y-128213601D01*
X145894892Y-128220427D01*
X145971509Y-128349980D01*
X145971511Y-128349983D01*
X145975547Y-128356807D01*
X145981155Y-128362415D01*
X145986011Y-128368675D01*
X145984504Y-128369844D01*
X146013621Y-128423167D01*
X146016500Y-128449950D01*
X146016500Y-128835405D01*
X145996498Y-128903526D01*
X145979595Y-128924500D01*
X145674500Y-129229595D01*
X145612188Y-129263621D01*
X145585405Y-129266500D01*
X143418422Y-129266500D01*
X143350301Y-129246498D01*
X143303808Y-129192842D01*
X143293704Y-129122568D01*
X143323198Y-129057988D01*
X143365172Y-129026305D01*
X143551511Y-128939414D01*
X143561006Y-128933931D01*
X143613048Y-128897491D01*
X143621424Y-128887012D01*
X143614356Y-128873566D01*
X142912812Y-128172022D01*
X142898868Y-128164408D01*
X142897035Y-128164539D01*
X142890420Y-128168790D01*
X142184923Y-128874287D01*
X142178493Y-128886062D01*
X142187789Y-128898077D01*
X142238994Y-128933931D01*
X142248489Y-128939414D01*
X142434828Y-129026305D01*
X142488113Y-129073222D01*
X142507574Y-129141500D01*
X142487032Y-129209460D01*
X142433009Y-129255525D01*
X142381578Y-129266500D01*
X140614595Y-129266500D01*
X140546474Y-129246498D01*
X140525499Y-129229595D01*
X140320404Y-129024499D01*
X140286379Y-128962187D01*
X140283500Y-128935404D01*
X140283500Y-128449950D01*
X140303502Y-128381829D01*
X140314059Y-128368729D01*
X140313989Y-128368675D01*
X140318845Y-128362415D01*
X140324453Y-128356807D01*
X140328489Y-128349983D01*
X140328491Y-128349980D01*
X140405108Y-128220427D01*
X140409145Y-128213601D01*
X140455562Y-128053831D01*
X140458027Y-128022519D01*
X140458307Y-128018958D01*
X140458307Y-128018950D01*
X140458500Y-128016502D01*
X140458500Y-127805475D01*
X141587483Y-127805475D01*
X141606472Y-128022519D01*
X141608375Y-128033312D01*
X141664764Y-128243761D01*
X141668510Y-128254053D01*
X141760586Y-128451511D01*
X141766069Y-128461006D01*
X141802509Y-128513048D01*
X141812988Y-128521424D01*
X141826434Y-128514356D01*
X142527978Y-127812812D01*
X142534356Y-127801132D01*
X143264408Y-127801132D01*
X143264539Y-127802965D01*
X143268790Y-127809580D01*
X143974287Y-128515077D01*
X143986062Y-128521507D01*
X143998077Y-128512211D01*
X144033931Y-128461006D01*
X144039414Y-128451511D01*
X144131490Y-128254053D01*
X144135236Y-128243761D01*
X144191625Y-128033312D01*
X144193528Y-128022519D01*
X144212517Y-127805475D01*
X144212517Y-127794525D01*
X144193528Y-127577481D01*
X144191625Y-127566688D01*
X144135236Y-127356239D01*
X144131490Y-127345947D01*
X144039414Y-127148489D01*
X144033931Y-127138994D01*
X143997491Y-127086952D01*
X143987012Y-127078576D01*
X143973566Y-127085644D01*
X143272022Y-127787188D01*
X143264408Y-127801132D01*
X142534356Y-127801132D01*
X142535592Y-127798868D01*
X142535461Y-127797035D01*
X142531210Y-127790420D01*
X141825713Y-127084923D01*
X141813938Y-127078493D01*
X141801923Y-127087789D01*
X141766069Y-127138994D01*
X141760586Y-127148489D01*
X141668510Y-127345947D01*
X141664764Y-127356239D01*
X141608375Y-127566688D01*
X141606472Y-127577481D01*
X141587483Y-127794525D01*
X141587483Y-127805475D01*
X140458500Y-127805475D01*
X140458500Y-126712988D01*
X142178576Y-126712988D01*
X142185644Y-126726434D01*
X142887188Y-127427978D01*
X142901132Y-127435592D01*
X142902965Y-127435461D01*
X142909580Y-127431210D01*
X143615077Y-126725713D01*
X143621507Y-126713938D01*
X143612211Y-126701923D01*
X143561006Y-126666069D01*
X143551511Y-126660586D01*
X143354053Y-126568510D01*
X143343761Y-126564764D01*
X143133312Y-126508375D01*
X143122519Y-126506472D01*
X142905475Y-126487483D01*
X142894525Y-126487483D01*
X142677481Y-126506472D01*
X142666688Y-126508375D01*
X142456239Y-126564764D01*
X142445947Y-126568510D01*
X142248489Y-126660586D01*
X142238994Y-126666069D01*
X142186952Y-126702509D01*
X142178576Y-126712988D01*
X140458500Y-126712988D01*
X140458500Y-126708498D01*
X140455562Y-126671169D01*
X140421377Y-126553502D01*
X140411357Y-126519012D01*
X140411356Y-126519010D01*
X140409145Y-126511399D01*
X140382996Y-126467183D01*
X140328491Y-126375020D01*
X140328489Y-126375017D01*
X140324453Y-126368193D01*
X140206807Y-126250547D01*
X140199983Y-126246511D01*
X140199980Y-126246509D01*
X140081027Y-126176161D01*
X140063601Y-126165855D01*
X140055990Y-126163644D01*
X140055988Y-126163643D01*
X140003769Y-126148472D01*
X139903831Y-126119438D01*
X139897426Y-126118934D01*
X139897421Y-126118933D01*
X139868958Y-126116693D01*
X139868950Y-126116693D01*
X139866502Y-126116500D01*
X139433498Y-126116500D01*
X139431050Y-126116693D01*
X139431042Y-126116693D01*
X139402579Y-126118933D01*
X139402574Y-126118934D01*
X139396169Y-126119438D01*
X139296231Y-126148472D01*
X139244012Y-126163643D01*
X139244010Y-126163644D01*
X139236399Y-126165855D01*
X139218973Y-126176161D01*
X139100020Y-126246509D01*
X139100017Y-126246511D01*
X139093193Y-126250547D01*
X138975547Y-126368193D01*
X138971511Y-126375017D01*
X138971509Y-126375020D01*
X138917004Y-126467183D01*
X138890855Y-126511399D01*
X138888644Y-126519010D01*
X138888643Y-126519012D01*
X138878623Y-126553502D01*
X138844438Y-126671169D01*
X138841500Y-126708498D01*
X138841500Y-127865500D01*
X138821498Y-127933621D01*
X138767842Y-127980114D01*
X138715500Y-127991500D01*
X138684500Y-127991500D01*
X138616379Y-127971498D01*
X138569886Y-127917842D01*
X138558500Y-127865500D01*
X138558500Y-126708498D01*
X138555562Y-126671169D01*
X138521377Y-126553502D01*
X138511357Y-126519012D01*
X138511356Y-126519010D01*
X138509145Y-126511399D01*
X138505108Y-126504573D01*
X138504751Y-126503747D01*
X138496054Y-126433285D01*
X138531293Y-126364611D01*
X139292247Y-125603657D01*
X139300537Y-125596113D01*
X139307018Y-125592000D01*
X139321695Y-125576371D01*
X139353658Y-125542333D01*
X139356413Y-125539491D01*
X139376135Y-125519769D01*
X139378612Y-125516576D01*
X139386317Y-125507555D01*
X139399242Y-125493791D01*
X139416586Y-125475321D01*
X139420407Y-125468371D01*
X139426346Y-125457568D01*
X139437202Y-125441041D01*
X139444757Y-125431302D01*
X139444758Y-125431300D01*
X139449614Y-125425040D01*
X139467174Y-125384460D01*
X139472391Y-125373812D01*
X139489875Y-125342009D01*
X139489876Y-125342007D01*
X139493695Y-125335060D01*
X139498733Y-125315437D01*
X139505137Y-125296734D01*
X139510033Y-125285420D01*
X139510033Y-125285419D01*
X139513181Y-125278145D01*
X139514420Y-125270322D01*
X139514423Y-125270312D01*
X139520099Y-125234476D01*
X139522505Y-125222856D01*
X139531528Y-125187711D01*
X139531528Y-125187710D01*
X139533500Y-125180030D01*
X139533500Y-125159776D01*
X139535051Y-125140065D01*
X139536980Y-125127886D01*
X139538220Y-125120057D01*
X139534059Y-125076038D01*
X139533500Y-125064181D01*
X139533500Y-124578763D01*
X139534027Y-124567579D01*
X139535701Y-124560091D01*
X139533562Y-124492032D01*
X139533500Y-124488075D01*
X139533500Y-124460144D01*
X139532994Y-124456138D01*
X139532061Y-124444292D01*
X139530922Y-124408037D01*
X139530673Y-124400110D01*
X139525022Y-124380658D01*
X139521014Y-124361306D01*
X139519468Y-124349068D01*
X139519467Y-124349066D01*
X139518474Y-124341203D01*
X139502194Y-124300086D01*
X139498359Y-124288885D01*
X139486018Y-124246406D01*
X139481985Y-124239587D01*
X139481983Y-124239582D01*
X139475707Y-124228971D01*
X139467010Y-124211221D01*
X139459552Y-124192383D01*
X139433571Y-124156623D01*
X139427053Y-124146701D01*
X139408578Y-124115460D01*
X139408574Y-124115455D01*
X139404542Y-124108637D01*
X139390218Y-124094313D01*
X139377376Y-124079278D01*
X139365472Y-124062893D01*
X139331406Y-124034711D01*
X139322627Y-124026722D01*
X139003652Y-123707747D01*
X138996112Y-123699461D01*
X138992000Y-123692982D01*
X138942348Y-123646356D01*
X138939507Y-123643602D01*
X138919770Y-123623865D01*
X138916573Y-123621385D01*
X138907551Y-123613680D01*
X138903397Y-123609779D01*
X138875321Y-123583414D01*
X138868375Y-123579595D01*
X138868372Y-123579593D01*
X138857566Y-123573652D01*
X138841047Y-123562801D01*
X138833319Y-123556807D01*
X138825041Y-123550386D01*
X138817772Y-123547241D01*
X138817768Y-123547238D01*
X138784463Y-123532826D01*
X138773813Y-123527609D01*
X138735060Y-123506305D01*
X138715437Y-123501267D01*
X138696734Y-123494863D01*
X138685420Y-123489967D01*
X138685419Y-123489967D01*
X138678145Y-123486819D01*
X138670322Y-123485580D01*
X138670312Y-123485577D01*
X138634476Y-123479901D01*
X138622856Y-123477495D01*
X138587711Y-123468472D01*
X138587710Y-123468472D01*
X138580030Y-123466500D01*
X138559776Y-123466500D01*
X138540065Y-123464949D01*
X138527886Y-123463020D01*
X138520057Y-123461780D01*
X138490786Y-123464547D01*
X138476039Y-123465941D01*
X138464181Y-123466500D01*
X135678768Y-123466500D01*
X135667585Y-123465973D01*
X135660092Y-123464298D01*
X135652166Y-123464547D01*
X135652165Y-123464547D01*
X135592002Y-123466438D01*
X135588044Y-123466500D01*
X135560144Y-123466500D01*
X135556154Y-123467004D01*
X135544320Y-123467936D01*
X135500111Y-123469326D01*
X135492495Y-123471539D01*
X135492493Y-123471539D01*
X135480652Y-123474979D01*
X135461293Y-123478988D01*
X135459983Y-123479154D01*
X135441203Y-123481526D01*
X135433837Y-123484442D01*
X135433831Y-123484444D01*
X135400098Y-123497800D01*
X135388868Y-123501645D01*
X135359693Y-123510121D01*
X135346407Y-123513981D01*
X135339584Y-123518016D01*
X135328966Y-123524295D01*
X135311213Y-123532992D01*
X135303568Y-123536019D01*
X135292383Y-123540448D01*
X135278705Y-123550386D01*
X135256612Y-123566437D01*
X135246695Y-123572951D01*
X135208638Y-123595458D01*
X135194317Y-123609779D01*
X135179284Y-123622619D01*
X135162893Y-123634528D01*
X135154809Y-123644300D01*
X135134702Y-123668605D01*
X135126712Y-123677384D01*
X134074500Y-124729595D01*
X134012188Y-124763621D01*
X133985405Y-124766500D01*
X129778763Y-124766500D01*
X129767579Y-124765973D01*
X129760091Y-124764299D01*
X129752168Y-124764548D01*
X129692033Y-124766438D01*
X129688075Y-124766500D01*
X129660144Y-124766500D01*
X129656229Y-124766995D01*
X129656225Y-124766995D01*
X129656167Y-124767003D01*
X129656138Y-124767006D01*
X129644296Y-124767939D01*
X129600110Y-124769327D01*
X129582744Y-124774372D01*
X129580658Y-124774978D01*
X129561306Y-124778986D01*
X129549068Y-124780532D01*
X129549066Y-124780533D01*
X129541203Y-124781526D01*
X129500086Y-124797806D01*
X129488885Y-124801641D01*
X129446406Y-124813982D01*
X129439587Y-124818015D01*
X129439582Y-124818017D01*
X129428971Y-124824293D01*
X129411210Y-124832994D01*
X129406618Y-124834812D01*
X129405878Y-124835105D01*
X129335177Y-124841581D01*
X129272199Y-124808806D01*
X129236938Y-124747184D01*
X129233500Y-124717951D01*
X129233500Y-122800000D01*
X141586502Y-122800000D01*
X141606457Y-123028087D01*
X141607881Y-123033400D01*
X141607881Y-123033402D01*
X141649399Y-123188346D01*
X141665716Y-123249243D01*
X141668039Y-123254224D01*
X141668039Y-123254225D01*
X141760151Y-123451762D01*
X141760154Y-123451767D01*
X141762477Y-123456749D01*
X141813307Y-123529342D01*
X141886960Y-123634528D01*
X141893802Y-123644300D01*
X142055700Y-123806198D01*
X142060208Y-123809355D01*
X142060211Y-123809357D01*
X142138389Y-123864098D01*
X142243251Y-123937523D01*
X142248233Y-123939846D01*
X142248238Y-123939849D01*
X142434540Y-124026722D01*
X142450757Y-124034284D01*
X142456065Y-124035706D01*
X142456067Y-124035707D01*
X142666598Y-124092119D01*
X142666600Y-124092119D01*
X142671913Y-124093543D01*
X142900000Y-124113498D01*
X143128087Y-124093543D01*
X143133400Y-124092119D01*
X143133402Y-124092119D01*
X143343933Y-124035707D01*
X143343935Y-124035706D01*
X143349243Y-124034284D01*
X143365460Y-124026722D01*
X143551762Y-123939849D01*
X143551767Y-123939846D01*
X143556749Y-123937523D01*
X143661611Y-123864098D01*
X143739789Y-123809357D01*
X143739792Y-123809355D01*
X143744300Y-123806198D01*
X143906198Y-123644300D01*
X143913041Y-123634528D01*
X143986693Y-123529342D01*
X144037523Y-123456749D01*
X144039846Y-123451767D01*
X144039849Y-123451762D01*
X144131961Y-123254225D01*
X144131961Y-123254224D01*
X144134284Y-123249243D01*
X144150602Y-123188346D01*
X144192119Y-123033402D01*
X144192119Y-123033400D01*
X144193543Y-123028087D01*
X144213498Y-122800000D01*
X144193543Y-122571913D01*
X144190536Y-122560691D01*
X144135707Y-122356067D01*
X144135706Y-122356065D01*
X144134284Y-122350757D01*
X144125177Y-122331226D01*
X144039849Y-122148238D01*
X144039846Y-122148233D01*
X144037523Y-122143251D01*
X143930165Y-121989928D01*
X143909357Y-121960211D01*
X143909355Y-121960208D01*
X143906198Y-121955700D01*
X143744300Y-121793802D01*
X143739792Y-121790645D01*
X143739789Y-121790643D01*
X143655868Y-121731881D01*
X143556749Y-121662477D01*
X143551767Y-121660154D01*
X143551762Y-121660151D01*
X143354225Y-121568039D01*
X143354224Y-121568039D01*
X143349243Y-121565716D01*
X143343935Y-121564294D01*
X143343933Y-121564293D01*
X143133402Y-121507881D01*
X143133400Y-121507881D01*
X143128087Y-121506457D01*
X142900000Y-121486502D01*
X142671913Y-121506457D01*
X142666600Y-121507881D01*
X142666598Y-121507881D01*
X142456067Y-121564293D01*
X142456065Y-121564294D01*
X142450757Y-121565716D01*
X142445776Y-121568039D01*
X142445775Y-121568039D01*
X142248238Y-121660151D01*
X142248233Y-121660154D01*
X142243251Y-121662477D01*
X142144132Y-121731881D01*
X142060211Y-121790643D01*
X142060208Y-121790645D01*
X142055700Y-121793802D01*
X141893802Y-121955700D01*
X141890645Y-121960208D01*
X141890643Y-121960211D01*
X141869835Y-121989928D01*
X141762477Y-122143251D01*
X141760154Y-122148233D01*
X141760151Y-122148238D01*
X141674823Y-122331226D01*
X141665716Y-122350757D01*
X141664294Y-122356065D01*
X141664293Y-122356067D01*
X141609464Y-122560691D01*
X141606457Y-122571913D01*
X141586502Y-122800000D01*
X129233500Y-122800000D01*
X129233500Y-122502524D01*
X129253502Y-122434403D01*
X129265858Y-122418221D01*
X129339040Y-122336944D01*
X129402899Y-122226337D01*
X129431223Y-122177279D01*
X129431224Y-122177278D01*
X129434527Y-122171556D01*
X129493542Y-121989928D01*
X129495055Y-121975539D01*
X129512814Y-121806565D01*
X129513504Y-121800000D01*
X129506689Y-121735156D01*
X129494232Y-121616635D01*
X129494232Y-121616633D01*
X129493542Y-121610072D01*
X129434527Y-121428444D01*
X129339040Y-121263056D01*
X129211253Y-121121134D01*
X129056752Y-121008882D01*
X129043024Y-121002770D01*
X128988927Y-120956792D01*
X128968276Y-120888865D01*
X128974436Y-120848729D01*
X128993542Y-120789928D01*
X128997826Y-120749173D01*
X129012814Y-120606565D01*
X129013504Y-120600000D01*
X129012814Y-120593435D01*
X129012814Y-120586830D01*
X129015243Y-120586830D01*
X129026029Y-120527837D01*
X129074528Y-120475988D01*
X129138569Y-120458500D01*
X136402930Y-120458500D01*
X136421880Y-120459933D01*
X136436115Y-120462099D01*
X136436119Y-120462099D01*
X136443349Y-120463199D01*
X136450641Y-120462606D01*
X136450644Y-120462606D01*
X136496018Y-120458915D01*
X136506233Y-120458500D01*
X136514293Y-120458500D01*
X136527583Y-120456951D01*
X136542507Y-120455211D01*
X136546882Y-120454778D01*
X136612339Y-120449454D01*
X136612342Y-120449453D01*
X136619637Y-120448860D01*
X136626601Y-120446604D01*
X136632560Y-120445413D01*
X136638415Y-120444029D01*
X136645681Y-120443182D01*
X136714327Y-120418265D01*
X136718455Y-120416848D01*
X136780936Y-120396607D01*
X136780938Y-120396606D01*
X136787899Y-120394351D01*
X136794154Y-120390555D01*
X136799628Y-120388049D01*
X136805058Y-120385330D01*
X136811937Y-120382833D01*
X136872976Y-120342814D01*
X136876680Y-120340477D01*
X136939107Y-120302595D01*
X136947484Y-120295197D01*
X136947508Y-120295224D01*
X136950500Y-120292571D01*
X136953733Y-120289868D01*
X136959852Y-120285856D01*
X137013128Y-120229617D01*
X137015506Y-120227175D01*
X137834293Y-119408388D01*
X137896605Y-119374362D01*
X137967420Y-119379427D01*
G37*
G04 #@! TD.AperFunction*
G04 #@! TA.AperFunction,Conductor*
G36*
X141070322Y-111731278D02*
G01*
X141085559Y-111741070D01*
X141098295Y-111750615D01*
X141234684Y-111801745D01*
X141296866Y-111808500D01*
X141993134Y-111808500D01*
X142001239Y-111807619D01*
X142001898Y-111807548D01*
X142071780Y-111820080D01*
X142123793Y-111868403D01*
X142141500Y-111932812D01*
X142141500Y-112115500D01*
X142121498Y-112183621D01*
X142067842Y-112230114D01*
X142015500Y-112241500D01*
X141167070Y-112241500D01*
X141148120Y-112240067D01*
X141133885Y-112237901D01*
X141133881Y-112237901D01*
X141126651Y-112236801D01*
X141119359Y-112237394D01*
X141119356Y-112237394D01*
X141073982Y-112241085D01*
X141063767Y-112241500D01*
X141055707Y-112241500D01*
X141052073Y-112241924D01*
X141052067Y-112241924D01*
X141039042Y-112243443D01*
X141027480Y-112244791D01*
X141023132Y-112245221D01*
X140950364Y-112251140D01*
X140943403Y-112253395D01*
X140937463Y-112254582D01*
X140931588Y-112255971D01*
X140924319Y-112256818D01*
X140855670Y-112281736D01*
X140851542Y-112283153D01*
X140789064Y-112303393D01*
X140789062Y-112303394D01*
X140782101Y-112305649D01*
X140775846Y-112309445D01*
X140770372Y-112311951D01*
X140764942Y-112314670D01*
X140758063Y-112317167D01*
X140751943Y-112321180D01*
X140751942Y-112321180D01*
X140697024Y-112357186D01*
X140693320Y-112359523D01*
X140630893Y-112397405D01*
X140622516Y-112404803D01*
X140622492Y-112404776D01*
X140619500Y-112407429D01*
X140616267Y-112410132D01*
X140610148Y-112414144D01*
X140605116Y-112419456D01*
X140556872Y-112470383D01*
X140554494Y-112472825D01*
X139886089Y-113141230D01*
X139871677Y-113153616D01*
X139860082Y-113162149D01*
X139860077Y-113162154D01*
X139854182Y-113166492D01*
X139849443Y-113172070D01*
X139849440Y-113172073D01*
X139819965Y-113206768D01*
X139813035Y-113214284D01*
X139807340Y-113219979D01*
X139805060Y-113222861D01*
X139789719Y-113242251D01*
X139786928Y-113245655D01*
X139747817Y-113291692D01*
X139739667Y-113301285D01*
X139736339Y-113307801D01*
X139732972Y-113312850D01*
X139729805Y-113317979D01*
X139725266Y-113323716D01*
X139694345Y-113389875D01*
X139692442Y-113393769D01*
X139659231Y-113458808D01*
X139657492Y-113465916D01*
X139655393Y-113471559D01*
X139653476Y-113477322D01*
X139650378Y-113483950D01*
X139648888Y-113491112D01*
X139648888Y-113491113D01*
X139643247Y-113518232D01*
X139638842Y-113539414D01*
X139635514Y-113555412D01*
X139634544Y-113559696D01*
X139617192Y-113630610D01*
X139616500Y-113641764D01*
X139616464Y-113641762D01*
X139616225Y-113645755D01*
X139615851Y-113649947D01*
X139614360Y-113657115D01*
X139614558Y-113664432D01*
X139616454Y-113734521D01*
X139616500Y-113737928D01*
X139616500Y-115518818D01*
X139596498Y-115586939D01*
X139542842Y-115633432D01*
X139476892Y-115644081D01*
X139453134Y-115641500D01*
X138756866Y-115641500D01*
X138694684Y-115648255D01*
X138558295Y-115699385D01*
X138545565Y-115708926D01*
X138479061Y-115733774D01*
X138409678Y-115718722D01*
X138394441Y-115708930D01*
X138381705Y-115699385D01*
X138245316Y-115648255D01*
X138183134Y-115641500D01*
X137486866Y-115641500D01*
X137424684Y-115648255D01*
X137288295Y-115699385D01*
X137275565Y-115708926D01*
X137209061Y-115733774D01*
X137139678Y-115718722D01*
X137124441Y-115708930D01*
X137111705Y-115699385D01*
X136975316Y-115648255D01*
X136913134Y-115641500D01*
X136216866Y-115641500D01*
X136154684Y-115648255D01*
X136018295Y-115699385D01*
X136005565Y-115708926D01*
X135939061Y-115733774D01*
X135869678Y-115718722D01*
X135854441Y-115708930D01*
X135841705Y-115699385D01*
X135705316Y-115648255D01*
X135643134Y-115641500D01*
X134946866Y-115641500D01*
X134884684Y-115648255D01*
X134748295Y-115699385D01*
X134735565Y-115708926D01*
X134669061Y-115733774D01*
X134599678Y-115718722D01*
X134584441Y-115708930D01*
X134571705Y-115699385D01*
X134435316Y-115648255D01*
X134373134Y-115641500D01*
X133676866Y-115641500D01*
X133614684Y-115648255D01*
X133478295Y-115699385D01*
X133471112Y-115704768D01*
X133471109Y-115704770D01*
X133465147Y-115709239D01*
X133398641Y-115734086D01*
X133329258Y-115719033D01*
X133314019Y-115709239D01*
X133308648Y-115705214D01*
X133293054Y-115696676D01*
X133172606Y-115651522D01*
X133157351Y-115647895D01*
X133106486Y-115642369D01*
X133099672Y-115642000D01*
X133027115Y-115642000D01*
X133011876Y-115646475D01*
X133010671Y-115647865D01*
X133009000Y-115655548D01*
X133009000Y-118139884D01*
X133013475Y-118155123D01*
X133014865Y-118156328D01*
X133022548Y-118157999D01*
X133099669Y-118157999D01*
X133106490Y-118157629D01*
X133157352Y-118152105D01*
X133172604Y-118148479D01*
X133293054Y-118103324D01*
X133308648Y-118094786D01*
X133314019Y-118090761D01*
X133380526Y-118065914D01*
X133449908Y-118080968D01*
X133465147Y-118090761D01*
X133471109Y-118095230D01*
X133471111Y-118095231D01*
X133478295Y-118100615D01*
X133614684Y-118151745D01*
X133676866Y-118158500D01*
X134373134Y-118158500D01*
X134435316Y-118151745D01*
X134571705Y-118100615D01*
X134584435Y-118091074D01*
X134650939Y-118066226D01*
X134720322Y-118081278D01*
X134735559Y-118091070D01*
X134748295Y-118100615D01*
X134884684Y-118151745D01*
X134946866Y-118158500D01*
X135643134Y-118158500D01*
X135705316Y-118151745D01*
X135841705Y-118100615D01*
X135854435Y-118091074D01*
X135920939Y-118066226D01*
X135990322Y-118081278D01*
X136005559Y-118091070D01*
X136018295Y-118100615D01*
X136154684Y-118151745D01*
X136216866Y-118158500D01*
X136634629Y-118158500D01*
X136702750Y-118178502D01*
X136749243Y-118232158D01*
X136759347Y-118302432D01*
X136729853Y-118367012D01*
X136723724Y-118373595D01*
X136192724Y-118904595D01*
X136130412Y-118938621D01*
X136103629Y-118941500D01*
X129414811Y-118941500D01*
X129346690Y-118921498D01*
X129305692Y-118878500D01*
X129276258Y-118827519D01*
X129239040Y-118763056D01*
X129170845Y-118687317D01*
X129115675Y-118626045D01*
X129115674Y-118626044D01*
X129111253Y-118621134D01*
X128956752Y-118508882D01*
X128950724Y-118506198D01*
X128950722Y-118506197D01*
X128823622Y-118449609D01*
X128769526Y-118403629D01*
X128748877Y-118335702D01*
X128768229Y-118267394D01*
X128821440Y-118220392D01*
X128874871Y-118208502D01*
X128995488Y-118208502D01*
X129001940Y-118207130D01*
X129001945Y-118207130D01*
X129088888Y-118188649D01*
X129182289Y-118168796D01*
X129188320Y-118166111D01*
X129350723Y-118093805D01*
X129350725Y-118093804D01*
X129356753Y-118091120D01*
X129370300Y-118081278D01*
X129463916Y-118013261D01*
X129511254Y-117978868D01*
X129578764Y-117903891D01*
X129634622Y-117841854D01*
X129634623Y-117841853D01*
X129639041Y-117836946D01*
X129721185Y-117694669D01*
X131947001Y-117694669D01*
X131947371Y-117701490D01*
X131952895Y-117752352D01*
X131956521Y-117767604D01*
X132001676Y-117888054D01*
X132010214Y-117903649D01*
X132086715Y-118005724D01*
X132099276Y-118018285D01*
X132201351Y-118094786D01*
X132216946Y-118103324D01*
X132337394Y-118148478D01*
X132352649Y-118152105D01*
X132403514Y-118157631D01*
X132410328Y-118158000D01*
X132482885Y-118158000D01*
X132498124Y-118153525D01*
X132499329Y-118152135D01*
X132501000Y-118144452D01*
X132501000Y-117172115D01*
X132496525Y-117156876D01*
X132495135Y-117155671D01*
X132487452Y-117154000D01*
X131965116Y-117154000D01*
X131949877Y-117158475D01*
X131948672Y-117159865D01*
X131947001Y-117167548D01*
X131947001Y-117694669D01*
X129721185Y-117694669D01*
X129734528Y-117671558D01*
X129789388Y-117502716D01*
X129820126Y-117452558D01*
X130644799Y-116627885D01*
X131947000Y-116627885D01*
X131951475Y-116643124D01*
X131952865Y-116644329D01*
X131960548Y-116646000D01*
X132482885Y-116646000D01*
X132498124Y-116641525D01*
X132499329Y-116640135D01*
X132501000Y-116632452D01*
X132501000Y-115660116D01*
X132496525Y-115644877D01*
X132495135Y-115643672D01*
X132487452Y-115642001D01*
X132410331Y-115642001D01*
X132403510Y-115642371D01*
X132352648Y-115647895D01*
X132337396Y-115651521D01*
X132216946Y-115696676D01*
X132201351Y-115705214D01*
X132099276Y-115781715D01*
X132086715Y-115794276D01*
X132010214Y-115896351D01*
X132001676Y-115911946D01*
X131956522Y-116032394D01*
X131952895Y-116047649D01*
X131947369Y-116098514D01*
X131947000Y-116105328D01*
X131947000Y-116627885D01*
X130644799Y-116627885D01*
X133243911Y-114028773D01*
X133258323Y-114016387D01*
X133269918Y-114007854D01*
X133269923Y-114007849D01*
X133275818Y-114003511D01*
X133280557Y-113997933D01*
X133280560Y-113997930D01*
X133310035Y-113963235D01*
X133316965Y-113955719D01*
X133322660Y-113950024D01*
X133340281Y-113927752D01*
X133343072Y-113924348D01*
X133385591Y-113874300D01*
X133385592Y-113874298D01*
X133390333Y-113868718D01*
X133393661Y-113862202D01*
X133397028Y-113857153D01*
X133400195Y-113852024D01*
X133404734Y-113846287D01*
X133435655Y-113780128D01*
X133437561Y-113776228D01*
X133457118Y-113737928D01*
X133470769Y-113711195D01*
X133472508Y-113704086D01*
X133474604Y-113698452D01*
X133476523Y-113692682D01*
X133479622Y-113686053D01*
X133484120Y-113664432D01*
X133494490Y-113614574D01*
X133495461Y-113610285D01*
X133501949Y-113583770D01*
X133512808Y-113539393D01*
X133513500Y-113528239D01*
X133513535Y-113528241D01*
X133513775Y-113524269D01*
X133514152Y-113520048D01*
X133515641Y-113512888D01*
X133513546Y-113435461D01*
X133513500Y-113432053D01*
X133513500Y-111931182D01*
X133533502Y-111863061D01*
X133587158Y-111816568D01*
X133653108Y-111805919D01*
X133676866Y-111808500D01*
X134373134Y-111808500D01*
X134435316Y-111801745D01*
X134571705Y-111750615D01*
X134584435Y-111741074D01*
X134650939Y-111716226D01*
X134720322Y-111731278D01*
X134735559Y-111741070D01*
X134748295Y-111750615D01*
X134884684Y-111801745D01*
X134946866Y-111808500D01*
X135643134Y-111808500D01*
X135705316Y-111801745D01*
X135841705Y-111750615D01*
X135854435Y-111741074D01*
X135920939Y-111716226D01*
X135990322Y-111731278D01*
X136005559Y-111741070D01*
X136018295Y-111750615D01*
X136154684Y-111801745D01*
X136216866Y-111808500D01*
X136913134Y-111808500D01*
X136975316Y-111801745D01*
X137111705Y-111750615D01*
X137124435Y-111741074D01*
X137190939Y-111716226D01*
X137260322Y-111731278D01*
X137275559Y-111741070D01*
X137288295Y-111750615D01*
X137424684Y-111801745D01*
X137486866Y-111808500D01*
X138183134Y-111808500D01*
X138245316Y-111801745D01*
X138381705Y-111750615D01*
X138394435Y-111741074D01*
X138460939Y-111716226D01*
X138530322Y-111731278D01*
X138545559Y-111741070D01*
X138558295Y-111750615D01*
X138694684Y-111801745D01*
X138756866Y-111808500D01*
X139453134Y-111808500D01*
X139515316Y-111801745D01*
X139651705Y-111750615D01*
X139664435Y-111741074D01*
X139730939Y-111716226D01*
X139800322Y-111731278D01*
X139815559Y-111741070D01*
X139828295Y-111750615D01*
X139964684Y-111801745D01*
X140026866Y-111808500D01*
X140723134Y-111808500D01*
X140785316Y-111801745D01*
X140921705Y-111750615D01*
X140934435Y-111741074D01*
X141000939Y-111716226D01*
X141070322Y-111731278D01*
G37*
G04 #@! TD.AperFunction*
G04 #@! TA.AperFunction,Conductor*
G36*
X150209532Y-104067315D02*
G01*
X150266368Y-104109862D01*
X150291179Y-104176382D01*
X150291500Y-104185371D01*
X150291500Y-112476868D01*
X150271498Y-112544989D01*
X150217842Y-112591482D01*
X150147568Y-112601586D01*
X150082988Y-112572092D01*
X150060128Y-112545953D01*
X149951590Y-112380404D01*
X149951586Y-112380399D01*
X149949024Y-112376491D01*
X149774982Y-112181494D01*
X149574030Y-112014363D01*
X149492394Y-111964825D01*
X149354578Y-111881196D01*
X149354574Y-111881194D01*
X149350581Y-111878771D01*
X149109545Y-111777697D01*
X148856217Y-111713359D01*
X148851566Y-111712891D01*
X148851562Y-111712890D01*
X148642271Y-111691816D01*
X148639133Y-111691500D01*
X146983646Y-111691500D01*
X146981321Y-111691673D01*
X146981315Y-111691673D01*
X146794000Y-111705593D01*
X146793996Y-111705594D01*
X146789348Y-111705939D01*
X146784800Y-111706968D01*
X146784794Y-111706969D01*
X146615703Y-111745231D01*
X146534423Y-111763623D01*
X146530071Y-111765315D01*
X146530069Y-111765316D01*
X146295176Y-111856660D01*
X146295173Y-111856661D01*
X146290823Y-111858353D01*
X146286769Y-111860670D01*
X146286767Y-111860671D01*
X146273239Y-111868403D01*
X146063902Y-111988049D01*
X145858643Y-112149862D01*
X145679557Y-112340237D01*
X145634766Y-112404803D01*
X145537515Y-112544989D01*
X145530576Y-112554991D01*
X145528510Y-112559181D01*
X145528508Y-112559184D01*
X145427239Y-112764539D01*
X145414975Y-112789407D01*
X145413553Y-112793850D01*
X145413552Y-112793852D01*
X145358617Y-112965469D01*
X145335293Y-113038335D01*
X145293279Y-113296307D01*
X145293058Y-113313211D01*
X145290026Y-113544847D01*
X145289858Y-113557655D01*
X145325104Y-113816638D01*
X145398243Y-114067567D01*
X145400203Y-114071820D01*
X145400204Y-114071821D01*
X145418078Y-114110593D01*
X145507668Y-114304928D01*
X145534330Y-114345595D01*
X145648410Y-114519596D01*
X145648414Y-114519601D01*
X145650976Y-114523509D01*
X145825018Y-114718506D01*
X146025970Y-114885637D01*
X146029973Y-114888066D01*
X146245422Y-115018804D01*
X146245426Y-115018806D01*
X146249419Y-115021229D01*
X146490455Y-115122303D01*
X146743783Y-115186641D01*
X146748437Y-115187110D01*
X146748439Y-115187110D01*
X146797775Y-115192078D01*
X146868968Y-115199246D01*
X146934741Y-115225972D01*
X146975625Y-115284016D01*
X146978638Y-115354948D01*
X146942823Y-115416249D01*
X146879552Y-115448456D01*
X146865682Y-115450265D01*
X146794014Y-115455591D01*
X146793997Y-115455593D01*
X146789348Y-115455939D01*
X146784800Y-115456968D01*
X146784794Y-115456969D01*
X146598399Y-115499147D01*
X146534423Y-115513623D01*
X146530071Y-115515315D01*
X146530069Y-115515316D01*
X146295176Y-115606660D01*
X146295173Y-115606661D01*
X146290823Y-115608353D01*
X146286769Y-115610670D01*
X146286767Y-115610671D01*
X146228312Y-115644081D01*
X146063902Y-115738049D01*
X145858643Y-115899862D01*
X145679557Y-116090237D01*
X145602117Y-116201866D01*
X145537515Y-116294989D01*
X145530576Y-116304991D01*
X145528510Y-116309181D01*
X145528508Y-116309184D01*
X145467009Y-116433893D01*
X145414975Y-116539407D01*
X145413553Y-116543850D01*
X145413552Y-116543852D01*
X145344955Y-116758150D01*
X145335293Y-116788335D01*
X145293279Y-117046307D01*
X145289858Y-117307655D01*
X145325104Y-117566638D01*
X145398243Y-117817567D01*
X145507668Y-118054928D01*
X145534091Y-118095230D01*
X145648410Y-118269596D01*
X145648414Y-118269601D01*
X145650976Y-118273509D01*
X145745675Y-118379610D01*
X145810820Y-118452598D01*
X145825018Y-118468506D01*
X145858961Y-118496736D01*
X146022378Y-118632650D01*
X146022382Y-118632653D01*
X146025970Y-118635637D01*
X146029798Y-118637960D01*
X146073611Y-118693759D01*
X146080306Y-118764439D01*
X146047726Y-118827519D01*
X145986214Y-118862971D01*
X145956601Y-118866500D01*
X139314595Y-118866500D01*
X139246474Y-118846498D01*
X139225499Y-118829595D01*
X138769500Y-118373595D01*
X138735475Y-118311283D01*
X138740540Y-118240467D01*
X138783087Y-118183632D01*
X138849607Y-118158821D01*
X138858596Y-118158500D01*
X139453134Y-118158500D01*
X139515316Y-118151745D01*
X139651705Y-118100615D01*
X139664435Y-118091074D01*
X139730939Y-118066226D01*
X139800322Y-118081278D01*
X139815559Y-118091070D01*
X139828295Y-118100615D01*
X139964684Y-118151745D01*
X140026866Y-118158500D01*
X140723134Y-118158500D01*
X140785316Y-118151745D01*
X140921705Y-118100615D01*
X140934435Y-118091074D01*
X141000939Y-118066226D01*
X141070322Y-118081278D01*
X141085559Y-118091070D01*
X141098295Y-118100615D01*
X141234684Y-118151745D01*
X141296866Y-118158500D01*
X141993134Y-118158500D01*
X142055316Y-118151745D01*
X142191705Y-118100615D01*
X142308261Y-118013261D01*
X142395615Y-117896705D01*
X142446745Y-117760316D01*
X142453500Y-117698134D01*
X142453500Y-116101866D01*
X142452237Y-116090237D01*
X142447598Y-116047534D01*
X142447598Y-116047532D01*
X142446745Y-116039684D01*
X142436256Y-116011703D01*
X142411518Y-115945716D01*
X142403500Y-115901487D01*
X142403500Y-114984500D01*
X142423502Y-114916379D01*
X142477158Y-114869886D01*
X142529500Y-114858500D01*
X142932930Y-114858500D01*
X142951880Y-114859933D01*
X142966115Y-114862099D01*
X142966119Y-114862099D01*
X142973349Y-114863199D01*
X142980641Y-114862606D01*
X142980644Y-114862606D01*
X143026018Y-114858915D01*
X143036233Y-114858500D01*
X143044293Y-114858500D01*
X143057583Y-114856951D01*
X143072507Y-114855211D01*
X143076882Y-114854778D01*
X143142339Y-114849454D01*
X143142342Y-114849453D01*
X143149637Y-114848860D01*
X143156601Y-114846604D01*
X143162560Y-114845413D01*
X143168415Y-114844029D01*
X143175681Y-114843182D01*
X143244327Y-114818265D01*
X143248455Y-114816848D01*
X143310936Y-114796607D01*
X143310938Y-114796606D01*
X143317899Y-114794351D01*
X143324154Y-114790555D01*
X143329628Y-114788049D01*
X143335058Y-114785330D01*
X143341937Y-114782833D01*
X143348058Y-114778820D01*
X143402976Y-114742814D01*
X143406680Y-114740477D01*
X143469107Y-114702595D01*
X143477484Y-114695197D01*
X143477508Y-114695224D01*
X143480500Y-114692571D01*
X143483733Y-114689868D01*
X143489852Y-114685856D01*
X143543128Y-114629617D01*
X143545506Y-114627175D01*
X144588911Y-113583770D01*
X144603323Y-113571384D01*
X144614918Y-113562851D01*
X144614923Y-113562846D01*
X144620818Y-113558508D01*
X144625557Y-113552930D01*
X144625560Y-113552927D01*
X144655035Y-113518232D01*
X144661965Y-113510716D01*
X144667660Y-113505021D01*
X144673617Y-113497491D01*
X144685281Y-113482749D01*
X144688072Y-113479345D01*
X144730591Y-113429297D01*
X144730592Y-113429295D01*
X144735333Y-113423715D01*
X144738661Y-113417199D01*
X144742028Y-113412150D01*
X144745195Y-113407021D01*
X144749734Y-113401284D01*
X144780655Y-113335125D01*
X144782561Y-113331225D01*
X144815769Y-113266192D01*
X144817508Y-113259084D01*
X144819607Y-113253441D01*
X144821524Y-113247678D01*
X144824622Y-113241050D01*
X144830943Y-113210663D01*
X144839486Y-113169588D01*
X144840457Y-113165299D01*
X144844995Y-113146753D01*
X144857808Y-113094390D01*
X144858500Y-113083236D01*
X144858536Y-113083238D01*
X144858775Y-113079245D01*
X144859149Y-113075053D01*
X144860640Y-113067885D01*
X144858546Y-112990479D01*
X144858500Y-112987072D01*
X144858500Y-110366371D01*
X144878502Y-110298250D01*
X144895405Y-110277276D01*
X145888911Y-109283770D01*
X145903323Y-109271384D01*
X145914918Y-109262851D01*
X145914923Y-109262846D01*
X145920818Y-109258508D01*
X145925557Y-109252930D01*
X145925560Y-109252927D01*
X145955035Y-109218232D01*
X145961965Y-109210716D01*
X145967661Y-109205020D01*
X145969924Y-109202159D01*
X145969929Y-109202154D01*
X145985285Y-109182744D01*
X145988074Y-109179342D01*
X146030596Y-109129291D01*
X146030597Y-109129290D01*
X146035333Y-109123715D01*
X146038661Y-109117198D01*
X146042027Y-109112150D01*
X146045190Y-109107028D01*
X146049735Y-109101284D01*
X146080664Y-109035105D01*
X146082563Y-109031221D01*
X146115769Y-108966192D01*
X146117510Y-108959077D01*
X146119613Y-108953422D01*
X146121522Y-108947683D01*
X146124622Y-108941050D01*
X146139491Y-108869565D01*
X146140461Y-108865282D01*
X146157808Y-108794390D01*
X146158500Y-108783236D01*
X146158535Y-108783238D01*
X146158775Y-108779266D01*
X146159152Y-108775045D01*
X146160641Y-108767885D01*
X146158546Y-108690458D01*
X146158500Y-108687050D01*
X146158500Y-108222808D01*
X146178502Y-108154687D01*
X146204103Y-108127529D01*
X146203317Y-108126623D01*
X146373412Y-107979023D01*
X146373414Y-107979021D01*
X146377445Y-107975523D01*
X146407006Y-107939471D01*
X146465666Y-107899476D01*
X146536636Y-107897545D01*
X146597384Y-107934290D01*
X146611584Y-107953059D01*
X146698063Y-108092807D01*
X146707099Y-108104208D01*
X146821829Y-108218739D01*
X146833240Y-108227751D01*
X146971243Y-108312816D01*
X146984424Y-108318963D01*
X147138710Y-108370138D01*
X147152086Y-108373005D01*
X147246438Y-108382672D01*
X147252854Y-108383000D01*
X147627885Y-108383000D01*
X147643124Y-108378525D01*
X147644329Y-108377135D01*
X147646000Y-108369452D01*
X147646000Y-108364884D01*
X148154000Y-108364884D01*
X148158475Y-108380123D01*
X148159865Y-108381328D01*
X148167548Y-108382999D01*
X148547095Y-108382999D01*
X148553614Y-108382662D01*
X148649206Y-108372743D01*
X148662600Y-108369851D01*
X148816784Y-108318412D01*
X148829962Y-108312239D01*
X148967807Y-108226937D01*
X148979208Y-108217901D01*
X149093739Y-108103171D01*
X149102751Y-108091760D01*
X149187816Y-107953757D01*
X149193963Y-107940576D01*
X149245138Y-107786290D01*
X149248005Y-107772914D01*
X149257672Y-107678562D01*
X149258000Y-107672146D01*
X149258000Y-107172115D01*
X149253525Y-107156876D01*
X149252135Y-107155671D01*
X149244452Y-107154000D01*
X148172115Y-107154000D01*
X148156876Y-107158475D01*
X148155671Y-107159865D01*
X148154000Y-107167548D01*
X148154000Y-108364884D01*
X147646000Y-108364884D01*
X147646000Y-106772000D01*
X147666002Y-106703879D01*
X147719658Y-106657386D01*
X147772000Y-106646000D01*
X149239884Y-106646000D01*
X149255123Y-106641525D01*
X149256328Y-106640135D01*
X149257999Y-106632452D01*
X149257999Y-106127905D01*
X149257662Y-106121386D01*
X149247743Y-106025794D01*
X149244851Y-106012400D01*
X149193412Y-105858216D01*
X149187239Y-105845038D01*
X149101937Y-105707193D01*
X149092901Y-105695792D01*
X148978171Y-105581261D01*
X148966760Y-105572249D01*
X148843409Y-105496215D01*
X148795916Y-105443443D01*
X148784492Y-105373372D01*
X148812766Y-105308248D01*
X148842930Y-105284348D01*
X148841937Y-105282833D01*
X148902976Y-105242814D01*
X148906680Y-105240477D01*
X148969107Y-105202595D01*
X148977484Y-105195197D01*
X148977508Y-105195224D01*
X148980500Y-105192571D01*
X148983733Y-105189868D01*
X148989852Y-105185856D01*
X149043128Y-105129617D01*
X149045506Y-105127175D01*
X150076405Y-104096276D01*
X150138717Y-104062250D01*
X150209532Y-104067315D01*
G37*
G04 #@! TD.AperFunction*
G04 #@! TA.AperFunction,Conductor*
G36*
X134909679Y-105478502D02*
G01*
X134956172Y-105532158D01*
X134966276Y-105602432D01*
X134951060Y-105646832D01*
X134937525Y-105670610D01*
X134916773Y-105707066D01*
X134835216Y-105931753D01*
X134834267Y-105937002D01*
X134834266Y-105937005D01*
X134793420Y-106162885D01*
X134793419Y-106162893D01*
X134792682Y-106166969D01*
X134791500Y-106192032D01*
X134791500Y-107560012D01*
X134806617Y-107738175D01*
X134807957Y-107743339D01*
X134807958Y-107743343D01*
X134862572Y-107953757D01*
X134866668Y-107969540D01*
X134868860Y-107974406D01*
X134959371Y-108175332D01*
X134964843Y-108187480D01*
X135098334Y-108385762D01*
X135102013Y-108389619D01*
X135102015Y-108389621D01*
X135136072Y-108425322D01*
X135263326Y-108558718D01*
X135455100Y-108701402D01*
X135459851Y-108703818D01*
X135459855Y-108703820D01*
X135663414Y-108807314D01*
X135668172Y-108809733D01*
X135748640Y-108834719D01*
X135891349Y-108879032D01*
X135891355Y-108879033D01*
X135896452Y-108880616D01*
X136023883Y-108897506D01*
X136128127Y-108911323D01*
X136128131Y-108911323D01*
X136133411Y-108912023D01*
X136138740Y-108911823D01*
X136138741Y-108911823D01*
X136276947Y-108906634D01*
X136345770Y-108924066D01*
X136370769Y-108943450D01*
X136503724Y-109076405D01*
X136537750Y-109138717D01*
X136532685Y-109209532D01*
X136490138Y-109266368D01*
X136423618Y-109291179D01*
X136414629Y-109291500D01*
X136216866Y-109291500D01*
X136154684Y-109298255D01*
X136018295Y-109349385D01*
X136005565Y-109358926D01*
X135939061Y-109383774D01*
X135869678Y-109368722D01*
X135854441Y-109358930D01*
X135841705Y-109349385D01*
X135705316Y-109298255D01*
X135643134Y-109291500D01*
X134946866Y-109291500D01*
X134884684Y-109298255D01*
X134748295Y-109349385D01*
X134735565Y-109358926D01*
X134669061Y-109383774D01*
X134599678Y-109368722D01*
X134584441Y-109358930D01*
X134571705Y-109349385D01*
X134435316Y-109298255D01*
X134373134Y-109291500D01*
X133676866Y-109291500D01*
X133614684Y-109298255D01*
X133478295Y-109349385D01*
X133465565Y-109358926D01*
X133399061Y-109383774D01*
X133329678Y-109368722D01*
X133314441Y-109358930D01*
X133301705Y-109349385D01*
X133165316Y-109298255D01*
X133103134Y-109291500D01*
X132406866Y-109291500D01*
X132344684Y-109298255D01*
X132208295Y-109349385D01*
X132091739Y-109436739D01*
X132004385Y-109553295D01*
X131953255Y-109689684D01*
X131946500Y-109751866D01*
X131946500Y-111348134D01*
X131953255Y-111410316D01*
X131956027Y-111417709D01*
X131956027Y-111417711D01*
X131988482Y-111504284D01*
X131996500Y-111548513D01*
X131996500Y-113078632D01*
X131976498Y-113146753D01*
X131959595Y-113167727D01*
X128743670Y-116383652D01*
X128680773Y-116417803D01*
X128624177Y-116429833D01*
X128624168Y-116429836D01*
X128617713Y-116431208D01*
X128611683Y-116433893D01*
X128611682Y-116433893D01*
X128449279Y-116506199D01*
X128449277Y-116506200D01*
X128443249Y-116508884D01*
X128288748Y-116621136D01*
X128160961Y-116763058D01*
X128065474Y-116928446D01*
X128006459Y-117110074D01*
X128005769Y-117116635D01*
X128005769Y-117116637D01*
X128001540Y-117156876D01*
X127986497Y-117300002D01*
X128006459Y-117489930D01*
X128065474Y-117671558D01*
X128160961Y-117836946D01*
X128165379Y-117841853D01*
X128165380Y-117841854D01*
X128221238Y-117903891D01*
X128288748Y-117978868D01*
X128336086Y-118013261D01*
X128429703Y-118081278D01*
X128443249Y-118091120D01*
X128449277Y-118093804D01*
X128449279Y-118093805D01*
X128576379Y-118150393D01*
X128630475Y-118196373D01*
X128651124Y-118264300D01*
X128631772Y-118332608D01*
X128578561Y-118379610D01*
X128525130Y-118391500D01*
X128404513Y-118391500D01*
X128398061Y-118392872D01*
X128398056Y-118392872D01*
X128311113Y-118411353D01*
X128217712Y-118431206D01*
X128211682Y-118433891D01*
X128211681Y-118433891D01*
X128049278Y-118506197D01*
X128049276Y-118506198D01*
X128043248Y-118508882D01*
X128037907Y-118512762D01*
X128037906Y-118512763D01*
X127908561Y-118606738D01*
X127841693Y-118630597D01*
X127772542Y-118614516D01*
X127723061Y-118563602D01*
X127708500Y-118504802D01*
X127708500Y-113486062D01*
X129478493Y-113486062D01*
X129487789Y-113498077D01*
X129538994Y-113533931D01*
X129548489Y-113539414D01*
X129745947Y-113631490D01*
X129756239Y-113635236D01*
X129966688Y-113691625D01*
X129977481Y-113693528D01*
X130194525Y-113712517D01*
X130205475Y-113712517D01*
X130422519Y-113693528D01*
X130433312Y-113691625D01*
X130643761Y-113635236D01*
X130654053Y-113631490D01*
X130851511Y-113539414D01*
X130861006Y-113533931D01*
X130913048Y-113497491D01*
X130921424Y-113487012D01*
X130914356Y-113473566D01*
X130212812Y-112772022D01*
X130198868Y-112764408D01*
X130197035Y-112764539D01*
X130190420Y-112768790D01*
X129484923Y-113474287D01*
X129478493Y-113486062D01*
X127708500Y-113486062D01*
X127708500Y-112180547D01*
X127728502Y-112112426D01*
X127782158Y-112065933D01*
X127847344Y-112055203D01*
X127871443Y-112057672D01*
X127877854Y-112058000D01*
X128127885Y-112058000D01*
X128143124Y-112053525D01*
X128144329Y-112052135D01*
X128146000Y-112044452D01*
X128146000Y-112039884D01*
X128654000Y-112039884D01*
X128658475Y-112055123D01*
X128659865Y-112056328D01*
X128667548Y-112057999D01*
X128779420Y-112057999D01*
X128847541Y-112078001D01*
X128894034Y-112131657D01*
X128904941Y-112194981D01*
X128887483Y-112394526D01*
X128887483Y-112405475D01*
X128906472Y-112622519D01*
X128908375Y-112633312D01*
X128964764Y-112843761D01*
X128968510Y-112854053D01*
X129060586Y-113051511D01*
X129066069Y-113061006D01*
X129102509Y-113113048D01*
X129112988Y-113121424D01*
X129126434Y-113114356D01*
X129839658Y-112401132D01*
X130564408Y-112401132D01*
X130564539Y-112402965D01*
X130568790Y-112409580D01*
X131274287Y-113115077D01*
X131286062Y-113121507D01*
X131298077Y-113112211D01*
X131333931Y-113061006D01*
X131339414Y-113051511D01*
X131431490Y-112854053D01*
X131435236Y-112843761D01*
X131491625Y-112633312D01*
X131493528Y-112622519D01*
X131512517Y-112405475D01*
X131512517Y-112394525D01*
X131493528Y-112177481D01*
X131491625Y-112166688D01*
X131435236Y-111956239D01*
X131431490Y-111945947D01*
X131339414Y-111748489D01*
X131333931Y-111738994D01*
X131297491Y-111686952D01*
X131287012Y-111678576D01*
X131273566Y-111685644D01*
X130572022Y-112387188D01*
X130564408Y-112401132D01*
X129839658Y-112401132D01*
X130915077Y-111325713D01*
X130921507Y-111313938D01*
X130912211Y-111301923D01*
X130861006Y-111266069D01*
X130851511Y-111260586D01*
X130654053Y-111168510D01*
X130643761Y-111164764D01*
X130433312Y-111108375D01*
X130422519Y-111106472D01*
X130205475Y-111087483D01*
X130194525Y-111087483D01*
X129977481Y-111106472D01*
X129966688Y-111108375D01*
X129756239Y-111164764D01*
X129745947Y-111168510D01*
X129689418Y-111194870D01*
X129677294Y-111205545D01*
X129675132Y-111213018D01*
X129636986Y-111272896D01*
X129572523Y-111302645D01*
X129554096Y-111304000D01*
X128672115Y-111304000D01*
X128656876Y-111308475D01*
X128655671Y-111309865D01*
X128654000Y-111317548D01*
X128654000Y-112039884D01*
X128146000Y-112039884D01*
X128146000Y-110922000D01*
X128166002Y-110853879D01*
X128219658Y-110807386D01*
X128272000Y-110796000D01*
X129614884Y-110796000D01*
X129630123Y-110791525D01*
X129631328Y-110790135D01*
X129632999Y-110782452D01*
X129632999Y-110752905D01*
X129632662Y-110746386D01*
X129622743Y-110650794D01*
X129619851Y-110637400D01*
X129568412Y-110483216D01*
X129562239Y-110470038D01*
X129502297Y-110373174D01*
X129483459Y-110304722D01*
X129504620Y-110236953D01*
X129526114Y-110212358D01*
X129534862Y-110204646D01*
X129538655Y-110201302D01*
X129542324Y-110196836D01*
X129565179Y-110169011D01*
X129573449Y-110159892D01*
X131309805Y-108423536D01*
X131311431Y-108421626D01*
X131311437Y-108421619D01*
X131424192Y-108289132D01*
X131424194Y-108289130D01*
X131427470Y-108285280D01*
X131553221Y-108077642D01*
X131644155Y-107852571D01*
X131681527Y-107688075D01*
X131696815Y-107620786D01*
X131696815Y-107620783D01*
X131697935Y-107615855D01*
X131698908Y-107600401D01*
X131712860Y-107378641D01*
X131713178Y-107373587D01*
X131689490Y-107131998D01*
X131647904Y-106974600D01*
X131628773Y-106902192D01*
X131628771Y-106902186D01*
X131627481Y-106897304D01*
X131574620Y-106778577D01*
X131530805Y-106680168D01*
X131530804Y-106680166D01*
X131528746Y-106675544D01*
X131525979Y-106671316D01*
X131525976Y-106671310D01*
X131398596Y-106476653D01*
X131395827Y-106472421D01*
X131392413Y-106468682D01*
X131235554Y-106296899D01*
X131235550Y-106296895D01*
X131232142Y-106293163D01*
X131228178Y-106290021D01*
X131045869Y-106145525D01*
X131045867Y-106145524D01*
X131041902Y-106142381D01*
X131037489Y-106139914D01*
X131037485Y-106139912D01*
X130834418Y-106026421D01*
X130834413Y-106026419D01*
X130830003Y-106023954D01*
X130797318Y-106012058D01*
X130606657Y-105942663D01*
X130606655Y-105942662D01*
X130601895Y-105940930D01*
X130363447Y-105895444D01*
X130207949Y-105891100D01*
X130125850Y-105888807D01*
X130125847Y-105888807D01*
X130120795Y-105888666D01*
X130115782Y-105889335D01*
X130115780Y-105889335D01*
X129986154Y-105906631D01*
X129880180Y-105920771D01*
X129875339Y-105922233D01*
X129875337Y-105922233D01*
X129652643Y-105989468D01*
X129652639Y-105989470D01*
X129647792Y-105990933D01*
X129429612Y-106097346D01*
X129352781Y-106151545D01*
X129249618Y-106224319D01*
X129231253Y-106237274D01*
X129209750Y-106256909D01*
X127899564Y-107567095D01*
X127837252Y-107601121D01*
X127810469Y-107604000D01*
X127534500Y-107604000D01*
X127466379Y-107583998D01*
X127419886Y-107530342D01*
X127408500Y-107478000D01*
X127408499Y-106977867D01*
X127408499Y-106974600D01*
X127397526Y-106868833D01*
X127377259Y-106808085D01*
X127343867Y-106707998D01*
X127343866Y-106707996D01*
X127341550Y-106701054D01*
X127248479Y-106550651D01*
X127123303Y-106425694D01*
X127078746Y-106398229D01*
X127008964Y-106355214D01*
X126961471Y-106302441D01*
X126951277Y-106264757D01*
X126950887Y-106264835D01*
X126949726Y-106259023D01*
X126949495Y-106258170D01*
X126949454Y-106257661D01*
X126949453Y-106257658D01*
X126948860Y-106250363D01*
X126946604Y-106243399D01*
X126945413Y-106237440D01*
X126944029Y-106231585D01*
X126943182Y-106224319D01*
X126918265Y-106155673D01*
X126916848Y-106151545D01*
X126896607Y-106089064D01*
X126896606Y-106089062D01*
X126894351Y-106082101D01*
X126890555Y-106075846D01*
X126888049Y-106070372D01*
X126885330Y-106064942D01*
X126882833Y-106058063D01*
X126842809Y-105997016D01*
X126840472Y-105993312D01*
X126839029Y-105990933D01*
X126828229Y-105973135D01*
X126805509Y-105935693D01*
X126805505Y-105935688D01*
X126802595Y-105930892D01*
X126797487Y-105925108D01*
X126795197Y-105922516D01*
X126795223Y-105922493D01*
X126792574Y-105919503D01*
X126789866Y-105916264D01*
X126785856Y-105910148D01*
X126780549Y-105905121D01*
X126780546Y-105905117D01*
X126729617Y-105856872D01*
X126727175Y-105854494D01*
X126546276Y-105673595D01*
X126512250Y-105611283D01*
X126517315Y-105540468D01*
X126559862Y-105483632D01*
X126626382Y-105458821D01*
X126635371Y-105458500D01*
X134841558Y-105458500D01*
X134909679Y-105478502D01*
G37*
G04 #@! TD.AperFunction*
M02*
