G04 #@! TF.GenerationSoftware,KiCad,Pcbnew,(6.0.7)*
G04 #@! TF.CreationDate,2023-05-10T15:43:49+05:30*
G04 #@! TF.ProjectId,PS440V_to_5V,50533434-3056-45f7-946f-5f35562e6b69,rev?*
G04 #@! TF.SameCoordinates,Original*
G04 #@! TF.FileFunction,Legend,Bot*
G04 #@! TF.FilePolarity,Positive*
%FSLAX46Y46*%
G04 Gerber Fmt 4.6, Leading zero omitted, Abs format (unit mm)*
G04 Created by KiCad (PCBNEW (6.0.7)) date 2023-05-10 15:43:49*
%MOMM*%
%LPD*%
G01*
G04 APERTURE LIST*
%ADD10C,0.150000*%
%ADD11C,0.275000*%
%ADD12C,0.200000*%
%ADD13C,0.300000*%
%ADD14C,0.120000*%
G04 APERTURE END LIST*
D10*
X112291683Y-89888279D02*
X116722618Y-89888279D01*
X116722618Y-89888279D02*
X116722618Y-86820709D01*
X116722618Y-86820709D02*
X112291683Y-86820709D01*
X112291683Y-86820709D02*
X112291683Y-89888279D01*
X112359851Y-100727028D02*
X116449945Y-100727028D01*
X116449945Y-100727028D02*
X116449945Y-98000299D01*
X116449945Y-98000299D02*
X112359851Y-98000299D01*
X112359851Y-98000299D02*
X112359851Y-100727028D01*
D11*
X132873809Y-94812119D02*
X132873809Y-93712119D01*
X132454761Y-93712119D01*
X132350000Y-93764500D01*
X132297619Y-93816880D01*
X132245238Y-93921642D01*
X132245238Y-94078785D01*
X132297619Y-94183547D01*
X132350000Y-94235928D01*
X132454761Y-94288309D01*
X132873809Y-94288309D01*
X131826190Y-94759738D02*
X131669047Y-94812119D01*
X131407142Y-94812119D01*
X131302380Y-94759738D01*
X131250000Y-94707357D01*
X131197619Y-94602595D01*
X131197619Y-94497833D01*
X131250000Y-94393071D01*
X131302380Y-94340690D01*
X131407142Y-94288309D01*
X131616666Y-94235928D01*
X131721428Y-94183547D01*
X131773809Y-94131166D01*
X131826190Y-94026404D01*
X131826190Y-93921642D01*
X131773809Y-93816880D01*
X131721428Y-93764500D01*
X131616666Y-93712119D01*
X131354761Y-93712119D01*
X131197619Y-93764500D01*
X129416666Y-94078785D02*
X129416666Y-94812119D01*
X129678571Y-93659738D02*
X129940476Y-94445452D01*
X129259523Y-94445452D01*
X128369047Y-94078785D02*
X128369047Y-94812119D01*
X128630952Y-93659738D02*
X128892857Y-94445452D01*
X128211904Y-94445452D01*
X127583333Y-93712119D02*
X127478571Y-93712119D01*
X127373809Y-93764500D01*
X127321428Y-93816880D01*
X127269047Y-93921642D01*
X127216666Y-94131166D01*
X127216666Y-94393071D01*
X127269047Y-94602595D01*
X127321428Y-94707357D01*
X127373809Y-94759738D01*
X127478571Y-94812119D01*
X127583333Y-94812119D01*
X127688095Y-94759738D01*
X127740476Y-94707357D01*
X127792857Y-94602595D01*
X127845238Y-94393071D01*
X127845238Y-94131166D01*
X127792857Y-93921642D01*
X127740476Y-93816880D01*
X127688095Y-93764500D01*
X127583333Y-93712119D01*
X126902380Y-93712119D02*
X126535714Y-94812119D01*
X126169047Y-93712119D01*
X125802380Y-94393071D02*
X124964285Y-94393071D01*
X123864285Y-94812119D02*
X124492857Y-94812119D01*
X124178571Y-94812119D02*
X124178571Y-93712119D01*
X124283333Y-93869261D01*
X124388095Y-93974023D01*
X124492857Y-94026404D01*
X123445238Y-93816880D02*
X123392857Y-93764500D01*
X123288095Y-93712119D01*
X123026190Y-93712119D01*
X122921428Y-93764500D01*
X122869047Y-93816880D01*
X122816666Y-93921642D01*
X122816666Y-94026404D01*
X122869047Y-94183547D01*
X123497619Y-94812119D01*
X122816666Y-94812119D01*
X122502380Y-93712119D02*
X122135714Y-94812119D01*
X121769047Y-93712119D01*
X130778571Y-96583119D02*
X130778571Y-95483119D01*
X130411904Y-96268833D01*
X130045238Y-95483119D01*
X130045238Y-96583119D01*
X129050000Y-96583119D02*
X129050000Y-96006928D01*
X129102380Y-95902166D01*
X129207142Y-95849785D01*
X129416666Y-95849785D01*
X129521428Y-95902166D01*
X129050000Y-96530738D02*
X129154761Y-96583119D01*
X129416666Y-96583119D01*
X129521428Y-96530738D01*
X129573809Y-96425976D01*
X129573809Y-96321214D01*
X129521428Y-96216452D01*
X129416666Y-96164071D01*
X129154761Y-96164071D01*
X129050000Y-96111690D01*
X128630952Y-95849785D02*
X128369047Y-96583119D01*
X128107142Y-95849785D02*
X128369047Y-96583119D01*
X128473809Y-96845023D01*
X128526190Y-96897404D01*
X128630952Y-96949785D01*
X127740476Y-95587880D02*
X127688095Y-95535500D01*
X127583333Y-95483119D01*
X127321428Y-95483119D01*
X127216666Y-95535500D01*
X127164285Y-95587880D01*
X127111904Y-95692642D01*
X127111904Y-95797404D01*
X127164285Y-95954547D01*
X127792857Y-96583119D01*
X127111904Y-96583119D01*
X126430952Y-95483119D02*
X126326190Y-95483119D01*
X126221428Y-95535500D01*
X126169047Y-95587880D01*
X126116666Y-95692642D01*
X126064285Y-95902166D01*
X126064285Y-96164071D01*
X126116666Y-96373595D01*
X126169047Y-96478357D01*
X126221428Y-96530738D01*
X126326190Y-96583119D01*
X126430952Y-96583119D01*
X126535714Y-96530738D01*
X126588095Y-96478357D01*
X126640476Y-96373595D01*
X126692857Y-96164071D01*
X126692857Y-95902166D01*
X126640476Y-95692642D01*
X126588095Y-95587880D01*
X126535714Y-95535500D01*
X126430952Y-95483119D01*
X125645238Y-95587880D02*
X125592857Y-95535500D01*
X125488095Y-95483119D01*
X125226190Y-95483119D01*
X125121428Y-95535500D01*
X125069047Y-95587880D01*
X125016666Y-95692642D01*
X125016666Y-95797404D01*
X125069047Y-95954547D01*
X125697619Y-96583119D01*
X125016666Y-96583119D01*
X124650000Y-95483119D02*
X123969047Y-95483119D01*
X124335714Y-95902166D01*
X124178571Y-95902166D01*
X124073809Y-95954547D01*
X124021428Y-96006928D01*
X123969047Y-96111690D01*
X123969047Y-96373595D01*
X124021428Y-96478357D01*
X124073809Y-96530738D01*
X124178571Y-96583119D01*
X124492857Y-96583119D01*
X124597619Y-96530738D01*
X124650000Y-96478357D01*
D12*
X142871428Y-118252380D02*
X143328571Y-118252380D01*
X143100000Y-118252380D02*
X143100000Y-117252380D01*
X143176190Y-117395238D01*
X143252380Y-117490476D01*
X143328571Y-117538095D01*
D13*
X115976326Y-100404761D02*
X115976326Y-98404761D01*
X114833469Y-100404761D01*
X114833469Y-98404761D01*
X112738231Y-100214285D02*
X112833469Y-100309523D01*
X113119183Y-100404761D01*
X113309659Y-100404761D01*
X113595374Y-100309523D01*
X113785850Y-100119047D01*
X113881088Y-99928571D01*
X113976326Y-99547619D01*
X113976326Y-99261904D01*
X113881088Y-98880952D01*
X113785850Y-98690476D01*
X113595374Y-98500000D01*
X113309659Y-98404761D01*
X113119183Y-98404761D01*
X112833469Y-98500000D01*
X112738231Y-98595238D01*
X132890476Y-105592857D02*
X131900000Y-105592857D01*
X132395238Y-106088095D02*
X132395238Y-105097619D01*
X130600000Y-106088095D02*
X131342857Y-106088095D01*
X130971428Y-106088095D02*
X130971428Y-104788095D01*
X131095238Y-104973809D01*
X131219047Y-105097619D01*
X131342857Y-105159523D01*
X130104761Y-104911904D02*
X130042857Y-104850000D01*
X129919047Y-104788095D01*
X129609523Y-104788095D01*
X129485714Y-104850000D01*
X129423809Y-104911904D01*
X129361904Y-105035714D01*
X129361904Y-105159523D01*
X129423809Y-105345238D01*
X130166666Y-106088095D01*
X129361904Y-106088095D01*
X128990476Y-104788095D02*
X128557142Y-106088095D01*
X128123809Y-104788095D01*
X148600000Y-111214285D02*
X148657142Y-111328571D01*
X148657142Y-111500000D01*
X148600000Y-111671428D01*
X148485714Y-111785714D01*
X148371428Y-111842857D01*
X148142857Y-111900000D01*
X147971428Y-111900000D01*
X147742857Y-111842857D01*
X147628571Y-111785714D01*
X147514285Y-111671428D01*
X147457142Y-111500000D01*
X147457142Y-111385714D01*
X147514285Y-111214285D01*
X147571428Y-111157142D01*
X147971428Y-111157142D01*
X147971428Y-111385714D01*
X147457142Y-110642857D02*
X148657142Y-110642857D01*
X147457142Y-109957142D01*
X148657142Y-109957142D01*
X147457142Y-109385714D02*
X148657142Y-109385714D01*
X148657142Y-109100000D01*
X148600000Y-108928571D01*
X148485714Y-108814285D01*
X148371428Y-108757142D01*
X148142857Y-108700000D01*
X147971428Y-108700000D01*
X147742857Y-108757142D01*
X147628571Y-108814285D01*
X147514285Y-108928571D01*
X147457142Y-109100000D01*
X147457142Y-109385714D01*
X116113400Y-89371584D02*
X116113400Y-87371584D01*
X114970543Y-89371584D01*
X114970543Y-87371584D01*
X113637210Y-87371584D02*
X113256257Y-87371584D01*
X113065781Y-87466823D01*
X112875305Y-87657299D01*
X112780067Y-88038251D01*
X112780067Y-88704918D01*
X112875305Y-89085870D01*
X113065781Y-89276346D01*
X113256257Y-89371584D01*
X113637210Y-89371584D01*
X113827686Y-89276346D01*
X114018162Y-89085870D01*
X114113400Y-88704918D01*
X114113400Y-88038251D01*
X114018162Y-87657299D01*
X113827686Y-87466823D01*
X113637210Y-87371584D01*
X144871428Y-121092857D02*
X143880952Y-121092857D01*
X144376190Y-121588095D02*
X144376190Y-120597619D01*
X142642857Y-120288095D02*
X143261904Y-120288095D01*
X143323809Y-120907142D01*
X143261904Y-120845238D01*
X143138095Y-120783333D01*
X142828571Y-120783333D01*
X142704761Y-120845238D01*
X142642857Y-120907142D01*
X142580952Y-121030952D01*
X142580952Y-121340476D01*
X142642857Y-121464285D01*
X142704761Y-121526190D01*
X142828571Y-121588095D01*
X143138095Y-121588095D01*
X143261904Y-121526190D01*
X143323809Y-121464285D01*
X142209523Y-120288095D02*
X141776190Y-121588095D01*
X141342857Y-120288095D01*
X134426190Y-92226190D02*
X134240476Y-92288095D01*
X133930952Y-92288095D01*
X133807142Y-92226190D01*
X133745238Y-92164285D01*
X133683333Y-92040476D01*
X133683333Y-91916666D01*
X133745238Y-91792857D01*
X133807142Y-91730952D01*
X133930952Y-91669047D01*
X134178571Y-91607142D01*
X134302380Y-91545238D01*
X134364285Y-91483333D01*
X134426190Y-91359523D01*
X134426190Y-91235714D01*
X134364285Y-91111904D01*
X134302380Y-91050000D01*
X134178571Y-90988095D01*
X133869047Y-90988095D01*
X133683333Y-91050000D01*
X132569047Y-92288095D02*
X132569047Y-91607142D01*
X132630952Y-91483333D01*
X132754761Y-91421428D01*
X133002380Y-91421428D01*
X133126190Y-91483333D01*
X132569047Y-92226190D02*
X132692857Y-92288095D01*
X133002380Y-92288095D01*
X133126190Y-92226190D01*
X133188095Y-92102380D01*
X133188095Y-91978571D01*
X133126190Y-91854761D01*
X133002380Y-91792857D01*
X132692857Y-91792857D01*
X132569047Y-91730952D01*
X132011904Y-92226190D02*
X131888095Y-92288095D01*
X131640476Y-92288095D01*
X131516666Y-92226190D01*
X131454761Y-92102380D01*
X131454761Y-92040476D01*
X131516666Y-91916666D01*
X131640476Y-91854761D01*
X131826190Y-91854761D01*
X131950000Y-91792857D01*
X132011904Y-91669047D01*
X132011904Y-91607142D01*
X131950000Y-91483333D01*
X131826190Y-91421428D01*
X131640476Y-91421428D01*
X131516666Y-91483333D01*
X131021428Y-91421428D02*
X130711904Y-92288095D01*
X130402380Y-91421428D02*
X130711904Y-92288095D01*
X130835714Y-92597619D01*
X130897619Y-92659523D01*
X131021428Y-92721428D01*
X129350000Y-92288095D02*
X129350000Y-91607142D01*
X129411904Y-91483333D01*
X129535714Y-91421428D01*
X129783333Y-91421428D01*
X129907142Y-91483333D01*
X129350000Y-92226190D02*
X129473809Y-92288095D01*
X129783333Y-92288095D01*
X129907142Y-92226190D01*
X129969047Y-92102380D01*
X129969047Y-91978571D01*
X129907142Y-91854761D01*
X129783333Y-91792857D01*
X129473809Y-91792857D01*
X129350000Y-91730952D01*
X127802380Y-92226190D02*
X127616666Y-92288095D01*
X127307142Y-92288095D01*
X127183333Y-92226190D01*
X127121428Y-92164285D01*
X127059523Y-92040476D01*
X127059523Y-91916666D01*
X127121428Y-91792857D01*
X127183333Y-91730952D01*
X127307142Y-91669047D01*
X127554761Y-91607142D01*
X127678571Y-91545238D01*
X127740476Y-91483333D01*
X127802380Y-91359523D01*
X127802380Y-91235714D01*
X127740476Y-91111904D01*
X127678571Y-91050000D01*
X127554761Y-90988095D01*
X127245238Y-90988095D01*
X127059523Y-91050000D01*
X126626190Y-91421428D02*
X126316666Y-92288095D01*
X126007142Y-91421428D02*
X126316666Y-92288095D01*
X126440476Y-92597619D01*
X126502380Y-92659523D01*
X126626190Y-92721428D01*
X125573809Y-92226190D02*
X125450000Y-92288095D01*
X125202380Y-92288095D01*
X125078571Y-92226190D01*
X125016666Y-92102380D01*
X125016666Y-92040476D01*
X125078571Y-91916666D01*
X125202380Y-91854761D01*
X125388095Y-91854761D01*
X125511904Y-91792857D01*
X125573809Y-91669047D01*
X125573809Y-91607142D01*
X125511904Y-91483333D01*
X125388095Y-91421428D01*
X125202380Y-91421428D01*
X125078571Y-91483333D01*
X124645238Y-91421428D02*
X124150000Y-91421428D01*
X124459523Y-90988095D02*
X124459523Y-92102380D01*
X124397619Y-92226190D01*
X124273809Y-92288095D01*
X124150000Y-92288095D01*
X123221428Y-92226190D02*
X123345238Y-92288095D01*
X123592857Y-92288095D01*
X123716666Y-92226190D01*
X123778571Y-92102380D01*
X123778571Y-91607142D01*
X123716666Y-91483333D01*
X123592857Y-91421428D01*
X123345238Y-91421428D01*
X123221428Y-91483333D01*
X123159523Y-91607142D01*
X123159523Y-91730952D01*
X123778571Y-91854761D01*
X122602380Y-92288095D02*
X122602380Y-91421428D01*
X122602380Y-91545238D02*
X122540476Y-91483333D01*
X122416666Y-91421428D01*
X122230952Y-91421428D01*
X122107142Y-91483333D01*
X122045238Y-91607142D01*
X122045238Y-92288095D01*
X122045238Y-91607142D02*
X121983333Y-91483333D01*
X121859523Y-91421428D01*
X121673809Y-91421428D01*
X121550000Y-91483333D01*
X121488095Y-91607142D01*
X121488095Y-92288095D01*
X120930952Y-92226190D02*
X120807142Y-92288095D01*
X120559523Y-92288095D01*
X120435714Y-92226190D01*
X120373809Y-92102380D01*
X120373809Y-92040476D01*
X120435714Y-91916666D01*
X120559523Y-91854761D01*
X120745238Y-91854761D01*
X120869047Y-91792857D01*
X120930952Y-91669047D01*
X120930952Y-91607142D01*
X120869047Y-91483333D01*
X120745238Y-91421428D01*
X120559523Y-91421428D01*
X120435714Y-91483333D01*
X110911904Y-122078571D02*
X110911904Y-122821428D01*
X110911904Y-122450000D02*
X112211904Y-122450000D01*
X112026190Y-122573809D01*
X111902380Y-122697619D01*
X111840476Y-122821428D01*
X112088095Y-121583333D02*
X112150000Y-121521428D01*
X112211904Y-121397619D01*
X112211904Y-121088095D01*
X112150000Y-120964285D01*
X112088095Y-120902380D01*
X111964285Y-120840476D01*
X111840476Y-120840476D01*
X111654761Y-120902380D01*
X110911904Y-121645238D01*
X110911904Y-120840476D01*
X112211904Y-120469047D02*
X110911904Y-120035714D01*
X112211904Y-119602380D01*
X110416666Y-118797619D02*
X110478571Y-118859523D01*
X110664285Y-118983333D01*
X110788095Y-119045238D01*
X110973809Y-119107142D01*
X111283333Y-119169047D01*
X111530952Y-119169047D01*
X111840476Y-119107142D01*
X112026190Y-119045238D01*
X112150000Y-118983333D01*
X112335714Y-118859523D01*
X112397619Y-118797619D01*
X111283333Y-118364285D02*
X111283333Y-117745238D01*
X110911904Y-118488095D02*
X112211904Y-118054761D01*
X110911904Y-117621428D01*
X111035714Y-116445238D02*
X110973809Y-116507142D01*
X110911904Y-116692857D01*
X110911904Y-116816666D01*
X110973809Y-117002380D01*
X111097619Y-117126190D01*
X111221428Y-117188095D01*
X111469047Y-117250000D01*
X111654761Y-117250000D01*
X111902380Y-117188095D01*
X112026190Y-117126190D01*
X112150000Y-117002380D01*
X112211904Y-116816666D01*
X112211904Y-116692857D01*
X112150000Y-116507142D01*
X112088095Y-116445238D01*
X110416666Y-116011904D02*
X110478571Y-115950000D01*
X110664285Y-115826190D01*
X110788095Y-115764285D01*
X110973809Y-115702380D01*
X111283333Y-115640476D01*
X111530952Y-115640476D01*
X111840476Y-115702380D01*
X112026190Y-115764285D01*
X112150000Y-115826190D01*
X112335714Y-115950000D01*
X112397619Y-116011904D01*
D10*
X136261904Y-118252380D02*
X136261904Y-119061904D01*
X136214285Y-119157142D01*
X136166666Y-119204761D01*
X136071428Y-119252380D01*
X135880952Y-119252380D01*
X135785714Y-119204761D01*
X135738095Y-119157142D01*
X135690476Y-119061904D01*
X135690476Y-118252380D01*
X135261904Y-118347619D02*
X135214285Y-118300000D01*
X135119047Y-118252380D01*
X134880952Y-118252380D01*
X134785714Y-118300000D01*
X134738095Y-118347619D01*
X134690476Y-118442857D01*
X134690476Y-118538095D01*
X134738095Y-118680952D01*
X135309523Y-119252380D01*
X134690476Y-119252380D01*
X139519047Y-119552380D02*
X139519047Y-120361904D01*
X139471428Y-120457142D01*
X139423809Y-120504761D01*
X139328571Y-120552380D01*
X139138095Y-120552380D01*
X139042857Y-120504761D01*
X138995238Y-120457142D01*
X138947619Y-120361904D01*
X138947619Y-119552380D01*
X137995238Y-120552380D02*
X138471428Y-120552380D01*
X138471428Y-119552380D01*
X137661904Y-120552380D02*
X137661904Y-119552380D01*
X137090476Y-120552380D01*
X137090476Y-119552380D01*
X136661904Y-119647619D02*
X136614285Y-119600000D01*
X136519047Y-119552380D01*
X136280952Y-119552380D01*
X136185714Y-119600000D01*
X136138095Y-119647619D01*
X136090476Y-119742857D01*
X136090476Y-119838095D01*
X136138095Y-119980952D01*
X136709523Y-120552380D01*
X136090476Y-120552380D01*
X135471428Y-119552380D02*
X135376190Y-119552380D01*
X135280952Y-119600000D01*
X135233333Y-119647619D01*
X135185714Y-119742857D01*
X135138095Y-119933333D01*
X135138095Y-120171428D01*
X135185714Y-120361904D01*
X135233333Y-120457142D01*
X135280952Y-120504761D01*
X135376190Y-120552380D01*
X135471428Y-120552380D01*
X135566666Y-120504761D01*
X135614285Y-120457142D01*
X135661904Y-120361904D01*
X135709523Y-120171428D01*
X135709523Y-119933333D01*
X135661904Y-119742857D01*
X135614285Y-119647619D01*
X135566666Y-119600000D01*
X135471428Y-119552380D01*
X134519047Y-119552380D02*
X134423809Y-119552380D01*
X134328571Y-119600000D01*
X134280952Y-119647619D01*
X134233333Y-119742857D01*
X134185714Y-119933333D01*
X134185714Y-120171428D01*
X134233333Y-120361904D01*
X134280952Y-120457142D01*
X134328571Y-120504761D01*
X134423809Y-120552380D01*
X134519047Y-120552380D01*
X134614285Y-120504761D01*
X134661904Y-120457142D01*
X134709523Y-120361904D01*
X134757142Y-120171428D01*
X134757142Y-119933333D01*
X134709523Y-119742857D01*
X134661904Y-119647619D01*
X134614285Y-119600000D01*
X134519047Y-119552380D01*
X133852380Y-119552380D02*
X133233333Y-119552380D01*
X133566666Y-119933333D01*
X133423809Y-119933333D01*
X133328571Y-119980952D01*
X133280952Y-120028571D01*
X133233333Y-120123809D01*
X133233333Y-120361904D01*
X133280952Y-120457142D01*
X133328571Y-120504761D01*
X133423809Y-120552380D01*
X133709523Y-120552380D01*
X133804761Y-120504761D01*
X133852380Y-120457142D01*
X128857142Y-107033333D02*
X128904761Y-106985714D01*
X128952380Y-106842857D01*
X128952380Y-106747619D01*
X128904761Y-106604761D01*
X128809523Y-106509523D01*
X128714285Y-106461904D01*
X128523809Y-106414285D01*
X128380952Y-106414285D01*
X128190476Y-106461904D01*
X128095238Y-106509523D01*
X128000000Y-106604761D01*
X127952380Y-106747619D01*
X127952380Y-106842857D01*
X128000000Y-106985714D01*
X128047619Y-107033333D01*
X128952380Y-107985714D02*
X128952380Y-107414285D01*
X128952380Y-107700000D02*
X127952380Y-107700000D01*
X128095238Y-107604761D01*
X128190476Y-107509523D01*
X128238095Y-107414285D01*
X127752380Y-112438095D02*
X127752380Y-112533333D01*
X127800000Y-112628571D01*
X127847619Y-112676190D01*
X127942857Y-112723809D01*
X128133333Y-112771428D01*
X128371428Y-112771428D01*
X128561904Y-112723809D01*
X128657142Y-112676190D01*
X128704761Y-112628571D01*
X128752380Y-112533333D01*
X128752380Y-112438095D01*
X128704761Y-112342857D01*
X128657142Y-112295238D01*
X128561904Y-112247619D01*
X128371428Y-112200000D01*
X128133333Y-112200000D01*
X127942857Y-112247619D01*
X127847619Y-112295238D01*
X127800000Y-112342857D01*
X127752380Y-112438095D01*
X128657142Y-113200000D02*
X128704761Y-113247619D01*
X128752380Y-113200000D01*
X128704761Y-113152380D01*
X128657142Y-113200000D01*
X128752380Y-113200000D01*
X128752380Y-114200000D02*
X128752380Y-113628571D01*
X128752380Y-113914285D02*
X127752380Y-113914285D01*
X127895238Y-113819047D01*
X127990476Y-113723809D01*
X128038095Y-113628571D01*
X126852380Y-105333333D02*
X126376190Y-105000000D01*
X126852380Y-104761904D02*
X125852380Y-104761904D01*
X125852380Y-105142857D01*
X125900000Y-105238095D01*
X125947619Y-105285714D01*
X126042857Y-105333333D01*
X126185714Y-105333333D01*
X126280952Y-105285714D01*
X126328571Y-105238095D01*
X126376190Y-105142857D01*
X126376190Y-104761904D01*
X126852380Y-106285714D02*
X126852380Y-105714285D01*
X126852380Y-106000000D02*
X125852380Y-106000000D01*
X125995238Y-105904761D01*
X126090476Y-105809523D01*
X126138095Y-105714285D01*
X125747619Y-110438095D02*
X125700000Y-110485714D01*
X125652380Y-110580952D01*
X125652380Y-110819047D01*
X125700000Y-110914285D01*
X125747619Y-110961904D01*
X125842857Y-111009523D01*
X125938095Y-111009523D01*
X126080952Y-110961904D01*
X126652380Y-110390476D01*
X126652380Y-111009523D01*
X126652380Y-111438095D02*
X125652380Y-111438095D01*
X126652380Y-112009523D02*
X126080952Y-111580952D01*
X125652380Y-112009523D02*
X126223809Y-111438095D01*
X125747619Y-112390476D02*
X125700000Y-112438095D01*
X125652380Y-112533333D01*
X125652380Y-112771428D01*
X125700000Y-112866666D01*
X125747619Y-112914285D01*
X125842857Y-112961904D01*
X125938095Y-112961904D01*
X126080952Y-112914285D01*
X126652380Y-112342857D01*
X126652380Y-112961904D01*
X135133333Y-126461904D02*
X135400000Y-126080952D01*
X135590476Y-126461904D02*
X135590476Y-125661904D01*
X135285714Y-125661904D01*
X135209523Y-125700000D01*
X135171428Y-125738095D01*
X135133333Y-125814285D01*
X135133333Y-125928571D01*
X135171428Y-126004761D01*
X135209523Y-126042857D01*
X135285714Y-126080952D01*
X135590476Y-126080952D01*
X134866666Y-125661904D02*
X134371428Y-125661904D01*
X134638095Y-125966666D01*
X134523809Y-125966666D01*
X134447619Y-126004761D01*
X134409523Y-126042857D01*
X134371428Y-126119047D01*
X134371428Y-126309523D01*
X134409523Y-126385714D01*
X134447619Y-126423809D01*
X134523809Y-126461904D01*
X134752380Y-126461904D01*
X134828571Y-126423809D01*
X134866666Y-126385714D01*
X136033333Y-130661904D02*
X136490476Y-130661904D01*
X136261904Y-130661904D02*
X136261904Y-129861904D01*
X136338095Y-129976190D01*
X136414285Y-130052380D01*
X136490476Y-130090476D01*
X135538095Y-129861904D02*
X135461904Y-129861904D01*
X135385714Y-129900000D01*
X135347619Y-129938095D01*
X135309523Y-130014285D01*
X135271428Y-130166666D01*
X135271428Y-130357142D01*
X135309523Y-130509523D01*
X135347619Y-130585714D01*
X135385714Y-130623809D01*
X135461904Y-130661904D01*
X135538095Y-130661904D01*
X135614285Y-130623809D01*
X135652380Y-130585714D01*
X135690476Y-130509523D01*
X135728571Y-130357142D01*
X135728571Y-130166666D01*
X135690476Y-130014285D01*
X135652380Y-129938095D01*
X135614285Y-129900000D01*
X135538095Y-129861904D01*
X134776190Y-129861904D02*
X134700000Y-129861904D01*
X134623809Y-129900000D01*
X134585714Y-129938095D01*
X134547619Y-130014285D01*
X134509523Y-130166666D01*
X134509523Y-130357142D01*
X134547619Y-130509523D01*
X134585714Y-130585714D01*
X134623809Y-130623809D01*
X134700000Y-130661904D01*
X134776190Y-130661904D01*
X134852380Y-130623809D01*
X134890476Y-130585714D01*
X134928571Y-130509523D01*
X134966666Y-130357142D01*
X134966666Y-130166666D01*
X134928571Y-130014285D01*
X134890476Y-129938095D01*
X134852380Y-129900000D01*
X134776190Y-129861904D01*
X134166666Y-130661904D02*
X134166666Y-129861904D01*
X133709523Y-130661904D02*
X134052380Y-130204761D01*
X133709523Y-129861904D02*
X134166666Y-130319047D01*
X126466666Y-126252380D02*
X126800000Y-125776190D01*
X127038095Y-126252380D02*
X127038095Y-125252380D01*
X126657142Y-125252380D01*
X126561904Y-125300000D01*
X126514285Y-125347619D01*
X126466666Y-125442857D01*
X126466666Y-125585714D01*
X126514285Y-125680952D01*
X126561904Y-125728571D01*
X126657142Y-125776190D01*
X127038095Y-125776190D01*
X125609523Y-125585714D02*
X125609523Y-126252380D01*
X125847619Y-125204761D02*
X126085714Y-125919047D01*
X125466666Y-125919047D01*
X127009523Y-129938095D02*
X126971428Y-129900000D01*
X126895238Y-129861904D01*
X126704761Y-129861904D01*
X126628571Y-129900000D01*
X126590476Y-129938095D01*
X126552380Y-130014285D01*
X126552380Y-130090476D01*
X126590476Y-130204761D01*
X127047619Y-130661904D01*
X126552380Y-130661904D01*
X126209523Y-130661904D02*
X126209523Y-129861904D01*
X125752380Y-130661904D02*
X126095238Y-130204761D01*
X125752380Y-129861904D02*
X126209523Y-130319047D01*
X125447619Y-129938095D02*
X125409523Y-129900000D01*
X125333333Y-129861904D01*
X125142857Y-129861904D01*
X125066666Y-129900000D01*
X125028571Y-129938095D01*
X124990476Y-130014285D01*
X124990476Y-130090476D01*
X125028571Y-130204761D01*
X125485714Y-130661904D01*
X124990476Y-130661904D01*
X132366666Y-126352380D02*
X132700000Y-125876190D01*
X132938095Y-126352380D02*
X132938095Y-125352380D01*
X132557142Y-125352380D01*
X132461904Y-125400000D01*
X132414285Y-125447619D01*
X132366666Y-125542857D01*
X132366666Y-125685714D01*
X132414285Y-125780952D01*
X132461904Y-125828571D01*
X132557142Y-125876190D01*
X132938095Y-125876190D01*
X131985714Y-125447619D02*
X131938095Y-125400000D01*
X131842857Y-125352380D01*
X131604761Y-125352380D01*
X131509523Y-125400000D01*
X131461904Y-125447619D01*
X131414285Y-125542857D01*
X131414285Y-125638095D01*
X131461904Y-125780952D01*
X132033333Y-126352380D01*
X131414285Y-126352380D01*
X132528571Y-130861904D02*
X132985714Y-130861904D01*
X132757142Y-130861904D02*
X132757142Y-130061904D01*
X132833333Y-130176190D01*
X132909523Y-130252380D01*
X132985714Y-130290476D01*
X132185714Y-130861904D02*
X132185714Y-130061904D01*
X131919047Y-130633333D01*
X131652380Y-130061904D01*
X131652380Y-130861904D01*
X139095238Y-126147619D02*
X139190476Y-126100000D01*
X139285714Y-126004761D01*
X139428571Y-125861904D01*
X139523809Y-125814285D01*
X139619047Y-125814285D01*
X139571428Y-126052380D02*
X139666666Y-126004761D01*
X139761904Y-125909523D01*
X139809523Y-125719047D01*
X139809523Y-125385714D01*
X139761904Y-125195238D01*
X139666666Y-125100000D01*
X139571428Y-125052380D01*
X139380952Y-125052380D01*
X139285714Y-125100000D01*
X139190476Y-125195238D01*
X139142857Y-125385714D01*
X139142857Y-125719047D01*
X139190476Y-125909523D01*
X139285714Y-126004761D01*
X139380952Y-126052380D01*
X139571428Y-126052380D01*
X138190476Y-126052380D02*
X138761904Y-126052380D01*
X138476190Y-126052380D02*
X138476190Y-125052380D01*
X138571428Y-125195238D01*
X138666666Y-125290476D01*
X138761904Y-125338095D01*
X140285714Y-130742857D02*
X140171428Y-130780952D01*
X140133333Y-130819047D01*
X140095238Y-130895238D01*
X140095238Y-131009523D01*
X140133333Y-131085714D01*
X140171428Y-131123809D01*
X140247619Y-131161904D01*
X140552380Y-131161904D01*
X140552380Y-130361904D01*
X140285714Y-130361904D01*
X140209523Y-130400000D01*
X140171428Y-130438095D01*
X140133333Y-130514285D01*
X140133333Y-130590476D01*
X140171428Y-130666666D01*
X140209523Y-130704761D01*
X140285714Y-130742857D01*
X140552380Y-130742857D01*
X139295238Y-131085714D02*
X139333333Y-131123809D01*
X139447619Y-131161904D01*
X139523809Y-131161904D01*
X139638095Y-131123809D01*
X139714285Y-131047619D01*
X139752380Y-130971428D01*
X139790476Y-130819047D01*
X139790476Y-130704761D01*
X139752380Y-130552380D01*
X139714285Y-130476190D01*
X139638095Y-130400000D01*
X139523809Y-130361904D01*
X139447619Y-130361904D01*
X139333333Y-130400000D01*
X139295238Y-130438095D01*
X138838095Y-130704761D02*
X138914285Y-130666666D01*
X138952380Y-130628571D01*
X138990476Y-130552380D01*
X138990476Y-130514285D01*
X138952380Y-130438095D01*
X138914285Y-130400000D01*
X138838095Y-130361904D01*
X138685714Y-130361904D01*
X138609523Y-130400000D01*
X138571428Y-130438095D01*
X138533333Y-130514285D01*
X138533333Y-130552380D01*
X138571428Y-130628571D01*
X138609523Y-130666666D01*
X138685714Y-130704761D01*
X138838095Y-130704761D01*
X138914285Y-130742857D01*
X138952380Y-130780952D01*
X138990476Y-130857142D01*
X138990476Y-131009523D01*
X138952380Y-131085714D01*
X138914285Y-131123809D01*
X138838095Y-131161904D01*
X138685714Y-131161904D01*
X138609523Y-131123809D01*
X138571428Y-131085714D01*
X138533333Y-131009523D01*
X138533333Y-130857142D01*
X138571428Y-130780952D01*
X138609523Y-130742857D01*
X138685714Y-130704761D01*
X137847619Y-130628571D02*
X137847619Y-131161904D01*
X138038095Y-130323809D02*
X138228571Y-130895238D01*
X137733333Y-130895238D01*
X137504761Y-130361904D02*
X136971428Y-130361904D01*
X137314285Y-131161904D01*
X147495238Y-120347619D02*
X147590476Y-120300000D01*
X147685714Y-120204761D01*
X147828571Y-120061904D01*
X147923809Y-120014285D01*
X148019047Y-120014285D01*
X147971428Y-120252380D02*
X148066666Y-120204761D01*
X148161904Y-120109523D01*
X148209523Y-119919047D01*
X148209523Y-119585714D01*
X148161904Y-119395238D01*
X148066666Y-119300000D01*
X147971428Y-119252380D01*
X147780952Y-119252380D01*
X147685714Y-119300000D01*
X147590476Y-119395238D01*
X147542857Y-119585714D01*
X147542857Y-119919047D01*
X147590476Y-120109523D01*
X147685714Y-120204761D01*
X147780952Y-120252380D01*
X147971428Y-120252380D01*
X147209523Y-119252380D02*
X146590476Y-119252380D01*
X146923809Y-119633333D01*
X146780952Y-119633333D01*
X146685714Y-119680952D01*
X146638095Y-119728571D01*
X146590476Y-119823809D01*
X146590476Y-120061904D01*
X146638095Y-120157142D01*
X146685714Y-120204761D01*
X146780952Y-120252380D01*
X147066666Y-120252380D01*
X147161904Y-120204761D01*
X147209523Y-120157142D01*
X149185714Y-121042857D02*
X149071428Y-121080952D01*
X149033333Y-121119047D01*
X148995238Y-121195238D01*
X148995238Y-121309523D01*
X149033333Y-121385714D01*
X149071428Y-121423809D01*
X149147619Y-121461904D01*
X149452380Y-121461904D01*
X149452380Y-120661904D01*
X149185714Y-120661904D01*
X149109523Y-120700000D01*
X149071428Y-120738095D01*
X149033333Y-120814285D01*
X149033333Y-120890476D01*
X149071428Y-120966666D01*
X149109523Y-121004761D01*
X149185714Y-121042857D01*
X149452380Y-121042857D01*
X148195238Y-121385714D02*
X148233333Y-121423809D01*
X148347619Y-121461904D01*
X148423809Y-121461904D01*
X148538095Y-121423809D01*
X148614285Y-121347619D01*
X148652380Y-121271428D01*
X148690476Y-121119047D01*
X148690476Y-121004761D01*
X148652380Y-120852380D01*
X148614285Y-120776190D01*
X148538095Y-120700000D01*
X148423809Y-120661904D01*
X148347619Y-120661904D01*
X148233333Y-120700000D01*
X148195238Y-120738095D01*
X147738095Y-121004761D02*
X147814285Y-120966666D01*
X147852380Y-120928571D01*
X147890476Y-120852380D01*
X147890476Y-120814285D01*
X147852380Y-120738095D01*
X147814285Y-120700000D01*
X147738095Y-120661904D01*
X147585714Y-120661904D01*
X147509523Y-120700000D01*
X147471428Y-120738095D01*
X147433333Y-120814285D01*
X147433333Y-120852380D01*
X147471428Y-120928571D01*
X147509523Y-120966666D01*
X147585714Y-121004761D01*
X147738095Y-121004761D01*
X147814285Y-121042857D01*
X147852380Y-121080952D01*
X147890476Y-121157142D01*
X147890476Y-121309523D01*
X147852380Y-121385714D01*
X147814285Y-121423809D01*
X147738095Y-121461904D01*
X147585714Y-121461904D01*
X147509523Y-121423809D01*
X147471428Y-121385714D01*
X147433333Y-121309523D01*
X147433333Y-121157142D01*
X147471428Y-121080952D01*
X147509523Y-121042857D01*
X147585714Y-121004761D01*
X146747619Y-120928571D02*
X146747619Y-121461904D01*
X146938095Y-120623809D02*
X147128571Y-121195238D01*
X146633333Y-121195238D01*
X146404761Y-120661904D02*
X145871428Y-120661904D01*
X146214285Y-121461904D01*
X149395238Y-131347619D02*
X149490476Y-131300000D01*
X149585714Y-131204761D01*
X149728571Y-131061904D01*
X149823809Y-131014285D01*
X149919047Y-131014285D01*
X149871428Y-131252380D02*
X149966666Y-131204761D01*
X150061904Y-131109523D01*
X150109523Y-130919047D01*
X150109523Y-130585714D01*
X150061904Y-130395238D01*
X149966666Y-130300000D01*
X149871428Y-130252380D01*
X149680952Y-130252380D01*
X149585714Y-130300000D01*
X149490476Y-130395238D01*
X149442857Y-130585714D01*
X149442857Y-130919047D01*
X149490476Y-131109523D01*
X149585714Y-131204761D01*
X149680952Y-131252380D01*
X149871428Y-131252380D01*
X149061904Y-130347619D02*
X149014285Y-130300000D01*
X148919047Y-130252380D01*
X148680952Y-130252380D01*
X148585714Y-130300000D01*
X148538095Y-130347619D01*
X148490476Y-130442857D01*
X148490476Y-130538095D01*
X148538095Y-130680952D01*
X149109523Y-131252380D01*
X148490476Y-131252380D01*
X147385714Y-130842857D02*
X147271428Y-130880952D01*
X147233333Y-130919047D01*
X147195238Y-130995238D01*
X147195238Y-131109523D01*
X147233333Y-131185714D01*
X147271428Y-131223809D01*
X147347619Y-131261904D01*
X147652380Y-131261904D01*
X147652380Y-130461904D01*
X147385714Y-130461904D01*
X147309523Y-130500000D01*
X147271428Y-130538095D01*
X147233333Y-130614285D01*
X147233333Y-130690476D01*
X147271428Y-130766666D01*
X147309523Y-130804761D01*
X147385714Y-130842857D01*
X147652380Y-130842857D01*
X146395238Y-131185714D02*
X146433333Y-131223809D01*
X146547619Y-131261904D01*
X146623809Y-131261904D01*
X146738095Y-131223809D01*
X146814285Y-131147619D01*
X146852380Y-131071428D01*
X146890476Y-130919047D01*
X146890476Y-130804761D01*
X146852380Y-130652380D01*
X146814285Y-130576190D01*
X146738095Y-130500000D01*
X146623809Y-130461904D01*
X146547619Y-130461904D01*
X146433333Y-130500000D01*
X146395238Y-130538095D01*
X145938095Y-130804761D02*
X146014285Y-130766666D01*
X146052380Y-130728571D01*
X146090476Y-130652380D01*
X146090476Y-130614285D01*
X146052380Y-130538095D01*
X146014285Y-130500000D01*
X145938095Y-130461904D01*
X145785714Y-130461904D01*
X145709523Y-130500000D01*
X145671428Y-130538095D01*
X145633333Y-130614285D01*
X145633333Y-130652380D01*
X145671428Y-130728571D01*
X145709523Y-130766666D01*
X145785714Y-130804761D01*
X145938095Y-130804761D01*
X146014285Y-130842857D01*
X146052380Y-130880952D01*
X146090476Y-130957142D01*
X146090476Y-131109523D01*
X146052380Y-131185714D01*
X146014285Y-131223809D01*
X145938095Y-131261904D01*
X145785714Y-131261904D01*
X145709523Y-131223809D01*
X145671428Y-131185714D01*
X145633333Y-131109523D01*
X145633333Y-130957142D01*
X145671428Y-130880952D01*
X145709523Y-130842857D01*
X145785714Y-130804761D01*
X144947619Y-130728571D02*
X144947619Y-131261904D01*
X145138095Y-130423809D02*
X145328571Y-130995238D01*
X144833333Y-130995238D01*
X144604761Y-130461904D02*
X144071428Y-130461904D01*
X144414285Y-131261904D01*
X129366666Y-126352380D02*
X129700000Y-125876190D01*
X129938095Y-126352380D02*
X129938095Y-125352380D01*
X129557142Y-125352380D01*
X129461904Y-125400000D01*
X129414285Y-125447619D01*
X129366666Y-125542857D01*
X129366666Y-125685714D01*
X129414285Y-125780952D01*
X129461904Y-125828571D01*
X129557142Y-125876190D01*
X129938095Y-125876190D01*
X128461904Y-125352380D02*
X128938095Y-125352380D01*
X128985714Y-125828571D01*
X128938095Y-125780952D01*
X128842857Y-125733333D01*
X128604761Y-125733333D01*
X128509523Y-125780952D01*
X128461904Y-125828571D01*
X128414285Y-125923809D01*
X128414285Y-126161904D01*
X128461904Y-126257142D01*
X128509523Y-126304761D01*
X128604761Y-126352380D01*
X128842857Y-126352380D01*
X128938095Y-126304761D01*
X128985714Y-126257142D01*
X130885714Y-131271428D02*
X131228571Y-131271428D01*
X131057142Y-131271428D02*
X131057142Y-130671428D01*
X131114285Y-130757142D01*
X131171428Y-130814285D01*
X131228571Y-130842857D01*
X130514285Y-130671428D02*
X130457142Y-130671428D01*
X130400000Y-130700000D01*
X130371428Y-130728571D01*
X130342857Y-130785714D01*
X130314285Y-130900000D01*
X130314285Y-131042857D01*
X130342857Y-131157142D01*
X130371428Y-131214285D01*
X130400000Y-131242857D01*
X130457142Y-131271428D01*
X130514285Y-131271428D01*
X130571428Y-131242857D01*
X130600000Y-131214285D01*
X130628571Y-131157142D01*
X130657142Y-131042857D01*
X130657142Y-130900000D01*
X130628571Y-130785714D01*
X130600000Y-130728571D01*
X130571428Y-130700000D01*
X130514285Y-130671428D01*
X130057142Y-131271428D02*
X130057142Y-130671428D01*
X129857142Y-131100000D01*
X129657142Y-130671428D01*
X129657142Y-131271428D01*
X129371428Y-131042857D02*
X128914285Y-131042857D01*
X128628571Y-131271428D02*
X128628571Y-130671428D01*
X128285714Y-131271428D01*
X128285714Y-130671428D01*
X128000000Y-131271428D02*
X128000000Y-130671428D01*
X127800000Y-131100000D01*
X127600000Y-130671428D01*
X127600000Y-131271428D01*
D13*
X145442571Y-92138000D02*
X145587714Y-92065428D01*
X145805428Y-92065428D01*
X146023142Y-92138000D01*
X146168285Y-92283142D01*
X146240857Y-92428285D01*
X146313428Y-92718571D01*
X146313428Y-92936285D01*
X146240857Y-93226571D01*
X146168285Y-93371714D01*
X146023142Y-93516857D01*
X145805428Y-93589428D01*
X145660285Y-93589428D01*
X145442571Y-93516857D01*
X145370000Y-93444285D01*
X145370000Y-92936285D01*
X145660285Y-92936285D01*
X144499142Y-92065428D02*
X144499142Y-92428285D01*
X144862000Y-92283142D02*
X144499142Y-92428285D01*
X144136285Y-92283142D01*
X144716857Y-92718571D02*
X144499142Y-92428285D01*
X144281428Y-92718571D01*
X143338000Y-92065428D02*
X143338000Y-92428285D01*
X143700857Y-92283142D02*
X143338000Y-92428285D01*
X142975142Y-92283142D01*
X143555714Y-92718571D02*
X143338000Y-92428285D01*
X143120285Y-92718571D01*
X142176857Y-92065428D02*
X142176857Y-92428285D01*
X142539714Y-92283142D02*
X142176857Y-92428285D01*
X141814000Y-92283142D01*
X142394571Y-92718571D02*
X142176857Y-92428285D01*
X141959142Y-92718571D01*
D14*
X150600000Y-102900000D02*
X150600000Y-83100000D01*
X150600000Y-102900000D02*
X144000000Y-102900000D01*
X135900000Y-102850000D02*
X141050000Y-102850000D01*
X150600000Y-83050000D02*
X135900000Y-83050000D01*
X135900000Y-83050000D02*
X135900000Y-102850000D01*
X119700000Y-83200000D02*
X119700000Y-103000000D01*
X135300000Y-103000000D02*
X135300000Y-83200000D01*
X135300000Y-83200000D02*
X119700000Y-83200000D01*
X135300000Y-103000000D02*
X128700000Y-103000000D01*
X126300000Y-103000000D02*
X119700000Y-103000000D01*
D10*
X142200000Y-116875000D02*
X142200000Y-118400000D01*
X131925000Y-116875000D02*
X132280000Y-116875000D01*
X142475000Y-116875000D02*
X142200000Y-116875000D01*
X142475000Y-111325000D02*
X142120000Y-111325000D01*
X131925000Y-111325000D02*
X132280000Y-111325000D01*
X131925000Y-116875000D02*
X131925000Y-111325000D01*
X142475000Y-116875000D02*
X142475000Y-111325000D01*
D14*
X129135000Y-109838748D02*
X129135000Y-110361252D01*
X127665000Y-109838748D02*
X127665000Y-110361252D01*
X125465000Y-108427064D02*
X125465000Y-107972936D01*
X126935000Y-108427064D02*
X126935000Y-107972936D01*
X135835000Y-127872936D02*
X135835000Y-128327064D01*
X134365000Y-127872936D02*
X134365000Y-128327064D01*
X125565000Y-127772936D02*
X125565000Y-128227064D01*
X127035000Y-127772936D02*
X127035000Y-128227064D01*
X131465000Y-127872936D02*
X131465000Y-128327064D01*
X132935000Y-127872936D02*
X132935000Y-128327064D01*
X140260000Y-128300000D02*
X140260000Y-128950000D01*
X137140000Y-128300000D02*
X137140000Y-128950000D01*
X137140000Y-128300000D02*
X137140000Y-126625000D01*
X140260000Y-128300000D02*
X140260000Y-127650000D01*
X149160000Y-123500000D02*
X149160000Y-124150000D01*
X149160000Y-123500000D02*
X149160000Y-122850000D01*
X146040000Y-123500000D02*
X146040000Y-124150000D01*
X146040000Y-123500000D02*
X146040000Y-121825000D01*
X146040000Y-128300000D02*
X146040000Y-126625000D01*
X149160000Y-128300000D02*
X149160000Y-127650000D01*
X146040000Y-128300000D02*
X146040000Y-128950000D01*
X149160000Y-128300000D02*
X149160000Y-128950000D01*
X128665000Y-127872936D02*
X128665000Y-128327064D01*
X130135000Y-127872936D02*
X130135000Y-128327064D01*
G36*
X148586658Y-90975005D02*
G01*
X148605846Y-90979406D01*
X148698869Y-91019758D01*
X148769933Y-91082633D01*
X148818015Y-91161432D01*
X148842092Y-91249559D01*
X148841141Y-91340417D01*
X148814139Y-91427409D01*
X148760063Y-91503937D01*
X148677890Y-91563405D01*
X148575616Y-91599102D01*
X148476827Y-91598881D01*
X148376355Y-91562415D01*
X148337769Y-91537357D01*
X148270940Y-91467376D01*
X148225217Y-91381663D01*
X148208272Y-91292533D01*
X148215205Y-91228828D01*
X148251714Y-91136320D01*
X148313721Y-91059138D01*
X148394619Y-91002829D01*
X148487801Y-90972936D01*
X148586658Y-90975005D01*
G37*
G36*
X139880238Y-94402109D02*
G01*
X139959662Y-94443370D01*
X140005321Y-94486036D01*
X140056841Y-94569551D01*
X140078880Y-94662609D01*
X140072364Y-94757943D01*
X140038216Y-94848286D01*
X139977364Y-94926372D01*
X139890730Y-94984932D01*
X139818965Y-95008547D01*
X139722001Y-95011539D01*
X139631723Y-94984492D01*
X139553867Y-94931648D01*
X139494170Y-94857247D01*
X139458369Y-94765531D01*
X139452202Y-94660741D01*
X139471764Y-94571940D01*
X139519446Y-94492116D01*
X139599509Y-94422544D01*
X139612993Y-94414162D01*
X139693800Y-94386747D01*
X139787250Y-94382982D01*
X139880238Y-94402109D01*
G37*
G36*
X142819682Y-87989954D02*
G01*
X147204653Y-87995592D01*
X147384310Y-88036957D01*
X147545328Y-88077562D01*
X147848364Y-88176373D01*
X148127356Y-88300167D01*
X148386919Y-88451464D01*
X148631664Y-88632784D01*
X148866204Y-88846647D01*
X148915704Y-88897174D01*
X149131547Y-89146584D01*
X149312859Y-89409493D01*
X149460395Y-89687496D01*
X149574910Y-89982194D01*
X149657159Y-90295182D01*
X149707898Y-90628061D01*
X149711430Y-90668224D01*
X149717724Y-90777060D01*
X149722379Y-90911447D01*
X149725389Y-91063506D01*
X149726750Y-91225360D01*
X149726457Y-91389127D01*
X149724505Y-91546930D01*
X149720891Y-91690890D01*
X149715608Y-91813126D01*
X149708654Y-91905761D01*
X149688857Y-92059961D01*
X149621290Y-92384325D01*
X149521231Y-92693996D01*
X149390266Y-92986963D01*
X149229982Y-93261215D01*
X149041965Y-93514738D01*
X148827801Y-93745522D01*
X148589076Y-93951554D01*
X148327376Y-94130822D01*
X148044287Y-94281314D01*
X147741397Y-94401019D01*
X147688474Y-94418279D01*
X147511962Y-94470066D01*
X147347409Y-94507340D01*
X147178662Y-94533330D01*
X146989568Y-94551264D01*
X146961110Y-94552855D01*
X146883803Y-94555429D01*
X146772927Y-94557784D01*
X146630981Y-94559915D01*
X146460467Y-94561822D01*
X146263883Y-94563500D01*
X146043729Y-94564948D01*
X145802505Y-94566162D01*
X145542712Y-94567140D01*
X145266848Y-94567879D01*
X144977413Y-94568377D01*
X144676908Y-94568630D01*
X144367832Y-94568636D01*
X144052685Y-94568393D01*
X143733967Y-94567896D01*
X143414178Y-94567145D01*
X143095817Y-94566136D01*
X142781385Y-94564866D01*
X142473381Y-94563332D01*
X142174304Y-94561533D01*
X141886656Y-94559465D01*
X141612935Y-94557125D01*
X140279563Y-94544706D01*
X140226360Y-94443090D01*
X140159434Y-94346683D01*
X140064036Y-94261496D01*
X139952285Y-94199768D01*
X139832295Y-94165898D01*
X139712180Y-94164287D01*
X139630869Y-94181064D01*
X139507385Y-94232120D01*
X139404937Y-94307116D01*
X139325144Y-94401073D01*
X139269627Y-94509015D01*
X139240004Y-94625963D01*
X139237896Y-94746941D01*
X139264920Y-94866971D01*
X139322698Y-94981075D01*
X139412848Y-95084276D01*
X139416490Y-95087529D01*
X139532639Y-95169054D01*
X139656859Y-95214193D01*
X139790477Y-95223232D01*
X139934819Y-95196455D01*
X139981162Y-95178471D01*
X140069033Y-95124701D01*
X140150769Y-95052508D01*
X140216371Y-94971408D01*
X140255843Y-94890916D01*
X140279286Y-94812672D01*
X143741969Y-94818315D01*
X147204653Y-94823959D01*
X147384310Y-94865321D01*
X147648198Y-94935497D01*
X147939622Y-95039720D01*
X148207931Y-95168331D01*
X148458061Y-95324098D01*
X148694949Y-95509788D01*
X148923533Y-95728169D01*
X149122298Y-95958467D01*
X149304809Y-96224414D01*
X149455249Y-96508960D01*
X149573174Y-96810959D01*
X149658143Y-97129267D01*
X149709713Y-97462738D01*
X149727444Y-97810229D01*
X149727769Y-97983752D01*
X145483493Y-97983598D01*
X145279436Y-97983578D01*
X144775623Y-97983408D01*
X144301172Y-97983070D01*
X143856667Y-97982568D01*
X143442690Y-97981904D01*
X143059823Y-97981080D01*
X142708649Y-97980098D01*
X142389751Y-97978962D01*
X142103711Y-97977674D01*
X141851111Y-97976236D01*
X141632534Y-97974651D01*
X141448563Y-97972921D01*
X141299779Y-97971049D01*
X141186767Y-97969037D01*
X141110107Y-97966887D01*
X141070384Y-97964604D01*
X141014448Y-97957998D01*
X140753663Y-97915724D01*
X140512423Y-97855033D01*
X140278008Y-97772217D01*
X140037695Y-97663568D01*
X140012464Y-97650887D01*
X139736816Y-97489945D01*
X139482368Y-97299724D01*
X139251032Y-97082984D01*
X139044719Y-96842484D01*
X138865342Y-96580984D01*
X138714814Y-96301243D01*
X138595047Y-96006021D01*
X138507952Y-95698078D01*
X138455442Y-95380173D01*
X138453189Y-95356893D01*
X138446700Y-95258387D01*
X138441664Y-95132101D01*
X138438087Y-94985287D01*
X138435974Y-94825198D01*
X138435331Y-94659085D01*
X138436164Y-94494200D01*
X138438478Y-94337796D01*
X138442278Y-94197125D01*
X138447571Y-94079437D01*
X138454362Y-93991986D01*
X138472899Y-93852501D01*
X138539976Y-93541478D01*
X138639721Y-93242909D01*
X138770013Y-92958965D01*
X138928729Y-92691818D01*
X139113750Y-92443639D01*
X139322953Y-92216600D01*
X139554217Y-92012871D01*
X139805421Y-91834624D01*
X140074444Y-91684031D01*
X140359163Y-91563263D01*
X140657459Y-91474491D01*
X140967208Y-91419888D01*
X140981067Y-91418766D01*
X141037204Y-91416429D01*
X141129024Y-91414115D01*
X141255285Y-91411832D01*
X141414745Y-91409592D01*
X141606163Y-91407404D01*
X141828295Y-91405277D01*
X142079899Y-91403221D01*
X142359735Y-91401247D01*
X142666559Y-91399363D01*
X142999130Y-91397580D01*
X143356205Y-91395907D01*
X143736543Y-91394355D01*
X144138901Y-91392932D01*
X144562038Y-91391648D01*
X147997414Y-91382049D01*
X148030728Y-91469282D01*
X148057508Y-91524849D01*
X148122866Y-91617345D01*
X148204882Y-91700679D01*
X148291845Y-91761733D01*
X148320648Y-91775576D01*
X148372384Y-91791719D01*
X148437184Y-91799878D01*
X148527178Y-91802135D01*
X148548832Y-91801975D01*
X148659801Y-91793350D01*
X148748543Y-91768184D01*
X148826729Y-91721772D01*
X148906027Y-91649411D01*
X148974001Y-91562765D01*
X149028850Y-91444745D01*
X149052060Y-91320390D01*
X149044775Y-91195323D01*
X149008137Y-91075168D01*
X148943289Y-90965547D01*
X148851372Y-90872085D01*
X148733530Y-90800404D01*
X148668217Y-90777723D01*
X148547832Y-90761300D01*
X148424031Y-90770682D01*
X148311447Y-90805687D01*
X148228922Y-90856383D01*
X148147647Y-90928055D01*
X148080344Y-91008784D01*
X148037650Y-91087615D01*
X148012608Y-91156869D01*
X144522737Y-91150075D01*
X144346946Y-91149729D01*
X143933678Y-91148886D01*
X143555623Y-91148055D01*
X143211134Y-91147220D01*
X142898565Y-91146362D01*
X142616270Y-91145465D01*
X142362603Y-91144512D01*
X142135917Y-91143484D01*
X141934566Y-91142364D01*
X141756903Y-91141136D01*
X141601283Y-91139781D01*
X141466058Y-91138283D01*
X141349584Y-91136624D01*
X141250213Y-91134786D01*
X141166299Y-91132753D01*
X141096195Y-91130507D01*
X141038257Y-91128030D01*
X140990837Y-91125305D01*
X140952288Y-91122316D01*
X140920965Y-91119043D01*
X140895222Y-91115471D01*
X140873412Y-91111581D01*
X140852558Y-91107386D01*
X140539009Y-91030684D01*
X140252720Y-90932713D01*
X139988588Y-90810796D01*
X139741510Y-90662257D01*
X139506385Y-90484418D01*
X139278111Y-90274602D01*
X139259814Y-90256134D01*
X139044000Y-90010291D01*
X138860162Y-89745229D01*
X138708714Y-89461975D01*
X138590066Y-89161557D01*
X138504630Y-88845004D01*
X138452816Y-88513342D01*
X138435037Y-88167601D01*
X138434712Y-87984315D01*
X142819682Y-87989954D01*
G37*
M02*
