G04 #@! TF.FileFunction,Paste,Bot*
%FSLAX46Y46*%
G04 Gerber Fmt 4.6, Leading zero omitted, Abs format (unit mm)*
G04 Created by KiCad (PCBNEW (after 2015-mar-04 BZR unknown)-product) date 4/3/2016 5:34:25 PM*
%MOMM*%
G01*
G04 APERTURE LIST*
%ADD10C,0.100000*%
%ADD11R,0.400000X1.350000*%
%ADD12R,2.000000X2.000000*%
%ADD13R,0.500000X2.000000*%
%ADD14R,1.000000X0.700000*%
%ADD15R,1.200000X0.700000*%
%ADD16R,1.800000X1.400000*%
%ADD17R,1.400000X1.800000*%
%ADD18R,1.600000X1.800000*%
%ADD19R,0.700000X1.300000*%
%ADD20R,1.500000X3.657600*%
%ADD21R,2.032000X1.016000*%
%ADD22R,1.000000X0.900000*%
%ADD23R,1.250000X0.800000*%
%ADD24R,1.800860X1.500000*%
%ADD25C,0.100000*%
%ADD26R,1.250000X0.750000*%
%ADD27R,1.500000X0.800000*%
%ADD28R,1.700000X0.900000*%
%ADD29R,1.300000X0.700000*%
%ADD30R,1.250000X1.000000*%
%ADD31R,1.000000X1.250000*%
%ADD32R,0.550000X1.600000*%
%ADD33R,1.600000X0.550000*%
%ADD34R,1.500000X0.600000*%
%ADD35O,2.400000X1.100000*%
%ADD36R,1.100000X2.400000*%
%ADD37O,1.100000X2.400000*%
G04 APERTURE END LIST*
D10*
D11*
X153350380Y-76865040D03*
X150750380Y-76865040D03*
D12*
X155550380Y-79565040D03*
X148550380Y-79565040D03*
D13*
X147089500Y-62222380D03*
X145887440Y-62222380D03*
X144688560Y-62222380D03*
D14*
X150771860Y-50190400D03*
D15*
X148513800Y-50170080D03*
D16*
X176563070Y-78869320D03*
X185767930Y-78864680D03*
D17*
X154459720Y-67734130D03*
D18*
X154455080Y-58529270D03*
D19*
X144980620Y-59596020D03*
X146880620Y-59596020D03*
D20*
X155407360Y-71973440D03*
D21*
X148803360Y-71973440D03*
X148803360Y-69687440D03*
X148803360Y-74259440D03*
D22*
X150929340Y-51521360D03*
X148650960Y-51559460D03*
X150916640Y-52892960D03*
X148681440Y-52880260D03*
X150855680Y-54221380D03*
X148744940Y-54223920D03*
D23*
X150677880Y-39416480D03*
X150677880Y-41416480D03*
D24*
X180327300Y-52290980D03*
X180327300Y-48293020D03*
X180268880Y-45808900D03*
X180268880Y-41810940D03*
X180296820Y-32621220D03*
X180296820Y-28623260D03*
X180299360Y-39286180D03*
X180299360Y-35288220D03*
D25*
X157962600Y-35318700D03*
X157962600Y-63258700D03*
D26*
X157403800Y-39132000D03*
X157403800Y-41132000D03*
D27*
X156870400Y-52639300D03*
X156870400Y-55539300D03*
D28*
X142440660Y-42415120D03*
X142440660Y-39515120D03*
D29*
X148884640Y-41325840D03*
X148884640Y-39425840D03*
D30*
X166969440Y-39294560D03*
X166969440Y-41294560D03*
X136855200Y-40473120D03*
X136855200Y-42473120D03*
X172892720Y-31286960D03*
X172892720Y-29286960D03*
X149311360Y-43521120D03*
X149311360Y-45521120D03*
X172725080Y-38020500D03*
X172725080Y-36020500D03*
X172783500Y-44700700D03*
X172783500Y-42700700D03*
X172808900Y-50369980D03*
X172808900Y-48369980D03*
X157700000Y-79900000D03*
X157700000Y-77900000D03*
X174208440Y-79912720D03*
X174208440Y-77912720D03*
X142443200Y-67173600D03*
X142443200Y-69173600D03*
D31*
X152043640Y-61328300D03*
X150043640Y-61328300D03*
D32*
X152507600Y-56548600D03*
X151707600Y-56548600D03*
X150907600Y-56548600D03*
X150107600Y-56548600D03*
X149307600Y-56548600D03*
X148507600Y-56548600D03*
X147707600Y-56548600D03*
X146907600Y-56548600D03*
D33*
X145457600Y-55098600D03*
X145457600Y-54298600D03*
X145457600Y-53498600D03*
X145457600Y-52698600D03*
X145457600Y-51898600D03*
X145457600Y-51098600D03*
X145457600Y-50298600D03*
X145457600Y-49498600D03*
D32*
X146907600Y-48048600D03*
X147707600Y-48048600D03*
X148507600Y-48048600D03*
X149307600Y-48048600D03*
X150107600Y-48048600D03*
X150907600Y-48048600D03*
X151707600Y-48048600D03*
X152507600Y-48048600D03*
D33*
X153957600Y-49498600D03*
X153957600Y-50298600D03*
X153957600Y-51098600D03*
X153957600Y-51898600D03*
X153957600Y-52698600D03*
X153957600Y-53498600D03*
X153957600Y-54298600D03*
X153957600Y-55098600D03*
D19*
X143113720Y-37398960D03*
X145013720Y-37398960D03*
X163154400Y-37388800D03*
X161254400Y-37388800D03*
X157769600Y-37363400D03*
X155869600Y-37363400D03*
X148442720Y-37414200D03*
X146542720Y-37414200D03*
D29*
X140500000Y-36150000D03*
X140500000Y-38050000D03*
X164922200Y-37073800D03*
X164922200Y-38973800D03*
X159512000Y-37048400D03*
X159512000Y-38948400D03*
D19*
X150027600Y-37409120D03*
X151927600Y-37409120D03*
D29*
X138600000Y-36150000D03*
X138600000Y-38050000D03*
D19*
X168513800Y-37414200D03*
X166613800Y-37414200D03*
D29*
X155346400Y-41132800D03*
X155346400Y-39232800D03*
X136100000Y-38950000D03*
X136100000Y-37050000D03*
X165049200Y-57109400D03*
X165049200Y-55209400D03*
D19*
X169687280Y-78440280D03*
X167787280Y-78440280D03*
D29*
X156098240Y-67609680D03*
X156098240Y-69509680D03*
D19*
X164597040Y-52486560D03*
X166497040Y-52486560D03*
X166872880Y-54599840D03*
X168772880Y-54599840D03*
X166852560Y-56652160D03*
X168752560Y-56652160D03*
D34*
X141942800Y-45288200D03*
X141942800Y-46558200D03*
X141942800Y-47828200D03*
X141942800Y-49098200D03*
X141942800Y-50368200D03*
X141942800Y-51638200D03*
X141942800Y-52908200D03*
X141942800Y-54178200D03*
X136542800Y-54178200D03*
X136542800Y-52908200D03*
X136542800Y-51638200D03*
X136542800Y-50368200D03*
X136542800Y-49098200D03*
X136542800Y-47828200D03*
X136542800Y-46558200D03*
X136542800Y-45288200D03*
D35*
X158405100Y-72397200D03*
X158405100Y-70397200D03*
X158405100Y-68397200D03*
X158405100Y-66397200D03*
X158405100Y-64397200D03*
X158405100Y-62397200D03*
D36*
X174155100Y-75387200D03*
D37*
X172155100Y-75387200D03*
X170155100Y-75387200D03*
X168155100Y-75387200D03*
X166155100Y-75387200D03*
X164155100Y-75387200D03*
X162155100Y-75387200D03*
X160155100Y-75387200D03*
X160155100Y-59387200D03*
X162155100Y-59387200D03*
X164155100Y-59387200D03*
X166155100Y-59387200D03*
X168155100Y-59387200D03*
X170155100Y-59387200D03*
X172155100Y-59387200D03*
X174155100Y-59387200D03*
D28*
X162636200Y-42064600D03*
X162636200Y-39164600D03*
X153192480Y-42125560D03*
X153192480Y-39225560D03*
X146532600Y-42338920D03*
X146532600Y-39438920D03*
D29*
X146466560Y-43896240D03*
X146466560Y-45796240D03*
D28*
X139369800Y-39606560D03*
X139369800Y-42506560D03*
D29*
X176377600Y-78166000D03*
X176377600Y-76266000D03*
X142438120Y-57891640D03*
X142438120Y-59791640D03*
D28*
X185440320Y-37802480D03*
X185440320Y-34902480D03*
X185270140Y-43136480D03*
X185270140Y-40236480D03*
X185318400Y-49151200D03*
X185318400Y-46251200D03*
X185326020Y-55458020D03*
X185326020Y-52558020D03*
D19*
X187850000Y-71100000D03*
X185950000Y-71100000D03*
X185950000Y-73100000D03*
X187850000Y-73100000D03*
X185950000Y-69200000D03*
X187850000Y-69200000D03*
D29*
X136600000Y-69050000D03*
X136600000Y-67150000D03*
M02*
