G04 #@! TF.FileFunction,Copper,L2,Bot,Signal*
%FSLAX46Y46*%
G04 Gerber Fmt 4.6, Leading zero omitted, Abs format (unit mm)*
G04 Created by KiCad (PCBNEW (after 2015-mar-04 BZR unknown)-product) date 4/3/2016 5:34:25 PM*
%MOMM*%
G01*
G04 APERTURE LIST*
%ADD10C,0.100000*%
%ADD11C,0.300000*%
%ADD12C,1.700000*%
%ADD13C,2.000000*%
%ADD14C,2.032000*%
%ADD15O,1.727200X2.032000*%
%ADD16O,2.000000X3.000000*%
%ADD17O,3.500000X2.000000*%
%ADD18C,3.200000*%
%ADD19C,2.999740*%
%ADD20C,1.500000*%
%ADD21O,2.000000X1.500000*%
%ADD22R,0.400000X1.350000*%
%ADD23C,1.200000*%
%ADD24R,2.000000X2.000000*%
%ADD25R,0.500000X2.000000*%
%ADD26O,2.032000X2.032000*%
%ADD27R,1.000000X0.700000*%
%ADD28R,1.200000X0.700000*%
%ADD29R,1.800000X1.400000*%
%ADD30R,1.400000X1.800000*%
%ADD31R,1.600000X1.800000*%
%ADD32R,0.700000X1.300000*%
%ADD33R,1.500000X3.657600*%
%ADD34R,2.032000X1.016000*%
%ADD35R,1.000000X0.900000*%
%ADD36C,3.500000*%
%ADD37R,1.250000X0.800000*%
%ADD38R,3.000000X3.000000*%
%ADD39C,3.000000*%
%ADD40R,1.800860X1.500000*%
%ADD41O,1.600000X1.600000*%
%ADD42C,1.998980*%
%ADD43O,1.500000X2.000000*%
%ADD44R,2.032000X1.727200*%
%ADD45O,2.032000X1.727200*%
%ADD46R,2.000000X1.700000*%
%ADD47R,1.727200X2.032000*%
%ADD48C,5.000000*%
%ADD49C,0.100000*%
%ADD50R,1.250000X0.750000*%
%ADD51R,1.500000X0.800000*%
%ADD52R,1.700000X0.900000*%
%ADD53R,1.300000X0.700000*%
%ADD54R,1.250000X1.000000*%
%ADD55R,1.000000X1.250000*%
%ADD56R,0.550000X1.600000*%
%ADD57R,1.600000X0.550000*%
%ADD58R,1.500000X0.600000*%
%ADD59O,2.400000X1.100000*%
%ADD60R,1.100000X2.400000*%
%ADD61O,1.100000X2.400000*%
%ADD62C,0.500000*%
%ADD63C,2.000000*%
%ADD64C,1.000000*%
%ADD65C,0.250000*%
%ADD66C,0.254000*%
G04 APERTURE END LIST*
D10*
D11*
X121300000Y-79878571D02*
X121300000Y-78378571D01*
X120300000Y-78378571D02*
X120014286Y-78378571D01*
X119871428Y-78450000D01*
X119728571Y-78592857D01*
X119657143Y-78878571D01*
X119657143Y-79378571D01*
X119728571Y-79664286D01*
X119871428Y-79807143D01*
X120014286Y-79878571D01*
X120300000Y-79878571D01*
X120442857Y-79807143D01*
X120585714Y-79664286D01*
X120657143Y-79378571D01*
X120657143Y-78878571D01*
X120585714Y-78592857D01*
X120442857Y-78450000D01*
X120300000Y-78378571D01*
X119228571Y-78378571D02*
X118371428Y-78378571D01*
X118799999Y-79878571D02*
X118799999Y-78378571D01*
X116728571Y-79878571D02*
X116728571Y-78378571D01*
X116157143Y-78378571D01*
X116014285Y-78450000D01*
X115942857Y-78521429D01*
X115871428Y-78664286D01*
X115871428Y-78878571D01*
X115942857Y-79021429D01*
X116014285Y-79092857D01*
X116157143Y-79164286D01*
X116728571Y-79164286D01*
X115371428Y-78378571D02*
X115014285Y-79878571D01*
X114728571Y-78807143D01*
X114442857Y-79878571D01*
X114085714Y-78378571D01*
X112657142Y-79878571D02*
X113157142Y-79164286D01*
X113514285Y-79878571D02*
X113514285Y-78378571D01*
X112942857Y-78378571D01*
X112799999Y-78450000D01*
X112728571Y-78521429D01*
X112657142Y-78664286D01*
X112657142Y-78878571D01*
X112728571Y-79021429D01*
X112799999Y-79092857D01*
X112942857Y-79164286D01*
X113514285Y-79164286D01*
X112085714Y-78521429D02*
X112014285Y-78450000D01*
X111871428Y-78378571D01*
X111514285Y-78378571D01*
X111371428Y-78450000D01*
X111299999Y-78521429D01*
X111228571Y-78664286D01*
X111228571Y-78807143D01*
X111299999Y-79021429D01*
X112157142Y-79878571D01*
X111228571Y-79878571D01*
D12*
X136611360Y-63568580D03*
X136611360Y-65666620D03*
D13*
X145389600Y-72847200D03*
X145389600Y-75347200D03*
X137833100Y-72771000D03*
X137833100Y-75271000D03*
D14*
X161823400Y-34569400D03*
X159283400Y-34569400D03*
X156743400Y-34569400D03*
X154203400Y-34569400D03*
X151663400Y-34569400D03*
X149123400Y-34569400D03*
X146583400Y-34569400D03*
D15*
X144043400Y-34569400D03*
D16*
X170480000Y-31340000D03*
D17*
X165527000Y-31340000D03*
X160447000Y-31340000D03*
X155494000Y-31340000D03*
X150414000Y-31340000D03*
X145461000Y-31340000D03*
X140508000Y-31340000D03*
D16*
X135428000Y-31340000D03*
D18*
X169387520Y-34706560D03*
D19*
X108860000Y-44940000D03*
X108860000Y-39987000D03*
X108960000Y-67480000D03*
X108960000Y-62527000D03*
X108960000Y-57447000D03*
D20*
X139923520Y-59679840D03*
X139923520Y-57139840D03*
X139923520Y-54599840D03*
X139923520Y-52059840D03*
X139923520Y-49519840D03*
X139923520Y-46979840D03*
X139923520Y-44439840D03*
D12*
X168752520Y-40104060D03*
D13*
X172684440Y-40126920D03*
D21*
X142382240Y-63654940D03*
X142382240Y-61556900D03*
X171861480Y-79938880D03*
X171861480Y-77840840D03*
D22*
X153350380Y-76865040D03*
X150750380Y-76865040D03*
D23*
X154550380Y-76865040D03*
X149550380Y-76865040D03*
D24*
X155550380Y-79565040D03*
X148550380Y-79565040D03*
D25*
X147089500Y-62222380D03*
X145887440Y-62222380D03*
X144688560Y-62222380D03*
D26*
X160500000Y-53900000D03*
X163040000Y-53900000D03*
D27*
X150771860Y-50190400D03*
D28*
X148513800Y-50170080D03*
D29*
X176563070Y-78869320D03*
X185767930Y-78864680D03*
D30*
X154459720Y-67734130D03*
D31*
X154455080Y-58529270D03*
D32*
X144980620Y-59596020D03*
X146880620Y-59596020D03*
D33*
X155407360Y-71973440D03*
D34*
X148803360Y-71973440D03*
X148803360Y-69687440D03*
X148803360Y-74259440D03*
D35*
X150929340Y-51521360D03*
X148650960Y-51559460D03*
X150916640Y-52892960D03*
X148681440Y-52880260D03*
X150855680Y-54221380D03*
X148744940Y-54223920D03*
D18*
X128800000Y-77800000D03*
X129000000Y-30800000D03*
D36*
X108966000Y-40005000D03*
X108889800Y-47523400D03*
X108966000Y-55016400D03*
X108966000Y-62509400D03*
X108966000Y-70027800D03*
D13*
X149999700Y-63017400D03*
X144901920Y-69631560D03*
X150053040Y-59542680D03*
X156789120Y-57591960D03*
D37*
X150677880Y-39416480D03*
X150677880Y-41416480D03*
D38*
X111937800Y-30505400D03*
D13*
X138800000Y-65300000D03*
D24*
X138800000Y-68800000D03*
D39*
X184647840Y-29260800D03*
D40*
X180327300Y-52290980D03*
X180327300Y-48293020D03*
X180268880Y-45808900D03*
X180268880Y-41810940D03*
D41*
X182420260Y-31656020D03*
X182420260Y-29116020D03*
X174800260Y-29116020D03*
X174800260Y-31656020D03*
D40*
X180296820Y-32621220D03*
X180296820Y-28623260D03*
X180299360Y-39286180D03*
X180299360Y-35288220D03*
D13*
X160300000Y-46700000D03*
D26*
X163000000Y-56400000D03*
X160460000Y-56400000D03*
D14*
X160400000Y-49100000D03*
D26*
X162940000Y-49100000D03*
D13*
X144414240Y-47685960D03*
D26*
X163000000Y-51500000D03*
X160460000Y-51500000D03*
D42*
X169705080Y-47335540D03*
X169700000Y-42380000D03*
X167394920Y-48273540D03*
X167400000Y-44080000D03*
X165227940Y-49061680D03*
X165200000Y-45780000D03*
D43*
X192519300Y-61569600D03*
X192519300Y-64109600D03*
X192519300Y-66649600D03*
X192519300Y-69189600D03*
X192519300Y-71729600D03*
D44*
X189847220Y-76748640D03*
D45*
X189847220Y-74208640D03*
X189847220Y-71668640D03*
X189847220Y-69128640D03*
X189847220Y-66588640D03*
X189847220Y-64048640D03*
X189847220Y-61508640D03*
D46*
X160012380Y-78762860D03*
D13*
X162552380Y-78762860D03*
X165092380Y-78762860D03*
D47*
X144617440Y-77645260D03*
D15*
X142077440Y-77645260D03*
X139537440Y-77645260D03*
X136997440Y-77645260D03*
D48*
X188442600Y-30238700D03*
X182092600Y-78498700D03*
D49*
X157962600Y-35318700D03*
X157962600Y-63258700D03*
D48*
X107162600Y-78498700D03*
X105892600Y-30238700D03*
D50*
X157403800Y-39132000D03*
X157403800Y-41132000D03*
D19*
X189052200Y-35623500D03*
X189052200Y-40576500D03*
X189052200Y-45656500D03*
X189052200Y-50609500D03*
X189052200Y-55689500D03*
D51*
X156870400Y-52639300D03*
X156870400Y-55539300D03*
D52*
X142440660Y-42415120D03*
X142440660Y-39515120D03*
D53*
X148884640Y-41325840D03*
X148884640Y-39425840D03*
D54*
X166969440Y-39294560D03*
X166969440Y-41294560D03*
X136855200Y-40473120D03*
X136855200Y-42473120D03*
X172892720Y-31286960D03*
X172892720Y-29286960D03*
X149311360Y-43521120D03*
X149311360Y-45521120D03*
X172725080Y-38020500D03*
X172725080Y-36020500D03*
X172783500Y-44700700D03*
X172783500Y-42700700D03*
X172808900Y-50369980D03*
X172808900Y-48369980D03*
X157700000Y-79900000D03*
X157700000Y-77900000D03*
X174208440Y-79912720D03*
X174208440Y-77912720D03*
X142443200Y-67173600D03*
X142443200Y-69173600D03*
D55*
X152043640Y-61328300D03*
X150043640Y-61328300D03*
D56*
X152507600Y-56548600D03*
X151707600Y-56548600D03*
X150907600Y-56548600D03*
X150107600Y-56548600D03*
X149307600Y-56548600D03*
X148507600Y-56548600D03*
X147707600Y-56548600D03*
X146907600Y-56548600D03*
D57*
X145457600Y-55098600D03*
X145457600Y-54298600D03*
X145457600Y-53498600D03*
X145457600Y-52698600D03*
X145457600Y-51898600D03*
X145457600Y-51098600D03*
X145457600Y-50298600D03*
X145457600Y-49498600D03*
D56*
X146907600Y-48048600D03*
X147707600Y-48048600D03*
X148507600Y-48048600D03*
X149307600Y-48048600D03*
X150107600Y-48048600D03*
X150907600Y-48048600D03*
X151707600Y-48048600D03*
X152507600Y-48048600D03*
D57*
X153957600Y-49498600D03*
X153957600Y-50298600D03*
X153957600Y-51098600D03*
X153957600Y-51898600D03*
X153957600Y-52698600D03*
X153957600Y-53498600D03*
X153957600Y-54298600D03*
X153957600Y-55098600D03*
D32*
X143113720Y-37398960D03*
X145013720Y-37398960D03*
X163154400Y-37388800D03*
X161254400Y-37388800D03*
X157769600Y-37363400D03*
X155869600Y-37363400D03*
X148442720Y-37414200D03*
X146542720Y-37414200D03*
D53*
X140500000Y-36150000D03*
X140500000Y-38050000D03*
X164922200Y-37073800D03*
X164922200Y-38973800D03*
X159512000Y-37048400D03*
X159512000Y-38948400D03*
D32*
X150027600Y-37409120D03*
X151927600Y-37409120D03*
D53*
X138600000Y-36150000D03*
X138600000Y-38050000D03*
D32*
X168513800Y-37414200D03*
X166613800Y-37414200D03*
D53*
X155346400Y-41132800D03*
X155346400Y-39232800D03*
X136100000Y-38950000D03*
X136100000Y-37050000D03*
X165049200Y-57109400D03*
X165049200Y-55209400D03*
D32*
X169687280Y-78440280D03*
X167787280Y-78440280D03*
D53*
X156098240Y-67609680D03*
X156098240Y-69509680D03*
D32*
X164597040Y-52486560D03*
X166497040Y-52486560D03*
X166872880Y-54599840D03*
X168772880Y-54599840D03*
X166852560Y-56652160D03*
X168752560Y-56652160D03*
D41*
X182420260Y-38389560D03*
X182420260Y-35849560D03*
X174800260Y-35849560D03*
X174800260Y-38389560D03*
X182364380Y-45095160D03*
X182364380Y-42555160D03*
X174744380Y-42555160D03*
X174744380Y-45095160D03*
D58*
X141942800Y-45288200D03*
X141942800Y-46558200D03*
X141942800Y-47828200D03*
X141942800Y-49098200D03*
X141942800Y-50368200D03*
X141942800Y-51638200D03*
X141942800Y-52908200D03*
X141942800Y-54178200D03*
X136542800Y-54178200D03*
X136542800Y-52908200D03*
X136542800Y-51638200D03*
X136542800Y-50368200D03*
X136542800Y-49098200D03*
X136542800Y-47828200D03*
X136542800Y-46558200D03*
X136542800Y-45288200D03*
D41*
X182384700Y-51739800D03*
X182384700Y-49199800D03*
X174764700Y-49199800D03*
X174764700Y-51739800D03*
D59*
X158405100Y-72397200D03*
X158405100Y-70397200D03*
X158405100Y-68397200D03*
X158405100Y-66397200D03*
X158405100Y-64397200D03*
X158405100Y-62397200D03*
D60*
X174155100Y-75387200D03*
D61*
X172155100Y-75387200D03*
X170155100Y-75387200D03*
X168155100Y-75387200D03*
X166155100Y-75387200D03*
X164155100Y-75387200D03*
X162155100Y-75387200D03*
X160155100Y-75387200D03*
X160155100Y-59387200D03*
X162155100Y-59387200D03*
X164155100Y-59387200D03*
X166155100Y-59387200D03*
X168155100Y-59387200D03*
X170155100Y-59387200D03*
X172155100Y-59387200D03*
X174155100Y-59387200D03*
D52*
X162636200Y-42064600D03*
X162636200Y-39164600D03*
X153192480Y-42125560D03*
X153192480Y-39225560D03*
X146532600Y-42338920D03*
X146532600Y-39438920D03*
D53*
X146466560Y-43896240D03*
X146466560Y-45796240D03*
D52*
X139369800Y-39606560D03*
X139369800Y-42506560D03*
D53*
X176377600Y-78166000D03*
X176377600Y-76266000D03*
X142438120Y-57891640D03*
X142438120Y-59791640D03*
D39*
X119507000Y-32186880D03*
X132211740Y-32187160D03*
X132209540Y-39784020D03*
X116967000Y-39786560D03*
X119400320Y-44450000D03*
X132105060Y-44450280D03*
X132102860Y-52047140D03*
X116860320Y-52049680D03*
X119451120Y-56494680D03*
X132155860Y-56494960D03*
X132153660Y-64091820D03*
X116911120Y-64094360D03*
X119451120Y-68397120D03*
X132155860Y-68397400D03*
X132153660Y-75994260D03*
X116911120Y-75996800D03*
D52*
X185440320Y-37802480D03*
X185440320Y-34902480D03*
X185270140Y-43136480D03*
X185270140Y-40236480D03*
X185318400Y-49151200D03*
X185318400Y-46251200D03*
X185326020Y-55458020D03*
X185326020Y-52558020D03*
D32*
X187850000Y-71100000D03*
X185950000Y-71100000D03*
X185950000Y-73100000D03*
X187850000Y-73100000D03*
X185950000Y-69200000D03*
X187850000Y-69200000D03*
D53*
X136600000Y-69050000D03*
X136600000Y-67150000D03*
D13*
X144881600Y-69636640D03*
X150042880Y-59550300D03*
X156789120Y-57591960D03*
X150002240Y-63012320D03*
D62*
X149307600Y-48048600D02*
X149307600Y-45524880D01*
X149307600Y-45524880D02*
X149311360Y-45521120D01*
X139893040Y-44099480D02*
X139369800Y-43576240D01*
X140843000Y-44099480D02*
X139893040Y-44099480D01*
D63*
X160500000Y-53900000D02*
X163040000Y-53900000D01*
X131150360Y-71638160D02*
X131150360Y-72867520D01*
X132201920Y-73919080D02*
X132153660Y-73919080D01*
X131150360Y-72867520D02*
X132201920Y-73919080D01*
X129032000Y-71638160D02*
X131150360Y-71638160D01*
X131150360Y-71638160D02*
X134482840Y-71638160D01*
X134482840Y-71638160D02*
X136103360Y-70017640D01*
D64*
X132153660Y-75994260D02*
X132153660Y-73919080D01*
X132153660Y-73919080D02*
X132153660Y-73967340D01*
X132153660Y-73967340D02*
X137321000Y-68800000D01*
X137321000Y-68800000D02*
X138800000Y-68800000D01*
D63*
X137576560Y-70017640D02*
X136103360Y-70017640D01*
X136103360Y-70017640D02*
X132153660Y-73967340D01*
X144584420Y-70124320D02*
X137576560Y-70017640D01*
D64*
X131551680Y-76596240D02*
X132153660Y-75994260D01*
X132333660Y-64134720D02*
X130860520Y-64134720D01*
D62*
X132282860Y-76009220D02*
X132219700Y-76034900D01*
D63*
X129136140Y-40929560D02*
X129136140Y-50924460D01*
X129136140Y-50924460D02*
X130258820Y-52047140D01*
X130281680Y-39784020D02*
X129136140Y-40929560D01*
D64*
X130600000Y-39784020D02*
X130281680Y-39784020D01*
X132102860Y-52047140D02*
X130649980Y-52047140D01*
D63*
X129032000Y-65262760D02*
X129032000Y-71638160D01*
X129032000Y-71638160D02*
X129032000Y-72981360D01*
X129032000Y-72981360D02*
X132044900Y-75994260D01*
X132044900Y-75994260D02*
X132153660Y-75994260D01*
X130202940Y-64091820D02*
X129032000Y-65262760D01*
D64*
X132153660Y-64091820D02*
X130202940Y-64091820D01*
D62*
X146466560Y-45796240D02*
X146522480Y-45796240D01*
X146522480Y-45796240D02*
X147707600Y-46981360D01*
X147707600Y-46981360D02*
X147707600Y-48048600D01*
X139369800Y-43571160D02*
X139369800Y-42506560D01*
X139369800Y-43576240D02*
X139369800Y-43571160D01*
D65*
X156469080Y-55582480D02*
X156469080Y-55747920D01*
D62*
X143098520Y-44099480D02*
X140843000Y-44099480D01*
X146466560Y-45796240D02*
X144307600Y-45796240D01*
X143499840Y-44500800D02*
X143098520Y-44099480D01*
X143499840Y-44988480D02*
X143499840Y-44500800D01*
X144307600Y-45796240D02*
X143499840Y-44988480D01*
D63*
X132153660Y-79443580D02*
X132153660Y-75994260D01*
X132994400Y-80284320D02*
X132153660Y-79443580D01*
X138602720Y-80284320D02*
X132994400Y-80284320D01*
X139537440Y-79349600D02*
X138602720Y-80284320D01*
X139537440Y-77645260D02*
X139537440Y-79349600D01*
D62*
X147707600Y-49135280D02*
X147881340Y-49309020D01*
X147881340Y-49309020D02*
X149481540Y-49309020D01*
X149481540Y-49309020D02*
X149778720Y-49606200D01*
X149778720Y-49606200D02*
X149778720Y-55008780D01*
X149778720Y-55008780D02*
X149565360Y-55222140D01*
X149565360Y-55222140D02*
X148795740Y-55222140D01*
X148795740Y-55222140D02*
X148507600Y-55510280D01*
X148507600Y-55510280D02*
X148507600Y-56548600D01*
X147707600Y-48048600D02*
X147707600Y-49135280D01*
X149946360Y-55222140D02*
X150107600Y-55383380D01*
X150107600Y-55383380D02*
X150107600Y-56548600D01*
X149565360Y-55222140D02*
X149946360Y-55222140D01*
X156941520Y-55580280D02*
X156865320Y-55565040D01*
X149070060Y-61328300D02*
X150043640Y-61328300D01*
X148507600Y-60765840D02*
X149070060Y-61328300D01*
X148507600Y-56548600D02*
X148507600Y-60765840D01*
D64*
X132603240Y-59931300D02*
X129621280Y-59931300D01*
X136542800Y-55991740D02*
X132603240Y-59931300D01*
X129621280Y-63510160D02*
X130202940Y-64091820D01*
X129621280Y-59931300D02*
X129621280Y-63510160D01*
X136600000Y-54400000D02*
X136542800Y-55991740D01*
D63*
X129159000Y-53146960D02*
X129159000Y-62941200D01*
X129159000Y-62941200D02*
X130309620Y-64091820D01*
X130309620Y-64091820D02*
X132153660Y-64091820D01*
X130258820Y-52047140D02*
X129159000Y-53146960D01*
X132102860Y-52047140D02*
X130258820Y-52047140D01*
X132153660Y-73967340D02*
X132153660Y-75994260D01*
D62*
X150043640Y-59551060D02*
X150042880Y-59550300D01*
X156789120Y-57591960D02*
X156870400Y-57510680D01*
X156870400Y-57510680D02*
X156870400Y-55539300D01*
X150043640Y-61328300D02*
X150043640Y-59551060D01*
X150043640Y-62970920D02*
X150002240Y-63012320D01*
X150043640Y-61328300D02*
X150043640Y-62970920D01*
X137007600Y-69448680D02*
X137576560Y-70017640D01*
X137007600Y-69209960D02*
X137007600Y-69448680D01*
D64*
X139782360Y-70017640D02*
X140700000Y-69900000D01*
X139900000Y-69900000D02*
X139782360Y-70017640D01*
X140700000Y-69900000D02*
X139900000Y-69900000D01*
X140009960Y-69209960D02*
X140700000Y-69900000D01*
X137007600Y-69209960D02*
X140009960Y-69209960D01*
D63*
X130600000Y-39784020D02*
X132209540Y-39784020D01*
D62*
X160000000Y-53900000D02*
X160400000Y-53900000D01*
X158360700Y-55539300D02*
X160000000Y-53900000D01*
X156870400Y-55539300D02*
X158360700Y-55539300D01*
X160400000Y-53900000D02*
X162940000Y-53900000D01*
D65*
X140695680Y-80507840D02*
X139537440Y-79349600D01*
X148747480Y-69631560D02*
X148803360Y-69687440D01*
X144901920Y-69631560D02*
X148747480Y-69631560D01*
X139173600Y-69173600D02*
X138800000Y-68800000D01*
X142443200Y-69173600D02*
X139173600Y-69173600D01*
D62*
X140695680Y-80507840D02*
X145206720Y-80507840D01*
X139537440Y-79349600D02*
X140695680Y-80507840D01*
X139537440Y-77645260D02*
X139537440Y-79349600D01*
D64*
X144957800Y-69687440D02*
X144901920Y-69631560D01*
X148803360Y-69687440D02*
X144957800Y-69687440D01*
D62*
X153350380Y-76373140D02*
X153350380Y-76865040D01*
X145272760Y-80507840D02*
X146177000Y-79603600D01*
X146177000Y-79603600D02*
X146177000Y-76855320D01*
X146177000Y-76855320D02*
X147670520Y-75361800D01*
X147670520Y-75361800D02*
X152704800Y-75361800D01*
X152704800Y-75361800D02*
X153350380Y-76007380D01*
X153350380Y-76007380D02*
X153350380Y-76865040D01*
X145206720Y-80507840D02*
X145272760Y-80507840D01*
X139369800Y-43886120D02*
X139923520Y-44439840D01*
X139369800Y-43571160D02*
X139369800Y-43886120D01*
X145900000Y-72800000D02*
X145900000Y-73100000D01*
D64*
X144800000Y-72800000D02*
X137862100Y-72800000D01*
X137862100Y-72800000D02*
X137833100Y-72771000D01*
X145500000Y-72800000D02*
X144800000Y-72800000D01*
D65*
X147055840Y-71973440D02*
X148803360Y-71973440D01*
X146229280Y-72800000D02*
X147055840Y-71973440D01*
D64*
X147055840Y-71973440D02*
X148803360Y-71973440D01*
X146229280Y-72800000D02*
X147055840Y-71973440D01*
X145900000Y-72800000D02*
X146229280Y-72800000D01*
D62*
X174155100Y-75387200D02*
X174155100Y-77859380D01*
X174155100Y-77859380D02*
X174208440Y-77912720D01*
X176124320Y-77912720D02*
X176563070Y-78351470D01*
X174208440Y-77912720D02*
X176124320Y-77912720D01*
X176563070Y-78351470D02*
X176377600Y-78166000D01*
X176563070Y-78869320D02*
X176563070Y-78351470D01*
X182420260Y-29116020D02*
X184503060Y-29116020D01*
X184503060Y-29116020D02*
X184647840Y-29260800D01*
X182384700Y-49199800D02*
X182384700Y-49052480D01*
X182384700Y-49052480D02*
X181625240Y-48293020D01*
X181625240Y-48293020D02*
X180327300Y-48293020D01*
X180268880Y-41810940D02*
X179123340Y-41810940D01*
X179039520Y-48293020D02*
X180327300Y-48293020D01*
X178628040Y-47881540D02*
X179039520Y-48293020D01*
X178628040Y-42306240D02*
X178628040Y-47881540D01*
X179123340Y-41810940D02*
X178628040Y-42306240D01*
X180299360Y-35288220D02*
X179169060Y-35288220D01*
X179031900Y-41810940D02*
X180268880Y-41810940D01*
X178673760Y-41452800D02*
X179031900Y-41810940D01*
X178673760Y-35783520D02*
X178673760Y-41452800D01*
X179169060Y-35288220D02*
X178673760Y-35783520D01*
X180268880Y-41810940D02*
X181620160Y-41810940D01*
X181620160Y-41810940D02*
X182364380Y-42555160D01*
X180299360Y-35288220D02*
X181858920Y-35288220D01*
X181858920Y-35288220D02*
X182420260Y-35849560D01*
X180296820Y-28623260D02*
X179357020Y-28623260D01*
X179260500Y-35288220D02*
X180299360Y-35288220D01*
X178658520Y-34686240D02*
X179260500Y-35288220D01*
X178658520Y-29321760D02*
X178658520Y-34686240D01*
X179357020Y-28623260D02*
X178658520Y-29321760D01*
X184647840Y-29260800D02*
X184647840Y-31219140D01*
X184647840Y-31219140D02*
X189052200Y-35623500D01*
X180296820Y-28623260D02*
X181927500Y-28623260D01*
X181927500Y-28623260D02*
X182420260Y-29116020D01*
X182499000Y-29550360D02*
X182727600Y-29321760D01*
X189052200Y-35026600D02*
X189052200Y-35623500D01*
D64*
X182565040Y-29260800D02*
X182420260Y-29116020D01*
X184647840Y-29260800D02*
X182565040Y-29260800D01*
D62*
X180296820Y-32621220D02*
X181455060Y-32621220D01*
X181455060Y-32621220D02*
X182420260Y-31656020D01*
X182420260Y-31656020D02*
X182420260Y-31882420D01*
X182420260Y-31882420D02*
X185440320Y-34902480D01*
X182420260Y-38389560D02*
X182420260Y-38935660D01*
X182420260Y-38935660D02*
X183721080Y-40236480D01*
X183721080Y-40236480D02*
X185270140Y-40236480D01*
X180299360Y-39286180D02*
X181523640Y-39286180D01*
X181523640Y-39286180D02*
X182420260Y-38389560D01*
X182364380Y-45095160D02*
X182770780Y-45095160D01*
X182770780Y-45095160D02*
X183926820Y-46251200D01*
X183926820Y-46251200D02*
X185318400Y-46251200D01*
X180268880Y-45808900D02*
X180667660Y-45808900D01*
X180667660Y-45808900D02*
X181381400Y-45095160D01*
X181381400Y-45095160D02*
X182364380Y-45095160D01*
X182651400Y-45059600D02*
X182651400Y-44754800D01*
X182384700Y-51739800D02*
X182549800Y-51739800D01*
X182549800Y-51739800D02*
X183368020Y-52558020D01*
X183368020Y-52558020D02*
X185326020Y-52558020D01*
X180327300Y-52290980D02*
X181833520Y-52290980D01*
X181833520Y-52290980D02*
X182384700Y-51739800D01*
X169687280Y-78440280D02*
X169796460Y-78440280D01*
X169796460Y-78440280D02*
X170395900Y-77840840D01*
X170395900Y-77840840D02*
X171861480Y-77840840D01*
X181886860Y-61087000D02*
X189814200Y-61087000D01*
X176730660Y-55930800D02*
X181886860Y-61087000D01*
X176804320Y-55930800D02*
X176730660Y-55930800D01*
X174764700Y-53891180D02*
X176804320Y-55930800D01*
X174764700Y-51739800D02*
X174764700Y-53891180D01*
X155374340Y-51898600D02*
X153957600Y-51898600D01*
X157124400Y-50148540D02*
X155374340Y-51898600D01*
X157124400Y-48453040D02*
X157124400Y-50148540D01*
X157154880Y-48422560D02*
X157124400Y-48453040D01*
X157154880Y-46024800D02*
X157154880Y-48422560D01*
X157939740Y-45239940D02*
X157154880Y-46024800D01*
X161780220Y-45239940D02*
X157939740Y-45239940D01*
X162694620Y-46154340D02*
X161780220Y-45239940D01*
X162694620Y-46143620D02*
X162694620Y-46154340D01*
X163993120Y-47442120D02*
X162694620Y-46143620D01*
X166041580Y-47442120D02*
X163993120Y-47442120D01*
X166935660Y-46548040D02*
X166041580Y-47442120D01*
X168279700Y-46548040D02*
X166935660Y-46548040D01*
X169145840Y-45681900D02*
X168279700Y-46548040D01*
X170936920Y-45681900D02*
X169145840Y-45681900D01*
X171356020Y-46101000D02*
X170936920Y-45681900D01*
X171356020Y-49174400D02*
X171356020Y-46101000D01*
X172551600Y-50369980D02*
X171356020Y-49174400D01*
X172808900Y-50369980D02*
X172551600Y-50369980D01*
X172808900Y-51109880D02*
X173438820Y-51739800D01*
X173438820Y-51739800D02*
X174764700Y-51739800D01*
X172808900Y-50369980D02*
X172808900Y-51109880D01*
X152801400Y-51898600D02*
X152700000Y-52000000D01*
X152700000Y-52000000D02*
X152700000Y-54000000D01*
X152700000Y-54000000D02*
X152478620Y-54221380D01*
X152478620Y-54221380D02*
X150855680Y-54221380D01*
X153957600Y-51898600D02*
X152801400Y-51898600D01*
X174786800Y-45304200D02*
X175031400Y-45059600D01*
X155093240Y-51098600D02*
X156165880Y-50025960D01*
X156165880Y-50025960D02*
X156165880Y-48172040D01*
X156165880Y-48172040D02*
X156091280Y-48246640D01*
X156091280Y-48246640D02*
X156091280Y-45513600D01*
X156091280Y-45513600D02*
X157165040Y-44439840D01*
X157165040Y-44439840D02*
X162930840Y-44439840D01*
X162930840Y-44439840D02*
X164287200Y-45796200D01*
X153957600Y-51098600D02*
X155093240Y-51098600D01*
X172637960Y-44846240D02*
X172783500Y-44700700D01*
X165328600Y-45796200D02*
X165404800Y-45720000D01*
X165404800Y-45720000D02*
X168058720Y-45720000D01*
X168058720Y-45720000D02*
X168932480Y-44846240D01*
X168932480Y-44846240D02*
X172637960Y-44846240D01*
X164287200Y-45796200D02*
X165328600Y-45796200D01*
X174349920Y-44700700D02*
X174744380Y-45095160D01*
X172783500Y-44700700D02*
X174349920Y-44700700D01*
X152501400Y-51098600D02*
X153957600Y-51098600D01*
X151900000Y-51700000D02*
X152501400Y-51098600D01*
X151900000Y-52400000D02*
X151900000Y-51700000D01*
X151407040Y-52892960D02*
X151900000Y-52400000D01*
X150916640Y-52892960D02*
X151407040Y-52892960D01*
X150700000Y-51500000D02*
X150992840Y-51536600D01*
X172657260Y-38020500D02*
X172725080Y-38020500D01*
X170525440Y-44081700D02*
X171188380Y-43418760D01*
X171188380Y-43418760D02*
X171188380Y-38668960D01*
X171188380Y-38668960D02*
X171836840Y-38020500D01*
X171836840Y-38020500D02*
X172725080Y-38020500D01*
X166878000Y-44081700D02*
X170525440Y-44081700D01*
X174431200Y-38020500D02*
X174800260Y-38389560D01*
X172725080Y-38020500D02*
X174431200Y-38020500D01*
X167192478Y-44081700D02*
X166828220Y-43717442D01*
X166828220Y-43717442D02*
X156078958Y-43717442D01*
X156078958Y-43717442D02*
X155369260Y-44427140D01*
X155369260Y-44427140D02*
X155369260Y-49814480D01*
X155369260Y-49814480D02*
X154885140Y-50298600D01*
X154885140Y-50298600D02*
X153957600Y-50298600D01*
X166878000Y-44081700D02*
X167192478Y-44081700D01*
X152301400Y-50298600D02*
X153957600Y-50298600D01*
X151078640Y-51521360D02*
X152301400Y-50298600D01*
X150929340Y-51521360D02*
X151078640Y-51521360D01*
X169700000Y-42380000D02*
X169700000Y-41602600D01*
X169700000Y-41602600D02*
X170322240Y-40980360D01*
X170322240Y-40980360D02*
X170322240Y-38389560D01*
X170322240Y-38389560D02*
X171373800Y-37338000D01*
X171373800Y-37338000D02*
X171373800Y-35234880D01*
X171373800Y-35234880D02*
X172892720Y-33715960D01*
X172892720Y-33715960D02*
X172892720Y-31286960D01*
X172892720Y-31286960D02*
X174431200Y-31286960D01*
X153957600Y-49498600D02*
X151259140Y-49498600D01*
X151259140Y-49498600D02*
X150533800Y-50223940D01*
X150533800Y-50223940D02*
X150533800Y-50190400D01*
X165425120Y-42420540D02*
X169372280Y-42420540D01*
X164828220Y-43017440D02*
X165425120Y-42420540D01*
X155630880Y-43017440D02*
X164828220Y-43017440D01*
X154617420Y-44030900D02*
X155630880Y-43017440D01*
X154617420Y-46710600D02*
X154617420Y-44030900D01*
X153957600Y-47370420D02*
X154617420Y-46710600D01*
X153957600Y-49498600D02*
X153957600Y-47370420D01*
X169372280Y-42420540D02*
X169372280Y-41894760D01*
X174431200Y-31286960D02*
X174800260Y-31656020D01*
X169372280Y-42420540D02*
X169372280Y-42027720D01*
X169372280Y-42420540D02*
X169372280Y-41627720D01*
D65*
X146848600Y-48107600D02*
X146907600Y-48048600D01*
D62*
X145679160Y-48107600D02*
X146848600Y-48107600D01*
X145516600Y-48107600D02*
X145679160Y-48107600D01*
X145679160Y-48107600D02*
X144835880Y-48107600D01*
X144835880Y-48107600D02*
X144414240Y-47685960D01*
X148507600Y-48048600D02*
X148507600Y-46612960D01*
X143070920Y-43126660D02*
X142438120Y-42493860D01*
X148507600Y-46612960D02*
X147888960Y-45994320D01*
X147888960Y-45994320D02*
X147888960Y-45293280D01*
X147447000Y-44851320D02*
X145343880Y-44851320D01*
X147888960Y-45293280D02*
X147447000Y-44851320D01*
X143619220Y-43126660D02*
X143070920Y-43126660D01*
X145343880Y-44851320D02*
X143619220Y-43126660D01*
X145457600Y-49498600D02*
X146940620Y-49498600D01*
X147632420Y-50190400D02*
X148700000Y-50200000D01*
X146940620Y-49498600D02*
X147632420Y-50190400D01*
X141942800Y-49098200D02*
X143159480Y-49098200D01*
D65*
X142448280Y-49098200D02*
X141942800Y-49098200D01*
X145155000Y-49498600D02*
X145457600Y-49498600D01*
D62*
X143559880Y-49498600D02*
X145457600Y-49498600D01*
X143159480Y-49098200D02*
X143559880Y-49498600D01*
X139923520Y-47579280D02*
X139923520Y-46979840D01*
X141442440Y-49098200D02*
X139923520Y-47579280D01*
X141942800Y-49098200D02*
X141442440Y-49098200D01*
X145457600Y-50298600D02*
X146678900Y-50298600D01*
X147782280Y-51401980D02*
X148665380Y-51365380D01*
X146678900Y-50298600D02*
X147782280Y-51401980D01*
X148665380Y-51365380D02*
X148800000Y-51500000D01*
X142012400Y-50298600D02*
X141942800Y-50368200D01*
X145457600Y-50298600D02*
X142012400Y-50298600D01*
X140771880Y-50368200D02*
X139923520Y-49519840D01*
X141942800Y-50368200D02*
X140771880Y-50368200D01*
X145457600Y-51098600D02*
X146389240Y-51098600D01*
X148209000Y-52882800D02*
X148900000Y-52900000D01*
X147835620Y-52509420D02*
X148209000Y-52882800D01*
X147835620Y-52544980D02*
X147835620Y-52509420D01*
X146389240Y-51098600D02*
X147835620Y-52544980D01*
X141942800Y-51638200D02*
X143357600Y-51638200D01*
X143897200Y-51098600D02*
X145457600Y-51098600D01*
X143357600Y-51638200D02*
X143897200Y-51098600D01*
X140345160Y-51638200D02*
X139923520Y-52059840D01*
X141942800Y-51638200D02*
X140345160Y-51638200D01*
X143946880Y-52908200D02*
X144156480Y-52698600D01*
X145457600Y-52698600D02*
X146637960Y-52698600D01*
X147444460Y-54229000D02*
X148900000Y-54200000D01*
X147134580Y-53919120D02*
X147444460Y-54229000D01*
X147134580Y-53195220D02*
X147134580Y-53919120D01*
X146637960Y-52698600D02*
X147134580Y-53195220D01*
X141942800Y-52908200D02*
X143946880Y-52908200D01*
X144156480Y-52698600D02*
X145457600Y-52698600D01*
D65*
X142600680Y-52908200D02*
X141942800Y-52908200D01*
D62*
X140967460Y-52908200D02*
X141942800Y-52908200D01*
X139923520Y-53952140D02*
X140967460Y-52908200D01*
X139923520Y-54599840D02*
X139923520Y-53952140D01*
D65*
X153957600Y-52698600D02*
X156452960Y-52698600D01*
X156452960Y-52698600D02*
X156469080Y-52682480D01*
D62*
X154016900Y-52639300D02*
X156870400Y-52639300D01*
X153957600Y-52698600D02*
X154016900Y-52639300D01*
X156870400Y-51429600D02*
X157854882Y-50445118D01*
X157854882Y-50445118D02*
X157854882Y-47445118D01*
X157854882Y-47445118D02*
X158400000Y-46900000D01*
X158400000Y-46900000D02*
X159600000Y-46900000D01*
X156870400Y-52639300D02*
X156870400Y-51429600D01*
X153957600Y-53498600D02*
X153964100Y-53505100D01*
X159300000Y-49100000D02*
X160100000Y-49100000D01*
X157801400Y-53498600D02*
X158200000Y-53100000D01*
X158200000Y-53100000D02*
X158200000Y-51300000D01*
X158200000Y-51300000D02*
X158900000Y-50600000D01*
X158900000Y-50600000D02*
X158900000Y-49500000D01*
X158900000Y-49500000D02*
X159300000Y-49100000D01*
X153957600Y-53498600D02*
X157801400Y-53498600D01*
D65*
X154705300Y-54298600D02*
X153957600Y-54298600D01*
D62*
X153957600Y-54298600D02*
X153963700Y-54292500D01*
X158201400Y-54298600D02*
X158900002Y-53599998D01*
X158900002Y-53599998D02*
X158900002Y-52759998D01*
X158900002Y-52759998D02*
X160160000Y-51500000D01*
X153957600Y-54298600D02*
X158201400Y-54298600D01*
X136542800Y-49098200D02*
X135478520Y-49098200D01*
X132603240Y-36042600D02*
X132603240Y-32578660D01*
X134350760Y-37790120D02*
X132603240Y-36042600D01*
X132603240Y-32578660D02*
X132211740Y-32187160D01*
X134350760Y-47970440D02*
X134350760Y-37790120D01*
X135478520Y-49098200D02*
X134350760Y-47970440D01*
D63*
X109230160Y-47523400D02*
X116967000Y-39786560D01*
X108889800Y-47523400D02*
X109230160Y-47523400D01*
D62*
X108860000Y-47493600D02*
X108889800Y-47523400D01*
D64*
X108860000Y-47493600D02*
X108889800Y-47523400D01*
X108860000Y-44940000D02*
X108860000Y-47493600D01*
D63*
X111937800Y-30505400D02*
X111770160Y-30505400D01*
X111937800Y-36255960D02*
X111937800Y-30505400D01*
X119507000Y-32186880D02*
X119702580Y-32186880D01*
X122900000Y-56500000D02*
X122900000Y-67300000D01*
X122900000Y-44300000D02*
X122900000Y-56500000D01*
X122900000Y-32200000D02*
X122900000Y-44300000D01*
X122900000Y-67300000D02*
X121802880Y-68397120D01*
X121802880Y-68397120D02*
X119451120Y-68397120D01*
X122900000Y-29900000D02*
X122900000Y-32200000D01*
X121500000Y-28500000D02*
X122900000Y-29900000D01*
X114200000Y-28500000D02*
X121500000Y-28500000D01*
X112194600Y-30505400D02*
X114200000Y-28500000D01*
X111937800Y-30505400D02*
X112194600Y-30505400D01*
X122900000Y-56494680D02*
X122894680Y-56500000D01*
X122894680Y-56500000D02*
X122000000Y-56500000D01*
X122000000Y-56500000D02*
X122900000Y-56500000D01*
X119451120Y-56494680D02*
X122900000Y-56494680D01*
X122900000Y-44450000D02*
X122750000Y-44300000D01*
X122750000Y-44300000D02*
X122000000Y-44300000D01*
X122000000Y-44300000D02*
X122900000Y-44300000D01*
X119400320Y-44450000D02*
X122900000Y-44450000D01*
X122900000Y-32186880D02*
X122886880Y-32200000D01*
X122886880Y-32200000D02*
X121900000Y-32200000D01*
X121900000Y-32200000D02*
X122900000Y-32200000D01*
X119507000Y-32186880D02*
X122900000Y-32186880D01*
X108966000Y-40005000D02*
X108966000Y-39227760D01*
X108966000Y-39227760D02*
X111937800Y-36255960D01*
D62*
X132331460Y-44599860D02*
X132331460Y-48689260D01*
X132331460Y-48689260D02*
X133172200Y-49530000D01*
X133172200Y-49530000D02*
X133629400Y-49530000D01*
X133629400Y-49530000D02*
X134467600Y-50368200D01*
X134467600Y-50368200D02*
X136542800Y-50368200D01*
D63*
X108966000Y-55016400D02*
X109326680Y-55016400D01*
X110947200Y-55016400D02*
X113913920Y-52049680D01*
X113913920Y-52049680D02*
X116860320Y-52049680D01*
X108966000Y-55016400D02*
X110947200Y-55016400D01*
D62*
X133225540Y-56537860D02*
X132331460Y-56537860D01*
X134393940Y-55369460D02*
X133225540Y-56537860D01*
X136542800Y-51638200D02*
X135432800Y-51638200D01*
X134393940Y-52677060D02*
X134393940Y-55369460D01*
X135432800Y-51638200D02*
X134393940Y-52677060D01*
D63*
X115343760Y-62527000D02*
X116911120Y-64094360D01*
X108960000Y-62527000D02*
X115343760Y-62527000D01*
D62*
X137485120Y-52908200D02*
X136542800Y-52908200D01*
X137861040Y-53284120D02*
X137485120Y-52908200D01*
X137861040Y-56926480D02*
X137861040Y-53284120D01*
X132280660Y-68412360D02*
X133212840Y-68412360D01*
X132280660Y-68412360D02*
X134178040Y-68412360D01*
X134960360Y-59827160D02*
X137861040Y-56926480D01*
X134960360Y-67630040D02*
X134960360Y-59827160D01*
X134178040Y-68412360D02*
X134960360Y-67630040D01*
D63*
X111213900Y-70027800D02*
X108966000Y-70027800D01*
X116911120Y-75725020D02*
X111213900Y-70027800D01*
X116911120Y-75996800D02*
X116911120Y-75725020D01*
D62*
X163190320Y-52090320D02*
X164591960Y-52090320D01*
X162800000Y-51700000D02*
X163190320Y-52090320D01*
X162800000Y-51600000D02*
X162800000Y-51700000D01*
X185440320Y-37802480D02*
X186862380Y-37802480D01*
X186862380Y-37802480D02*
X189052200Y-39992300D01*
X189052200Y-39992300D02*
X189052200Y-40576500D01*
X188929940Y-40454240D02*
X189052200Y-40576500D01*
X185270140Y-43136480D02*
X186532180Y-43136480D01*
X186532180Y-43136480D02*
X189052200Y-45656500D01*
X185318400Y-49151200D02*
X187593900Y-49151200D01*
X187593900Y-49151200D02*
X189052200Y-50609500D01*
X185326020Y-55458020D02*
X188820720Y-55458020D01*
X188820720Y-55458020D02*
X189052200Y-55689500D01*
X162155100Y-59387200D02*
X162155100Y-58880820D01*
X162155100Y-59387200D02*
X162155100Y-59169680D01*
X163700000Y-57700000D02*
X164458600Y-57700000D01*
X164458600Y-57700000D02*
X165049200Y-57109400D01*
X162355100Y-59044900D02*
X163700000Y-57700000D01*
X162155100Y-59387200D02*
X162155100Y-59144900D01*
X156423360Y-67284560D02*
X156098240Y-67609680D01*
X156423360Y-64576960D02*
X156423360Y-67284560D01*
X156423360Y-61915040D02*
X156423360Y-64576960D01*
X157215840Y-61122560D02*
X156423360Y-61915040D01*
X165729920Y-61122560D02*
X157215840Y-61122560D01*
X166155100Y-60697380D02*
X165729920Y-61122560D01*
X166155100Y-59387200D02*
X166155100Y-60697380D01*
X155973790Y-67734130D02*
X156098240Y-67609680D01*
X154459720Y-67734130D02*
X155973790Y-67734130D01*
X154459720Y-66540600D02*
X156423360Y-64576960D01*
X154459720Y-67734130D02*
X154459720Y-66540600D01*
X154459720Y-67066380D02*
X156110940Y-65415160D01*
X154459720Y-67734130D02*
X154459720Y-67066380D01*
X154459720Y-67546440D02*
X156110940Y-65895220D01*
X154459720Y-67734130D02*
X154459720Y-67546440D01*
X155900120Y-66687700D02*
X156156660Y-66431160D01*
X154853690Y-67734130D02*
X155900120Y-66687700D01*
X154459720Y-67734130D02*
X154853690Y-67734130D01*
X155900120Y-66997580D02*
X156100780Y-67198240D01*
X155900120Y-66687700D02*
X155900120Y-66997580D01*
X172155100Y-58058300D02*
X172155100Y-59387200D01*
X168772880Y-54676080D02*
X172155100Y-58058300D01*
X168772880Y-54599840D02*
X168772880Y-54676080D01*
X168772880Y-54185860D02*
X168772880Y-54599840D01*
X167073580Y-52486560D02*
X168772880Y-54185860D01*
X166497040Y-52486560D02*
X167073580Y-52486560D01*
X174155100Y-59387200D02*
X174155100Y-58679080D01*
X162800000Y-49100000D02*
X162640000Y-49100000D01*
X170400000Y-55000000D02*
X170400000Y-54400000D01*
X170400000Y-54400000D02*
X167100000Y-51100000D01*
X167100000Y-51100000D02*
X164800000Y-51100000D01*
X164800000Y-51100000D02*
X162800000Y-49100000D01*
X174155100Y-58755100D02*
X170400000Y-55000000D01*
X174155100Y-59387200D02*
X174155100Y-58755100D01*
X170155100Y-57805820D02*
X170155100Y-59387200D01*
X169001440Y-56652160D02*
X170155100Y-57805820D01*
X168752560Y-56652160D02*
X169001440Y-56652160D01*
X170480000Y-31340000D02*
X169281900Y-31340000D01*
X169281900Y-31340000D02*
X167535860Y-33086040D01*
X167535860Y-33086040D02*
X167121840Y-33086040D01*
X167121840Y-33086040D02*
X165638480Y-34569400D01*
X165638480Y-34569400D02*
X161823400Y-34569400D01*
X163154400Y-37388800D02*
X163154400Y-35062200D01*
X163154400Y-35062200D02*
X162661600Y-34569400D01*
X162661600Y-34569400D02*
X161823400Y-34569400D01*
D65*
X164607200Y-37388800D02*
X164922200Y-37073800D01*
D62*
X163154400Y-37388800D02*
X164607200Y-37388800D01*
D65*
X166273400Y-37073800D02*
X166613800Y-37414200D01*
D62*
X164922200Y-37073800D02*
X166273400Y-37073800D01*
X166613800Y-38938920D02*
X166969440Y-39294560D01*
X166613800Y-37414200D02*
X166613800Y-38938920D01*
X156743400Y-34569400D02*
X156743400Y-35610800D01*
X157769600Y-36637000D02*
X157769600Y-37363400D01*
X156743400Y-35610800D02*
X157769600Y-36637000D01*
D65*
X157303000Y-39232800D02*
X157403800Y-39132000D01*
D62*
X157769600Y-38648600D02*
X157769600Y-37363400D01*
D65*
X157403800Y-39014400D02*
X157769600Y-38648600D01*
X157403800Y-39132000D02*
X157403800Y-39014400D01*
X159197000Y-37363400D02*
X159512000Y-37048400D01*
D62*
X157769600Y-37363400D02*
X159197000Y-37363400D01*
X155346400Y-39232800D02*
X157303000Y-39232800D01*
X156743400Y-33456600D02*
X158860000Y-31340000D01*
X158860000Y-31340000D02*
X160447000Y-31340000D01*
X156743400Y-34569400D02*
X156743400Y-33456600D01*
X151663400Y-34569400D02*
X151663400Y-35026600D01*
X151663400Y-35026600D02*
X150027600Y-36662400D01*
X150027600Y-36662400D02*
X150027600Y-37409120D01*
X148884640Y-39425840D02*
X150846320Y-39425840D01*
X148442720Y-37414200D02*
X148442720Y-38983920D01*
X148442720Y-38983920D02*
X148884640Y-39425840D01*
X148442720Y-37414200D02*
X150022520Y-37414200D01*
X150022520Y-37414200D02*
X150027600Y-37409120D01*
D65*
X148590800Y-39664600D02*
X148844000Y-39411400D01*
D62*
X150846320Y-39425840D02*
X150957280Y-39314880D01*
X151663400Y-32589400D02*
X150414000Y-31340000D01*
X151663400Y-34569400D02*
X151663400Y-32589400D01*
X136100000Y-37050000D02*
X136100000Y-36600000D01*
X136550000Y-36150000D02*
X138600000Y-36150000D01*
X136100000Y-36600000D02*
X136550000Y-36150000D01*
X140500000Y-36150000D02*
X138600000Y-36150000D01*
X144043400Y-34569400D02*
X141330600Y-34569400D01*
X140500000Y-35400000D02*
X140500000Y-36150000D01*
X141330600Y-34569400D02*
X140500000Y-35400000D01*
X136855200Y-40473120D02*
X136855200Y-40244800D01*
X136855200Y-40244800D02*
X137300000Y-39800000D01*
X137300000Y-39800000D02*
X137300000Y-38400000D01*
X137300000Y-38400000D02*
X136100000Y-37200000D01*
X136100000Y-37200000D02*
X136100000Y-37050000D01*
X143474000Y-34000000D02*
X144043400Y-34569400D01*
X137600000Y-34000000D02*
X143474000Y-34000000D01*
X135428000Y-31828000D02*
X137600000Y-34000000D01*
X135428000Y-31340000D02*
X135428000Y-31828000D01*
X159283400Y-34569400D02*
X159283400Y-34798000D01*
X159283400Y-34798000D02*
X161254400Y-36769000D01*
X161254400Y-36769000D02*
X161254400Y-37388800D01*
X161254400Y-38775600D02*
X161643400Y-39164600D01*
X161254400Y-37388800D02*
X161254400Y-38775600D01*
X161643400Y-39164600D02*
X162636200Y-39164600D01*
X165527000Y-32273000D02*
X165527000Y-31340000D01*
X159283400Y-33516600D02*
X159800000Y-33000000D01*
X159800000Y-33000000D02*
X164800000Y-33000000D01*
X164800000Y-33000000D02*
X165527000Y-32273000D01*
X159283400Y-34569400D02*
X159283400Y-33516600D01*
X146542720Y-37414200D02*
X146542720Y-39428800D01*
X146542720Y-39428800D02*
X146532600Y-39438920D01*
X149123400Y-34569400D02*
X149011640Y-34569400D01*
X149011640Y-34569400D02*
X146542720Y-37038320D01*
X146542720Y-37038320D02*
X146542720Y-37414200D01*
X149123400Y-34925000D02*
X149123400Y-34569400D01*
X149123400Y-33523400D02*
X149123400Y-34569400D01*
X146940000Y-31340000D02*
X149123400Y-33523400D01*
X145461000Y-31340000D02*
X146940000Y-31340000D01*
X154203400Y-34569400D02*
X154203400Y-37134800D01*
X154432000Y-37363400D02*
X155869600Y-37363400D01*
X154203400Y-37134800D02*
X154432000Y-37363400D01*
X153238200Y-37973000D02*
X153847800Y-37363400D01*
X153238200Y-39367800D02*
X153238200Y-37973000D01*
X153847800Y-37363400D02*
X155869600Y-37363400D01*
X154203400Y-32630600D02*
X155494000Y-31340000D01*
X154203400Y-34569400D02*
X154203400Y-32630600D01*
X146583400Y-34569400D02*
X146583400Y-34589720D01*
X146583400Y-34589720D02*
X145013720Y-36159400D01*
X145013720Y-36159400D02*
X145013720Y-37398960D01*
X146583400Y-34569400D02*
X146583400Y-35255200D01*
X146583400Y-33583400D02*
X146583400Y-34569400D01*
X146000000Y-33000000D02*
X146583400Y-33583400D01*
X142500000Y-33000000D02*
X146000000Y-33000000D01*
X140840000Y-31340000D02*
X142500000Y-33000000D01*
X140508000Y-31340000D02*
X140840000Y-31340000D01*
X152507600Y-48048600D02*
X152507600Y-47608840D01*
X152507600Y-47608840D02*
X153870660Y-46245780D01*
X153870660Y-46245780D02*
X153870660Y-43690540D01*
X152507600Y-48048600D02*
X152507600Y-48140040D01*
X153870660Y-43690540D02*
X155496600Y-42064600D01*
X155496600Y-42064600D02*
X162636200Y-42064600D01*
X150907600Y-48048600D02*
X150907600Y-46826320D01*
X151213480Y-42338920D02*
X146532600Y-42338920D01*
X151851360Y-42976800D02*
X151213480Y-42338920D01*
X151851360Y-45882560D02*
X151851360Y-42976800D01*
X150907600Y-46826320D02*
X151851360Y-45882560D01*
X151707600Y-47106260D02*
X152949660Y-45864200D01*
X151707600Y-48048600D02*
X151707600Y-47106260D01*
X152949660Y-43570140D02*
X153238200Y-43281600D01*
X153238200Y-43281600D02*
X153238200Y-42267800D01*
X152949660Y-45864200D02*
X152949660Y-43570140D01*
X143113720Y-37398960D02*
X143113720Y-38842060D01*
X143113720Y-38842060D02*
X142440660Y-39515120D01*
X143113720Y-37398960D02*
X140901040Y-37398960D01*
X140901040Y-37398960D02*
X140500000Y-37800000D01*
X140500000Y-37800000D02*
X140500000Y-38050000D01*
X138600000Y-38050000D02*
X138600000Y-39000000D01*
X138600000Y-39000000D02*
X139206560Y-39606560D01*
X139206560Y-39606560D02*
X139369800Y-39606560D01*
X151881840Y-40172640D02*
X151881840Y-37454880D01*
X151881840Y-37454880D02*
X151927600Y-37409120D01*
X159512000Y-39395400D02*
X159512000Y-39705280D01*
X139293600Y-40192960D02*
X139293600Y-39682760D01*
X139608560Y-40507920D02*
X139293600Y-40192960D01*
X147828000Y-40507920D02*
X139608560Y-40507920D01*
X147975320Y-40360600D02*
X147828000Y-40507920D01*
X151693880Y-40360600D02*
X147975320Y-40360600D01*
X151881840Y-40172640D02*
X151693880Y-40360600D01*
X159044640Y-40172640D02*
X151881840Y-40172640D01*
X159512000Y-39705280D02*
X159044640Y-40172640D01*
X139293600Y-39682760D02*
X139369800Y-39606560D01*
X159512000Y-39903400D02*
X159512000Y-39827200D01*
X159766000Y-40157400D02*
X159512000Y-39903400D01*
X164541200Y-40157400D02*
X159766000Y-40157400D01*
X164922200Y-39776400D02*
X164541200Y-40157400D01*
X164922200Y-38973800D02*
X164922200Y-39776400D01*
X159512000Y-39827200D02*
X159512000Y-39395400D01*
X159512000Y-39395400D02*
X159512000Y-38948400D01*
X142354300Y-59875460D02*
X142438120Y-59791640D01*
X142354300Y-61396880D02*
X142354300Y-59875460D01*
X160155100Y-75387200D02*
X160155100Y-74337700D01*
X160155100Y-74337700D02*
X161869120Y-72623680D01*
X169285920Y-72623680D02*
X170155100Y-73492860D01*
X161869120Y-72623680D02*
X169285920Y-72623680D01*
X176463960Y-76072960D02*
X176463960Y-74604880D01*
X170155100Y-73156580D02*
X170155100Y-73492860D01*
X170155100Y-73492860D02*
X170155100Y-75387200D01*
X170728640Y-72583040D02*
X170155100Y-73156580D01*
X174442120Y-72583040D02*
X170728640Y-72583040D01*
X176463960Y-74604880D02*
X174442120Y-72583040D01*
D64*
X160155100Y-75387200D02*
X160155100Y-77134720D01*
X160155100Y-77134720D02*
X160155100Y-78620140D01*
X160155100Y-78620140D02*
X159465460Y-77930500D01*
D62*
X160155100Y-75387200D02*
X160155100Y-78620140D01*
X160155100Y-78620140D02*
X160012380Y-78762860D01*
X189847220Y-76748640D02*
X188224160Y-76748640D01*
X184216040Y-74041000D02*
X186923680Y-76748640D01*
X186923680Y-76748640D02*
X188224160Y-76748640D01*
X176463960Y-76072960D02*
X176463960Y-75869800D01*
X187850000Y-75750000D02*
X187850000Y-73100000D01*
X188848640Y-76748640D02*
X187850000Y-75750000D01*
X189847220Y-76748640D02*
X188848640Y-76748640D01*
D65*
X157972760Y-75387200D02*
X160155100Y-75387200D01*
X157782260Y-75387200D02*
X157972760Y-75387200D01*
X155407360Y-73012300D02*
X157782260Y-75387200D01*
X155407360Y-71973440D02*
X155407360Y-73012300D01*
X157972760Y-77627240D02*
X157700000Y-77900000D01*
X157972760Y-75387200D02*
X157972760Y-77627240D01*
D62*
X156098240Y-71282560D02*
X155407360Y-71973440D01*
X156098240Y-69509680D02*
X156098240Y-71282560D01*
D64*
X159075120Y-75387200D02*
X160155100Y-75387200D01*
X157439360Y-75387200D02*
X159075120Y-75387200D01*
X155407360Y-73355200D02*
X157439360Y-75387200D01*
X157700000Y-75647840D02*
X157439360Y-75387200D01*
X157700000Y-77900000D02*
X157700000Y-75647840D01*
D63*
X157439360Y-75387200D02*
X159075120Y-75387200D01*
X155407360Y-73355200D02*
X157439360Y-75387200D01*
X155407360Y-71973440D02*
X155407360Y-73355200D01*
D62*
X177546000Y-75869800D02*
X179374800Y-74041000D01*
X179374800Y-74041000D02*
X184216040Y-74041000D01*
X176463960Y-75869800D02*
X177546000Y-75869800D01*
X166155100Y-75387200D02*
X166155100Y-76808100D01*
X166155100Y-76808100D02*
X167787280Y-78440280D01*
X147707600Y-57956200D02*
X146880620Y-58783180D01*
X146880620Y-58783180D02*
X146880620Y-59596020D01*
X147707600Y-56548600D02*
X147707600Y-57956200D01*
X146880620Y-60485060D02*
X147089500Y-60693940D01*
X147089500Y-60693940D02*
X147089500Y-62222380D01*
X146880620Y-59596020D02*
X146880620Y-60485060D01*
X144688560Y-60807600D02*
X144980620Y-60515540D01*
X144688560Y-62222380D02*
X144688560Y-60807600D01*
X144980620Y-57604700D02*
X146036720Y-56548600D01*
X146036720Y-56548600D02*
X146907600Y-56548600D01*
X144980620Y-59596020D02*
X144980620Y-57604700D01*
X144980620Y-60515540D02*
X144980620Y-59596020D01*
X162155100Y-75387200D02*
X162155100Y-77222580D01*
X162552380Y-77619860D02*
X162552380Y-78762860D01*
X162155100Y-77222580D02*
X162552380Y-77619860D01*
X189763400Y-71628000D02*
X189788800Y-71653400D01*
X189257940Y-71079360D02*
X189847220Y-71668640D01*
X189278580Y-71100000D02*
X189847220Y-71668640D01*
X187850000Y-71100000D02*
X189278580Y-71100000D01*
X185506320Y-71079360D02*
X185500373Y-71079388D01*
X163418520Y-70134480D02*
X159681240Y-66397200D01*
X159681240Y-66397200D02*
X158405100Y-66397200D01*
X174726600Y-70134480D02*
X163418520Y-70134480D01*
X174701200Y-70134480D02*
X174726600Y-70134480D01*
X185929388Y-71079388D02*
X185950000Y-71100000D01*
X185500373Y-71079388D02*
X185929388Y-71079388D01*
X175425100Y-70777100D02*
X176936400Y-72288400D01*
X174701200Y-70053200D02*
X175425100Y-70777100D01*
X176936400Y-72288400D02*
X184291361Y-72288400D01*
X184291361Y-72288400D02*
X185479761Y-71100000D01*
X185479761Y-71100000D02*
X185950000Y-71100000D01*
X174701200Y-70134480D02*
X174701200Y-70053200D01*
X174782480Y-70134480D02*
X174782480Y-70175120D01*
X174782480Y-70175120D02*
X174726600Y-70231000D01*
X174726600Y-70231000D02*
X174726600Y-70134480D01*
X175425100Y-70777100D02*
X174782480Y-70134480D01*
X159776240Y-68397200D02*
X162702240Y-71323200D01*
X162702240Y-71323200D02*
X174498000Y-71323200D01*
X185400000Y-73233280D02*
X185526640Y-73233280D01*
X158405100Y-68397200D02*
X159776240Y-68397200D01*
X185816720Y-73233280D02*
X185950000Y-73100000D01*
X185400000Y-73233280D02*
X185816720Y-73233280D01*
X174650400Y-71323200D02*
X176560480Y-73233280D01*
X176560480Y-73233280D02*
X185400000Y-73233280D01*
X174498000Y-71323200D02*
X174650400Y-71323200D01*
X175756900Y-58887360D02*
X180900870Y-64031330D01*
X175788320Y-58887360D02*
X175756900Y-58887360D01*
X171886880Y-54985920D02*
X175788320Y-58887360D01*
X171886880Y-54477920D02*
X171886880Y-54985920D01*
X167472360Y-50063400D02*
X171886880Y-54477920D01*
X166200000Y-50100000D02*
X167472360Y-50063400D01*
X165253340Y-49100000D02*
X166200000Y-50100000D01*
X165200000Y-49100000D02*
X165253340Y-49100000D01*
X189740540Y-69235320D02*
X189847220Y-69128640D01*
X189775860Y-69200000D02*
X189847220Y-69128640D01*
X187850000Y-69200000D02*
X189775860Y-69200000D01*
X186357730Y-64031330D02*
X186791600Y-64465200D01*
X186791600Y-64465200D02*
X186791600Y-65176400D01*
X186791600Y-65176400D02*
X187629800Y-66014600D01*
X187629800Y-66014600D02*
X187629800Y-66911220D01*
X187629800Y-66911220D02*
X189847220Y-69128640D01*
X180900870Y-64031330D02*
X186357730Y-64031330D01*
X185400000Y-69235320D02*
X185526640Y-69235320D01*
X168155100Y-64805040D02*
X172166280Y-68816220D01*
X168155100Y-59387200D02*
X168155100Y-64805040D01*
X185914680Y-69235320D02*
X185950000Y-69200000D01*
X185400000Y-69235320D02*
X185914680Y-69235320D01*
X175006000Y-69113400D02*
X177480998Y-71588398D01*
X177480998Y-71588398D02*
X183935602Y-71588398D01*
X183935602Y-71588398D02*
X185089800Y-70434200D01*
X185089800Y-70434200D02*
X185089800Y-69545520D01*
X185089800Y-69545520D02*
X185435320Y-69200000D01*
X185435320Y-69200000D02*
X185950000Y-69200000D01*
X172463460Y-69113400D02*
X172166280Y-68816220D01*
X175006000Y-69113400D02*
X172463460Y-69113400D01*
X142438120Y-56941720D02*
X144281240Y-55098600D01*
X144281240Y-55098600D02*
X145457600Y-55098600D01*
X142438120Y-57891640D02*
X142438120Y-56941720D01*
X175770540Y-57751980D02*
X181068980Y-63050420D01*
X175770540Y-57751980D02*
X175770540Y-57751980D01*
X172892720Y-54874160D02*
X175770540Y-57751980D01*
X172892720Y-54035960D02*
X172892720Y-54874160D01*
X167132000Y-48275240D02*
X172892720Y-54035960D01*
X166872920Y-48275240D02*
X167132000Y-48275240D01*
X187129420Y-63050420D02*
X187528200Y-63449200D01*
X187528200Y-63449200D02*
X187528200Y-64516000D01*
X187528200Y-64516000D02*
X188341000Y-65328800D01*
X188341000Y-65328800D02*
X188341000Y-66192400D01*
X188341000Y-66192400D02*
X188737240Y-66588640D01*
X188737240Y-66588640D02*
X189847220Y-66588640D01*
X181068980Y-63050420D02*
X187129420Y-63050420D01*
X176258220Y-56896000D02*
X181397910Y-62035690D01*
X176255680Y-56896000D02*
X176258220Y-56896000D01*
X173837600Y-54477920D02*
X176255680Y-56896000D01*
X173837600Y-53543200D02*
X173837600Y-54477920D01*
X170520360Y-50225960D02*
X173837600Y-53543200D01*
X170520360Y-48828960D02*
X170520360Y-50225960D01*
X169377360Y-47685960D02*
X170520360Y-48828960D01*
X169377360Y-47376080D02*
X169377360Y-47685960D01*
X187943490Y-62035690D02*
X188391800Y-62484000D01*
X188391800Y-62484000D02*
X188391800Y-63754000D01*
X188391800Y-63754000D02*
X188686440Y-64048640D01*
X188686440Y-64048640D02*
X189847220Y-64048640D01*
X181397910Y-62035690D02*
X187943490Y-62035690D01*
X136600000Y-67150000D02*
X136600000Y-65149020D01*
D64*
X145389600Y-75347200D02*
X146143340Y-75347200D01*
X146143340Y-75347200D02*
X147231100Y-74259440D01*
X147231100Y-74259440D02*
X148076920Y-74259440D01*
X148076920Y-74259440D02*
X148803360Y-74259440D01*
D62*
X172684440Y-40126920D02*
X176212500Y-40126920D01*
X176212500Y-40126920D02*
X176276000Y-40063420D01*
X168513800Y-37414200D02*
X168513800Y-38242280D01*
X168752520Y-38481000D02*
X168752520Y-40104060D01*
X168513800Y-38242280D02*
X168752520Y-38481000D01*
X166969440Y-41294560D02*
X167562020Y-41294560D01*
X167562020Y-41294560D02*
X168752520Y-40104060D01*
D63*
X160460000Y-56400000D02*
X163000000Y-56400000D01*
D62*
X136100000Y-38950000D02*
X136100000Y-39200000D01*
X136100000Y-39200000D02*
X135500000Y-39800000D01*
X135500000Y-39800000D02*
X135500000Y-42200000D01*
X135500000Y-42200000D02*
X135773120Y-42473120D01*
X135773120Y-42473120D02*
X136855200Y-42473120D01*
D64*
X136600000Y-63050980D02*
X137549020Y-63050980D01*
X138200000Y-62400000D02*
X138600000Y-62400000D01*
X137549020Y-63050980D02*
X138200000Y-62400000D01*
X141900000Y-54400000D02*
X141942800Y-54857200D01*
X140300000Y-63800000D02*
X138800000Y-65300000D01*
X138600000Y-64400000D02*
X138600000Y-62400000D01*
X138600000Y-62400000D02*
X138600000Y-61900000D01*
X138600000Y-61900000D02*
X138500000Y-61800000D01*
X136855200Y-42473120D02*
X136855200Y-42755200D01*
X139300000Y-58300000D02*
X139300000Y-64800000D01*
X139300000Y-64800000D02*
X138800000Y-65300000D01*
D62*
X155313010Y-59387200D02*
X154455080Y-58529270D01*
D65*
X157700000Y-79900000D02*
X157400000Y-79900000D01*
X157400000Y-79900000D02*
X157100000Y-79600000D01*
X157100000Y-79600000D02*
X156200000Y-79600000D01*
D64*
X157700000Y-79900000D02*
X157332700Y-79900000D01*
D63*
X137833100Y-75271000D02*
X144771000Y-75271000D01*
X144771000Y-75271000D02*
X144800000Y-75300000D01*
D64*
X144800000Y-75300000D02*
X143600000Y-75300000D01*
X143600000Y-75300000D02*
X142500000Y-75300000D01*
X142500000Y-75300000D02*
X142471000Y-75271000D01*
X142471000Y-75271000D02*
X137833100Y-75271000D01*
X192519300Y-71729600D02*
X192519300Y-69189600D01*
X192519300Y-73538080D02*
X192519300Y-71729600D01*
X189788800Y-74193400D02*
X191863980Y-74193400D01*
X191863980Y-74193400D02*
X192519300Y-73538080D01*
X191259460Y-74193400D02*
X189788800Y-74193400D01*
X174208440Y-79912720D02*
X174393100Y-79912720D01*
X165092380Y-78762860D02*
X165092380Y-78978760D01*
X165092380Y-78978760D02*
X166524940Y-80411320D01*
X163974780Y-80525620D02*
X165346380Y-80525620D01*
X165346380Y-80525620D02*
X165460680Y-80411320D01*
X156707080Y-80525620D02*
X163974780Y-80525620D01*
X163974780Y-80525620D02*
X164226240Y-80525620D01*
X164226240Y-80525620D02*
X165092380Y-79659480D01*
X165092380Y-79659480D02*
X165092380Y-78762860D01*
X171861480Y-79938880D02*
X172006260Y-79938880D01*
X172006260Y-79938880D02*
X172501560Y-80434180D01*
X173686980Y-80434180D02*
X174208440Y-79912720D01*
X172501560Y-80434180D02*
X173686980Y-80434180D01*
X165092380Y-78762860D02*
X165092380Y-80043020D01*
X165092380Y-80043020D02*
X165460680Y-80411320D01*
X165460680Y-80411320D02*
X166524940Y-80411320D01*
X166524940Y-80411320D02*
X171389040Y-80411320D01*
X171389040Y-80411320D02*
X171861480Y-79938880D01*
D62*
X157302200Y-79930500D02*
X157380180Y-79930500D01*
X157380180Y-79930500D02*
X158084520Y-80634840D01*
X165092380Y-80180180D02*
X165092380Y-78762860D01*
X164637720Y-80634840D02*
X165092380Y-80180180D01*
X158084520Y-80634840D02*
X164637720Y-80634840D01*
D64*
X157051630Y-80181070D02*
X157302200Y-79930500D01*
X156707080Y-80525620D02*
X157051630Y-80181070D01*
D65*
X150926800Y-56567800D02*
X150907600Y-56548600D01*
D64*
X137833100Y-75271000D02*
X137833100Y-76060300D01*
X191259460Y-74193400D02*
X189788800Y-74193400D01*
D62*
X191259460Y-74193400D02*
X189788800Y-74193400D01*
D64*
X174764700Y-49199800D02*
X175707040Y-49199800D01*
D62*
X174800260Y-29116020D02*
X174853600Y-29062680D01*
X175964850Y-42508170D02*
X175953420Y-42519600D01*
X176194720Y-42278300D02*
X175964850Y-42508170D01*
X176276000Y-39969440D02*
X176276000Y-40063420D01*
X176276000Y-40063420D02*
X176276000Y-42278300D01*
X176276000Y-42278300D02*
X176194720Y-42278300D01*
X176276000Y-36311840D02*
X176276000Y-39969440D01*
X175910240Y-35946080D02*
X176276000Y-36311840D01*
X175910240Y-35946080D02*
X175813720Y-35849560D01*
X175917860Y-42555160D02*
X174744380Y-42555160D01*
X175964850Y-42508170D02*
X175917860Y-42555160D01*
D64*
X182349140Y-59905900D02*
X191363600Y-59905900D01*
X177358040Y-54914800D02*
X182349140Y-59905900D01*
X177419000Y-54914800D02*
X177358040Y-54914800D01*
X176265840Y-53761640D02*
X177419000Y-54914800D01*
X176265840Y-49758600D02*
X176265840Y-53761640D01*
X175707040Y-49199800D02*
X176265840Y-49758600D01*
X191363600Y-59905900D02*
X192730120Y-61272420D01*
D62*
X176248060Y-35415220D02*
X176248060Y-29578300D01*
X176248060Y-29578300D02*
X175785780Y-29116020D01*
X175785780Y-29116020D02*
X174800260Y-29116020D01*
X175813720Y-35849560D02*
X176248060Y-35415220D01*
X174800260Y-35849560D02*
X175813720Y-35849560D01*
X174496220Y-48369980D02*
X172808900Y-48369980D01*
X174764700Y-48638460D02*
X174496220Y-48369980D01*
X174764700Y-49199800D02*
X174764700Y-48638460D01*
X166852560Y-54620160D02*
X166872880Y-54599840D01*
X166852560Y-56652160D02*
X166852560Y-54620160D01*
X166872880Y-54599840D02*
X166872880Y-54503280D01*
X160155100Y-59387200D02*
X160155100Y-59036740D01*
X166664640Y-54808080D02*
X166872880Y-54599840D01*
X166263320Y-55209400D02*
X166872880Y-54599840D01*
X165049200Y-55209400D02*
X166263320Y-55209400D01*
X160155100Y-57224140D02*
X160155100Y-59387200D01*
X159735520Y-56804560D02*
X160155100Y-57224140D01*
X150907600Y-57515760D02*
X150907600Y-56548600D01*
X149307600Y-56548600D02*
X149307600Y-57570420D01*
X141066520Y-63494920D02*
X142354300Y-63494920D01*
X160065660Y-59476640D02*
X160155100Y-59387200D01*
X142354300Y-63494920D02*
X142354300Y-64782700D01*
X152043640Y-61328300D02*
X152600000Y-61328300D01*
X173552360Y-29286960D02*
X173723300Y-29116020D01*
X173723300Y-29116020D02*
X174800260Y-29116020D01*
X172892720Y-29286960D02*
X173552360Y-29286960D01*
X174629320Y-36020500D02*
X174800260Y-35849560D01*
X172725080Y-36020500D02*
X174629320Y-36020500D01*
X174598840Y-42700700D02*
X174744380Y-42555160D01*
X172783500Y-42700700D02*
X174598840Y-42700700D01*
X175917860Y-42555160D02*
X174744380Y-42555160D01*
X176245520Y-48422560D02*
X176245520Y-42882820D01*
X176245520Y-42882820D02*
X175917860Y-42555160D01*
X175468280Y-49199800D02*
X176245520Y-48422560D01*
X174764700Y-49199800D02*
X175468280Y-49199800D01*
X146466560Y-43896240D02*
X145679120Y-43896240D01*
X144454880Y-42672000D02*
X144454880Y-41325840D01*
X145679120Y-43896240D02*
X144454880Y-42672000D01*
X148884640Y-41325840D02*
X144454880Y-41325840D01*
X144454880Y-41325840D02*
X138475680Y-41325840D01*
X138475680Y-41325840D02*
X138264900Y-41536620D01*
X148884640Y-41325840D02*
X150946320Y-41325840D01*
X150946320Y-41325840D02*
X150957280Y-41314880D01*
X146466560Y-43896240D02*
X147843280Y-43896240D01*
X147843280Y-43896240D02*
X148218400Y-43521120D01*
X148218400Y-43521120D02*
X149311360Y-43521120D01*
X150107600Y-48048600D02*
X150107600Y-46549360D01*
X150535438Y-43489678D02*
X149534880Y-43489678D01*
X150997920Y-43952160D02*
X150535438Y-43489678D01*
X150997920Y-45659040D02*
X150997920Y-43952160D01*
X150107600Y-46549360D02*
X150997920Y-45659040D01*
X149534880Y-43489678D02*
X149311360Y-43521120D01*
X160705800Y-40970200D02*
X160655000Y-40970200D01*
X157565600Y-40970200D02*
X157403800Y-41132000D01*
X160705800Y-40970200D02*
X157565600Y-40970200D01*
X157403000Y-41132800D02*
X157403800Y-41132000D01*
X155346400Y-41132800D02*
X157403000Y-41132800D01*
X151146000Y-41538400D02*
X151551600Y-41132800D01*
X151551600Y-41132800D02*
X155346400Y-41132800D01*
X138292880Y-41564600D02*
X138264900Y-41536620D01*
X138013440Y-41844040D02*
X138292880Y-41564600D01*
X137960100Y-41897380D02*
X138013440Y-41844040D01*
X137960100Y-41897380D02*
X137960100Y-41897380D01*
X137960100Y-42136060D02*
X137960100Y-41897380D01*
X137623040Y-42473120D02*
X137960100Y-42136060D01*
X136855200Y-42473120D02*
X137623040Y-42473120D01*
X166645080Y-40970200D02*
X166969440Y-41294560D01*
X160705800Y-40970200D02*
X166645080Y-40970200D01*
X137100000Y-63400000D02*
X137099040Y-62514480D01*
D64*
X174818040Y-80451960D02*
X178087020Y-80451960D01*
X178087020Y-80451960D02*
X178841400Y-79697580D01*
X178841400Y-79697580D02*
X178841400Y-76804520D01*
X178841400Y-76804520D02*
X180400960Y-75244960D01*
X180400960Y-75244960D02*
X183692800Y-75244960D01*
X183692800Y-75244960D02*
X185767930Y-77320090D01*
X185767930Y-77320090D02*
X185767930Y-78864680D01*
X174278800Y-79912720D02*
X174818040Y-80451960D01*
X174208440Y-79912720D02*
X174278800Y-79912720D01*
X186842400Y-79796640D02*
X191312800Y-79796640D01*
X191312800Y-79796640D02*
X192511680Y-78597760D01*
X192511680Y-78597760D02*
X192511680Y-74841100D01*
X192511680Y-74841100D02*
X191879220Y-74208640D01*
X191879220Y-74208640D02*
X189847220Y-74208640D01*
X185910440Y-78864680D02*
X186842400Y-79796640D01*
X185767930Y-78864680D02*
X185910440Y-78864680D01*
D62*
X152481230Y-58529270D02*
X154455080Y-58529270D01*
X152043640Y-61328300D02*
X152043640Y-58966860D01*
D64*
X155262580Y-61328300D02*
X152043640Y-61328300D01*
X160155100Y-59387200D02*
X159288480Y-59387200D01*
D62*
X159705040Y-56555640D02*
X162245040Y-56555640D01*
X164076420Y-55209400D02*
X165049200Y-55209400D01*
X162730180Y-56555640D02*
X164076420Y-55209400D01*
X162245040Y-56555640D02*
X162730180Y-56555640D01*
D64*
X159705040Y-58287920D02*
X159654240Y-58338720D01*
X159654240Y-58338720D02*
X159654240Y-58353960D01*
X159705040Y-57871360D02*
X159705040Y-58287920D01*
X159705040Y-56555640D02*
X159705040Y-57871360D01*
X159538610Y-60003690D02*
X160155100Y-59387200D01*
D63*
X192519300Y-71729600D02*
X192519300Y-69189600D01*
X192519300Y-73538080D02*
X192519300Y-71729600D01*
X191848740Y-74208640D02*
X192519300Y-73538080D01*
X189847220Y-74208640D02*
X191848740Y-74208640D01*
X192519300Y-69189600D02*
X192519300Y-66649600D01*
X192519300Y-66649600D02*
X192519300Y-64109600D01*
X192519300Y-64109600D02*
X192519300Y-61569600D01*
D62*
X138800000Y-64600000D02*
X138600000Y-64400000D01*
X138600000Y-64400000D02*
X138200000Y-64000000D01*
X138800000Y-65300000D02*
X138800000Y-64600000D01*
D64*
X137833100Y-75966900D02*
X137100000Y-76700000D01*
X137833100Y-75271000D02*
X137833100Y-75966900D01*
D65*
X148550380Y-77865040D02*
X148550380Y-79565040D01*
X149550380Y-76865040D02*
X148550380Y-77865040D01*
X154550380Y-76865040D02*
X154873520Y-76865040D01*
X157365040Y-79565040D02*
X157700000Y-79900000D01*
X155550380Y-79565040D02*
X157365040Y-79565040D01*
D62*
X150750380Y-76865040D02*
X149550380Y-76865040D01*
D64*
X136997440Y-76106660D02*
X137833100Y-75271000D01*
D62*
X149307600Y-57570420D02*
X149755860Y-58018680D01*
X149755860Y-58018680D02*
X150649940Y-58018680D01*
X150649940Y-58018680D02*
X150907600Y-57761020D01*
X150907600Y-57698640D02*
X150907600Y-57515760D01*
X150907600Y-57761020D02*
X150907600Y-57698640D01*
X150907600Y-57698640D02*
X150907600Y-57775960D01*
X150907600Y-57775960D02*
X151660910Y-58529270D01*
X159288480Y-56972200D02*
X159705040Y-56555640D01*
X159288480Y-57713880D02*
X159288480Y-56972200D01*
X159288480Y-59387200D02*
X159288480Y-57713880D01*
X151660910Y-58529270D02*
X152481230Y-58529270D01*
X152043640Y-58966860D02*
X152481230Y-58529270D01*
D64*
X153800000Y-59700000D02*
X153100000Y-59700000D01*
X154600000Y-60500000D02*
X153800000Y-59700000D01*
X152600000Y-60500000D02*
X154600000Y-60500000D01*
X152400000Y-60300000D02*
X152600000Y-60500000D01*
X152400000Y-59200000D02*
X152400000Y-60300000D01*
X152500000Y-59100000D02*
X152400000Y-59200000D01*
X153500000Y-59100000D02*
X152500000Y-59100000D01*
X154295440Y-59895440D02*
X153500000Y-59100000D01*
D62*
X157203680Y-59387200D02*
X155313010Y-59387200D01*
D64*
X158054040Y-59387200D02*
X157203680Y-59387200D01*
X158572200Y-59387200D02*
X158054040Y-59387200D01*
X159288480Y-59387200D02*
X158572200Y-59387200D01*
X155500000Y-59895440D02*
X155500000Y-60400000D01*
X156695440Y-59895440D02*
X155500000Y-59895440D01*
X155500000Y-59895440D02*
X154295440Y-59895440D01*
D62*
X156695440Y-59895440D02*
X157203680Y-59387200D01*
D64*
X157203680Y-59387200D02*
X156587190Y-60003690D01*
X156587190Y-60003690D02*
X159538610Y-60003690D01*
X155200000Y-60700000D02*
X155200000Y-60900000D01*
X155200000Y-60900000D02*
X155200000Y-61390880D01*
X155500000Y-60400000D02*
X155200000Y-60700000D01*
D62*
X155262580Y-61328300D02*
X156695440Y-59895440D01*
D64*
X156587190Y-60003690D02*
X155200000Y-61390880D01*
X155200000Y-61390880D02*
X155262580Y-61328300D01*
X155200000Y-60900000D02*
X155200000Y-62700000D01*
D62*
X153828300Y-61328300D02*
X155262580Y-61328300D01*
D64*
X154500000Y-63400000D02*
X154500000Y-62000000D01*
X154500000Y-62000000D02*
X153828300Y-61328300D01*
X155200000Y-62700000D02*
X154500000Y-63400000D01*
X154500000Y-63400000D02*
X154033220Y-63866780D01*
D62*
X154033220Y-61328300D02*
X153828300Y-61328300D01*
D64*
X154033220Y-63300000D02*
X154033220Y-63866780D01*
D62*
X154033220Y-63300000D02*
X154033220Y-61328300D01*
X152600000Y-61328300D02*
X153300000Y-61328300D01*
X154033220Y-61328300D02*
X154033220Y-61328300D01*
X153300000Y-61328300D02*
X154033220Y-61328300D01*
D64*
X141942800Y-54857200D02*
X140300000Y-56500000D01*
X149870160Y-67208400D02*
X149870160Y-67229840D01*
X146039840Y-67208400D02*
X149870160Y-67208400D01*
X150876560Y-66223440D02*
X149870160Y-67229840D01*
X151290580Y-65809420D02*
X150876560Y-66223440D01*
X152600000Y-61328300D02*
X152600000Y-64500000D01*
X152600000Y-64500000D02*
X151290580Y-65809420D01*
X149870160Y-67229840D02*
X150200000Y-66900000D01*
X140300000Y-56500000D02*
X140300000Y-63800000D01*
D62*
X140055600Y-62484000D02*
X141066520Y-63494920D01*
X140055600Y-61112400D02*
X140055600Y-62484000D01*
X142354300Y-64782700D02*
X143103600Y-65532000D01*
X139412400Y-61112400D02*
X140055600Y-61112400D01*
D63*
X139800000Y-63100000D02*
X139800000Y-61500000D01*
X139800000Y-61500000D02*
X139412400Y-61112400D01*
D64*
X145100000Y-66400000D02*
X145231440Y-66400000D01*
X145231440Y-66400000D02*
X146039840Y-67208400D01*
X149300000Y-65400000D02*
X149300000Y-65900000D01*
X152043640Y-63956360D02*
X150600000Y-65400000D01*
X152043640Y-61328300D02*
X152043640Y-63956360D01*
X150600000Y-65400000D02*
X149300000Y-65400000D01*
D63*
X139800000Y-65500000D02*
X139800000Y-63100000D01*
X149300000Y-65900000D02*
X145529000Y-65900000D01*
X141800000Y-65100000D02*
X139800000Y-63100000D01*
X144729000Y-65100000D02*
X141800000Y-65100000D01*
X145529000Y-65900000D02*
X144729000Y-65100000D01*
D62*
X143103600Y-65532000D02*
X145161000Y-65532000D01*
X145161000Y-65532000D02*
X145700000Y-64993000D01*
D64*
X145100000Y-66400000D02*
X145700000Y-65800000D01*
X145700000Y-65800000D02*
X145700000Y-64993000D01*
D63*
X140700000Y-66400000D02*
X139800000Y-65500000D01*
X145100000Y-66400000D02*
X145700000Y-65800000D01*
X140700000Y-66400000D02*
X145100000Y-66400000D01*
D62*
X145700000Y-64993000D02*
X145887440Y-64805560D01*
X145887440Y-64805560D02*
X145887440Y-64317880D01*
X145887440Y-64317880D02*
X145887440Y-62222380D01*
D64*
X148803360Y-74259440D02*
X148076920Y-74259440D01*
X151272240Y-74259440D02*
X152217120Y-73314560D01*
X152217120Y-73660000D02*
X152217120Y-66735960D01*
X152217120Y-73314560D02*
X152217120Y-73660000D01*
X152217120Y-66735960D02*
X151290580Y-65809420D01*
X148803360Y-74259440D02*
X151272240Y-74259440D01*
X154550380Y-76865040D02*
X154573800Y-76865040D01*
D63*
X149619160Y-79565040D02*
X155550380Y-79565040D01*
X148550380Y-79565040D02*
X149619160Y-79565040D01*
D64*
X156166410Y-80181070D02*
X155550380Y-79565040D01*
X157051630Y-80181070D02*
X156166410Y-80181070D01*
X148550380Y-78053180D02*
X148550380Y-79565040D01*
X149550380Y-77053180D02*
X148550380Y-78053180D01*
X149550380Y-76865040D02*
X149550380Y-77053180D01*
D63*
X152217120Y-73426320D02*
X152217120Y-73660000D01*
X152217120Y-70000000D02*
X152217120Y-73426320D01*
X152217120Y-66735960D02*
X152217120Y-70000000D01*
X151704600Y-66223440D02*
X152217120Y-66735960D01*
X150876560Y-66223440D02*
X151704600Y-66223440D01*
X152217120Y-68517120D02*
X149600000Y-65900000D01*
X149600000Y-65900000D02*
X149300000Y-65900000D01*
X152217120Y-70000000D02*
X152217120Y-68517120D01*
X154033220Y-61533220D02*
X154033220Y-61328300D01*
X154033220Y-63866780D02*
X154033220Y-61533220D01*
X151704600Y-66195400D02*
X154033220Y-63866780D01*
X151704600Y-66223440D02*
X151704600Y-66195400D01*
D64*
X144617440Y-76317440D02*
X144617440Y-77645260D01*
X143571000Y-75271000D02*
X144617440Y-76317440D01*
X137833100Y-75271000D02*
X143571000Y-75271000D01*
X136997440Y-76106660D02*
X137833100Y-75271000D01*
X136997440Y-77645260D02*
X136997440Y-76106660D01*
X145389600Y-75347200D02*
X145912200Y-75347200D01*
D62*
X150750380Y-78433820D02*
X149619160Y-79565040D01*
X150750380Y-76865040D02*
X150750380Y-78433820D01*
D64*
X152643840Y-73426320D02*
X154550380Y-75332860D01*
X154550380Y-75332860D02*
X154550380Y-76865040D01*
X152217120Y-73426320D02*
X152643840Y-73426320D01*
X154550380Y-75393820D02*
X155550380Y-76393820D01*
X155550380Y-76393820D02*
X155550380Y-79565040D01*
X154550380Y-75332860D02*
X154550380Y-75393820D01*
X136855200Y-42473120D02*
X136855200Y-42875200D01*
D62*
X139923520Y-56936640D02*
X139923520Y-57139840D01*
X138257280Y-52506880D02*
X138663680Y-52913280D01*
X138663680Y-52913280D02*
X138663680Y-55676800D01*
X138663680Y-55676800D02*
X139923520Y-56936640D01*
D64*
X136855200Y-42875200D02*
X138277600Y-44297600D01*
X138277600Y-52085240D02*
X138257280Y-52105560D01*
X138277600Y-44297600D02*
X138277600Y-52085240D01*
D62*
X138257280Y-52105560D02*
X138257280Y-52506880D01*
X138501120Y-61112400D02*
X139412400Y-61112400D01*
X138200000Y-64000000D02*
X138200000Y-61413520D01*
X138200000Y-61413520D02*
X138501120Y-61112400D01*
X137099040Y-62514480D02*
X138200000Y-61413520D01*
D64*
X139300000Y-58921600D02*
X139300000Y-59800000D01*
X139300000Y-58300000D02*
X139300000Y-58921600D01*
X139300000Y-59800000D02*
X136700000Y-62400000D01*
D62*
X139923520Y-59679840D02*
X139923520Y-57139840D01*
X136095740Y-63052960D02*
X136611360Y-63568580D01*
X136095740Y-60418980D02*
X136095740Y-63052960D01*
X139374880Y-57139840D02*
X136095740Y-60418980D01*
X139923520Y-57139840D02*
X139374880Y-57139840D01*
D64*
X136611360Y-60452000D02*
X139923520Y-57139840D01*
X136611360Y-61224160D02*
X136611360Y-60452000D01*
X136530080Y-61691520D02*
X139300000Y-58921600D01*
X136530080Y-61752480D02*
X136530080Y-61691520D01*
D62*
X158054040Y-58948320D02*
X159288480Y-57713880D01*
X158054040Y-59387200D02*
X158054040Y-58948320D01*
X158572200Y-58994040D02*
X158998920Y-58567320D01*
X158572200Y-59387200D02*
X158572200Y-58994040D01*
X160155100Y-58386500D02*
X161117280Y-57424320D01*
X160155100Y-59387200D02*
X160155100Y-58386500D01*
X160248600Y-57871360D02*
X160614360Y-57505600D01*
X159705040Y-57871360D02*
X160248600Y-57871360D01*
D66*
G36*
X137144440Y-77772260D02*
X137124440Y-77772260D01*
X137124440Y-77792260D01*
X136870440Y-77792260D01*
X136870440Y-77772260D01*
X135656516Y-77772260D01*
X135512256Y-78007173D01*
X135564776Y-78157320D01*
X134280660Y-78157320D01*
X134280660Y-77582870D01*
X134379424Y-77484279D01*
X134780203Y-76519095D01*
X134781115Y-75474010D01*
X134451866Y-74677165D01*
X135684021Y-73445011D01*
X135684021Y-73771000D01*
X135767397Y-74200721D01*
X136015495Y-74578407D01*
X136279911Y-74756889D01*
X136187192Y-75006461D01*
X136211244Y-75656460D01*
X136412308Y-76141873D01*
X136095404Y-76294528D01*
X135705486Y-76730940D01*
X135512256Y-77283347D01*
X135656516Y-77518260D01*
X136870440Y-77518260D01*
X136870440Y-76451301D01*
X136958836Y-76690387D01*
X137124440Y-76751911D01*
X137124440Y-77518260D01*
X137144440Y-77518260D01*
X137144440Y-77772260D01*
X137144440Y-77772260D01*
G37*
X137144440Y-77772260D02*
X137124440Y-77772260D01*
X137124440Y-77792260D01*
X136870440Y-77792260D01*
X136870440Y-77772260D01*
X135656516Y-77772260D01*
X135512256Y-78007173D01*
X135564776Y-78157320D01*
X134280660Y-78157320D01*
X134280660Y-77582870D01*
X134379424Y-77484279D01*
X134780203Y-76519095D01*
X134781115Y-75474010D01*
X134451866Y-74677165D01*
X135684021Y-73445011D01*
X135684021Y-73771000D01*
X135767397Y-74200721D01*
X136015495Y-74578407D01*
X136279911Y-74756889D01*
X136187192Y-75006461D01*
X136211244Y-75656460D01*
X136412308Y-76141873D01*
X136095404Y-76294528D01*
X135705486Y-76730940D01*
X135512256Y-77283347D01*
X135656516Y-77518260D01*
X136870440Y-77518260D01*
X136870440Y-76451301D01*
X136958836Y-76690387D01*
X137124440Y-76751911D01*
X137124440Y-77518260D01*
X137144440Y-77518260D01*
X137144440Y-77772260D01*
G36*
X138026847Y-75285142D02*
X137847242Y-75464747D01*
X137833100Y-75450605D01*
X137818957Y-75464747D01*
X137639352Y-75285142D01*
X137653495Y-75271000D01*
X137639352Y-75256857D01*
X137818957Y-75077252D01*
X137833100Y-75091395D01*
X137847242Y-75077252D01*
X138026847Y-75256857D01*
X138012705Y-75271000D01*
X138026847Y-75285142D01*
X138026847Y-75285142D01*
G37*
X138026847Y-75285142D02*
X137847242Y-75464747D01*
X137833100Y-75450605D01*
X137818957Y-75464747D01*
X137639352Y-75285142D01*
X137653495Y-75271000D01*
X137639352Y-75256857D01*
X137818957Y-75077252D01*
X137833100Y-75091395D01*
X137847242Y-75077252D01*
X138026847Y-75256857D01*
X138012705Y-75271000D01*
X138026847Y-75285142D01*
G36*
X143876102Y-75994260D02*
X143627530Y-75994260D01*
X143490233Y-76051130D01*
X143485007Y-76043309D01*
X142839210Y-75611801D01*
X142077440Y-75460276D01*
X141315670Y-75611801D01*
X140807440Y-75951389D01*
X140299210Y-75611801D01*
X139537440Y-75460276D01*
X139476670Y-75472363D01*
X139454956Y-74885540D01*
X139397957Y-74747933D01*
X139640507Y-74588605D01*
X139749591Y-74427000D01*
X143422482Y-74427000D01*
X143571995Y-74654607D01*
X143836411Y-74833089D01*
X143743692Y-75082661D01*
X143767744Y-75732660D01*
X143876102Y-75994260D01*
X143876102Y-75994260D01*
G37*
X143876102Y-75994260D02*
X143627530Y-75994260D01*
X143490233Y-76051130D01*
X143485007Y-76043309D01*
X142839210Y-75611801D01*
X142077440Y-75460276D01*
X141315670Y-75611801D01*
X140807440Y-75951389D01*
X140299210Y-75611801D01*
X139537440Y-75460276D01*
X139476670Y-75472363D01*
X139454956Y-74885540D01*
X139397957Y-74747933D01*
X139640507Y-74588605D01*
X139749591Y-74427000D01*
X143422482Y-74427000D01*
X143571995Y-74654607D01*
X143836411Y-74833089D01*
X143743692Y-75082661D01*
X143767744Y-75732660D01*
X143876102Y-75994260D01*
G36*
X144764440Y-77772260D02*
X144744440Y-77772260D01*
X144744440Y-77792260D01*
X144605675Y-77792260D01*
X144599089Y-77515611D01*
X144470440Y-77586203D01*
X144470440Y-77518260D01*
X144490440Y-77518260D01*
X144490440Y-76699250D01*
X144515336Y-76766587D01*
X144744440Y-76851702D01*
X144744440Y-77518260D01*
X144764440Y-77518260D01*
X144764440Y-77772260D01*
X144764440Y-77772260D01*
G37*
X144764440Y-77772260D02*
X144744440Y-77772260D01*
X144744440Y-77792260D01*
X144605675Y-77792260D01*
X144599089Y-77515611D01*
X144470440Y-77586203D01*
X144470440Y-77518260D01*
X144490440Y-77518260D01*
X144490440Y-76699250D01*
X144515336Y-76766587D01*
X144744440Y-76851702D01*
X144744440Y-77518260D01*
X144764440Y-77518260D01*
X144764440Y-77772260D01*
G36*
X145583347Y-75333057D02*
X145569205Y-75347200D01*
X145579816Y-75357811D01*
X145400211Y-75537416D01*
X145389600Y-75526805D01*
X145375457Y-75540947D01*
X145195852Y-75361342D01*
X145209995Y-75347200D01*
X145195852Y-75333057D01*
X145375457Y-75153452D01*
X145389600Y-75167595D01*
X145403742Y-75153452D01*
X145583347Y-75333057D01*
X145583347Y-75333057D01*
G37*
X145583347Y-75333057D02*
X145569205Y-75347200D01*
X145579816Y-75357811D01*
X145400211Y-75537416D01*
X145389600Y-75526805D01*
X145375457Y-75540947D01*
X145195852Y-75361342D01*
X145209995Y-75347200D01*
X145195852Y-75333057D01*
X145375457Y-75153452D01*
X145389600Y-75167595D01*
X145403742Y-75153452D01*
X145583347Y-75333057D01*
G36*
X156020657Y-76948221D02*
X156014774Y-76956938D01*
X155925921Y-77400000D01*
X155925921Y-77930040D01*
X155836130Y-77930040D01*
X155677380Y-78088790D01*
X155677380Y-79438040D01*
X155697380Y-79438040D01*
X155697380Y-79692040D01*
X155677380Y-79692040D01*
X155677380Y-79712040D01*
X155423380Y-79712040D01*
X155423380Y-79692040D01*
X154074130Y-79692040D01*
X154044170Y-79722000D01*
X151585380Y-79722000D01*
X151585380Y-77666349D01*
X151585380Y-77150790D01*
X151426630Y-76992040D01*
X150850380Y-76992040D01*
X150850380Y-78016290D01*
X151009130Y-78175040D01*
X151076690Y-78175040D01*
X151310079Y-78078367D01*
X151488707Y-77899738D01*
X151585380Y-77666349D01*
X151585380Y-79722000D01*
X150056590Y-79722000D01*
X150026630Y-79692040D01*
X148677380Y-79692040D01*
X148677380Y-79712040D01*
X148423380Y-79712040D01*
X148423380Y-79692040D01*
X148403380Y-79692040D01*
X148403380Y-79438040D01*
X148423380Y-79438040D01*
X148423380Y-78088790D01*
X148264630Y-77930040D01*
X147676689Y-77930040D01*
X147554000Y-77930040D01*
X147554000Y-77278372D01*
X148093572Y-76738800D01*
X148305215Y-76738800D01*
X148332898Y-77186453D01*
X148462216Y-77498657D01*
X148687645Y-77548170D01*
X149370775Y-76865040D01*
X149356632Y-76850897D01*
X149468730Y-76738800D01*
X149632030Y-76738800D01*
X149744127Y-76850897D01*
X149729985Y-76865040D01*
X149744127Y-76879182D01*
X149564522Y-77058787D01*
X149550380Y-77044645D01*
X148867250Y-77727775D01*
X148911675Y-77930040D01*
X148836130Y-77930040D01*
X148677380Y-78088790D01*
X148677380Y-79438040D01*
X150026630Y-79438040D01*
X150185380Y-79279290D01*
X150185380Y-78438731D01*
X150088707Y-78205342D01*
X149938328Y-78054962D01*
X150100219Y-77987905D01*
X150190681Y-78078367D01*
X150424070Y-78175040D01*
X150491630Y-78175040D01*
X150650380Y-78016290D01*
X150650380Y-77464207D01*
X150798187Y-77034004D01*
X150779931Y-76738800D01*
X151973380Y-76738800D01*
X151973380Y-76865040D01*
X152001301Y-77005408D01*
X152001301Y-77540040D01*
X152084677Y-77969761D01*
X152332775Y-78347447D01*
X152707318Y-78600266D01*
X153150380Y-78689119D01*
X153550380Y-78689119D01*
X153915380Y-78618300D01*
X153915380Y-79279290D01*
X154074130Y-79438040D01*
X155423380Y-79438040D01*
X155423380Y-78088790D01*
X155264630Y-77930040D01*
X155189084Y-77930040D01*
X155233510Y-77727775D01*
X154699459Y-77193724D01*
X154699459Y-77005408D01*
X154727380Y-76865040D01*
X154727380Y-76834150D01*
X154744127Y-76850897D01*
X154729985Y-76865040D01*
X155413115Y-77548170D01*
X155638544Y-77498657D01*
X155798187Y-77034004D01*
X155779734Y-76735606D01*
X155935344Y-76891216D01*
X156020657Y-76948221D01*
X156020657Y-76948221D01*
G37*
X156020657Y-76948221D02*
X156014774Y-76956938D01*
X155925921Y-77400000D01*
X155925921Y-77930040D01*
X155836130Y-77930040D01*
X155677380Y-78088790D01*
X155677380Y-79438040D01*
X155697380Y-79438040D01*
X155697380Y-79692040D01*
X155677380Y-79692040D01*
X155677380Y-79712040D01*
X155423380Y-79712040D01*
X155423380Y-79692040D01*
X154074130Y-79692040D01*
X154044170Y-79722000D01*
X151585380Y-79722000D01*
X151585380Y-77666349D01*
X151585380Y-77150790D01*
X151426630Y-76992040D01*
X150850380Y-76992040D01*
X150850380Y-78016290D01*
X151009130Y-78175040D01*
X151076690Y-78175040D01*
X151310079Y-78078367D01*
X151488707Y-77899738D01*
X151585380Y-77666349D01*
X151585380Y-79722000D01*
X150056590Y-79722000D01*
X150026630Y-79692040D01*
X148677380Y-79692040D01*
X148677380Y-79712040D01*
X148423380Y-79712040D01*
X148423380Y-79692040D01*
X148403380Y-79692040D01*
X148403380Y-79438040D01*
X148423380Y-79438040D01*
X148423380Y-78088790D01*
X148264630Y-77930040D01*
X147676689Y-77930040D01*
X147554000Y-77930040D01*
X147554000Y-77278372D01*
X148093572Y-76738800D01*
X148305215Y-76738800D01*
X148332898Y-77186453D01*
X148462216Y-77498657D01*
X148687645Y-77548170D01*
X149370775Y-76865040D01*
X149356632Y-76850897D01*
X149468730Y-76738800D01*
X149632030Y-76738800D01*
X149744127Y-76850897D01*
X149729985Y-76865040D01*
X149744127Y-76879182D01*
X149564522Y-77058787D01*
X149550380Y-77044645D01*
X148867250Y-77727775D01*
X148911675Y-77930040D01*
X148836130Y-77930040D01*
X148677380Y-78088790D01*
X148677380Y-79438040D01*
X150026630Y-79438040D01*
X150185380Y-79279290D01*
X150185380Y-78438731D01*
X150088707Y-78205342D01*
X149938328Y-78054962D01*
X150100219Y-77987905D01*
X150190681Y-78078367D01*
X150424070Y-78175040D01*
X150491630Y-78175040D01*
X150650380Y-78016290D01*
X150650380Y-77464207D01*
X150798187Y-77034004D01*
X150779931Y-76738800D01*
X151973380Y-76738800D01*
X151973380Y-76865040D01*
X152001301Y-77005408D01*
X152001301Y-77540040D01*
X152084677Y-77969761D01*
X152332775Y-78347447D01*
X152707318Y-78600266D01*
X153150380Y-78689119D01*
X153550380Y-78689119D01*
X153915380Y-78618300D01*
X153915380Y-79279290D01*
X154074130Y-79438040D01*
X155423380Y-79438040D01*
X155423380Y-78088790D01*
X155264630Y-77930040D01*
X155189084Y-77930040D01*
X155233510Y-77727775D01*
X154699459Y-77193724D01*
X154699459Y-77005408D01*
X154727380Y-76865040D01*
X154727380Y-76834150D01*
X154744127Y-76850897D01*
X154729985Y-76865040D01*
X155413115Y-77548170D01*
X155638544Y-77498657D01*
X155798187Y-77034004D01*
X155779734Y-76735606D01*
X155935344Y-76891216D01*
X156020657Y-76948221D01*
G36*
X160302100Y-59514200D02*
X160282100Y-59514200D01*
X160282100Y-59534200D01*
X160028100Y-59534200D01*
X160028100Y-59514200D01*
X158970100Y-59514200D01*
X158970100Y-59745560D01*
X157215840Y-59745560D01*
X156688885Y-59850378D01*
X156242154Y-60148874D01*
X155449674Y-60941354D01*
X155151178Y-61388085D01*
X155046360Y-61915040D01*
X155046360Y-64006588D01*
X154328080Y-64724868D01*
X154328080Y-59905520D01*
X154328080Y-58656270D01*
X153178830Y-58656270D01*
X153020080Y-58815020D01*
X153020080Y-59555579D01*
X153116753Y-59788968D01*
X153295381Y-59967597D01*
X153528770Y-60064270D01*
X153781389Y-60064270D01*
X154169330Y-60064270D01*
X154328080Y-59905520D01*
X154328080Y-64724868D01*
X153486034Y-65566914D01*
X153354573Y-65763659D01*
X153329999Y-65768427D01*
X153178640Y-65867853D01*
X152952313Y-66016525D01*
X152699494Y-66391068D01*
X152610641Y-66834130D01*
X152610641Y-68634130D01*
X152694017Y-69063851D01*
X152942115Y-69441537D01*
X153316658Y-69694356D01*
X153587682Y-69748708D01*
X153508281Y-70144640D01*
X153508281Y-71060676D01*
X153442268Y-71159472D01*
X153280360Y-71973440D01*
X153280360Y-73355200D01*
X153442268Y-74169168D01*
X153516034Y-74279567D01*
X153231755Y-74089618D01*
X152704800Y-73984800D01*
X150443250Y-73984800D01*
X150454360Y-73973690D01*
X150454360Y-73625131D01*
X150385057Y-73457821D01*
X150626767Y-73299045D01*
X150879586Y-72924502D01*
X150968439Y-72481440D01*
X150968439Y-71465440D01*
X150885063Y-71035719D01*
X150750123Y-70830296D01*
X150879586Y-70638502D01*
X150968439Y-70195440D01*
X150968439Y-69179440D01*
X150885063Y-68749719D01*
X150636965Y-68372033D01*
X150262422Y-68119214D01*
X149819360Y-68030361D01*
X147787360Y-68030361D01*
X147632332Y-68060440D01*
X146338949Y-68060440D01*
X146108342Y-67829429D01*
X145326863Y-67504930D01*
X144480690Y-67504192D01*
X144468378Y-67509278D01*
X144460370Y-67509272D01*
X143775976Y-67792057D01*
X143703200Y-67742933D01*
X143703200Y-67459350D01*
X143703200Y-66887850D01*
X143703200Y-66547291D01*
X143606527Y-66313902D01*
X143427899Y-66135273D01*
X143194510Y-66038600D01*
X142941891Y-66038600D01*
X142728950Y-66038600D01*
X142570200Y-66197350D01*
X142570200Y-67046600D01*
X143544450Y-67046600D01*
X143703200Y-66887850D01*
X143703200Y-67459350D01*
X143544450Y-67300600D01*
X142570200Y-67300600D01*
X142570200Y-67320600D01*
X142316200Y-67320600D01*
X142316200Y-67300600D01*
X142316200Y-67046600D01*
X142316200Y-66197350D01*
X142255240Y-66136390D01*
X142255240Y-64886808D01*
X142255240Y-63781940D01*
X140912584Y-63781940D01*
X140789922Y-63996125D01*
X140808759Y-64099175D01*
X141079504Y-64571834D01*
X141510519Y-64904904D01*
X142036185Y-65047679D01*
X142255240Y-64886808D01*
X142255240Y-66136390D01*
X142157450Y-66038600D01*
X141944509Y-66038600D01*
X141691890Y-66038600D01*
X141458501Y-66135273D01*
X141279873Y-66313902D01*
X141183200Y-66547291D01*
X141183200Y-66887850D01*
X141341950Y-67046600D01*
X142316200Y-67046600D01*
X142316200Y-67300600D01*
X141341950Y-67300600D01*
X141183200Y-67459350D01*
X141183200Y-67742742D01*
X141010793Y-67855995D01*
X140966509Y-67921600D01*
X140954045Y-67921600D01*
X140949079Y-67918281D01*
X140949079Y-67800000D01*
X140865703Y-67370279D01*
X140617605Y-66992593D01*
X140445908Y-66876696D01*
X140445908Y-65564539D01*
X140421856Y-64914540D01*
X140219387Y-64425736D01*
X139952532Y-64327073D01*
X138979605Y-65300000D01*
X139952532Y-66272927D01*
X140219387Y-66174264D01*
X140445908Y-65564539D01*
X140445908Y-66876696D01*
X140243062Y-66739774D01*
X139800000Y-66650921D01*
X139699577Y-66650921D01*
X139772927Y-66452532D01*
X138800000Y-65479605D01*
X138785857Y-65493747D01*
X138735657Y-65443547D01*
X138688025Y-65204084D01*
X138785857Y-65106252D01*
X138800000Y-65120395D01*
X139772927Y-64147468D01*
X139674264Y-63880613D01*
X139064539Y-63654092D01*
X138414540Y-63678144D01*
X138203678Y-63765485D01*
X138203678Y-63227395D01*
X138184841Y-63124345D01*
X137914096Y-62651686D01*
X137483081Y-62318616D01*
X136957415Y-62175841D01*
X136738360Y-62336712D01*
X136738360Y-63441580D01*
X138081016Y-63441580D01*
X138203678Y-63227395D01*
X138203678Y-63765485D01*
X138136892Y-63793149D01*
X138081016Y-63695580D01*
X136738360Y-63695580D01*
X136738360Y-63715580D01*
X136484360Y-63715580D01*
X136484360Y-63695580D01*
X136464360Y-63695580D01*
X136464360Y-63441580D01*
X136484360Y-63441580D01*
X136484360Y-62336712D01*
X136337360Y-62228757D01*
X136337360Y-60397532D01*
X138834726Y-57900166D01*
X138835573Y-57898897D01*
X138952003Y-57931752D01*
X139743915Y-57139840D01*
X139729772Y-57125697D01*
X139909377Y-56946092D01*
X139923520Y-56960235D01*
X139937662Y-56946092D01*
X140117267Y-57125697D01*
X140103125Y-57139840D01*
X140117267Y-57153982D01*
X139937662Y-57333587D01*
X139923520Y-57319445D01*
X139131608Y-58111357D01*
X139199597Y-58352300D01*
X139349030Y-58405482D01*
X139199597Y-58467380D01*
X139131608Y-58708323D01*
X139923520Y-59500235D01*
X139937662Y-59486092D01*
X140117267Y-59665697D01*
X140103125Y-59679840D01*
X140117267Y-59693982D01*
X139937662Y-59873587D01*
X139923520Y-59859445D01*
X139743915Y-60039050D01*
X139743915Y-59679840D01*
X138952003Y-58887928D01*
X138711060Y-58955917D01*
X138526319Y-59475011D01*
X138554290Y-60025288D01*
X138711060Y-60403763D01*
X138952003Y-60471752D01*
X139743915Y-59679840D01*
X139743915Y-60039050D01*
X139131608Y-60651357D01*
X139199597Y-60892300D01*
X139718691Y-61077041D01*
X140268968Y-61049070D01*
X140318679Y-61028478D01*
X140213570Y-61556900D01*
X140356448Y-62275197D01*
X140763331Y-62884139D01*
X140931467Y-62996484D01*
X140808759Y-63210705D01*
X140789922Y-63313755D01*
X140912584Y-63527940D01*
X142255240Y-63527940D01*
X142255240Y-63507940D01*
X142509240Y-63507940D01*
X142509240Y-63527940D01*
X142529240Y-63527940D01*
X142529240Y-63781940D01*
X142509240Y-63781940D01*
X142509240Y-64886808D01*
X142728295Y-65047679D01*
X143253961Y-64904904D01*
X143684976Y-64571834D01*
X143891038Y-64212095D01*
X143995498Y-64282606D01*
X144438560Y-64371459D01*
X144938560Y-64371459D01*
X145368281Y-64288083D01*
X145745967Y-64039985D01*
X145889202Y-63827786D01*
X146021895Y-64029787D01*
X146396438Y-64282606D01*
X146839500Y-64371459D01*
X147339500Y-64371459D01*
X147769221Y-64288083D01*
X148126378Y-64053469D01*
X148195466Y-64220674D01*
X148793278Y-64819531D01*
X149574757Y-65144030D01*
X150420930Y-65144768D01*
X151202974Y-64821634D01*
X151801831Y-64223822D01*
X151803635Y-64219476D01*
X151804371Y-64218742D01*
X152128870Y-63437263D01*
X152129608Y-62591090D01*
X152128455Y-62588300D01*
X152170642Y-62588300D01*
X152170642Y-62429552D01*
X152329390Y-62588300D01*
X152669949Y-62588300D01*
X152903338Y-62491627D01*
X153081967Y-62312999D01*
X153178640Y-62079610D01*
X153178640Y-61826991D01*
X153178640Y-61614050D01*
X153019890Y-61455300D01*
X152170640Y-61455300D01*
X152170640Y-61475300D01*
X151916640Y-61475300D01*
X151916640Y-61455300D01*
X151896640Y-61455300D01*
X151896640Y-61201300D01*
X151916640Y-61201300D01*
X151916640Y-61181300D01*
X152170640Y-61181300D01*
X152170640Y-61201300D01*
X153019890Y-61201300D01*
X153178640Y-61042550D01*
X153178640Y-60829609D01*
X153178640Y-60576990D01*
X153081967Y-60343601D01*
X152903338Y-60164973D01*
X152669949Y-60068300D01*
X152329390Y-60068300D01*
X152170642Y-60227048D01*
X152170642Y-60068300D01*
X152137865Y-60068300D01*
X152179670Y-59967623D01*
X152180408Y-59121450D01*
X151922671Y-58497679D01*
X151982600Y-58497679D01*
X152109665Y-58473025D01*
X152232600Y-58497679D01*
X152782600Y-58497679D01*
X153212321Y-58414303D01*
X153230639Y-58402270D01*
X154328080Y-58402270D01*
X154328080Y-57153020D01*
X154169330Y-56994270D01*
X153931679Y-56994270D01*
X153931679Y-56522679D01*
X154757600Y-56522679D01*
X154945153Y-56486289D01*
X154729527Y-57005572D01*
X154582080Y-57153020D01*
X154582080Y-58402270D01*
X154602080Y-58402270D01*
X154602080Y-58656270D01*
X154582080Y-58656270D01*
X154582080Y-59905520D01*
X154740830Y-60064270D01*
X155128771Y-60064270D01*
X155381390Y-60064270D01*
X155614779Y-59967597D01*
X155793407Y-59788968D01*
X155890080Y-59555579D01*
X155890080Y-59521727D01*
X156364177Y-59718590D01*
X157210350Y-59719328D01*
X157992394Y-59396194D01*
X158591251Y-58798382D01*
X158915750Y-58016903D01*
X158916488Y-57170730D01*
X158777133Y-56833466D01*
X158868837Y-56815225D01*
X159122812Y-57368379D01*
X159529399Y-57745388D01*
X159406982Y-57809476D01*
X159108904Y-58166387D01*
X158970100Y-58610200D01*
X158970100Y-59260200D01*
X160028100Y-59260200D01*
X160028100Y-59240200D01*
X160282100Y-59240200D01*
X160282100Y-59260200D01*
X160302100Y-59260200D01*
X160302100Y-59514200D01*
X160302100Y-59514200D01*
G37*
X160302100Y-59514200D02*
X160282100Y-59514200D01*
X160282100Y-59534200D01*
X160028100Y-59534200D01*
X160028100Y-59514200D01*
X158970100Y-59514200D01*
X158970100Y-59745560D01*
X157215840Y-59745560D01*
X156688885Y-59850378D01*
X156242154Y-60148874D01*
X155449674Y-60941354D01*
X155151178Y-61388085D01*
X155046360Y-61915040D01*
X155046360Y-64006588D01*
X154328080Y-64724868D01*
X154328080Y-59905520D01*
X154328080Y-58656270D01*
X153178830Y-58656270D01*
X153020080Y-58815020D01*
X153020080Y-59555579D01*
X153116753Y-59788968D01*
X153295381Y-59967597D01*
X153528770Y-60064270D01*
X153781389Y-60064270D01*
X154169330Y-60064270D01*
X154328080Y-59905520D01*
X154328080Y-64724868D01*
X153486034Y-65566914D01*
X153354573Y-65763659D01*
X153329999Y-65768427D01*
X153178640Y-65867853D01*
X152952313Y-66016525D01*
X152699494Y-66391068D01*
X152610641Y-66834130D01*
X152610641Y-68634130D01*
X152694017Y-69063851D01*
X152942115Y-69441537D01*
X153316658Y-69694356D01*
X153587682Y-69748708D01*
X153508281Y-70144640D01*
X153508281Y-71060676D01*
X153442268Y-71159472D01*
X153280360Y-71973440D01*
X153280360Y-73355200D01*
X153442268Y-74169168D01*
X153516034Y-74279567D01*
X153231755Y-74089618D01*
X152704800Y-73984800D01*
X150443250Y-73984800D01*
X150454360Y-73973690D01*
X150454360Y-73625131D01*
X150385057Y-73457821D01*
X150626767Y-73299045D01*
X150879586Y-72924502D01*
X150968439Y-72481440D01*
X150968439Y-71465440D01*
X150885063Y-71035719D01*
X150750123Y-70830296D01*
X150879586Y-70638502D01*
X150968439Y-70195440D01*
X150968439Y-69179440D01*
X150885063Y-68749719D01*
X150636965Y-68372033D01*
X150262422Y-68119214D01*
X149819360Y-68030361D01*
X147787360Y-68030361D01*
X147632332Y-68060440D01*
X146338949Y-68060440D01*
X146108342Y-67829429D01*
X145326863Y-67504930D01*
X144480690Y-67504192D01*
X144468378Y-67509278D01*
X144460370Y-67509272D01*
X143775976Y-67792057D01*
X143703200Y-67742933D01*
X143703200Y-67459350D01*
X143703200Y-66887850D01*
X143703200Y-66547291D01*
X143606527Y-66313902D01*
X143427899Y-66135273D01*
X143194510Y-66038600D01*
X142941891Y-66038600D01*
X142728950Y-66038600D01*
X142570200Y-66197350D01*
X142570200Y-67046600D01*
X143544450Y-67046600D01*
X143703200Y-66887850D01*
X143703200Y-67459350D01*
X143544450Y-67300600D01*
X142570200Y-67300600D01*
X142570200Y-67320600D01*
X142316200Y-67320600D01*
X142316200Y-67300600D01*
X142316200Y-67046600D01*
X142316200Y-66197350D01*
X142255240Y-66136390D01*
X142255240Y-64886808D01*
X142255240Y-63781940D01*
X140912584Y-63781940D01*
X140789922Y-63996125D01*
X140808759Y-64099175D01*
X141079504Y-64571834D01*
X141510519Y-64904904D01*
X142036185Y-65047679D01*
X142255240Y-64886808D01*
X142255240Y-66136390D01*
X142157450Y-66038600D01*
X141944509Y-66038600D01*
X141691890Y-66038600D01*
X141458501Y-66135273D01*
X141279873Y-66313902D01*
X141183200Y-66547291D01*
X141183200Y-66887850D01*
X141341950Y-67046600D01*
X142316200Y-67046600D01*
X142316200Y-67300600D01*
X141341950Y-67300600D01*
X141183200Y-67459350D01*
X141183200Y-67742742D01*
X141010793Y-67855995D01*
X140966509Y-67921600D01*
X140954045Y-67921600D01*
X140949079Y-67918281D01*
X140949079Y-67800000D01*
X140865703Y-67370279D01*
X140617605Y-66992593D01*
X140445908Y-66876696D01*
X140445908Y-65564539D01*
X140421856Y-64914540D01*
X140219387Y-64425736D01*
X139952532Y-64327073D01*
X138979605Y-65300000D01*
X139952532Y-66272927D01*
X140219387Y-66174264D01*
X140445908Y-65564539D01*
X140445908Y-66876696D01*
X140243062Y-66739774D01*
X139800000Y-66650921D01*
X139699577Y-66650921D01*
X139772927Y-66452532D01*
X138800000Y-65479605D01*
X138785857Y-65493747D01*
X138735657Y-65443547D01*
X138688025Y-65204084D01*
X138785857Y-65106252D01*
X138800000Y-65120395D01*
X139772927Y-64147468D01*
X139674264Y-63880613D01*
X139064539Y-63654092D01*
X138414540Y-63678144D01*
X138203678Y-63765485D01*
X138203678Y-63227395D01*
X138184841Y-63124345D01*
X137914096Y-62651686D01*
X137483081Y-62318616D01*
X136957415Y-62175841D01*
X136738360Y-62336712D01*
X136738360Y-63441580D01*
X138081016Y-63441580D01*
X138203678Y-63227395D01*
X138203678Y-63765485D01*
X138136892Y-63793149D01*
X138081016Y-63695580D01*
X136738360Y-63695580D01*
X136738360Y-63715580D01*
X136484360Y-63715580D01*
X136484360Y-63695580D01*
X136464360Y-63695580D01*
X136464360Y-63441580D01*
X136484360Y-63441580D01*
X136484360Y-62336712D01*
X136337360Y-62228757D01*
X136337360Y-60397532D01*
X138834726Y-57900166D01*
X138835573Y-57898897D01*
X138952003Y-57931752D01*
X139743915Y-57139840D01*
X139729772Y-57125697D01*
X139909377Y-56946092D01*
X139923520Y-56960235D01*
X139937662Y-56946092D01*
X140117267Y-57125697D01*
X140103125Y-57139840D01*
X140117267Y-57153982D01*
X139937662Y-57333587D01*
X139923520Y-57319445D01*
X139131608Y-58111357D01*
X139199597Y-58352300D01*
X139349030Y-58405482D01*
X139199597Y-58467380D01*
X139131608Y-58708323D01*
X139923520Y-59500235D01*
X139937662Y-59486092D01*
X140117267Y-59665697D01*
X140103125Y-59679840D01*
X140117267Y-59693982D01*
X139937662Y-59873587D01*
X139923520Y-59859445D01*
X139743915Y-60039050D01*
X139743915Y-59679840D01*
X138952003Y-58887928D01*
X138711060Y-58955917D01*
X138526319Y-59475011D01*
X138554290Y-60025288D01*
X138711060Y-60403763D01*
X138952003Y-60471752D01*
X139743915Y-59679840D01*
X139743915Y-60039050D01*
X139131608Y-60651357D01*
X139199597Y-60892300D01*
X139718691Y-61077041D01*
X140268968Y-61049070D01*
X140318679Y-61028478D01*
X140213570Y-61556900D01*
X140356448Y-62275197D01*
X140763331Y-62884139D01*
X140931467Y-62996484D01*
X140808759Y-63210705D01*
X140789922Y-63313755D01*
X140912584Y-63527940D01*
X142255240Y-63527940D01*
X142255240Y-63507940D01*
X142509240Y-63507940D01*
X142509240Y-63527940D01*
X142529240Y-63527940D01*
X142529240Y-63781940D01*
X142509240Y-63781940D01*
X142509240Y-64886808D01*
X142728295Y-65047679D01*
X143253961Y-64904904D01*
X143684976Y-64571834D01*
X143891038Y-64212095D01*
X143995498Y-64282606D01*
X144438560Y-64371459D01*
X144938560Y-64371459D01*
X145368281Y-64288083D01*
X145745967Y-64039985D01*
X145889202Y-63827786D01*
X146021895Y-64029787D01*
X146396438Y-64282606D01*
X146839500Y-64371459D01*
X147339500Y-64371459D01*
X147769221Y-64288083D01*
X148126378Y-64053469D01*
X148195466Y-64220674D01*
X148793278Y-64819531D01*
X149574757Y-65144030D01*
X150420930Y-65144768D01*
X151202974Y-64821634D01*
X151801831Y-64223822D01*
X151803635Y-64219476D01*
X151804371Y-64218742D01*
X152128870Y-63437263D01*
X152129608Y-62591090D01*
X152128455Y-62588300D01*
X152170642Y-62588300D01*
X152170642Y-62429552D01*
X152329390Y-62588300D01*
X152669949Y-62588300D01*
X152903338Y-62491627D01*
X153081967Y-62312999D01*
X153178640Y-62079610D01*
X153178640Y-61826991D01*
X153178640Y-61614050D01*
X153019890Y-61455300D01*
X152170640Y-61455300D01*
X152170640Y-61475300D01*
X151916640Y-61475300D01*
X151916640Y-61455300D01*
X151896640Y-61455300D01*
X151896640Y-61201300D01*
X151916640Y-61201300D01*
X151916640Y-61181300D01*
X152170640Y-61181300D01*
X152170640Y-61201300D01*
X153019890Y-61201300D01*
X153178640Y-61042550D01*
X153178640Y-60829609D01*
X153178640Y-60576990D01*
X153081967Y-60343601D01*
X152903338Y-60164973D01*
X152669949Y-60068300D01*
X152329390Y-60068300D01*
X152170642Y-60227048D01*
X152170642Y-60068300D01*
X152137865Y-60068300D01*
X152179670Y-59967623D01*
X152180408Y-59121450D01*
X151922671Y-58497679D01*
X151982600Y-58497679D01*
X152109665Y-58473025D01*
X152232600Y-58497679D01*
X152782600Y-58497679D01*
X153212321Y-58414303D01*
X153230639Y-58402270D01*
X154328080Y-58402270D01*
X154328080Y-57153020D01*
X154169330Y-56994270D01*
X153931679Y-56994270D01*
X153931679Y-56522679D01*
X154757600Y-56522679D01*
X154945153Y-56486289D01*
X154729527Y-57005572D01*
X154582080Y-57153020D01*
X154582080Y-58402270D01*
X154602080Y-58402270D01*
X154602080Y-58656270D01*
X154582080Y-58656270D01*
X154582080Y-59905520D01*
X154740830Y-60064270D01*
X155128771Y-60064270D01*
X155381390Y-60064270D01*
X155614779Y-59967597D01*
X155793407Y-59788968D01*
X155890080Y-59555579D01*
X155890080Y-59521727D01*
X156364177Y-59718590D01*
X157210350Y-59719328D01*
X157992394Y-59396194D01*
X158591251Y-58798382D01*
X158915750Y-58016903D01*
X158916488Y-57170730D01*
X158777133Y-56833466D01*
X158868837Y-56815225D01*
X159122812Y-57368379D01*
X159529399Y-57745388D01*
X159406982Y-57809476D01*
X159108904Y-58166387D01*
X158970100Y-58610200D01*
X158970100Y-59260200D01*
X160028100Y-59260200D01*
X160028100Y-59240200D01*
X160282100Y-59240200D01*
X160282100Y-59260200D01*
X160302100Y-59260200D01*
X160302100Y-59514200D01*
G36*
X160607000Y-56527000D02*
X160587000Y-56527000D01*
X160587000Y-56547000D01*
X160333000Y-56547000D01*
X160333000Y-56527000D01*
X160313000Y-56527000D01*
X160313000Y-56273000D01*
X160333000Y-56273000D01*
X160333000Y-56253000D01*
X160571000Y-56253000D01*
X160607000Y-56424690D01*
X160607000Y-56527000D01*
X160607000Y-56527000D01*
G37*
X160607000Y-56527000D02*
X160587000Y-56527000D01*
X160587000Y-56547000D01*
X160333000Y-56547000D01*
X160333000Y-56527000D01*
X160313000Y-56527000D01*
X160313000Y-56273000D01*
X160333000Y-56273000D01*
X160333000Y-56253000D01*
X160571000Y-56253000D01*
X160607000Y-56424690D01*
X160607000Y-56527000D01*
M02*
