%FSLAX45Y45*%
G04 Gerber Fmt 4.5, Leading zero omitted, Abs format (unit mm)*
G04 Created by KiCad (PCBNEW (after 2015-mar-04 BZR unknown)-product) date 4/3/2016 5:34:34 PM*
%MOMM*%
G01*
G04 APERTURE LIST*
%ADD10C,0.127000*%
%ADD11C,0.100000*%
%ADD12C,0.200000*%
%ADD13C,0.300000*%
G04 APERTURE END LIST*
D10*
D11*
X10322306Y-2887472D02*
X10323830Y-2887472D01*
X10322306Y-7961630D02*
X10322306Y-2887472D01*
X10449560Y-8089646D02*
X10449306Y-8089900D01*
X19197320Y-8089646D02*
X10449560Y-8089646D01*
X19325844Y-7962900D02*
X19328638Y-7962900D01*
X19325844Y-2882392D02*
X19325844Y-7962900D01*
X19199352Y-2752090D02*
X19199352Y-2754376D01*
X10454132Y-2752090D02*
X19199352Y-2752090D01*
X10322560Y-7962392D02*
G75*
G03X10449560Y-8089392I127000J0D01*
G01*
X19198336Y-8089900D02*
G75*
G03X19326860Y-7961376I0J128524D01*
G01*
X19326860Y-2880868D02*
G75*
G03X19198336Y-2753360I-128016J-508D01*
G01*
X10452100Y-2752344D02*
G75*
G03X10322560Y-2886964I2540J-132080D01*
G01*
X17922240Y-6464300D02*
X17922240Y-7086600D01*
X18361660Y-6464300D02*
X17922240Y-6464300D01*
X18361660Y-7086600D02*
X18361660Y-6464300D01*
X17924780Y-7086600D02*
X18361660Y-7086600D01*
X12394692Y-7895844D02*
X12396216Y-7895844D01*
X12394692Y-2897632D02*
X12394692Y-7895844D01*
X12693650Y-2897632D02*
X12394692Y-2897632D01*
X12693650Y-7895844D02*
X12693650Y-2897632D01*
X12394184Y-7895844D02*
X12693650Y-7895844D01*
X19223482Y-5936742D02*
X19223736Y-5936742D01*
X19223482Y-5943600D02*
X19223482Y-5936742D01*
X18253710Y-5943600D02*
X19223482Y-5943600D01*
X17666208Y-5356098D02*
X18253710Y-5943600D01*
X17666208Y-2832608D02*
X17666208Y-5356098D01*
X17827752Y-2832608D02*
X17666208Y-2832608D01*
X17827752Y-5192776D02*
X17827752Y-2832608D01*
X18412460Y-5777484D02*
X17827752Y-5192776D01*
X19223990Y-5777484D02*
X18412460Y-5777484D01*
X19223990Y-5933440D02*
X19223990Y-5777484D01*
X10325100Y-2753360D02*
X10322560Y-2753360D01*
D12*
X13359900Y-5497330D02*
X13360900Y-5498330D01*
X13360900Y-5497330D02*
X13359900Y-5498330D01*
D13*
X10588735Y-8560614D02*
X10588735Y-8260614D01*
X10660163Y-8260614D01*
X10703020Y-8274900D01*
X10731592Y-8303471D01*
X10745877Y-8332043D01*
X10760163Y-8389186D01*
X10760163Y-8432043D01*
X10745877Y-8489186D01*
X10731592Y-8517757D01*
X10703020Y-8546329D01*
X10660163Y-8560614D01*
X10588735Y-8560614D01*
X10888735Y-8560614D02*
X10888735Y-8360614D01*
X10888735Y-8417757D02*
X10903020Y-8389186D01*
X10917306Y-8374900D01*
X10945877Y-8360614D01*
X10974449Y-8360614D01*
X11074449Y-8560614D02*
X11074449Y-8360614D01*
X11074449Y-8260614D02*
X11060163Y-8274900D01*
X11074449Y-8289186D01*
X11088735Y-8274900D01*
X11074449Y-8260614D01*
X11074449Y-8289186D01*
X11260163Y-8560614D02*
X11231592Y-8546329D01*
X11217306Y-8517757D01*
X11217306Y-8260614D01*
X11417306Y-8560614D02*
X11388734Y-8546329D01*
X11374449Y-8517757D01*
X11374449Y-8260614D01*
X11760163Y-8560614D02*
X11760163Y-8260614D01*
X11860163Y-8474900D01*
X11960163Y-8260614D01*
X11960163Y-8560614D01*
X12231592Y-8560614D02*
X12231592Y-8403472D01*
X12217306Y-8374900D01*
X12188734Y-8360614D01*
X12131592Y-8360614D01*
X12103020Y-8374900D01*
X12231592Y-8546329D02*
X12203020Y-8560614D01*
X12131592Y-8560614D01*
X12103020Y-8546329D01*
X12088734Y-8517757D01*
X12088734Y-8489186D01*
X12103020Y-8460614D01*
X12131592Y-8446329D01*
X12203020Y-8446329D01*
X12231592Y-8432043D01*
X12374449Y-8360614D02*
X12374449Y-8660614D01*
X12374449Y-8374900D02*
X12403020Y-8360614D01*
X12460163Y-8360614D01*
X12488734Y-8374900D01*
X12503020Y-8389186D01*
X12517306Y-8417757D01*
X12517306Y-8503472D01*
X12503020Y-8532043D01*
X12488734Y-8546329D01*
X12460163Y-8560614D01*
X12403020Y-8560614D01*
X12374449Y-8546329D01*
X12645877Y-8532043D02*
X12660163Y-8546329D01*
X12645877Y-8560614D01*
X12631592Y-8546329D01*
X12645877Y-8532043D01*
X12645877Y-8560614D01*
X12645877Y-8374900D02*
X12660163Y-8389186D01*
X12645877Y-8403472D01*
X12631592Y-8389186D01*
X12645877Y-8374900D01*
X12645877Y-8403472D01*
X10316306Y-9054400D02*
X10317306Y-9055400D01*
X10317306Y-9054400D02*
X10316306Y-9055400D01*
X10645877Y-8890614D02*
X10674449Y-8890614D01*
X10703020Y-8904900D01*
X10717306Y-8919186D01*
X10731592Y-8947757D01*
X10745877Y-9004900D01*
X10745877Y-9076329D01*
X10731592Y-9133472D01*
X10717306Y-9162043D01*
X10703020Y-9176329D01*
X10674449Y-9190614D01*
X10645877Y-9190614D01*
X10617306Y-9176329D01*
X10603020Y-9162043D01*
X10588735Y-9133472D01*
X10574449Y-9076329D01*
X10574449Y-9004900D01*
X10588735Y-8947757D01*
X10603020Y-8919186D01*
X10617306Y-8904900D01*
X10645877Y-8890614D01*
X10874449Y-9162043D02*
X10888735Y-9176329D01*
X10874449Y-9190614D01*
X10860163Y-9176329D01*
X10874449Y-9162043D01*
X10874449Y-9190614D01*
X11074449Y-8890614D02*
X11103020Y-8890614D01*
X11131592Y-8904900D01*
X11145877Y-8919186D01*
X11160163Y-8947757D01*
X11174449Y-9004900D01*
X11174449Y-9076329D01*
X11160163Y-9133472D01*
X11145877Y-9162043D01*
X11131592Y-9176329D01*
X11103020Y-9190614D01*
X11074449Y-9190614D01*
X11045877Y-9176329D01*
X11031592Y-9162043D01*
X11017306Y-9133472D01*
X11003020Y-9076329D01*
X11003020Y-9004900D01*
X11017306Y-8947757D01*
X11031592Y-8919186D01*
X11045877Y-8904900D01*
X11074449Y-8890614D01*
X11460163Y-9190614D02*
X11288734Y-9190614D01*
X11374449Y-9190614D02*
X11374449Y-8890614D01*
X11345877Y-8933472D01*
X11317306Y-8962043D01*
X11288734Y-8976329D01*
X11588734Y-9190614D02*
X11588734Y-8990614D01*
X11588734Y-9019186D02*
X11603020Y-9004900D01*
X11631592Y-8990614D01*
X11674449Y-8990614D01*
X11703020Y-9004900D01*
X11717306Y-9033472D01*
X11717306Y-9190614D01*
X11717306Y-9033472D02*
X11731592Y-9004900D01*
X11760163Y-8990614D01*
X11803020Y-8990614D01*
X11831592Y-9004900D01*
X11845877Y-9033472D01*
X11845877Y-9190614D01*
X11988734Y-9190614D02*
X11988734Y-8990614D01*
X11988734Y-9019186D02*
X12003020Y-9004900D01*
X12031592Y-8990614D01*
X12074449Y-8990614D01*
X12103020Y-9004900D01*
X12117306Y-9033472D01*
X12117306Y-9190614D01*
X12117306Y-9033472D02*
X12131592Y-9004900D01*
X12160163Y-8990614D01*
X12203020Y-8990614D01*
X12231592Y-9004900D01*
X12245877Y-9033472D01*
X12245877Y-9190614D01*
X12831592Y-8876329D02*
X12574449Y-9262043D01*
X13217306Y-8890614D02*
X13245877Y-8890614D01*
X13274449Y-8904900D01*
X13288734Y-8919186D01*
X13303020Y-8947757D01*
X13317306Y-9004900D01*
X13317306Y-9076329D01*
X13303020Y-9133472D01*
X13288734Y-9162043D01*
X13274449Y-9176329D01*
X13245877Y-9190614D01*
X13217306Y-9190614D01*
X13188734Y-9176329D01*
X13174449Y-9162043D01*
X13160163Y-9133472D01*
X13145877Y-9076329D01*
X13145877Y-9004900D01*
X13160163Y-8947757D01*
X13174449Y-8919186D01*
X13188734Y-8904900D01*
X13217306Y-8890614D01*
X13445877Y-9162043D02*
X13460163Y-9176329D01*
X13445877Y-9190614D01*
X13431592Y-9176329D01*
X13445877Y-9162043D01*
X13445877Y-9190614D01*
X13645877Y-8890614D02*
X13674449Y-8890614D01*
X13703020Y-8904900D01*
X13717306Y-8919186D01*
X13731591Y-8947757D01*
X13745877Y-9004900D01*
X13745877Y-9076329D01*
X13731591Y-9133472D01*
X13717306Y-9162043D01*
X13703020Y-9176329D01*
X13674449Y-9190614D01*
X13645877Y-9190614D01*
X13617306Y-9176329D01*
X13603020Y-9162043D01*
X13588734Y-9133472D01*
X13574449Y-9076329D01*
X13574449Y-9004900D01*
X13588734Y-8947757D01*
X13603020Y-8919186D01*
X13617306Y-8904900D01*
X13645877Y-8890614D01*
X13931591Y-8890614D02*
X13960163Y-8890614D01*
X13988734Y-8904900D01*
X14003020Y-8919186D01*
X14017306Y-8947757D01*
X14031591Y-9004900D01*
X14031591Y-9076329D01*
X14017306Y-9133472D01*
X14003020Y-9162043D01*
X13988734Y-9176329D01*
X13960163Y-9190614D01*
X13931591Y-9190614D01*
X13903020Y-9176329D01*
X13888734Y-9162043D01*
X13874449Y-9133472D01*
X13860163Y-9076329D01*
X13860163Y-9004900D01*
X13874449Y-8947757D01*
X13888734Y-8919186D01*
X13903020Y-8904900D01*
X13931591Y-8890614D01*
X14217306Y-8890614D02*
X14245877Y-8890614D01*
X14274449Y-8904900D01*
X14288734Y-8919186D01*
X14303020Y-8947757D01*
X14317306Y-9004900D01*
X14317306Y-9076329D01*
X14303020Y-9133472D01*
X14288734Y-9162043D01*
X14274449Y-9176329D01*
X14245877Y-9190614D01*
X14217306Y-9190614D01*
X14188734Y-9176329D01*
X14174449Y-9162043D01*
X14160163Y-9133472D01*
X14145877Y-9076329D01*
X14145877Y-9004900D01*
X14160163Y-8947757D01*
X14174449Y-8919186D01*
X14188734Y-8904900D01*
X14217306Y-8890614D01*
X14431592Y-8890614D02*
X14431592Y-8947757D01*
X14545877Y-8890614D02*
X14545877Y-8947757D01*
X14988734Y-9304900D02*
X14974449Y-9290614D01*
X14945877Y-9247757D01*
X14931591Y-9219186D01*
X14917306Y-9176329D01*
X14903020Y-9104900D01*
X14903020Y-9047757D01*
X14917306Y-8976329D01*
X14931591Y-8933472D01*
X14945877Y-8904900D01*
X14974449Y-8862043D01*
X14988734Y-8847757D01*
X15260163Y-9190614D02*
X15088734Y-9190614D01*
X15174449Y-9190614D02*
X15174449Y-8890614D01*
X15145877Y-8933472D01*
X15117306Y-8962043D01*
X15088734Y-8976329D01*
X15617306Y-9190614D02*
X15617306Y-8890614D01*
X15745877Y-9190614D02*
X15745877Y-9033472D01*
X15731591Y-9004900D01*
X15703020Y-8990614D01*
X15660163Y-8990614D01*
X15631591Y-9004900D01*
X15617306Y-9019186D01*
X15931591Y-9190614D02*
X15903020Y-9176329D01*
X15888734Y-9162043D01*
X15874449Y-9133472D01*
X15874449Y-9047757D01*
X15888734Y-9019186D01*
X15903020Y-9004900D01*
X15931591Y-8990614D01*
X15974449Y-8990614D01*
X16003020Y-9004900D01*
X16017306Y-9019186D01*
X16031591Y-9047757D01*
X16031591Y-9133472D01*
X16017306Y-9162043D01*
X16003020Y-9176329D01*
X15974449Y-9190614D01*
X15931591Y-9190614D01*
X16203020Y-9190614D02*
X16174449Y-9176329D01*
X16160163Y-9147757D01*
X16160163Y-8890614D01*
X16431592Y-9176329D02*
X16403020Y-9190614D01*
X16345877Y-9190614D01*
X16317306Y-9176329D01*
X16303020Y-9147757D01*
X16303020Y-9033472D01*
X16317306Y-9004900D01*
X16345877Y-8990614D01*
X16403020Y-8990614D01*
X16431592Y-9004900D01*
X16445877Y-9033472D01*
X16445877Y-9062043D01*
X16303020Y-9090614D01*
X16545877Y-9304900D02*
X16560163Y-9290614D01*
X16588734Y-9247757D01*
X16603020Y-9219186D01*
X16617306Y-9176329D01*
X16631592Y-9104900D01*
X16631592Y-9047757D01*
X16617306Y-8976329D01*
X16603020Y-8933472D01*
X16588734Y-8904900D01*
X16560163Y-8862043D01*
X16545877Y-8847757D01*
M02*
