%FSLAX45Y45*%
G04 Gerber Fmt 4.5, Leading zero omitted, Abs format (unit mm)*
G04 Created by KiCad (PCBNEW (after 2015-mar-04 BZR unknown)-product) date 4/3/2016 5:34:34 PM*
%MOMM*%
G01*
G04 APERTURE LIST*
%ADD10C,0.127000*%
%ADD11C,0.100000*%
%ADD12C,0.200000*%
%ADD13C,0.300000*%
G04 APERTURE END LIST*
D10*
D11*
X10322306Y-2887472D02*
X10323830Y-2887472D01*
X10322306Y-7961630D02*
X10322306Y-2887472D01*
X10449560Y-8089646D02*
X10449306Y-8089900D01*
X19197320Y-8089646D02*
X10449560Y-8089646D01*
X19325844Y-7962900D02*
X19328638Y-7962900D01*
X19325844Y-2882392D02*
X19325844Y-7962900D01*
X19199352Y-2752090D02*
X19199352Y-2754376D01*
X10454132Y-2752090D02*
X19199352Y-2752090D01*
X10322560Y-7962392D02*
G75*
G03X10449560Y-8089392I127000J0D01*
G01*
X19198336Y-8089900D02*
G75*
G03X19326860Y-7961376I0J128524D01*
G01*
X19326860Y-2880868D02*
G75*
G03X19198336Y-2753360I-128016J-508D01*
G01*
X10452100Y-2752344D02*
G75*
G03X10322560Y-2886964I2540J-132080D01*
G01*
X17922240Y-6464300D02*
X17922240Y-7086600D01*
X18361660Y-6464300D02*
X17922240Y-6464300D01*
X18361660Y-7086600D02*
X18361660Y-6464300D01*
X17924780Y-7086600D02*
X18361660Y-7086600D01*
X12394692Y-7895844D02*
X12396216Y-7895844D01*
X12394692Y-2897632D02*
X12394692Y-7895844D01*
X12693650Y-2897632D02*
X12394692Y-2897632D01*
X12693650Y-7895844D02*
X12693650Y-2897632D01*
X12394184Y-7895844D02*
X12693650Y-7895844D01*
X19223482Y-5936742D02*
X19223736Y-5936742D01*
X19223482Y-5943600D02*
X19223482Y-5936742D01*
X18253710Y-5943600D02*
X19223482Y-5943600D01*
X17666208Y-5356098D02*
X18253710Y-5943600D01*
X17666208Y-2832608D02*
X17666208Y-5356098D01*
X17827752Y-2832608D02*
X17666208Y-2832608D01*
X17827752Y-5192776D02*
X17827752Y-2832608D01*
X18412460Y-5777484D02*
X17827752Y-5192776D01*
X19223990Y-5777484D02*
X18412460Y-5777484D01*
X19223990Y-5933440D02*
X19223990Y-5777484D01*
X10325100Y-2753360D02*
X10322560Y-2753360D01*
D12*
X13952352Y-4403984D02*
X14032352Y-4483984D01*
X14032352Y-4403984D02*
X13952352Y-4483984D01*
X13952352Y-4657984D02*
X14032352Y-4737984D01*
X14032352Y-4657984D02*
X13952352Y-4737984D01*
X13952352Y-4911984D02*
X14032352Y-4991984D01*
X14032352Y-4911984D02*
X13952352Y-4991984D01*
X13952352Y-5165984D02*
X14032352Y-5245984D01*
X14032352Y-5165984D02*
X13952352Y-5245984D01*
X13952352Y-5419984D02*
X14032352Y-5499984D01*
X14032352Y-5419984D02*
X13952352Y-5499984D01*
X13952352Y-5673984D02*
X14032352Y-5753984D01*
X14032352Y-5673984D02*
X13952352Y-5753984D01*
X13952352Y-5927984D02*
X14032352Y-6007984D01*
X14032352Y-5927984D02*
X13952352Y-6007984D01*
X17434438Y-4215516D02*
X17514438Y-4295516D01*
X17514438Y-4215516D02*
X17434438Y-4295516D01*
X17434438Y-4469516D02*
X17514438Y-4549516D01*
X17514438Y-4469516D02*
X17434438Y-4549516D01*
X17436470Y-4879980D02*
X17516470Y-4959980D01*
X17516470Y-4879980D02*
X17436470Y-4959980D01*
X17436470Y-5133980D02*
X17516470Y-5213980D01*
X17516470Y-5133980D02*
X17436470Y-5213980D01*
X17440026Y-2871602D02*
X17520026Y-2951602D01*
X17520026Y-2871602D02*
X17440026Y-2951602D01*
X17440026Y-3125602D02*
X17520026Y-3205602D01*
X17520026Y-3125602D02*
X17440026Y-3205602D01*
X17440026Y-3544956D02*
X17520026Y-3624956D01*
X17520026Y-3544956D02*
X17440026Y-3624956D01*
X17440026Y-3798956D02*
X17520026Y-3878956D01*
X17520026Y-3798956D02*
X17440026Y-3878956D01*
X18196438Y-4215516D02*
X18276438Y-4295516D01*
X18276438Y-4215516D02*
X18196438Y-4295516D01*
X18196438Y-4469516D02*
X18276438Y-4549516D01*
X18276438Y-4469516D02*
X18196438Y-4549516D01*
X18198470Y-4879980D02*
X18278470Y-4959980D01*
X18278470Y-4879980D02*
X18198470Y-4959980D01*
X18198470Y-5133980D02*
X18278470Y-5213980D01*
X18278470Y-5133980D02*
X18198470Y-5213980D01*
X18202026Y-2871602D02*
X18282026Y-2951602D01*
X18282026Y-2871602D02*
X18202026Y-2951602D01*
X18202026Y-3125602D02*
X18282026Y-3205602D01*
X18282026Y-3125602D02*
X18202026Y-3205602D01*
X18202026Y-3544956D02*
X18282026Y-3624956D01*
X18282026Y-3544956D02*
X18202026Y-3624956D01*
X18202026Y-3798956D02*
X18282026Y-3878956D01*
X18282026Y-3798956D02*
X18202026Y-3878956D01*
X13711136Y-6356858D02*
G75*
G03X13711136Y-6356858I-50000J0D01*
G01*
X13711136Y-6566662D02*
G75*
G03X13711136Y-6566662I-50000J0D01*
G01*
X13833310Y-7277100D02*
G75*
G03X13833310Y-7277100I-50000J0D01*
G01*
X13833310Y-7527100D02*
G75*
G03X13833310Y-7527100I-50000J0D01*
G01*
X13930000Y-6530000D02*
G75*
G03X13930000Y-6530000I-50000J0D01*
G01*
X13930000Y-6880000D02*
G75*
G03X13930000Y-6880000I-50000J0D01*
G01*
X14288224Y-6155690D02*
G75*
G03X14288224Y-6155690I-50000J0D01*
G01*
X14288224Y-6365494D02*
G75*
G03X14288224Y-6365494I-50000J0D01*
G01*
X14491424Y-4768596D02*
G75*
G03X14491424Y-4768596I-50000J0D01*
G01*
X14538160Y-6963664D02*
G75*
G03X14538160Y-6963664I-50000J0D01*
G01*
X14540192Y-6963156D02*
G75*
G03X14540192Y-6963156I-50000J0D01*
G01*
X14588960Y-7284720D02*
G75*
G03X14588960Y-7284720I-50000J0D01*
G01*
X14588960Y-7534720D02*
G75*
G03X14588960Y-7534720I-50000J0D01*
G01*
X15005038Y-7686504D02*
G75*
G03X15005038Y-7686504I-50000J0D01*
G01*
X15049970Y-6301740D02*
G75*
G03X15049970Y-6301740I-50000J0D01*
G01*
X15050224Y-6301232D02*
G75*
G03X15050224Y-6301232I-50000J0D01*
G01*
X15054288Y-5955030D02*
G75*
G03X15054288Y-5955030I-50000J0D01*
G01*
X15055304Y-5954268D02*
G75*
G03X15055304Y-5954268I-50000J0D01*
G01*
X15505038Y-7686504D02*
G75*
G03X15505038Y-7686504I-50000J0D01*
G01*
X15728912Y-5759196D02*
G75*
G03X15728912Y-5759196I-50000J0D01*
G01*
X15728912Y-5759196D02*
G75*
G03X15728912Y-5759196I-50000J0D01*
G01*
X16080000Y-4670000D02*
G75*
G03X16080000Y-4670000I-50000J0D01*
G01*
X16925252Y-4010406D02*
G75*
G03X16925252Y-4010406I-50000J0D01*
G01*
X17236148Y-7784084D02*
G75*
G03X17236148Y-7784084I-50000J0D01*
G01*
X17236148Y-7993888D02*
G75*
G03X17236148Y-7993888I-50000J0D01*
G01*
X17318444Y-4012692D02*
G75*
G03X17318444Y-4012692I-50000J0D01*
G01*
X19301930Y-6156960D02*
G75*
G03X19301930Y-6156960I-50000J0D01*
G01*
X19301930Y-6410960D02*
G75*
G03X19301930Y-6410960I-50000J0D01*
G01*
X19301930Y-6664960D02*
G75*
G03X19301930Y-6664960I-50000J0D01*
G01*
X19301930Y-6918960D02*
G75*
G03X19301930Y-6918960I-50000J0D01*
G01*
X19301930Y-7172960D02*
G75*
G03X19301930Y-7172960I-50000J0D01*
G01*
X16520000Y-4527962D02*
X16520000Y-4628038D01*
X16469962Y-4578000D02*
X16570038Y-4578000D01*
X16522794Y-4856130D02*
X16522794Y-4956206D01*
X16472756Y-4906168D02*
X16572832Y-4906168D01*
X16739492Y-4777316D02*
X16739492Y-4877392D01*
X16689454Y-4827354D02*
X16789530Y-4827354D01*
X16740000Y-4357962D02*
X16740000Y-4458038D01*
X16689962Y-4408000D02*
X16790038Y-4408000D01*
X16970000Y-4187962D02*
X16970000Y-4288038D01*
X16919962Y-4238000D02*
X17020038Y-4238000D01*
X16970508Y-4683516D02*
X16970508Y-4783592D01*
X16920470Y-4733554D02*
X17020546Y-4733554D01*
X13735665Y-7800447D02*
X13735665Y-7728605D01*
X13663823Y-7728605D01*
X13663823Y-7800447D01*
X13735665Y-7800447D01*
X13989665Y-7800447D02*
X13989665Y-7728605D01*
X13917823Y-7728605D01*
X13917823Y-7800447D01*
X13989665Y-7800447D01*
X14243665Y-7800447D02*
X14243665Y-7728605D01*
X14171823Y-7728605D01*
X14171823Y-7800447D01*
X14243665Y-7800447D01*
X14440261Y-3492861D02*
X14440261Y-3421019D01*
X14368419Y-3421019D01*
X14368419Y-3492861D01*
X14440261Y-3492861D01*
X14497665Y-7800447D02*
X14497665Y-7728605D01*
X14425823Y-7728605D01*
X14425823Y-7800447D01*
X14497665Y-7800447D01*
X14694261Y-3492861D02*
X14694261Y-3421019D01*
X14622419Y-3421019D01*
X14622419Y-3492861D01*
X14694261Y-3492861D01*
X14948261Y-3492861D02*
X14948261Y-3421019D01*
X14876419Y-3421019D01*
X14876419Y-3492861D01*
X14948261Y-3492861D01*
X15202261Y-3492861D02*
X15202261Y-3421019D01*
X15130419Y-3421019D01*
X15130419Y-3492861D01*
X15202261Y-3492861D01*
X15456261Y-3492861D02*
X15456261Y-3421019D01*
X15384419Y-3421019D01*
X15384419Y-3492861D01*
X15456261Y-3492861D01*
X15710261Y-3492861D02*
X15710261Y-3421019D01*
X15638419Y-3421019D01*
X15638419Y-3492861D01*
X15710261Y-3492861D01*
X15964261Y-3492861D02*
X15964261Y-3421019D01*
X15892419Y-3421019D01*
X15892419Y-3492861D01*
X15964261Y-3492861D01*
X16037159Y-7912207D02*
X16037159Y-7840365D01*
X15965317Y-7840365D01*
X15965317Y-7912207D01*
X16037159Y-7912207D01*
X16075921Y-4945921D02*
X16075921Y-4874079D01*
X16004079Y-4874079D01*
X16004079Y-4945921D01*
X16075921Y-4945921D01*
X16081921Y-5185921D02*
X16081921Y-5114079D01*
X16010079Y-5114079D01*
X16010079Y-5185921D01*
X16081921Y-5185921D01*
X16081921Y-5675921D02*
X16081921Y-5604079D01*
X16010079Y-5604079D01*
X16010079Y-5675921D01*
X16081921Y-5675921D01*
X16085921Y-5425921D02*
X16085921Y-5354079D01*
X16014079Y-5354079D01*
X16014079Y-5425921D01*
X16085921Y-5425921D01*
X16218261Y-3492861D02*
X16218261Y-3421019D01*
X16146419Y-3421019D01*
X16146419Y-3492861D01*
X16218261Y-3492861D01*
X16291159Y-7912207D02*
X16291159Y-7840365D01*
X16219317Y-7840365D01*
X16219317Y-7912207D01*
X16291159Y-7912207D01*
X16329921Y-4945921D02*
X16329921Y-4874079D01*
X16258079Y-4874079D01*
X16258079Y-4945921D01*
X16329921Y-4945921D01*
X16335921Y-5185921D02*
X16335921Y-5114079D01*
X16264079Y-5114079D01*
X16264079Y-5185921D01*
X16335921Y-5185921D01*
X16335921Y-5675921D02*
X16335921Y-5604079D01*
X16264079Y-5604079D01*
X16264079Y-5675921D01*
X16335921Y-5675921D01*
X16339921Y-5425921D02*
X16339921Y-5354079D01*
X16268079Y-5354079D01*
X16268079Y-5425921D01*
X16339921Y-5425921D01*
X16545159Y-7912207D02*
X16545159Y-7840365D01*
X16473317Y-7840365D01*
X16473317Y-7912207D01*
X16545159Y-7912207D01*
X19020643Y-6186785D02*
X19020643Y-6114943D01*
X18948801Y-6114943D01*
X18948801Y-6186785D01*
X19020643Y-6186785D01*
X19020643Y-6440785D02*
X19020643Y-6368943D01*
X18948801Y-6368943D01*
X18948801Y-6440785D01*
X19020643Y-6440785D01*
X19020643Y-6694785D02*
X19020643Y-6622943D01*
X18948801Y-6622943D01*
X18948801Y-6694785D01*
X19020643Y-6694785D01*
X19020643Y-6948785D02*
X19020643Y-6876943D01*
X18948801Y-6876943D01*
X18948801Y-6948785D01*
X19020643Y-6948785D01*
X19020643Y-7202785D02*
X19020643Y-7130943D01*
X18948801Y-7130943D01*
X18948801Y-7202785D01*
X19020643Y-7202785D01*
X19020643Y-7456785D02*
X19020643Y-7384943D01*
X18948801Y-7384943D01*
X18948801Y-7456785D01*
X19020643Y-7456785D01*
X19020643Y-7710785D02*
X19020643Y-7638943D01*
X18948801Y-7638943D01*
X18948801Y-7710785D01*
X19020643Y-7710785D01*
X10886000Y-4073700D02*
X10961000Y-3998700D01*
X10886000Y-3923700D01*
X10811000Y-3998700D01*
X10886000Y-4073700D01*
X10886000Y-4569000D02*
X10961000Y-4494000D01*
X10886000Y-4419000D01*
X10811000Y-4494000D01*
X10886000Y-4569000D01*
X10888980Y-4827340D02*
X10963980Y-4752340D01*
X10888980Y-4677340D01*
X10813980Y-4752340D01*
X10888980Y-4827340D01*
X10896000Y-5819700D02*
X10971000Y-5744700D01*
X10896000Y-5669700D01*
X10821000Y-5744700D01*
X10896000Y-5819700D01*
X10896000Y-6327700D02*
X10971000Y-6252700D01*
X10896000Y-6177700D01*
X10821000Y-6252700D01*
X10896000Y-6327700D01*
X10896000Y-6823000D02*
X10971000Y-6748000D01*
X10896000Y-6673000D01*
X10821000Y-6748000D01*
X10896000Y-6823000D01*
X10896600Y-4075500D02*
X10971600Y-4000500D01*
X10896600Y-3925500D01*
X10821600Y-4000500D01*
X10896600Y-4075500D01*
X10896600Y-5576640D02*
X10971600Y-5501640D01*
X10896600Y-5426640D01*
X10821600Y-5501640D01*
X10896600Y-5576640D01*
X10896600Y-6325940D02*
X10971600Y-6250940D01*
X10896600Y-6175940D01*
X10821600Y-6250940D01*
X10896600Y-6325940D01*
X10896600Y-7077780D02*
X10971600Y-7002780D01*
X10896600Y-6927780D01*
X10821600Y-7002780D01*
X10896600Y-7077780D01*
X11193780Y-3125540D02*
X11268780Y-3050540D01*
X11193780Y-2975540D01*
X11118780Y-3050540D01*
X11193780Y-3125540D01*
X11686032Y-5279968D02*
X11761032Y-5204968D01*
X11686032Y-5129968D01*
X11611032Y-5204968D01*
X11686032Y-5279968D01*
X11691112Y-6484436D02*
X11766112Y-6409436D01*
X11691112Y-6334436D01*
X11616112Y-6409436D01*
X11691112Y-6484436D01*
X11691112Y-7674680D02*
X11766112Y-7599680D01*
X11691112Y-7524680D01*
X11616112Y-7599680D01*
X11691112Y-7674680D01*
X11696700Y-4053656D02*
X11771700Y-3978656D01*
X11696700Y-3903656D01*
X11621700Y-3978656D01*
X11696700Y-4053656D01*
X11940032Y-4520000D02*
X12015032Y-4445000D01*
X11940032Y-4370000D01*
X11865032Y-4445000D01*
X11940032Y-4520000D01*
X11945112Y-5724468D02*
X12020112Y-5649468D01*
X11945112Y-5574468D01*
X11870112Y-5649468D01*
X11945112Y-5724468D01*
X11945112Y-6914712D02*
X12020112Y-6839712D01*
X11945112Y-6764712D01*
X11870112Y-6839712D01*
X11945112Y-6914712D01*
X11950700Y-3293688D02*
X12025700Y-3218688D01*
X11950700Y-3143688D01*
X11875700Y-3218688D01*
X11950700Y-3293688D01*
X13210286Y-5279714D02*
X13285286Y-5204714D01*
X13210286Y-5129714D01*
X13135286Y-5204714D01*
X13210286Y-5279714D01*
X13210506Y-4520028D02*
X13285506Y-4445028D01*
X13210506Y-4370028D01*
X13135506Y-4445028D01*
X13210506Y-4520028D01*
X13215366Y-6484182D02*
X13290366Y-6409182D01*
X13215366Y-6334182D01*
X13140366Y-6409182D01*
X13215366Y-6484182D01*
X13215366Y-7674426D02*
X13290366Y-7599426D01*
X13215366Y-7524426D01*
X13140366Y-7599426D01*
X13215366Y-7674426D01*
X13215586Y-5724496D02*
X13290586Y-5649496D01*
X13215586Y-5574496D01*
X13140586Y-5649496D01*
X13215586Y-5724496D01*
X13215586Y-6914740D02*
X13290586Y-6839740D01*
X13215586Y-6764740D01*
X13140586Y-6839740D01*
X13215586Y-6914740D01*
X13220954Y-4053402D02*
X13295954Y-3978402D01*
X13220954Y-3903402D01*
X13145954Y-3978402D01*
X13220954Y-4053402D01*
X13221174Y-3293716D02*
X13296174Y-3218716D01*
X13221174Y-3143716D01*
X13146174Y-3218716D01*
X13221174Y-3293716D01*
X13542800Y-3209000D02*
X13617800Y-3134000D01*
X13542800Y-3059000D01*
X13467800Y-3134000D01*
X13542800Y-3209000D01*
X14050800Y-3209000D02*
X14125800Y-3134000D01*
X14050800Y-3059000D01*
X13975800Y-3134000D01*
X14050800Y-3209000D01*
X14546100Y-3209000D02*
X14621100Y-3134000D01*
X14546100Y-3059000D01*
X14471100Y-3134000D01*
X14546100Y-3209000D01*
X15041400Y-3209000D02*
X15116400Y-3134000D01*
X15041400Y-3059000D01*
X14966400Y-3134000D01*
X15041400Y-3209000D01*
X15549400Y-3209000D02*
X15624400Y-3134000D01*
X15549400Y-3059000D01*
X15474400Y-3134000D01*
X15549400Y-3209000D01*
X16044700Y-3209000D02*
X16119700Y-3134000D01*
X16044700Y-3059000D01*
X15969700Y-3134000D01*
X16044700Y-3209000D01*
X16552700Y-3209000D02*
X16627700Y-3134000D01*
X16552700Y-3059000D01*
X16477700Y-3134000D01*
X16552700Y-3209000D01*
X17048000Y-3209000D02*
X17123000Y-3134000D01*
X17048000Y-3059000D01*
X16973000Y-3134000D01*
X17048000Y-3209000D01*
X18464784Y-3001080D02*
X18539784Y-2926080D01*
X18464784Y-2851080D01*
X18389784Y-2926080D01*
X18464784Y-3001080D01*
X18905220Y-3637350D02*
X18980220Y-3562350D01*
X18905220Y-3487350D01*
X18830220Y-3562350D01*
X18905220Y-3637350D01*
X18905220Y-4132650D02*
X18980220Y-4057650D01*
X18905220Y-3982650D01*
X18830220Y-4057650D01*
X18905220Y-4132650D01*
X18905220Y-4640650D02*
X18980220Y-4565650D01*
X18905220Y-4490650D01*
X18830220Y-4565650D01*
X18905220Y-4640650D01*
X18905220Y-5135950D02*
X18980220Y-5060950D01*
X18905220Y-4985950D01*
X18830220Y-5060950D01*
X18905220Y-5135950D01*
X18905220Y-5643950D02*
X18980220Y-5568950D01*
X18905220Y-5493950D01*
X18830220Y-5568950D01*
X18905220Y-5643950D01*
X10439260Y-2873870D02*
X10739260Y-3173870D01*
X10739260Y-2873870D02*
X10439260Y-3173870D01*
X10739260Y-3023870D02*
G75*
G03X10739260Y-3023870I-150000J0D01*
G01*
X10566260Y-7699870D02*
X10866260Y-7999870D01*
X10866260Y-7699870D02*
X10566260Y-7999870D01*
X10866260Y-7849870D02*
G75*
G03X10866260Y-7849870I-150000J0D01*
G01*
X12730000Y-7630000D02*
X13030000Y-7930000D01*
X13030000Y-7630000D02*
X12730000Y-7930000D01*
X13030000Y-7780000D02*
G75*
G03X13030000Y-7780000I-150000J0D01*
G01*
X12750000Y-2930000D02*
X13050000Y-3230000D01*
X13050000Y-2930000D02*
X12750000Y-3230000D01*
X13050000Y-3080000D02*
G75*
G03X13050000Y-3080000I-150000J0D01*
G01*
X16788752Y-3320656D02*
X17088752Y-3620656D01*
X17088752Y-3320656D02*
X16788752Y-3620656D01*
X17088752Y-3470656D02*
G75*
G03X17088752Y-3470656I-150000J0D01*
G01*
X18059260Y-7699870D02*
X18359260Y-7999870D01*
X18359260Y-7699870D02*
X18059260Y-7999870D01*
X18359260Y-7849870D02*
G75*
G03X18359260Y-7849870I-150000J0D01*
G01*
X18694260Y-2873870D02*
X18994260Y-3173870D01*
X18994260Y-2873870D02*
X18694260Y-3173870D01*
X18994260Y-3023870D02*
G75*
G03X18994260Y-3023870I-150000J0D01*
G01*
D13*
X10588735Y-8560614D02*
X10588735Y-8260614D01*
X10660163Y-8260614D01*
X10703020Y-8274900D01*
X10731592Y-8303471D01*
X10745877Y-8332043D01*
X10760163Y-8389186D01*
X10760163Y-8432043D01*
X10745877Y-8489186D01*
X10731592Y-8517757D01*
X10703020Y-8546329D01*
X10660163Y-8560614D01*
X10588735Y-8560614D01*
X10888735Y-8560614D02*
X10888735Y-8360614D01*
X10888735Y-8417757D02*
X10903020Y-8389186D01*
X10917306Y-8374900D01*
X10945877Y-8360614D01*
X10974449Y-8360614D01*
X11074449Y-8560614D02*
X11074449Y-8360614D01*
X11074449Y-8260614D02*
X11060163Y-8274900D01*
X11074449Y-8289186D01*
X11088735Y-8274900D01*
X11074449Y-8260614D01*
X11074449Y-8289186D01*
X11260163Y-8560614D02*
X11231592Y-8546329D01*
X11217306Y-8517757D01*
X11217306Y-8260614D01*
X11417306Y-8560614D02*
X11388734Y-8546329D01*
X11374449Y-8517757D01*
X11374449Y-8260614D01*
X11760163Y-8560614D02*
X11760163Y-8260614D01*
X11860163Y-8474900D01*
X11960163Y-8260614D01*
X11960163Y-8560614D01*
X12231592Y-8560614D02*
X12231592Y-8403472D01*
X12217306Y-8374900D01*
X12188734Y-8360614D01*
X12131592Y-8360614D01*
X12103020Y-8374900D01*
X12231592Y-8546329D02*
X12203020Y-8560614D01*
X12131592Y-8560614D01*
X12103020Y-8546329D01*
X12088734Y-8517757D01*
X12088734Y-8489186D01*
X12103020Y-8460614D01*
X12131592Y-8446329D01*
X12203020Y-8446329D01*
X12231592Y-8432043D01*
X12374449Y-8360614D02*
X12374449Y-8660614D01*
X12374449Y-8374900D02*
X12403020Y-8360614D01*
X12460163Y-8360614D01*
X12488734Y-8374900D01*
X12503020Y-8389186D01*
X12517306Y-8417757D01*
X12517306Y-8503472D01*
X12503020Y-8532043D01*
X12488734Y-8546329D01*
X12460163Y-8560614D01*
X12403020Y-8560614D01*
X12374449Y-8546329D01*
X12645877Y-8532043D02*
X12660163Y-8546329D01*
X12645877Y-8560614D01*
X12631592Y-8546329D01*
X12645877Y-8532043D01*
X12645877Y-8560614D01*
X12645877Y-8374900D02*
X12660163Y-8389186D01*
X12645877Y-8403472D01*
X12631592Y-8389186D01*
X12645877Y-8374900D01*
X12645877Y-8403472D01*
X10237306Y-9014900D02*
X10317306Y-9094900D01*
X10317306Y-9014900D02*
X10237306Y-9094900D01*
X10645877Y-8890614D02*
X10674449Y-8890614D01*
X10703020Y-8904900D01*
X10717306Y-8919186D01*
X10731592Y-8947757D01*
X10745877Y-9004900D01*
X10745877Y-9076329D01*
X10731592Y-9133472D01*
X10717306Y-9162043D01*
X10703020Y-9176329D01*
X10674449Y-9190614D01*
X10645877Y-9190614D01*
X10617306Y-9176329D01*
X10603020Y-9162043D01*
X10588735Y-9133472D01*
X10574449Y-9076329D01*
X10574449Y-9004900D01*
X10588735Y-8947757D01*
X10603020Y-8919186D01*
X10617306Y-8904900D01*
X10645877Y-8890614D01*
X10874449Y-9162043D02*
X10888735Y-9176329D01*
X10874449Y-9190614D01*
X10860163Y-9176329D01*
X10874449Y-9162043D01*
X10874449Y-9190614D01*
X11060163Y-9019186D02*
X11031592Y-9004900D01*
X11017306Y-8990614D01*
X11003020Y-8962043D01*
X11003020Y-8947757D01*
X11017306Y-8919186D01*
X11031592Y-8904900D01*
X11060163Y-8890614D01*
X11117306Y-8890614D01*
X11145877Y-8904900D01*
X11160163Y-8919186D01*
X11174449Y-8947757D01*
X11174449Y-8962043D01*
X11160163Y-8990614D01*
X11145877Y-9004900D01*
X11117306Y-9019186D01*
X11060163Y-9019186D01*
X11031592Y-9033472D01*
X11017306Y-9047757D01*
X11003020Y-9076329D01*
X11003020Y-9133472D01*
X11017306Y-9162043D01*
X11031592Y-9176329D01*
X11060163Y-9190614D01*
X11117306Y-9190614D01*
X11145877Y-9176329D01*
X11160163Y-9162043D01*
X11174449Y-9133472D01*
X11174449Y-9076329D01*
X11160163Y-9047757D01*
X11145877Y-9033472D01*
X11117306Y-9019186D01*
X11360163Y-8890614D02*
X11388734Y-8890614D01*
X11417306Y-8904900D01*
X11431592Y-8919186D01*
X11445877Y-8947757D01*
X11460163Y-9004900D01*
X11460163Y-9076329D01*
X11445877Y-9133472D01*
X11431592Y-9162043D01*
X11417306Y-9176329D01*
X11388734Y-9190614D01*
X11360163Y-9190614D01*
X11331592Y-9176329D01*
X11317306Y-9162043D01*
X11303020Y-9133472D01*
X11288734Y-9076329D01*
X11288734Y-9004900D01*
X11303020Y-8947757D01*
X11317306Y-8919186D01*
X11331592Y-8904900D01*
X11360163Y-8890614D01*
X11588734Y-9190614D02*
X11588734Y-8990614D01*
X11588734Y-9019186D02*
X11603020Y-9004900D01*
X11631592Y-8990614D01*
X11674449Y-8990614D01*
X11703020Y-9004900D01*
X11717306Y-9033472D01*
X11717306Y-9190614D01*
X11717306Y-9033472D02*
X11731592Y-9004900D01*
X11760163Y-8990614D01*
X11803020Y-8990614D01*
X11831592Y-9004900D01*
X11845877Y-9033472D01*
X11845877Y-9190614D01*
X11988734Y-9190614D02*
X11988734Y-8990614D01*
X11988734Y-9019186D02*
X12003020Y-9004900D01*
X12031592Y-8990614D01*
X12074449Y-8990614D01*
X12103020Y-9004900D01*
X12117306Y-9033472D01*
X12117306Y-9190614D01*
X12117306Y-9033472D02*
X12131592Y-9004900D01*
X12160163Y-8990614D01*
X12203020Y-8990614D01*
X12231592Y-9004900D01*
X12245877Y-9033472D01*
X12245877Y-9190614D01*
X12831592Y-8876329D02*
X12574449Y-9262043D01*
X13217306Y-8890614D02*
X13245877Y-8890614D01*
X13274449Y-8904900D01*
X13288734Y-8919186D01*
X13303020Y-8947757D01*
X13317306Y-9004900D01*
X13317306Y-9076329D01*
X13303020Y-9133472D01*
X13288734Y-9162043D01*
X13274449Y-9176329D01*
X13245877Y-9190614D01*
X13217306Y-9190614D01*
X13188734Y-9176329D01*
X13174449Y-9162043D01*
X13160163Y-9133472D01*
X13145877Y-9076329D01*
X13145877Y-9004900D01*
X13160163Y-8947757D01*
X13174449Y-8919186D01*
X13188734Y-8904900D01*
X13217306Y-8890614D01*
X13445877Y-9162043D02*
X13460163Y-9176329D01*
X13445877Y-9190614D01*
X13431592Y-9176329D01*
X13445877Y-9162043D01*
X13445877Y-9190614D01*
X13645877Y-8890614D02*
X13674449Y-8890614D01*
X13703020Y-8904900D01*
X13717306Y-8919186D01*
X13731591Y-8947757D01*
X13745877Y-9004900D01*
X13745877Y-9076329D01*
X13731591Y-9133472D01*
X13717306Y-9162043D01*
X13703020Y-9176329D01*
X13674449Y-9190614D01*
X13645877Y-9190614D01*
X13617306Y-9176329D01*
X13603020Y-9162043D01*
X13588734Y-9133472D01*
X13574449Y-9076329D01*
X13574449Y-9004900D01*
X13588734Y-8947757D01*
X13603020Y-8919186D01*
X13617306Y-8904900D01*
X13645877Y-8890614D01*
X13845877Y-8890614D02*
X14031591Y-8890614D01*
X13931591Y-9004900D01*
X13974449Y-9004900D01*
X14003020Y-9019186D01*
X14017306Y-9033472D01*
X14031591Y-9062043D01*
X14031591Y-9133472D01*
X14017306Y-9162043D01*
X14003020Y-9176329D01*
X13974449Y-9190614D01*
X13888734Y-9190614D01*
X13860163Y-9176329D01*
X13845877Y-9162043D01*
X14317306Y-9190614D02*
X14145877Y-9190614D01*
X14231591Y-9190614D02*
X14231591Y-8890614D01*
X14203020Y-8933472D01*
X14174449Y-8962043D01*
X14145877Y-8976329D01*
X14431592Y-8890614D02*
X14431592Y-8947757D01*
X14545877Y-8890614D02*
X14545877Y-8947757D01*
X14988734Y-9304900D02*
X14974449Y-9290614D01*
X14945877Y-9247757D01*
X14931591Y-9219186D01*
X14917306Y-9176329D01*
X14903020Y-9104900D01*
X14903020Y-9047757D01*
X14917306Y-8976329D01*
X14931591Y-8933472D01*
X14945877Y-8904900D01*
X14974449Y-8862043D01*
X14988734Y-8847757D01*
X15088734Y-8919186D02*
X15103020Y-8904900D01*
X15131591Y-8890614D01*
X15203020Y-8890614D01*
X15231591Y-8904900D01*
X15245877Y-8919186D01*
X15260163Y-8947757D01*
X15260163Y-8976329D01*
X15245877Y-9019186D01*
X15074449Y-9190614D01*
X15260163Y-9190614D01*
X15360163Y-8890614D02*
X15545877Y-8890614D01*
X15445877Y-9004900D01*
X15488734Y-9004900D01*
X15517306Y-9019186D01*
X15531591Y-9033472D01*
X15545877Y-9062043D01*
X15545877Y-9133472D01*
X15531591Y-9162043D01*
X15517306Y-9176329D01*
X15488734Y-9190614D01*
X15403020Y-9190614D01*
X15374449Y-9176329D01*
X15360163Y-9162043D01*
X15903020Y-9190614D02*
X15903020Y-8890614D01*
X16031591Y-9190614D02*
X16031591Y-9033472D01*
X16017306Y-9004900D01*
X15988734Y-8990614D01*
X15945877Y-8990614D01*
X15917306Y-9004900D01*
X15903020Y-9019186D01*
X16217306Y-9190614D02*
X16188734Y-9176329D01*
X16174449Y-9162043D01*
X16160163Y-9133472D01*
X16160163Y-9047757D01*
X16174449Y-9019186D01*
X16188734Y-9004900D01*
X16217306Y-8990614D01*
X16260163Y-8990614D01*
X16288734Y-9004900D01*
X16303020Y-9019186D01*
X16317306Y-9047757D01*
X16317306Y-9133472D01*
X16303020Y-9162043D01*
X16288734Y-9176329D01*
X16260163Y-9190614D01*
X16217306Y-9190614D01*
X16488734Y-9190614D02*
X16460163Y-9176329D01*
X16445877Y-9147757D01*
X16445877Y-8890614D01*
X16717306Y-9176329D02*
X16688734Y-9190614D01*
X16631592Y-9190614D01*
X16603020Y-9176329D01*
X16588734Y-9147757D01*
X16588734Y-9033472D01*
X16603020Y-9004900D01*
X16631592Y-8990614D01*
X16688734Y-8990614D01*
X16717306Y-9004900D01*
X16731592Y-9033472D01*
X16731592Y-9062043D01*
X16588734Y-9090614D01*
X16845877Y-9176329D02*
X16874449Y-9190614D01*
X16931592Y-9190614D01*
X16960163Y-9176329D01*
X16974449Y-9147757D01*
X16974449Y-9133472D01*
X16960163Y-9104900D01*
X16931592Y-9090614D01*
X16888735Y-9090614D01*
X16860163Y-9076329D01*
X16845877Y-9047757D01*
X16845877Y-9033472D01*
X16860163Y-9004900D01*
X16888735Y-8990614D01*
X16931592Y-8990614D01*
X16960163Y-9004900D01*
X17074449Y-9304900D02*
X17088735Y-9290614D01*
X17117306Y-9247757D01*
X17131592Y-9219186D01*
X17145877Y-9176329D01*
X17160163Y-9104900D01*
X17160163Y-9047757D01*
X17145877Y-8976329D01*
X17131592Y-8933472D01*
X17117306Y-8904900D01*
X17088735Y-8862043D01*
X17074449Y-8847757D01*
X10317306Y-9450900D02*
G75*
G03X10317306Y-9450900I-50000J0D01*
G01*
X10745877Y-9586614D02*
X10574449Y-9586614D01*
X10660163Y-9586614D02*
X10660163Y-9286614D01*
X10631592Y-9329472D01*
X10603020Y-9358043D01*
X10574449Y-9372329D01*
X10874449Y-9558043D02*
X10888735Y-9572329D01*
X10874449Y-9586614D01*
X10860163Y-9572329D01*
X10874449Y-9558043D01*
X10874449Y-9586614D01*
X11074449Y-9286614D02*
X11103020Y-9286614D01*
X11131592Y-9300900D01*
X11145877Y-9315186D01*
X11160163Y-9343757D01*
X11174449Y-9400900D01*
X11174449Y-9472329D01*
X11160163Y-9529472D01*
X11145877Y-9558043D01*
X11131592Y-9572329D01*
X11103020Y-9586614D01*
X11074449Y-9586614D01*
X11045877Y-9572329D01*
X11031592Y-9558043D01*
X11017306Y-9529472D01*
X11003020Y-9472329D01*
X11003020Y-9400900D01*
X11017306Y-9343757D01*
X11031592Y-9315186D01*
X11045877Y-9300900D01*
X11074449Y-9286614D01*
X11360163Y-9286614D02*
X11388734Y-9286614D01*
X11417306Y-9300900D01*
X11431592Y-9315186D01*
X11445877Y-9343757D01*
X11460163Y-9400900D01*
X11460163Y-9472329D01*
X11445877Y-9529472D01*
X11431592Y-9558043D01*
X11417306Y-9572329D01*
X11388734Y-9586614D01*
X11360163Y-9586614D01*
X11331592Y-9572329D01*
X11317306Y-9558043D01*
X11303020Y-9529472D01*
X11288734Y-9472329D01*
X11288734Y-9400900D01*
X11303020Y-9343757D01*
X11317306Y-9315186D01*
X11331592Y-9300900D01*
X11360163Y-9286614D01*
X11588734Y-9586614D02*
X11588734Y-9386614D01*
X11588734Y-9415186D02*
X11603020Y-9400900D01*
X11631592Y-9386614D01*
X11674449Y-9386614D01*
X11703020Y-9400900D01*
X11717306Y-9429472D01*
X11717306Y-9586614D01*
X11717306Y-9429472D02*
X11731592Y-9400900D01*
X11760163Y-9386614D01*
X11803020Y-9386614D01*
X11831592Y-9400900D01*
X11845877Y-9429472D01*
X11845877Y-9586614D01*
X11988734Y-9586614D02*
X11988734Y-9386614D01*
X11988734Y-9415186D02*
X12003020Y-9400900D01*
X12031592Y-9386614D01*
X12074449Y-9386614D01*
X12103020Y-9400900D01*
X12117306Y-9429472D01*
X12117306Y-9586614D01*
X12117306Y-9429472D02*
X12131592Y-9400900D01*
X12160163Y-9386614D01*
X12203020Y-9386614D01*
X12231592Y-9400900D01*
X12245877Y-9429472D01*
X12245877Y-9586614D01*
X12831592Y-9272329D02*
X12574449Y-9658043D01*
X13217306Y-9286614D02*
X13245877Y-9286614D01*
X13274449Y-9300900D01*
X13288734Y-9315186D01*
X13303020Y-9343757D01*
X13317306Y-9400900D01*
X13317306Y-9472329D01*
X13303020Y-9529472D01*
X13288734Y-9558043D01*
X13274449Y-9572329D01*
X13245877Y-9586614D01*
X13217306Y-9586614D01*
X13188734Y-9572329D01*
X13174449Y-9558043D01*
X13160163Y-9529472D01*
X13145877Y-9472329D01*
X13145877Y-9400900D01*
X13160163Y-9343757D01*
X13174449Y-9315186D01*
X13188734Y-9300900D01*
X13217306Y-9286614D01*
X13445877Y-9558043D02*
X13460163Y-9572329D01*
X13445877Y-9586614D01*
X13431592Y-9572329D01*
X13445877Y-9558043D01*
X13445877Y-9586614D01*
X13645877Y-9286614D02*
X13674449Y-9286614D01*
X13703020Y-9300900D01*
X13717306Y-9315186D01*
X13731591Y-9343757D01*
X13745877Y-9400900D01*
X13745877Y-9472329D01*
X13731591Y-9529472D01*
X13717306Y-9558043D01*
X13703020Y-9572329D01*
X13674449Y-9586614D01*
X13645877Y-9586614D01*
X13617306Y-9572329D01*
X13603020Y-9558043D01*
X13588734Y-9529472D01*
X13574449Y-9472329D01*
X13574449Y-9400900D01*
X13588734Y-9343757D01*
X13603020Y-9315186D01*
X13617306Y-9300900D01*
X13645877Y-9286614D01*
X13845877Y-9286614D02*
X14031591Y-9286614D01*
X13931591Y-9400900D01*
X13974449Y-9400900D01*
X14003020Y-9415186D01*
X14017306Y-9429472D01*
X14031591Y-9458043D01*
X14031591Y-9529472D01*
X14017306Y-9558043D01*
X14003020Y-9572329D01*
X13974449Y-9586614D01*
X13888734Y-9586614D01*
X13860163Y-9572329D01*
X13845877Y-9558043D01*
X14174449Y-9586614D02*
X14231591Y-9586614D01*
X14260163Y-9572329D01*
X14274449Y-9558043D01*
X14303020Y-9515186D01*
X14317306Y-9458043D01*
X14317306Y-9343757D01*
X14303020Y-9315186D01*
X14288734Y-9300900D01*
X14260163Y-9286614D01*
X14203020Y-9286614D01*
X14174449Y-9300900D01*
X14160163Y-9315186D01*
X14145877Y-9343757D01*
X14145877Y-9415186D01*
X14160163Y-9443757D01*
X14174449Y-9458043D01*
X14203020Y-9472329D01*
X14260163Y-9472329D01*
X14288734Y-9458043D01*
X14303020Y-9443757D01*
X14317306Y-9415186D01*
X14431592Y-9286614D02*
X14431592Y-9343757D01*
X14545877Y-9286614D02*
X14545877Y-9343757D01*
X14988734Y-9700900D02*
X14974449Y-9686614D01*
X14945877Y-9643757D01*
X14931591Y-9615186D01*
X14917306Y-9572329D01*
X14903020Y-9500900D01*
X14903020Y-9443757D01*
X14917306Y-9372329D01*
X14931591Y-9329472D01*
X14945877Y-9300900D01*
X14974449Y-9258043D01*
X14988734Y-9243757D01*
X15074449Y-9286614D02*
X15260163Y-9286614D01*
X15160163Y-9400900D01*
X15203020Y-9400900D01*
X15231591Y-9415186D01*
X15245877Y-9429472D01*
X15260163Y-9458043D01*
X15260163Y-9529472D01*
X15245877Y-9558043D01*
X15231591Y-9572329D01*
X15203020Y-9586614D01*
X15117306Y-9586614D01*
X15088734Y-9572329D01*
X15074449Y-9558043D01*
X15545877Y-9586614D02*
X15374449Y-9586614D01*
X15460163Y-9586614D02*
X15460163Y-9286614D01*
X15431591Y-9329472D01*
X15403020Y-9358043D01*
X15374449Y-9372329D01*
X15903020Y-9586614D02*
X15903020Y-9286614D01*
X16031591Y-9586614D02*
X16031591Y-9429472D01*
X16017306Y-9400900D01*
X15988734Y-9386614D01*
X15945877Y-9386614D01*
X15917306Y-9400900D01*
X15903020Y-9415186D01*
X16217306Y-9586614D02*
X16188734Y-9572329D01*
X16174449Y-9558043D01*
X16160163Y-9529472D01*
X16160163Y-9443757D01*
X16174449Y-9415186D01*
X16188734Y-9400900D01*
X16217306Y-9386614D01*
X16260163Y-9386614D01*
X16288734Y-9400900D01*
X16303020Y-9415186D01*
X16317306Y-9443757D01*
X16317306Y-9529472D01*
X16303020Y-9558043D01*
X16288734Y-9572329D01*
X16260163Y-9586614D01*
X16217306Y-9586614D01*
X16488734Y-9586614D02*
X16460163Y-9572329D01*
X16445877Y-9543757D01*
X16445877Y-9286614D01*
X16717306Y-9572329D02*
X16688734Y-9586614D01*
X16631592Y-9586614D01*
X16603020Y-9572329D01*
X16588734Y-9543757D01*
X16588734Y-9429472D01*
X16603020Y-9400900D01*
X16631592Y-9386614D01*
X16688734Y-9386614D01*
X16717306Y-9400900D01*
X16731592Y-9429472D01*
X16731592Y-9458043D01*
X16588734Y-9486614D01*
X16845877Y-9572329D02*
X16874449Y-9586614D01*
X16931592Y-9586614D01*
X16960163Y-9572329D01*
X16974449Y-9543757D01*
X16974449Y-9529472D01*
X16960163Y-9500900D01*
X16931592Y-9486614D01*
X16888735Y-9486614D01*
X16860163Y-9472329D01*
X16845877Y-9443757D01*
X16845877Y-9429472D01*
X16860163Y-9400900D01*
X16888735Y-9386614D01*
X16931592Y-9386614D01*
X16960163Y-9400900D01*
X17074449Y-9700900D02*
X17088735Y-9686614D01*
X17117306Y-9643757D01*
X17131592Y-9615186D01*
X17145877Y-9572329D01*
X17160163Y-9500900D01*
X17160163Y-9443757D01*
X17145877Y-9372329D01*
X17131592Y-9329472D01*
X17117306Y-9300900D01*
X17088735Y-9258043D01*
X17074449Y-9243757D01*
X10267268Y-9796862D02*
X10267268Y-9896938D01*
X10217230Y-9846900D02*
X10317306Y-9846900D01*
X10745877Y-9982614D02*
X10574449Y-9982614D01*
X10660163Y-9982614D02*
X10660163Y-9682614D01*
X10631592Y-9725472D01*
X10603020Y-9754043D01*
X10574449Y-9768329D01*
X10874449Y-9954043D02*
X10888735Y-9968329D01*
X10874449Y-9982614D01*
X10860163Y-9968329D01*
X10874449Y-9954043D01*
X10874449Y-9982614D01*
X11074449Y-9682614D02*
X11103020Y-9682614D01*
X11131592Y-9696900D01*
X11145877Y-9711186D01*
X11160163Y-9739757D01*
X11174449Y-9796900D01*
X11174449Y-9868329D01*
X11160163Y-9925472D01*
X11145877Y-9954043D01*
X11131592Y-9968329D01*
X11103020Y-9982614D01*
X11074449Y-9982614D01*
X11045877Y-9968329D01*
X11031592Y-9954043D01*
X11017306Y-9925472D01*
X11003020Y-9868329D01*
X11003020Y-9796900D01*
X11017306Y-9739757D01*
X11031592Y-9711186D01*
X11045877Y-9696900D01*
X11074449Y-9682614D01*
X11360163Y-9682614D02*
X11388734Y-9682614D01*
X11417306Y-9696900D01*
X11431592Y-9711186D01*
X11445877Y-9739757D01*
X11460163Y-9796900D01*
X11460163Y-9868329D01*
X11445877Y-9925472D01*
X11431592Y-9954043D01*
X11417306Y-9968329D01*
X11388734Y-9982614D01*
X11360163Y-9982614D01*
X11331592Y-9968329D01*
X11317306Y-9954043D01*
X11303020Y-9925472D01*
X11288734Y-9868329D01*
X11288734Y-9796900D01*
X11303020Y-9739757D01*
X11317306Y-9711186D01*
X11331592Y-9696900D01*
X11360163Y-9682614D01*
X11588734Y-9982614D02*
X11588734Y-9782614D01*
X11588734Y-9811186D02*
X11603020Y-9796900D01*
X11631592Y-9782614D01*
X11674449Y-9782614D01*
X11703020Y-9796900D01*
X11717306Y-9825472D01*
X11717306Y-9982614D01*
X11717306Y-9825472D02*
X11731592Y-9796900D01*
X11760163Y-9782614D01*
X11803020Y-9782614D01*
X11831592Y-9796900D01*
X11845877Y-9825472D01*
X11845877Y-9982614D01*
X11988734Y-9982614D02*
X11988734Y-9782614D01*
X11988734Y-9811186D02*
X12003020Y-9796900D01*
X12031592Y-9782614D01*
X12074449Y-9782614D01*
X12103020Y-9796900D01*
X12117306Y-9825472D01*
X12117306Y-9982614D01*
X12117306Y-9825472D02*
X12131592Y-9796900D01*
X12160163Y-9782614D01*
X12203020Y-9782614D01*
X12231592Y-9796900D01*
X12245877Y-9825472D01*
X12245877Y-9982614D01*
X12831592Y-9668329D02*
X12574449Y-10054043D01*
X13217306Y-9682614D02*
X13245877Y-9682614D01*
X13274449Y-9696900D01*
X13288734Y-9711186D01*
X13303020Y-9739757D01*
X13317306Y-9796900D01*
X13317306Y-9868329D01*
X13303020Y-9925472D01*
X13288734Y-9954043D01*
X13274449Y-9968329D01*
X13245877Y-9982614D01*
X13217306Y-9982614D01*
X13188734Y-9968329D01*
X13174449Y-9954043D01*
X13160163Y-9925472D01*
X13145877Y-9868329D01*
X13145877Y-9796900D01*
X13160163Y-9739757D01*
X13174449Y-9711186D01*
X13188734Y-9696900D01*
X13217306Y-9682614D01*
X13445877Y-9954043D02*
X13460163Y-9968329D01*
X13445877Y-9982614D01*
X13431592Y-9968329D01*
X13445877Y-9954043D01*
X13445877Y-9982614D01*
X13645877Y-9682614D02*
X13674449Y-9682614D01*
X13703020Y-9696900D01*
X13717306Y-9711186D01*
X13731591Y-9739757D01*
X13745877Y-9796900D01*
X13745877Y-9868329D01*
X13731591Y-9925472D01*
X13717306Y-9954043D01*
X13703020Y-9968329D01*
X13674449Y-9982614D01*
X13645877Y-9982614D01*
X13617306Y-9968329D01*
X13603020Y-9954043D01*
X13588734Y-9925472D01*
X13574449Y-9868329D01*
X13574449Y-9796900D01*
X13588734Y-9739757D01*
X13603020Y-9711186D01*
X13617306Y-9696900D01*
X13645877Y-9682614D01*
X13845877Y-9682614D02*
X14031591Y-9682614D01*
X13931591Y-9796900D01*
X13974449Y-9796900D01*
X14003020Y-9811186D01*
X14017306Y-9825472D01*
X14031591Y-9854043D01*
X14031591Y-9925472D01*
X14017306Y-9954043D01*
X14003020Y-9968329D01*
X13974449Y-9982614D01*
X13888734Y-9982614D01*
X13860163Y-9968329D01*
X13845877Y-9954043D01*
X14174449Y-9982614D02*
X14231591Y-9982614D01*
X14260163Y-9968329D01*
X14274449Y-9954043D01*
X14303020Y-9911186D01*
X14317306Y-9854043D01*
X14317306Y-9739757D01*
X14303020Y-9711186D01*
X14288734Y-9696900D01*
X14260163Y-9682614D01*
X14203020Y-9682614D01*
X14174449Y-9696900D01*
X14160163Y-9711186D01*
X14145877Y-9739757D01*
X14145877Y-9811186D01*
X14160163Y-9839757D01*
X14174449Y-9854043D01*
X14203020Y-9868329D01*
X14260163Y-9868329D01*
X14288734Y-9854043D01*
X14303020Y-9839757D01*
X14317306Y-9811186D01*
X14431592Y-9682614D02*
X14431592Y-9739757D01*
X14545877Y-9682614D02*
X14545877Y-9739757D01*
X14988734Y-10096900D02*
X14974449Y-10082614D01*
X14945877Y-10039757D01*
X14931591Y-10011186D01*
X14917306Y-9968329D01*
X14903020Y-9896900D01*
X14903020Y-9839757D01*
X14917306Y-9768329D01*
X14931591Y-9725472D01*
X14945877Y-9696900D01*
X14974449Y-9654043D01*
X14988734Y-9639757D01*
X15231591Y-9682614D02*
X15174449Y-9682614D01*
X15145877Y-9696900D01*
X15131591Y-9711186D01*
X15103020Y-9754043D01*
X15088734Y-9811186D01*
X15088734Y-9925472D01*
X15103020Y-9954043D01*
X15117306Y-9968329D01*
X15145877Y-9982614D01*
X15203020Y-9982614D01*
X15231591Y-9968329D01*
X15245877Y-9954043D01*
X15260163Y-9925472D01*
X15260163Y-9854043D01*
X15245877Y-9825472D01*
X15231591Y-9811186D01*
X15203020Y-9796900D01*
X15145877Y-9796900D01*
X15117306Y-9811186D01*
X15103020Y-9825472D01*
X15088734Y-9854043D01*
X15617306Y-9982614D02*
X15617306Y-9682614D01*
X15745877Y-9982614D02*
X15745877Y-9825472D01*
X15731591Y-9796900D01*
X15703020Y-9782614D01*
X15660163Y-9782614D01*
X15631591Y-9796900D01*
X15617306Y-9811186D01*
X15931591Y-9982614D02*
X15903020Y-9968329D01*
X15888734Y-9954043D01*
X15874449Y-9925472D01*
X15874449Y-9839757D01*
X15888734Y-9811186D01*
X15903020Y-9796900D01*
X15931591Y-9782614D01*
X15974449Y-9782614D01*
X16003020Y-9796900D01*
X16017306Y-9811186D01*
X16031591Y-9839757D01*
X16031591Y-9925472D01*
X16017306Y-9954043D01*
X16003020Y-9968329D01*
X15974449Y-9982614D01*
X15931591Y-9982614D01*
X16203020Y-9982614D02*
X16174449Y-9968329D01*
X16160163Y-9939757D01*
X16160163Y-9682614D01*
X16431592Y-9968329D02*
X16403020Y-9982614D01*
X16345877Y-9982614D01*
X16317306Y-9968329D01*
X16303020Y-9939757D01*
X16303020Y-9825472D01*
X16317306Y-9796900D01*
X16345877Y-9782614D01*
X16403020Y-9782614D01*
X16431592Y-9796900D01*
X16445877Y-9825472D01*
X16445877Y-9854043D01*
X16303020Y-9882614D01*
X16560163Y-9968329D02*
X16588734Y-9982614D01*
X16645877Y-9982614D01*
X16674449Y-9968329D01*
X16688734Y-9939757D01*
X16688734Y-9925472D01*
X16674449Y-9896900D01*
X16645877Y-9882614D01*
X16603020Y-9882614D01*
X16574449Y-9868329D01*
X16560163Y-9839757D01*
X16560163Y-9825472D01*
X16574449Y-9796900D01*
X16603020Y-9782614D01*
X16645877Y-9782614D01*
X16674449Y-9796900D01*
X16788734Y-10096900D02*
X16803020Y-10082614D01*
X16831592Y-10039757D01*
X16845877Y-10011186D01*
X16860163Y-9968329D01*
X16874449Y-9896900D01*
X16874449Y-9839757D01*
X16860163Y-9768329D01*
X16845877Y-9725472D01*
X16831592Y-9696900D01*
X16803020Y-9654043D01*
X16788734Y-9639757D01*
X10302427Y-10278822D02*
X10302427Y-10206979D01*
X10230585Y-10206979D01*
X10230585Y-10278822D01*
X10302427Y-10278822D01*
X10745877Y-10378614D02*
X10574449Y-10378614D01*
X10660163Y-10378614D02*
X10660163Y-10078614D01*
X10631592Y-10121472D01*
X10603020Y-10150043D01*
X10574449Y-10164329D01*
X10874449Y-10350043D02*
X10888735Y-10364329D01*
X10874449Y-10378614D01*
X10860163Y-10364329D01*
X10874449Y-10350043D01*
X10874449Y-10378614D01*
X11074449Y-10078614D02*
X11103020Y-10078614D01*
X11131592Y-10092900D01*
X11145877Y-10107186D01*
X11160163Y-10135757D01*
X11174449Y-10192900D01*
X11174449Y-10264329D01*
X11160163Y-10321472D01*
X11145877Y-10350043D01*
X11131592Y-10364329D01*
X11103020Y-10378614D01*
X11074449Y-10378614D01*
X11045877Y-10364329D01*
X11031592Y-10350043D01*
X11017306Y-10321472D01*
X11003020Y-10264329D01*
X11003020Y-10192900D01*
X11017306Y-10135757D01*
X11031592Y-10107186D01*
X11045877Y-10092900D01*
X11074449Y-10078614D01*
X11288734Y-10107186D02*
X11303020Y-10092900D01*
X11331592Y-10078614D01*
X11403020Y-10078614D01*
X11431592Y-10092900D01*
X11445877Y-10107186D01*
X11460163Y-10135757D01*
X11460163Y-10164329D01*
X11445877Y-10207186D01*
X11274449Y-10378614D01*
X11460163Y-10378614D01*
X11588734Y-10378614D02*
X11588734Y-10178614D01*
X11588734Y-10207186D02*
X11603020Y-10192900D01*
X11631592Y-10178614D01*
X11674449Y-10178614D01*
X11703020Y-10192900D01*
X11717306Y-10221472D01*
X11717306Y-10378614D01*
X11717306Y-10221472D02*
X11731592Y-10192900D01*
X11760163Y-10178614D01*
X11803020Y-10178614D01*
X11831592Y-10192900D01*
X11845877Y-10221472D01*
X11845877Y-10378614D01*
X11988734Y-10378614D02*
X11988734Y-10178614D01*
X11988734Y-10207186D02*
X12003020Y-10192900D01*
X12031592Y-10178614D01*
X12074449Y-10178614D01*
X12103020Y-10192900D01*
X12117306Y-10221472D01*
X12117306Y-10378614D01*
X12117306Y-10221472D02*
X12131592Y-10192900D01*
X12160163Y-10178614D01*
X12203020Y-10178614D01*
X12231592Y-10192900D01*
X12245877Y-10221472D01*
X12245877Y-10378614D01*
X12831592Y-10064329D02*
X12574449Y-10450043D01*
X13217306Y-10078614D02*
X13245877Y-10078614D01*
X13274449Y-10092900D01*
X13288734Y-10107186D01*
X13303020Y-10135757D01*
X13317306Y-10192900D01*
X13317306Y-10264329D01*
X13303020Y-10321472D01*
X13288734Y-10350043D01*
X13274449Y-10364329D01*
X13245877Y-10378614D01*
X13217306Y-10378614D01*
X13188734Y-10364329D01*
X13174449Y-10350043D01*
X13160163Y-10321472D01*
X13145877Y-10264329D01*
X13145877Y-10192900D01*
X13160163Y-10135757D01*
X13174449Y-10107186D01*
X13188734Y-10092900D01*
X13217306Y-10078614D01*
X13445877Y-10350043D02*
X13460163Y-10364329D01*
X13445877Y-10378614D01*
X13431592Y-10364329D01*
X13445877Y-10350043D01*
X13445877Y-10378614D01*
X13645877Y-10078614D02*
X13674449Y-10078614D01*
X13703020Y-10092900D01*
X13717306Y-10107186D01*
X13731591Y-10135757D01*
X13745877Y-10192900D01*
X13745877Y-10264329D01*
X13731591Y-10321472D01*
X13717306Y-10350043D01*
X13703020Y-10364329D01*
X13674449Y-10378614D01*
X13645877Y-10378614D01*
X13617306Y-10364329D01*
X13603020Y-10350043D01*
X13588734Y-10321472D01*
X13574449Y-10264329D01*
X13574449Y-10192900D01*
X13588734Y-10135757D01*
X13603020Y-10107186D01*
X13617306Y-10092900D01*
X13645877Y-10078614D01*
X14003020Y-10178614D02*
X14003020Y-10378614D01*
X13931591Y-10064329D02*
X13860163Y-10278614D01*
X14045877Y-10278614D01*
X14217306Y-10078614D02*
X14245877Y-10078614D01*
X14274449Y-10092900D01*
X14288734Y-10107186D01*
X14303020Y-10135757D01*
X14317306Y-10192900D01*
X14317306Y-10264329D01*
X14303020Y-10321472D01*
X14288734Y-10350043D01*
X14274449Y-10364329D01*
X14245877Y-10378614D01*
X14217306Y-10378614D01*
X14188734Y-10364329D01*
X14174449Y-10350043D01*
X14160163Y-10321472D01*
X14145877Y-10264329D01*
X14145877Y-10192900D01*
X14160163Y-10135757D01*
X14174449Y-10107186D01*
X14188734Y-10092900D01*
X14217306Y-10078614D01*
X14431592Y-10078614D02*
X14431592Y-10135757D01*
X14545877Y-10078614D02*
X14545877Y-10135757D01*
X14988734Y-10492900D02*
X14974449Y-10478614D01*
X14945877Y-10435757D01*
X14931591Y-10407186D01*
X14917306Y-10364329D01*
X14903020Y-10292900D01*
X14903020Y-10235757D01*
X14917306Y-10164329D01*
X14931591Y-10121472D01*
X14945877Y-10092900D01*
X14974449Y-10050043D01*
X14988734Y-10035757D01*
X15074449Y-10078614D02*
X15260163Y-10078614D01*
X15160163Y-10192900D01*
X15203020Y-10192900D01*
X15231591Y-10207186D01*
X15245877Y-10221472D01*
X15260163Y-10250043D01*
X15260163Y-10321472D01*
X15245877Y-10350043D01*
X15231591Y-10364329D01*
X15203020Y-10378614D01*
X15117306Y-10378614D01*
X15088734Y-10364329D01*
X15074449Y-10350043D01*
X15445877Y-10078614D02*
X15474449Y-10078614D01*
X15503020Y-10092900D01*
X15517306Y-10107186D01*
X15531591Y-10135757D01*
X15545877Y-10192900D01*
X15545877Y-10264329D01*
X15531591Y-10321472D01*
X15517306Y-10350043D01*
X15503020Y-10364329D01*
X15474449Y-10378614D01*
X15445877Y-10378614D01*
X15417306Y-10364329D01*
X15403020Y-10350043D01*
X15388734Y-10321472D01*
X15374449Y-10264329D01*
X15374449Y-10192900D01*
X15388734Y-10135757D01*
X15403020Y-10107186D01*
X15417306Y-10092900D01*
X15445877Y-10078614D01*
X15903020Y-10378614D02*
X15903020Y-10078614D01*
X16031591Y-10378614D02*
X16031591Y-10221472D01*
X16017306Y-10192900D01*
X15988734Y-10178614D01*
X15945877Y-10178614D01*
X15917306Y-10192900D01*
X15903020Y-10207186D01*
X16217306Y-10378614D02*
X16188734Y-10364329D01*
X16174449Y-10350043D01*
X16160163Y-10321472D01*
X16160163Y-10235757D01*
X16174449Y-10207186D01*
X16188734Y-10192900D01*
X16217306Y-10178614D01*
X16260163Y-10178614D01*
X16288734Y-10192900D01*
X16303020Y-10207186D01*
X16317306Y-10235757D01*
X16317306Y-10321472D01*
X16303020Y-10350043D01*
X16288734Y-10364329D01*
X16260163Y-10378614D01*
X16217306Y-10378614D01*
X16488734Y-10378614D02*
X16460163Y-10364329D01*
X16445877Y-10335757D01*
X16445877Y-10078614D01*
X16717306Y-10364329D02*
X16688734Y-10378614D01*
X16631592Y-10378614D01*
X16603020Y-10364329D01*
X16588734Y-10335757D01*
X16588734Y-10221472D01*
X16603020Y-10192900D01*
X16631592Y-10178614D01*
X16688734Y-10178614D01*
X16717306Y-10192900D01*
X16731592Y-10221472D01*
X16731592Y-10250043D01*
X16588734Y-10278614D01*
X16845877Y-10364329D02*
X16874449Y-10378614D01*
X16931592Y-10378614D01*
X16960163Y-10364329D01*
X16974449Y-10335757D01*
X16974449Y-10321472D01*
X16960163Y-10292900D01*
X16931592Y-10278614D01*
X16888735Y-10278614D01*
X16860163Y-10264329D01*
X16845877Y-10235757D01*
X16845877Y-10221472D01*
X16860163Y-10192900D01*
X16888735Y-10178614D01*
X16931592Y-10178614D01*
X16960163Y-10192900D01*
X17074449Y-10492900D02*
X17088735Y-10478614D01*
X17117306Y-10435757D01*
X17131592Y-10407186D01*
X17145877Y-10364329D01*
X17160163Y-10292900D01*
X17160163Y-10235757D01*
X17145877Y-10164329D01*
X17131592Y-10121472D01*
X17117306Y-10092900D01*
X17088735Y-10050043D01*
X17074449Y-10035757D01*
X10242306Y-10713900D02*
X10317306Y-10638900D01*
X10242306Y-10563900D01*
X10167306Y-10638900D01*
X10242306Y-10713900D01*
X10745877Y-10774614D02*
X10574449Y-10774614D01*
X10660163Y-10774614D02*
X10660163Y-10474614D01*
X10631592Y-10517472D01*
X10603020Y-10546043D01*
X10574449Y-10560329D01*
X10874449Y-10746043D02*
X10888735Y-10760329D01*
X10874449Y-10774614D01*
X10860163Y-10760329D01*
X10874449Y-10746043D01*
X10874449Y-10774614D01*
X11160163Y-10474614D02*
X11017306Y-10474614D01*
X11003020Y-10617472D01*
X11017306Y-10603186D01*
X11045877Y-10588900D01*
X11117306Y-10588900D01*
X11145877Y-10603186D01*
X11160163Y-10617472D01*
X11174449Y-10646043D01*
X11174449Y-10717472D01*
X11160163Y-10746043D01*
X11145877Y-10760329D01*
X11117306Y-10774614D01*
X11045877Y-10774614D01*
X11017306Y-10760329D01*
X11003020Y-10746043D01*
X11360163Y-10474614D02*
X11388734Y-10474614D01*
X11417306Y-10488900D01*
X11431592Y-10503186D01*
X11445877Y-10531757D01*
X11460163Y-10588900D01*
X11460163Y-10660329D01*
X11445877Y-10717472D01*
X11431592Y-10746043D01*
X11417306Y-10760329D01*
X11388734Y-10774614D01*
X11360163Y-10774614D01*
X11331592Y-10760329D01*
X11317306Y-10746043D01*
X11303020Y-10717472D01*
X11288734Y-10660329D01*
X11288734Y-10588900D01*
X11303020Y-10531757D01*
X11317306Y-10503186D01*
X11331592Y-10488900D01*
X11360163Y-10474614D01*
X11588734Y-10774614D02*
X11588734Y-10574614D01*
X11588734Y-10603186D02*
X11603020Y-10588900D01*
X11631592Y-10574614D01*
X11674449Y-10574614D01*
X11703020Y-10588900D01*
X11717306Y-10617472D01*
X11717306Y-10774614D01*
X11717306Y-10617472D02*
X11731592Y-10588900D01*
X11760163Y-10574614D01*
X11803020Y-10574614D01*
X11831592Y-10588900D01*
X11845877Y-10617472D01*
X11845877Y-10774614D01*
X11988734Y-10774614D02*
X11988734Y-10574614D01*
X11988734Y-10603186D02*
X12003020Y-10588900D01*
X12031592Y-10574614D01*
X12074449Y-10574614D01*
X12103020Y-10588900D01*
X12117306Y-10617472D01*
X12117306Y-10774614D01*
X12117306Y-10617472D02*
X12131592Y-10588900D01*
X12160163Y-10574614D01*
X12203020Y-10574614D01*
X12231592Y-10588900D01*
X12245877Y-10617472D01*
X12245877Y-10774614D01*
X12831592Y-10460329D02*
X12574449Y-10846043D01*
X13217306Y-10474614D02*
X13245877Y-10474614D01*
X13274449Y-10488900D01*
X13288734Y-10503186D01*
X13303020Y-10531757D01*
X13317306Y-10588900D01*
X13317306Y-10660329D01*
X13303020Y-10717472D01*
X13288734Y-10746043D01*
X13274449Y-10760329D01*
X13245877Y-10774614D01*
X13217306Y-10774614D01*
X13188734Y-10760329D01*
X13174449Y-10746043D01*
X13160163Y-10717472D01*
X13145877Y-10660329D01*
X13145877Y-10588900D01*
X13160163Y-10531757D01*
X13174449Y-10503186D01*
X13188734Y-10488900D01*
X13217306Y-10474614D01*
X13445877Y-10746043D02*
X13460163Y-10760329D01*
X13445877Y-10774614D01*
X13431592Y-10760329D01*
X13445877Y-10746043D01*
X13445877Y-10774614D01*
X13645877Y-10474614D02*
X13674449Y-10474614D01*
X13703020Y-10488900D01*
X13717306Y-10503186D01*
X13731591Y-10531757D01*
X13745877Y-10588900D01*
X13745877Y-10660329D01*
X13731591Y-10717472D01*
X13717306Y-10746043D01*
X13703020Y-10760329D01*
X13674449Y-10774614D01*
X13645877Y-10774614D01*
X13617306Y-10760329D01*
X13603020Y-10746043D01*
X13588734Y-10717472D01*
X13574449Y-10660329D01*
X13574449Y-10588900D01*
X13588734Y-10531757D01*
X13603020Y-10503186D01*
X13617306Y-10488900D01*
X13645877Y-10474614D01*
X14017306Y-10474614D02*
X13874449Y-10474614D01*
X13860163Y-10617472D01*
X13874449Y-10603186D01*
X13903020Y-10588900D01*
X13974449Y-10588900D01*
X14003020Y-10603186D01*
X14017306Y-10617472D01*
X14031591Y-10646043D01*
X14031591Y-10717472D01*
X14017306Y-10746043D01*
X14003020Y-10760329D01*
X13974449Y-10774614D01*
X13903020Y-10774614D01*
X13874449Y-10760329D01*
X13860163Y-10746043D01*
X14174449Y-10774614D02*
X14231591Y-10774614D01*
X14260163Y-10760329D01*
X14274449Y-10746043D01*
X14303020Y-10703186D01*
X14317306Y-10646043D01*
X14317306Y-10531757D01*
X14303020Y-10503186D01*
X14288734Y-10488900D01*
X14260163Y-10474614D01*
X14203020Y-10474614D01*
X14174449Y-10488900D01*
X14160163Y-10503186D01*
X14145877Y-10531757D01*
X14145877Y-10603186D01*
X14160163Y-10631757D01*
X14174449Y-10646043D01*
X14203020Y-10660329D01*
X14260163Y-10660329D01*
X14288734Y-10646043D01*
X14303020Y-10631757D01*
X14317306Y-10603186D01*
X14431592Y-10474614D02*
X14431592Y-10531757D01*
X14545877Y-10474614D02*
X14545877Y-10531757D01*
X14988734Y-10888900D02*
X14974449Y-10874614D01*
X14945877Y-10831757D01*
X14931591Y-10803186D01*
X14917306Y-10760329D01*
X14903020Y-10688900D01*
X14903020Y-10631757D01*
X14917306Y-10560329D01*
X14931591Y-10517472D01*
X14945877Y-10488900D01*
X14974449Y-10446043D01*
X14988734Y-10431757D01*
X15231591Y-10574614D02*
X15231591Y-10774614D01*
X15160163Y-10460329D02*
X15088734Y-10674614D01*
X15274449Y-10674614D01*
X15545877Y-10774614D02*
X15374449Y-10774614D01*
X15460163Y-10774614D02*
X15460163Y-10474614D01*
X15431591Y-10517472D01*
X15403020Y-10546043D01*
X15374449Y-10560329D01*
X15903020Y-10774614D02*
X15903020Y-10474614D01*
X16031591Y-10774614D02*
X16031591Y-10617472D01*
X16017306Y-10588900D01*
X15988734Y-10574614D01*
X15945877Y-10574614D01*
X15917306Y-10588900D01*
X15903020Y-10603186D01*
X16217306Y-10774614D02*
X16188734Y-10760329D01*
X16174449Y-10746043D01*
X16160163Y-10717472D01*
X16160163Y-10631757D01*
X16174449Y-10603186D01*
X16188734Y-10588900D01*
X16217306Y-10574614D01*
X16260163Y-10574614D01*
X16288734Y-10588900D01*
X16303020Y-10603186D01*
X16317306Y-10631757D01*
X16317306Y-10717472D01*
X16303020Y-10746043D01*
X16288734Y-10760329D01*
X16260163Y-10774614D01*
X16217306Y-10774614D01*
X16488734Y-10774614D02*
X16460163Y-10760329D01*
X16445877Y-10731757D01*
X16445877Y-10474614D01*
X16717306Y-10760329D02*
X16688734Y-10774614D01*
X16631592Y-10774614D01*
X16603020Y-10760329D01*
X16588734Y-10731757D01*
X16588734Y-10617472D01*
X16603020Y-10588900D01*
X16631592Y-10574614D01*
X16688734Y-10574614D01*
X16717306Y-10588900D01*
X16731592Y-10617472D01*
X16731592Y-10646043D01*
X16588734Y-10674614D01*
X16845877Y-10760329D02*
X16874449Y-10774614D01*
X16931592Y-10774614D01*
X16960163Y-10760329D01*
X16974449Y-10731757D01*
X16974449Y-10717472D01*
X16960163Y-10688900D01*
X16931592Y-10674614D01*
X16888735Y-10674614D01*
X16860163Y-10660329D01*
X16845877Y-10631757D01*
X16845877Y-10617472D01*
X16860163Y-10588900D01*
X16888735Y-10574614D01*
X16931592Y-10574614D01*
X16960163Y-10588900D01*
X17074449Y-10888900D02*
X17088735Y-10874614D01*
X17117306Y-10831757D01*
X17131592Y-10803186D01*
X17145877Y-10760329D01*
X17160163Y-10688900D01*
X17160163Y-10631757D01*
X17145877Y-10560329D01*
X17131592Y-10517472D01*
X17117306Y-10488900D01*
X17088735Y-10446043D01*
X17074449Y-10431757D01*
X10017306Y-10884900D02*
X10317306Y-11184900D01*
X10317306Y-10884900D02*
X10017306Y-11184900D01*
X10317306Y-11034900D02*
G75*
G03X10317306Y-11034900I-150000J0D01*
G01*
X10560163Y-10870614D02*
X10745877Y-10870614D01*
X10645877Y-10984900D01*
X10688735Y-10984900D01*
X10717306Y-10999186D01*
X10731592Y-11013472D01*
X10745877Y-11042043D01*
X10745877Y-11113472D01*
X10731592Y-11142043D01*
X10717306Y-11156329D01*
X10688735Y-11170614D01*
X10603020Y-11170614D01*
X10574449Y-11156329D01*
X10560163Y-11142043D01*
X10874449Y-11142043D02*
X10888735Y-11156329D01*
X10874449Y-11170614D01*
X10860163Y-11156329D01*
X10874449Y-11142043D01*
X10874449Y-11170614D01*
X11074449Y-10870614D02*
X11103020Y-10870614D01*
X11131592Y-10884900D01*
X11145877Y-10899186D01*
X11160163Y-10927757D01*
X11174449Y-10984900D01*
X11174449Y-11056329D01*
X11160163Y-11113472D01*
X11145877Y-11142043D01*
X11131592Y-11156329D01*
X11103020Y-11170614D01*
X11074449Y-11170614D01*
X11045877Y-11156329D01*
X11031592Y-11142043D01*
X11017306Y-11113472D01*
X11003020Y-11056329D01*
X11003020Y-10984900D01*
X11017306Y-10927757D01*
X11031592Y-10899186D01*
X11045877Y-10884900D01*
X11074449Y-10870614D01*
X11360163Y-10870614D02*
X11388734Y-10870614D01*
X11417306Y-10884900D01*
X11431592Y-10899186D01*
X11445877Y-10927757D01*
X11460163Y-10984900D01*
X11460163Y-11056329D01*
X11445877Y-11113472D01*
X11431592Y-11142043D01*
X11417306Y-11156329D01*
X11388734Y-11170614D01*
X11360163Y-11170614D01*
X11331592Y-11156329D01*
X11317306Y-11142043D01*
X11303020Y-11113472D01*
X11288734Y-11056329D01*
X11288734Y-10984900D01*
X11303020Y-10927757D01*
X11317306Y-10899186D01*
X11331592Y-10884900D01*
X11360163Y-10870614D01*
X11588734Y-11170614D02*
X11588734Y-10970614D01*
X11588734Y-10999186D02*
X11603020Y-10984900D01*
X11631592Y-10970614D01*
X11674449Y-10970614D01*
X11703020Y-10984900D01*
X11717306Y-11013472D01*
X11717306Y-11170614D01*
X11717306Y-11013472D02*
X11731592Y-10984900D01*
X11760163Y-10970614D01*
X11803020Y-10970614D01*
X11831592Y-10984900D01*
X11845877Y-11013472D01*
X11845877Y-11170614D01*
X11988734Y-11170614D02*
X11988734Y-10970614D01*
X11988734Y-10999186D02*
X12003020Y-10984900D01*
X12031592Y-10970614D01*
X12074449Y-10970614D01*
X12103020Y-10984900D01*
X12117306Y-11013472D01*
X12117306Y-11170614D01*
X12117306Y-11013472D02*
X12131592Y-10984900D01*
X12160163Y-10970614D01*
X12203020Y-10970614D01*
X12231592Y-10984900D01*
X12245877Y-11013472D01*
X12245877Y-11170614D01*
X12831592Y-10856329D02*
X12574449Y-11242043D01*
X13217306Y-10870614D02*
X13245877Y-10870614D01*
X13274449Y-10884900D01*
X13288734Y-10899186D01*
X13303020Y-10927757D01*
X13317306Y-10984900D01*
X13317306Y-11056329D01*
X13303020Y-11113472D01*
X13288734Y-11142043D01*
X13274449Y-11156329D01*
X13245877Y-11170614D01*
X13217306Y-11170614D01*
X13188734Y-11156329D01*
X13174449Y-11142043D01*
X13160163Y-11113472D01*
X13145877Y-11056329D01*
X13145877Y-10984900D01*
X13160163Y-10927757D01*
X13174449Y-10899186D01*
X13188734Y-10884900D01*
X13217306Y-10870614D01*
X13445877Y-11142043D02*
X13460163Y-11156329D01*
X13445877Y-11170614D01*
X13431592Y-11156329D01*
X13445877Y-11142043D01*
X13445877Y-11170614D01*
X13745877Y-11170614D02*
X13574449Y-11170614D01*
X13660163Y-11170614D02*
X13660163Y-10870614D01*
X13631591Y-10913472D01*
X13603020Y-10942043D01*
X13574449Y-10956329D01*
X14031591Y-11170614D02*
X13860163Y-11170614D01*
X13945877Y-11170614D02*
X13945877Y-10870614D01*
X13917306Y-10913472D01*
X13888734Y-10942043D01*
X13860163Y-10956329D01*
X14203020Y-10999186D02*
X14174449Y-10984900D01*
X14160163Y-10970614D01*
X14145877Y-10942043D01*
X14145877Y-10927757D01*
X14160163Y-10899186D01*
X14174449Y-10884900D01*
X14203020Y-10870614D01*
X14260163Y-10870614D01*
X14288734Y-10884900D01*
X14303020Y-10899186D01*
X14317306Y-10927757D01*
X14317306Y-10942043D01*
X14303020Y-10970614D01*
X14288734Y-10984900D01*
X14260163Y-10999186D01*
X14203020Y-10999186D01*
X14174449Y-11013472D01*
X14160163Y-11027757D01*
X14145877Y-11056329D01*
X14145877Y-11113472D01*
X14160163Y-11142043D01*
X14174449Y-11156329D01*
X14203020Y-11170614D01*
X14260163Y-11170614D01*
X14288734Y-11156329D01*
X14303020Y-11142043D01*
X14317306Y-11113472D01*
X14317306Y-11056329D01*
X14303020Y-11027757D01*
X14288734Y-11013472D01*
X14260163Y-10999186D01*
X14431592Y-10870614D02*
X14431592Y-10927757D01*
X14545877Y-10870614D02*
X14545877Y-10927757D01*
X14988734Y-11284900D02*
X14974449Y-11270614D01*
X14945877Y-11227757D01*
X14931591Y-11199186D01*
X14917306Y-11156329D01*
X14903020Y-11084900D01*
X14903020Y-11027757D01*
X14917306Y-10956329D01*
X14931591Y-10913472D01*
X14945877Y-10884900D01*
X14974449Y-10842043D01*
X14988734Y-10827757D01*
X15074449Y-10870614D02*
X15274449Y-10870614D01*
X15145877Y-11170614D01*
X15617306Y-11170614D02*
X15617306Y-10870614D01*
X15745877Y-11170614D02*
X15745877Y-11013472D01*
X15731591Y-10984900D01*
X15703020Y-10970614D01*
X15660163Y-10970614D01*
X15631591Y-10984900D01*
X15617306Y-10999186D01*
X15931591Y-11170614D02*
X15903020Y-11156329D01*
X15888734Y-11142043D01*
X15874449Y-11113472D01*
X15874449Y-11027757D01*
X15888734Y-10999186D01*
X15903020Y-10984900D01*
X15931591Y-10970614D01*
X15974449Y-10970614D01*
X16003020Y-10984900D01*
X16017306Y-10999186D01*
X16031591Y-11027757D01*
X16031591Y-11113472D01*
X16017306Y-11142043D01*
X16003020Y-11156329D01*
X15974449Y-11170614D01*
X15931591Y-11170614D01*
X16203020Y-11170614D02*
X16174449Y-11156329D01*
X16160163Y-11127757D01*
X16160163Y-10870614D01*
X16431592Y-11156329D02*
X16403020Y-11170614D01*
X16345877Y-11170614D01*
X16317306Y-11156329D01*
X16303020Y-11127757D01*
X16303020Y-11013472D01*
X16317306Y-10984900D01*
X16345877Y-10970614D01*
X16403020Y-10970614D01*
X16431592Y-10984900D01*
X16445877Y-11013472D01*
X16445877Y-11042043D01*
X16303020Y-11070614D01*
X16560163Y-11156329D02*
X16588734Y-11170614D01*
X16645877Y-11170614D01*
X16674449Y-11156329D01*
X16688734Y-11127757D01*
X16688734Y-11113472D01*
X16674449Y-11084900D01*
X16645877Y-11070614D01*
X16603020Y-11070614D01*
X16574449Y-11056329D01*
X16560163Y-11027757D01*
X16560163Y-11013472D01*
X16574449Y-10984900D01*
X16603020Y-10970614D01*
X16645877Y-10970614D01*
X16674449Y-10984900D01*
X16788734Y-11284900D02*
X16803020Y-11270614D01*
X16831592Y-11227757D01*
X16845877Y-11199186D01*
X16860163Y-11156329D01*
X16874449Y-11084900D01*
X16874449Y-11027757D01*
X16860163Y-10956329D01*
X16845877Y-10913472D01*
X16831592Y-10884900D01*
X16803020Y-10842043D01*
X16788734Y-10827757D01*
M02*
