M48
;DRILL file {kicad (after 2015-mar-04 BZR unknown)-product} date 4/3/2016 5:34:33 PM
;FORMAT={-:-/ absolute / metric / decimal}
FMAT,2
METRIC,TZ
T1C0.800
T2C1.000
T3C1.001
T4C1.016
T5C1.500
T6C3.000
%
G90
G05
M71
T1
X139.924Y-44.44
X139.924Y-46.98
X139.924Y-49.52
X139.924Y-52.06
X139.924Y-54.6
X139.924Y-57.14
X139.924Y-59.68
X174.744Y-42.555
X174.744Y-45.095
X174.765Y-49.2
X174.765Y-51.74
X174.8Y-29.116
X174.8Y-31.656
X174.8Y-35.85
X174.8Y-38.39
X182.364Y-42.555
X182.364Y-45.095
X182.385Y-49.2
X182.385Y-51.74
X182.42Y-29.116
X182.42Y-31.656
X182.42Y-35.85
X182.42Y-38.39
T2
X136.611Y-63.569
X136.611Y-65.667
X137.833Y-72.771
X137.833Y-75.271
X138.8Y-65.3
X138.8Y-68.8
X142.382Y-61.557
X142.382Y-63.655
X144.414Y-47.686
X144.882Y-69.637
X144.902Y-69.632
X145.39Y-72.847
X145.39Y-75.347
X149.55Y-76.865
X150.Y-63.017
X150.002Y-63.012
X150.043Y-59.55
X150.053Y-59.543
X154.55Y-76.865
X156.789Y-57.592
X156.789Y-57.592
X160.3Y-46.7
X168.753Y-40.104
X171.861Y-77.841
X171.861Y-79.939
X172.684Y-40.127
X192.519Y-61.57
X192.519Y-64.11
X192.519Y-66.65
X192.519Y-69.19
X192.519Y-71.73
T3
X165.2Y-45.78
X165.228Y-49.062
X167.395Y-48.274
X167.4Y-44.08
X169.7Y-42.38
X169.705Y-47.336
T4
X136.997Y-77.645
X139.537Y-77.645
X142.077Y-77.645
X144.043Y-34.569
X144.617Y-77.645
X146.583Y-34.569
X149.123Y-34.569
X151.663Y-34.569
X154.203Y-34.569
X156.743Y-34.569
X159.283Y-34.569
X160.012Y-78.763
X160.4Y-49.1
X160.46Y-51.5
X160.46Y-56.4
X160.5Y-53.9
X161.823Y-34.569
X162.552Y-78.763
X162.94Y-49.1
X163.Y-51.5
X163.Y-56.4
X163.04Y-53.9
X165.092Y-78.763
X189.847Y-61.509
X189.847Y-64.049
X189.847Y-66.589
X189.847Y-69.129
X189.847Y-71.669
X189.847Y-74.209
X189.847Y-76.749
T5
X108.86Y-39.987
X108.86Y-44.94
X108.89Y-47.523
X108.96Y-57.447
X108.96Y-62.527
X108.96Y-67.48
X108.966Y-40.005
X108.966Y-55.016
X108.966Y-62.509
X108.966Y-70.028
X111.938Y-30.505
X116.86Y-52.05
X116.911Y-64.094
X116.911Y-75.997
X116.967Y-39.787
X119.4Y-44.45
X119.451Y-56.495
X119.451Y-68.397
X119.507Y-32.187
X132.103Y-52.047
X132.105Y-44.45
X132.154Y-64.092
X132.154Y-75.994
X132.156Y-56.495
X132.156Y-68.397
X132.21Y-39.784
X132.212Y-32.187
X135.428Y-31.34
X140.508Y-31.34
X145.461Y-31.34
X150.414Y-31.34
X155.494Y-31.34
X160.447Y-31.34
X165.527Y-31.34
X170.48Y-31.34
X184.648Y-29.261
X189.052Y-35.623
X189.052Y-40.576
X189.052Y-45.657
X189.052Y-50.609
X189.052Y-55.689
T6
X105.893Y-30.239
X107.163Y-78.499
X128.8Y-77.8
X129.Y-30.8
X169.388Y-34.707
X182.093Y-78.499
X188.443Y-30.239
T0
M30
