M48
;DRILL file {kicad (after 2015-mar-04 BZR unknown)-product} date 3/1/2016 11:33:16 AM
;FORMAT={-:-/ absolute / metric / decimal}
FMAT,2
METRIC,TZ
T1C0.800
T2C1.001
T3C1.016
T4C1.300
T5C3.000
%
G90
G05
M71
T1
X137.833Y-72.771
X137.833Y-75.271
X143.802Y-72.746
X143.802Y-75.246
X174.879Y-29.82
X174.879Y-32.36
X175.031Y-37.516
X175.031Y-40.056
X175.031Y-45.06
X175.031Y-47.6
X175.082Y-52.476
X175.082Y-55.016
X182.499Y-29.82
X182.499Y-32.36
X182.651Y-37.516
X182.651Y-40.056
X182.651Y-45.06
X182.651Y-47.6
X182.702Y-52.476
X182.702Y-55.016
T2
X108.89Y-47.523
X108.966Y-40.005
X108.966Y-55.016
X108.966Y-62.509
X108.966Y-70.028
X147.828Y-72.085
X147.828Y-79.705
X187.452Y-36.17
X187.452Y-41.123
X187.452Y-46.203
X187.452Y-51.156
X187.452Y-56.236
T3
X111.938Y-30.505
X136.982Y-77.762
X139.522Y-77.762
X142.062Y-77.762
X144.043Y-34.569
X144.602Y-77.762
X146.583Y-34.569
X149.123Y-34.569
X151.663Y-34.569
X154.203Y-34.569
X156.743Y-34.569
X159.283Y-34.569
X160.579Y-52.299
X161.823Y-34.569
X163.119Y-52.299
X166.721Y-51.41
X169.261Y-51.41
X184.15Y-29.032
X189.789Y-58.953
X189.789Y-61.493
X189.789Y-64.033
X189.789Y-66.573
X189.789Y-69.113
X189.789Y-71.653
X189.789Y-74.193
X189.789Y-76.733
T4
X117.038Y-68.41
X117.089Y-44.597
X117.089Y-56.535
X117.216Y-32.405
X119.578Y-76.01
X119.629Y-52.197
X119.629Y-64.135
X119.756Y-40.005
X132.281Y-68.412
X132.283Y-76.009
X132.331Y-44.6
X132.331Y-56.538
X132.334Y-52.197
X132.334Y-64.135
X132.458Y-32.408
X132.461Y-40.005
T5
X105.766Y-30.01
X107.036Y-78.27
X181.966Y-78.27
X188.316Y-30.01
T0
M30
